<svg xmlns="http://www.w3.org/2000/svg" viewBox="0 0 348.26 462.88">
	<defs>
		<style>.floors-cls-1{fill:none;}.floors-cls-2{fill:#cf7046;opacity:0.75;}</style>
	</defs>
	<title>svg_floors</title>
	<rect id="fp-invisible" class="floors-cls-1" x="0.24" width="347.79" height="462.88"/>
	<polygon id="fp-first" class="floors-cls-2" points="338.79 338.23 338.87 341.32 276.74 340.02 277.24 338.02 279.49 334.52 235.62 331.4 193.99 334.9 200.2 336.69 200.2 341.02 138.37 341.19 119.87 342.5 119.12 346.77 89.99 347.4 89.99 342.4 0.24 344.86 0.24 379.98 73.77 391.92 83.24 391.15 97.17 391.39 97.03 397.86 165.99 406.54 166.12 411.85 191.3 415.82 205.68 418.09 209.49 417.46 247.12 422.27 314.04 416.44 314.04 401.9 348.02 398.32 348.02 355.68 348.26 338.32 338.79 338.23"/>
	<polygon id="fp-second" class="floors-cls-2" points="338.31 296.17 338.31 298.21 275.62 288.59 275.6 293.28 236.3 288.94 199.93 293.4 199.62 287.15 138.52 298.71 133.59 298.71 120.48 299.95 120.48 309.52 99.62 312.27 90.37 311.02 90.37 307.27 83.12 308.77 74.17 308.77 0.24 325.23 0.24 344.86 89.99 342.4 89.99 347.4 98.74 346.9 119.12 346.77 119.87 342.5 133.2 341.69 138.37 341.19 200.2 341.02 200.2 336.69 193.53 334.69 235.87 331.77 279.87 334.27 276.87 338.15 276.74 340.02 338.87 341.32 338.79 338.23 348.26 338.32 348.02 298.25 338.31 296.17"/>
	<polygon id="fp-third" class="floors-cls-2" points="338.4 252.7 338.4 254.44 275.54 240.3 275.67 244.94 236.3 233.85 199.77 243.97 199.77 240.3 138.58 258.42 133.59 258.56 120.29 263.41 120.29 272.69 109.45 277.5 90.31 277.44 90.37 273.48 83.89 275.3 74.54 275.3 0.24 300.04 0.24 325.23 74.17 308.77 83.51 308.77 90.37 307.27 90.37 311.02 99.62 312.27 120.12 309.77 120.12 299.95 133.56 298.9 138.49 298.9 199.9 287.27 199.93 293.4 236.3 288.94 275.54 293.56 275.54 288.8 338.31 298.21 338.31 296.17 348.02 298.25 348.02 254.76 338.4 252.7"/>
	<polygon id="fp-fourth" class="floors-cls-2" points="338.4 221.67 338.4 218.21 275.67 199.33 275.67 196.9 236.3 184.35 199.77 199.31 199.77 201.61 138.51 223.56 133.2 223.56 120.29 229.16 120.29 237.48 109.81 242.27 91.93 242.27 82.85 246.36 74.28 246.36 62.34 250.51 62.34 252.68 52.87 256.35 50.41 256.35 46.12 257.91 46.12 259.47 39.25 261.8 31.2 261.8 17.71 267.24 17.71 269.83 0.24 275.76 0.24 300.04 74.54 275.3 83.89 275.3 90.37 273.48 90.37 277.63 109.32 277.63 120.48 272.78 120.48 263.36 133.59 258.56 138.52 258.56 199.9 240.26 199.9 244.03 236.3 233.53 275.54 245.06 275.54 240.3 338.31 254.72 338.31 252.68 348.02 254.76 348.02 224.34 338.4 221.67"/>
	<polygon id="fp-fifth" class="floors-cls-2" points="337.74 179.73 337.74 176.28 275.49 151.71 275.49 149.28 236.49 134.03 200.99 152.23 200.99 154.53 140.74 183.28 135.49 183.4 120.57 191.61 120.18 194.74 120.62 198.4 112.24 205.65 100.62 204.9 86.74 210.4 76.62 210.03 64.24 215.9 64.12 218.65 53.49 223.03 48.49 225.03 46.37 226.28 37.87 230.28 20.74 237.9 0.24 248.48 0 275.86 17.71 269.83 17.71 267.24 31.2 261.8 39.25 261.8 46.12 259.47 46.12 257.91 51.05 256.17 52.87 256.35 62.34 252.68 62.34 250.51 74.28 246.36 82.85 246.36 91.93 242.27 109.81 242.27 119.98 237.62 120.29 229.16 133.2 223.56 138.51 223.56 199.77 201.61 199.77 199.31 236.3 184.53 275.54 196.06 275.67 199.33 338.4 218.21 338.48 221.71 348.02 224.34 348.02 207.93 348.02 207.93 348.02 185.57 337.74 179.73"/>
	<polygon id="fp-sixth" class="floors-cls-2" points="339.45 123.91 339.73 119.03 341.39 114.86 344.89 110.53 271.89 71.53 241.89 72.53 238.06 70.53 233.39 73.19 207.23 74.03 144.39 113.86 135.06 111.69 72.39 151.69 72.89 160.19 62.54 157.86 33.53 177.06 38.06 180.36 38.06 184.35 0.43 206.78 0.43 248.11 48.69 225.03 64.31 218.65 64.44 215.9 76.81 210.03 86.94 210.4 100.81 204.9 112.44 205.65 120.81 198.4 120.77 191.61 135.69 183.4 140.94 183.28 201.19 154.53 201.19 152.23 236.49 135.53 275.69 149.28 275.69 151.71 337.94 176.28 337.94 179.73 348.22 185.57 348.22 126.34 339.45 123.91"/>
</svg>