<svg xmlns="http://www.w3.org/2000/svg" viewBox="0 0 23.1 23.1"><defs><style>.cls-1{fill:none;stroke:#fff;stroke-miterlimit:10;stroke-width:0.71px;}</style></defs><title>svg_phone-icon</title><g id="Layer_2" data-name="Layer 2"><g id="Layer_1-2" data-name="Layer 1"><path class="cls-1" d="M16.28,6.43l-.65-.65a.61.61,0,0,0-.86,0L13,7.59a.61.61,0,0,0,0,.86l.42.42a.61.61,0,0,1,0,.86L9.75,13.36a.61.61,0,0,1-.86,0l-.42-.42a.61.61,0,0,0-.86,0L5.79,14.75a.61.61,0,0,0,0,.86l.65.65A2.66,2.66,0,0,0,9,17,11.91,11.91,0,0,0,14,14a11.88,11.88,0,0,0,3-5A2.66,2.66,0,0,0,16.28,6.43Z"/><circle class="cls-1" cx="11.55" cy="11.55" r="11.2"/></g></g></svg>