<svg xmlns="http://www.w3.org/2000/svg" viewBox="0 0 13 13">
	<defs>
		<style>.facebook-cls-1{fill:#32553b;}</style>
	</defs>
	<title>svg_facebook</title>
	<path class="facebook-cls-1" d="M11.25,0H1.75A1.75,1.75,0,0,0,0,1.75v9.5A1.75,1.75,0,0,0,1.75,13H6.44V8.35H5.24A.28.28,0,0,1,5,8.07V6.57a.28.28,0,0,1,.28-.29h1.2V4.84A2.36,2.36,0,0,1,9,2.25h1.23a.28.28,0,0,1,.28.28V3.79a.28.28,0,0,1-.28.28H9.43c-.81,0-1,.39-1,1V6.29h1.79a.28.28,0,0,1,.28.32l-.18,1.5a.28.28,0,0,1-.28.25H8.47V13h2.79A1.75,1.75,0,0,0,13,11.25V1.75A1.75,1.75,0,0,0,11.25,0Z"/>
</svg>