<?xml version="1.0" encoding="utf-8"?>
<!-- Generator: Adobe Illustrator 21.1.0, SVG Export Plug-In . SVG Version: 6.00 Build 0)  -->
<svg version="1.1" xmlns="http://www.w3.org/2000/svg" xmlns:xlink="http://www.w3.org/1999/xlink" x="0px" y="0px"
	 viewBox="0 0 719.3 473.9" style="enable-background:new 0 0 719.3 473.9;" xml:space="preserve">
<style type="text/css">
	.map-st0{fill:#E8E7E6;}
	.map-st1{fill:none;stroke:#C8D0C9;stroke-width:9.04;stroke-miterlimit:10;}
	.map-st2{fill:none;stroke:#C8D0C9;stroke-width:2.26;stroke-miterlimit:10;}
	.map-st3{enable-background:new    ;}
	.map-st4{fill:#32553B;}
	.map-st5{opacity:0.25;fill:#E4E9E4;enable-background:new    ;}
	.map-st6{fill:#C8D0C9;}
	.map-st7{fill:none;stroke:#32553B;stroke-width:0.75;stroke-miterlimit:10;}
	.map-st8{fill:#E4E9E4;}
	.map-st9{fill:none;stroke:#E4E9E4;stroke-width:2.26;stroke-miterlimit:10;}
	.map-st10{fill:none;stroke:#C8D0C9;stroke-width:0.38;stroke-miterlimit:10;}
	.map-st11{fill:none;stroke:#32553B;stroke-width:1.51;stroke-linejoin:round;}
	.map-st12{fill:#E8E7E6;stroke:#32553B;stroke-width:0.11;stroke-linejoin:round;}
	.map-st13{fill:none;stroke:#32553B;stroke-width:0.11;stroke-linejoin:round;}
	.map-st14{fill:#FFFFFF;stroke:#32553B;stroke-width:0.11;stroke-linejoin:round;}
	.map-st15{fill:#E8E7E6;stroke:#32553B;stroke-width:1.51;stroke-linejoin:round;}
</style>
<g id="ENV">
	<rect x="237.8" y="158.9" class="map-st0" width="293.6" height="178.6"/>
	<line class="map-st1" x1="482.1" y1="22.5" x2="1.2" y2="22.5"/>
	<path class="map-st2" d="M718.2,461.3H376.3c-1.4,0-2.7,0.5-3.6,1.5l-6.7,6.7c-1,1-2.3,1.5-3.6,1.5H292c-1.4,0-2.7-0.5-3.6-1.5
		l-6.7-6.7c-1-1-2.3-1.5-3.6-1.5H66.1c-2.1,0-4.1,0.5-5.9,1.5l-14.9,8.3c-2.8,1.6-6.1,2-9.2,1.1c-10.8-3.1-35-12.6-35-36.7V24
		c0-12.6,10.2-22.8,22.8-22.9c0,0,0.1,0,0.1,0h49.5c2,0,4,0.8,5.4,2.2l5.3,5.3c1.4,1.4,3.4,2.2,5.4,2.2h124.9c2,0,4-0.8,5.4-2.2
		l5.3-5.3c1.4-1.4,3.4-2.2,5.4-2.2h54.6c2,0,4,0.8,5.4,2.2l5.3,5.3c1.4,1.4,3.4,2.2,5.4,2.2h123.2c2,0,4-0.8,5.4-2.2l5.2-5.3
		c1.4-1.4,3.4-2.2,5.4-2.2h108.8c2,0,4,0.8,5.4,2.2l5.3,5.3c1.4,1.4,3.4,2.2,5.4,2.2h90.1c2,0,4-0.8,5.4-2.2l5.3-5.3
		c1.4-1.4,3.4-2.2,5.4-2.2h46.8L718.2,461.3z"/>
	<path class="map-st1" d="M433.5,22.5c0,21.4-23.5,45.5-62.6,45.5s-62.6-24.1-62.6-45.5"/>
	<g class="map-st3">
		<path class="map-st4" d="M328.1,35.2h2.4c0.7,0,1.2,0.2,1.5,0.5c0.3,0.3,0.4,0.7,0.4,1.1v0c0,0.9-0.5,1.4-1.3,1.6l1.4,2h-1.1l-1.3-1.8
			H329v1.8h-0.9V35.2z M330.4,37.8c0.7,0,1.1-0.3,1.1-0.9v0c0-0.6-0.4-0.9-1.1-0.9H329v1.8H330.4z"/>
		<path class="map-st4" d="M333.8,35.2h0.9v2.2h2.5v-2.2h0.9v5.3h-0.9v-2.2h-2.5v2.2h-0.9V35.2z"/>
		<path class="map-st4" d="M339.8,35.2h3.9v0.8h-3v1.4h2.6v0.8h-2.6v1.4h3v0.8h-4V35.2z"/>
		<path class="map-st4" d="M346.5,36.1h-1.7v-0.9h4.3v0.9h-1.7v4.4h-0.9V36.1z"/>
		<path class="map-st4" d="M351.7,36.1H350v-0.9h4.3v0.9h-1.7v4.4h-0.9V36.1z"/>
	</g>
	<g class="map-st3">
		<path class="map-st4" d="M357.8,39.7l0.6-0.7c0.5,0.4,1,0.7,1.7,0.7c0.6,0,0.9-0.3,0.9-0.7v0c0-0.4-0.2-0.6-1.2-0.8
			c-1.1-0.3-1.8-0.6-1.8-1.6v0c0-0.9,0.8-1.5,1.8-1.5c0.8,0,1.4,0.2,1.9,0.7l-0.5,0.7c-0.5-0.4-1-0.5-1.4-0.5
			c-0.5,0-0.9,0.3-0.9,0.6v0c0,0.4,0.2,0.6,1.3,0.8c1.1,0.3,1.7,0.7,1.7,1.5v0c0,1-0.8,1.6-1.9,1.6
			C359.2,40.6,358.4,40.3,357.8,39.7z"/>
	</g>
	<g class="map-st3">
		<path class="map-st4" d="M364.4,36.1h-1.7v-0.9h4.3v0.9h-1.7v4.4h-0.9V36.1z"/>
		<path class="map-st4" d="M368.3,35.2h2.4c0.7,0,1.2,0.2,1.5,0.5c0.3,0.3,0.4,0.7,0.4,1.1v0c0,0.9-0.5,1.4-1.3,1.6l1.4,2h-1.1l-1.3-1.8
			h-1.2v1.8h-0.9V35.2z M370.6,37.8c0.7,0,1.1-0.3,1.1-0.9v0c0-0.6-0.4-0.9-1.1-0.9h-1.3v1.8H370.6z"/>
		<path class="map-st4" d="M374.1,35.2h3.9v0.8h-3v1.4h2.6v0.8H375v1.4h3v0.8h-4V35.2z"/>
		<path class="map-st4" d="M379.4,35.2h3.9v0.8h-3v1.4h2.6v0.8h-2.6v1.4h3v0.8h-4V35.2z"/>
		<path class="map-st4" d="M386.1,36.1h-1.7v-0.9h4.3v0.9H387v4.4h-0.9V36.1z"/>
	</g>
	<g class="map-st3">
		<path class="map-st4" d="M392.5,35.2h2.1c1.2,0,2,0.7,2,1.8v0c0,1.2-0.9,1.8-2.1,1.8h-1v1.7h-0.9V35.2z M394.5,38
			c0.7,0,1.1-0.4,1.1-0.9v0c0-0.6-0.4-0.9-1.1-0.9h-1.1V38H394.5z"/>
	</g>
	<g class="map-st3">
		<path class="map-st4" d="M399.2,35.2h0.9l2.3,5.3h-1l-0.5-1.3h-2.5l-0.5,1.3h-1L399.2,35.2z M400.5,38.4l-0.9-2.1l-0.9,2.1H400.5z"/>
		<path class="map-st4" d="M403.6,35.2h2.4c0.7,0,1.2,0.2,1.5,0.5c0.3,0.3,0.4,0.7,0.4,1.1v0c0,0.9-0.5,1.4-1.3,1.6l1.4,2H407l-1.3-1.8
			h-1.2v1.8h-0.9V35.2z M405.9,37.8c0.7,0,1.1-0.3,1.1-0.9v0c0-0.6-0.4-0.9-1.1-0.9h-1.3v1.8H405.9z"/>
		<path class="map-st4" d="M409.3,35.2h0.9v2.7l2.5-2.7h1.1l-2.2,2.3l2.3,3h-1.1l-1.8-2.4l-0.8,0.8v1.5h-0.9V35.2z"/>
	</g>
	<line class="map-st1" x1="718.2" y1="22.5" x2="527.7" y2="22.5"/>
	<path class="map-st1" d="M579.6,10.5c0,6.6-5.3,11.9-11.9,11.9l0,0"/>
	<path class="map-st1" d="M579.6,10.5c0,6.6,5.3,11.9,11.9,11.9l0,0"/>
	<path class="map-st1" d="M644.2,10.5c0,6.6-5.3,11.9-11.9,11.9"/>
	<path class="map-st1" d="M644.2,10.5c0,6.6,5.3,11.9,11.9,11.9l0,0"/>
	<path class="map-st5" d="M718.3,462.4H376.4c-1.4,0-2.7,0.5-3.6,1.5l-6.7,6.7c-1,1-2.3,1.5-3.6,1.5h-70.4c-1.4,0-2.7-0.5-3.6-1.5
		l-6.7-6.7c-1-1-2.3-1.5-3.6-1.5H66.2c-2.1,0-4.1,0.5-5.9,1.5l-14.9,8.3c-2.8,1.6-6.1,2-9.2,1.1c-10.8-3.1-35-12.6-35-36.7V25
		C1.2,12.4,11.4,2.2,24,2.2h49.6c2,0,4,0.8,5.4,2.2l5.3,5.3c1.4,1.4,3.4,2.2,5.4,2.2h124.9c2,0,4-0.8,5.4-2.2l5.3-5.3
		c1.4-1.4,3.4-2.2,5.4-2.2h54.6c2,0,4,0.8,5.4,2.2l5.3,5.3c1.4,1.4,3.4,2.2,5.4,2.2h123.2c2,0,4-0.8,5.4-2.2l5.3-5.3
		c1.4-1.4,3.4-2.2,5.4-2.2h108.7c2,0,4,0.8,5.4,2.2l5.3,5.3c1.4,1.4,3.4,2.2,5.4,2.2h90.1c2,0,4-0.8,5.4-2.2l5.3-5.3
		c1.4-1.4,3.4-2.2,5.4-2.2h46.8L718.3,462.4z"/>
	<polygon class="map-st6" points="482.4,27 480.7,27 487.4,18 489,18 	"/>
	<polygon class="map-st6" points="486.1,27 484.4,27 491,18 492.7,18 	"/>
	<polygon class="map-st6" points="489.7,27 488,27 494.6,18 496.3,18 	"/>
	<polygon class="map-st6" points="493.4,27 491.6,27 498.3,18 500,18 	"/>
	<polygon class="map-st6" points="497,27 495.3,27 501.9,18 503.6,18 	"/>
	<polygon class="map-st6" points="500.6,27 498.9,27 505.5,18 507.2,18 	"/>
	<polygon class="map-st6" points="504.3,27 502.6,27 509.2,18 510.9,18 	"/>
	<polygon class="map-st6" points="507.9,27 506.2,27 512.8,18 514.5,18 	"/>
	<polygon class="map-st6" points="511.6,27 509.9,27 516.5,18 518.2,18 	"/>
	<polygon class="map-st6" points="515.2,27 513.5,27 520.1,18 521.8,18 	"/>
	<polygon class="map-st6" points="518.8,27 517.1,27 523.7,18 525.5,18 	"/>
	<polygon class="map-st6" points="522.5,27 520.8,27 527.4,18 529.1,18 	"/>
	<g class="map-st3">
		<path class="map-st4" d="M499.7,8.1h1.7c1,0,1.6,0.6,1.6,1.4v0c0,1-0.8,1.4-1.7,1.4h-0.8v1.4h-0.7V8.1z M501.3,10.3
			c0.6,0,0.9-0.3,0.9-0.8v0c0-0.5-0.4-0.8-0.9-0.8h-0.9v1.5H501.3z"/>
		<path class="map-st4" d="M503.9,10.5V8.1h0.7v2.4c0,0.8,0.4,1.2,1.1,1.2c0.7,0,1.1-0.4,1.1-1.2V8.1h0.7v2.4c0,1.3-0.7,1.9-1.8,1.9
			C504.6,12.4,503.9,11.8,503.9,10.5z"/>
		<path class="map-st4" d="M508.8,8.1h1.9c0.5,0,0.9,0.1,1.1,0.4c0.2,0.2,0.3,0.4,0.3,0.7v0c0,0.5-0.3,0.8-0.6,0.9
			c0.5,0.2,0.8,0.5,0.8,1v0c0,0.8-0.6,1.2-1.6,1.2h-2V8.1z M511.3,9.3c0-0.3-0.3-0.5-0.7-0.5h-1.1v1.1h1
			C511,9.9,511.3,9.7,511.3,9.3L511.3,9.3z M510.7,10.5h-1.2v1.2h1.2c0.5,0,0.8-0.2,0.8-0.6v0C511.6,10.7,511.3,10.5,510.7,10.5z"/>
		<path class="map-st4" d="M513.4,8.1h0.7v3.6h2.2v0.7h-3V8.1z"/>
		<path class="map-st4" d="M517.4,8.1h0.7v4.2h-0.7V8.1z"/>
		<path class="map-st4" d="M519.4,10.2L519.4,10.2c0-1.2,0.9-2.2,2.2-2.2c0.8,0,1.3,0.3,1.7,0.7l-0.5,0.6c-0.3-0.3-0.7-0.5-1.2-0.5
			c-0.8,0-1.4,0.7-1.4,1.5v0c0,0.8,0.6,1.5,1.4,1.5c0.5,0,0.9-0.2,1.2-0.5l0.5,0.5c-0.4,0.5-0.9,0.8-1.7,0.8
			C520.3,12.4,519.4,11.4,519.4,10.2z"/>
	</g>
	<g class="map-st3">
		<path class="map-st4" d="M489.8,8.1h1.7c1,0,1.6,0.6,1.6,1.5v0c0,1-0.8,1.5-1.7,1.5h-0.7v1.3h-0.9V8.1z M491.5,10.3
			c0.5,0,0.7-0.3,0.7-0.6v0c0-0.4-0.3-0.6-0.8-0.6h-0.7v1.3H491.5z"/>
	</g>
	<circle class="map-st7" cx="491.2" cy="10.2" r="5"/>
	<path class="map-st1" d="M702.3,34.4c0-6.6-5.3-11.9-11.9-11.9l0,0"/>
	<line class="map-st1" x1="702.3" y1="22.5" x2="702.3" y2="437.1"/>
	<path class="map-st1" d="M702.3,34.4c0-6.6,5.3-11.9,11.9-11.9l0,0"/>
	<rect x="679" y="150.8" class="map-st8" width="1.2" height="17.2"/>
	<rect x="679" y="177" class="map-st8" width="1.2" height="99.6"/>
	<rect x="672.7" y="205.6" class="map-st8" width="1.2" height="41.9"/>
	<rect x="672.7" y="204.6" class="map-st8" width="6.5" height="1.2"/>
	<rect x="672.7" y="247.3" class="map-st8" width="6.5" height="1.2"/>
	<rect x="649.1" y="148.4" class="map-st6" width="20.4" height="9.2"/>
	<line class="map-st1" x1="659.3" y1="153" x2="659.2" y2="172.5"/>
	<rect x="679" y="284.7" class="map-st8" width="1.2" height="17.8"/>
	<path class="map-st1" d="M702.3,280.8h-78.3c-5,0-9.1-4.1-9.1-9.1l0,0v-90.1c0-5,4.1-9.1,9.1-9.1l0,0h78.3"/>
	<polygon class="map-st6" points="595.1,143.1 589.6,142.8 589.6,175.2 584.9,175.2 584.9,193.7 594.1,193.7 594.4,186.6 614.5,186.6 
		614.5,172.5 624.6,172.5 	"/>
	<polyline class="map-st6" points="630.4,142.8 630.4,152.2 606.4,152.2 603,155.7 590.2,143 630.4,143 	"/>
	<line class="map-st1" x1="614.8" y1="226.4" x2="598.8" y2="226.4"/>
	<line class="map-st1" x1="614.8" y1="268.4" x2="594.5" y2="268.4"/>
	<rect x="589.7" y="216.9" class="map-st6" width="9.1" height="18.6"/>
	<rect x="585.2" y="259.5" class="map-st6" width="9.2" height="18.6"/>
	<line class="map-st1" x1="630.6" y1="280.5" x2="630.6" y2="309.7"/>
	<rect x="612.7" y="301.2" class="map-st6" width="25.3" height="9.2"/>
	<rect x="649.1" y="295.9" class="map-st6" width="20.4" height="9.2"/>
	<g class="map-st3">
		<path class="map-st4" d="M624.2,220.1h2.4c0.6,0,1.1,0.2,1.4,0.5c0.2,0.2,0.4,0.5,0.4,0.9v0c0,0.6-0.4,1-0.8,1.2c0.6,0.2,1,0.6,1,1.3
			v0c0,0.9-0.8,1.4-2,1.4h-2.4V220.1z M627.4,221.6c0-0.4-0.3-0.7-0.9-0.7h-1.3v1.4h1.3C627,222.3,627.4,222.1,627.4,221.6
			L627.4,221.6z M626.6,223.1h-1.5v1.4h1.5c0.6,0,1-0.2,1-0.7v0C627.6,223.4,627.3,223.1,626.6,223.1z"/>
		<path class="map-st4" d="M629.7,222.8L629.7,222.8c0-1.5,1.1-2.7,2.8-2.7c1.6,0,2.8,1.2,2.8,2.7v0c0,1.5-1.1,2.7-2.8,2.7
			S629.7,224.3,629.7,222.8z M634.2,222.8L634.2,222.8c0-1-0.7-1.9-1.8-1.9c-1,0-1.8,0.8-1.8,1.9v0c0,1,0.7,1.9,1.8,1.9
			C633.5,224.6,634.2,223.8,634.2,222.8z"/>
	</g>
	<g class="map-st3">
		<path class="map-st4" d="M636.4,222.8L636.4,222.8c0-1.5,1.1-2.7,2.7-2.7c1,0,1.6,0.3,2.1,0.8l-0.6,0.7c-0.4-0.4-0.9-0.7-1.5-0.7
			c-1,0-1.7,0.8-1.7,1.9v0c0,1,0.7,1.9,1.7,1.9c0.6,0,1.1-0.3,1.5-0.7l0.6,0.6c-0.5,0.6-1.2,0.9-2.1,0.9
			C637.5,225.5,636.4,224.3,636.4,222.8z"/>
	</g>
	<g class="map-st3">
		<path class="map-st4" d="M642.1,222.8L642.1,222.8c0-1.5,1.1-2.7,2.7-2.7c1,0,1.6,0.3,2.1,0.8l-0.6,0.7c-0.4-0.4-0.9-0.7-1.5-0.7
			c-1,0-1.7,0.8-1.7,1.9v0c0,1,0.7,1.9,1.7,1.9c0.6,0,1.1-0.3,1.5-0.7l0.6,0.6c-0.5,0.6-1.2,0.9-2.1,0.9
			C643.2,225.5,642.1,224.3,642.1,222.8z"/>
		<path class="map-st4" d="M648.2,220.1h3.9v0.8h-3v1.4h2.6v0.8h-2.6v1.4h3v0.8h-4V220.1z"/>
	</g>
	<g class="map-st3">
		<path class="map-st4" d="M624,231.8L624,231.8c0-1.5,1.1-2.7,2.7-2.7c1,0,1.6,0.3,2.1,0.8l-0.6,0.7c-0.4-0.4-0.9-0.7-1.5-0.7
			c-1,0-1.7,0.8-1.7,1.9v0c0,1,0.7,1.9,1.7,1.9c0.6,0,1.1-0.3,1.5-0.7l0.6,0.6c-0.6,0.6-1.2,0.9-2.1,0.9
			C625.1,234.5,624,233.3,624,231.8z"/>
	</g>
	<g class="map-st3">
		<path class="map-st4" d="M629.7,231.8L629.7,231.8c0-1.5,1.1-2.7,2.8-2.7c1.6,0,2.8,1.2,2.8,2.7v0c0,1.5-1.1,2.7-2.8,2.7
			S629.7,233.3,629.7,231.8z M634.2,231.8L634.2,231.8c0-1-0.7-1.9-1.8-1.9c-1,0-1.8,0.8-1.8,1.9v0c0,1,0.7,1.9,1.8,1.9
			C633.5,233.7,634.2,232.8,634.2,231.8z"/>
		<path class="map-st4" d="M636.5,232.2v-3h0.9v3c0,1,0.5,1.5,1.3,1.5c0.8,0,1.3-0.5,1.3-1.5v-3h0.9v3c0,1.6-0.9,2.4-2.3,2.4
			C637.4,234.5,636.5,233.7,636.5,232.2z"/>
	</g>
	<g class="map-st3">
		<path class="map-st4" d="M642.6,229.2h2.4c0.7,0,1.2,0.2,1.5,0.5c0.3,0.3,0.4,0.7,0.4,1.1v0c0,0.9-0.5,1.4-1.3,1.6l1.4,2H646l-1.3-1.8
			h-1.2v1.8h-0.9V229.2z M644.9,231.8c0.7,0,1.1-0.3,1.1-0.9v0c0-0.6-0.4-0.9-1.1-0.9h-1.3v1.8H644.9z"/>
	</g>
	<g class="map-st3">
		<path class="map-st4" d="M649.6,230H648v-0.9h4.3v0.9h-1.7v4.4h-0.9V230z"/>
	</g>
	<path class="map-st1" d="M702.3,292.8c0-6.6-5.3-11.9-11.9-11.9l0,0"/>
	<path class="map-st1" d="M690.3,280.8c6.6,0,11.9-5.3,11.9-11.9l0,0"/>
	<path class="map-st1" d="M690.3,172.5c6.6,0,11.9-5.3,11.9-11.9l0,0"/>
	<path class="map-st1" d="M614.8,194c0-6.6-5.3-11.9-11.9-11.9l0,0"/>
	<path class="map-st1" d="M630.6,292.8c0-6.6-3.9-11.1-10.4-12.8"/>
	<path class="map-st1" d="M642.5,280.8c-6.6,0-11.9,5.3-11.9,11.9l0,0"/>
	<rect x="655.6" y="188" class="map-st6" width="14.6" height="77.6"/>
	<rect x="667.9" y="179.2" class="map-st6" width="2.3" height="8.8"/>
	<rect x="655.6" y="179.2" class="map-st6" width="2.3" height="8.8"/>
	<rect x="655.6" y="179.2" class="map-st6" width="3" height="2.3"/>
	<rect x="667.2" y="179.2" class="map-st6" width="3" height="2.3"/>
	<rect x="655.6" y="265.6" class="map-st6" width="2.3" height="8.8"/>
	<rect x="667.9" y="265.6" class="map-st6" width="2.3" height="8.8"/>
	<rect x="667.2" y="272.1" class="map-st6" width="3" height="2.3"/>
	<rect x="655.6" y="272.1" class="map-st6" width="3" height="2.3"/>
	<line class="map-st1" x1="120.6" y1="22.5" x2="120.6" y2="11"/>
	<line class="map-st1" x1="185.2" y1="22.5" x2="185.2" y2="11"/>
	<line class="map-st1" x1="331.6" y1="22.5" x2="331.6" y2="11"/>
	<line class="map-st1" x1="396.2" y1="22.5" x2="396.2" y2="11"/>
	<line class="map-st1" x1="579.6" y1="22.5" x2="579.6" y2="11"/>
	<line class="map-st1" x1="644.2" y1="22.5" x2="644.2" y2="11"/>
	<polygon class="map-st6" points="478.8,27 477.1,27 483.7,18 485.4,18 	"/>
	<polygon class="map-st6" points="526.1,27 524.4,27 531,18 532.7,18 	"/>
	<path class="map-st2" d="M537.8,1.3l-7.9,7.9c-1.4,1.4-2.3,3.4-2.2,5.4v20.1"/>
	<path class="map-st2" d="M472,1.3l7.9,7.9c1.4,1.4,2.3,3.4,2.2,5.4v20.1"/>
	<path class="map-st1" d="M120.6,10.5c0,6.6-5.3,11.9-11.9,11.9l0,0"/>
	<path class="map-st1" d="M120.6,10.5c0,6.6,5.3,11.9,11.9,11.9"/>
	<path class="map-st1" d="M185.2,10.5c0,6.6-5.3,11.9-11.9,11.9l0,0"/>
	<path class="map-st1" d="M185.2,10.5c0,6.6,5.3,11.9,11.9,11.9l0,0"/>
	<path class="map-st1" d="M331.6,10.5c0,6.6-5.3,11.9-11.9,11.9l0,0"/>
	<path class="map-st1" d="M331.6,10.5c0,6.6,5.3,11.9,11.9,11.9l0,0"/>
	<path class="map-st1" d="M396.2,10.5c0,6.6-5.3,11.9-11.9,11.9l0,0"/>
	<path class="map-st1" d="M396.2,10.5c0,6.6,5.3,11.9,11.9,11.9l0,0"/>
	<path class="map-st1" d="M431.3,34.2c1.8-7,6.6-11.7,13.2-11.7"/>
	<path class="map-st1" d="M431.3,34.2c1.9-9.1-4.1-11.7-10.7-11.7"/>
	<path class="map-st1" d="M310.5,34.2c-1.8-7-6.6-11.7-13.2-11.7"/>
	<path class="map-st1" d="M310.5,34.2c-1.9-9.1,4.1-11.7,10.7-11.7"/>
	<path class="map-st2" d="M293.9,471.2l7.9-7.9c1.4-1.4,2.3-3.4,2.2-5.4v-49"/>
	<path class="map-st2" d="M359.7,471.2l-7.9-7.9c-1.4-1.4-2.3-3.4-2.2-5.4v-49"/>
	<line class="map-st1" x1="304" y1="437.1" x2="1.1" y2="437.1"/>
	<line class="map-st1" x1="718.2" y1="437.1" x2="349.7" y2="437.1"/>
	<path class="map-st1" d="M702.3,425.2c0,6.6,5.3,11.9,11.9,11.9l0,0"/>
	<path class="map-st1" d="M702.3,425.2c0,6.6-5.3,11.9-11.9,11.9l0,0"/>
	<polygon class="map-st6" points="301.6,441.7 299.9,441.7 306.5,432.6 308.2,432.6 	"/>
	<polygon class="map-st6" points="305.2,441.7 303.5,441.7 310.1,432.6 311.8,432.6 	"/>
	<polygon class="map-st6" points="308.8,441.7 307.1,441.7 313.7,432.6 315.4,432.6 	"/>
	<polygon class="map-st6" points="312.5,441.7 310.8,441.7 317.4,432.6 319.1,432.6 	"/>
	<polygon class="map-st6" points="316.1,441.7 314.4,441.7 321,432.6 322.7,432.6 	"/>
	<polygon class="map-st6" points="319.8,441.7 318,441.7 324.7,432.6 326.4,432.6 	"/>
	<polygon class="map-st6" points="323.4,441.7 321.7,441.7 328.3,432.6 330,432.6 	"/>
	<polygon class="map-st6" points="327,441.7 325.3,441.7 331.9,432.6 333.6,432.6 	"/>
	<polygon class="map-st6" points="330.7,441.7 329,441.7 335.6,432.6 337.3,432.6 	"/>
	<polygon class="map-st6" points="334.3,441.7 332.6,441.7 339.2,432.6 340.9,432.6 	"/>
	<polygon class="map-st6" points="338,441.7 336.2,441.7 342.9,432.6 344.6,432.6 	"/>
	<polygon class="map-st6" points="341.6,441.7 339.9,441.7 346.5,432.6 348.2,432.6 	"/>
	<polygon class="map-st6" points="345.2,441.7 343.5,441.7 350.1,432.6 351.8,432.6 	"/>
	<polygon class="map-st6" points="348.9,441.7 347.2,441.7 353.8,432.6 355.5,432.6 	"/>
	<line class="map-st1" x1="13.1" y1="434.1" x2="13.1" y2="22.5"/>
	<path class="map-st1" d="M1.1,437.1c6.6,0,11.9-5.3,11.9-11.9l0,0"/>
	<path class="map-st1" d="M25,437.1c-6.6,0-11.9-5.3-11.9-11.9l0,0"/>
	<path class="map-st4" d="M271.5,451.4c0,0.7-1.1,1.3-1.2,2s0.8,1.6,0.6,2.2s-1.3,1-1.6,1.6s-0.9,1-1.3,1.5c-0.4,0.5-0.7,1.1-1.2,1.5
		c-0.4,0.6-0.8,1.1-1.2,1.6c-0.5,0.4-0.6,1.5-1.2,1.8c-0.6,0.3-1.2,0.6-1.9,0.9c-1.2,0.6-2.6,1-4,1.1c-0.7,0.1-1.4-0.8-2.1-0.8
		s-1.3,0.5-2,0.4c-0.7-0.1-1.3-0.2-2-0.3c-0.7-0.1-1.3-0.2-2-0.4c-0.6-0.3-1.2-0.7-1.8-1.1c-0.6-0.4-0.8-1.1-1.3-1.6
		c-0.4-0.5-0.9-1-1.2-1.6c-0.4-0.5-1.4-0.6-1.8-1.2c-0.3-0.6-0.6-1.3-0.8-1.9c-0.3-0.6,0.1-1.4-0.1-2.1c-0.1-0.6-0.2-1.3-0.3-1.9
		c-0.1-0.7-1.7-1.2-1.7-1.9s0.6-1.4,0.7-2.1c0-0.7,0.1-1.4,0.1-2.1c0.2-0.7,1.5-0.9,1.8-1.5s-0.4-1.7,0-2.3s1.1-0.9,1.5-1.5
		s1.2-0.7,1.7-1.1s0.7-1.4,1.3-1.7s1.6,0.1,2.2-0.2c0.6-0.4,1.1-0.7,1.7-1c0.7-0.1,1.3-0.1,2-0.1c0.7-0.1,1.3-0.8,1.9-0.8
		s1.3,0.6,2,0.7c0.6,0.1,1.3,0.3,1.9,0.5c0.7,0.1,1.3,0.3,1.9,0.5c0.6,0.3,1.1,0.7,1.7,1.1c0.6,0.4,1.9-0.2,2.4,0.2
		c0.5,0.5,1,1,1.5,1.6c0.4,0.5,0.5,1.4,0.9,2c0.3,0.6,0.7,1.2,0.9,1.9c0.3,0.6,0.6,1.3,0.8,1.9c0.3,0.6,0.6,1.3,0.8,2
		C271.4,450,271.5,450.7,271.5,451.4z"/>
	<path class="map-st4" d="M207.8,466.3c-0.7-0.1-1.4-0.3-2.1-0.5c-0.7-0.1-1.3-0.2-2-0.4c-1.4-0.2-2.8-0.7-3.9-1.5
		c-0.6-0.4-0.5-1.6-1.1-2s-1.3-0.5-1.8-1.1s-0.2-1.5-0.6-2s-1.7-0.6-2-1.2c-0.3-0.7-0.5-1.3-0.6-2c-0.2-0.6,0.5-1.5,0.4-2.2
		s-0.8-1.3-0.8-2s-0.4-1.5-0.3-2.1s1.2-1.2,1.4-1.8s-0.6-1.7-0.3-2.3c0.7-1.3,1.5-2.5,2.4-3.5c0.4-0.5,1.8-0.2,2.3-0.7
		c0.5-0.4,1.1-0.7,1.7-1c0.6-0.3,1.2-0.5,1.8-0.8c0.6-0.3,1.2-0.5,1.8-0.7c0.6-0.2,1.1-1.3,1.7-1.4c0.7-0.2,1.4-0.3,2.1-0.4
		c0.7,0,1.3,1.2,1.9,1.3s1.4-0.5,2.1-0.3c0.7,0.1,1.3,0.3,2,0.5c0.7,0.2,1.4,0.5,2,0.8c0.6,0.4,0.4,1.8,0.9,2.2s1.7,0.1,2.2,0.7
		s1.3,0.8,1.6,1.4c0.3,0.7,0.5,1.4,0.6,2.1c0.3,0.6-0.6,1.6-0.4,2.3s1.8,1,1.9,1.7s-1.1,1.4-1.1,2.1c0,0.7,0,1.3-0.1,2
		c-0.1,0.7-0.6,1.2-0.8,1.8s0.9,1.8,0.6,2.4s-1.7,0.6-2.1,1.2s-0.3,1.4-0.7,2c-0.4,0.6-0.8,1.1-1.3,1.6c-0.5,0.4-0.9,1.2-1.4,1.6
		s-1.8-0.5-2.4-0.2s-0.7,2-1.4,2.2s-1.5-0.1-2.2,0C209.2,466,208.5,466.2,207.8,466.3z"/>
	<path class="map-st4" d="M159.4,465.1c-0.7,0-1.3-0.1-1.9-0.2c-0.6-0.1-1.3-0.3-1.9-0.5c-0.7-0.2-1.5,0.3-2.1,0.1s-0.8-1.3-1.3-1.7
		s-1.3-0.4-1.8-0.8s-1.3-0.6-1.7-1.1s-0.4-1.4-0.8-1.9s-1.5-0.7-1.8-1.3c-0.2-0.7-0.4-1.3-0.5-2c-0.1-0.7-0.2-1.4-0.3-2
		c-0.1-0.7,0.7-1.4,0.7-2c-0.1-0.7-0.2-1.3-0.2-2c0.1-0.7-0.3-1.5-0.1-2.1s0.8-1.1,1.1-1.8s-0.2-1.7,0.1-2.3c0.5-0.5,1-1.1,1.5-1.5
		c0.4-0.5,1.2-0.7,1.8-1.2s1.3-0.5,1.9-0.8s0.6-1.8,1.2-2.1c0.7-0.1,1.4-0.3,2.1-0.3c0.7-0.1,1.4-0.2,2.1-0.2c0.7-0.1,1.3-0.1,2-0.1
		c0.7,0.1,1.3,0.3,2,0.5c0.7,0,1.3,0.1,2,0.1c0.7,0.2,1.7-0.4,2.3-0.1s0.9,1.4,1.4,1.8s1.5,0.4,2,0.8c0.6,0.4,1.1,0.9,1.6,1.4
		c0.4,0.6,0.7,1.2,1,1.9c0.4,0.6,0.1,1.5,0.4,2.1s1.5,0.9,1.7,1.5s-0.5,1.5-0.4,2.2s1.2,1.3,1.2,2s-0.6,1.4-0.7,2.1
		c-0.1,0.7-0.3,1.3-0.5,2c-0.2,0.7-1.4,0.9-1.7,1.5s0.6,1.9,0.3,2.5c-0.5,0.5-1,1-1.5,1.5c-0.4,0.6-0.8,1.2-1.3,1.7
		c-0.5,0.4-1.5,0.3-2.1,0.7c-1.8,0.9-3.7,1.6-5.6,2.1C160.8,465.6,160.1,465.1,159.4,465.1z"/>
	<path class="map-st4" d="M110.2,465.9c-0.7-0.1-1.3-0.3-2-0.5c-0.7-0.1-1.3-0.2-2-0.4c-0.7-0.2-1.6,0.3-2.2,0.1s-1.1-1.1-1.6-1.4
		c-0.5-0.5-1-1-1.5-1.5c-0.5-0.5-0.9-1-1.3-1.6c-0.4-0.5-1.5-0.6-1.8-1.2c-0.3-0.6-0.6-1.3-0.8-2c-0.3-0.6-0.1-1.4-0.3-2.1
		c-0.1-0.7-0.2-1.3-0.2-2c0-0.7,0-1.3,0-2c0-0.7-1-1.4-0.9-2.1s1.4-1.1,1.5-1.7s-0.8-1.7-0.5-2.3s1.1-1,1.5-1.6s0.2-1.6,0.6-2.2
		s1.5-0.6,2-1c0.6-0.4,1.2-0.7,1.8-0.9c0.6-0.4,1.4-0.2,2-0.5c0.6-0.3,1.2-0.5,1.8-0.7c0.7-0.2,1-1.5,1.7-1.6c0.7,0,1.4,0.1,2.1,0.2
		c0.7,0,1.3,0.6,2,0.7s1.6-0.8,2.2-0.6s1,1.2,1.6,1.5s1.7-0.2,2.3,0.1s0.9,1.1,1.4,1.6c0.5,0.5,0.9,1.1,1.3,1.7
		c0.5,0.5,0.9,1,1.3,1.6c0.4,0.6,1.1,1,1.4,1.6c0.3,0.6,0.6,1.3,0.8,2c0.2,0.6-0.7,1.6-0.6,2.2c0.1,0.7,0.2,1.3,0.3,2
		c0,0.7-0.6,1.2-0.7,1.9s0.4,1.4,0.2,2s0.6,1.7,0.3,2.3s-1.5,0.8-1.9,1.3c-0.3,0.6-0.7,1.2-1.1,1.7c-0.4,0.5-0.6,1.4-1.1,1.8
		s-1.4,0.4-2,0.8c-0.6,0.4-1.1,0.8-1.7,1.1c-0.6,0.3-1,1.2-1.7,1.4c-0.7,0.2-1.4,0.3-2.1,0.3C111.5,466.1,110.8,466.1,110.2,465.9z"
		/>
	<path class="map-st4" d="M55.9,466.5c-0.7,0-1.4-0.8-2-0.9c-0.7-0.1-1.3-0.2-2-0.4c-0.7-0.2-1.6,0.3-2.2,0s-0.9-1.4-1.5-1.7
		s-0.8-1.2-1.3-1.6s-1.5-0.4-1.9-0.9s-0.3-1.5-0.7-2s-1.7-0.6-2-1.2c-0.6-1.3-1-2.7-1.1-4.1c-0.1-0.7,1-1.4,1-2.1s-0.4-1.4-0.3-2
		s0.6-1.2,0.8-1.9c0.2-0.6,0.3-1.3,0.6-1.9c0.3-0.6,0-1.5,0.4-2.1c0.4-0.6,0.8-1.1,1.3-1.6c0.5-0.5,0.6-1.4,1.1-1.9s1.5-0.4,2-0.7
		s1-1.1,1.6-1.4c0.7-0.3,1.3-0.5,2-0.6c0.7-0.2,1.5,0.9,2.2,0.8s1.2-1.4,1.9-1.4s1.3,0.8,2,0.9c0.7,0.1,1.3,0.2,2,0.4
		c0.7,0.2,1.5-0.1,2.1,0.1c0.7,0.2,1.4,0.4,2.1,0.6c0.6,0.4,0.5,1.6,1,2.1s1.4,0.5,1.9,1c0.4,0.6,0.7,1.2,1,1.8c0.4,0.6,1,1,1.3,1.6
		c0.3,0.6,0.5,1.3,0.7,2c0.2,0.6-0.3,1.5-0.2,2.1c0.1,0.7,0.2,1.3,0.3,2c0.1,0.7,0.1,1.4,0.1,2.1c-0.1,0.7-0.8,1.2-1,1.9
		s0.2,1.5-0.1,2.1c-0.4,0.6-0.8,1.1-1.2,1.7c-0.3,0.6-0.7,1.2-1.1,1.8c-0.4,0.5-0.6,1.4-1.1,1.9s-2-0.4-2.6-0.1s-0.4,2.1-1,2.4
		c-0.7,0.2-1.4,0.4-2.1,0.6c-0.7,0.1-1.4,0.2-2.1,0.2C57.3,466,56.6,466.5,55.9,466.5z"/>
	<path class="map-st4" d="M384.8,451.4c-0.1-0.7-0.2-1.3-0.3-2c0-0.7,0.1-1.3,0.2-2c0.2-0.7-0.1-1.6,0.1-2.2s1.5-0.8,1.9-1.3
		c0.5-1.3,1.3-2.4,2.4-3.3c0.5-0.4,1.4-0.4,2-0.8c0.6-0.4,1.1-0.7,1.8-0.9c0.6-0.3,1-1,1.7-1.2s1.4,0.3,2.1,0.2
		c0.7-0.1,1.3-0.1,2-0.1c0.7,0,1.4-0.7,2.1-0.6s1.1,1.1,1.8,1.3s1.7-0.7,2.3-0.5s1.1,1,1.6,1.4s0.7,1.3,1.2,1.8s1.5,0.4,1.9,0.9
		c0.4,0.6,0.7,1.1,1,1.8c0.3,0.6,0.7,1.2,0.9,1.8c0.3,0.6,1.1,1,1.3,1.7s-0.3,1.5-0.2,2.2c0.2,0.7,0.4,1.3,0.5,2
		c0,0.7-0.7,1.3-0.8,2s0.4,1.5,0.2,2.1c-0.5,1.3-1.1,2.5-1.7,3.7c-0.6,1.3-1.4,2.4-2.5,3.3c-0.5,0.4-1.7,0-2.3,0.3s-0.8,1.4-1.4,1.6
		c-0.6,0.4-1.2,0.7-1.8,1c-0.7,0.1-1.4,0.1-2.1,0.1c-0.7,0.1-1.3,0.2-2,0.2c-0.7,0-1.5,0.5-2.1,0.4c-0.7-0.2-1.4-0.5-2-0.8
		c-0.7-0.2-1-1.3-1.6-1.5s-1.6,0.2-2.2-0.2c-0.6-0.3-1.2-0.7-1.8-1.2c-0.5-0.5,0-1.9-0.5-2.4s-1.6-0.4-2-1c-0.3-0.6-0.5-1.3-0.7-1.9
		c-0.3-0.6,0-1.4-0.2-2s-0.8-1.1-0.8-1.8C384.8,452.8,384.8,452.1,384.8,451.4z"/>
	<path class="map-st4" d="M447.3,436.8c0.7,0,1.3,0.8,2,0.9c0.7,0,1.3,0.1,2,0.2c0.7,0.1,1.3,0.2,2,0.4c0.6,0.3,0.7,1.4,1.3,1.8
		s1.3,0.4,1.9,0.8c1.1,0.7,2.1,1.8,2.7,3c0.4,0.6,1.1,1,1.4,1.6c0.4,0.6,0.8,1.2,1.1,1.8c0.1,0.7,0.2,1.4,0.2,2.1c0,0.7,0,1.4,0,2.1
		c0,0.7-0.7,1.3-0.8,2c-0.1,0.6-0.3,1.3-0.5,1.9c-0.1,0.7-0.2,1.3-0.4,2c-0.3,0.6-0.7,1.1-1.2,1.6c-0.4,0.6-0.1,1.7-0.5,2.2
		s-1.5,0.4-2,0.9s-0.5,1.7-1.1,2s-1.8-0.5-2.5-0.3s-0.8,1.6-1.5,1.8c-0.7,0.2-1.4,0.3-2.1,0.3c-0.7,0.1-1.4,0.1-2.1,0.1
		c-0.7,0-1.3-0.7-2-0.8c-0.7-0.1-1.3-0.2-2-0.4c-0.7-0.1-1.3-0.3-2-0.5c-0.6-0.3-1.2-0.7-1.7-1.1c-0.6-0.4-1.5-0.3-2-0.8
		s-0.2-1.7-0.6-2.2c-0.5-0.5-0.9-0.9-1.3-1.5c-0.4-0.6-1.1-0.9-1.4-1.5s0.1-1.4,0-2.1s-0.7-1.1-0.8-1.8c-0.4-1.3-0.3-2.7,0.2-3.9
		c0.1-0.7-0.8-1.5-0.6-2.2c0.3-0.6,0.6-1.2,1-1.8c0.3-0.6,0.7-1.2,1.1-1.7c0.4-0.6,1.1-0.8,1.6-1.3s0.1-1.9,0.6-2.3s1.8,0.1,2.3-0.3
		s0.9-1.1,1.5-1.3c0.6-0.2,1.3-0.4,1.9-0.6c0.6-0.2,1.2-0.9,1.9-1C445.9,436.9,446.6,436.8,447.3,436.8z"/>
	<path class="map-st4" d="M495.7,436.6c0.7,0,1.3,1.1,2,1.2s1.4-0.3,2.1-0.1s1,1.1,1.6,1.4s1.9-0.6,2.4-0.2c0.6,0.4,1.2,0.8,1.7,1.2
		c0.5,0.5,0.5,1.5,1,2s1.1,0.9,1.5,1.5s1.2,1,1.5,1.6s-0.5,1.7-0.3,2.3c0.2,0.6,0.3,1.3,0.5,1.9c0,0.7-0.1,1.3-0.2,2
		c0,0.7,0.6,1.4,0.5,2c0,0.7-0.1,1.3-0.2,2c-0.1,0.7-0.3,1.4-0.5,2.1c-0.3,0.6-0.6,1.3-1,1.8c-0.4,0.6-1.4,0.7-1.8,1.2
		s-0.4,1.6-0.9,2s-1.4,0.4-2,0.8s-1.4,0.1-2.1,0.4s-0.7,1.9-1.4,2.1s-1.6-0.8-2.3-0.8s-1.3,1.2-2,1.2c-1.4-0.3-2.8-0.5-4.2-0.7
		c-1.4-0.2-2.7-0.8-3.8-1.9c-0.6-0.4-0.9-1.1-1.4-1.5c-0.5-0.5-0.9-1-1.3-1.5c-0.4-0.5-0.3-1.4-0.7-1.9s-1.1-0.9-1.3-1.5
		c-0.3-0.6-0.5-1.2-0.6-1.9c-0.2-0.6-0.9-1.2-1-1.9c-0.2-0.7-0.3-1.4-0.4-2.1c0-0.7,0-1.4,0.1-2.1c0.1-0.7,1.2-1.1,1.4-1.8
		s-0.5-1.6-0.2-2.3s1.1-1,1.5-1.5s1.1-0.8,1.6-1.3s0.1-1.8,0.6-2.2c0.5-0.5,1.1-1,1.6-1.4c0.7-0.3,1.3-0.5,2-0.6
		c0.7-0.2,1.3-0.3,2-0.5c0.6-0.2,1.4,0.4,2.1,0.3S495,436.6,495.7,436.6z"/>
	<path class="map-st4" d="M545,437.4c0.7,0,1.5-0.8,2.1-0.7s1.2,1.2,1.8,1.4c0.7,0.1,1.3,0.2,2,0.4c0.6,0.3,1.6,0,2.2,0.4
		c0.6,0.4,1.2,0.8,1.7,1.3c0.5,0.5,0,1.9,0.4,2.5s1.3,0.6,1.7,1.2c0.3,0.6,0.5,1.2,0.8,1.9c0.4,0.6,0.7,1.2,1,1.8c0,0.7,0,1.3,0,2
		c0,0.7,0,1.3,0,2c0,0.7,0.6,1.4,0.5,2c-0.2,0.7-0.5,1.3-0.8,1.9c-0.5,1.2-1.1,2.4-1.8,3.6c-0.4,0.6,0.1,1.8-0.3,2.3s-1.9,0-2.5,0.5
		s-0.7,1.3-1.2,1.6s-1,1-1.6,1.3c-0.6,0.3-1.3,0.6-1.9,0.9c-0.7,0.2-1.5-0.3-2.1-0.2c-0.7,0-1.3-0.1-2-0.2c-0.7,0.1-1.3,0.1-2,0.1
		c-0.7-0.1-1.6,0.9-2.2,0.7s-1.1-1-1.8-1.3c-0.6-0.2-1.3-0.5-1.9-0.8c-0.6-0.4-0.8-1.2-1.3-1.7s-0.6-1.2-1-1.7s-1.9-0.3-2.2-0.8
		c-0.5-0.5-0.9-1.1-1.3-1.7c-0.3-0.6,0.7-1.7,0.5-2.4s-1.1-1.1-1.2-1.8s0.8-1.4,0.8-2.1s-1.3-1.5-1.2-2.1c0.1-0.7,0.2-1.4,0.4-2.1
		c0.2-0.7,1.8-0.8,2.1-1.4s-0.2-1.6,0.2-2.2s1-0.9,1.5-1.4s0.3-1.7,0.8-2.1s2,0.4,2.6,0s0.6-1.6,1.3-1.8c0.6-0.4,1.2-0.7,1.8-1
		c0.7-0.2,1.6,1,2.2,0.9S544.3,437.4,545,437.4z"/>
	<path class="map-st4" d="M599.2,436.4c0.7,0,1.4,0.7,2,0.8s1.1,1.1,1.8,1.3s1.7-0.6,2.3-0.4s0.6,1.6,1.2,2s1.8-0.2,2.3,0.3
		s0.3,1.6,0.8,2.1s1.1,0.8,1.4,1.4s1.6,0.7,1.9,1.4s-0.6,1.7-0.4,2.3s1,1.2,1.1,1.8c0.2,0.7,0.4,1.4,0.5,2.1c0,0.7-0.6,1.4-0.7,2
		c0,0.7-0.1,1.4-0.2,2.1c-0.2,0.6-0.5,1.3-0.9,1.9c-0.6,1.2-1.4,2.3-2.3,3.4c-0.4,0.6-0.9,1.1-1.3,1.6c-0.5,0.4-1.6,0-2.2,0.4
		s-0.8,1.2-1.4,1.5s-1,1.3-1.7,1.5s-1.6-1.2-2.3-1.1s-1.2,1.5-1.9,1.5c-0.7,0-1.4-0.1-2.1-0.2c-0.7-0.2-1.4-0.4-2-0.7
		c-0.7-0.2-1-1.1-1.6-1.4c-0.6-0.2-1.3-0.4-1.9-0.7c-0.6-0.4-0.8-1-1.4-1.5s-1.7-0.2-2.1-0.7c-0.4-0.6-0.7-1.2-1-1.9
		c-1.1-0.9-1.7-2.3-1.8-3.7c-0.2-0.6,0.2-1.4,0.1-2.1c-0.2-0.7-0.4-1.3-0.5-2c0-0.7-0.6-1.5-0.5-2.1s1.5-1.1,1.7-1.7
		c0.3-1.2,0.9-2.4,1.7-3.5c0.4-0.6,0-1.6,0.5-2.1s1.4-0.5,1.9-0.9c0.5-0.4,1.1-0.7,1.6-1.1c0.6-0.4,0.8-1.2,1.4-1.5
		c0.6-0.2,1.3-0.4,1.9-0.6c0.7-0.2,1.2-0.8,1.9-0.9S598.5,436.4,599.2,436.4z"/>
	<path class="map-st4" d="M650.1,438c0.7,0,1.3-0.6,2-0.5s1.5-0.3,2.1-0.1c0.7,0.2,1.4,0.4,2,0.7c0.6,0.3,1.1,1,1.6,1.3
		c0.6,0.4,1.1,0.8,1.7,1.2c0.5,0.4,1.1,0.9,1.5,1.4c1.1,0.9,1.9,2.1,2.3,3.4c0.3,0.6,0.6,1.3,0.8,1.9c0.1,0.7,0.2,1.4,0.3,2.1
		c0.1,0.7,0.8,1.4,0.8,2s-0.7,1.4-0.8,2s0.3,1.5,0.1,2.2s-1.8,0.8-2.1,1.4s0.7,1.9,0.3,2.5c-0.4,0.6-0.9,1.1-1.4,1.6
		c-0.5,0.5-1.7,0.2-2.2,0.7s-0.7,1.2-1.3,1.6s-1.5,0-2.1,0.3s-1,1.2-1.6,1.4s-1.4-0.4-2.1-0.3s-1.2,1.1-1.9,1.1c-0.7,0-1.4,0-2.1,0
		c-0.7-0.1-1.3-0.3-2-0.6c-1.3-0.5-2.5-1.1-3.7-1.8c-0.6-0.4-0.8-1.1-1.4-1.5s-1.3-0.6-1.7-1.1s-1.2-0.8-1.6-1.4s0.2-1.6-0.1-2.3
		s-1.5-0.9-1.7-1.5s0.4-1.5,0.3-2.1c-0.1-0.7-0.2-1.3-0.2-2c0-0.7-0.8-1.5-0.7-2.1c0-0.7,0.1-1.4,0.3-2.1c0.2-0.7,1.8-0.8,2.1-1.4
		s-0.4-1.8-0.1-2.3c0.5-0.5,0.9-1,1.5-1.5c0.5-0.5,1.4-0.5,1.9-0.9s0.7-1.2,1.3-1.6s1.5-0.1,2.1-0.3s0.8-1.7,1.5-1.9
		s1.5,0.8,2.2,0.7C648.8,437.9,649.4,437.9,650.1,438z"/>
	<path class="map-st4" d="M702.3,436.6c0.7,0,1.4,0,2.1,0.1c0.7,0.1,1.2,0.9,1.9,1.1c0.7,0.1,1.3,0.2,2,0.4c0.6,0.3,0.9,1.2,1.4,1.6
		s1.8-0.1,2.3,0.3c1.1,0.9,2,2.1,2.6,3.3c0.4,0.6-0.4,1.8-0.2,2.4s2,0.7,2.2,1.3c0.1,0.7,0.2,1.4,0.2,2.1c0.1,0.7,0.1,1.4,0.1,2.1
		c0,0.7-1,1.3-1.1,2s0.6,1.5,0.4,2.2s-1.5,0.9-1.8,1.5c-0.2,0.7-0.4,1.3-0.6,1.9c-0.4,0.6,0,1.7-0.5,2.2s-1.8,0.1-2.3,0.6
		s-0.7,1.3-1.2,1.7c-0.6,0.3-1.2,0.6-1.9,0.8c-0.6,0.3-1.2,0.6-1.8,0.8c-0.7,0.2-1.2,1.2-1.9,1.3c-1.4,0.4-2.9,0.3-4.2-0.2
		c-0.7-0.1-1.2-1.1-1.8-1.3s-1.6,0.4-2.2,0.1s-1.1-1-1.7-1.4c-0.6-0.3-1.2-0.6-1.8-1c-0.5-0.5-0.4-1.6-0.8-2.1s-1.5-0.6-1.9-1.1
		s-0.2-1.4-0.5-2.1c-0.2-0.6-0.4-1.3-0.5-1.9c-0.2-0.6-1.3-1.1-1.4-1.8c0-0.7,0-1.4,0-2.1c0-0.7,0.5-1.4,0.6-2c0-0.7,0.1-1.3,0.3-2
		c0.1-0.7,0.3-1.3,0.5-2c0.3-0.6,1.6-0.7,2-1.2s-0.4-2,0.1-2.5c1.3-1.7,3.2-3,5.3-3.4c0.6-0.3,1.6,0.5,2.3,0.3s1-1.8,1.7-1.9
		C700.9,436.7,701.6,436.6,702.3,436.6z"/>
	<circle class="map-st6" cx="55.9" cy="451.4" r="1.8"/>
	<circle class="map-st6" cx="110.2" cy="451.4" r="1.8"/>
	<circle class="map-st6" cx="159.4" cy="451.4" r="1.8"/>
	<circle class="map-st6" cx="207.8" cy="451.4" r="1.8"/>
	<circle class="map-st6" cx="256.5" cy="451.4" r="1.8"/>
	<circle class="map-st6" cx="398.8" cy="451.4" r="1.8"/>
	<circle class="map-st6" cx="447.3" cy="451.4" r="1.8"/>
	<circle class="map-st6" cx="495.7" cy="451.4" r="1.8"/>
	<circle class="map-st6" cx="545" cy="451.4" r="1.8"/>
	<circle class="map-st6" cx="599.2" cy="451.4" r="1.8"/>
	<circle class="map-st6" cx="650.1" cy="451.4" r="1.8"/>
	<circle class="map-st6" cx="702.3" cy="451.4" r="1.8"/>
	<g class="map-st3">
		<path class="map-st4" d="M318,453.8h0.8l1.3,2l1.3-2h0.8v4.2h-0.7v-3l-1.3,2h0l-1.3-2v3H318V453.8z"/>
		<path class="map-st4" d="M325,453.8h0.7l1.9,4.3h-0.8l-0.4-1h-2l-0.4,1h-0.8L325,453.8z M326.1,456.4l-0.7-1.7l-0.7,1.7H326.1z"/>
		<path class="map-st4" d="M328.6,453.8h0.7v4.2h-0.7V453.8z"/>
		<path class="map-st4" d="M330.7,453.8h0.7l2.3,2.9v-2.9h0.7v4.2h-0.6l-2.3-3v3h-0.7V453.8z"/>
	</g>
	<g class="map-st3">
		<path class="map-st4" d="M308.3,461.1h3.1v0.7H309v1.1h2.1v0.7H309v1.1h2.4v0.7h-3.2V461.1z"/>
		<path class="map-st4" d="M312.6,461.1h0.7l2.3,2.9v-2.9h0.7v4.2h-0.6l-2.3-3v3h-0.7V461.1z"/>
		<path class="map-st4" d="M318.7,461.8h-1.3v-0.7h3.4v0.7h-1.3v3.5h-0.8V461.8z"/>
		<path class="map-st4" d="M321.8,461.1h1.9c0.5,0,1,0.2,1.2,0.4c0.2,0.2,0.4,0.5,0.4,0.9v0c0,0.7-0.4,1.1-1,1.3l1.1,1.6h-0.9l-1-1.5
			h-0.9v1.5h-0.7V461.1z M323.6,463.2c0.5,0,0.9-0.3,0.9-0.7v0c0-0.5-0.3-0.7-0.9-0.7h-1.1v1.4H323.6z"/>
		<path class="map-st4" d="M327.9,461h0.7l1.9,4.3h-0.8l-0.4-1h-2l-0.4,1H326L327.9,461z M329,463.6l-0.7-1.7l-0.7,1.7H329z"/>
		<path class="map-st4" d="M331.4,461.1h0.7l2.3,2.9v-2.9h0.7v4.2h-0.6l-2.3-3v3h-0.7V461.1z"/>
		<path class="map-st4" d="M336.3,463.2L336.3,463.2c0-1.2,0.9-2.2,2.2-2.2c0.8,0,1.3,0.3,1.7,0.7l-0.5,0.6c-0.3-0.3-0.7-0.5-1.2-0.5
			c-0.8,0-1.4,0.7-1.4,1.5v0c0,0.8,0.6,1.5,1.4,1.5c0.5,0,0.9-0.2,1.2-0.5l0.5,0.5c-0.4,0.5-0.9,0.8-1.7,0.8
			C337.2,465.4,336.3,464.4,336.3,463.2z"/>
		<path class="map-st4" d="M341.2,461.1h3.1v0.7h-2.4v1.1h2.1v0.7h-2.1v1.1h2.4v0.7h-3.2V461.1z"/>
	</g>
	<polyline class="map-st9" points="41.7,148.7 41.7,173.4 69.2,173.4 69.2,162.3 124.9,162.3 124.9,180.6 135.3,180.6 135.3,203.2 
		144.2,203.2 144.2,226.2 144.2,226.2 144.2,249.3 135.3,249.3 135.3,260.9 138.7,260.9 138.7,309.6 	"/>
	<path class="map-st9" d="M41.7,304v-28.8h10v-5.5c5-3.4,10.9-5.1,16.9-5.1c8.7,0,16.8,5.1,16.8,5.1v5.5H131v34.5"/>
	<polygon class="map-st8" points="57.2,204.6 52.6,204.6 52.6,197.8 35.7,197.8 35.7,255.1 52.6,255.1 52.6,248.2 57.2,248.2 	"/>
	<rect x="66.3" y="203" class="map-st10" width="61.6" height="46.8"/>
	<rect x="68" y="204.6" class="map-st6" width="58.4" height="43.5"/>
	<g class="map-st3">
		<path class="map-st4" d="M86.1,220.1h2.1c1.2,0,2,0.7,2,1.8v0c0,1.2-0.9,1.8-2.1,1.8h-1v1.7h-0.9V220.1z M88.1,222.9
			c0.7,0,1.1-0.4,1.1-0.9v0c0-0.6-0.4-0.9-1.1-0.9h-1.1v1.9H88.1z"/>
		<path class="map-st4" d="M91.2,222.8L91.2,222.8c0-1.5,1.1-2.7,2.8-2.7s2.8,1.2,2.8,2.7v0c0,1.5-1.1,2.7-2.8,2.7
			C92.4,225.5,91.2,224.3,91.2,222.8z M95.8,222.8L95.8,222.8c0-1-0.7-1.9-1.8-1.9c-1,0-1.8,0.8-1.8,1.9v0c0,1,0.7,1.9,1.8,1.9
			C95,224.6,95.8,223.8,95.8,222.8z"/>
		<path class="map-st4" d="M97.9,222.8L97.9,222.8c0-1.5,1.1-2.7,2.8-2.7s2.8,1.2,2.8,2.7v0c0,1.5-1.1,2.7-2.8,2.7
			C99.1,225.5,97.9,224.3,97.9,222.8z M102.5,222.8L102.5,222.8c0-1-0.7-1.9-1.8-1.9c-1,0-1.8,0.8-1.8,1.9v0c0,1,0.7,1.9,1.8,1.9
			C101.8,224.6,102.5,223.8,102.5,222.8z"/>
		<path class="map-st4" d="M104.9,220.1h0.9v4.4h2.8v0.8h-3.7V220.1z"/>
	</g>
	<g class="map-st3">
		<path class="map-st4" d="M83.1,231.8L83.1,231.8c0-1.5,1.1-2.7,2.7-2.7c1,0,1.6,0.3,2.1,0.8l-0.6,0.7c-0.4-0.4-0.9-0.7-1.5-0.7
			c-1,0-1.7,0.8-1.7,1.9v0c0,1,0.7,1.9,1.7,1.9c0.6,0,1.1-0.3,1.5-0.7l0.6,0.6c-0.6,0.6-1.2,0.9-2.1,0.9
			C84.2,234.5,83.1,233.3,83.1,231.8z"/>
	</g>
	<g class="map-st3">
		<path class="map-st4" d="M88.8,231.8L88.8,231.8c0-1.5,1.1-2.7,2.8-2.7s2.8,1.2,2.8,2.7v0c0,1.5-1.1,2.7-2.8,2.7
			C89.9,234.5,88.8,233.3,88.8,231.8z M93.4,231.8L93.4,231.8c0-1-0.7-1.9-1.8-1.9c-1,0-1.8,0.8-1.8,1.9v0c0,1,0.7,1.9,1.8,1.9
			C92.6,233.7,93.4,232.8,93.4,231.8z"/>
		<path class="map-st4" d="M95.7,232.2v-3h0.9v3c0,1,0.5,1.5,1.3,1.5c0.8,0,1.3-0.5,1.3-1.5v-3h0.9v3c0,1.6-0.9,2.4-2.3,2.4
			C96.5,234.5,95.7,233.7,95.7,232.2z"/>
	</g>
	<g class="map-st3">
		<path class="map-st4" d="M101.7,229.2h2.4c0.7,0,1.2,0.2,1.5,0.5c0.3,0.3,0.4,0.7,0.4,1.1v0c0,0.9-0.5,1.4-1.3,1.6l1.4,2h-1.1
			l-1.3-1.8h-1.2v1.8h-0.9V229.2z M104,231.8c0.7,0,1.1-0.3,1.1-0.9v0c0-0.6-0.4-0.9-1.1-0.9h-1.3v1.8H104z"/>
	</g>
	<g class="map-st3">
		<path class="map-st4" d="M108.8,230h-1.7v-0.9h4.3v0.9h-1.7v4.4h-0.9V230z"/>
	</g>
	<polyline class="map-st11" points="515.7,158.9 515.7,188.2 531.5,188.2 	"/>
	
		<rect x="275.7" y="274.1" transform="matrix(0.7071 -0.7071 0.7071 0.7071 -112.731 276.3878)" class="map-st4" width="3.1" height="0.3"/>
	
		<rect x="271.9" y="271.7" transform="matrix(0.7071 -0.7071 0.7071 0.7071 -111.4488 274.5446)" class="map-st4" width="7.6" height="0.3"/>
	
		<rect x="271.4" y="267.8" transform="matrix(0.7071 -0.7071 0.7071 0.7071 -108.7796 273.2727)" class="map-st4" width="8.2" height="0.3"/>
	
		<rect x="271.4" y="263.7" transform="matrix(0.7071 -0.7071 0.7071 0.7071 -105.9113 272.0897)" class="map-st4" width="8.2" height="0.3"/>
	
		<rect x="271.4" y="259.7" transform="matrix(0.7071 -0.7071 0.7071 0.7071 -103.0401 270.8997)" class="map-st4" width="8.2" height="0.3"/>
	
		<rect x="271.4" y="255.6" transform="matrix(0.7071 -0.7071 0.7071 0.7071 -100.1818 269.7127)" class="map-st4" width="8.2" height="0.3"/>
	
		<rect x="271.4" y="251.7" transform="matrix(0.7071 -0.7071 0.7071 0.7071 -97.4051 268.4902)" class="map-st4" width="7.9" height="0.3"/>
	<rect x="273.1" y="275.2" class="map-st4" width="5.3" height="0.3"/>
	<rect x="278.1" y="248.8" class="map-st12" width="0.5" height="26.7"/>
	<polygon class="map-st4" points="278.5,245.2 275,248.7 274.8,248.5 278.3,244.9 	"/>
	
		<rect x="271.7" y="243.6" transform="matrix(0.7071 -0.7071 0.7071 0.7071 -91.6614 266.2824)" class="map-st4" width="7.9" height="0.3"/>
	
		<rect x="271.4" y="239.7" transform="matrix(0.7071 -0.7071 0.7071 0.7071 -88.9129 265.0497)" class="map-st4" width="8.2" height="0.3"/>
	
		<rect x="271.4" y="235.6" transform="matrix(0.7071 -0.7071 0.7071 0.7071 -86.0417 263.8597)" class="map-st4" width="8.2" height="0.3"/>
	
		<rect x="271.4" y="231.6" transform="matrix(0.7071 -0.7071 0.7071 0.7071 -83.1764 262.6697)" class="map-st4" width="8.2" height="0.3"/>
	
		<rect x="271.4" y="227.5" transform="matrix(0.7071 -0.7071 0.7071 0.7071 -80.3122 261.4827)" class="map-st4" width="8.2" height="0.3"/>
	
		<rect x="271.6" y="224" transform="matrix(0.7071 -0.7071 0.7071 0.7071 -77.9795 260.0742)" class="map-st4" width="6.6" height="0.3"/>
	<rect x="273.1" y="221.7" class="map-st4" width="5.3" height="0.3"/>
	<rect x="278.1" y="221.7" class="map-st12" width="0.5" height="26.7"/>
	
		<rect x="465.9" y="274.1" transform="matrix(0.7071 -0.7071 0.7071 0.7071 -57.0239 410.8615)" class="map-st4" width="3.1" height="0.3"/>
	
		<rect x="461.1" y="272" transform="matrix(0.7071 -0.7071 0.7071 0.7071 -56.1398 408.8543)" class="map-st4" width="8.8" height="0.3"/>
	
		<rect x="460.8" y="268.1" transform="matrix(0.7071 -0.7071 0.7071 0.7071 -53.3914 407.6216)" class="map-st4" width="9.1" height="0.3"/>
	
		<rect x="460.8" y="264.1" transform="matrix(0.7071 -0.7071 0.7071 0.7071 -50.526 406.4315)" class="map-st4" width="9.1" height="0.3"/>
	
		<rect x="460.8" y="260" transform="matrix(0.7071 -0.7071 0.7071 0.7071 -47.6619 405.2445)" class="map-st4" width="9.1" height="0.3"/>
	
		<rect x="460.8" y="256" transform="matrix(0.7071 -0.7071 0.7071 0.7071 -44.7936 404.0616)" class="map-st4" width="9.1" height="0.3"/>
	
		<rect x="460.8" y="251.9" transform="matrix(0.7071 -0.7071 0.7071 0.7071 -41.9253 402.8645)" class="map-st4" width="9.1" height="0.3"/>
	
		<rect x="461.6" y="249.8" transform="matrix(0.7071 -0.7071 0.7071 0.7071 -41.0054 400.8732)" class="map-st4" width="3.6" height="0.3"/>
	<rect x="462.1" y="275.2" class="map-st4" width="6.4" height="0.3"/>
	<rect x="251.9" y="158.9" class="map-st13" width="0.5" height="27.5"/>
	<rect x="265" y="158.9" class="map-st13" width="0.5" height="27.5"/>
	<rect x="278.1" y="158.9" class="map-st13" width="0.5" height="27.5"/>
	<rect x="291.3" y="158.9" class="map-st13" width="0.5" height="27.5"/>
	<rect x="304.4" y="158.9" class="map-st13" width="0.5" height="27.5"/>
	<rect x="317.5" y="158.9" class="map-st13" width="0.5" height="27.5"/>
	<rect x="330.6" y="158.9" class="map-st13" width="0.5" height="27.5"/>
	<rect x="343.8" y="158.9" class="map-st13" width="0.5" height="27.5"/>
	<rect x="356.9" y="158.9" class="map-st13" width="0.5" height="27.5"/>
	<rect x="504" y="210.2" class="map-st13" width="27.5" height="0.5"/>
	<rect x="504" y="223.4" class="map-st13" width="27.5" height="0.5"/>
	<rect x="504" y="236.5" class="map-st13" width="27.5" height="0.5"/>
	<rect x="504" y="249.6" class="map-st13" width="27.5" height="0.5"/>
	<rect x="504" y="262.7" class="map-st13" width="27.5" height="0.5"/>
	<rect x="504" y="275.9" class="map-st13" width="27.5" height="0.5"/>
	<rect x="504" y="289" class="map-st13" width="27.5" height="0.5"/>
	<rect x="370" y="158.9" class="map-st13" width="0.5" height="27.5"/>
	<rect x="383.1" y="158.9" class="map-st13" width="0.5" height="27.5"/>
	<rect x="396.3" y="158.9" class="map-st13" width="0.5" height="27.5"/>
	<rect x="409.4" y="158.9" class="map-st13" width="0.5" height="27.5"/>
	<rect x="422.5" y="158.9" class="map-st13" width="0.5" height="27.5"/>
	<rect x="435.6" y="158.9" class="map-st13" width="0.5" height="27.5"/>
	<rect x="448.8" y="158.9" class="map-st13" width="0.5" height="27.5"/>
	<rect x="461.9" y="158.9" class="map-st13" width="0.5" height="27.5"/>
	<rect x="291.3" y="221.7" class="map-st13" width="0.5" height="26.7"/>
	<rect x="304.4" y="221.7" class="map-st13" width="0.5" height="26.7"/>
	<rect x="317.5" y="221.7" class="map-st13" width="0.5" height="26.7"/>
	<rect x="330.6" y="221.7" class="map-st13" width="0.5" height="26.7"/>
	<rect x="343.8" y="221.7" class="map-st13" width="0.5" height="26.7"/>
	<rect x="356.9" y="221.7" class="map-st13" width="0.5" height="26.7"/>
	<rect x="370" y="221.7" class="map-st13" width="0.5" height="26.7"/>
	<rect x="383.1" y="221.7" class="map-st13" width="0.5" height="26.7"/>
	<rect x="396.3" y="221.7" class="map-st13" width="0.5" height="26.7"/>
	<rect x="409.4" y="221.7" class="map-st13" width="0.5" height="26.7"/>
	<rect x="422.5" y="221.7" class="map-st13" width="0.5" height="26.7"/>
	<rect x="435.6" y="221.7" class="map-st13" width="0.5" height="26.7"/>
	<rect x="448.8" y="221.7" class="map-st13" width="0.5" height="26.7"/>
	<rect x="291.3" y="248.4" class="map-st13" width="0.5" height="27.2"/>
	<rect x="304.4" y="248.4" class="map-st13" width="0.5" height="27.2"/>
	<rect x="317.5" y="248.4" class="map-st13" width="0.5" height="27.2"/>
	<rect x="330.6" y="248.4" class="map-st13" width="0.5" height="27.2"/>
	<rect x="343.8" y="248.4" class="map-st13" width="0.5" height="27.2"/>
	<rect x="356.9" y="248.4" class="map-st13" width="0.5" height="27.2"/>
	<rect x="370" y="248.4" class="map-st13" width="0.5" height="27.2"/>
	<rect x="383.1" y="248.4" class="map-st13" width="0.5" height="27.2"/>
	<rect x="396.3" y="248.4" class="map-st13" width="0.5" height="27.2"/>
	<rect x="409.4" y="248.4" class="map-st13" width="0.5" height="27.2"/>
	<rect x="422.5" y="248.4" class="map-st13" width="0.5" height="27.2"/>
	<rect x="435.6" y="248.4" class="map-st13" width="0.5" height="27.2"/>
	<rect x="448.8" y="248.4" class="map-st13" width="0.5" height="27.2"/>
	<rect x="461.9" y="248.6" class="map-st12" width="0.5" height="26.9"/>
	<rect x="468.3" y="248.7" class="map-st12" width="0.5" height="26.9"/>
	
		<rect x="464.2" y="246.7" transform="matrix(0.7071 -0.7071 0.7071 0.7071 -37.8578 402.3459)" class="map-st4" width="5.1" height="0.3"/>
	
		<rect x="461.1" y="244" transform="matrix(0.7071 -0.7071 0.7071 0.7071 -36.2732 400.6313)" class="map-st4" width="8.8" height="0.3"/>
	
		<rect x="460.8" y="240" transform="matrix(0.7071 -0.7071 0.7071 0.7071 -33.5247 399.3845)" class="map-st4" width="9.1" height="0.3"/>
	
		<rect x="460.8" y="236" transform="matrix(0.7071 -0.7071 0.7071 0.7071 -30.6565 398.2016)" class="map-st4" width="9.1" height="0.3"/>
	
		<rect x="460.8" y="231.9" transform="matrix(0.7071 -0.7071 0.7071 0.7071 -27.7952 397.0215)" class="map-st4" width="9.1" height="0.3"/>
	
		<rect x="460.8" y="227.9" transform="matrix(0.7071 -0.7071 0.7071 0.7071 -24.927 395.8245)" class="map-st4" width="9.1" height="0.3"/>
	
		<rect x="461" y="224.3" transform="matrix(0.7071 -0.7071 0.7071 0.7071 -22.6013 394.4189)" class="map-st4" width="7.5" height="0.3"/>
	
		<rect x="461.9" y="222.3" transform="matrix(0.7071 -0.7071 0.7071 0.7071 -21.7572 392.3898)" class="map-st4" width="1.8" height="0.3"/>
	<rect x="462.1" y="221.7" class="map-st4" width="6.4" height="0.3"/>
	<rect x="468.3" y="221.7" class="map-st12" width="0.5" height="26.9"/>
	<rect x="475" y="158.9" class="map-st13" width="0.5" height="27.5"/>
	<rect x="488.1" y="158.9" class="map-st13" width="0.5" height="27.5"/>
	<rect x="271.6" y="310" class="map-st13" width="0.5" height="27.5"/>
	<rect x="284.7" y="310" class="map-st13" width="0.5" height="27.5"/>
	<rect x="297.8" y="310" class="map-st13" width="0.5" height="27.5"/>
	<rect x="311" y="310" class="map-st13" width="0.5" height="27.5"/>
	<rect x="324.1" y="310" class="map-st13" width="0.5" height="27.5"/>
	<rect x="337.2" y="310" class="map-st13" width="0.5" height="27.5"/>
	<rect x="350.3" y="310" class="map-st13" width="0.5" height="27.5"/>
	<rect x="363.5" y="310" class="map-st13" width="0.5" height="27.5"/>
	<rect x="376.6" y="310" class="map-st13" width="0.5" height="27.5"/>
	<rect x="389.7" y="310" class="map-st13" width="0.5" height="27.5"/>
	<rect x="402.8" y="310" class="map-st13" width="0.5" height="27.5"/>
	<rect x="416" y="310" class="map-st13" width="0.5" height="27.5"/>
	<rect x="429.1" y="310" class="map-st13" width="0.5" height="27.5"/>
	<rect x="442.2" y="310" class="map-st13" width="0.5" height="27.5"/>
	<rect x="455.3" y="310" class="map-st13" width="0.5" height="27.5"/>
	<rect x="468.5" y="310" class="map-st13" width="0.5" height="27.5"/>
	<rect x="481.6" y="310" class="map-st13" width="0.5" height="27.5"/>
	<path class="map-st13" d="M258.4,310c0,0-17.6-5.4-20.7-27.4"/>
	
		<rect x="236.5" y="300.6" transform="matrix(0.7071 -0.7071 0.7071 0.7071 -142.2509 258.1647)" class="map-st4" width="8" height="0.3"/>
	
		<rect x="236.3" y="303.8" transform="matrix(0.7071 -0.7071 0.7071 0.7071 -144.1978 259.731)" class="map-st4" width="10.3" height="0.3"/>
	
		<rect x="235.9" y="306.9" transform="matrix(0.7071 -0.7071 0.7071 0.7071 -146.1201 261.3121)" class="map-st4" width="13" height="0.3"/>
	
		<rect x="235.3" y="309.9" transform="matrix(0.7071 -0.7071 0.7071 0.7071 -147.9919 262.9136)" class="map-st4" width="16.1" height="0.3"/>
	
		<rect x="234.7" y="312.9" transform="matrix(0.7071 -0.7071 0.7071 0.7071 -149.7973 264.5373)" class="map-st4" width="19.4" height="0.3"/>
	
		<rect x="234.3" y="315.7" transform="matrix(0.7071 -0.7071 0.7071 0.7071 -151.366 266.2619)" class="map-st4" width="22.8" height="0.3"/>
	<polygon class="map-st4" points="256.5,309.3 237.9,328 237.7,327.8 256.2,309.2 	"/>
	
		<rect x="233.5" y="321.3" transform="matrix(0.7071 -0.7071 0.7071 0.7071 -154.5711 269.6833)" class="map-st4" width="29.5" height="0.3"/>
	
		<rect x="233.1" y="325.4" transform="matrix(0.7071 -0.7071 0.7071 0.7071 -157.5362 270.8294)" class="map-st4" width="30.1" height="0.3"/>
	
		<rect x="492.4" y="308.4" transform="matrix(0.7071 -0.7071 0.7071 0.7071 -71.3758 444.6931)" class="map-st4" width="17.4" height="0.3"/>
	
		<rect x="493.2" y="306.2" transform="matrix(0.7071 -0.7071 0.7071 0.7071 -70.4907 442.4864)" class="map-st4" width="11.3" height="0.3"/>
	
		<rect x="491.5" y="310.4" transform="matrix(0.7071 -0.7071 0.7071 0.7071 -72.261 446.7032)" class="map-st4" width="23.2" height="0.3"/>
	
		<rect x="490.6" y="312.5" transform="matrix(0.7071 -0.7071 0.7071 0.7071 -73.1016 448.7339)" class="map-st4" width="29" height="0.3"/>
	<polygon class="map-st4" points="519.5,302.4 495,327 494.8,326.7 519.2,302.3 	"/>
	
		<rect x="489" y="316.5" transform="matrix(0.7071 -0.7071 0.7071 0.7071 -74.767 452.791)" class="map-st4" width="40.4" height="0.3"/>
	
		<rect x="488.1" y="318.5" transform="matrix(0.7071 -0.7071 0.7071 0.7071 -75.5959 454.8274)" class="map-st4" width="46.2" height="0.3"/>
	
		<rect x="489.6" y="319.8" transform="matrix(0.7071 -0.7071 0.7071 0.7071 -75.7113 457.1512)" class="map-st4" width="48.8" height="0.3"/>
	
		<rect x="493.7" y="322.3" transform="matrix(0.7071 -0.7071 0.7071 0.7071 -77.0333 458.9782)" class="map-st4" width="43.7" height="0.3"/>
	
		<rect x="499.1" y="324" transform="matrix(0.7071 -0.7071 0.7071 0.7071 -77.5628 461.1421)" class="map-st4" width="37.5" height="0.3"/>
	
		<rect x="504.1" y="326.2" transform="matrix(0.7071 -0.7071 0.7071 0.7071 -78.4762 463.1419)" class="map-st4" width="31.5" height="0.3"/>
	
		<rect x="513.6" y="329.9" transform="matrix(0.7071 -0.7071 0.7071 0.7071 -79.8884 467.31)" class="map-st4" width="21.1" height="0.3"/>
	
		<rect x="509.1" y="328" transform="matrix(0.7071 -0.7071 0.7071 0.7071 -79.1077 465.2574)" class="map-st4" width="26" height="0.3"/>
	
		<rect x="236.2" y="328.2" transform="matrix(0.7071 -0.7071 0.7071 0.7071 -159.1467 272.5322)" class="map-st4" width="26.5" height="0.3"/>
	
		<rect x="241.1" y="330.3" transform="matrix(0.7071 -0.7071 0.7071 0.7071 -160.0313 274.5508)" class="map-st4" width="20.6" height="0.3"/>
	
		<rect x="246.8" y="332" transform="matrix(0.7071 -0.7071 0.7071 0.7071 -160.5219 276.7235)" class="map-st4" width="13.9" height="0.3"/>
	
		<rect x="251.2" y="334.2" transform="matrix(0.7071 -0.7071 0.7071 0.7071 -161.571 278.6577)" class="map-st4" width="8.8" height="0.3"/>
	<rect x="258.4" y="310" class="map-st14" width="0.5" height="27.5"/>
	<rect x="494.7" y="310" class="map-st14" width="0.5" height="27.5"/>
	<rect x="502.3" y="302.1" class="map-st14" width="29.1" height="0.5"/>
	<rect x="461.9" y="221.7" class="map-st12" width="0.5" height="27"/>
	<polygon class="map-st12" points="273.7,248.1 273.7,221.5 272.6,221.5 272.6,275.8 273.7,275.8 273.7,249.2 468.8,249.2 468.8,248.1 	
		"/>
	<line class="map-st13" x1="504" y1="197.1" x2="501.8" y2="186.4"/>
	<polygon class="map-st4" points="516.2,178.1 502.8,191.4 502.7,191.1 516,177.9 	"/>
	
		<rect x="502.5" y="191.7" transform="matrix(0.7071 -0.7071 0.7071 0.7071 13.7452 416.9785)" class="map-st4" width="15.4" height="0.3"/>
	
		<rect x="506.9" y="192.4" transform="matrix(0.7071 -0.7071 0.7071 0.7071 14.2946 419.5732)" class="map-st4" width="13.4" height="0.3"/>
	
		<rect x="510.9" y="192.6" transform="matrix(0.7071 -0.7071 0.7071 0.7071 15.2696 422.3478)" class="map-st4" width="13.2" height="0.3"/>
	
		<rect x="515.2" y="192.8" transform="matrix(0.7071 -0.7071 0.7071 0.7071 16.2359 425.1094)" class="map-st4" width="12.2" height="0.3"/>
	
		<rect x="518.9" y="192.3" transform="matrix(0.7071 -0.7071 0.7071 0.7071 17.9391 428.19)" class="map-st4" width="13.9" height="0.3"/>
	
		<rect x="523.6" y="194.2" transform="matrix(0.7071 -0.7071 0.7071 0.7071 17.1872 430.2414)" class="map-st4" width="8.6" height="0.3"/>
	<polygon class="map-st4" points="516,182.3 503.5,194.8 503.4,194.5 515.7,182.2 	"/>
	<polygon class="map-st4" points="515.8,174.4 502.1,188.1 502,187.7 515.5,174.3 	"/>
	<polygon class="map-st4" points="515.8,170.4 501.7,184.5 501.5,184.2 515.5,170.2 	"/>
	<polygon class="map-st4" points="516.1,166 501.6,180.4 501.4,180.2 515.8,165.9 	"/>
	<polygon class="map-st4" points="515.8,162.2 501.7,176.3 501.5,176.1 515.5,162.1 	"/>
	<polygon class="map-st4" points="515.1,158.9 501.5,172.4 501.3,172.2 514.8,158.8 	"/>
	<polygon class="map-st4" points="511.2,158.7 501.6,168.3 501.4,168.1 510.9,158.6 	"/>
	<rect x="501.3" y="158.9" class="map-st14" width="0.5" height="27.5"/>
	<rect x="504" y="197.1" class="map-st14" width="27.5" height="0.5"/>
	<polyline class="map-st7" points="506.5,299.7 506.1,298.7 508.8,297.5 508.8,294.7 512.7,294.5 	"/>
	<line class="map-st7" x1="510.1" y1="294.6" x2="510.1" y2="297.1"/>
	<path class="map-st7" d="M509.6,293.6c-0.8-1.1-2.4-1.4-3.5-0.6c-1.1,0.8-1.4,2.4-0.6,3.5c0.3,0.4,0.6,0.7,1.1,0.9"/>
	<circle class="map-st4" cx="512.7" cy="295" r="0.9"/>
	<polyline class="map-st7" points="484.5,313.3 485.4,313 486.7,315.6 489.4,315.6 489.6,319.5 	"/>
	<line class="map-st7" x1="489.5" y1="317" x2="487" y2="317"/>
	<path class="map-st7" d="M490.5,316.5c1.1-0.8,1.4-2.4,0.6-3.5c-0.8-1.1-2.4-1.4-3.5-0.6c-0.4,0.3-0.7,0.6-0.9,1.1"/>
	<circle class="map-st4" cx="489.1" cy="319.5" r="0.9"/>
	<polygon class="map-st15" points="517,337.5 517,310.5 531.4,310.5 531.4,337.5 	"/>
	<line class="map-st11" x1="531.4" y1="322.7" x2="517" y2="322.7"/>
	<g class="map-st3">
		<path class="map-st4" d="M338.5,200.4h2.6c1.5,0,2.5,0.9,2.5,2.2v0c0,1.5-1.2,2.2-2.6,2.2h-1.3v2.1h-1.2V200.4z M341,203.8
			c0.9,0,1.4-0.5,1.4-1.2v0c0-0.8-0.6-1.2-1.4-1.2h-1.3v2.4H341z"/>
	</g>
	<g class="map-st3">
		<path class="map-st4" d="M346.8,200.3h1.1l2.9,6.6h-1.2l-0.7-1.6h-3.1l-0.7,1.6h-1.2L346.8,200.3z M348.5,204.3l-1.1-2.6l-1.1,2.6
			H348.5z"/>
		<path class="map-st4" d="M352.3,200.4h2.9c0.8,0,1.5,0.2,1.9,0.7c0.3,0.4,0.5,0.8,0.5,1.4v0c0,1.1-0.6,1.7-1.6,2l1.8,2.5h-1.4
			l-1.6-2.3h-1.4v2.3h-1.2V200.4z M355.1,203.6c0.8,0,1.4-0.4,1.4-1.1v0c0-0.7-0.5-1.1-1.4-1.1h-1.7v2.2H355.1z"/>
		<path class="map-st4" d="M359.5,200.4h1.2v3.3l3.1-3.3h1.4l-2.7,2.8l2.9,3.8h-1.4l-2.2-3l-1,1.1v1.9h-1.2V200.4z"/>
		<path class="map-st4" d="M366.7,200.4h1.2v6.6h-1.2V200.4z"/>
		<path class="map-st4" d="M370,200.4h1.1l3.5,4.6v-4.6h1.1v6.6h-1l-3.6-4.7v4.7H370V200.4z"/>
		<path class="map-st4" d="M377.5,203.7L377.5,203.7c0-1.9,1.4-3.4,3.4-3.4c1.1,0,1.9,0.3,2.5,0.9l-0.7,0.9c-0.5-0.4-1-0.7-1.8-0.7
			c-1.2,0-2.1,1.1-2.1,2.3v0c0,1.4,0.9,2.4,2.2,2.4c0.6,0,1.2-0.2,1.6-0.5v-1.2h-1.7v-1h2.8v2.8c-0.7,0.6-1.6,1-2.7,1
			C378.9,207.1,377.5,205.6,377.5,203.7z"/>
		<path class="map-st4" d="M388.8,200.4h2.5c2.1,0,3.5,1.4,3.5,3.3v0c0,1.9-1.4,3.3-3.5,3.3h-2.5V200.4z M389.9,201.4v4.5h1.3
			c1.4,0,2.3-0.9,2.3-2.2v0c0-1.3-0.9-2.2-2.3-2.2H389.9z"/>
		<path class="map-st4" d="M396.5,200.4h4.9v1h-3.7v1.7h3.3v1h-3.3v1.8h3.8v1h-4.9V200.4z"/>
		<path class="map-st4" d="M402.9,203.7L402.9,203.7c0-1.9,1.4-3.4,3.4-3.4c1.2,0,1.9,0.4,2.6,1l-0.7,0.9c-0.5-0.5-1.1-0.8-1.8-0.8
			c-1.3,0-2.2,1-2.2,2.3v0c0,1.3,0.9,2.3,2.2,2.3c0.8,0,1.3-0.3,1.9-0.8l0.7,0.8c-0.7,0.7-1.4,1.2-2.7,1.2
			C404.3,207.1,402.9,205.6,402.9,203.7z"/>
		<path class="map-st4" d="M410.5,200.4h1.2v3.3l3.1-3.3h1.4l-2.7,2.8l2.9,3.8H415l-2.2-3l-1,1.1v1.9h-1.2V200.4z"/>
	</g>
</g>
<g id="UNITS">
	<path id="base-block" class="map-st8" d="M680.6,405.2v-38h-3.4v-14.6h3.6v-24H679v-24h-41v5.1h-48.2c-1,0,0-31.9,0-31.9h-4.9v-18h4.9
		v-66.5h-4.9v-18h5v-32.4h48v5.5H679v-23.8h1.8v-24.2h-3.6V85.4h2.8V47.8h3.3V31.2h-16.6v3h-34.9v3h-17.1v4.7h-17.5v-4.7h-33.5v4.7
		h-17.5v-4.7h-17.1v-2.6h-48.3v-3.4h-16.6v16.6h3.9v37.3h4.1v16.1h-31.6v5h-18.1v-5h-33.1v2.9h-37v-2.9h-33.1v5.3h-17.9v-5.3H269
		V85.1h4.3V47.8h3.9V31.1h-16.6v3.6h-48.5v2.5h-16.7v4.7H178v-4.5h-66.9v4.5H93.6v-4.7H76.5v-3H41.7v-3H25v16.6h3.4v37.7h3.4v14.7
		h-3.5v31.9H25v16.6h16.7v-3.9h55v-2h16.6v-3.7h17.5v3.7h32.3v32.4h4.9v18h-4.9v66.5h4.9v18h-4.9v32h-32.3v3.4h-17.5v-2.9H96.7v-2.8
		h-55V304H25v16.6h4v31.4h2.9v15.1H29v38.2h-4v16.6h16.7v-3.4h44.2v-2.8h16.8v-4.1h16.9v4.1h17.1v4.1h111.6v-11h16.9v-4.1h19.1v4.1
		h34.3v-4.1h19.1v4.1h34.1v-4.1h19.1v4.1h34.3v-4.1h19.1v4.1h16.8v11h111.7v-4.1H590v-4.1h16.9v4.1h16.8v2.8h44.3v3.4h16.6v-16.7
		H680.6z M531.5,337.5H237.8V158.9h293.7V337.5z"/>
	<polygon id="g-unit_043_244_344_444_544" class="map-st8 g-unit g043 g144 g244 g344 g444 g544" points="683.4,31.1 667.2,31.1 667.2,34.2 631.9,34.2 631.9,85.4 680,85.4 
		680,47.8 683.4,47.8 	"/>
	<polygon id="g-unit_042_143_243_343_443_543" class="map-st8 g-unit g042 g143 g243 g343 g443 g543" points="631.4,37.2 614.8,37.2 614.8,41.8 597.3,41.8 597.3,37.2 
		580.5,37.2 580.5,85.1 631.9,85.1 	"/>
	<polygon id="g-unit_041_142_242_343_442_542" class="map-st8 g-unit g041 g142 g242 g343 g442 g542" points="580.5,37.2 563.8,37.2 563.8,41.8 546.3,41.8 546.3,37.2 
		529.3,37.2 529.3,85.1 580.5,85.1 	"/>
	<polygon id="g-unit_141_241_341_441_541" class="map-st8 g-unit g141 g241 g341 g441 g541" points="529.3,34.7 480.8,34.7 480.8,31.1 464.2,31.1 464.2,47.8 468.1,47.8 
		468.1,85.1 529.3,85.1 	"/>
	<polygon id="g-unit_140_240_340_440_540" class="map-st8 g-unit g140 g240 g340 g440 g540" points="521.3,85.4 472,85.4 472,101.2 504.8,134 521.5,134 	"/>
	<polygon id="g-unit_139_239_339_439_539" class="map-st8 g-unit g139 g239 g339 g439 g539" points="457,101.2 457,149.9 504.9,149.9 504.9,134 472.1,101.1 	"/>
	<polygon id="g-unit_138_238_338_438_538" class="map-st8 g-unit g138 g238 g338 g438 g538" points="406,101.2 422.8,101.2 422.8,106.2 440.6,106.2 440.6,101.2 
		457,101.2 457,149.9 406,149.9 	"/>
	<polygon id="g-unit_137_237_337_437_537" class="map-st8 g-unit g137 g237 g337 g437 g537" points="370.6,104.2 389.4,104.2 389.4,101.2 406,101.2 406,149.9 
		383.7,149.9 383.7,147.3 370.6,147.3 	"/>
	<polygon id="g-unit_136_236_336_436_536" class="map-st8 g-unit g136 g236 g336 g436 g536" points="370.6,104.2 352.4,104.2 352.4,101.2 336,101.2 336,149.9 
		358.2,149.9 358.2,147 370.6,147 	"/>
	<polygon id="g-unit_135_235_335_435_535" class="map-st8 g-unit g135 g235 g335 g435 g535" points="336,101.2 319.2,101.2 319.2,106.2 301.3,106.2 301.3,101.2 
		284.6,101.2 284.6,149.9 336,149.9 	"/>
	<polygon id="g-unit_134_234_334_434_534" class="map-st8 g-unit g134 g234 g334 g434 g534" points="284.6,101.2 269,101.2 236.7,133.4 236.7,149.9 284.6,149.9 	"/>
	<polygon id="g-unit_133_233_33_433_533" class="map-st8 g-unit g133 g233 g33 g433 g533" points="220.4,85.1 269,85.1 269,101.2 236.7,133.4 220.4,133.4 	"/>
	<polygon id="g-unit_132_232_332_432_532" class="map-st8 g-unit g132 g232 g332 g432 g532" points="212.1,85.1 273.3,85.1 273.3,47.8 277.2,47.8 277.2,31.1 260.6,31.1 
		260.6,34.7 212.1,34.7 	"/>
	<polygon id="g-unit_131_231_331_431_531" class="map-st8 g-unit g131 g231 g331 g431 g531" points="211.6,37.3 195.5,37.3 195.5,41.8 178,41.8 178,37.2 161.3,37.2 
		161.3,84.4 212.1,84.4 	"/>
	<rect id="g-unit_130_230_330_430_530" x="127.9" y="37.2" class="map-st8 g-unit g130 g230 g330 g430 g530" width="33.4" height="47.9"/>
	<polygon id="g-unit_219_229_329_429_529" class="map-st8 g-unit g219 g229 g329 g429 g529" points="76.5,37.2 76.5,85.1 127.9,85.1 127.9,37.2 110.9,37.2 110.9,41.5 
		93.4,41.5 93.4,37.2 	"/>
	<polygon id="g-unit_128_228_328_428_528" class="map-st8 g-unit g128 g228 g328 g428 g528" points="76.5,34.2 41.7,34.2 41.7,31.1 25,31.1 25,47.8 28.4,47.8 28.4,85.4 
		76.5,85.4 	"/>
	<polygon id="g-unit_127_227_327_427_527" class="map-st8 g-unit g127 g227 g327 g427 g527" points="28.4,100.1 64.3,100.1 64.3,94.9 96.7,94.9 96.7,144.8 41.7,144.8 
		41.7,148.7 25,148.7 25,132.1 28.4,132.1 	"/>
	<polygon id="g-unit_126_226_326_426_526" class="map-st8 g-unit g126 g226 g326 g426 g526" points="147.6,95 147.6,142.8 130.8,142.8 130.8,139.1 113.3,139.1 
		113.3,142.8 96.8,142.8 96.8,94.9 	"/>
	<polygon id="g-unit_125_225_325_425_525" class="map-st8 g-unit g125 g225 g325 g425 g525" points="147.6,95 194.9,95 194.9,111.4 163.3,143 147.6,143 	"/>
	<polygon id="g-unit_125_225_325_425_525" class="map-st8 g-unit g125 g225 g325 g425 g525" points="211.5,111.4 194.9,111.4 163.3,143 163.3,158.6 211,158.6 	"/>
	<polygon id="g-unit_123_223_323_423_523" class="map-st8 g-unit g123 g223 g323 g423 g523" points="163,209.7 163,193.2 168,193.2 168,175.2 163.1,175.2 163.1,158.6 
		211,158.6 211,209.7 	"/>
	<rect id="g-unit_122_222_322_422_522" x="163" y="209.7" class="map-st8 g-unit g122 g222 g322 g422 g522" width="48" height="33.4"/>
	<polygon id="g-unit_121_221_321_421_521" class="map-st8 g-unit g121 g221 g321 g421 g521" points="163.1,259.7 163.1,243.1 211,243.1 211,294.2 163,294.2 163,277.9 
		167.8,277.9 167.8,259.8 	"/>
	<polygon id="g-unit_120_220_320_420_520" class="map-st8 g-unit g120 g220 g320 g420 g520" points="163,309.2 163,294.8 211,294.8 211,342 195.4,342 	"/>
	<polygon id="g-unit_119_219_319_419_519" class="map-st8 g-unit g119 g219 g319 g419 g519" points="147.5,309.7 163.4,309.7 195.6,341.9 195.6,357.8 147.6,357.8 	"/>
	<polygon id="g-unit_218_318_418_518" class="map-st8 g-unit g118 g218 g318 g418 g518" points="130.8,313.4 130.8,309.7 147.5,309.7 147.5,357.8 96.5,357.8 96.5,309.7 
		113.3,309.7 113.3,313.4 	"/>
	<path id="g-unit_117_217_317_417_517" class="map-st8 g-unit g117 g217 g317 g417 g517" d="M96.5,307.6c0,0-54.9,0.3-54.9,0s0-3.7,0-3.7H25v16.6H29v31.3h34.9v6.1h32.7
		V307.6z"/>
	<polygon id="g-unit_117_217_317_417_517" class="map-st8 g-unit g117 g217 g317 g417 g517" points="85.9,367 29,367 29,405.3 25,405.3 25,421.9 41.9,421.9 41.9,418.5 
		85.9,418.5 	"/>
	<polygon id="g-unit_115_215_315_415_515" class="map-st8 g-unit g115 g215 g315 g415 g515" points="136.7,367 85.9,367 85.9,415.5 102.7,415.5 102.7,411.5 119.6,411.5 
		119.6,415.6 136.7,415.6 	"/>
	<rect id="g-unit_114_214_314_414_514" x="136.7" y="367" class="map-st8 g-unit g114 g214 g314 g414 g514" width="28" height="52.8"/>
	<rect id="g-unit_113_213_313_413_513" x="164.6" y="367" class="map-st8 g-unit g113 g213 g313 g413 g513" width="27.7" height="52.8"/>
	<rect id="g-unit_112_212_312_412_512" x="192.3" y="367" class="map-st8 g-unit g112 g212 g312 g412 g512" width="27.9" height="52.8"/>
	<rect id="g-unit_111_211_311_411_511" x="220.2" y="367.1" class="map-st8 g-unit g111 g211 g311 g411 g511" width="28.2" height="52.7"/>
	<polygon id="g-unit_110_210_310_410_510" class="map-st8 g-unit g110 g210 g310 g410 g510" points="248.4,364 301.2,364 301.2,408.7 284.3,408.7 284.3,405 265.2,405 
		265.2,408.2 248.5,408.2 	"/>
	<polygon id="g-unit_109_209_309_409_509" class="map-st8 g-unit g109 g209 g309 g409 g509" points="354.5,364 301.2,364 301.2,408.7 318.6,408.7 318.6,404.9 
		337.7,404.9 337.7,408.7 354.8,408.7 	"/>
	<polygon id="g-unit_109_209_309_409_509" class="map-st8 g-unit g109 g209 g309 g409 g509" points="408.2,364 354.5,364 354.5,408.7 371.8,408.7 371.8,404.7 
		390.9,404.7 390.9,408.7 408.2,408.7 	"/>
	<polygon id="g-unit_107_207_307_407_507" class="map-st8 g-unit g107 g207 g307 g407 g507" points="461.2,364 408.2,364 408.2,408.7 425.3,408.7 425.3,404.7 
		444.4,404.7 444.4,408.7 461.3,408.7 	"/>
	<rect id="g-unit_107_207_307_407_507" x="461.3" y="367.1" class="map-st8 g-unit g107 g207 g307 g407 g507" width="28" height="52.7"/>
	<path id="g-unit_105_205_305_405_505" class="map-st8 g-unit 105 205 305 405 505" d="M517.1,367.1c-0.9,0-27.9,0-27.9,0v52.7h27.9V367.1z"/>
	<polygon id="g-unit_104_204_304_404_504" class="map-st8 g-unit g104 g204 g304 g404 g504" points="544.9,367.2 517.1,367.2 517.1,419.8 544.9,419.8 	"/>
	<rect id="g-unit_103_203_303_403_503" x="544.9" y="367.1" class="map-st8 g-unit g103 g203 g303 g403 g503" width="27.9" height="52.7"/>
	<polygon id="g-unit_102_202_302_402_502" class="map-st8 g-unit g102 g202 g302 g402 g502" points="623.7,367.1 572.8,367.1 572.8,415.6 589.8,415.6 589.8,411.5 
		606.8,411.5 606.8,415.6 623.7,415.6 	"/>
	<polygon id="g-unit_101_201_301_401_501" class="map-st8 g-unit g101 g201 g301 g401 g501" points="680.6,367.1 623.7,367.1 623.7,418.5 667.9,418.5 667.9,421.9 
		684.5,421.9 684.5,405.3 680.4,405.3 	"/>
	<polygon id="g-unit_155_255_355_455_555" class="map-st8 g-unit g155 g255 g355 g455 g555" points="679.1,304.6 638,304.6 638,352.7 680.8,352.7 680.8,328.5 
		679.2,328.5 	"/>
	<polygon id="g-unit_154_254_354_454_554" class="map-st8 g-unit g154 g254 g354 g454 g554" points="637.8,309.7 605.3,309.7 605.3,358 638,358 	"/>
	<polygon id="g-unit_153_253_353_453_553" class="map-st8 g-unit g153 g253 g353 g453 g553" points="589.8,309.7 605.3,309.7 605.3,358 557.4,358 557.4,342 	"/>
	<polygon id="g-unit_152_252_352_452_552" class="map-st8 g-unit g152 g252 g352 g452 g552" points="589.9,294.3 541.3,294.3 541.3,342 557.4,342 589.8,309.7 	"/>
	<polygon id="g-unit_151_251_351_451_551" class="map-st8 g-unit g151 g251 g351 g451 g551" points="589.9,243.1 541.3,243.1 541.3,294.3 589.9,294.3 589.9,277.8 
		584.6,277.8 584.6,259.9 589.7,259.9 	"/>
	<polygon id="g-unit_150_250_350_450_550" class="map-st8 g-unit g150 g250 g350 g450 g550" points="589.7,209.7 541.3,209.7 541.3,243.1 589.9,243.1 	"/>
	<polygon id="g-unit_048_149_249_349_449_549" class="map-st8 g-unit g048 g149 g249 g349 g449 g549" points="589.8,158.5 541.3,158.5 541.3,209.7 589.8,209.7 589.8,193.5 
		584.9,193.5 584.9,175.1 589.8,175.1 	"/>
	<polygon id="g-unit_047_148_248_348_448_548" class="map-st8 g-unit g047 g148 g248 g348 g448 g548" points="589.9,143.3 557.9,111.4 541.3,111.4 541.3,158.5 589.8,158.5 	
		"/>
	<polygon id="g-unit_046_147_247_347_447547" class="map-st8 g-unit g046 g147 g247 g347 g447 g547" points="604.8,95 558,95 558,111.4 589.6,143.1 605.3,143.1 	"/>
	<polygon id="g-unit_045_146_246_346_446_546" class="map-st8 g-unit g045 g146 g246 g346 g446 g546" points="637.4,95 604.8,95 604.8,142.8 637.8,142.8 	"/>
	<polygon id="g-unit_044_145_245_345_445_545" class="map-st8 g-unit g044 g145 g245 g345 g445 g545" points="680.8,100.2 637.8,100.2 637.8,148.2 679.1,148.2 679.1,124.2 
		680.8,124.2 	"/>
</g>
<g id="DETAILS">
	<title>svg_map</title>
	<path class="map-st1" d="M13.1,34.4c0-6.6,5.3-11.9,11.9-11.9"/>
	<path class="map-st1" d="M3.3,22.7c5.6,1.1,9.7,6,9.8,11.7"/>
	<polyline class="map-st11" points="41.7,34.2 76.5,34.2 76.5,85.4 28.4,85.4 28.4,47.8 	"/>
	<line class="map-st11" x1="127.9" y1="37.3" x2="127.9" y2="85.1"/>
	<line class="map-st11" x1="161.3" y1="37.3" x2="161.3" y2="85.1"/>
	<polyline class="map-st11" points="260.6,34.7 212.1,34.7 212.1,85.1 273.3,85.1 273.3,47.8 	"/>
	<polygon class="map-st11" points="273.3,47.8 277.2,47.8 277.2,31.1 260.6,31.1 260.6,34.6 	"/>
	<polygon class="map-st11" points="29,47.8 25,47.8 25,31.1 41.7,31.1 41.7,34.6 	"/>
	<polygon class="map-st11" points="41.7,144.8 41.7,148.7 25,148.7 25,132.1 28.5,132.1 	"/>
	<polygon class="map-st11" points="29,320.6 25,320.6 25,304 41.7,304 41.7,307.4 	"/>
	<polygon class="map-st11" points="29,405.3 25,405.3 25,421.9 41.7,421.9 41.7,418.5 	"/>
	<polyline class="map-st11" points="211.6,111.4 194.9,111.4 194.9,95 	"/>
	<polygon class="map-st11" points="93.6,37.2 76.5,37.2 76.5,85.1 212.1,85.1 212.1,37.2 195.5,37.2 195.5,41.8 178,41.8 178,37.2 
		111.1,37.2 111.1,41.8 93.6,41.8 	"/>
	<polyline class="map-st11" points="666.7,34.2 631.9,34.2 631.9,85.4 680,85.4 680,47.8 	"/>
	<line class="map-st11" x1="580.5" y1="37.3" x2="580.5" y2="85.1"/>
	<polyline class="map-st11" points="480.8,34.7 529.3,34.7 529.3,85.1 468.1,85.1 468.1,47.8 	"/>
	<polygon class="map-st11" points="468.1,47.8 464.2,47.8 464.2,31.1 480.8,31.1 480.8,34.6 	"/>
	<polygon class="map-st11" points="679.4,47.8 683.4,47.8 683.4,31.1 666.7,31.1 666.7,34.6 	"/>
	<polygon class="map-st11" points="614.8,37.2 631.9,37.2 631.9,85.1 529.3,85.1 529.3,37.2 546.3,37.2 546.3,41.8 563.8,41.8 
		563.8,37.2 597.3,37.2 597.3,41.8 614.8,41.8 	"/>
	<polyline class="map-st11" points="28.4,132.1 28.4,100.1 31.8,100.1 	"/>
	<polyline class="map-st11" points="41.7,144.8 96.7,144.8 96.7,94.9 	"/>
	<line class="map-st11" x1="194.9" y1="111.4" x2="163" y2="143.3"/>
	<line class="map-st11" x1="147.6" y1="95" x2="147.6" y2="142.8"/>
	<line class="map-st11" x1="147.6" y1="310.2" x2="147.6" y2="358"/>
	<line class="map-st11" x1="211.5" y1="158.6" x2="163.1" y2="158.5"/>
	<line class="map-st11" x1="211.5" y1="209.7" x2="163" y2="209.7"/>
	<line class="map-st11" x1="211.5" y1="243.1" x2="163" y2="243.1"/>
	<line class="map-st11" x1="211.5" y1="294.3" x2="163" y2="294.3"/>
	<line class="map-st11" x1="370.6" y1="104.2" x2="370.6" y2="158.9"/>
	<line class="map-st11" x1="336" y1="101.2" x2="336" y2="150.1"/>
	<line class="map-st11" x1="406" y1="101.2" x2="406" y2="150.1"/>
	<line class="map-st11" x1="457" y1="101.2" x2="457" y2="149.9"/>
	<line class="map-st11" x1="284.6" y1="101.2" x2="284.6" y2="149.9"/>
	<polyline class="map-st11" points="220.4,133.5 236.7,133.5 236.7,149.9 	"/>
	<line class="map-st11" x1="236.7" y1="133.5" x2="269" y2="101.2"/>
	<polyline class="map-st11" points="255.5,85.1 255.5,99.5 271.3,115.2 284.6,115.2 	"/>
	<polyline class="map-st11" points="486.3,85.1 486.3,99.5 470.5,115.2 457.2,115.2 	"/>
	<polyline class="map-st11" points="472.3,101.2 504.9,133.8 504.9,149.9 	"/>
	<line class="map-st11" x1="521.5" y1="133.8" x2="521.5" y2="85.1"/>
	<line class="map-st11" x1="504.9" y1="133.8" x2="531.6" y2="133.8"/>
	<line class="map-st11" x1="521.5" y1="112.6" x2="531.4" y2="112.6"/>
	<line class="map-st11" x1="521.5" y1="119.9" x2="531.4" y2="119.9"/>
	<line class="map-st11" x1="521.5" y1="127" x2="531.4" y2="127"/>
	<line class="map-st11" x1="516.1" y1="133.7" x2="516.1" y2="150"/>
	<polyline class="map-st11" points="516.1,144.7 522.5,144.7 524.8,147 	"/>
	<polyline class="map-st11" points="526.9,133.8 526.9,140.2 529.2,142.6 	"/>
	<polyline class="map-st11" points="472.3,85.1 472.3,101.2 440.6,101.2 440.6,106.2 422.8,106.2 422.8,101.2 389.4,101.2 389.4,104.2 
		352.4,104.2 352.4,101.2 319.2,101.2 319.2,106.2 301.3,106.2 301.3,101.2 269,101.2 269,85.3 	"/>
	<polyline class="map-st11" points="96.5,358.1 96.5,307.6 41.7,307.6 	"/>
	<line class="map-st11" x1="31.8" y1="100.1" x2="31.8" y2="85.4"/>
	<line class="map-st11" x1="31.8" y1="366.7" x2="31.8" y2="351.9"/>
	<polyline class="map-st11" points="64.3,85.4 64.3,100.1 31.8,100.1 	"/>
	<polyline class="map-st11" points="63.9,358.1 205.9,358.1 211.5,352.4 211.5,111.4 211.5,104.2 202.2,94.9 194.9,94.9 64.3,94.9 	"/>
	<polyline class="map-st11" points="29,320.6 29,351.9 63.9,351.9 63.9,367.1 	"/>
	<polyline class="map-st11" points="163.1,309.7 195.4,342 195.4,358.4 	"/>
	<line class="map-st11" x1="195.4" y1="342" x2="211.5" y2="342"/>
	<line class="map-st11" x1="204.2" y1="342" x2="204.2" y2="358.1"/>
	<line class="map-st11" x1="204" y1="347.8" x2="211.6" y2="347.8"/>
	<polyline class="map-st11" points="96.7,142.8 113.3,142.8 113.3,139.1 130.8,139.1 130.8,142.8 163.1,142.8 163.1,175.2 168,175.2 
		168,193.2 163.1,193.2 163.1,259.7 168,259.7 168,277.8 163.1,277.8 163.1,309.7 130.8,309.7 130.8,313.4 113.3,313.4 113.3,309.7 
		96.7,309.7 	"/>
	<polyline class="map-st11" points="541.3,111.4 558,111.4 558,95 	"/>
	<line class="map-st11" x1="558" y1="111.4" x2="589.9" y2="143.3"/>
	<line class="map-st11" x1="605.3" y1="95" x2="605.3" y2="142.8"/>
	<line class="map-st11" x1="605.3" y1="310.2" x2="605.3" y2="358"/>
	<line class="map-st11" x1="541.3" y1="158.6" x2="589.8" y2="158.5"/>
	<line class="map-st11" x1="541.3" y1="209.7" x2="589.9" y2="209.7"/>
	<line class="map-st11" x1="541.3" y1="243.1" x2="589.9" y2="243.1"/>
	<line class="map-st11" x1="541.3" y1="294.3" x2="589.9" y2="294.3"/>
	<polyline class="map-st11" points="589.8,309.7 557.4,342 557.4,358.4 	"/>
	<line class="map-st11" x1="557.4" y1="342" x2="541.3" y2="342"/>
	<polyline class="map-st11" points="637.8,142.8 589.8,142.8 589.8,175.2 584.9,175.2 584.9,193.2 589.8,193.2 589.8,259.7 584.9,259.7 
		584.9,277.8 589.8,277.8 589.8,309.7 638,309.7 638,304.6 679.1,304.6 679.1,328.5 680.8,328.5 680.8,352.6 637.8,352.6 	"/>
	<polyline class="map-st11" points="147.6,129.3 161,129.3 176.7,145.1 176.7,158.5 	"/>
	<line class="map-st11" x1="677.2" y1="85.4" x2="677.2" y2="100.3"/>
	<line class="map-st11" x1="645.9" y1="85.4" x2="645.9" y2="100.3"/>
	<line class="map-st11" x1="677.2" y1="352.3" x2="677.2" y2="367.2"/>
	<line class="map-st11" x1="645.9" y1="352.3" x2="645.9" y2="367.2"/>
	<polyline class="map-st11" points="176.5,294.3 176.5,307.5 161,323 147.5,323 	"/>
	<polyline class="map-st11" points="575.6,294.3 575.6,307.5 591.1,323 604.6,323 	"/>
	<polyline class="map-st11" points="638,309.7 638,358.1 550.5,358.1 541.3,349 541.3,111.4 541.3,104.2 550.6,94.9 558,94.9 
		637.9,94.9 637.9,148.2 679.1,148.2 679.1,124.5 680.8,124.5 680.8,100.2 637.8,100.3 	"/>
	<polygon class="map-st11" points="680.6,405.3 684.5,405.3 684.5,421.9 667.9,421.9 667.9,418.5 	"/>
	<polyline class="map-st11" points="680.6,405.4 680.6,367.1 461.2,367.1 461.2,364 354.5,364 248.4,364 248.4,367.1 29,367.1 29,405.4 
			"/>
	<polyline class="map-st11" points="461.3,408.7 444.4,408.7 444.4,404.7 425.3,404.7 425.3,408.7 390.9,408.7 390.9,404.7 371.8,404.7 
		371.8,408.7 354.6,408.7 337.7,408.7 337.7,404.7 318.6,404.7 318.6,408.7 284.3,408.7 284.3,404.7 265.2,404.7 265.2,408.7 
		248.3,408.7 	"/>
	<line class="map-st11" x1="85.9" y1="415.6" x2="85.9" y2="367"/>
	<line class="map-st11" x1="136.7" y1="415.6" x2="136.7" y2="367"/>
	<line class="map-st11" x1="164.6" y1="419.7" x2="164.6" y2="367"/>
	<line class="map-st11" x1="192.3" y1="419.7" x2="192.3" y2="367"/>
	<line class="map-st11" x1="220.2" y1="419.7" x2="220.2" y2="367"/>
	<polyline class="map-st11" points="248.4,367.1 248.4,419.8 136.7,419.8 136.7,415.6 119.6,415.6 119.6,411.6 102.7,411.6 102.7,415.6 
		85.9,415.6 85.9,418.5 41.7,418.5 	"/>
	<line class="map-st11" x1="301.2" y1="364" x2="301.2" y2="408.7"/>
	<line class="map-st11" x1="354.8" y1="352.6" x2="354.8" y2="408.7"/>
	<line class="map-st11" x1="408.2" y1="364" x2="408.2" y2="408.7"/>
	<polyline class="map-st11" points="461.2,367.1 461.2,419.8 572.8,419.8 572.8,415.6 590,415.6 590,411.6 606.8,411.6 606.8,415.6 
		623.7,415.6 623.7,418.5 667.9,418.5 	"/>
	<line class="map-st11" x1="489.2" y1="367.1" x2="489.2" y2="419.7"/>
	<line class="map-st11" x1="517.1" y1="367.1" x2="517.1" y2="419.7"/>
	<line class="map-st11" x1="544.9" y1="367.1" x2="544.9" y2="419.7"/>
	<line class="map-st11" x1="572.8" y1="415.6" x2="572.8" y2="367.1"/>
	<line class="map-st11" x1="623.7" y1="415.6" x2="623.7" y2="367.1"/>
	<polyline class="map-st11" points="220.4,85.1 220.4,140.2 230.1,149.9 358.2,149.9 358.2,147.3 383.6,147.3 383.6,149.9 521.9,149.9 
		531.6,140.2 531.6,85.1 	"/>
	<polyline class="map-st11" points="204.6,97.3 202.1,99.8 194.9,99.8 	"/>
	<polyline class="map-st11" points="209,101.7 206.5,104.2 206.5,111.4 	"/>
	<polyline class="map-st11" points="548.5,97.3 551,99.8 558.2,99.8 	"/>
	<polyline class="map-st11" points="544.1,101.7 546.5,104.2 546.5,111.4 	"/>
	<polyline class="map-st11" points="227.8,147.3 230.3,144.8 237.5,144.8 	"/>
	<polyline class="map-st11" points="223.4,142.9 226.4,139.8 226.4,133.5 	"/>
	<polyline class="map-st11" points="546.2,342 546.2,348.6 543.6,351.2 	"/>
	<polyline class="map-st11" points="557.4,352.2 551.5,352.2 548,355.7 	"/>
	<rect x="657.5" y="92.1" class="map-st11" width="13" height="2.5"/>
	<rect x="654.5" y="358.3" class="map-st11" width="13" height="2.5"/>
	<line class="map-st13" x1="655.4" y1="352.7" x2="655.4" y2="358.2"/>
	<line class="map-st13" x1="656.7" y1="352.7" x2="656.7" y2="358.2"/>
	<line class="map-st13" x1="658" y1="352.7" x2="658" y2="358.2"/>
	<line class="map-st13" x1="659.2" y1="352.7" x2="659.2" y2="358.2"/>
	<line class="map-st13" x1="660.5" y1="352.7" x2="660.5" y2="358.2"/>
	<line class="map-st13" x1="661.8" y1="352.7" x2="661.8" y2="358.2"/>
	<line class="map-st13" x1="663.1" y1="352.7" x2="663.1" y2="358.2"/>
	<line class="map-st13" x1="664.3" y1="352.7" x2="664.3" y2="358.2"/>
	<line class="map-st13" x1="665.6" y1="352.7" x2="665.6" y2="358.2"/>
	<line class="map-st13" x1="666.9" y1="352.7" x2="666.9" y2="358.2"/>
	<line class="map-st13" x1="656.7" y1="361.3" x2="656.7" y2="366.8"/>
	<line class="map-st13" x1="658" y1="361.3" x2="658" y2="366.8"/>
	<line class="map-st13" x1="659.2" y1="361.3" x2="659.2" y2="366.8"/>
	<line class="map-st13" x1="660.5" y1="361.3" x2="660.5" y2="366.8"/>
	<line class="map-st13" x1="661.8" y1="361.3" x2="661.8" y2="366.8"/>
	<line class="map-st13" x1="663.1" y1="361.3" x2="663.1" y2="366.8"/>
	<line class="map-st13" x1="664.3" y1="361.3" x2="664.3" y2="366.8"/>
	<line class="map-st13" x1="665.6" y1="361.3" x2="665.6" y2="366.8"/>
	<line class="map-st13" x1="666.9" y1="361.3" x2="666.9" y2="366.8"/>
	<line class="map-st13" x1="658.3" y1="100.1" x2="658.3" y2="94.6"/>
	<line class="map-st13" x1="659.5" y1="100.1" x2="659.5" y2="94.6"/>
	<line class="map-st13" x1="660.8" y1="100.1" x2="660.8" y2="94.6"/>
	<line class="map-st13" x1="662.1" y1="100.1" x2="662.1" y2="94.6"/>
	<line class="map-st13" x1="663.4" y1="100.1" x2="663.4" y2="94.6"/>
	<line class="map-st13" x1="664.7" y1="100.1" x2="664.7" y2="94.6"/>
	<line class="map-st13" x1="665.9" y1="100.1" x2="665.9" y2="94.6"/>
	<line class="map-st13" x1="667.2" y1="100.1" x2="667.2" y2="94.6"/>
	<line class="map-st13" x1="668.5" y1="100.1" x2="668.5" y2="94.6"/>
	<line class="map-st13" x1="669.8" y1="100.1" x2="669.8" y2="94.6"/>
	<line class="map-st13" x1="659.5" y1="91.5" x2="659.5" y2="86.1"/>
	<line class="map-st13" x1="660.8" y1="91.5" x2="660.8" y2="86.1"/>
	<line class="map-st13" x1="662.1" y1="91.5" x2="662.1" y2="86.1"/>
	<line class="map-st13" x1="663.4" y1="91.5" x2="663.4" y2="86.1"/>
	<line class="map-st13" x1="664.7" y1="91.5" x2="664.7" y2="86.1"/>
	<line class="map-st13" x1="665.9" y1="91.5" x2="665.9" y2="86.1"/>
	<line class="map-st13" x1="667.2" y1="91.5" x2="667.2" y2="86.1"/>
	<line class="map-st13" x1="668.5" y1="91.5" x2="668.5" y2="86.1"/>
	<line class="map-st13" x1="669.8" y1="91.5" x2="669.8" y2="86.1"/>
	<rect x="38.5" y="91.9" class="map-st11" width="13" height="2.5"/>
	<line class="map-st13" x1="50.9" y1="99.9" x2="50.9" y2="94.4"/>
	<line class="map-st13" x1="49.6" y1="99.9" x2="49.6" y2="94.4"/>
	<line class="map-st13" x1="48.3" y1="99.9" x2="48.3" y2="94.4"/>
	<line class="map-st13" x1="47" y1="99.9" x2="47" y2="94.4"/>
	<line class="map-st13" x1="45.8" y1="99.9" x2="45.8" y2="94.4"/>
	<line class="map-st13" x1="44.5" y1="99.9" x2="44.5" y2="94.4"/>
	<line class="map-st13" x1="43.2" y1="99.9" x2="43.2" y2="94.4"/>
	<line class="map-st13" x1="41.9" y1="99.9" x2="41.9" y2="94.4"/>
	<line class="map-st13" x1="40.6" y1="99.9" x2="40.6" y2="94.4"/>
	<line class="map-st13" x1="39.3" y1="99.9" x2="39.3" y2="94.4"/>
	<line class="map-st13" x1="49.6" y1="91.3" x2="49.6" y2="85.9"/>
	<line class="map-st13" x1="48.3" y1="91.3" x2="48.3" y2="85.9"/>
	<line class="map-st13" x1="47" y1="91.3" x2="47" y2="85.9"/>
	<line class="map-st13" x1="45.8" y1="91.3" x2="45.8" y2="85.9"/>
	<line class="map-st13" x1="44.5" y1="91.3" x2="44.5" y2="85.9"/>
	<line class="map-st13" x1="43.2" y1="91.3" x2="43.2" y2="85.9"/>
	<line class="map-st13" x1="41.9" y1="91.3" x2="41.9" y2="85.9"/>
	<line class="map-st13" x1="40.6" y1="91.3" x2="40.6" y2="85.9"/>
	<line class="map-st13" x1="39.3" y1="91.3" x2="39.3" y2="85.9"/>
	<rect x="38.5" y="357.8" class="map-st11" width="13" height="2.5"/>
	<line class="map-st13" x1="50.9" y1="352.3" x2="50.9" y2="357.8"/>
	<line class="map-st13" x1="49.6" y1="352.3" x2="49.6" y2="357.8"/>
	<line class="map-st13" x1="48.3" y1="352.3" x2="48.3" y2="357.8"/>
	<line class="map-st13" x1="47" y1="352.3" x2="47" y2="357.8"/>
	<line class="map-st13" x1="45.8" y1="352.3" x2="45.8" y2="357.8"/>
	<line class="map-st13" x1="44.5" y1="352.3" x2="44.5" y2="357.8"/>
	<line class="map-st13" x1="43.2" y1="352.3" x2="43.2" y2="357.8"/>
	<line class="map-st13" x1="41.9" y1="352.3" x2="41.9" y2="357.8"/>
	<line class="map-st13" x1="40.6" y1="352.3" x2="40.6" y2="357.8"/>
	<line class="map-st13" x1="39.3" y1="352.3" x2="39.3" y2="357.8"/>
	<line class="map-st13" x1="49.6" y1="360.9" x2="49.6" y2="366.3"/>
	<line class="map-st13" x1="48.3" y1="360.9" x2="48.3" y2="366.3"/>
	<line class="map-st13" x1="47" y1="360.9" x2="47" y2="366.3"/>
	<line class="map-st13" x1="45.8" y1="360.9" x2="45.8" y2="366.3"/>
	<line class="map-st13" x1="44.5" y1="360.9" x2="44.5" y2="366.3"/>
	<line class="map-st13" x1="43.2" y1="360.9" x2="43.2" y2="366.3"/>
	<line class="map-st13" x1="41.9" y1="360.9" x2="41.9" y2="366.3"/>
	<line class="map-st13" x1="40.6" y1="360.9" x2="40.6" y2="366.3"/>
	<line class="map-st13" x1="39.3" y1="360.9" x2="39.3" y2="366.3"/>
	<line class="map-st11" x1="221" y1="337.5" x2="531.5" y2="337.5"/>
	<polyline class="map-st11" points="221,352.5 531.8,352.5 531.5,158.9 237.8,158.9 237.8,337.5 	"/>
	<polyline class="map-st11" points="237.8,158.9 221,158.9 221,354.4 256,354.4 256,352.5 	"/>
	<polyline class="map-st11" points="605.3,129.5 591.7,129.5 576,145.2 576,158.6 	"/>
	<line class="map-st11" x1="221" y1="324.4" x2="237.7" y2="324.4"/>
	<line class="map-st11" x1="229.5" y1="344.8" x2="248.2" y2="344.8"/>
	<line class="map-st13" x1="248" y1="352" x2="248" y2="345.4"/>
	<line class="map-st13" x1="246.7" y1="352" x2="246.7" y2="345.4"/>
	<line class="map-st13" x1="245.4" y1="352" x2="245.4" y2="345.4"/>
	<line class="map-st13" x1="244.2" y1="352" x2="244.2" y2="345.4"/>
	<line class="map-st13" x1="242.9" y1="352" x2="242.9" y2="345.4"/>
	<line class="map-st13" x1="241.6" y1="352" x2="241.6" y2="345.4"/>
	<line class="map-st13" x1="240.3" y1="352" x2="240.3" y2="345.4"/>
	<line class="map-st13" x1="239.1" y1="352" x2="239.1" y2="345.4"/>
	<line class="map-st13" x1="237.8" y1="352" x2="237.8" y2="345.4"/>
	<line class="map-st13" x1="236.5" y1="352" x2="236.5" y2="345.4"/>
	<line class="map-st13" x1="235.3" y1="352" x2="235.3" y2="345.4"/>
	<line class="map-st13" x1="234" y1="352" x2="234" y2="345.4"/>
	<line class="map-st13" x1="232.8" y1="352" x2="232.8" y2="345.4"/>
	<line class="map-st13" x1="231.5" y1="352" x2="231.5" y2="345.4"/>
	<line class="map-st13" x1="230.2" y1="352" x2="230.2" y2="345.4"/>
	<line class="map-st13" x1="248" y1="344.3" x2="248" y2="338.2"/>
	<line class="map-st13" x1="246.7" y1="344.3" x2="246.7" y2="338.2"/>
	<line class="map-st13" x1="245.4" y1="344.3" x2="245.4" y2="338.2"/>
	<line class="map-st13" x1="244.2" y1="344.3" x2="244.2" y2="338.2"/>
	<polygon class="map-st4" points="239.5,289.9 237.7,291.6 237.5,291.4 239.4,289.6 	"/>
	<polygon class="map-st4" points="240.6,292.8 237.6,295.8 237.4,295.6 240.4,292.5 	"/>
	<polygon class="map-st4" points="241.9,295.5 237.6,299.9 237.4,299.6 241.8,295.3 	"/>
	
		<rect x="518.4" y="332.1" transform="matrix(0.7071 -0.7071 0.7071 0.7071 -80.8676 469.282)" class="map-st4" width="15.3" height="0.3"/>
	
		<rect x="523.6" y="334" transform="matrix(0.7071 -0.7071 0.7071 0.7071 -81.5761 471.3627)" class="map-st4" width="9.2" height="0.3"/>
	
		<rect x="528.3" y="336.1" transform="matrix(0.7071 -0.7071 0.7071 0.7071 -82.5018 473.3623)" class="map-st4" width="3.7" height="0.3"/>
	
		<rect x="256.1" y="336.2" transform="matrix(0.7071 -0.7071 0.7071 0.7071 -162.4087 280.6812)" class="map-st4" width="3" height="0.3"/>
	
		<rect x="528.5" y="196" transform="matrix(0.7071 -0.7071 0.7071 0.7071 16.6131 432.3789)" class="map-st4" width="3.4" height="0.3"/>
	<polygon class="map-st4" points="507.1,158.7 501.6,164.2 501.4,164 506.8,158.6 	"/>
	<polyline class="map-st11" points="221,352.5 531.8,352.5 531.5,158.9 237.8,158.9 237.8,337.5 531.5,337.5 	"/>
</g>
</svg>
