<svg xmlns="http://www.w3.org/2000/svg" viewBox="0 0 15.03 12.51">
	<defs>
		<style>.twitter-cls-1{fill:#32553b;}</style>
	</defs>
	<title>svg_twitter</title>
	<path class="twitter-cls-1" d="M14.79,1.45a6,6,0,0,1-1,.35A3.23,3.23,0,0,0,14.61.45h0a.17.17,0,0,0-.25-.2h0A6,6,0,0,1,12.78.9h-.1A.42.42,0,0,1,12.4.81,3.24,3.24,0,0,0,10.26,0a3.47,3.47,0,0,0-1,.16A3.14,3.14,0,0,0,7.11,2.42,3.46,3.46,0,0,0,7,3.61a.12.12,0,0,1,0,.09.12.12,0,0,1-.09,0h0A8.5,8.5,0,0,1,1.07.62h0a.17.17,0,0,0-.28,0h0a3.24,3.24,0,0,0,.53,3.94A2.9,2.9,0,0,1,.58,4.3h0a.17.17,0,0,0-.25.15h0a3.25,3.25,0,0,0,1.89,3H2.15a2.92,2.92,0,0,1-.55-.05h0a.17.17,0,0,0-.19.22h0A3.25,3.25,0,0,0,4,9.81a6,6,0,0,1-3.35,1H.25A.25.25,0,0,0,0,11a.26.26,0,0,0,.12.28A8.9,8.9,0,0,0,4.6,12.51a9,9,0,0,0,3.82-.81,8.44,8.44,0,0,0,2.8-2.09,9.18,9.18,0,0,0,1.71-2.87,9.05,9.05,0,0,0,.58-3.14v0a.55.55,0,0,1,.21-.43A6.41,6.41,0,0,0,15,1.7h0a.17.17,0,0,0-.21-.25Z"/>
</svg>