<svg xmlns="http://www.w3.org/2000/svg" viewBox="0 0 19.71 20.07">
	<defs>
		<style>.house-cls-1{fill:#b7b7b7;}</style>
	</defs>
	<title>svg_house</title>
	<path class="house-cls-1" d="M9.89,0l0,0L0,4.65l0,0V7l.92-.43v8H18.81v-8l.9.43V4.67Zm-7,12.51V5.58L9.86,2.3l6.93,3.32v6.91Z"/>
	<rect class="house-cls-1" x="6.04" y="5.75" width="7.61" height="2.16"/>
	<rect class="house-cls-1" x="6.04" y="8.92" width="7.61" height="2.11"/>
	<path class="house-cls-1" d="M5.75,17.42h.57l.13.31h.34L6.16,16.2H5.91l-.64,1.53h.34ZM6,16.64H6l.2.54H5.84Z"/>
	<polygon class="house-cls-1" points="1.95 16.5 1.95 16.5 1.96 16.24 1.11 16.24 1.11 17.73 1.95 17.73 1.95 17.48 1.43 17.48 1.43 17.08 1.94 17.08 1.94 16.82 1.43 16.82 1.43 16.5 1.95 16.5"/>
	<path class="house-cls-1" d="M3.46,17.8l.32,0-.22-.24A.82.82,0,0,0,3.75,17a.79.79,0,0,0-.81-.78.78.78,0,1,0,0,1.57.8.8,0,0,0,.41-.1Zm-.29-.66-.33,0,.27.28a.38.38,0,0,1-.17,0A.47.47,0,0,1,2.46,17a.48.48,0,1,1,1,0,.48.48,0,0,1-.1.31Z"/>
	<path class="house-cls-1" d="M7,18.51a.78.78,0,1,0,.81.78A.79.79,0,0,0,7,18.51Zm0,1.28a.53.53,0,0,1-.48-.51A.49.49,0,0,1,7,18.79H7a.49.49,0,0,1,.48.48A.53.53,0,0,1,7,19.79Z"/>
	<polygon class="house-cls-1" points="1.84 20.07 1.84 20.07 1.84 20.07 1.84 20.07"/>
	<path class="house-cls-1" d="M5.15,17.13v-.89H4.83v.83c0,.18,0,.44-.29.44s-.29-.26-.29-.44v-.83H3.93v.89a.56.56,0,0,0,.61.64A.56.56,0,0,0,5.15,17.13Z"/>
	<path class="house-cls-1" d="M5.19,18.55H4.76V20h.32v-.56h.16c.33,0,.52-.15.52-.47S5.53,18.55,5.19,18.55Zm0,.69H5.08v-.45h.06c.18,0,.3,0,.3.22S5.33,19.24,5.14,19.24Z"/>
	<path class="house-cls-1" d="M1.84,18.51a.78.78,0,1,0,0,1.57.78.78,0,1,0,0-1.57Zm0,1.28a.53.53,0,0,1-.48-.51.48.48,0,1,1,1,0A.53.53,0,0,1,1.84,19.79Z"/>
	<path class="house-cls-1" d="M3.64,18.55H3.21V20h.32v-.56h.16c.33,0,.52-.15.52-.47S4,18.55,3.64,18.55Zm-.05.69H3.53v-.45h.06c.18,0,.3,0,.3.22S3.78,19.24,3.59,19.24Z"/>
	<polygon class="house-cls-1" points="16.98 17.76 16.98 16.24 16.66 16.24 16.66 17.25 16.65 17.25 15.79 16.2 15.56 16.2 15.56 17.73 15.88 17.73 15.88 16.72 15.89 16.72 16.75 17.76 16.98 17.76"/>
	<rect class="house-cls-1" x="15.24" y="18.55" width="0.32" height="1.49"/>
	<rect class="house-cls-1" x="14.97" y="16.24" width="0.32" height="1.49"/>
	<path class="house-cls-1" d="M14.12,16.62a.19.19,0,0,1,.2-.17.3.3,0,0,1,.25.12l.15-.2h0a.71.71,0,0,0-.45-.17.46.46,0,0,0-.48.45c0,.23.15.33.36.41s.28.09.28.24a.21.21,0,0,1-.21.22.33.33,0,0,1-.3-.22l-.21.18a.59.59,0,0,0,.5.29.49.49,0,0,0,.54-.51C14.77,16.76,14.12,16.87,14.12,16.62Z"/>
	<path class="house-cls-1" d="M18.69,17v0H18v.24h.35a.37.37,0,0,1-.37.34A.48.48,0,0,1,17.5,17a.49.49,0,0,1,.46-.53.42.42,0,0,1,.37.24l.28-.14A.72.72,0,0,0,18,16.2a.77.77,0,0,0-.8.79.76.76,0,0,0,.78.78A.72.72,0,0,0,18.69,17Z"/>
	<polygon class="house-cls-1" points="6.92 16.24 6.92 17.73 7.69 17.73 7.69 17.48 7.24 17.48 7.24 16.24 6.92 16.24"/>
	<polygon class="house-cls-1" points="16.08 18.8 16.41 18.8 16.41 20.04 16.73 20.04 16.73 18.8 16.73 18.8 17.06 18.8 17.06 18.55 16.08 18.55 16.08 18.8"/>
	<polygon class="house-cls-1" points="14.29 19.55 14.28 19.55 13.42 18.51 13.19 18.51 13.19 20.04 13.19 20.04 13.51 20.04 13.51 19.02 13.52 19.02 14.38 20.07 14.61 20.07 14.61 18.55 14.29 18.55 14.29 19.55"/>
	<polygon class="house-cls-1" points="18.08 19.06 17.8 18.55 17.43 18.55 17.93 19.35 17.93 20.04 18.25 20.04 18.25 19.35 18.77 18.55 18.4 18.55 18.08 19.06"/>
	<polygon class="house-cls-1" points="9.09 16.24 9.09 17.73 9.4 17.73 9.4 17.07 9.99 17.07 9.99 17.73 10.31 17.73 10.31 16.24 9.99 16.24 9.99 16.83 9.4 16.83 9.4 16.24 9.09 16.24"/>
	<polygon class="house-cls-1" points="9.86 18.8 10.19 18.8 10.19 20.04 10.51 20.04 10.51 18.8 10.84 18.8 10.84 18.55 9.86 18.55 9.86 18.8"/>
	<path class="house-cls-1" d="M13.53,17.13v-.89h-.32v.83c0,.18,0,.44-.29.44s-.29-.26-.29-.44v-.83h-.32v.89h0a.61.61,0,1,0,1.22,0Z"/>
	<path class="house-cls-1" d="M9.05,19.41A.4.4,0,0,0,9.38,19c0-.32-.22-.45-.55-.45H8.4V20h.32v-.6h0l.4.6h.39l-.46-.63Zm-.28-.18h0v-.45h0c.17,0,.3,0,.3.22S8.94,19.23,8.77,19.23Z"/>
	<path class="house-cls-1" d="M12.24,19.38c0,.18,0,.44-.29.44s-.29-.26-.29-.44v-.83h-.32v.89a.61.61,0,1,0,1.22,0v-.89h-.32Z"/>
	<path class="house-cls-1" d="M12.13,17a.81.81,0,1,0-.81.79A.79.79,0,0,0,12.13,17Zm-.81.5a.53.53,0,0,1-.48-.51.48.48,0,1,1,1,0A.53.53,0,0,1,11.32,17.49Z"/>
	<polygon class="house-cls-1" points="11.32 17.77 11.32 17.77 11.32 17.77 11.32 17.77"/>
</svg>