<svg xmlns="http://www.w3.org/2000/svg" viewBox="0 0 15.65 20.04">
	<defs>
		<style>.wheelchair-cls-1{fill:#b7b7b7;}</style>
	</defs>
	<title>svg_wheelchair</title>
	<path class="wheelchair-cls-1" d="M15.31,9.08a1.19,1.19,0,0,0-.92-.36L10.24,9l2.28-2.6a1.4,1.4,0,0,0,.29-1.31,1.19,1.19,0,0,0-.53-.75L6.83,1.12a1.19,1.19,0,0,0-1.39.14L2.78,3.64A1.19,1.19,0,1,0,4.36,5.42l2-1.8L8,4.59,5.1,7.94A6.07,6.07,0,0,0,1.92,9.51l1.54,1.54A3.91,3.91,0,0,1,9,16.58l1.54,1.54a6.09,6.09,0,0,0,1-6.85l1.61-.09L12.77,16a1.19,1.19,0,0,0,1.09,1.28H14a1.19,1.19,0,0,0,1.19-1.09l.5-6.15A1.19,1.19,0,0,0,15.31,9.08Z"/>
	<path class="wheelchair-cls-1" d="M13.11,4a2,2,0,1,0-2-2A2,2,0,0,0,13.11,4Z"/>
	<path class="wheelchair-cls-1" d="M6.09,17.86a3.91,3.91,0,0,1-3.24-6.11L1.29,10.2a6.09,6.09,0,0,0,8.54,8.54L8.28,17.19A3.89,3.89,0,0,1,6.09,17.86Z"/>
</svg>