<svg xmlns="http://www.w3.org/2000/svg" viewBox="0 0 12.97 12.97">
	<defs>
		<style>.instagram-cls-1{fill:#32553b;}</style>
	</defs>
	<title>svg_instagram</title>
	<path class="instagram-cls-1" d="M9.1,0H3.86A3.87,3.87,0,0,0,0,3.86V9.1A3.87,3.87,0,0,0,3.86,13H9.1A3.87,3.87,0,0,0,13,9.1V3.86A3.87,3.87,0,0,0,9.1,0Zm2.56,9.1A2.56,2.56,0,0,1,9.1,11.66H3.86A2.56,2.56,0,0,1,1.3,9.1V3.86A2.56,2.56,0,0,1,3.86,1.3H9.1a2.56,2.56,0,0,1,2.56,2.56V9.1Z"/>
	<path class="instagram-cls-1" d="M6.48,3.13A3.35,3.35,0,1,0,9.84,6.48,3.36,3.36,0,0,0,6.48,3.13Zm0,5.4a2,2,0,1,1,2-2A2,2,0,0,1,6.48,8.53Z"/>
	<circle class="instagram-cls-1" cx="9.84" cy="3.15" r="0.8"/>
</svg>