<svg xmlns="http://www.w3.org/2000/svg" viewBox="0 0 116.89 118.9">
	<defs>
		<style>.logo-cls-1{fill:#32553b;}</style>
	</defs>
	<title>svg_logo</title>
	<path class="logo-cls-1" d="M3,55.1l-.34,4L0,58.88.93,48l2.67.23-.34,4,10.49.9L13.5,56Z"/>
	<path class="logo-cls-1" d="M3.22,39.21l1.21-2.64,4.75,2.18,2.24-4.87L6.67,31.7l1.21-2.64,12,5.52-1.21,2.64L13.85,35l-2.24,4.87,4.82,2.22-1.21,2.64Z"/>
	<path class="logo-cls-1" d="M13.71,20.9l7-7.09,1.84,1.82-5,5,1.91,1.88,4.38-4.43,1.84,1.82-4.38,4.43,2,1.95,5-5.1L30.18,23l-7.07,7.15Z"/>
	<path class="logo-cls-1" d="M39.38,10.08v0a6.78,6.78,0,0,1,5-8.34,7.25,7.25,0,0,1,5.47.46L48.62,4.76a4.86,4.86,0,0,0-3.68-.44A4,4,0,0,0,42.3,9.25v0a4,4,0,0,0,4.92,3.06,4.64,4.64,0,0,0,2.45-1.45l-.47-1.83-2.83.73-.63-2.43L51.3,5.94l1.43,5.55a8.57,8.57,0,0,1-4.94,3.43A6.61,6.61,0,0,1,39.38,10.08Z"/>
	<path class="logo-cls-1" d="M59.67,0l6,.66a5.26,5.26,0,0,1,3.68,1.75,4.15,4.15,0,0,1,.8,3.12v0a4.1,4.1,0,0,1-3.26,3.76l2.69,5L66.2,14,63.85,9.49l-2.27-.25-.46,4.2-2.89-.32Zm5.11,7c1.41.16,2.29-.51,2.42-1.61v0c.14-1.24-.66-2-2.06-2.13l-2.87-.31-.41,3.77Z"/>
	<path class="logo-cls-1" d="M79.65,4l9,4.36-1.13,2.32L81.11,7.59,79.94,10l5.59,2.72L84.41,15l-5.6-2.72L77.6,14.81,84,17.95l-1.13,2.32-9-4.4Z"/>
	<path class="logo-cls-1" d="M96.19,13.86l7.05,7-1.82,1.83-5-5-1.89,1.9L98.93,24,97.1,25.85l-4.41-4.4-2,2,5.07,5.06L94,30.31l-7.12-7.1Z"/>
	<path class="logo-cls-1" d="M108.84,28.67,110,31.1l-4.78,9,7.38-3.42,1.21,2.6-12,5.55-1-2.24,4.93-9.33-7.62,3.53-1.21-2.6Z"/>
	<path class="logo-cls-1" d="M116.11,49.13l.78,9.93-2.58.2-.55-7.05-2.67.21.48,6.2-2.58.2-.48-6.2-2.76.22.56,7.14-2.58.2-.78-10Z"/>
	<path class="logo-cls-1" d="M6.79,81.77l4.7-2.54,1,1.81L7.82,83.55c-1.34.72-1.67,1.77-1.07,2.87s1.63,1.41,2.93.71l4.71-2.55,1,1.81-4.64,2.51c-2.49,1.35-4.47.61-5.67-1.6S4.37,83.08,6.79,81.77Z"/>
	<path class="logo-cls-1" d="M17.51,89.4l2.82,3.21a3.72,3.72,0,0,1,1.08,2.67,2.93,2.93,0,0,1-1.08,2l0,0a2.9,2.9,0,0,1-3.5.4l-1,3.92-1.59-1.81.93-3.48-1.06-1.22-2.25,2-1.36-1.55Zm-.69,6.11a1.36,1.36,0,0,0,2,.31l0,0c.66-.58.6-1.34-.06-2.1l-1.35-1.54-2,1.77Z"/>
	<path class="logo-cls-1" d="M25.25,97.57l3.5,2.57a3.38,3.38,0,0,1,1.48,2.12,2.15,2.15,0,0,1-.42,1.66l0,0a2.18,2.18,0,0,1-2.19.9,2.29,2.29,0,0,1,.05,2.89l0,0c-1,1.38-2.64,1.25-4.34,0l-3.59-2.63Zm.28,7-1.92-1.41-1.22,1.66,2,1.45c.73.54,1.37.6,1.78,0l0,0C26.53,105.82,26.38,105.23,25.53,104.6ZM28,103c.36-.5.18-1.06-.52-1.57l-1.64-1.2-1.17,1.6,1.53,1.12c.73.54,1.37.64,1.78.08Z"/>
	<path class="logo-cls-1" d="M37.46,105.11l1.74.75,0,10.24-2-.85,0-2.27-3.63-1.57L32,113,30,112.17ZM37.27,111l.06-3.28L35,110Z"/>
	<path class="logo-cls-1" d="M45.76,108.26l1.87.32L51,115l1-5.68,2,.34-1.58,9.22-1.73-.3L47.19,112l-1,5.86-2-.34Z"/>
	<path class="logo-cls-1" d="M63.79,109.52l2-.33L67,116.58l4.6-.74.3,1.85-6.64,1.07Z"/>
	<path class="logo-cls-1" d="M73.7,107.42l2-.64,2.93,8.89-2,.64Z"/>
	<path class="logo-cls-1" d="M78.79,105.78l2-1.08,5.29,4.63-1-7,2-1.06L88.2,111.4l-1.6.86Z"/>
	<path class="logo-cls-1" d="M89.6,99.25,91.21,98,97,105.3l-1.61,1.28Z"/>
	<path class="logo-cls-1" d="M94.34,95.37l1.25-1.43,7.22.5-4.33-3.79,1.34-1.53,7,6.16-1.15,1.32-7.46-.51,4.47,3.92-1.34,1.53Z"/>
	<path class="logo-cls-1" d="M105.95,88.54h0a4.8,4.8,0,0,1-2-6.59,5.13,5.13,0,0,1,2.85-2.65l.78,1.88a3.44,3.44,0,0,0-2,1.72,2.81,2.81,0,0,0,1.32,3.74h0a2.8,2.8,0,0,0,3.94-1.12,3.28,3.28,0,0,0,.41-2l-1.18-.62-1,1.83-1.57-.83,1.9-3.59,3.59,1.9a6.07,6.07,0,0,1-.56,4.22A4.68,4.68,0,0,1,105.95,88.54Z"/>
	<circle class="logo-cls-1" cx="113.18" cy="70.48" r="1.72"/>
	<circle class="logo-cls-1" cx="4.29" cy="70.48" r="1.72"/>
	<path class="logo-cls-1" d="M60.26,58.41c6.18-.8,6.55-6.32,8.9-10.78L65,47,63.51,37.5a15.48,15.48,0,0,0-8.87,8.74l-2.32-1.14c-2.95,6.44-1,11.61,4.84,13.42.06,0,.33,5.78-.27,6s-1.14-.81-1.48-1.16c-.58-.6-1.37-1.15-1.54-2a9.18,9.18,0,0,0-4.21-6c-2.26-1.41-4.88-2.82-7.67-2.72-.05,1.17,0,2.33.07,3.5.07,1.35,0,3.27.53,4.46a16.66,16.66,0,0,0,2.56,3.86c2.17,2.43,5.08,1.53,8.26-.21.42.08,3.76-.21,4.06,14.08.08,4,0,11.91,0,15.92h2.37S59.48,60.27,60.26,58.41Zm-9.85,4.06c-.73,1.3-2.2,1.11-3.34.29-2.54-1.83-2.68-7.66-2.48-7.84a54.93,54.93,0,0,1,5.61,4.45A3.33,3.33,0,0,1,50.41,62.46ZM64.68,50.2c-.17,2.81-1.21,4.3-3.74,5.17C60.22,51.4,60.7,50.78,64.68,50.2ZM61.25,42c1.86,4.43.94,7.25-2.47,7.82C56.32,47.59,57.5,44.08,61.25,42Zm-6.05,12.9c-1.56-.94-1.86-3.25-.49-5.93a37.88,37.88,0,0,1,2.92,3.88c.32.56,0,1.48,0,2.23C56.82,55,55.82,55.25,55.19,54.87Z"/>
	<path class="logo-cls-1" d="M53,71.63c-1.85-2-4.3-2.75-6.42-4.39A7,7,0,0,0,42.79,66a11,11,0,0,0-8.41,3.44c2,1.36,3.26,2.86,5.71,3.88,3.72,1.54,5.54,1.37,8.63-1.1,2.92.4,4.08,3.62,4.11,6.84V90.27H55.2c0-3.37,0-7.09,0-10.46C55.19,77,55,73.71,53,71.63ZM43.2,72c-1.37-.6-6-2.46-5.89-2.83,4.21-1.38,5.34-.72,6.83-.35a2.89,2.89,0,0,1,1.63,2.29C45.64,72.6,44.23,72.47,43.2,72Z"/>
	<path class="logo-cls-1" d="M61.87,70.61c0,3.37,0,16.29,0,19.66l2.83-.06V69.68c0-3.21.88-6.74,3.81-7.13,3.09,2.47,5,3.09,8.46,1,1.91-1.17,3.72-2.51,5.71-3.88a11.05,11.05,0,0,0-8.41-3.44,7,7,0,0,0-3.81,1.21c-2.13,1.64-3.92,1.8-5.77,3.75S61.87,67.78,61.87,70.61Zm9.42-9.31A2.89,2.89,0,0,1,72.92,59c1.48-.36,2.62-1,6.83.35.06.37-4.53,2.23-5.89,2.83C72.83,62.64,71.42,62.77,71.29,61.3Z"/>
	<path class="logo-cls-1" d="M47.58,42.41a3.83,3.83,0,0,0,2.75-4.21,7.53,7.53,0,0,0-1.72-3.85c-2.22-2.47-5.14-3.55-9.4-3.36,1.32,3.58,2.27,6.77,3.68,9.75A3.52,3.52,0,0,0,47.58,42.41Zm-.72-6.34c.64.8,1.43,2.94.09,3.51-2.7,1.14-3.6-4.15-4.16-5.68A7,7,0,0,1,46.86,36.07Z"/>
	<path class="logo-cls-1" d="M75.84,70.44a3.2,3.2,0,0,0-3.51-2.3,6.31,6.31,0,0,0-3.21,1.43c-2.06,1.84-3,4.28-2.8,7.83,3-1.1,5.65-1.89,8.13-3.07A2.94,2.94,0,0,0,75.84,70.44Zm-5.28.6c.67-.53,2.45-1.19,2.93-.07.95,2.25-3.46,3-4.74,3.47A5.8,5.8,0,0,1,70.56,71Z"/>
</svg>