<?xml version="1.0" encoding="utf-8"?>
<!-- Generator: Adobe Illustrator 21.1.0, SVG Export Plug-In . SVG Version: 6.00 Build 0)  -->
<svg version="1.1" id="Layer_1" xmlns="http://www.w3.org/2000/svg" xmlns:xlink="http://www.w3.org/1999/xlink" x="0px" y="0px"
	 viewBox="0 0 558.3 558.3" style="enable-background:new 0 0 558.3 558.3;" xml:space="preserve">
<style type="text/css">
	.fp-broad-st0{fill:none;stroke:#A6A8AB;stroke-width:0.27;stroke-miterlimit:10;}
	.fp-broad-st1{fill:#E4E9E4;}
	.fp-broad-st2{fill:#E4E9E4;stroke:#32553B;stroke-width:0.27;stroke-miterlimit:10;}
	.fp-broad-st3{fill:none;stroke:#32553B;stroke-width:0.27;stroke-miterlimit:10;}
	.fp-broad-st4{fill:none;stroke:#799900;stroke-width:0.16;stroke-miterlimit:10;}
	.fp-broad-st5{fill:#FFFFFF;stroke:#62A044;stroke-width:0.16;stroke-miterlimit:10;}
	.fp-broad-st6{fill:#F5F7F5;}
	.fp-broad-st7{enable-background:new    ;}
	.fp-broad-st8{fill:#32553B;}
	.fp-broad-st9{fill:#E4E9E4;stroke:#32553B;stroke-width:0.24;stroke-miterlimit:10;}
	.fp-broad-st10{fill:#C8D0C9;stroke:#32553B;stroke-width:0.27;stroke-miterlimit:10;}
	.fp-broad-st11{fill:#C8D0C9;stroke:#32553B;stroke-width:0.24;stroke-miterlimit:10;}
	.fp-broad-st12{fill:#C8D0C9;stroke:#32553B;stroke-width:0.21;stroke-miterlimit:10;}
	.fp-broad-st13{fill:none;stroke:#32553B;stroke-width:7.59;stroke-linejoin:round;}
	.fp-broad-st14{fill:none;stroke:#E4E9E4;stroke-width:7.59;stroke-linejoin:round;}
	.fp-broad-st15{fill:none;stroke:#32553B;stroke-width:4.33;stroke-miterlimit:10;}
	.fp-broad-st16{fill:none;stroke:#32553B;stroke-width:0.24;stroke-miterlimit:10;}
	.fp-broad-st17{fill:#FFFFFF;stroke:#62A044;stroke-width:0.3;stroke-miterlimit:10;}
	.fp-broad-st18{fill:none;stroke:#799900;stroke-width:0.3;stroke-miterlimit:10;}
	.fp-broad-st19{fill:none;stroke:#32553B;stroke-width:0.84;stroke-miterlimit:10;}
	.fp-broad-st20{fill:#FFFFFF;stroke:#62A044;stroke-width:0.13;stroke-miterlimit:10;}
	.fp-broad-st21{fill:none;stroke:#799900;stroke-width:0.13;stroke-miterlimit:10;}
	.fp-broad-st22{fill:#C8D0C9;stroke:#32553B;stroke-width:0.2;stroke-miterlimit:10;}
	.fp-broad-st23{fill:none;stroke:#32553B;stroke-width:0.21;stroke-miterlimit:10;}
	.fp-broad-st24{fill:none;stroke:#F5F7F5;stroke-miterlimit:10;}
</style>
<title>fp_broad</title>
<g id="Layer_2">
	<g id="DESIGN">
		<line class="fp-broad-st0" x1="332.3" y1="116.7" x2="443.8" y2="116.7"/>
		<line class="fp-broad-st0" x1="113.9" y1="130.9" x2="443.8" y2="130.9"/>
		<line class="fp-broad-st0" x1="113.9" y1="145.1" x2="443.8" y2="145.1"/>
		<line class="fp-broad-st0" x1="113.9" y1="159.4" x2="443.8" y2="159.4"/>
		<line class="fp-broad-st0" x1="113.9" y1="173.6" x2="443.8" y2="173.6"/>
		<line class="fp-broad-st0" x1="113.9" y1="187.8" x2="443.8" y2="187.8"/>
		<line class="fp-broad-st0" x1="113.9" y1="202.1" x2="443.8" y2="202.1"/>
		<line class="fp-broad-st0" x1="113.9" y1="216.3" x2="443.8" y2="216.3"/>
		<line class="fp-broad-st0" x1="113.9" y1="230.5" x2="424.5" y2="230.5"/>
		<line class="fp-broad-st0" x1="113.9" y1="244.7" x2="424.5" y2="244.7"/>
		<line class="fp-broad-st0" x1="113.9" y1="259" x2="424.5" y2="259"/>
		<line class="fp-broad-st0" x1="113.9" y1="273.2" x2="424.5" y2="273.2"/>
		<line class="fp-broad-st0" x1="113.9" y1="287.4" x2="424.5" y2="287.4"/>
		<line class="fp-broad-st0" x1="113.9" y1="301.6" x2="424.5" y2="301.6"/>
		<line class="fp-broad-st0" x1="113.9" y1="315.9" x2="424.5" y2="315.9"/>
		<line class="fp-broad-st0" x1="113.9" y1="330.1" x2="424.5" y2="330.1"/>
		<line class="fp-broad-st0" x1="113.9" y1="344.3" x2="424.5" y2="344.3"/>
		<line class="fp-broad-st0" x1="113.9" y1="358.5" x2="424.5" y2="358.5"/>
		<line class="fp-broad-st0" x1="113.9" y1="372.8" x2="424.5" y2="372.8"/>
		<line class="fp-broad-st0" x1="113.9" y1="387" x2="424.5" y2="387"/>
		<line class="fp-broad-st0" x1="113.9" y1="401.2" x2="424.5" y2="401.2"/>
		<line class="fp-broad-st0" x1="113.9" y1="415.5" x2="424.5" y2="415.5"/>
		<line class="fp-broad-st0" x1="113.9" y1="429.7" x2="424.5" y2="429.7"/>
		<line class="fp-broad-st0" x1="113.9" y1="443.9" x2="424.5" y2="443.9"/>
		<polygon class="fp-broad-st1" points="318.4,337.3 318.4,315.7 291.4,288.7 243.6,336.5 267.9,361.3 268,361.3 268,397.2 318.3,397.2 
			318.3,451.1 424.1,451.1 424.1,337.3 		"/>
		<polygon class="fp-broad-st1" points="226,223.8 226,123.4 113.9,123.4 113.9,224.5 113.9,230.8 113.9,305.8 147.1,305.8 200.8,251.8 
			211.2,260.8 237.1,234.9 		"/>
		<rect x="346.2" y="316.5" class="fp-broad-st2" width="2.3" height="1.3"/>
		<rect x="362.5" y="316.5" class="fp-broad-st2" width="3.7" height="1.3"/>
		<line class="fp-broad-st3" x1="362.8" y1="319.5" x2="348" y2="319.5"/>
		<line class="fp-broad-st3" x1="362.5" y1="317.1" x2="348.5" y2="317.1"/>
		<polyline class="fp-broad-st3" points="362.8,317.8 362.8,334.3 348,334.3 348,317.8 		"/>
		<path class="fp-broad-st4" d="M362.4,315.7c-0.1-3.4-1.3-6.7-3.6-9.2"/>
		
			<rect x="346.6" y="310.8" transform="matrix(0.7071 -0.7071 0.7071 0.7071 -116.4588 341.162)" class="fp-broad-st5" width="14" height="0.8"/>
		<rect x="349" y="325.1" class="fp-broad-st6" width="12.9" height="4.6"/>
		<g class="fp-broad-st7">
			<path class="fp-broad-st8" d="M349.6,326.4h0.8c0.5,0,0.7,0.3,0.7,0.7v0c0,0.4-0.4,0.7-0.8,0.7h-0.4v0.6h-0.3V326.4z M350.3,327.4
				c0.3,0,0.4-0.1,0.4-0.4v0c0-0.2-0.2-0.4-0.4-0.4h-0.4v0.7H350.3z"/>
		</g>
		<g class="fp-broad-st7">
			<path class="fp-broad-st8" d="M352,326.4h0.3l0.9,2h-0.4l-0.2-0.5h-0.9l-0.2,0.5h-0.4L352,326.4z M352.5,327.6l-0.3-0.8l-0.3,0.8H352.5z"
				/>
			<path class="fp-broad-st8" d="M353.7,326.4h0.3l1.1,1.4v-1.4h0.3v2h-0.3l-1.1-1.4v1.4h-0.3V326.4z"/>
			<path class="fp-broad-st8" d="M356.5,326.7h-0.6v-0.3h1.6v0.3h-0.6v1.6h-0.3V326.7z"/>
		</g>
		<g class="fp-broad-st7">
			<path class="fp-broad-st8" d="M357.9,326.4h0.9c0.2,0,0.4,0.1,0.6,0.2c0.1,0.1,0.2,0.3,0.2,0.4v0c0,0.3-0.2,0.5-0.5,0.6l0.5,0.7h-0.4
				l-0.5-0.7h-0.4v0.7h-0.3V326.4z M358.8,327.3c0.2,0,0.4-0.1,0.4-0.3v0c0-0.2-0.2-0.3-0.4-0.3h-0.5v0.7H358.8z"/>
		</g>
		<g class="fp-broad-st7">
			<path class="fp-broad-st8" d="M360.6,327.6l-0.8-1.2h0.4l0.5,0.9l0.6-0.9h0.4l-0.8,1.2v0.8h-0.3V327.6z"/>
		</g>
		<rect x="327.6" y="240.4" class="fp-broad-st9" width="62.7" height="34.2"/>
		<rect x="363.2" y="316.4" class="fp-broad-st9" width="60.4" height="21.6"/>
		<polygon class="fp-broad-st10" points="381.9,315.8 381.9,315 405.7,315 405.7,336.7 381.9,336.7 		"/>
		<circle class="fp-broad-st10" cx="400.6" cy="328.2" r="3.5"/>
		<circle class="fp-broad-st10" cx="400.6" cy="319.8" r="2.8"/>
		<circle class="fp-broad-st10" cx="387.1" cy="319.8" r="2.3"/>
		<circle class="fp-broad-st10" cx="387.1" cy="328.2" r="2.3"/>
		<line class="fp-broad-st3" x1="405.7" y1="333" x2="381.9" y2="333"/>
		
			<rect x="168.8" y="270.4" transform="matrix(0.7071 -0.7071 0.7071 0.7071 -143.3924 212.8989)" class="fp-broad-st11" width="33" height="18.3"/>
		<rect x="257.3" y="433" class="fp-broad-st11" width="44.6" height="21"/>
		<polyline class="fp-broad-st12" points="164.4,288.2 167.4,291.1 153.2,305.3 150.3,302.3 		"/>
		<path class="fp-broad-st12" d="M170.3,302c-0.4-0.2-0.8-0.4-1.1-0.7l-1.8-1.8c-0.3-0.3-0.3-0.7-0.1-1.1c0,0,0,0,0.1-0.1l-6.9,6.9
			c0.3-0.3,0.7-0.3,1.1-0.1c0,0,0,0,0.1,0.1l1.8,1.8c0.3,0.3,0.6,0.7,0.7,1.1"/>
		
			<ellipse transform="matrix(0.7071 -0.7071 0.7071 0.7071 -168.1312 210.9012)" class="fp-broad-st12" cx="170.5" cy="308.4" rx="5.6" ry="7.6"/>
		
			<rect x="153.4" y="297.1" transform="matrix(0.7071 -0.7071 0.7071 0.7071 -164.5877 202.3372)" class="fp-broad-st12" width="17" height="5.5"/>
		<polyline class="fp-broad-st12" points="232.9,450.4 232.9,446.2 252.9,446.2 252.9,450.4 		"/>
		<path class="fp-broad-st12" d="M238.5,436.5c0.2,0.4,0.3,0.8,0.3,1.3v2.5c0,0.4-0.3,0.8-0.7,0.8c0,0-0.1,0-0.1,0h9.8
			c-0.4,0-0.8-0.3-0.8-0.7c0,0,0-0.1,0-0.1v-2.5c0-0.4,0.1-0.9,0.3-1.3"/>
		<ellipse class="fp-broad-st12" cx="242.9" cy="431.7" rx="5.6" ry="7.6"/>
		<rect x="234.4" y="441.1" class="fp-broad-st12" width="17" height="5.5"/>
		<rect x="199.7" y="397.6" class="fp-broad-st11" width="29.4" height="47.9"/>
		<path class="fp-broad-st11" d="M214.8,401.2c0,0-11.4-0.2-11.4,4.4v34.2c0,0-0.2,3.6,3.4,3.6h16.1c3.5,0,3.4-3.6,3.4-3.6v-34.2
			C226.2,401,214.8,401.2,214.8,401.2L214.8,401.2z"/>
		<path class="fp-broad-st11" d="M214.9,441.8c0.8,0,1.5,0.3,2.1,0.8l-2,2.3h-0.1l-2-2.3C213.4,442,214.2,441.8,214.9,441.8"/>
		<rect x="197.8" y="444" class="fp-broad-st8" width="32.8" height="7.6"/>
		<rect x="116.4" y="306.4" class="fp-broad-st11" width="29.4" height="47.9"/>
		<path class="fp-broad-st11" d="M131.4,310c0,0-11.4-0.2-11.4,4.3v34.2c0,0-0.2,3.6,3.4,3.6h16.1c3.5,0,3.4-3.6,3.4-3.6v-34.2
			C142.9,309.8,131.4,310,131.4,310L131.4,310z"/>
		<path class="fp-broad-st11" d="M131.5,350.5c0.8,0,1.5,0.3,2.1,0.8l-2,2.3h-0.1l-2-2.3C130,350.8,130.8,350.5,131.5,350.5"/>
		<rect x="114.4" y="352.8" class="fp-broad-st8" width="32.8" height="7.6"/>
		<polyline class="fp-broad-st13" points="133.3,123.4 113.9,123.4 113.9,451.1 152.5,451.1 		"/>
		<line class="fp-broad-st13" x1="242.1" y1="123.4" x2="208.1" y2="123.4"/>
		<polyline class="fp-broad-st13" points="351.3,104.9 332.3,104.9 332.3,123.4 316.9,123.4 		"/>
		<polyline class="fp-broad-st14" points="443.8,197.2 443.8,104.9 351.3,104.9 		"/>
		<polyline class="fp-broad-st13" points="424.1,233.8 424.1,214.1 443.8,214.1 443.8,197.2 		"/>
		<polyline class="fp-broad-st13" points="181.6,451.1 424.1,451.1 424.1,308.6 		"/>
		<polyline class="fp-broad-st15" points="226,124 226,223.2 265.2,262.5 		"/>
		<line class="fp-broad-st15" x1="268" y1="361" x2="268" y2="364.9"/>
		<line class="fp-broad-st15" x1="268" y1="392.4" x2="268" y2="397.3"/>
		<line class="fp-broad-st15" x1="285.9" y1="397.3" x2="199.3" y2="397.3"/>
		<polyline class="fp-broad-st15" points="314.1,397.3 318.4,397.3 318.4,451.7 		"/>
		<polyline class="fp-broad-st15" points="313.8,361 318.4,361 318.4,315.7 291.4,288.7 243.6,336.5 268,361 285.6,361 		"/>
		<line class="fp-broad-st15" x1="318.3" y1="337.3" x2="424.5" y2="337.3"/>
		<line class="fp-broad-st15" x1="233.5" y1="238.5" x2="237.4" y2="234.6"/>
		<line class="fp-broad-st15" x1="213.9" y1="258.1" x2="210.6" y2="261.4"/>
		<polyline class="fp-broad-st15" points="172,230.8 180.3,230.8 215.5,266.1 		"/>
		<line class="fp-broad-st15" x1="113.9" y1="230.8" x2="145.5" y2="230.8"/>
		<polyline class="fp-broad-st15" points="235.2,285.8 238,288.5 165.6,360.9 113.9,360.9 		"/>
		<line class="fp-broad-st15" x1="148" y1="365" x2="148" y2="360.8"/>
		<line class="fp-broad-st15" x1="148" y1="413" x2="148" y2="419.9"/>
		<line class="fp-broad-st15" x1="148" y1="416.3" x2="113.9" y2="416.3"/>
		<polyline class="fp-broad-st15" points="199.3,451.1 199.3,379.9 216.8,362.5 220.7,366.4 		"/>
		<line class="fp-broad-st15" x1="201.2" y1="378.1" x2="220.5" y2="397.4"/>
		<line class="fp-broad-st15" x1="234.8" y1="380.5" x2="251.8" y2="397.5"/>
		<line class="fp-broad-st15" x1="238.8" y1="384.5" x2="225.8" y2="397.5"/>
		
			<rect x="172.6" y="350.5" transform="matrix(0.7071 -0.7071 0.7071 0.7071 -197.3154 228.7025)" class="fp-broad-st8" width="9.7" height="4.1"/>
		
			<rect x="260.8" y="253.2" transform="matrix(0.7071 -0.7071 0.7071 0.7071 -105.4765 261.4399)" class="fp-broad-st8" width="4.1" height="9.7"/>
		
			<rect x="292.3" y="284.7" transform="matrix(0.7071 -0.7071 0.7071 0.7071 -118.5114 292.9073)" class="fp-broad-st8" width="4.1" height="9.7"/>
		
			<rect x="196" y="373.9" transform="matrix(0.7071 -0.7071 0.7071 0.7071 -207.0119 252.119)" class="fp-broad-st8" width="9.7" height="4.1"/>
		<polyline class="fp-broad-st15" points="113.9,305.8 146.8,305.8 200.8,251.8 		"/>
		<path class="fp-broad-st11" d="M274.2,434.9H285c1.2,0,2.2,1,2.2,2.2v7c0,1.2-1,2.2-2.2,2.2h-10.9c-1.2,0-2.2-1-2.2-2.2v-7
			C272,435.9,273,434.9,274.2,434.9z"/>
		<circle class="fp-broad-st11" cx="279.6" cy="442.2" r="1.3"/>
		<path class="fp-broad-st11" d="M190.8,284.2l-7.7,7.7c-0.9,0.9-2.2,0.9-3.1,0l-4.9-4.9c-0.9-0.9-0.9-2.2,0-3.1l7.7-7.7
			c0.9-0.9,2.2-0.9,3.1,0l4.9,4.9C191.6,281.9,191.6,283.3,190.8,284.2z"/>
		
			<ellipse transform="matrix(0.7071 -0.7071 0.7071 0.7071 -146.7573 211.377)" class="fp-broad-st11" cx="181.8" cy="282.8" rx="1.3" ry="1.3"/>
		<line class="fp-broad-st16" x1="327.6" y1="249.6" x2="390.2" y2="249.6"/>
		<path class="fp-broad-st10" d="M376.5,260.6v9.7c0,1.3-1,2.3-2.3,2.3h-17.5c-1.3,0-2.3-1-2.3-2.3v-9.7c0-1.3,1-2.3,2.3-2.3h17.5
			C375.5,258.3,376.5,259.4,376.5,260.6z"/>
		<circle class="fp-broad-st10" cx="365.5" cy="265.4" r="1.2"/>
		<line class="fp-broad-st14" x1="133.3" y1="123.4" x2="208.1" y2="123.4"/>
		<rect x="133.3" y="123.1" class="fp-broad-st8" width="74.8" height="0.7"/>
		<rect x="133.3" y="120.6" class="fp-broad-st8" width="74.8" height="0.7"/>
		<rect x="133.3" y="125.6" class="fp-broad-st8" width="74.8" height="0.7"/>
		<rect x="192.4" y="120.9" class="fp-broad-st8" width="0.7" height="5.1"/>
		<rect x="148.3" y="120.9" class="fp-broad-st8" width="0.7" height="5.1"/>
		<line class="fp-broad-st14" x1="242.1" y1="123.4" x2="316.9" y2="123.4"/>
		<rect x="242" y="123.1" class="fp-broad-st8" width="74.8" height="0.7"/>
		<polygon class="fp-broad-st8" points="350.7,104.5 350.7,105.2 443.5,105.2 443.5,197.2 444.2,197.2 444.2,104.5 		"/>
		<rect x="242" y="120.6" class="fp-broad-st8" width="74.8" height="0.7"/>
		<rect x="242" y="125.6" class="fp-broad-st8" width="74.8" height="0.7"/>
		<rect x="301.1" y="120.9" class="fp-broad-st8" width="0.7" height="5.1"/>
		<rect x="257.1" y="120.9" class="fp-broad-st8" width="0.7" height="5.1"/>
		<line class="fp-broad-st14" x1="424.1" y1="233.8" x2="424.1" y2="308.6"/>
		<rect x="423.7" y="233.8" class="fp-broad-st8" width="0.7" height="74.8"/>
		<rect x="426.2" y="233.8" class="fp-broad-st8" width="0.7" height="74.8"/>
		<rect x="421.2" y="233.8" class="fp-broad-st8" width="0.7" height="74.8"/>
		<rect x="421.5" y="292.9" class="fp-broad-st8" width="5.1" height="0.7"/>
		<rect x="421.5" y="248.9" class="fp-broad-st8" width="5.1" height="0.7"/>
		<line class="fp-broad-st14" x1="424.1" y1="356" x2="424.1" y2="430.8"/>
		<rect x="423.7" y="355.9" class="fp-broad-st8" width="0.7" height="74.8"/>
		<rect x="426.2" y="356" class="fp-broad-st8" width="0.7" height="74.8"/>
		<rect x="421.2" y="356" class="fp-broad-st8" width="0.7" height="74.8"/>
		<rect x="421.5" y="415" class="fp-broad-st8" width="5.1" height="0.7"/>
		<rect x="421.5" y="371" class="fp-broad-st8" width="5.1" height="0.7"/>
		<rect x="375.4" y="101" class="fp-broad-st8" width="2.5" height="7.7"/>
		<rect x="419.1" y="101" class="fp-broad-st8" width="2.5" height="7.7"/>
		<rect x="439.9" y="127.1" class="fp-broad-st8" width="7.7" height="2.5"/>
		<rect x="439.9" y="171.3" class="fp-broad-st8" width="7.7" height="2.5"/>
		<rect x="321.2" y="311.1" class="fp-broad-st10" width="26.3" height="23.2"/>
		
			<rect x="203.3" y="234" transform="matrix(0.7071 -0.7071 0.7071 0.7071 -114.623 216.463)" class="fp-broad-st17" width="1.3" height="25.2"/>
		<path class="fp-broad-st18" d="M195.6,237.2c9.9-9.9,25.9-9.9,35.9,0"/>
		<rect x="170.9" y="233.7" class="fp-broad-st17" width="1.3" height="25.1"/>
		<path class="fp-broad-st18" d="M170.9,258.9c-14,0-25.3-11.4-25.4-25.3"/>
		<rect x="270.7" y="365.3" class="fp-broad-st17" width="25.1" height="1.3"/>
		<path class="fp-broad-st18" d="M295.9,366.6c0,14-11.3,25.3-25.3,25.4"/>
		<rect x="311.8" y="333.2" class="fp-broad-st17" width="1.3" height="25.1"/>
		<path class="fp-broad-st18" d="M311.8,333.2c-14,0-25.3,11.4-25.4,25.3"/>
		
			<rect x="233.2" y="371.2" transform="matrix(0.7071 -0.7071 0.7071 0.7071 -191.8763 280.1743)" class="fp-broad-st17" width="18.1" height="0.9"/>
		<path class="fp-broad-st18" d="M248.3,365c-7.1-7.1-18.7-7.1-25.8,0"/>
		<rect x="311.8" y="399.2" class="fp-broad-st17" width="1.3" height="25.1"/>
		<path class="fp-broad-st18" d="M311.8,424.3c-14,0-25.3-11.4-25.4-25.3"/>
		<rect x="150" y="365.7" class="fp-broad-st17" width="22" height="1.1"/>
		<path class="fp-broad-st18" d="M172,366.8c0,12.2-10,22.2-22.2,22.2"/>
		<rect x="150" y="411.2" class="fp-broad-st17" width="22" height="1.1"/>
		<path class="fp-broad-st18" d="M172,411.2c0-12.3-9.9-22.2-22.2-22.2"/>
		<path class="fp-broad-st18" d="M181.2,446.9c0-4.4,0.2-11.3-8.2-19.6"/>
		
			<rect x="149.3" y="437" transform="matrix(0.7071 -0.7071 0.7071 0.7071 -261.6315 243.8298)" class="fp-broad-st17" width="28.3" height="1.5"/>
		<path class="fp-broad-st18" d="M149.8,420.1c4.2,0,10.7-0.2,18.5,7.7"/>
		
			<rect x="145.1" y="436.1" transform="matrix(0.7071 -0.7071 0.7071 0.7071 -262.4801 239.944)" class="fp-broad-st17" width="26.6" height="1.4"/>
		<polyline class="fp-broad-st19" points="302.1,451.7 302.1,433.2 303.5,433.2 		"/>
		<polyline class="fp-broad-st19" points="316.3,451.7 316.3,433.2 314.9,433.2 		"/>
		
			<rect x="310.4" y="422.3" transform="matrix(0.7071 -0.7071 0.7071 0.7071 -211.8335 345.175)" class="fp-broad-st20" width="0.7" height="11.9"/>
		<path class="fp-broad-st21" d="M303.2,432.2c0.1-2.9,1.2-5.7,3.1-7.9"/>
		<polyline class="fp-broad-st19" points="200.7,253.8 212.1,265.2 211.3,266.1 		"/>
		<polyline class="fp-broad-st19" points="191.8,262.6 203.3,274.1 204.2,273.2 		"/>
		<rect x="211.5" y="266.4" class="fp-broad-st20" width="0.6" height="10.4"/>
		<path class="fp-broad-st21" d="M204.8,273.9c1.8,1.8,4.2,2.8,6.8,3"/>
		
			<rect x="210.5" y="295.1" transform="matrix(0.7071 -0.7071 0.7071 0.7071 -143.775 244.3351)" class="fp-broad-st17" width="25.1" height="1.3"/>
		<path class="fp-broad-st18" d="M213.7,304.1c-9.9-9.9-9.9-25.9,0-35.9"/>
		<rect x="250.8" y="405.7" class="fp-broad-st6" width="34.8" height="18.7"/>
		<rect x="148.8" y="317.9" class="fp-broad-st6" width="34.8" height="18.7"/>
		<rect x="308.5" y="175.9" class="fp-broad-st6" width="51" height="23.8"/>
		<rect x="328.6" y="279.4" class="fp-broad-st6" width="60.8" height="15.9"/>
		<rect x="340.2" y="291.9" class="fp-broad-st6" width="37.5" height="13.7"/>
		<g class="fp-broad-st7">
			<path class="fp-broad-st8" d="M140.5,167.1h3.4c0.9,0,1.5,0.2,2,0.7c0.3,0.3,0.5,0.7,0.5,1.3v0c0,0.9-0.5,1.4-1.1,1.7
				c0.9,0.3,1.5,0.8,1.5,1.8v0c0,1.4-1.1,2.1-2.8,2.1h-3.5V167.1z M145.1,169.3c0-0.6-0.5-1-1.3-1h-1.9v2h1.8
				C144.5,170.3,145.1,170,145.1,169.3L145.1,169.3z M144,171.4h-2.1v2.1h2.2c0.9,0,1.5-0.4,1.5-1v0
				C145.5,171.8,145,171.4,144,171.4z"/>
			<path class="fp-broad-st8" d="M148.8,167.1h5.6v1.2h-4.3v2h3.8v1.2h-3.8v2h4.3v1.2h-5.7V167.1z"/>
			<path class="fp-broad-st8" d="M156.5,167.1h2.8c2.4,0,4,1.6,4,3.8v0c0,2.1-1.6,3.8-4,3.8h-2.8V167.1z M157.8,168.3v5.2h1.5
				c1.6,0,2.6-1.1,2.6-2.6v0c0-1.5-1-2.6-2.6-2.6H157.8z"/>
			<path class="fp-broad-st8" d="M165.4,167.1h3.4c1,0,1.7,0.3,2.2,0.8c0.4,0.4,0.6,1,0.6,1.6v0c0,1.2-0.7,2-1.8,2.3l2,2.9h-1.6l-1.9-2.6
				h-1.7v2.6h-1.3V167.1z M168.7,170.9c1,0,1.6-0.5,1.6-1.3v0c0-0.8-0.6-1.3-1.6-1.3h-1.9v2.5H168.7z"/>
			<path class="fp-broad-st8" d="M173.3,170.9L173.3,170.9c0-2.2,1.6-3.9,4-3.9s4,1.8,4,3.9v0c0,2.1-1.6,3.9-4,3.9
				C175,174.8,173.3,173.1,173.3,170.9z M179.9,170.9L179.9,170.9c0-1.5-1.1-2.7-2.6-2.7c-1.5,0-2.6,1.2-2.6,2.7v0
				c0,1.5,1.1,2.7,2.6,2.7S179.9,172.4,179.9,170.9z"/>
			<path class="fp-broad-st8" d="M183,170.9L183,170.9c0-2.2,1.6-3.9,4-3.9s4,1.8,4,3.9v0c0,2.1-1.6,3.9-4,3.9
				C184.6,174.8,183,173.1,183,170.9z M189.5,170.9L189.5,170.9c0-1.5-1.1-2.7-2.6-2.7c-1.5,0-2.6,1.2-2.6,2.7v0
				c0,1.5,1.1,2.7,2.6,2.7S189.5,172.4,189.5,170.9z"/>
			<path class="fp-broad-st8" d="M193,167.1h1.4l2.3,3.6l2.3-3.6h1.4v7.6h-1.3v-5.4l-2.4,3.6h0l-2.4-3.6v5.4H193V167.1z"/>
		</g>
		<g class="fp-broad-st7">
			<path class="fp-broad-st8" d="M149.8,180.9l-0.8,0.2l-0.2-0.6l1.2-0.4h0.5v4.5h-0.8V180.9z"/>
			<path class="fp-broad-st8" d="M152.6,180.9l-0.8,0.2l-0.2-0.6l1.2-0.4h0.5v4.5h-0.8V180.9z"/>
			<path class="fp-broad-st8" d="M154.5,181.6c0.4-0.1,0.6-0.3,0.6-0.6h-0.3v-0.9h0.9v0.8c0,0.7-0.3,1-1,1.1L154.5,181.6z"/>
			<path class="fp-broad-st8" d="M161.5,182.5c-0.3,0.3-0.6,0.5-1.1,0.5c-1,0-1.6-0.6-1.6-1.4v0c0-0.9,0.7-1.6,1.7-1.6c0.6,0,0.9,0.2,1.3,0.5
				c0.3,0.3,0.5,0.8,0.5,1.7v0c0,1.4-0.7,2.4-1.9,2.4c-0.6,0-1.1-0.2-1.4-0.5l0.4-0.6c0.3,0.3,0.6,0.4,1,0.4
				C161.2,184,161.5,183.1,161.5,182.5z M161.5,181.5L161.5,181.5c0-0.5-0.4-0.8-0.9-0.8c-0.6,0-0.9,0.4-0.9,0.8v0
				c0,0.5,0.4,0.8,0.9,0.8C161.1,182.4,161.5,182,161.5,181.5z"/>
			<path class="fp-broad-st8" d="M163.2,181.6c0.4-0.1,0.6-0.3,0.6-0.6h-0.3v-0.9h0.9v0.8c0,0.7-0.3,1-1,1.1L163.2,181.6z M164.7,181.6
				c0.4-0.1,0.6-0.3,0.5-0.6h-0.3v-0.9h0.9v0.8c0,0.7-0.3,1-1,1.1L164.7,181.6z"/>
			<path class="fp-broad-st8" d="M170.5,182.3l0.8-1.1h0.8l-1.2,1.7l1.2,1.7h-0.8l-0.8-1.2l-0.8,1.2h-0.8l1.2-1.7l-1.2-1.7h0.8L170.5,182.3z"
				/>
			<path class="fp-broad-st8" d="M175.9,180.9l-0.8,0.2l-0.2-0.6l1.2-0.4h0.5v4.5h-0.8V180.9z"/>
			<path class="fp-broad-st8" d="M178.7,180.9l-0.8,0.2l-0.2-0.6l1.2-0.4h0.5v4.5h-0.8V180.9z"/>
			<path class="fp-broad-st8" d="M180.6,181.6c0.4-0.1,0.6-0.3,0.6-0.6h-0.3v-0.9h0.9v0.8c0,0.7-0.3,1-1,1.1L180.6,181.6z"/>
			<path class="fp-broad-st8" d="M187.2,183.6h-2.3l-0.1-0.6l2.5-3h0.7v2.9h0.6v0.6H188v1h-0.8V183.6z M187.2,182.9v-1.8l-1.5,1.8H187.2z"/>
			<path class="fp-broad-st8" d="M189.4,181.6c0.4-0.1,0.6-0.3,0.6-0.6h-0.3v-0.9h0.9v0.8c0,0.7-0.3,1-1,1.1L189.4,181.6z M190.9,181.6
				c0.4-0.1,0.6-0.3,0.5-0.6h-0.3v-0.9h0.9v0.8c0,0.7-0.3,1-1,1.1L190.9,181.6z"/>
		</g>
		<g class="fp-broad-st7">
			<path class="fp-broad-st8" d="M341.4,384.4h3.4c0.9,0,1.5,0.2,2,0.7c0.3,0.3,0.5,0.7,0.5,1.3v0c0,0.9-0.5,1.4-1.1,1.7
				c0.9,0.3,1.5,0.8,1.5,1.8v0c0,1.4-1.1,2.1-2.8,2.1h-3.5V384.4z M346,386.5c0-0.6-0.5-1-1.3-1h-1.9v2h1.8
				C345.4,387.6,346,387.2,346,386.5L346,386.5z M344.9,388.7h-2.1v2.1h2.2c0.9,0,1.5-0.4,1.5-1v0
				C346.4,389.1,345.9,388.7,344.9,388.7z"/>
			<path class="fp-broad-st8" d="M349.7,384.4h5.6v1.2H351v2h3.8v1.2H351v2h4.3v1.2h-5.7V384.4z"/>
			<path class="fp-broad-st8" d="M357.4,384.4h2.8c2.4,0,4,1.6,4,3.8v0c0,2.1-1.6,3.8-4,3.8h-2.8V384.4z M358.7,385.6v5.2h1.5
				c1.6,0,2.6-1.1,2.6-2.6v0c0-1.5-1-2.6-2.6-2.6H358.7z"/>
			<path class="fp-broad-st8" d="M366.3,384.4h3.4c1,0,1.7,0.3,2.2,0.8c0.4,0.4,0.6,1,0.6,1.6v0c0,1.2-0.7,2-1.8,2.3l2,2.9h-1.6l-1.9-2.6
				h-1.7v2.6h-1.3V384.4z M369.6,388.1c1,0,1.6-0.5,1.6-1.3v0c0-0.8-0.6-1.3-1.6-1.3h-1.9v2.5H369.6z"/>
			<path class="fp-broad-st8" d="M374.2,388.2L374.2,388.2c0-2.2,1.6-3.9,4-3.9s4,1.8,4,3.9v0c0,2.1-1.6,3.9-4,3.9S374.2,390.3,374.2,388.2z
				 M380.8,388.2L380.8,388.2c0-1.5-1.1-2.7-2.6-2.7s-2.6,1.2-2.6,2.7v0c0,1.5,1.1,2.7,2.6,2.7S380.8,389.7,380.8,388.2z"/>
			<path class="fp-broad-st8" d="M383.9,388.2L383.9,388.2c0-2.2,1.6-3.9,4-3.9s4,1.8,4,3.9v0c0,2.1-1.6,3.9-4,3.9S383.9,390.3,383.9,388.2z
				 M390.4,388.2L390.4,388.2c0-1.5-1.1-2.7-2.6-2.7s-2.6,1.2-2.6,2.7v0c0,1.5,1.1,2.7,2.6,2.7S390.4,389.7,390.4,388.2z"/>
			<path class="fp-broad-st8" d="M393.9,384.4h1.4l2.3,3.6l2.3-3.6h1.4v7.6H400v-5.4l-2.4,3.6h0l-2.4-3.6v5.4h-1.3V384.4z"/>
		</g>
		<g class="fp-broad-st7">
			<path class="fp-broad-st8" d="M348.3,398.1l-0.8,0.2l-0.2-0.6l1.2-0.4h0.5v4.5h-0.8V398.1z"/>
			<path class="fp-broad-st8" d="M350.3,399.6L350.3,399.6c0-1.3,0.8-2.3,2-2.3c1.2,0,2,1,2,2.3v0c0,1.3-0.8,2.3-2,2.3
				C351.1,401.9,350.3,400.9,350.3,399.6z M353.4,399.6L353.4,399.6c0-0.9-0.5-1.6-1.2-1.6c-0.7,0-1.1,0.7-1.1,1.6v0
				c0,0.9,0.5,1.6,1.2,1.6S353.4,400.5,353.4,399.6z"/>
			<path class="fp-broad-st8" d="M355.1,398.8c0.4-0.1,0.6-0.3,0.6-0.6h-0.3v-0.9h0.9v0.8c0,0.7-0.3,1-1,1.1L355.1,398.8z"/>
			<path class="fp-broad-st8" d="M360.2,398.1l-0.8,0.2l-0.2-0.6l1.2-0.4h0.5v4.5h-0.8V398.1z"/>
			<path class="fp-broad-st8" d="M362.2,399.6L362.2,399.6c0-1.3,0.8-2.3,2-2.3c1.2,0,2,1,2,2.3v0c0,1.3-0.8,2.3-2,2.3
				S362.2,400.9,362.2,399.6z M365.3,399.6L365.3,399.6c0-0.9-0.5-1.6-1.1-1.6s-1.1,0.7-1.1,1.6v0c0,0.9,0.4,1.6,1.1,1.6
				S365.3,400.5,365.3,399.6z"/>
			<path class="fp-broad-st8" d="M367,398.8c0.4-0.1,0.6-0.3,0.6-0.6h-0.3v-0.9h0.9v0.8c0,0.7-0.3,1-1,1.1L367,398.8z M368.5,398.8
				c0.4-0.1,0.6-0.3,0.5-0.6h-0.3v-0.9h0.9v0.8c0,0.7-0.3,1-1,1.1L368.5,398.8z"/>
			<path class="fp-broad-st8" d="M374.3,399.6l0.8-1.1h0.8l-1.2,1.7l1.2,1.7h-0.8l-0.8-1.2l-0.8,1.2h-0.8l1.2-1.7l-1.2-1.7h0.8L374.3,399.6z"
				/>
			<path class="fp-broad-st8" d="M379.7,398.1l-0.8,0.2l-0.2-0.6l1.2-0.4h0.5v4.5h-0.8V398.1z"/>
			<path class="fp-broad-st8" d="M381.7,401.2l1.5-1.3c0.6-0.5,0.8-0.8,0.8-1.2c0-0.4-0.3-0.7-0.7-0.7s-0.7,0.2-1,0.7l-0.6-0.4
				c0.4-0.6,0.9-0.9,1.7-0.9c0.9,0,1.5,0.5,1.5,1.3v0c0,0.7-0.4,1.1-1.2,1.7l-0.9,0.8h2.1v0.7h-3.3V401.2z"/>
			<path class="fp-broad-st8" d="M385.8,398.8c0.4-0.1,0.6-0.3,0.6-0.6h-0.3v-0.9h0.9v0.8c0,0.7-0.3,1-1,1.1L385.8,398.8z"/>
			<path class="fp-broad-st8" d="M390.9,398.1l-0.8,0.2l-0.2-0.6l1.2-0.4h0.5v4.5h-0.8V398.1z"/>
			<path class="fp-broad-st8" d="M392.8,398.8c0.4-0.1,0.6-0.3,0.6-0.6H393v-0.9h0.9v0.8c0,0.7-0.3,1-1,1.1L392.8,398.8z M394.3,398.8
				c0.4-0.1,0.6-0.3,0.5-0.6h-0.3v-0.9h0.9v0.8c0,0.7-0.3,1-1,1.1L394.3,398.8z"/>
		</g>
		<g class="fp-broad-st7">
			<path class="fp-broad-st8" d="M314.3,180.5h1.3v6.4h4v1.2h-5.3V180.5z"/>
			<path class="fp-broad-st8" d="M321.5,180.5h1.3v7.6h-1.3V180.5z"/>
			<path class="fp-broad-st8" d="M324.6,180.5h1.5l2.3,5.8l2.3-5.8h1.4l-3.1,7.6h-1.2L324.6,180.5z"/>
			<path class="fp-broad-st8" d="M333.9,180.5h1.3v7.6h-1.3V180.5z"/>
			<path class="fp-broad-st8" d="M337.7,180.5h1.2l4.1,5.2v-5.2h1.3v7.6h-1.1l-4.2-5.4v5.4h-1.3V180.5z"/>
			<path class="fp-broad-st8" d="M346.4,184.3L346.4,184.3c0-2.1,1.6-3.9,3.9-3.9c1.3,0,2.1,0.4,2.9,1l-0.8,1c-0.6-0.5-1.2-0.8-2.1-0.8
				c-1.4,0-2.5,1.2-2.5,2.7v0c0,1.6,1,2.7,2.6,2.7c0.7,0,1.4-0.2,1.8-0.6V185h-1.9v-1.2h3.2v3.2c-0.7,0.6-1.8,1.2-3.2,1.2
				C348,188.2,346.4,186.5,346.4,184.3z"/>
		</g>
		<g class="fp-broad-st7">
			<path class="fp-broad-st8" d="M320.1,197.4l1.5-1.3c0.6-0.5,0.8-0.8,0.8-1.2c0-0.4-0.3-0.7-0.7-0.7s-0.7,0.2-1,0.7l-0.6-0.4
				c0.4-0.6,0.9-0.9,1.7-0.9c0.9,0,1.5,0.5,1.5,1.3v0c0,0.7-0.4,1.1-1.2,1.7l-0.9,0.8h2.1v0.7h-3.3V197.4z"/>
			<path class="fp-broad-st8" d="M324.2,197.3l0.6-0.5c0.3,0.4,0.7,0.6,1.2,0.6c0.4,0,0.8-0.3,0.8-0.7v0c0-0.4-0.4-0.7-1-0.7h-0.4l-0.1-0.5
				l1.2-1.3h-1.9v-0.7h3v0.6l-1.3,1.3c0.7,0.1,1.3,0.4,1.3,1.3v0c0,0.8-0.6,1.4-1.6,1.4C325.2,198.1,324.6,197.8,324.2,197.3z"/>
			<path class="fp-broad-st8" d="M328.4,195c0.4-0.1,0.6-0.3,0.6-0.6h-0.3v-0.9h0.9v0.8c0,0.7-0.3,1-1,1.1L328.4,195z"/>
			<path class="fp-broad-st8" d="M334.2,195.8l0.8-1.1h0.8l-1.2,1.7l1.2,1.7H335l-0.8-1.2l-0.8,1.2h-0.8l1.2-1.7l-1.2-1.7h0.8L334.2,195.8z"
				/>
			<path class="fp-broad-st8" d="M339.7,194.3l-0.8,0.2l-0.2-0.6l1.2-0.4h0.5v4.5h-0.8V194.3z"/>
			<path class="fp-broad-st8" d="M341.7,195.8L341.7,195.8c0-1.3,0.8-2.3,2-2.3c1.2,0,2,1,2,2.3v0c0,1.3-0.8,2.3-2,2.3
				S341.7,197.1,341.7,195.8z M344.8,195.8L344.8,195.8c0-0.9-0.5-1.6-1.1-1.6s-1.1,0.7-1.1,1.6v0c0,0.9,0.4,1.6,1.1,1.6
				S344.8,196.7,344.8,195.8z"/>
			<path class="fp-broad-st8" d="M346.5,195c0.4-0.1,0.6-0.3,0.6-0.6h-0.3v-0.9h0.9v0.8c0,0.7-0.3,1-1,1.1L346.5,195z"/>
		</g>
		<g class="fp-broad-st7">
			<path class="fp-broad-st8" d="M333.8,283.4h1.3v3.8l3.6-3.8h1.6l-3.2,3.3l3.3,4.3h-1.6l-2.6-3.4l-1.2,1.2v2.2h-1.3V283.4z"/>
			<path class="fp-broad-st8" d="M342.2,283.4h1.3v7.6h-1.3V283.4z"/>
		</g>
		<g class="fp-broad-st7">
			<path class="fp-broad-st8" d="M347.9,284.6h-2.4v-1.2h6.2v1.2h-2.4v6.3h-1.3V284.6z"/>
		</g>
		<g class="fp-broad-st7">
			<path class="fp-broad-st8" d="M352.7,287.2L352.7,287.2c0-2.2,1.6-3.9,3.9-3.9c1.4,0,2.2,0.5,3,1.2l-0.9,1c-0.6-0.6-1.3-0.9-2.1-0.9
				c-1.4,0-2.5,1.2-2.5,2.7v0c0,1.5,1.1,2.7,2.5,2.7c0.9,0,1.5-0.4,2.2-1l0.9,0.9c-0.8,0.8-1.7,1.3-3.1,1.3
				C354.3,291.1,352.7,289.4,352.7,287.2z"/>
			<path class="fp-broad-st8" d="M361.5,283.4h1.3v3.2h3.6v-3.2h1.3v7.6h-1.3v-3.2h-3.6v3.2h-1.3V283.4z"/>
			<path class="fp-broad-st8" d="M370.1,283.4h5.6v1.2h-4.3v2h3.8v1.2h-3.8v2h4.3v1.2h-5.7V283.4z"/>
			<path class="fp-broad-st8" d="M377.8,283.4h1.2l4.1,5.2v-5.2h1.3v7.6h-1.1l-4.2-5.4v5.4h-1.3V283.4z"/>
		</g>
		<g class="fp-broad-st7">
			<path class="fp-broad-st8" d="M345.4,299.2l1.5-1.3c0.6-0.5,0.8-0.8,0.8-1.2c0-0.4-0.3-0.7-0.7-0.7s-0.7,0.2-1,0.7l-0.6-0.4
				c0.4-0.6,0.9-0.9,1.7-0.9c0.9,0,1.5,0.5,1.5,1.3v0c0,0.7-0.4,1.1-1.2,1.7l-0.9,0.8h2.1v0.7h-3.3V299.2z"/>
			<path class="fp-broad-st8" d="M349.6,299.1l0.6-0.5c0.3,0.4,0.7,0.6,1.2,0.6c0.4,0,0.8-0.3,0.8-0.7v0c0-0.4-0.4-0.7-1-0.7h-0.4l-0.1-0.5
				l1.2-1.3h-1.9v-0.7h3v0.6l-1.3,1.3c0.7,0.1,1.3,0.4,1.3,1.3v0c0,0.8-0.6,1.4-1.6,1.4C350.5,299.9,350,299.6,349.6,299.1z"/>
			<path class="fp-broad-st8" d="M353.8,296.8c0.4-0.1,0.6-0.3,0.6-0.6H354v-0.9h0.9v0.8c0,0.7-0.3,1-1,1.1L353.8,296.8z"/>
			<path class="fp-broad-st8" d="M359.6,297.6l0.8-1.1h0.8l-1.2,1.7l1.2,1.7h-0.8l-0.8-1.2l-0.8,1.2h-0.8l1.2-1.7l-1.2-1.7h0.8L359.6,297.6z"
				/>
			<path class="fp-broad-st8" d="M365,296.1l-0.8,0.2l-0.2-0.6l1.2-0.4h0.5v4.5H365V296.1z"/>
			<path class="fp-broad-st8" d="M367.1,297.6L367.1,297.6c0-1.3,0.8-2.3,2-2.3c1.2,0,2,1,2,2.3v0c0,1.3-0.8,2.3-2,2.3
				S367.1,298.9,367.1,297.6z M370.2,297.6L370.2,297.6c0-0.9-0.5-1.6-1.1-1.6s-1.1,0.7-1.1,1.6v0c0,0.9,0.4,1.6,1.1,1.6
				S370.2,298.5,370.2,297.6z"/>
			<path class="fp-broad-st8" d="M371.9,296.8c0.4-0.1,0.6-0.3,0.6-0.6h-0.3v-0.9h0.9v0.8c0,0.7-0.3,1-1,1.1L371.9,296.8z"/>
		</g>
		<circle class="fp-broad-st22" cx="130.9" cy="433.4" r="11.6"/>
		<g class="fp-broad-st7">
			<path class="fp-broad-st8" d="M123.6,431.5h0.7v1.5h1.8v-1.5h0.7v3.7H126v-1.6h-1.8v1.6h-0.7V431.5z"/>
		</g>
		<g class="fp-broad-st7">
			<path class="fp-broad-st8" d="M127.5,431.5h0.7l1.1,2.9l1.1-2.9h0.7l-1.5,3.8h-0.6L127.5,431.5z"/>
		</g>
		<g class="fp-broad-st7">
			<path class="fp-broad-st8" d="M132.9,431.5h0.6l1.6,3.8h-0.7l-0.4-0.9h-1.8l-0.4,0.9h-0.7L132.9,431.5z M133.8,433.8l-0.6-1.5l-0.6,1.5
				H133.8z"/>
		</g>
		<g class="fp-broad-st7">
			<path class="fp-broad-st8" d="M135.6,433.4L135.6,433.4c0-1.1,0.8-1.9,1.9-1.9c0.7,0,1.1,0.2,1.5,0.6l-0.4,0.5c-0.3-0.3-0.6-0.5-1-0.5
				c-0.7,0-1.2,0.6-1.2,1.3v0c0,0.7,0.5,1.3,1.2,1.3c0.5,0,0.8-0.2,1.1-0.5l0.4,0.4c-0.4,0.4-0.8,0.7-1.5,0.7
				C136.4,435.3,135.6,434.5,135.6,433.4z"/>
		</g>
		<rect x="119.5" y="389.2" class="fp-broad-st12" width="24" height="21.5"/>
		<line class="fp-broad-st23" x1="122.1" y1="410.8" x2="122.1" y2="389.2"/>
		<rect x="119.5" y="366.5" class="fp-broad-st12" width="24" height="21.5"/>
		<line class="fp-broad-st23" x1="122.1" y1="388.1" x2="122.1" y2="366.6"/>
		<rect x="144.5" y="379" class="fp-broad-st6" width="5.8" height="18.9"/>
		<g class="fp-broad-st7">
			<path class="fp-broad-st8" d="M146.2,397v-0.4h2v-1.2h0.4v1.6H146.2z"/>
		</g>
		<g class="fp-broad-st7">
			<path class="fp-broad-st8" d="M146.2,394.1v-0.4l2.4-1v0.4l-0.6,0.2v1.1l0.6,0.2v0.4L146.2,394.1z M147.6,393.6l-0.9,0.4l0.9,0.4V393.6z"
				/>
		</g>
		<g class="fp-broad-st7">
			<path class="fp-broad-st8" d="M147.5,392.4h-1.4V392h1.3c0.4,0,0.7-0.2,0.7-0.6c0-0.3-0.2-0.6-0.7-0.6h-1.4v-0.4h1.3c0.7,0,1.1,0.4,1.1,1
				C148.6,392,148.2,392.4,147.5,392.4z"/>
			<path class="fp-broad-st8" d="M146.2,389.9v-0.4l1.6-1.2h-1.6v-0.4h2.4v0.3l-1.7,1.2h1.7v0.4H146.2z"/>
			<path class="fp-broad-st8" d="M146.2,387.2v-0.8c0-0.7,0.5-1.2,1.2-1.2h0c0.7,0,1.2,0.5,1.2,1.2v0.8H146.2z M146.6,386.8h1.6v-0.4
				c0-0.5-0.3-0.8-0.8-0.8h0c-0.5,0-0.8,0.3-0.8,0.8V386.8z"/>
		</g>
		<g class="fp-broad-st7">
			<path class="fp-broad-st8" d="M146.2,384.6v-1c0-0.3,0.1-0.5,0.2-0.6c0.1-0.1,0.3-0.2,0.5-0.2h0c0.4,0,0.6,0.2,0.7,0.5l0.9-0.6v0.5
				l-0.8,0.5v0.5h0.8v0.4H146.2z M147.3,383.7c0-0.3-0.2-0.5-0.4-0.5h0c-0.3,0-0.4,0.2-0.4,0.5v0.6h0.8V383.7z"/>
		</g>
		<g class="fp-broad-st7">
			<path class="fp-broad-st8" d="M147.6,381.6l-1.4,0.9v-0.5l1-0.6l-1-0.6v-0.4l1.4,0.9h0.9v0.4H147.6z"/>
		</g>
		<g class="fp-broad-st7">
			<path class="fp-broad-st8" d="M217.1,380.1L217.1,380.1c0-0.7,0.5-1.2,1.1-1.2c0.4,0,0.7,0.2,0.9,0.4l-0.3,0.3c-0.2-0.2-0.4-0.3-0.6-0.3
				c-0.4,0-0.7,0.4-0.7,0.8v0c0,0.5,0.3,0.8,0.7,0.8c0.3,0,0.4-0.1,0.6-0.3l0.3,0.3c-0.2,0.3-0.5,0.4-0.9,0.4
				C217.6,381.3,217.1,380.8,217.1,380.1z"/>
		</g>
		<g class="fp-broad-st7">
			<path class="fp-broad-st8" d="M219.5,380.1L219.5,380.1c0-0.7,0.5-1.2,1.2-1.2s1.2,0.5,1.2,1.2v0c0,0.7-0.5,1.2-1.2,1.2
				S219.5,380.8,219.5,380.1z M221.4,380.1L221.4,380.1c0-0.5-0.3-0.8-0.8-0.8s-0.7,0.4-0.7,0.8v0c0,0.5,0.3,0.8,0.8,0.8
				S221.4,380.6,221.4,380.1z"/>
		</g>
		<g class="fp-broad-st7">
			<path class="fp-broad-st8" d="M223.1,378.9h0.4l1,2.4H224l-0.2-0.6h-1.1l-0.2,0.6h-0.4L223.1,378.9z M223.7,380.4l-0.4-0.9l-0.4,0.9H223.7
				z"/>
		</g>
		<g class="fp-broad-st7">
			<path class="fp-broad-st8" d="M225.2,379.3h-0.7v-0.4h1.8v0.4h-0.7v2h-0.4V379.3z"/>
		</g>
		<g class="fp-broad-st7">
			<path class="fp-broad-st8" d="M254.9,419.7l-0.7,0.2l-0.1-0.5l1-0.3h0.5v3.8h-0.7V419.7z"/>
			<path class="fp-broad-st8" d="M256.5,422.3l1.3-1.1c0.5-0.4,0.7-0.7,0.7-1c0-0.4-0.3-0.6-0.6-0.6s-0.6,0.2-0.9,0.6l-0.5-0.4
				c0.4-0.5,0.7-0.8,1.4-0.8c0.7,0,1.3,0.5,1.3,1.1v0c0,0.6-0.3,0.9-1,1.5l-0.8,0.7h1.8v0.6h-2.7V422.3z"/>
			<path class="fp-broad-st8" d="M260,420.3c0.3-0.1,0.5-0.2,0.5-0.5h-0.3v-0.7h0.7v0.6c0,0.6-0.3,0.9-0.8,0.9L260,420.3z"/>
			<path class="fp-broad-st8" d="M264.9,421l0.7-1h0.7l-1,1.4l1.1,1.5h-0.7l-0.7-1l-0.7,1h-0.7l1-1.5l-1-1.4h0.7L264.9,421z"/>
			<path class="fp-broad-st8" d="M268.8,422.3l0.4-0.5c0.3,0.3,0.6,0.5,1,0.5c0.5,0,0.8-0.3,0.8-0.7v0c0-0.4-0.3-0.6-0.8-0.6
				c-0.3,0-0.5,0.1-0.7,0.2l-0.4-0.3l0.1-1.9h2.3v0.6h-1.7l-0.1,0.9c0.2-0.1,0.3-0.1,0.6-0.1c0.7,0,1.3,0.4,1.3,1.2v0
				c0,0.8-0.6,1.3-1.4,1.3C269.6,422.9,269.2,422.7,268.8,422.3z"/>
			<path class="fp-broad-st8" d="M272.3,420.3c0.3-0.1,0.5-0.2,0.5-0.5h-0.3v-0.7h0.7v0.6c0,0.6-0.3,0.9-0.8,0.9L272.3,420.3z"/>
			<path class="fp-broad-st8" d="M278.2,421.1c-0.2,0.3-0.5,0.4-0.9,0.4c-0.8,0-1.3-0.5-1.3-1.2v0c0-0.7,0.6-1.3,1.4-1.3
				c0.5,0,0.8,0.1,1.1,0.4c0.3,0.3,0.5,0.7,0.5,1.4v0c0,1.2-0.6,2.1-1.6,2.1c-0.5,0-0.9-0.2-1.2-0.5l0.4-0.5
				c0.3,0.2,0.5,0.4,0.9,0.4C278,422.3,278.2,421.6,278.2,421.1z M278.2,420.3L278.2,420.3c0-0.4-0.3-0.7-0.8-0.7
				c-0.5,0-0.8,0.3-0.8,0.7v0c0,0.4,0.3,0.7,0.8,0.7C277.9,421,278.2,420.7,278.2,420.3z"/>
			<path class="fp-broad-st8" d="M279.6,420.3c0.3-0.1,0.5-0.2,0.5-0.5h-0.3v-0.7h0.7v0.6c0,0.6-0.3,0.9-0.8,0.9L279.6,420.3z M280.9,420.3
				c0.3-0.1,0.5-0.2,0.5-0.5h-0.3v-0.7h0.7v0.6c0,0.6-0.3,0.9-0.8,0.9L280.9,420.3z"/>
		</g>
		<g class="fp-broad-st7">
			<path class="fp-broad-st8" d="M257.3,410.6h2.4c0.6,0,1.1,0.2,1.4,0.5c0.2,0.2,0.4,0.5,0.4,0.9v0c0,0.6-0.4,1-0.8,1.2
				c0.6,0.2,1.1,0.6,1.1,1.3v0c0,0.9-0.8,1.5-2,1.5h-2.5V410.6z M260.5,412.1c0-0.4-0.3-0.7-0.9-0.7h-1.3v1.4h1.3
				C260.1,412.8,260.5,412.6,260.5,412.1L260.5,412.1z M259.7,413.6h-1.5v1.5h1.5c0.6,0,1-0.3,1-0.7v0
				C260.8,413.9,260.4,413.6,259.7,413.6z"/>
		</g>
		<g class="fp-broad-st7">
			<path class="fp-broad-st8" d="M264.9,410.6h0.9l2.3,5.3h-1l-0.5-1.3h-2.5l-0.5,1.3h-1L264.9,410.6z M266.3,413.8l-0.9-2.1l-0.9,2.1H266.3z
				"/>
		</g>
		<g class="fp-broad-st7">
			<path class="fp-broad-st8" d="M270,411.5h-1.7v-0.9h4.3v0.9h-1.7v4.4H270V411.5z"/>
			<path class="fp-broad-st8" d="M273.9,410.6h0.9v2.2h2.5v-2.2h0.9v5.3h-0.9v-2.2h-2.5v2.2h-0.9V410.6z"/>
		</g>
		<g class="fp-broad-st7">
			<path class="fp-broad-st8" d="M156.3,333.5l0.4-0.5c0.3,0.3,0.6,0.5,1,0.5c0.5,0,0.8-0.3,0.8-0.7v0c0-0.4-0.3-0.6-0.8-0.6
				c-0.3,0-0.5,0.1-0.7,0.2l-0.4-0.3l0.1-1.9h2.3v0.6h-1.7l-0.1,0.9c0.2-0.1,0.3-0.1,0.6-0.1c0.7,0,1.3,0.4,1.3,1.2v0
				c0,0.8-0.6,1.3-1.4,1.3C157.1,334.1,156.6,333.9,156.3,333.5z"/>
			<path class="fp-broad-st8" d="M159.8,331.5c0.3-0.1,0.5-0.2,0.5-0.5H160v-0.7h0.7v0.6c0,0.6-0.3,0.9-0.8,0.9L159.8,331.5z"/>
			<path class="fp-broad-st8" d="M164.7,332.1l0.7-1h0.7l-1,1.4l1.1,1.5h-0.7l-0.7-1l-0.7,1h-0.7l1-1.5l-1-1.4h0.7L164.7,332.1z"/>
			<path class="fp-broad-st8" d="M169.3,330.9l-0.7,0.2l-0.1-0.5l1-0.3h0.5v3.8h-0.7V330.9z"/>
			<path class="fp-broad-st8" d="M171,332.1L171,332.1c0-1.1,0.7-2,1.7-2c1,0,1.6,0.9,1.6,2v0c0,1.1-0.7,2-1.7,2S171,333.2,171,332.1z
				 M173.6,332.1L173.6,332.1c0-0.8-0.4-1.4-1-1.4s-1,0.6-1,1.3v0c0,0.7,0.4,1.4,1,1.4S173.6,332.9,173.6,332.1z"/>
			<path class="fp-broad-st8" d="M175.1,331.5c0.3-0.1,0.5-0.2,0.5-0.5h-0.3v-0.7h0.7v0.6c0,0.6-0.3,0.9-0.8,0.9L175.1,331.5z"/>
		</g>
		<g class="fp-broad-st7">
			<path class="fp-broad-st8" d="M155.4,321.3h2.4c0.6,0,1.1,0.2,1.4,0.5c0.2,0.2,0.4,0.5,0.4,0.9v0c0,0.6-0.4,1-0.8,1.2
				c0.6,0.2,1.1,0.6,1.1,1.3v0c0,0.9-0.8,1.5-2,1.5h-2.5V321.3z M158.6,322.8c0-0.4-0.3-0.7-0.9-0.7h-1.3v1.4h1.3
				C158.2,323.5,158.6,323.3,158.6,322.8L158.6,322.8z M157.8,324.3h-1.5v1.5h1.5c0.6,0,1-0.3,1-0.7v0
				C158.9,324.6,158.5,324.3,157.8,324.3z"/>
		</g>
		<g class="fp-broad-st7">
			<path class="fp-broad-st8" d="M163.1,321.3h0.9l2.3,5.3h-1l-0.5-1.3h-2.5l-0.5,1.3h-1L163.1,321.3z M164.4,324.5l-0.9-2.1l-0.9,2.1H164.4z
				"/>
		</g>
		<g class="fp-broad-st7">
			<path class="fp-broad-st8" d="M168.1,322.2h-1.7v-0.9h4.3v0.9H169v4.4h-0.9V322.2z"/>
			<path class="fp-broad-st8" d="M172,321.3h0.9v2.2h2.5v-2.2h0.9v5.3h-0.9v-2.2H173v2.2H172V321.3z"/>
		</g>
		<g class="fp-broad-st7">
			<path class="fp-broad-st8" d="M129.9,276.6c-0.3-0.3-0.5-0.7-0.5-1.4v0c0-1.2,0.6-2.1,1.6-2.1c0.5,0,0.8,0.2,1.2,0.4l-0.4,0.5
				c-0.3-0.2-0.5-0.3-0.8-0.3c-0.7,0-0.9,0.7-0.9,1.2c0.2-0.2,0.5-0.4,0.9-0.4c0.7,0,1.3,0.4,1.3,1.2v0c0,0.8-0.6,1.3-1.4,1.3
				C130.5,277,130.2,276.8,129.9,276.6z M131.7,275.7L131.7,275.7c0-0.4-0.3-0.7-0.8-0.7s-0.8,0.3-0.8,0.7v0c0,0.4,0.3,0.7,0.8,0.7
				S131.7,276.1,131.7,275.7z"/>
			<path class="fp-broad-st8" d="M133.1,274.4c0.3-0.1,0.5-0.2,0.5-0.5h-0.3v-0.7h0.7v0.6c0,0.6-0.3,0.9-0.8,0.9L133.1,274.4z"/>
			<path class="fp-broad-st8" d="M137.4,273.8l-0.7,0.2l-0.1-0.5l1-0.3h0.5v3.8h-0.7V273.8z"/>
			<path class="fp-broad-st8" d="M139.1,275L139.1,275c0-1.1,0.7-2,1.7-2c1,0,1.6,0.9,1.6,2v0c0,1.1-0.7,2-1.7,2S139.1,276.1,139.1,275z
				 M141.7,275L141.7,275c0-0.8-0.4-1.4-1-1.4s-1,0.6-1,1.3v0c0,0.7,0.4,1.4,1,1.4S141.7,275.8,141.7,275z"/>
			<path class="fp-broad-st8" d="M143.1,274.4c0.3-0.1,0.5-0.2,0.5-0.5h-0.3v-0.7h0.7v0.6c0,0.6-0.3,0.9-0.8,0.9L143.1,274.4z M144.4,274.4
				c0.3-0.1,0.5-0.2,0.5-0.5h-0.3v-0.7h0.7v0.6c0,0.6-0.3,0.9-0.8,0.9L144.4,274.4z"/>
			<path class="fp-broad-st8" d="M149.3,275l0.7-1h0.7l-1,1.4l1.1,1.5H150l-0.7-1l-0.7,1h-0.7l1-1.5l-1-1.4h0.7L149.3,275z"/>
			<path class="fp-broad-st8" d="M155.2,273.7h-1.9v-0.6h2.7v0.5l-1.7,3.3h-0.8L155.2,273.7z"/>
			<path class="fp-broad-st8" d="M156.6,274.4c0.3-0.1,0.5-0.2,0.5-0.5h-0.3v-0.7h0.7v0.6c0,0.6-0.3,0.9-0.8,0.9L156.6,274.4z"/>
		</g>
		<g class="fp-broad-st7">
			<path class="fp-broad-st8" d="M127.7,266.5L127.7,266.5c0-1.5,1.1-2.8,2.7-2.8c1,0,1.6,0.3,2.1,0.8l-0.6,0.7c-0.4-0.4-0.9-0.7-1.5-0.7
				c-1,0-1.8,0.8-1.8,1.9v0c0,1,0.7,1.9,1.8,1.9c0.7,0,1.1-0.3,1.5-0.7l0.6,0.6c-0.6,0.6-1.2,0.9-2.2,0.9
				C128.9,269.3,127.7,268,127.7,266.5z"/>
		</g>
		<g class="fp-broad-st7">
			<path class="fp-broad-st8" d="M133.8,263.9h0.9v4.5h2.8v0.8h-3.7V263.9z"/>
		</g>
		<g class="fp-broad-st7">
			<path class="fp-broad-st8" d="M138.3,266.5L138.3,266.5c0-1.5,1.2-2.8,2.8-2.8c1.6,0,2.8,1.2,2.8,2.7v0c0,1.5-1.2,2.7-2.8,2.7
				S138.3,268,138.3,266.5z M142.9,266.5L142.9,266.5c0-1-0.8-1.9-1.8-1.9s-1.8,0.8-1.8,1.9v0c0,1,0.8,1.9,1.8,1.9
				S142.9,267.6,142.9,266.5z"/>
		</g>
		<g class="fp-broad-st7">
			<path class="fp-broad-st8" d="M144.9,268.4l0.6-0.7c0.5,0.4,1,0.7,1.7,0.7c0.6,0,0.9-0.3,0.9-0.7v0c0-0.4-0.2-0.6-1.2-0.8
				c-1.1-0.3-1.8-0.6-1.8-1.6v0c0-0.9,0.8-1.5,1.8-1.5c0.8,0,1.4,0.2,1.9,0.7l-0.5,0.7c-0.5-0.4-1-0.5-1.4-0.5
				c-0.5,0-0.9,0.3-0.9,0.6v0c0,0.4,0.2,0.6,1.3,0.8c1.1,0.3,1.7,0.7,1.7,1.6v0c0,1-0.8,1.6-1.9,1.6
				C146.3,269.2,145.5,269,144.9,268.4z"/>
			<path class="fp-broad-st8" d="M150.4,263.9h3.9v0.8h-3v1.4h2.7v0.8h-2.7v1.4h3v0.8h-4V263.9z"/>
			<path class="fp-broad-st8" d="M157.1,264.7h-1.7v-0.9h4.3v0.9H158v4.4h-0.9V264.7z"/>
		</g>
		<g class="fp-broad-st7">
			<path class="fp-broad-st8" d="M278.5,331.5h-1.9v-0.6h2.7v0.5l-1.7,3.3h-0.8L278.5,331.5z"/>
			<path class="fp-broad-st8" d="M279.9,332.1c0.3-0.1,0.5-0.2,0.5-0.5h-0.3v-0.7h0.7v0.6c0,0.6-0.3,0.9-0.8,0.9L279.9,332.1z"/>
			<path class="fp-broad-st8" d="M284.8,332.8l0.7-1h0.7l-1,1.4l1.1,1.5h-0.7l-0.7-1l-0.7,1h-0.7l1-1.5l-1-1.4h0.7L284.8,332.8z"/>
			<path class="fp-broad-st8" d="M290.7,333.8h-1.9l-0.1-0.5l2.1-2.5h0.6v2.4h0.5v0.5h-0.5v0.9h-0.6V333.8z M290.7,333.3v-1.5l-1.2,1.5H290.7
				z"/>
			<path class="fp-broad-st8" d="M292.6,332.1c0.3-0.1,0.5-0.2,0.5-0.5h-0.3v-0.7h0.7v0.6c0,0.6-0.3,0.9-0.8,0.9L292.6,332.1z"/>
		</g>
		<g class="fp-broad-st7">
			<path class="fp-broad-st8" d="M268.5,325L268.5,325c0-1.5,1.1-2.8,2.7-2.8c1,0,1.6,0.3,2.1,0.8l-0.6,0.7c-0.4-0.4-0.9-0.7-1.5-0.7
				c-1,0-1.8,0.8-1.8,1.9v0c0,1,0.7,1.9,1.8,1.9c0.7,0,1.1-0.3,1.5-0.7l0.6,0.6c-0.6,0.6-1.2,0.9-2.2,0.9
				C269.6,327.7,268.5,326.5,268.5,325z"/>
		</g>
		<g class="fp-broad-st7">
			<path class="fp-broad-st8" d="M274.6,322.3h0.9v4.5h2.8v0.8h-3.7V322.3z"/>
		</g>
		<g class="fp-broad-st7">
			<path class="fp-broad-st8" d="M279.1,325L279.1,325c0-1.5,1.2-2.8,2.8-2.8c1.6,0,2.8,1.2,2.8,2.7v0c0,1.5-1.2,2.7-2.8,2.7
				C280.2,327.7,279.1,326.5,279.1,325z M283.7,325L283.7,325c0-1-0.8-1.9-1.8-1.9c-1.1,0-1.8,0.8-1.8,1.9v0c0,1,0.8,1.9,1.8,1.9
				C282.9,326.8,283.7,326,283.7,325z"/>
		</g>
		<g class="fp-broad-st7">
			<path class="fp-broad-st8" d="M285.7,326.8l0.6-0.7c0.5,0.4,1,0.7,1.7,0.7c0.6,0,0.9-0.3,0.9-0.7v0c0-0.4-0.2-0.6-1.2-0.8
				c-1.1-0.3-1.8-0.6-1.8-1.6v0c0-0.9,0.8-1.5,1.8-1.5c0.8,0,1.4,0.2,1.9,0.7l-0.5,0.7c-0.5-0.4-1-0.5-1.4-0.5
				c-0.5,0-0.9,0.3-0.9,0.6v0c0,0.4,0.2,0.6,1.3,0.8c1.1,0.3,1.7,0.7,1.7,1.6v0c0,1-0.8,1.6-1.9,1.6
				C287.1,327.7,286.3,327.4,285.7,326.8z"/>
			<path class="fp-broad-st8" d="M291.2,322.3h3.9v0.8h-3v1.4h2.7v0.8h-2.7v1.4h3v0.8h-4V322.3z"/>
			<path class="fp-broad-st8" d="M297.9,323.2h-1.7v-0.9h4.3v0.9h-1.7v4.4h-0.9V323.2z"/>
		</g>
		<rect x="0.5" y="0.5" class="fp-broad-st24" width="557.3" height="557.3"/>
	</g>
</g>
</svg>
