<?xml version="1.0" encoding="utf-8"?>
<!-- Generator: Adobe Illustrator 21.1.0, SVG Export Plug-In . SVG Version: 6.00 Build 0)  -->
<svg version="1.1" id="Layer_1" xmlns="http://www.w3.org/2000/svg" xmlns:xlink="http://www.w3.org/1999/xlink" x="0px" y="0px"
     viewBox="0 0 558.3 558.3" style="enable-background:new 0 0 558.3 558.3;" xml:space="preserve">
<style type="text/css">
    .fp-bowen-st0{fill:none;stroke:#A6A8AB;stroke-width:0.27;stroke-miterlimit:10;}
    .fp-bowen-st1{fill:#E4E9E4;}
    .fp-bowen-st2{fill:#E4E9E4;stroke:#32553B;stroke-width:0.27;stroke-miterlimit:10;}
    .fp-bowen-st3{fill:none;stroke:#32553B;stroke-width:0.27;stroke-miterlimit:10;}
    .fp-bowen-st4{fill:none;stroke:#799900;stroke-width:0.16;stroke-miterlimit:10;}
    .fp-bowen-st5{fill:#FFFFFF;stroke:#62A044;stroke-width:0.16;stroke-miterlimit:10;}
    .fp-bowen-st6{fill:#F5F7F5;}
    .fp-bowen-st7{enable-background:new    ;}
    .fp-bowen-st8{fill:#32553B;}
    .fp-bowen-st9{fill:#E4E9E4;stroke:#32553B;stroke-width:0.24;stroke-miterlimit:10;}
    .fp-bowen-st10{fill:#C8D0C9;stroke:#32553B;stroke-width:0.27;stroke-miterlimit:10;}
    .fp-bowen-st11{fill:#C8D0C9;stroke:#32553B;stroke-width:0.24;stroke-miterlimit:10;}
    .fp-bowen-st12{fill:#C8D0C9;stroke:#32553B;stroke-width:0.21;stroke-miterlimit:10;}
    .fp-bowen-st13{fill:none;stroke:#32553B;stroke-width:4.33;stroke-linejoin:round;}
    .fp-bowen-st14{fill:none;stroke:#32553B;stroke-width:7.59;stroke-linejoin:round;}
    .fp-bowen-st15{fill:none;stroke:#32553B;stroke-width:4.33;stroke-miterlimit:10;}
    .fp-bowen-st16{fill:none;stroke:#32553B;stroke-width:0.24;stroke-miterlimit:10;}
    .fp-bowen-st17{fill:none;stroke:#E4E9E4;stroke-width:7.59;stroke-linejoin:round;}
    .fp-bowen-st18{fill:#FFFFFF;stroke:#62A044;stroke-width:0.3;stroke-miterlimit:10;}
    .fp-bowen-st19{fill:none;stroke:#799900;stroke-width:0.3;stroke-miterlimit:10;}
    .fp-bowen-st20{fill:none;stroke:#799900;stroke-width:0.27;stroke-miterlimit:10;}
    .fp-bowen-st21{fill:#FFFFFF;stroke:#62A044;stroke-width:0.27;stroke-miterlimit:10;}
    .fp-bowen-st22{fill:none;stroke:#32553B;stroke-width:0.21;stroke-miterlimit:10;}
    .fp-bowen-st23{fill:#C8D0C9;stroke:#32553B;stroke-width:0.15;stroke-miterlimit:10;}
    .fp-bowen-st24{fill:none;stroke:#F5F7F5;stroke-miterlimit:10;}
</style>
<title>fp_bowen</title>
<g id="Layer_2">
    <g id="DESIGN">
        <line class="fp-bowen-st0" x1="63.8" y1="150.7" x2="407.9" y2="150.7"/>
        <line class="fp-bowen-st0" x1="63.8" y1="158.6" x2="415.6" y2="158.6"/>
        <line class="fp-bowen-st0" x1="63.8" y1="166.4" x2="423.5" y2="166.4"/>
        <line class="fp-bowen-st0" x1="63.8" y1="174.3" x2="431.3" y2="174.3"/>
        <line class="fp-bowen-st0" x1="63.8" y1="182.1" x2="439.2" y2="182.1"/>
        <line class="fp-bowen-st0" x1="63.8" y1="190" x2="447" y2="190"/>
        <line class="fp-bowen-st0" x1="63.8" y1="197.8" x2="454.9" y2="197.8"/>
        <line class="fp-bowen-st0" x1="63.8" y1="205.7" x2="463.4" y2="205.7"/>
        <line class="fp-bowen-st0" x1="63.8" y1="213.5" x2="470.6" y2="213.5"/>
        <line class="fp-bowen-st0" x1="63.8" y1="221.4" x2="478" y2="221.4"/>
        <line class="fp-bowen-st0" x1="63.8" y1="229.2" x2="478" y2="229.2"/>
        <line class="fp-bowen-st0" x1="63.8" y1="237.1" x2="478" y2="237.1"/>
        <line class="fp-bowen-st0" x1="63.8" y1="245" x2="478" y2="245"/>
        <line class="fp-bowen-st0" x1="63.8" y1="252.8" x2="478" y2="252.8"/>
        <line class="fp-bowen-st0" x1="63.8" y1="260.7" x2="478" y2="260.7"/>
        <line class="fp-bowen-st0" x1="63.8" y1="268.5" x2="478" y2="268.5"/>
        <line class="fp-bowen-st0" x1="63.8" y1="276.4" x2="478" y2="276.4"/>
        <line class="fp-bowen-st0" x1="63.8" y1="284.2" x2="478" y2="284.2"/>
        <line class="fp-bowen-st0" x1="63.8" y1="292.1" x2="478" y2="292.1"/>
        <line class="fp-bowen-st0" x1="63.8" y1="299.9" x2="478" y2="299.9"/>
        <line class="fp-bowen-st0" x1="63.8" y1="307.8" x2="478" y2="307.8"/>
        <line class="fp-bowen-st0" x1="63.8" y1="315.6" x2="478" y2="315.6"/>
        <line class="fp-bowen-st0" x1="63.8" y1="323.5" x2="478" y2="323.5"/>
        <line class="fp-bowen-st0" x1="63.8" y1="331.4" x2="478" y2="331.4"/>
        <line class="fp-bowen-st0" x1="63.8" y1="339.2" x2="478" y2="339.2"/>
        <line class="fp-bowen-st0" x1="63.8" y1="347" x2="478" y2="347"/>
        <line class="fp-bowen-st0" x1="63.8" y1="354.9" x2="478" y2="354.9"/>
        <line class="fp-bowen-st0" x1="63.8" y1="362.8" x2="478" y2="362.8"/>
        <line class="fp-bowen-st0" x1="63.8" y1="370.6" x2="478" y2="370.6"/>
        <line class="fp-bowen-st0" x1="63.8" y1="378.5" x2="478" y2="378.5"/>
        <line class="fp-bowen-st0" x1="63.8" y1="386.3" x2="478" y2="386.3"/>
        <line class="fp-bowen-st0" x1="63.8" y1="394.2" x2="478" y2="394.2"/>
        <line class="fp-bowen-st0" x1="63.8" y1="402" x2="478" y2="402"/>
        <line class="fp-bowen-st0" x1="63.8" y1="409.9" x2="478" y2="409.9"/>
        <line class="fp-bowen-st0" x1="63.8" y1="417.7" x2="260.1" y2="417.7"/>
        <line class="fp-bowen-st0" x1="63.8" y1="425.6" x2="260.1" y2="425.6"/>
        <line class="fp-bowen-st0" x1="63.8" y1="433.4" x2="260.1" y2="433.4"/>
        <line class="fp-bowen-st0" x1="63.8" y1="441.3" x2="260.1" y2="441.3"/>
        <line class="fp-bowen-st0" x1="63.8" y1="449.1" x2="260.1" y2="449.1"/>
        <polygon class="fp-bowen-st1" points="265.7,143 63.4,143 63.4,266.5 63.4,273.1 63.4,309.8 122,309.8 122,273.1 265.7,273.1       "/>
        <polygon class="fp-bowen-st1" points="388.1,309.3 356.9,309.3 270.3,309.3 270.3,361.3 356.9,361.3 356.9,416.1 478,416.1 478,309.3       "/>
        <rect x="285.2" y="173.1" class="fp-bowen-st2" width="1.3" height="2.3"/>
        <rect x="285.2" y="189.3" class="fp-bowen-st2" width="1.3" height="3.7"/>
        <line class="fp-bowen-st3" x1="283.4" y1="189.7" x2="283.4" y2="174.9"/>
        <line class="fp-bowen-st3" x1="285.8" y1="189.3" x2="285.8" y2="175.3"/>
        <polyline class="fp-bowen-st3" points="285.2,189.6 268.9,189.6 268.9,174.9 285.2,174.9       "/>
        <path class="fp-bowen-st4" d="M287.2,189.3c3.4-0.1,6.7-1.3,9.2-3.6"/>
        
            <rect x="291.4" y="173.5" transform="matrix(0.7071 -0.7071 0.7071 0.7071 -42.1622 259.1651)" class="fp-bowen-st5" width="0.8" height="14"/>
        <rect x="269.5" y="180.1" class="fp-bowen-st6" width="12.9" height="4.6"/>
        <g class="fp-bowen-st7">
            <path class="fp-bowen-st8" d="M270.1,181.3h0.8c0.5,0,0.7,0.3,0.7,0.7v0c0,0.4-0.4,0.7-0.8,0.7h-0.4v0.6h-0.3V181.3z M270.8,182.4
                c0.3,0,0.4-0.1,0.4-0.4v0c0-0.2-0.2-0.4-0.4-0.4h-0.4v0.7H270.8z"/>
        </g>
        <g class="fp-bowen-st7">
            <path class="fp-bowen-st8" d="M272.5,181.3h0.3l0.9,2h-0.4l-0.2-0.5h-0.9l-0.2,0.5h-0.4L272.5,181.3z M273,182.5l-0.3-0.8l-0.3,0.8H273z"
                />
            <path class="fp-bowen-st8" d="M274.2,181.3h0.3l1.1,1.4v-1.4h0.3v2h-0.3l-1.1-1.4v1.4h-0.3V181.3z"/>
            <path class="fp-bowen-st8" d="M277,181.7h-0.6v-0.3h1.6v0.3h-0.6v1.6H277V181.7z"/>
        </g>
        <g class="fp-bowen-st7">
            <path class="fp-bowen-st8" d="M278.4,181.3h0.9c0.2,0,0.4,0.1,0.6,0.2c0.1,0.1,0.2,0.3,0.2,0.4v0c0,0.3-0.2,0.5-0.5,0.6l0.5,0.7h-0.4
                l-0.5-0.7h-0.4v0.7h-0.3V181.3z M279.3,182.3c0.2,0,0.4-0.1,0.4-0.3v0c0-0.2-0.2-0.3-0.4-0.3h-0.5v0.7H279.3z"/>
        </g>
        <g class="fp-bowen-st7">
            <path class="fp-bowen-st8" d="M281.1,182.5l-0.8-1.2h0.4l0.5,0.9l0.6-0.9h0.4l-0.8,1.2v0.8h-0.3V182.5z"/>
        </g>
        <rect x="265" y="190.4" class="fp-bowen-st9" width="21.4" height="68.7"/>
        <polygon class="fp-bowen-st10" points="287.3,210.3 288.1,210.3 288.1,235.8 265,235.8 265,210.3       "/>
        <circle class="fp-bowen-st10" cx="274.1" cy="230.3" r="3.8"/>
        <circle class="fp-bowen-st10" cx="283.1" cy="230.3" r="2.9"/>
        <circle class="fp-bowen-st10" cx="283.1" cy="215.9" r="2.5"/>
        <circle class="fp-bowen-st10" cx="274.1" cy="215.9" r="2.5"/>
        <line class="fp-bowen-st3" x1="269" y1="235.8" x2="269" y2="210.3"/>
        <polygon class="fp-bowen-st11" points="118,362.2 153.5,362.2 153.5,344 118,344       "/>
        <path class="fp-bowen-st11" d="M124.2,345.8h11.1c1.2,0,2.2,1,2.2,2.2v7.1c0,1.2-1,2.2-2.2,2.2h-11.1c-1.2,0-2.2-1-2.2-2.2v-7.1
            C122,346.7,123,345.8,124.2,345.8z"/>
        <circle class="fp-bowen-st11" cx="129.7" cy="353.2" r="1.3"/>
        <polygon class="fp-bowen-st11" points="292.9,415.8 340.2,415.8 340.2,397.6 292.8,397.6       "/>
        <path class="fp-bowen-st11" d="M311,399.4h11.1c1.2,0,2.2,1,2.2,2.2v7.1c0,1.2-1,2.2-2.2,2.2H311c-1.2,0-2.2-1-2.2-2.2v-7.1
            C308.8,400.3,309.8,399.4,311,399.4z"/>
        <circle class="fp-bowen-st11" cx="316.5" cy="406.8" r="1.3"/>
        <rect x="65.4" y="310.6" class="fp-bowen-st11" width="29.7" height="48.5"/>
        <path class="fp-bowen-st11" d="M80.6,314.2c0,0-11.6-0.2-11.6,4.4v34.6c0,0-0.2,3.7,3.4,3.7h16.3c3.6,0,3.4-3.7,3.4-3.7v-34.6
            C92.2,314,80.7,314.2,80.6,314.2L80.6,314.2z"/>
        <path class="fp-bowen-st11" d="M80.7,355.2c0.8,0,1.5,0.3,2.1,0.8l-2.1,2.3h-0.1l-2.1-2.3C79.2,355.5,80,355.2,80.7,355.2"/>
        <rect x="63.6" y="357.5" class="fp-bowen-st8" width="33" height="4.7"/>
        <rect x="238.5" y="361.4" class="fp-bowen-st11" width="29.7" height="48.5"/>
        <path class="fp-bowen-st11" d="M253.7,365c0,0-11.6-0.2-11.6,4.4V404c0,0-0.2,3.7,3.4,3.7h16.3c3.6,0,3.4-3.7,3.4-3.7v-34.5
            C265.3,364.9,253.7,365,253.7,365L253.7,365z"/>
        <path class="fp-bowen-st11" d="M253.8,406.1c0.8,0,1.5,0.3,2.1,0.8l-2.1,2.3h-0.1l-2.1-2.3C252.3,406.3,253,406.1,253.8,406.1"/>
        <rect x="236.7" y="408.4" class="fp-bowen-st8" width="33.1" height="4.7"/>
        <polyline class="fp-bowen-st12" points="97.3,361.8 97.3,357.6 117.3,357.6 117.3,361.8        "/>
        <path class="fp-bowen-st12" d="M102.9,347.9c0.2,0.4,0.3,0.9,0.3,1.3v2.5c0,0.4-0.3,0.8-0.7,0.8c0,0-0.1,0-0.1,0h9.8
            c-0.4,0-0.8-0.3-0.8-0.7c0,0,0-0.1,0-0.1v-2.5c0-0.4,0.1-0.9,0.3-1.3"/>
        <ellipse class="fp-bowen-st12" cx="107.3" cy="343.1" rx="5.7" ry="7.6"/>
        <rect x="98.8" y="352.5" class="fp-bowen-st12" width="17.1" height="5.5"/>
        <polyline class="fp-bowen-st12" points="270.5,415 270.5,410.7 290.6,410.7 290.6,415      "/>
        <path class="fp-bowen-st12" d="M276.1,401c0.2,0.4,0.3,0.9,0.3,1.3v2.5c0,0.4-0.3,0.8-0.7,0.8c0,0-0.1,0-0.1,0h9.8c-0.4,0-0.8-0.3-0.8-0.7
            c0,0,0-0.1,0-0.1v-2.5c0-0.4,0.1-0.9,0.3-1.3"/>
        <ellipse class="fp-bowen-st12" cx="280.5" cy="396.3" rx="5.7" ry="7.6"/>
        <rect x="272" y="405.6" class="fp-bowen-st12" width="17.1" height="5.5"/>
        <polyline class="fp-bowen-st13" points="400.1,143 400.1,125.4 496.7,125.4 496.7,222.8 477.6,222.8        "/>
        <line class="fp-bowen-st14" x1="445.5" y1="188.5" x2="448.5" y2="191.5"/>
        <line class="fp-bowen-st14" x1="425.1" y1="168.1" x2="431" y2="174"/>
        <polyline class="fp-bowen-st14" points="364.8,143 400,143 410.6,153.6        "/>
        <line class="fp-bowen-st14" x1="256.4" y1="143" x2="314.9" y2="143"/>
        <line class="fp-bowen-st14" x1="129.7" y1="143" x2="188.7" y2="143"/>
        <polyline class="fp-bowen-st14" points="203.2,455.5 63.4,455.5 63.4,143 63.4,143 79.8,143        "/>
        <polyline class="fp-bowen-st14" points="478,406.5 478,416.1 260.1,416.1 260.1,455.5 233.1,455.5      "/>
        <line class="fp-bowen-st14" x1="478" y1="298.4" x2="478" y2="338.8"/>
        <polyline class="fp-bowen-st14" points="468.8,211.8 478,220.9 478,248.5      "/>
        <line class="fp-bowen-st15" x1="388" y1="309.3" x2="478.1" y2="309.3"/>
        <line class="fp-bowen-st15" x1="362" y1="309.3" x2="238.4" y2="309.3"/>
        <line class="fp-bowen-st15" x1="356.9" y1="309.3" x2="356.9" y2="366.8"/>
        <line class="fp-bowen-st15" x1="356.9" y1="361.3" x2="326" y2="361.3"/>
        <line class="fp-bowen-st15" x1="300" y1="361.3" x2="237.6" y2="361.3"/>
        <line class="fp-bowen-st15" x1="270.3" y1="361.3" x2="270.3" y2="309.3"/>
        <line class="fp-bowen-st15" x1="238.4" y1="355.5" x2="238.4" y2="424.1"/>
        <line class="fp-bowen-st15" x1="238.4" y1="305" x2="238.4" y2="315.2"/>
        <line class="fp-bowen-st15" x1="292.1" y1="305" x2="292.1" y2="309.3"/>
        <polyline class="fp-bowen-st15" points="292.1,277.1 292.1,260.6 266,260.6        "/>
        <line class="fp-bowen-st15" x1="238.4" y1="444.7" x2="238.4" y2="455.5"/>
        <line class="fp-bowen-st15" x1="239.4" y1="416.5" x2="260.1" y2="416.5"/>
        <line class="fp-bowen-st15" x1="356.9" y1="393.2" x2="356.9" y2="415.7"/>
        <line class="fp-bowen-st15" x1="163.7" y1="143" x2="163.7" y2="273"/>
        <polyline class="fp-bowen-st15" points="194.4,273.1 265.7,273.1 265.7,143        "/>
        <line class="fp-bowen-st15" x1="158.8" y1="273.1" x2="168.6" y2="273.1"/>
        <line class="fp-bowen-st15" x1="121.8" y1="273.1" x2="133.3" y2="273.1"/>
        <polyline class="fp-bowen-st15" points="199.1,273.1 199.1,251.6 209.9,251.6      "/>
        <line class="fp-bowen-st15" x1="254.6" y1="251.6" x2="265.4" y2="251.6"/>
        <polyline class="fp-bowen-st15" points="292.1,273.1 286.5,273.1 286.5,260.6      "/>
        <polyline class="fp-bowen-st15" points="94.2,247.4 122,247.4 122,309.6       "/>
        <line class="fp-bowen-st15" x1="139.3" y1="309.7" x2="63.3" y2="309.7"/>
        <polyline class="fp-bowen-st15" points="165.8,309.7 200.2,309.7 200.2,305        "/>
        <line class="fp-bowen-st15" x1="238.4" y1="277.5" x2="238.4" y2="273.1"/>
        <line class="fp-bowen-st15" x1="200.2" y1="277.5" x2="200.2" y2="273.1"/>
        <line class="fp-bowen-st15" x1="185.7" y1="362" x2="63.4" y2="362"/>
        <line class="fp-bowen-st15" x1="169.6" y1="309.7" x2="169.6" y2="362"/>
        <line class="fp-bowen-st15" x1="180.2" y1="447.8" x2="180.2" y2="455.5"/>
        <line class="fp-bowen-st15" x1="180.2" y1="361.3" x2="180.2" y2="369"/>
        <line class="fp-bowen-st15" x1="91.5" y1="361.3" x2="91.5" y2="366.8"/>
        <line class="fp-bowen-st15" x1="91.5" y1="391.3" x2="91.5" y2="411.7"/>
        <line class="fp-bowen-st15" x1="91.5" y1="440" x2="91.5" y2="456.1"/>
        <rect x="169.6" y="335.1" class="fp-bowen-st15" width="13.9" height="6.8"/>
        <polyline class="fp-bowen-st15" points="183.4,309.7 183.4,315 169.6,315      "/>
        <line class="fp-bowen-st15" x1="91.5" y1="396" x2="63.4" y2="396"/>
        <line class="fp-bowen-st15" x1="68.4" y1="247.4" x2="63.4" y2="247.4"/>
        <rect x="238.4" y="411.5" class="fp-bowen-st8" width="25.4" height="4.5"/>
        <rect x="268.9" y="147.8" class="fp-bowen-st10" width="25.5" height="26.6"/>
        <rect x="325.4" y="175.6" class="fp-bowen-st9" width="34.7" height="75.6"/>
        <line class="fp-bowen-st16" x1="349.8" y1="175.6" x2="349.8" y2="251.2"/>
        <path class="fp-bowen-st10" d="M339.8,225.3H329c-1.3,0-2.3-1-2.3-2.3v-19.2c0-1.3,1-2.3,2.3-2.3h10.8c1.3,0,2.3,1,2.3,2.3V223
            C342,224.3,341,225.3,339.8,225.3z"/>
        <circle class="fp-bowen-st10" cx="334.4" cy="213.4" r="1.3"/>
        <line class="fp-bowen-st17" x1="188.7" y1="143" x2="256.4" y2="143"/>
        <rect x="241.1" y="140.4" class="fp-bowen-st8" width="0.8" height="5.1"/>
        <rect x="203.1" y="140.4" class="fp-bowen-st8" width="0.8" height="5.1"/>
        <line class="fp-bowen-st17" x1="129.7" y1="143" x2="79.8" y2="143"/>
        <rect x="95.4" y="140.4" class="fp-bowen-st8" width="0.8" height="5.1"/>
        <rect x="79.8" y="142.6" class="fp-bowen-st8" width="49.9" height="0.7"/>
        <rect x="79.8" y="140.1" class="fp-bowen-st8" width="49.9" height="0.7"/>
        <rect x="79.8" y="145.1" class="fp-bowen-st8" width="49.9" height="0.7"/>
        <line class="fp-bowen-st17" x1="478" y1="298.4" x2="478" y2="248.5"/>
        <rect x="475.5" y="264.1" class="fp-bowen-st8" width="5" height="0.8"/>
        <rect x="477.6" y="248.5" class="fp-bowen-st8" width="0.7" height="50"/>
        <rect x="480.2" y="248.5" class="fp-bowen-st8" width="0.7" height="50"/>
        <rect x="475.1" y="248.5" class="fp-bowen-st8" width="0.7" height="50"/>
        <rect x="188.7" y="142.6" class="fp-bowen-st8" width="67.7" height="0.7"/>
        <rect x="188.7" y="140.1" class="fp-bowen-st8" width="67.7" height="0.7"/>
        <rect x="188.7" y="145.1" class="fp-bowen-st8" width="67.7" height="0.7"/>
        <line class="fp-bowen-st17" x1="478" y1="338.8" x2="478" y2="406.5"/>
        <rect x="475.5" y="391.3" class="fp-bowen-st8" width="5.1" height="0.8"/>
        <rect x="475.5" y="353.2" class="fp-bowen-st8" width="5.1" height="0.8"/>
        <rect x="477.6" y="338.8" class="fp-bowen-st8" width="0.7" height="67.7"/>
        <rect x="480.2" y="338.8" class="fp-bowen-st8" width="0.7" height="67.7"/>
        <rect x="475.1" y="338.8" class="fp-bowen-st8" width="0.7" height="67.7"/>
        <line class="fp-bowen-st17" x1="314.9" y1="143" x2="364.8" y2="143"/>
        <rect x="348.4" y="140.4" class="fp-bowen-st8" width="0.8" height="5"/>
        <rect x="314.9" y="142.6" class="fp-bowen-st8" width="50" height="0.7"/>
        <rect x="314.9" y="145.1" class="fp-bowen-st8" width="50" height="0.7"/>
        <rect x="314.9" y="140.1" class="fp-bowen-st8" width="50" height="0.7"/>
        <rect x="157.6" y="245.4" class="fp-bowen-st18" width="1.3" height="24.1"/>
        <path class="fp-bowen-st19" d="M157.6,245.4c-13.4,0-24.3,10.9-24.3,24.3"/>
        <rect x="329.7" y="366.9" class="fp-bowen-st18" width="24.1" height="1.3"/>
        <path class="fp-bowen-st19" d="M329.7,368.2c0,13.4,10.9,24.3,24.3,24.3"/>
        <rect x="362.2" y="312.2" class="fp-bowen-st18" width="1.3" height="24.1"/>
        <path class="fp-bowen-st19" d="M363.5,336.3c13.4,0,24.3-10.9,24.3-24.3"/>
        <rect x="68.6" y="250.3" class="fp-bowen-st18" width="1.3" height="24.1"/>
        <path class="fp-bowen-st19" d="M69.9,274.3c13.4,0,24.3-10.9,24.3-24.3"/>
        <rect x="168.8" y="245.4" class="fp-bowen-st18" width="1.3" height="24.1"/>
        <path class="fp-bowen-st19" d="M170,245.4c13.4,0,24.3,10.9,24.3,24.3"/>
        <rect x="164" y="312.5" class="fp-bowen-st18" width="1.3" height="24.1"/>
        <path class="fp-bowen-st19" d="M164,336.6c-13.4,0-24.3-10.9-24.3-24.3"/>
        <rect x="300" y="334.2" class="fp-bowen-st18" width="1.3" height="24.1"/>
        <path class="fp-bowen-st19" d="M301.3,334.2c13.4,0,24.3,10.9,24.3,24.3"/>
        <path class="fp-bowen-st20" d="M234.9,335.2c0,0-7.6-0.1-13.1,5.1"/>
        
            <rect x="227.9" y="337.8" transform="matrix(0.7071 -0.7071 0.7071 0.7071 -178.9863 263.3973)" class="fp-bowen-st21" width="1.1" height="19.8"/>
        <path class="fp-bowen-st20" d="M234.9,335.2c0,0-7.6,0.1-13.1-5.1"/>
        
            <rect x="218.6" y="322.1" transform="matrix(0.7071 -0.7071 0.7071 0.7071 -161.2641 256.065)" class="fp-bowen-st21" width="19.8" height="1.1"/>
        <path class="fp-bowen-st20" d="M232.4,248.7c0,0,0.1-8.2-5.6-14.3"/>
        
            <rect x="207.9" y="241.1" transform="matrix(0.7071 -0.7071 0.7071 0.7071 -106.8349 225.45)" class="fp-bowen-st21" width="21.6" height="1.2"/>
        <path class="fp-bowen-st20" d="M232.4,248.7c0,0-0.1-8.2,5.6-14.3"/>
        
            <rect x="245.4" y="230.9" transform="matrix(0.7071 -0.7071 0.7071 0.7071 -98.8405 244.7638)" class="fp-bowen-st21" width="1.2" height="21.6"/>
        <path class="fp-bowen-st19" d="M203.8,454.2c0-4.5-0.2-11.5,8.4-20"/>
        
            <rect x="221" y="430.5" transform="matrix(0.7071 -0.7071 0.7071 0.7071 -249.6681 287.1639)" class="fp-bowen-st18" width="1.5" height="28.9"/>
        <path class="fp-bowen-st19" d="M235.2,424c-3.2,0-8.2-0.1-14.2,6"/>
        
            <rect x="228.1" y="426.6" transform="matrix(0.7071 -0.7071 0.7071 0.7071 -241.9401 289.5903)" class="fp-bowen-st18" width="1.1" height="20.4"/>
        <path class="fp-bowen-st19" d="M94.9,391.3c3.8,0,9.7,0.2,16.9-7.1"/>
        
            <rect x="102.1" y="363.9" transform="matrix(0.7071 -0.7071 0.7071 0.7071 -235.8223 182.8191)" class="fp-bowen-st18" width="1.3" height="24.3"/>
        <path class="fp-bowen-st19" d="M95.4,411.8c4.4,0,11.3-0.2,19.6,8.2"/>
        
            <rect x="90.4" y="428.7" transform="matrix(0.7071 -0.7071 0.7071 0.7071 -273.0684 199.6976)" class="fp-bowen-st18" width="28.2" height="1.5"/>
        
            <rect x="464.8" y="200.6" transform="matrix(0.7071 -0.7071 0.7071 0.7071 -2.3439 396.8254)" class="fp-bowen-st18" width="26.2" height="1.4"/>
        <path class="fp-bowen-st19" d="M486.6,191.5c-10.3-10.3-27-10.3-37.3,0"/>
        <line class="fp-bowen-st19" x1="483.5" y1="194.6" x2="484.4" y2="195.6"/>
        <line class="fp-bowen-st19" x1="471.2" y1="206.9" x2="472.2" y2="207.9"/>
        <line class="fp-bowen-st19" x1="484" y1="195.1" x2="471.7" y2="207.4"/>
        <rect x="243.3" y="314.9" class="fp-bowen-st12" width="22" height="19.8"/>
        <line class="fp-bowen-st22" x1="263" y1="314.9" x2="263" y2="334.7"/>
        <rect x="243.3" y="335.8" class="fp-bowen-st12" width="22" height="19.8"/>
        <line class="fp-bowen-st22" x1="263" y1="335.7" x2="263" y2="355.5"/>
        <rect x="389" y="217.4" class="fp-bowen-st6" width="53.3" height="14.9"/>
        <rect x="394.8" y="226.4" class="fp-bowen-st6" width="41.6" height="14.9"/>
        <g class="fp-bowen-st7">
            <path class="fp-bowen-st8" d="M395.9,219.9h1.3v6.4h4v1.2h-5.3V219.9z"/>
            <path class="fp-bowen-st8" d="M403.1,219.9h1.3v7.6h-1.3V219.9z"/>
            <path class="fp-bowen-st8" d="M406.3,219.9h1.5l2.3,5.8l2.3-5.8h1.4l-3.1,7.6h-1.2L406.3,219.9z"/>
            <path class="fp-bowen-st8" d="M415.6,219.9h1.3v7.6h-1.3V219.9z"/>
            <path class="fp-bowen-st8" d="M419.4,219.9h1.2l4.1,5.2v-5.2h1.3v7.6h-1.1l-4.2-5.4v5.4h-1.3V219.9z"/>
            <path class="fp-bowen-st8" d="M428,223.7L428,223.7c0-2.1,1.6-3.9,3.9-3.9c1.3,0,2.1,0.4,2.9,1l-0.8,1c-0.6-0.5-1.2-0.8-2.1-0.8
                c-1.4,0-2.5,1.2-2.5,2.7v0c0,1.6,1,2.7,2.6,2.7c0.7,0,1.4-0.2,1.8-0.6v-1.4h-1.9v-1.2h3.2v3.2c-0.7,0.6-1.8,1.2-3.2,1.2
                C429.6,227.6,428,225.9,428,223.7z"/>
        </g>
        <g class="fp-bowen-st7">
            <path class="fp-bowen-st8" d="M398,233.8l-0.8,0.2l-0.2-0.6l1.2-0.4h0.5v4.5H398V233.8z"/>
            <path class="fp-bowen-st8" d="M399.9,236.9l1.5-1.3c0.6-0.5,0.8-0.8,0.8-1.2c0-0.4-0.3-0.7-0.7-0.7s-0.7,0.2-1,0.7l-0.6-0.4
                c0.4-0.6,0.9-0.9,1.7-0.9c0.9,0,1.5,0.5,1.5,1.3v0c0,0.7-0.4,1.1-1.2,1.7l-0.9,0.8h2.1v0.7h-3.3V236.9z"/>
            <path class="fp-bowen-st8" d="M404.1,234.5c0.4-0.1,0.6-0.3,0.6-0.6h-0.3v-0.9h0.9v0.8c0,0.7-0.3,1-1,1.1L404.1,234.5z"/>
            <path class="fp-bowen-st8" d="M409.1,233.8l-0.8,0.2l-0.2-0.6l1.2-0.4h0.5v4.5h-0.8V233.8z"/>
            <path class="fp-bowen-st8" d="M411.9,233.8l-0.8,0.2l-0.2-0.6l1.2-0.4h0.5v4.5h-0.8V233.8z"/>
            <path class="fp-bowen-st8" d="M413.8,234.5c0.4-0.1,0.6-0.3,0.6-0.6h-0.3v-0.9h0.9v0.8c0,0.7-0.3,1-1,1.1L413.8,234.5z M415.3,234.5
                c0.4-0.1,0.6-0.3,0.5-0.6h-0.3v-0.9h0.9v0.8c0,0.7-0.3,1-1,1.1L415.3,234.5z"/>
            <path class="fp-bowen-st8" d="M421.1,235.3l0.8-1.1h0.8l-1.2,1.7l1.2,1.7h-0.8l-0.8-1.2l-0.8,1.2h-0.8l1.2-1.7l-1.2-1.7h0.8L421.1,235.3z"
                />
            <path class="fp-bowen-st8" d="M426.6,233.8l-0.8,0.2l-0.2-0.6l1.2-0.4h0.5v4.5h-0.8V233.8z"/>
            <path class="fp-bowen-st8" d="M430.9,233.7h-2.3v-0.7h3.2v0.6l-2,3.9h-0.9L430.9,233.7z"/>
            <path class="fp-bowen-st8" d="M432.7,234.5c0.4-0.1,0.6-0.3,0.6-0.6h-0.3v-0.9h0.9v0.8c0,0.7-0.3,1-1,1.1L432.7,234.5z"/>
        </g>
        <rect x="303.6" y="257.6" class="fp-bowen-st6" width="59" height="21.8"/>
        <g class="fp-bowen-st7">
            <path class="fp-bowen-st8" d="M307.5,260.1h1.3v3.8l3.6-3.8h1.6l-3.2,3.3l3.3,4.3h-1.6l-2.6-3.4l-1.2,1.2v2.2h-1.3V260.1z"/>
            <path class="fp-bowen-st8" d="M315.9,260.1h1.3v7.6h-1.3V260.1z"/>
        </g>
        <g class="fp-bowen-st7">
            <path class="fp-bowen-st8" d="M321.6,261.3h-2.4v-1.2h6.2v1.2h-2.4v6.3h-1.3V261.3z"/>
        </g>
        <g class="fp-bowen-st7">
            <path class="fp-bowen-st8" d="M326.4,263.9L326.4,263.9c0-2.2,1.6-3.9,3.9-3.9c1.4,0,2.2,0.5,3,1.2l-0.9,1c-0.6-0.6-1.3-0.9-2.1-0.9
                c-1.4,0-2.5,1.2-2.5,2.7v0c0,1.5,1.1,2.7,2.5,2.7c0.9,0,1.5-0.4,2.2-1l0.9,0.9c-0.8,0.8-1.7,1.3-3.1,1.3
                C328.1,267.8,326.4,266.1,326.4,263.9z"/>
            <path class="fp-bowen-st8" d="M335.2,260.1h1.3v3.2h3.6v-3.2h1.3v7.6h-1.3v-3.2h-3.6v3.2h-1.3V260.1z"/>
            <path class="fp-bowen-st8" d="M343.9,260.1h5.6v1.2h-4.3v2h3.8v1.2h-3.8v2h4.3v1.2h-5.7V260.1z"/>
            <path class="fp-bowen-st8" d="M351.5,260.1h1.2l4.1,5.2v-5.2h1.3v7.6H357l-4.2-5.4v5.4h-1.3V260.1z"/>
        </g>
        <g class="fp-bowen-st7">
            <path class="fp-bowen-st8" d="M312.2,276.5L312.2,276.5c0-0.6,0.3-0.9,0.8-1.1c-0.4-0.2-0.7-0.5-0.7-1v0c0-0.7,0.7-1.2,1.6-1.2
                s1.6,0.5,1.6,1.2v0c0,0.5-0.3,0.8-0.7,1c0.5,0.2,0.8,0.5,0.8,1.1v0c0,0.8-0.7,1.3-1.7,1.3C313,277.8,312.2,277.3,312.2,276.5z
                 M314.9,276.5L314.9,276.5c0-0.4-0.4-0.7-0.9-0.7s-0.9,0.3-0.9,0.7v0c0,0.4,0.3,0.7,0.9,0.7C314.5,277.2,314.9,276.9,314.9,276.5
                z M314.8,274.5L314.8,274.5c0-0.4-0.3-0.6-0.8-0.6c-0.5,0-0.8,0.3-0.8,0.6v0c0,0.4,0.3,0.7,0.8,0.7
                C314.4,275.2,314.8,274.9,314.8,274.5z"/>
            <path class="fp-bowen-st8" d="M316.5,274.8c0.4-0.1,0.6-0.3,0.6-0.6h-0.3v-0.9h0.9v0.8c0,0.7-0.3,1-1,1.1L316.5,274.8z"/>
            <path class="fp-bowen-st8" d="M323.1,274h-2.3v-0.7h3.2v0.6l-2,3.9h-0.9L323.1,274z"/>
            <path class="fp-bowen-st8" d="M324.8,274.8c0.4-0.1,0.6-0.3,0.6-0.6h-0.3v-0.9h0.9v0.8c0,0.7-0.3,1-1,1.1L324.8,274.8z M326.3,274.8
                c0.4-0.1,0.6-0.3,0.5-0.6h-0.3v-0.9h0.9v0.8c0,0.7-0.3,1-1,1.1L326.3,274.8z"/>
            <path class="fp-bowen-st8" d="M332.1,275.5l0.8-1.1h0.8l-1.2,1.7l1.2,1.7h-0.8l-0.8-1.2l-0.8,1.2h-0.8l1.2-1.7l-1.2-1.7h0.8L332.1,275.5z"
                />
            <path class="fp-bowen-st8" d="M337.6,274l-0.8,0.2l-0.2-0.6l1.2-0.4h0.5v4.5h-0.8V274z"/>
            <path class="fp-bowen-st8" d="M340.4,274l-0.8,0.2l-0.2-0.6l1.2-0.4h0.5v4.5h-0.8V274z"/>
            <path class="fp-bowen-st8" d="M342.3,274.8c0.4-0.1,0.6-0.3,0.6-0.6h-0.3v-0.9h0.9v0.8c0,0.7-0.3,1-1,1.1L342.3,274.8z"/>
            <path class="fp-bowen-st8" d="M347.1,277.4c-0.3-0.3-0.5-0.8-0.5-1.7v0c0-1.4,0.7-2.4,1.9-2.4c0.6,0,1,0.2,1.4,0.5l-0.4,0.6
                c-0.3-0.2-0.6-0.4-1-0.4c-0.8,0-1.1,0.8-1.1,1.4c0.3-0.3,0.6-0.5,1.1-0.5c0.9,0,1.6,0.5,1.6,1.4v0c0,0.9-0.7,1.5-1.7,1.5
                C347.8,277.8,347.4,277.7,347.1,277.4z M349.2,276.4L349.2,276.4c0-0.5-0.4-0.8-0.9-0.8s-0.9,0.4-0.9,0.8v0
                c0,0.5,0.4,0.8,0.9,0.8S349.2,276.8,349.2,276.4z"/>
            <path class="fp-bowen-st8" d="M350.9,274.8c0.4-0.1,0.6-0.3,0.6-0.6h-0.3v-0.9h0.9v0.8c0,0.7-0.3,1-1,1.1L350.9,274.8z M352.4,274.8
                c0.4-0.1,0.6-0.3,0.5-0.6h-0.3v-0.9h0.9v0.8c0,0.7-0.3,1-1,1.1L352.4,274.8z"/>
        </g>
        <g class="fp-bowen-st7">
            <path class="fp-bowen-st8" d="M85,188.4h3.4c0.9,0,1.5,0.2,2,0.7c0.3,0.3,0.5,0.7,0.5,1.3v0c0,0.9-0.5,1.4-1.1,1.7
                c0.9,0.3,1.5,0.8,1.5,1.8v0c0,1.4-1.1,2.1-2.8,2.1H85V188.4z M89.6,190.5c0-0.6-0.5-1-1.3-1h-1.9v2h1.8
                C89,191.6,89.6,191.3,89.6,190.5L89.6,190.5z M88.4,192.7h-2.1v2.1h2.2c0.9,0,1.5-0.4,1.5-1v0C90,193.1,89.5,192.7,88.4,192.7z"
                />
            <path class="fp-bowen-st8" d="M93.3,188.4h5.6v1.2h-4.3v2h3.8v1.2h-3.8v2H99v1.2h-5.7V188.4z"/>
            <path class="fp-bowen-st8" d="M101,188.4h2.8c2.4,0,4,1.6,4,3.8v0c0,2.1-1.6,3.8-4,3.8H101V188.4z M102.3,189.6v5.2h1.5
                c1.6,0,2.6-1.1,2.6-2.6v0c0-1.5-1-2.6-2.6-2.6H102.3z"/>
            <path class="fp-bowen-st8" d="M109.9,188.4h3.4c1,0,1.7,0.3,2.2,0.8c0.4,0.4,0.6,1,0.6,1.6v0c0,1.2-0.7,2-1.8,2.3l2,2.9h-1.6l-1.9-2.6
                h-1.7v2.6h-1.3V188.4z M113.2,192.2c1,0,1.6-0.5,1.6-1.3v0c0-0.8-0.6-1.3-1.6-1.3h-1.9v2.5H113.2z"/>
            <path class="fp-bowen-st8" d="M117.8,192.2L117.8,192.2c0-2.2,1.6-3.9,4-3.9s4,1.8,4,3.9v0c0,2.1-1.6,3.9-4,3.9
                C119.4,196.1,117.8,194.3,117.8,192.2z M124.3,192.2L124.3,192.2c0-1.5-1.1-2.7-2.6-2.7c-1.5,0-2.6,1.2-2.6,2.7v0
                c0,1.5,1.1,2.7,2.6,2.7S124.3,193.7,124.3,192.2z"/>
            <path class="fp-bowen-st8" d="M127.5,192.2L127.5,192.2c0-2.2,1.6-3.9,4-3.9s4,1.8,4,3.9v0c0,2.1-1.6,3.9-4,3.9
                C129.1,196.1,127.5,194.3,127.5,192.2z M134,192.2L134,192.2c0-1.5-1.1-2.7-2.6-2.7c-1.5,0-2.6,1.2-2.6,2.7v0
                c0,1.5,1.1,2.7,2.6,2.7S134,193.7,134,192.2z"/>
            <path class="fp-bowen-st8" d="M137.4,188.4h1.4l2.3,3.6l2.3-3.6h1.4v7.6h-1.3v-5.4l-2.4,3.6h0l-2.4-3.6v5.4h-1.3V188.4z"/>
        </g>
        <g class="fp-bowen-st7">
            <path class="fp-bowen-st8" d="M99.6,202.4l-0.8,0.2l-0.2-0.6l1.2-0.4h0.5v4.5h-0.8V202.4z"/>
            <path class="fp-bowen-st8" d="M102.4,202.4l-0.8,0.2l-0.2-0.6l1.2-0.4h0.5v4.5h-0.8V202.4z"/>
            <path class="fp-bowen-st8" d="M104.3,203.1c0.4-0.1,0.6-0.3,0.6-0.6h-0.3v-0.9h0.9v0.8c0,0.7-0.3,1-1,1.1L104.3,203.1z"/>
            <path class="fp-bowen-st8" d="M110.1,203.8l0.8-1.1h0.8l-1.2,1.7l1.2,1.7h-0.8l-0.8-1.2l-0.8,1.2h-0.8l1.2-1.7l-1.2-1.7h0.8L110.1,203.8z"
                />
            <path class="fp-bowen-st8" d="M115.5,202.4l-0.8,0.2l-0.2-0.6l1.2-0.4h0.5v4.5h-0.8V202.4z"/>
            <path class="fp-bowen-st8" d="M118.3,202.4l-0.8,0.2l-0.2-0.6l1.2-0.4h0.5v4.5h-0.8V202.4z"/>
            <path class="fp-bowen-st8" d="M120.2,203.1c0.4-0.1,0.6-0.3,0.6-0.6h-0.3v-0.9h0.9v0.8c0,0.7-0.3,1-1,1.1L120.2,203.1z"/>
            <path class="fp-bowen-st8" d="M124.4,205.4l0.6-0.5c0.3,0.4,0.7,0.6,1.2,0.6c0.4,0,0.8-0.3,0.8-0.7v0c0-0.4-0.4-0.7-1-0.7h-0.4l-0.1-0.5
                l1.2-1.3h-1.9v-0.7h3v0.6l-1.3,1.3c0.7,0.1,1.3,0.4,1.3,1.3v0c0,0.8-0.6,1.4-1.6,1.4C125.4,206.2,124.8,205.8,124.4,205.4z"/>
            <path class="fp-bowen-st8" d="M128.7,203.1c0.4-0.1,0.6-0.3,0.6-0.6h-0.3v-0.9h0.9v0.8c0,0.7-0.3,1-1,1.1L128.7,203.1z M130.1,203.1
                c0.4-0.1,0.6-0.3,0.5-0.6h-0.3v-0.9h0.9v0.8c0,0.7-0.3,1-1,1.1L130.1,203.1z"/>
        </g>
        <g class="fp-bowen-st7">
            <path class="fp-bowen-st8" d="M184.1,188.4h3.4c0.9,0,1.5,0.2,2,0.7c0.3,0.3,0.5,0.7,0.5,1.3v0c0,0.9-0.5,1.4-1.1,1.7
                c0.9,0.3,1.5,0.8,1.5,1.8v0c0,1.4-1.1,2.1-2.8,2.1h-3.5V188.4z M188.7,190.5c0-0.6-0.5-1-1.3-1h-1.9v2h1.8
                C188.1,191.6,188.7,191.3,188.7,190.5L188.7,190.5z M187.5,192.7h-2.1v2.1h2.2c0.9,0,1.5-0.4,1.5-1v0
                C189.1,193.1,188.6,192.7,187.5,192.7z"/>
            <path class="fp-bowen-st8" d="M192.4,188.4h5.6v1.2h-4.3v2h3.8v1.2h-3.8v2h4.3v1.2h-5.7V188.4z"/>
            <path class="fp-bowen-st8" d="M200.1,188.4h2.8c2.4,0,4,1.6,4,3.8v0c0,2.1-1.6,3.8-4,3.8h-2.8V188.4z M201.4,189.6v5.2h1.5
                c1.6,0,2.6-1.1,2.6-2.6v0c0-1.5-1-2.6-2.6-2.6H201.4z"/>
            <path class="fp-bowen-st8" d="M209,188.4h3.4c1,0,1.7,0.3,2.2,0.8c0.4,0.4,0.6,1,0.6,1.6v0c0,1.2-0.7,2-1.8,2.3l2,2.9h-1.6l-1.9-2.6h-1.7
                v2.6H209V188.4z M212.3,192.2c1,0,1.6-0.5,1.6-1.3v0c0-0.8-0.6-1.3-1.6-1.3h-1.9v2.5H212.3z"/>
            <path class="fp-bowen-st8" d="M216.9,192.2L216.9,192.2c0-2.2,1.6-3.9,4-3.9s4,1.8,4,3.9v0c0,2.1-1.6,3.9-4,3.9
                C218.5,196.1,216.9,194.3,216.9,192.2z M223.4,192.2L223.4,192.2c0-1.5-1.1-2.7-2.6-2.7c-1.5,0-2.6,1.2-2.6,2.7v0
                c0,1.5,1.1,2.7,2.6,2.7S223.4,193.7,223.4,192.2z"/>
            <path class="fp-bowen-st8" d="M226.6,192.2L226.6,192.2c0-2.2,1.6-3.9,4-3.9s4,1.8,4,3.9v0c0,2.1-1.6,3.9-4,3.9
                C228.2,196.1,226.6,194.3,226.6,192.2z M233.1,192.2L233.1,192.2c0-1.5-1.1-2.7-2.6-2.7c-1.5,0-2.6,1.2-2.6,2.7v0
                c0,1.5,1.1,2.7,2.6,2.7S233.1,193.7,233.1,192.2z"/>
            <path class="fp-bowen-st8" d="M236.5,188.4h1.4l2.3,3.6l2.3-3.6h1.4v7.6h-1.3v-5.4l-2.4,3.6h0l-2.4-3.6v5.4h-1.3V188.4z"/>
        </g>
        <g class="fp-bowen-st7">
            <path class="fp-bowen-st8" d="M198.7,202.4l-0.8,0.2l-0.2-0.6l1.2-0.4h0.5v4.5h-0.8V202.4z"/>
            <path class="fp-bowen-st8" d="M201.5,202.4l-0.8,0.2l-0.2-0.6l1.2-0.4h0.5v4.5h-0.8V202.4z"/>
            <path class="fp-bowen-st8" d="M203.4,203.1c0.4-0.1,0.6-0.3,0.6-0.6h-0.3v-0.9h0.9v0.8c0,0.7-0.3,1-1,1.1L203.4,203.1z"/>
            <path class="fp-bowen-st8" d="M209.2,203.8l0.8-1.1h0.8l-1.2,1.7l1.2,1.7H210l-0.8-1.2l-0.8,1.2h-0.8l1.2-1.7l-1.2-1.7h0.8L209.2,203.8z"
                />
            <path class="fp-bowen-st8" d="M214.6,202.4l-0.8,0.2l-0.2-0.6l1.2-0.4h0.5v4.5h-0.8V202.4z"/>
            <path class="fp-bowen-st8" d="M217.4,202.4l-0.8,0.2l-0.2-0.6l1.2-0.4h0.5v4.5h-0.8V202.4z"/>
            <path class="fp-bowen-st8" d="M219.3,203.1c0.4-0.1,0.6-0.3,0.6-0.6h-0.3v-0.9h0.9v0.8c0,0.7-0.3,1-1,1.1L219.3,203.1z"/>
            <path class="fp-bowen-st8" d="M223.5,205.4l0.6-0.5c0.3,0.4,0.7,0.6,1.2,0.6c0.4,0,0.8-0.3,0.8-0.7v0c0-0.4-0.4-0.7-1-0.7h-0.4l-0.1-0.5
                l1.2-1.3h-1.9v-0.7h3v0.6l-1.3,1.3c0.7,0.1,1.3,0.4,1.3,1.3v0c0,0.8-0.6,1.4-1.6,1.4C224.5,206.2,223.9,205.8,223.5,205.4z"/>
            <path class="fp-bowen-st8" d="M227.7,203.1c0.4-0.1,0.6-0.3,0.6-0.6H228v-0.9h0.9v0.8c0,0.7-0.3,1-1,1.1L227.7,203.1z M229.2,203.1
                c0.4-0.1,0.6-0.3,0.5-0.6h-0.3v-0.9h0.9v0.8c0,0.7-0.3,1-1,1.1L229.2,203.1z"/>
        </g>
        <g class="fp-bowen-st7">
            <path class="fp-bowen-st8" d="M388.5,352.9h3.4c0.9,0,1.5,0.2,2,0.7c0.3,0.3,0.5,0.7,0.5,1.3v0c0,0.9-0.5,1.4-1.1,1.7
                c0.9,0.3,1.5,0.8,1.5,1.8v0c0,1.4-1.1,2.1-2.8,2.1h-3.5V352.9z M393.1,355.1c0-0.6-0.5-1-1.3-1h-1.9v2h1.8
                C392.5,356.1,393.1,355.8,393.1,355.1L393.1,355.1z M392,357.2h-2.1v2.1h2.2c0.9,0,1.5-0.4,1.5-1v0
                C393.5,357.6,393,357.2,392,357.2z"/>
            <path class="fp-bowen-st8" d="M396.8,352.9h5.6v1.2h-4.3v2h3.8v1.2h-3.8v2h4.3v1.2h-5.7V352.9z"/>
            <path class="fp-bowen-st8" d="M404.5,352.9h2.8c2.4,0,4,1.6,4,3.8v0c0,2.1-1.6,3.8-4,3.8h-2.8V352.9z M405.8,354.1v5.2h1.5
                c1.6,0,2.6-1.1,2.6-2.6v0c0-1.5-1-2.6-2.6-2.6H405.8z"/>
            <path class="fp-bowen-st8" d="M413.4,352.9h3.4c1,0,1.7,0.3,2.2,0.8c0.4,0.4,0.6,1,0.6,1.6v0c0,1.2-0.7,2-1.8,2.3l2,2.9h-1.6l-1.9-2.6
                h-1.7v2.6h-1.3V352.9z M416.7,356.7c1,0,1.6-0.5,1.6-1.3v0c0-0.8-0.6-1.3-1.6-1.3h-1.9v2.5H416.7z"/>
            <path class="fp-bowen-st8" d="M421.3,356.7L421.3,356.7c0-2.2,1.6-3.9,4-3.9s4,1.8,4,3.9v0c0,2.1-1.6,3.9-4,3.9
                C423,360.6,421.3,358.9,421.3,356.7z M427.9,356.7L427.9,356.7c0-1.5-1.1-2.7-2.6-2.7c-1.5,0-2.6,1.2-2.6,2.7v0
                c0,1.5,1.1,2.7,2.6,2.7S427.9,358.2,427.9,356.7z"/>
            <path class="fp-bowen-st8" d="M431,356.7L431,356.7c0-2.2,1.6-3.9,4-3.9s4,1.8,4,3.9v0c0,2.1-1.6,3.9-4,3.9
                C432.6,360.6,431,358.9,431,356.7z M437.5,356.7L437.5,356.7c0-1.5-1.1-2.7-2.6-2.7c-1.5,0-2.6,1.2-2.6,2.7v0
                c0,1.5,1.1,2.7,2.6,2.7S437.5,358.2,437.5,356.7z"/>
            <path class="fp-bowen-st8" d="M441,352.9h1.4l2.3,3.6l2.3-3.6h1.4v7.6h-1.3v-5.4l-2.4,3.6h0l-2.4-3.6v5.4H441V352.9z"/>
        </g>
        <g class="fp-bowen-st7">
            <path class="fp-bowen-st8" d="M402.4,366.9l-0.8,0.2l-0.2-0.6l1.2-0.4h0.5v4.5h-0.8V366.9z"/>
            <path class="fp-bowen-st8" d="M404.3,369.9l0.6-0.5c0.3,0.4,0.7,0.6,1.2,0.6c0.4,0,0.8-0.3,0.8-0.7v0c0-0.4-0.4-0.7-1-0.7h-0.4l-0.1-0.5
                l1.2-1.3h-1.9v-0.7h3v0.6l-1.3,1.3c0.7,0.1,1.3,0.4,1.3,1.3v0c0,0.8-0.6,1.4-1.6,1.4C405.2,370.7,404.7,370.3,404.3,369.9z"/>
            <path class="fp-bowen-st8" d="M408.5,367.6c0.4-0.1,0.6-0.3,0.6-0.6h-0.3v-0.9h0.9v0.8c0,0.7-0.3,1-1,1.1L408.5,367.6z"/>
            <path class="fp-bowen-st8" d="M414.3,368.3l0.8-1.1h0.8l-1.2,1.7l1.2,1.7h-0.8l-0.8-1.2l-0.8,1.2h-0.8l1.2-1.7l-1.2-1.7h0.8L414.3,368.3z"
                />
            <path class="fp-bowen-st8" d="M419.7,366.9l-0.8,0.2l-0.2-0.6l1.2-0.4h0.5v4.5h-0.8V366.9z"/>
            <path class="fp-bowen-st8" d="M422.5,366.9l-0.8,0.2l-0.2-0.6l1.2-0.4h0.5v4.5h-0.8V366.9z"/>
            <path class="fp-bowen-st8" d="M424.4,367.6c0.4-0.1,0.6-0.3,0.6-0.6h-0.3v-0.9h0.9v0.8c0,0.7-0.3,1-1,1.1L424.4,367.6z"/>
            <path class="fp-bowen-st8" d="M428.7,369.4L428.7,369.4c0-0.6,0.3-0.9,0.8-1.1c-0.4-0.2-0.7-0.5-0.7-1v0c0-0.7,0.7-1.2,1.6-1.2
                s1.6,0.5,1.6,1.2v0c0,0.5-0.3,0.8-0.7,1c0.5,0.2,0.8,0.5,0.8,1.1v0c0,0.8-0.7,1.3-1.7,1.3C429.4,370.7,428.7,370.2,428.7,369.4z
                 M431.3,369.3L431.3,369.3c0-0.4-0.4-0.7-0.9-0.7s-0.9,0.3-0.9,0.7v0c0,0.4,0.3,0.7,0.9,0.7S431.3,369.7,431.3,369.3z
                 M431.2,367.3L431.2,367.3c0-0.4-0.3-0.6-0.8-0.6c-0.5,0-0.8,0.3-0.8,0.6v0c0,0.4,0.3,0.7,0.8,0.7
                C430.9,368,431.2,367.7,431.2,367.3z"/>
            <path class="fp-bowen-st8" d="M432.9,367.6c0.4-0.1,0.6-0.3,0.6-0.6h-0.3v-0.9h0.9v0.8c0,0.7-0.3,1-1,1.1L432.9,367.6z M434.4,367.6
                c0.4-0.1,0.6-0.3,0.5-0.6h-0.3v-0.9h0.9v0.8c0,0.7-0.3,1-1,1.1L434.4,367.6z"/>
        </g>
        <rect x="104.2" y="319" class="fp-bowen-st6" width="26.4" height="13.7"/>
        <g class="fp-bowen-st7">
            <path class="fp-bowen-st8" d="M110.2,328.7l-0.5,0.2l-0.1-0.4l0.8-0.3h0.4v3.1h-0.5V328.7z"/>
            <path class="fp-bowen-st8" d="M111.6,330.8l1-0.9c0.4-0.4,0.6-0.5,0.6-0.8c0-0.3-0.2-0.5-0.5-0.5s-0.5,0.2-0.7,0.5l-0.4-0.3
                c0.3-0.4,0.6-0.6,1.1-0.6c0.6,0,1,0.4,1,0.9v0c0,0.5-0.3,0.7-0.8,1.2l-0.6,0.5h1.4v0.5h-2.2V330.8z"/>
            <path class="fp-bowen-st8" d="M114.4,329.2c0.3,0,0.4-0.2,0.4-0.4h-0.2v-0.6h0.6v0.5c0,0.5-0.2,0.7-0.7,0.7L114.4,329.2z"/>
            <path class="fp-bowen-st8" d="M118.3,329.7l0.5-0.8h0.6l-0.8,1.1l0.8,1.2h-0.6l-0.6-0.8l-0.6,0.8h-0.6l0.8-1.2l-0.8-1.1h0.6L118.3,329.7z"
                />
            <path class="fp-bowen-st8" d="M121.4,330.8l0.3-0.4c0.2,0.2,0.5,0.4,0.8,0.4c0.4,0,0.6-0.2,0.6-0.5v0c0-0.3-0.3-0.5-0.6-0.5
                c-0.2,0-0.4,0.1-0.6,0.1l-0.3-0.2l0.1-1.5h1.8v0.5h-1.4l0,0.7c0.1-0.1,0.3-0.1,0.5-0.1c0.6,0,1.1,0.3,1.1,1v0c0,0.6-0.5,1-1.1,1
                C122,331.3,121.6,331.1,121.4,330.8z"/>
            <path class="fp-bowen-st8" d="M124.2,329.2c0.3,0,0.4-0.2,0.4-0.4h-0.2v-0.6h0.6v0.5c0,0.5-0.2,0.7-0.7,0.7L124.2,329.2z"/>
        </g>
        <g class="fp-bowen-st7">
            <path class="fp-bowen-st8" d="M108.9,321.7h1.9c0.5,0,0.9,0.1,1.1,0.4c0.2,0.2,0.3,0.4,0.3,0.7v0c0,0.5-0.3,0.8-0.6,0.9
                c0.5,0.2,0.8,0.5,0.8,1v0c0,0.8-0.6,1.2-1.6,1.2h-2V321.7z M111.5,322.9c0-0.3-0.3-0.5-0.7-0.5h-1.1v1.1h1
                C111.1,323.5,111.5,323.3,111.5,322.9L111.5,322.9z M110.8,324.1h-1.2v1.2h1.2c0.5,0,0.8-0.2,0.8-0.6v0
                C111.7,324.4,111.4,324.1,110.8,324.1z"/>
        </g>
        <g class="fp-bowen-st7">
            <path class="fp-bowen-st8" d="M115,321.7h0.7l1.9,4.3h-0.8l-0.4-1h-2l-0.4,1h-0.8L115,321.7z M116.1,324.3l-0.7-1.7l-0.7,1.7H116.1z"/>
        </g>
        <g class="fp-bowen-st7">
            <path class="fp-bowen-st8" d="M119.1,322.4h-1.3v-0.7h3.4v0.7h-1.3v3.5h-0.8V322.4z"/>
            <path class="fp-bowen-st8" d="M122.2,321.7h0.7v1.8h2v-1.8h0.7v4.2H125v-1.8h-2v1.8h-0.7V321.7z"/>
        </g>
        <rect x="291.8" y="375.3" class="fp-bowen-st6" width="34.1" height="13.7"/>
        <g class="fp-bowen-st7">
            <path class="fp-bowen-st8" d="M294.8,385l-0.5,0.2l-0.1-0.4l0.8-0.3h0.4v3.1h-0.5V385z"/>
            <path class="fp-bowen-st8" d="M296.1,387.1l0.4-0.3c0.2,0.3,0.5,0.4,0.8,0.4c0.3,0,0.5-0.2,0.5-0.5v0c0-0.3-0.3-0.5-0.7-0.5h-0.2l-0.1-0.3
                l0.8-0.9h-1.3v-0.5h2v0.4l-0.8,0.9c0.5,0.1,0.9,0.3,0.9,0.8v0c0,0.6-0.4,1-1.1,1C296.8,387.6,296.4,387.4,296.1,387.1z"/>
            <path class="fp-bowen-st8" d="M299,385.5c0.3,0,0.4-0.2,0.4-0.4h-0.2v-0.6h0.6v0.5c0,0.5-0.2,0.7-0.7,0.7L299,385.5z"/>
            <path class="fp-bowen-st8" d="M303.4,386.9h-1.5l-0.1-0.4l1.7-2h0.5v1.9h0.4v0.4h-0.4v0.7h-0.5V386.9z M303.4,386.4v-1.2l-1,1.2H303.4z"/>
            <path class="fp-bowen-st8" d="M304.9,385.5c0.3,0,0.4-0.2,0.4-0.4H305v-0.6h0.6v0.5c0,0.5-0.2,0.7-0.7,0.7L304.9,385.5z M305.9,385.5
                c0.3,0,0.4-0.2,0.4-0.4H306v-0.6h0.6v0.5c0,0.5-0.2,0.7-0.7,0.7L305.9,385.5z"/>
            <path class="fp-bowen-st8" d="M309.8,386l0.5-0.8h0.6l-0.8,1.1l0.8,1.2h-0.6l-0.6-0.8l-0.6,0.8h-0.6l0.8-1.2l-0.8-1.1h0.6L309.8,386z"/>
            <path class="fp-bowen-st8" d="M312.9,387.1l0.3-0.4c0.2,0.2,0.5,0.4,0.8,0.4c0.4,0,0.6-0.2,0.6-0.5v0c0-0.3-0.3-0.5-0.6-0.5
                c-0.2,0-0.4,0.1-0.6,0.1l-0.3-0.2l0.1-1.5h1.8v0.5h-1.4l0,0.7c0.1-0.1,0.3-0.1,0.5-0.1c0.6,0,1.1,0.3,1.1,1v0c0,0.6-0.5,1-1.1,1
                C313.5,387.6,313.2,387.4,312.9,387.1z"/>
            <path class="fp-bowen-st8" d="M315.7,385.5c0.3,0,0.4-0.2,0.4-0.4h-0.2v-0.6h0.6v0.5c0,0.5-0.2,0.7-0.7,0.7L315.7,385.5z"/>
            <path class="fp-bowen-st8" d="M319,387.3c-0.2-0.2-0.4-0.5-0.4-1.2v0c0-0.9,0.4-1.7,1.3-1.7c0.4,0,0.7,0.1,0.9,0.3l-0.3,0.4
                c-0.2-0.2-0.4-0.3-0.7-0.3c-0.5,0-0.7,0.5-0.7,1c0.2-0.2,0.4-0.3,0.7-0.3c0.6,0,1.1,0.3,1.1,1v0c0,0.6-0.5,1-1.1,1
                C319.5,387.6,319.2,387.5,319,387.3z M320.4,386.6L320.4,386.6c0-0.3-0.2-0.5-0.6-0.5s-0.6,0.2-0.6,0.5v0c0,0.3,0.3,0.5,0.6,0.5
                S320.4,386.9,320.4,386.6z"/>
            <path class="fp-bowen-st8" d="M321.6,385.5c0.3,0,0.4-0.2,0.4-0.4h-0.2v-0.6h0.6v0.5c0,0.5-0.2,0.7-0.7,0.7L321.6,385.5z M322.6,385.5
                c0.3,0,0.4-0.2,0.4-0.4h-0.2v-0.6h0.6v0.5c0,0.5-0.2,0.7-0.7,0.7L322.6,385.5z"/>
        </g>
        <g class="fp-bowen-st7">
            <path class="fp-bowen-st8" d="M300.4,378.1h1.9c0.5,0,0.9,0.1,1.1,0.4c0.2,0.2,0.3,0.4,0.3,0.7v0c0,0.5-0.3,0.8-0.6,0.9
                c0.5,0.2,0.8,0.5,0.8,1v0c0,0.8-0.6,1.2-1.6,1.2h-2V378.1z M302.9,379.3c0-0.3-0.3-0.5-0.7-0.5h-1.1v1.1h1
                C302.6,379.8,302.9,379.7,302.9,379.3L302.9,379.3z M302.3,380.5h-1.2v1.2h1.2c0.5,0,0.8-0.2,0.8-0.6v0
                C303.2,380.7,302.9,380.5,302.3,380.5z"/>
        </g>
        <g class="fp-bowen-st7">
            <path class="fp-bowen-st8" d="M306.5,378h0.7l1.9,4.3h-0.8l-0.4-1h-2l-0.4,1h-0.8L306.5,378z M307.6,380.6l-0.7-1.7l-0.7,1.7H307.6z"/>
        </g>
        <g class="fp-bowen-st7">
            <path class="fp-bowen-st8" d="M310.5,378.8h-1.3v-0.7h3.4v0.7h-1.3v3.5h-0.8V378.8z"/>
            <path class="fp-bowen-st8" d="M313.7,378.1h0.7v1.8h2v-1.8h0.7v4.2h-0.7v-1.8h-2v1.8h-0.7V378.1z"/>
        </g>
        <g class="fp-bowen-st7">
            <path class="fp-bowen-st8" d="M435.8,149.3h2.7c0.7,0,1.2,0.2,1.6,0.5c0.3,0.3,0.4,0.6,0.4,1v0c0,0.7-0.4,1.1-0.9,1.3
                c0.7,0.2,1.2,0.6,1.2,1.5v0c0,1.1-0.9,1.6-2.2,1.6h-2.8V149.3z M439.4,151c0-0.5-0.4-0.8-1.1-0.8h-1.5v1.6h1.4
                C439,151.8,439.4,151.6,439.4,151L439.4,151z M438.5,152.7h-1.7v1.6h1.7c0.7,0,1.2-0.3,1.2-0.8v0
                C439.7,153,439.3,152.7,438.5,152.7z"/>
            <path class="fp-bowen-st8" d="M444.4,149.3h1l2.6,6h-1.1l-0.6-1.4h-2.8l-0.6,1.4h-1.1L444.4,149.3z M446,152.9l-1-2.4l-1,2.4H446z"/>
        </g>
        <g class="fp-bowen-st7">
            <path class="fp-bowen-st8" d="M449.4,149.3h1.1v5h3.2v1h-4.2V149.3z"/>
        </g>
        <g class="fp-bowen-st7">
            <path class="fp-bowen-st8" d="M454.5,152.3L454.5,152.3c0-1.7,1.3-3.1,3.1-3.1c1.1,0,1.8,0.4,2.3,0.9l-0.7,0.8c-0.5-0.4-1-0.7-1.7-0.7
                c-1.1,0-2,0.9-2,2.1v0c0,1.2,0.8,2.1,2,2.1c0.7,0,1.2-0.3,1.7-0.8l0.7,0.7c-0.6,0.7-1.3,1.1-2.4,1.1
                C455.8,155.4,454.5,154,454.5,152.3z"/>
        </g>
        <g class="fp-bowen-st7">
            <path class="fp-bowen-st8" d="M461,152.3L461,152.3c0-1.7,1.3-3.1,3.1-3.1s3.1,1.4,3.1,3.1v0c0,1.7-1.3,3.1-3.1,3.1
                C462.2,155.4,461,154,461,152.3z M466.1,152.3L466.1,152.3c0-1.2-0.8-2.1-2-2.1c-1.2,0-2,1-2,2.1v0c0,1.2,0.8,2.1,2,2.1
                C465.3,154.4,466.1,153.5,466.1,152.3z"/>
            <path class="fp-bowen-st8" d="M468.8,149.3h1l3.2,4.1v-4.1h1v6h-0.9l-3.3-4.3v4.3h-1V149.3z"/>
            <path class="fp-bowen-st8" d="M477.7,152.9l-2.4-3.6h1.2l1.7,2.6l1.7-2.6h1.2l-2.4,3.6v2.4h-1.1V152.9z"/>
        </g>
        <g class="fp-bowen-st7">
            <path class="fp-bowen-st8" d="M450,162.3l-0.6,0.2l-0.1-0.5l1-0.3h0.4v3.6H450V162.3z"/>
            <path class="fp-bowen-st8" d="M452.2,162.3l-0.6,0.2l-0.1-0.5l1-0.3h0.4v3.6h-0.6V162.3z"/>
            <path class="fp-bowen-st8" d="M453.7,162.9c0.3-0.1,0.5-0.2,0.4-0.5h-0.3v-0.7h0.7v0.6c0,0.6-0.3,0.8-0.8,0.8L453.7,162.9z"/>
            <path class="fp-bowen-st8" d="M458.3,163.5l0.6-0.9h0.7l-0.9,1.3l1,1.4h-0.7l-0.7-1l-0.7,1h-0.7l1-1.4l-0.9-1.3h0.7L458.3,163.5z"/>
            <path class="fp-bowen-st8" d="M462.6,162.3l-0.6,0.2l-0.1-0.5l1-0.3h0.4v3.6h-0.6V162.3z"/>
            <path class="fp-bowen-st8" d="M464.8,162.3l-0.6,0.2L464,162l1-0.3h0.4v3.6h-0.6V162.3z"/>
            <path class="fp-bowen-st8" d="M466.3,162.9c0.3-0.1,0.5-0.2,0.4-0.5h-0.3v-0.7h0.7v0.6c0,0.6-0.3,0.8-0.8,0.8L466.3,162.9z"/>
        </g>
        <rect x="75.9" y="416.8" class="fp-bowen-st6" width="5.8" height="15.4"/>
        <g class="fp-bowen-st7">
            <path class="fp-bowen-st8" d="M79,429.1L79,429.1c-0.7,0-1.2-0.5-1.2-1.1c0-0.4,0.2-0.7,0.4-0.9l0.3,0.2c-0.2,0.2-0.3,0.4-0.3,0.6
                c0,0.4,0.4,0.7,0.8,0.7h0c0.5,0,0.8-0.3,0.8-0.7c0-0.3-0.1-0.4-0.3-0.6l0.3-0.3c0.3,0.2,0.4,0.5,0.4,0.9
                C80.2,428.6,79.7,429.1,79,429.1z"/>
        </g>
        <g class="fp-bowen-st7">
            <path class="fp-bowen-st8" d="M79,426.7L79,426.7c-0.7,0-1.2-0.5-1.2-1.2c0-0.7,0.5-1.2,1.2-1.2h0c0.7,0,1.2,0.5,1.2,1.2
                S79.6,426.7,79,426.7z M79,424.8L79,424.8c-0.5,0-0.8,0.3-0.8,0.8s0.4,0.7,0.8,0.7h0c0.5,0,0.8-0.3,0.8-0.8
                C79.8,425.1,79.4,424.8,79,424.8z"/>
        </g>
        <g class="fp-bowen-st7">
            <path class="fp-bowen-st8" d="M77.8,423.1v-0.4l2.4-1v0.4l-0.6,0.2v1.1l0.6,0.2v0.4L77.8,423.1z M79.2,422.6l-0.9,0.4l0.9,0.4V422.6z"/>
        </g>
        <g class="fp-bowen-st7">
            <path class="fp-bowen-st8" d="M78.2,421v0.7h-0.4v-1.8h0.4v0.7h2v0.4H78.2z"/>
        </g>
        <rect x="245.1" y="428.4" class="fp-bowen-st6" width="5.9" height="15.4"/>
        <g class="fp-bowen-st7">
            <path class="fp-bowen-st8" d="M247.9,431.4L247.9,431.4c0.7,0,1.2,0.5,1.2,1.1c0,0.4-0.2,0.7-0.4,0.9l-0.3-0.3c0.2-0.2,0.3-0.4,0.3-0.6
                c0-0.4-0.4-0.7-0.8-0.7h0c-0.5,0-0.8,0.3-0.8,0.7c0,0.3,0.1,0.4,0.3,0.6l-0.3,0.3c-0.3-0.2-0.4-0.5-0.4-0.9
                C246.7,431.9,247.2,431.4,247.9,431.4z"/>
        </g>
        <g class="fp-bowen-st7">
            <path class="fp-bowen-st8" d="M247.9,433.8L247.9,433.8c0.7,0,1.2,0.5,1.2,1.2c0,0.7-0.5,1.2-1.2,1.2h0c-0.7,0-1.2-0.5-1.2-1.2
                S247.2,433.8,247.9,433.8z M247.9,435.8L247.9,435.8c0.5,0,0.8-0.3,0.8-0.8s-0.4-0.7-0.8-0.7h0c-0.5,0-0.8,0.3-0.8,0.8
                C247.1,435.5,247.4,435.8,247.9,435.8z"/>
        </g>
        <g class="fp-bowen-st7">
            <path class="fp-bowen-st8" d="M249.1,437.4v0.4l-2.4,1v-0.4l0.6-0.2v-1.1l-0.6-0.2v-0.4L249.1,437.4z M247.7,438l0.9-0.4l-0.9-0.4V438z"/>
        </g>
        <g class="fp-bowen-st7">
            <path class="fp-bowen-st8" d="M248.7,439.5v-0.7h0.4v1.8h-0.4v-0.7h-2v-0.4H248.7z"/>
        </g>
        <g class="fp-bowen-st7">
            <path class="fp-bowen-st8" d="M219.6,264.1h-1.6v-0.5h2.3v0.4l-1.5,2.8h-0.6L219.6,264.1z"/>
            <path class="fp-bowen-st8" d="M220.8,264.7c0.3-0.1,0.4-0.2,0.4-0.4H221v-0.6h0.6v0.5c0,0.5-0.2,0.7-0.7,0.8L220.8,264.7z"/>
            <path class="fp-bowen-st8" d="M225.5,266.1h-1.6l-0.1-0.4l1.8-2.1h0.5v2.1h0.5v0.5h-0.5v0.7h-0.5V266.1z M225.5,265.7v-1.3l-1.1,1.3H225.5
                z"/>
            <path class="fp-bowen-st8" d="M227.1,264.7c0.3-0.1,0.4-0.2,0.4-0.4h-0.2v-0.6h0.6v0.5c0,0.5-0.2,0.7-0.7,0.8L227.1,264.7z M228.2,264.7
                c0.3-0.1,0.4-0.2,0.4-0.4h-0.2v-0.6h0.6v0.5c0,0.5-0.2,0.7-0.7,0.8L228.2,264.7z"/>
            <path class="fp-bowen-st8" d="M232.4,265.2l0.6-0.8h0.6l-0.9,1.2l0.9,1.2H233l-0.6-0.9l-0.6,0.9h-0.6l0.9-1.2l-0.9-1.2h0.6L232.4,265.2z"
                />
            <path class="fp-bowen-st8" d="M235.7,266.4l1.1-0.9c0.4-0.4,0.6-0.6,0.6-0.9c0-0.3-0.2-0.5-0.5-0.5s-0.5,0.2-0.7,0.5l-0.4-0.3
                c0.3-0.4,0.6-0.7,1.2-0.7c0.6,0,1.1,0.4,1.1,1v0c0,0.5-0.3,0.8-0.8,1.3l-0.7,0.6h1.5v0.5h-2.3V266.4z"/>
            <path class="fp-bowen-st8" d="M238.7,264.7c0.3-0.1,0.4-0.2,0.4-0.4h-0.2v-0.6h0.6v0.5c0,0.5-0.2,0.7-0.7,0.8L238.7,264.7z"/>
            <path class="fp-bowen-st8" d="M243.4,266.1h-1.6l-0.1-0.4l1.8-2.1h0.5v2.1h0.5v0.5H244v0.7h-0.5V266.1z M243.4,265.7v-1.3l-1.1,1.3H243.4z
                "/>
            <path class="fp-bowen-st8" d="M245,264.7c0.3-0.1,0.4-0.2,0.4-0.4h-0.2v-0.6h0.6v0.5c0,0.5-0.2,0.7-0.7,0.8L245,264.7z M246.1,264.7
                c0.3-0.1,0.4-0.2,0.4-0.4h-0.2v-0.6h0.6v0.5c0,0.5-0.2,0.7-0.7,0.8L246.1,264.7z"/>
        </g>
        <g class="fp-bowen-st7">
            <path class="fp-bowen-st8" d="M218.7,258.3L218.7,258.3c0-1.3,1-2.4,2.3-2.4c0.8,0,1.3,0.3,1.8,0.7l-0.5,0.6c-0.4-0.3-0.8-0.6-1.3-0.6
                c-0.9,0-1.5,0.7-1.5,1.6v0c0,0.9,0.6,1.6,1.5,1.6c0.6,0,0.9-0.2,1.3-0.6l0.5,0.5c-0.5,0.5-1,0.8-1.8,0.8
                C219.7,260.6,218.7,259.6,218.7,258.3z"/>
        </g>
        <g class="fp-bowen-st7">
            <path class="fp-bowen-st8" d="M224,256h0.8v3.8h2.4v0.7H224V256z"/>
        </g>
        <g class="fp-bowen-st7">
            <path class="fp-bowen-st8" d="M227.8,258.3L227.8,258.3c0-1.3,1-2.4,2.4-2.4c1.4,0,2.4,1.1,2.4,2.3v0c0,1.3-1,2.3-2.4,2.3
                C228.8,260.6,227.8,259.6,227.8,258.3z M231.7,258.3L231.7,258.3c0-0.9-0.6-1.6-1.5-1.6s-1.5,0.7-1.5,1.6v0
                c0,0.9,0.6,1.6,1.5,1.6S231.7,259.2,231.7,258.3z"/>
        </g>
        <g class="fp-bowen-st7">
            <path class="fp-bowen-st8" d="M233.4,259.9l0.5-0.6c0.4,0.4,0.9,0.6,1.4,0.6c0.5,0,0.8-0.2,0.8-0.6v0c0-0.3-0.2-0.5-1-0.7
                c-1-0.2-1.5-0.5-1.5-1.4v0c0-0.8,0.6-1.3,1.5-1.3c0.7,0,1.2,0.2,1.6,0.6l-0.4,0.6c-0.4-0.3-0.8-0.5-1.2-0.5
                c-0.5,0-0.7,0.2-0.7,0.5v0c0,0.4,0.2,0.5,1.1,0.7c1,0.2,1.5,0.6,1.5,1.3v0c0,0.8-0.7,1.4-1.6,1.4
                C234.6,260.6,234,260.4,233.4,259.9z"/>
            <path class="fp-bowen-st8" d="M238.1,256h3.4v0.7h-2.6v1.2h2.3v0.7h-2.3v1.2h2.6v0.7h-3.4V256z"/>
            <path class="fp-bowen-st8" d="M243.9,256.8h-1.4V256h3.7v0.7h-1.4v3.8h-0.8V256.8z"/>
        </g>
        <g class="fp-bowen-st7">
            <path class="fp-bowen-st8" d="M80.1,285.7c-0.2-0.2-0.4-0.6-0.4-1.2v0c0-1,0.5-1.8,1.4-1.8c0.4,0,0.7,0.1,1,0.4l-0.3,0.4
                c-0.2-0.2-0.4-0.3-0.7-0.3c-0.6,0-0.8,0.6-0.8,1c0.2-0.2,0.4-0.3,0.8-0.3c0.6,0,1.1,0.4,1.1,1v0c0,0.6-0.5,1.1-1.2,1.1
                C80.6,286.1,80.3,286,80.1,285.7z M81.7,285L81.7,285c0-0.3-0.3-0.6-0.7-0.6s-0.7,0.3-0.7,0.6v0c0,0.3,0.3,0.6,0.7,0.6
                C81.4,285.6,81.7,285.3,81.7,285z"/>
            <path class="fp-bowen-st8" d="M82.9,283.9c0.3-0.1,0.4-0.2,0.4-0.4H83v-0.6h0.6v0.5c0,0.5-0.2,0.7-0.7,0.8L82.9,283.9z"/>
            <path class="fp-bowen-st8" d="M85.9,285.1L85.9,285.1c0-0.4,0.2-0.6,0.6-0.8c-0.3-0.1-0.5-0.4-0.5-0.7v0c0-0.5,0.5-0.9,1.1-0.9
                c0.6,0,1.1,0.4,1.1,0.9v0c0,0.4-0.2,0.6-0.5,0.7c0.4,0.2,0.6,0.4,0.6,0.8v0c0,0.6-0.5,0.9-1.2,0.9
                C86.4,286.1,85.9,285.7,85.9,285.1z M87.8,285.1L87.8,285.1c0-0.3-0.3-0.5-0.7-0.5s-0.7,0.2-0.7,0.5v0c0,0.3,0.2,0.5,0.7,0.5
                S87.8,285.4,87.8,285.1z M87.7,283.7L87.7,283.7c0-0.3-0.2-0.5-0.6-0.5s-0.6,0.2-0.6,0.4v0c0,0.3,0.2,0.5,0.6,0.5
                C87.5,284.2,87.7,284,87.7,283.7z"/>
            <path class="fp-bowen-st8" d="M89,283.9c0.3-0.1,0.4-0.2,0.4-0.4h-0.2v-0.6h0.6v0.5c0,0.5-0.2,0.7-0.7,0.8L89,283.9z M90,283.9
                c0.3-0.1,0.4-0.2,0.4-0.4h-0.2v-0.6h0.6v0.5c0,0.5-0.2,0.7-0.7,0.8L90,283.9z"/>
            <path class="fp-bowen-st8" d="M94.2,284.4l0.6-0.8h0.6l-0.9,1.2l0.9,1.2h-0.6l-0.6-0.9l-0.6,0.9H93l0.9-1.2l-0.9-1.2h0.6L94.2,284.4z"/>
            <path class="fp-bowen-st8" d="M98,285.7c-0.2-0.2-0.4-0.6-0.4-1.2v0c0-1,0.5-1.8,1.4-1.8c0.4,0,0.7,0.1,1,0.4l-0.3,0.4
                c-0.2-0.2-0.4-0.3-0.7-0.3c-0.6,0-0.8,0.6-0.8,1c0.2-0.2,0.4-0.3,0.8-0.3c0.6,0,1.1,0.4,1.1,1v0c0,0.6-0.5,1.1-1.2,1.1
                C98.5,286.1,98.2,286,98,285.7z M99.5,285L99.5,285c0-0.3-0.3-0.6-0.7-0.6s-0.7,0.3-0.7,0.6v0c0,0.3,0.3,0.6,0.7,0.6
                C99.3,285.6,99.5,285.3,99.5,285z"/>
            <path class="fp-bowen-st8" d="M100.7,283.9c0.3-0.1,0.4-0.2,0.4-0.4h-0.2v-0.6h0.6v0.5c0,0.5-0.2,0.7-0.7,0.8L100.7,283.9z"/>
            <path class="fp-bowen-st8" d="M104.4,283.3l-0.6,0.2l-0.1-0.5l0.9-0.3h0.4v3.3h-0.6V283.3z"/>
            <path class="fp-bowen-st8" d="M105.8,284.4L105.8,284.4c0-0.9,0.6-1.7,1.4-1.7c0.8,0,1.4,0.7,1.4,1.7v0c0,0.9-0.6,1.7-1.4,1.7
                S105.8,285.3,105.8,284.4z M108.1,284.4L108.1,284.4c0-0.6-0.3-1.2-0.8-1.2c-0.5,0-0.8,0.5-0.8,1.2v0c0,0.6,0.3,1.2,0.8,1.2
                S108.1,285.1,108.1,284.4z"/>
            <path class="fp-bowen-st8" d="M109.3,283.9c0.3-0.1,0.4-0.2,0.4-0.4h-0.2v-0.6h0.6v0.5c0,0.5-0.2,0.7-0.7,0.8L109.3,283.9z M110.3,283.9
                c0.3-0.1,0.4-0.2,0.4-0.4h-0.2v-0.6h0.6v0.5c0,0.5-0.2,0.7-0.7,0.8L110.3,283.9z"/>
        </g>
        <g class="fp-bowen-st7">
            <path class="fp-bowen-st8" d="M81.8,277.5L81.8,277.5c0-1.3,1-2.4,2.3-2.4c0.8,0,1.3,0.3,1.8,0.7l-0.5,0.6c-0.4-0.3-0.8-0.6-1.3-0.6
                c-0.9,0-1.5,0.7-1.5,1.6v0c0,0.9,0.6,1.6,1.5,1.6c0.6,0,0.9-0.2,1.3-0.6l0.5,0.5c-0.5,0.5-1,0.8-1.8,0.8
                C82.8,279.8,81.8,278.8,81.8,277.5z"/>
        </g>
        <g class="fp-bowen-st7">
            <path class="fp-bowen-st8" d="M87,275.2h0.8v3.8h2.4v0.7H87V275.2z"/>
        </g>
        <g class="fp-bowen-st7">
            <path class="fp-bowen-st8" d="M90.9,277.5L90.9,277.5c0-1.3,1-2.4,2.4-2.4c1.4,0,2.4,1.1,2.4,2.3v0c0,1.3-1,2.3-2.4,2.3
                C91.8,279.8,90.9,278.8,90.9,277.5z M94.8,277.5L94.8,277.5c0-0.9-0.6-1.6-1.5-1.6s-1.5,0.7-1.5,1.6v0c0,0.9,0.6,1.6,1.5,1.6
                S94.8,278.4,94.8,277.5z"/>
        </g>
        <g class="fp-bowen-st7">
            <path class="fp-bowen-st8" d="M96.5,279.1l0.5-0.6c0.4,0.4,0.9,0.6,1.4,0.6c0.5,0,0.8-0.2,0.8-0.6v0c0-0.3-0.2-0.5-1-0.7
                c-1-0.2-1.5-0.5-1.5-1.4v0c0-0.8,0.6-1.3,1.5-1.3c0.7,0,1.2,0.2,1.6,0.6l-0.4,0.6c-0.4-0.3-0.8-0.5-1.2-0.5
                c-0.5,0-0.7,0.2-0.7,0.5v0c0,0.4,0.2,0.5,1.1,0.7c1,0.2,1.5,0.6,1.5,1.3v0c0,0.8-0.7,1.4-1.6,1.4C97.7,279.8,97,279.6,96.5,279.1
                z"/>
            <path class="fp-bowen-st8" d="M101.2,275.2h3.4v0.7H102v1.2h2.3v0.7H102v1.2h2.6v0.7h-3.4V275.2z"/>
            <path class="fp-bowen-st8" d="M106.9,275.9h-1.4v-0.7h3.7v0.7h-1.4v3.8h-0.8V275.9z"/>
        </g>
        <g class="fp-bowen-st7">
            <path class="fp-bowen-st8" d="M300.9,327.5c-0.2,0.2-0.4,0.3-0.8,0.3c-0.7,0-1.1-0.4-1.1-1v0c0-0.6,0.5-1.1,1.2-1.1c0.4,0,0.7,0.1,0.9,0.3
                c0.2,0.2,0.4,0.6,0.4,1.2v0c0,1-0.5,1.8-1.4,1.8c-0.4,0-0.8-0.2-1-0.4l0.3-0.4c0.2,0.2,0.5,0.3,0.7,0.3
                C300.6,328.5,300.9,327.9,300.9,327.5z M300.8,326.8L300.8,326.8c0-0.3-0.3-0.6-0.7-0.6c-0.4,0-0.6,0.3-0.6,0.6v0
                c0,0.3,0.3,0.6,0.7,0.6C300.6,327.4,300.8,327.1,300.8,326.8z"/>
            <path class="fp-bowen-st8" d="M302.1,326.8c0.3-0.1,0.4-0.2,0.4-0.4h-0.2v-0.6h0.6v0.5c0,0.5-0.2,0.7-0.7,0.8L302.1,326.8z"/>
            <path class="fp-bowen-st8" d="M305.6,328.7c-0.2-0.2-0.4-0.6-0.4-1.2v0c0-1,0.5-1.8,1.4-1.8c0.4,0,0.7,0.1,1,0.4l-0.3,0.4
                c-0.2-0.2-0.4-0.3-0.7-0.3c-0.6,0-0.8,0.6-0.8,1c0.2-0.2,0.4-0.3,0.8-0.3c0.6,0,1.1,0.4,1.1,1v0c0,0.6-0.5,1.1-1.2,1.1
                C306.1,329,305.8,328.9,305.6,328.7z M307.1,328L307.1,328c0-0.3-0.3-0.6-0.7-0.6s-0.7,0.3-0.7,0.6v0c0,0.3,0.3,0.6,0.7,0.6
                S307.1,328.3,307.1,328z"/>
            <path class="fp-bowen-st8" d="M308.3,326.8c0.3-0.1,0.4-0.2,0.4-0.4h-0.2v-0.6h0.6v0.5c0,0.5-0.2,0.7-0.7,0.8L308.3,326.8z M309.4,326.8
                c0.3-0.1,0.4-0.2,0.4-0.4h-0.2v-0.6h0.6v0.5c0,0.5-0.2,0.7-0.7,0.8L309.4,326.8z"/>
            <path class="fp-bowen-st8" d="M313.6,327.4l0.6-0.8h0.6l-0.9,1.2l0.9,1.2h-0.6l-0.6-0.9l-0.6,0.9h-0.6l0.9-1.2l-0.9-1.2h0.6L313.6,327.4z"
                />
            <path class="fp-bowen-st8" d="M316.9,328.5l0.4-0.4c0.3,0.2,0.5,0.4,0.8,0.4c0.4,0,0.6-0.2,0.6-0.6v0c0-0.3-0.3-0.5-0.7-0.5
                c-0.2,0-0.4,0.1-0.6,0.1l-0.3-0.2l0.1-1.6h1.9v0.5h-1.4l-0.1,0.8c0.2-0.1,0.3-0.1,0.5-0.1c0.6,0,1.1,0.3,1.1,1v0
                c0,0.7-0.5,1.1-1.2,1.1C317.6,329,317.2,328.8,316.9,328.5z"/>
            <path class="fp-bowen-st8" d="M319.9,326.8c0.3-0.1,0.4-0.2,0.4-0.4h-0.2v-0.6h0.6v0.5c0,0.5-0.2,0.7-0.7,0.8L319.9,326.8z"/>
            <path class="fp-bowen-st8" d="M324.9,327.5c-0.2,0.2-0.4,0.3-0.8,0.3c-0.7,0-1.1-0.4-1.1-1v0c0-0.6,0.5-1.1,1.2-1.1c0.4,0,0.7,0.1,0.9,0.3
                c0.2,0.2,0.4,0.6,0.4,1.2v0c0,1-0.5,1.8-1.4,1.8c-0.4,0-0.8-0.2-1-0.4l0.3-0.4c0.2,0.2,0.5,0.3,0.7,0.3
                C324.7,328.5,324.9,327.9,324.9,327.5z M324.9,326.8L324.9,326.8c0-0.3-0.3-0.6-0.7-0.6c-0.4,0-0.6,0.3-0.6,0.6v0
                c0,0.3,0.3,0.6,0.7,0.6C324.6,327.4,324.9,327.1,324.9,326.8z"/>
            <path class="fp-bowen-st8" d="M326.1,326.8c0.3-0.1,0.4-0.2,0.4-0.4h-0.2v-0.6h0.6v0.5c0,0.5-0.2,0.7-0.7,0.8L326.1,326.8z M327.2,326.8
                c0.3-0.1,0.4-0.2,0.4-0.4h-0.2v-0.6h0.6v0.5c0,0.5-0.2,0.7-0.7,0.8L327.2,326.8z"/>
        </g>
        <g class="fp-bowen-st7">
            <path class="fp-bowen-st8" d="M299.8,320.4L299.8,320.4c0-1.3,1-2.4,2.3-2.4c0.8,0,1.3,0.3,1.8,0.7l-0.5,0.6c-0.4-0.3-0.8-0.6-1.3-0.6
                c-0.9,0-1.5,0.7-1.5,1.6v0c0,0.9,0.6,1.6,1.5,1.6c0.6,0,0.9-0.2,1.3-0.6l0.5,0.5c-0.5,0.5-1,0.8-1.8,0.8
                C300.8,322.8,299.8,321.7,299.8,320.4z"/>
        </g>
        <g class="fp-bowen-st7">
            <path class="fp-bowen-st8" d="M305.1,318.1h0.8v3.8h2.4v0.7h-3.2V318.1z"/>
        </g>
        <g class="fp-bowen-st7">
            <path class="fp-bowen-st8" d="M308.9,320.4L308.9,320.4c0-1.3,1-2.4,2.4-2.4c1.4,0,2.4,1.1,2.4,2.3v0c0,1.3-1,2.3-2.4,2.3
                C309.8,322.8,308.9,321.7,308.9,320.4z M312.8,320.4L312.8,320.4c0-0.9-0.6-1.6-1.5-1.6s-1.5,0.7-1.5,1.6v0
                c0,0.9,0.6,1.6,1.5,1.6S312.8,321.3,312.8,320.4z"/>
        </g>
        <g class="fp-bowen-st7">
            <path class="fp-bowen-st8" d="M314.5,322l0.5-0.6c0.4,0.4,0.9,0.6,1.4,0.6c0.5,0,0.8-0.2,0.8-0.6v0c0-0.3-0.2-0.5-1-0.7
                c-1-0.2-1.5-0.5-1.5-1.4v0c0-0.8,0.6-1.3,1.5-1.3c0.7,0,1.2,0.2,1.6,0.6l-0.4,0.6c-0.4-0.3-0.8-0.5-1.2-0.5
                c-0.5,0-0.7,0.2-0.7,0.5v0c0,0.4,0.2,0.5,1.1,0.7c1,0.2,1.5,0.6,1.5,1.3v0c0,0.8-0.7,1.4-1.6,1.4
                C315.7,322.7,315.1,322.5,314.5,322z"/>
            <path class="fp-bowen-st8" d="M319.2,318.1h3.4v0.7H320v1.2h2.3v0.7H320v1.2h2.6v0.7h-3.4V318.1z"/>
            <path class="fp-bowen-st8" d="M324.9,318.9h-1.4v-0.7h3.7v0.7h-1.4v3.8h-0.8V318.9z"/>
        </g>
        <rect x="125.8" y="399.1" class="fp-bowen-st6" width="35.1" height="11.8"/>
        <rect x="115.7" y="410.9" class="fp-bowen-st6" width="55.2" height="11.8"/>
        <g class="fp-bowen-st7">
            <path class="fp-bowen-st8" d="M131.5,401.6h2.8c2.4,0,4,1.6,4,3.8v0c0,2.1-1.6,3.8-4,3.8h-2.8V401.6z M132.8,402.8v5.2h1.5
                c1.6,0,2.6-1.1,2.6-2.6v0c0-1.5-1-2.6-2.6-2.6H132.8z"/>
            <path class="fp-bowen-st8" d="M140.4,401.6h5.6v1.2h-4.3v2h3.8v1.2h-3.8v2h4.3v1.2h-5.7V401.6z"/>
            <path class="fp-bowen-st8" d="M148.1,401.6h1.2l4.1,5.2v-5.2h1.3v7.6h-1.1l-4.2-5.4v5.4h-1.3V401.6z"/>
        </g>
        <g class="fp-bowen-st7">
            <path class="fp-bowen-st8" d="M130.2,417.2c-0.3,0.3-0.6,0.5-1.1,0.5c-1,0-1.6-0.6-1.6-1.4v0c0-0.9,0.7-1.6,1.7-1.6c0.6,0,0.9,0.2,1.3,0.5
                c0.3,0.3,0.5,0.8,0.5,1.7v0c0,1.4-0.7,2.4-1.9,2.4c-0.6,0-1.1-0.2-1.4-0.5l0.4-0.6c0.3,0.3,0.6,0.4,1,0.4
                C129.9,418.6,130.2,417.8,130.2,417.2z M130.1,416.2L130.1,416.2c0-0.5-0.4-0.8-0.9-0.8c-0.6,0-0.9,0.4-0.9,0.8v0
                c0,0.5,0.4,0.8,0.9,0.8C129.8,417,130.1,416.7,130.1,416.2z"/>
            <path class="fp-bowen-st8" d="M131.9,416.3c0.4-0.1,0.6-0.3,0.6-0.6h-0.3v-0.9h0.9v0.8c0,0.7-0.3,1-1,1.1L131.9,416.3z"/>
            <path class="fp-bowen-st8" d="M136.1,418.7l0.5-0.6c0.4,0.3,0.7,0.5,1.2,0.5c0.5,0,0.9-0.3,0.9-0.8v0c0-0.5-0.4-0.7-0.9-0.7
                c-0.3,0-0.6,0.1-0.8,0.2l-0.5-0.3l0.1-2.2h2.7v0.7h-2l-0.1,1.1c0.2-0.1,0.4-0.1,0.7-0.1c0.9,0,1.6,0.5,1.6,1.4v0
                c0,0.9-0.7,1.5-1.7,1.5C137.1,419.4,136.5,419.1,136.1,418.7z"/>
            <path class="fp-bowen-st8" d="M140.3,416.3c0.4-0.1,0.6-0.3,0.6-0.6h-0.3v-0.9h0.9v0.8c0,0.7-0.3,1-1,1.1L140.3,416.3z M141.8,416.3
                c0.4-0.1,0.6-0.3,0.5-0.6H142v-0.9h0.9v0.8c0,0.7-0.3,1-1,1.1L141.8,416.3z"/>
            <path class="fp-bowen-st8" d="M147.6,417l0.8-1.1h0.8l-1.2,1.7l1.2,1.7h-0.8l-0.8-1.2l-0.8,1.2h-0.8l1.2-1.7l-1.2-1.7h0.8L147.6,417z"/>
            <path class="fp-bowen-st8" d="M153,415.6l-0.8,0.2l-0.2-0.6l1.2-0.4h0.5v4.5H153V415.6z"/>
            <path class="fp-bowen-st8" d="M155.8,415.6l-0.8,0.2l-0.2-0.6l1.2-0.4h0.5v4.5h-0.8V415.6z"/>
            <path class="fp-bowen-st8" d="M157.7,416.3c0.4-0.1,0.6-0.3,0.6-0.6H158v-0.9h0.9v0.8c0,0.7-0.3,1-1,1.1L157.7,416.3z"/>
        </g>
        <line class="fp-bowen-st17" x1="425.1" y1="168.1" x2="410.6" y2="153.6"/>
        
            <rect x="417.5" y="150.6" transform="matrix(0.7071 -0.7071 0.7071 0.7071 8.6724 342.5894)" class="fp-bowen-st8" width="0.7" height="20.5"/>
        <line class="fp-bowen-st17" x1="445.5" y1="188.5" x2="431" y2="174"/>
        
            <rect x="437.9" y="170.9" transform="matrix(0.7071 -0.7071 0.7071 0.7071 0.2266 362.9853)" class="fp-bowen-st8" width="0.7" height="20.5"/>
        <circle class="fp-bowen-st23" cx="78.8" cy="379.2" r="9.3"/>
        <g class="fp-bowen-st7">
            <path class="fp-bowen-st8" d="M72.9,377.7h0.5v1.2h1.4v-1.2h0.5v3h-0.5v-1.3h-1.4v1.3h-0.5V377.7z"/>
        </g>
        <g class="fp-bowen-st7">
            <path class="fp-bowen-st8" d="M76.1,377.7h0.6l0.9,2.3l0.9-2.3h0.6l-1.2,3h-0.5L76.1,377.7z"/>
        </g>
        <g class="fp-bowen-st7">
            <path class="fp-bowen-st8" d="M80.4,377.6h0.5l1.3,3h-0.6l-0.3-0.7h-1.4l-0.3,0.7h-0.5L80.4,377.6z M81.1,379.5l-0.5-1.2l-0.5,1.2H81.1z"
                />
        </g>
        <g class="fp-bowen-st7">
            <path class="fp-bowen-st8" d="M82.6,379.2L82.6,379.2c0-0.9,0.6-1.6,1.5-1.6c0.6,0,0.9,0.2,1.2,0.5l-0.3,0.4c-0.2-0.2-0.5-0.4-0.8-0.4
                c-0.6,0-1,0.5-1,1.1v0c0,0.6,0.4,1.1,1,1.1c0.4,0,0.6-0.1,0.9-0.4l0.3,0.3c-0.3,0.3-0.7,0.5-1.2,0.5
                C83.2,380.7,82.6,380,82.6,379.2z"/>
        </g>
        <rect x="0.5" y="0.5" class="fp-bowen-st24" width="557.3" height="557.3"/>
    </g>
</g>
</svg>
