<svg xmlns="http://www.w3.org/2000/svg" viewBox="0 0 558.34 558.34"><defs><style>.cls-1,.cls-17,.cls-18,.cls-19,.cls-20,.cls-21,.cls-23,.cls-24,.cls-27,.cls-4,.cls-5,.cls-54{fill:none;}.cls-1{stroke:#a6a8ab;}.cls-1,.cls-11,.cls-12,.cls-13,.cls-14,.cls-16,.cls-19,.cls-20,.cls-22,.cls-23,.cls-24,.cls-25,.cls-26,.cls-27,.cls-3,.cls-4,.cls-49,.cls-5,.cls-54,.cls-6{stroke-miterlimit:10;}.cls-1,.cls-24,.cls-25,.cls-3,.cls-4{stroke-width:0.27px;}.cls-11,.cls-2,.cls-3{fill:#e4e9e4;}.cls-11,.cls-12,.cls-13,.cls-14,.cls-16,.cls-17,.cls-18,.cls-19,.cls-20,.cls-26,.cls-27,.cls-3,.cls-4,.cls-49{stroke:#32553b;}.cls-23,.cls-24,.cls-5{stroke:#799900;}.cls-5,.cls-6{stroke-width:0.16px;}.cls-22,.cls-25,.cls-6{fill:#fff;stroke:#62a044;}.cls-7{fill:#f5f7f5;}.cls-8{font-size:2.81px;letter-spacing:-0.03em;}.cls-15,.cls-28,.cls-29,.cls-31,.cls-32,.cls-35,.cls-38,.cls-39,.cls-43,.cls-44,.cls-48,.cls-50,.cls-8{fill:#32553b;}.cls-28,.cls-29,.cls-31,.cls-32,.cls-35,.cls-38,.cls-39,.cls-43,.cls-44,.cls-48,.cls-50,.cls-8{font-family:Gotham-Medium, Gotham;}.cls-9{letter-spacing:0.04em;}.cls-10{letter-spacing:0.01em;}.cls-11,.cls-20{stroke-width:0.24px;}.cls-12,.cls-13,.cls-14,.cls-16,.cls-26,.cls-49{fill:#c8d0c9;}.cls-12{stroke-width:0.27px;}.cls-13{stroke-width:0.24px;}.cls-14{stroke-width:0.24px;}.cls-16{stroke-width:0.21px;}.cls-17,.cls-18,.cls-21{stroke-linejoin:round;}.cls-17,.cls-19{stroke-width:4.33px;}.cls-18,.cls-21{stroke-width:7.59px;}.cls-21{stroke:#e4e9e4;}.cls-22,.cls-23{stroke-width:0.3px;}.cls-26,.cls-27{stroke-width:0.21px;}.cls-28{font-size:10.84px;letter-spacing:0.04em;}.cls-29{font-size:6.43px;letter-spacing:0.04em;}.cls-30{letter-spacing:0em;}.cls-31{font-size:4.33px;letter-spacing:0.04em;}.cls-32{font-size:6.06px;letter-spacing:0.04em;}.cls-33{letter-spacing:-0.05em;}.cls-34{letter-spacing:0.04em;}.cls-35{font-size:8.56px;letter-spacing:0.04em;}.cls-36{letter-spacing:0em;}.cls-37{letter-spacing:0.02em;}.cls-38{font-size:5.08px;letter-spacing:0.04em;}.cls-39{font-size:3.37px;letter-spacing:0.02em;}.cls-40{letter-spacing:0em;}.cls-41{letter-spacing:-0.05em;}.cls-42{letter-spacing:0.04em;}.cls-43,.cls-48{font-size:4.63px;}.cls-43{letter-spacing:0.04em;}.cls-44{font-size:6.48px;letter-spacing:0.04em;}.cls-45{letter-spacing:0em;}.cls-46{letter-spacing:0.03em;}.cls-47{letter-spacing:0.04em;}.cls-48{letter-spacing:0.04em;}.cls-49{stroke-width:0.15px;}.cls-50{font-size:4.28px;letter-spacing:0.04em;}.cls-51{letter-spacing:-0.06em;}.cls-52{letter-spacing:0em;}.cls-53{letter-spacing:0.04em;}.cls-54{stroke:#f5f7f5;}</style></defs><title>fp_bowen</title><g id="Layer_2" data-name="Layer 2"><g id="DESIGN"><line class="cls-1" x1="63.76" y1="150.72" x2="407.91" y2="150.72"/><line class="cls-1" x1="63.76" y1="158.57" x2="415.61" y2="158.57"/><line class="cls-1" x1="63.76" y1="166.42" x2="423.47" y2="166.42"/><line class="cls-1" x1="63.76" y1="174.28" x2="431.32" y2="174.28"/><line class="cls-1" x1="63.76" y1="182.13" x2="439.17" y2="182.13"/><line class="cls-1" x1="63.76" y1="189.98" x2="447.03" y2="189.98"/><line class="cls-1" x1="63.76" y1="197.84" x2="454.88" y2="197.84"/><line class="cls-1" x1="63.76" y1="205.69" x2="463.43" y2="205.69"/><line class="cls-1" x1="63.76" y1="213.54" x2="470.59" y2="213.54"/><line class="cls-1" x1="63.76" y1="221.4" x2="477.97" y2="221.4"/><line class="cls-1" x1="63.76" y1="229.25" x2="477.97" y2="229.25"/><line class="cls-1" x1="63.76" y1="237.1" x2="477.97" y2="237.1"/><line class="cls-1" x1="63.76" y1="244.96" x2="477.97" y2="244.96"/><line class="cls-1" x1="63.76" y1="252.81" x2="477.97" y2="252.81"/><line class="cls-1" x1="63.76" y1="260.66" x2="477.97" y2="260.66"/><line class="cls-1" x1="63.76" y1="268.52" x2="477.97" y2="268.52"/><line class="cls-1" x1="63.76" y1="276.37" x2="477.97" y2="276.37"/><line class="cls-1" x1="63.76" y1="284.22" x2="477.97" y2="284.22"/><line class="cls-1" x1="63.76" y1="292.08" x2="477.97" y2="292.08"/><line class="cls-1" x1="63.76" y1="299.93" x2="477.97" y2="299.93"/><line class="cls-1" x1="63.76" y1="307.79" x2="477.97" y2="307.79"/><line class="cls-1" x1="63.76" y1="315.64" x2="477.97" y2="315.64"/><line class="cls-1" x1="63.76" y1="323.49" x2="477.97" y2="323.49"/><line class="cls-1" x1="63.76" y1="331.35" x2="477.97" y2="331.35"/><line class="cls-1" x1="63.76" y1="339.2" x2="477.97" y2="339.2"/><line class="cls-1" x1="63.76" y1="347.05" x2="477.97" y2="347.05"/><line class="cls-1" x1="63.76" y1="354.91" x2="477.97" y2="354.91"/><line class="cls-1" x1="63.76" y1="362.76" x2="477.97" y2="362.76"/><line class="cls-1" x1="63.76" y1="370.61" x2="477.97" y2="370.61"/><line class="cls-1" x1="63.76" y1="378.47" x2="477.97" y2="378.47"/><line class="cls-1" x1="63.76" y1="386.32" x2="477.97" y2="386.32"/><line class="cls-1" x1="63.76" y1="394.17" x2="477.97" y2="394.17"/><line class="cls-1" x1="63.76" y1="402.03" x2="477.97" y2="402.03"/><line class="cls-1" x1="63.76" y1="409.88" x2="477.97" y2="409.88"/><line class="cls-1" x1="63.76" y1="417.73" x2="260.13" y2="417.73"/><line class="cls-1" x1="63.76" y1="425.59" x2="260.13" y2="425.59"/><line class="cls-1" x1="63.76" y1="433.44" x2="260.13" y2="433.44"/><line class="cls-1" x1="63.76" y1="441.29" x2="260.13" y2="441.29"/><line class="cls-1" x1="63.76" y1="449.15" x2="260.13" y2="449.15"/><polygon class="cls-2" points="265.74 142.97 63.4 142.97 63.4 266.52 63.4 273.08 63.4 309.81 122.04 309.81 122.04 273.08 265.74 273.08 265.74 142.97"/><polygon class="cls-2" points="388.1 309.31 356.87 309.31 270.32 309.31 270.32 361.33 356.87 361.33 356.87 416.07 477.97 416.07 477.97 309.31 388.1 309.31"/><rect class="cls-3" x="284.69" y="173.57" width="2.26" height="1.29" transform="translate(111.61 460.03) rotate(-90)"/><rect class="cls-3" x="283.95" y="190.56" width="3.73" height="1.29" transform="translate(94.61 477.02) rotate(-90)"/><line class="cls-4" x1="283.43" y1="189.69" x2="283.43" y2="174.87"/><line class="cls-4" x1="285.82" y1="189.34" x2="285.82" y2="175.34"/><polyline class="cls-4" points="285.17 189.64 268.88 189.64 268.88 174.87 285.17 174.87"/><path class="cls-5" d="M287.21,189.32a14.28,14.28,0,0,0,9.23-3.62"/><rect class="cls-6" x="291.38" y="173.5" width="0.77" height="13.97" transform="translate(625.69 101.79) rotate(135)"/><rect class="cls-7" x="269.54" y="180.09" width="12.93" height="4.62"/><text class="cls-8" transform="translate(269.8 183.31)">P<tspan class="cls-9" x="1.79" y="0">ANT</tspan><tspan class="cls-10" x="8.39" y="0">R</tspan><tspan class="cls-9" x="10.46" y="0">Y</tspan></text><rect class="cls-11" x="241.38" y="214.07" width="68.74" height="21.45" transform="translate(500.54 -50.96) rotate(90)"/><polygon class="cls-12" points="287.31 210.34 288.15 210.34 288.15 235.77 265.03 235.77 265.03 210.34 287.31 210.34"/><circle class="cls-12" cx="274.09" cy="230.3" r="3.78"/><circle class="cls-12" cx="283.09" cy="230.3" r="2.94"/><circle class="cls-12" cx="283.09" cy="215.88" r="2.47"/><circle class="cls-12" cx="274.09" cy="215.88" r="2.47"/><line class="cls-12" x1="269" y1="235.77" x2="269" y2="210.34"/><polygon class="cls-13" points="118.04 362.17 153.52 362.17 153.46 343.96 117.98 343.96 118.04 362.17"/><rect class="cls-13" x="122.01" y="345.76" width="15.43" height="11.48" rx="2.18" ry="2.18"/><circle class="cls-13" cx="129.72" cy="353.17" r="1.28"/><polygon class="cls-13" points="292.89 415.78 340.23 415.78 340.17 397.57 292.82 397.57 292.89 415.78"/><rect class="cls-13" x="308.81" y="399.37" width="15.43" height="11.48" rx="2.18" ry="2.18"/><circle class="cls-13" cx="316.53" cy="406.77" r="1.28"/><rect class="cls-14" x="65.43" y="310.58" width="29.71" height="48.49"/><path class="cls-14" d="M80.63,314.21s-11.56-.18-11.56,4.41v34.59s-.16,3.68,3.4,3.68H88.82c3.56,0,3.4-3.68,3.4-3.68V318.62c0-4.58-11.56-4.41-11.56-4.41Z"/><path class="cls-14" d="M80.73,355.25a3.24,3.24,0,0,1,2.13.77l-2.07,2.31h-.13L78.6,356a3.24,3.24,0,0,1,2.13-.77"/><rect class="cls-15" x="63.62" y="357.53" width="33.05" height="4.68"/><rect class="cls-14" x="238.51" y="361.4" width="29.71" height="48.49"/><path class="cls-14" d="M253.72,365s-11.56-.18-11.56,4.41V404s-.16,3.68,3.4,3.68H261.9c3.56,0,3.4-3.68,3.4-3.68V369.45c0-4.58-11.56-4.41-11.56-4.41Z"/><path class="cls-14" d="M253.81,406.07a3.24,3.24,0,0,1,2.13.77l-2.07,2.31h-.13l-2.07-2.31a3.24,3.24,0,0,1,2.13-.77"/><rect class="cls-15" x="236.7" y="408.36" width="33.05" height="4.68"/><polyline class="cls-16" points="97.31 361.84 97.31 357.62 117.34 357.62 117.34 361.84"/><path class="cls-16" d="M102.92,347.9a3.12,3.12,0,0,1,.29,1.3v2.53a.75.75,0,0,1-.79.81h9.8a.75.75,0,0,1-.79-.81V349.2a3.12,3.12,0,0,1,.29-1.3"/><ellipse class="cls-16" cx="107.32" cy="343.14" rx="5.66" ry="7.65"/><rect class="cls-16" x="98.79" y="352.53" width="17.08" height="5.54"/><polyline class="cls-16" points="270.52 414.96 270.52 410.74 290.56 410.74 290.56 414.96"/><path class="cls-16" d="M276.14,401a3.12,3.12,0,0,1,.29,1.3v2.53a.75.75,0,0,1-.79.81h9.8a.75.75,0,0,1-.79-.81v-2.53a3.12,3.12,0,0,1,.29-1.3"/><ellipse class="cls-16" cx="280.54" cy="396.26" rx="5.66" ry="7.65"/><rect class="cls-16" x="272" y="405.65" width="17.08" height="5.54"/><polyline class="cls-17" points="400.11 142.97 400.11 125.45 496.74 125.45 496.74 222.75 477.65 222.75"/><line class="cls-18" x1="445.54" y1="188.49" x2="448.5" y2="191.46"/><line class="cls-18" x1="425.14" y1="168.1" x2="431.01" y2="173.96"/><polyline class="cls-18" points="364.84 142.97 400.01 142.97 410.61 153.57"/><line class="cls-18" x1="256.4" y1="142.97" x2="314.89" y2="142.97"/><line class="cls-18" x1="129.7" y1="142.97" x2="188.66" y2="142.97"/><polyline class="cls-18" points="203.21 455.53 63.4 455.53 63.4 142.97 63.4 142.97 79.75 142.97"/><polyline class="cls-18" points="477.97 406.53 477.97 416.07 260.13 416.07 260.13 455.53 233.06 455.53"/><line class="cls-18" x1="477.97" y1="298.43" x2="477.97" y2="338.8"/><polyline class="cls-18" points="468.82 211.78 477.97 220.93 477.97 248.48"/><line class="cls-19" x1="388.01" y1="309.31" x2="478.09" y2="309.31"/><line class="cls-19" x1="361.97" y1="309.31" x2="238.39" y2="309.31"/><line class="cls-19" x1="356.87" y1="309.31" x2="356.87" y2="366.84"/><line class="cls-19" x1="356.87" y1="361.33" x2="325.97" y2="361.33"/><line class="cls-19" x1="299.99" y1="361.33" x2="237.64" y2="361.33"/><line class="cls-19" x1="270.32" y1="361.3" x2="270.32" y2="309.31"/><line class="cls-19" x1="238.39" y1="355.51" x2="238.39" y2="424.12"/><line class="cls-19" x1="238.39" y1="305.02" x2="238.39" y2="315.23"/><line class="cls-19" x1="292.09" y1="305.02" x2="292.09" y2="309.27"/><polyline class="cls-19" points="292.09 277.08 292.09 260.57 265.98 260.57"/><line class="cls-19" x1="238.39" y1="444.68" x2="238.39" y2="455.53"/><line class="cls-19" x1="239.39" y1="416.46" x2="260.13" y2="416.46"/><line class="cls-19" x1="356.87" y1="393.25" x2="356.87" y2="415.67"/><line class="cls-19" x1="163.7" y1="142.97" x2="163.7" y2="273"/><polyline class="cls-19" points="194.36 273.08 265.74 273.08 265.74 142.97"/><line class="cls-19" x1="158.75" y1="273.08" x2="168.65" y2="273.08"/><line class="cls-19" x1="121.82" y1="273.08" x2="133.28" y2="273.08"/><polyline class="cls-19" points="199.05 273.08 199.05 251.63 209.85 251.63"/><line class="cls-19" x1="254.65" y1="251.63" x2="265.44" y2="251.63"/><polyline class="cls-19" points="292.09 273.08 286.54 273.08 286.54 260.57"/><polyline class="cls-19" points="94.19 247.38 122.04 247.38 122.04 309.58"/><line class="cls-19" x1="139.31" y1="309.69" x2="63.34" y2="309.69"/><polyline class="cls-19" points="165.75 309.69 200.2 309.69 200.2 305.01"/><line class="cls-19" x1="238.39" y1="277.47" x2="238.39" y2="273.08"/><line class="cls-19" x1="200.2" y1="277.47" x2="200.2" y2="273.08"/><line class="cls-19" x1="185.73" y1="361.98" x2="63.4" y2="361.98"/><line class="cls-19" x1="169.55" y1="309.69" x2="169.55" y2="361.98"/><line class="cls-19" x1="180.19" y1="447.76" x2="180.19" y2="455.53"/><line class="cls-19" x1="180.19" y1="361.26" x2="180.19" y2="369.04"/><line class="cls-19" x1="91.53" y1="361.26" x2="91.53" y2="366.78"/><line class="cls-19" x1="91.53" y1="391.34" x2="91.53" y2="411.7"/><line class="cls-19" x1="91.53" y1="440.01" x2="91.53" y2="456.13"/><rect class="cls-19" x="169.55" y="335.09" width="13.9" height="6.78"/><polyline class="cls-19" points="183.44 309.69 183.44 314.98 169.55 314.98"/><line class="cls-19" x1="91.53" y1="396.04" x2="63.4" y2="396.04"/><line class="cls-19" x1="68.41" y1="247.38" x2="63.4" y2="247.38"/><rect class="cls-15" x="238.37" y="411.47" width="25.41" height="4.48"/><rect class="cls-12" x="268.35" y="148.36" width="26.58" height="25.53" transform="translate(442.77 -120.51) rotate(90)"/><rect class="cls-11" x="304.94" y="196.04" width="75.59" height="34.73" transform="translate(556.14 -129.32) rotate(90)"/><line class="cls-20" x1="349.82" y1="175.62" x2="349.82" y2="251.2"/><rect class="cls-12" x="326.69" y="201.51" width="15.35" height="23.81" rx="2.28" ry="2.28" transform="translate(668.73 426.82) rotate(180)"/><circle class="cls-12" cx="334.37" cy="213.41" r="1.31"/><line class="cls-21" x1="188.66" y1="142.97" x2="256.4" y2="142.97"/><rect class="cls-15" x="239.01" y="142.56" width="5.06" height="0.82" transform="translate(384.5 -98.57) rotate(90)"/><rect class="cls-15" x="200.99" y="142.56" width="5.06" height="0.82" transform="translate(346.49 -60.56) rotate(90)"/><line class="cls-21" x1="129.7" y1="142.97" x2="79.75" y2="142.97"/><rect class="cls-15" x="93.29" y="142.56" width="5.05" height="0.82" transform="translate(-47.15 238.78) rotate(-90)"/><rect class="cls-15" x="79.75" y="142.64" width="49.95" height="0.7"/><rect class="cls-15" x="79.75" y="140.09" width="49.95" height="0.7"/><rect class="cls-15" x="79.75" y="145.15" width="49.95" height="0.7"/><line class="cls-21" x1="477.97" y1="298.43" x2="477.97" y2="248.48"/><rect class="cls-15" x="475.45" y="264.13" width="5.05" height="0.82"/><rect class="cls-15" x="452.97" y="273.1" width="49.95" height="0.7" transform="translate(751.4 -204.5) rotate(90)"/><rect class="cls-15" x="455.53" y="273.1" width="49.95" height="0.7" transform="translate(753.96 -207.05) rotate(90)"/><rect class="cls-15" x="450.47" y="273.1" width="49.95" height="0.7" transform="translate(748.9 -201.99) rotate(90)"/><rect class="cls-15" x="188.66" y="142.64" width="67.73" height="0.7"/><rect class="cls-15" x="188.66" y="140.09" width="67.73" height="0.7"/><rect class="cls-15" x="188.66" y="145.15" width="67.73" height="0.7"/><line class="cls-21" x1="477.97" y1="338.8" x2="477.97" y2="406.53"/><rect class="cls-15" x="475.44" y="391.26" width="5.06" height="0.82" transform="translate(955.95 783.34) rotate(-180)"/><rect class="cls-15" x="475.44" y="353.25" width="5.06" height="0.82" transform="translate(955.95 707.31) rotate(-180)"/><rect class="cls-15" x="444.08" y="372.31" width="67.73" height="0.7" transform="translate(850.61 -105.28) rotate(90)"/><rect class="cls-15" x="446.64" y="372.31" width="67.73" height="0.7" transform="translate(853.17 -107.84) rotate(90)"/><rect class="cls-15" x="441.58" y="372.31" width="67.73" height="0.7" transform="translate(848.11 -102.78) rotate(90)"/><line class="cls-21" x1="314.89" y1="142.97" x2="364.84" y2="142.97"/><rect class="cls-15" x="346.25" y="142.56" width="5.05" height="0.82" transform="translate(491.74 -205.81) rotate(90)"/><rect class="cls-15" x="314.89" y="142.59" width="49.95" height="0.7" transform="translate(679.73 285.88) rotate(180)"/><rect class="cls-15" x="314.89" y="145.15" width="49.95" height="0.7" transform="translate(679.73 290.99) rotate(180)"/><rect class="cls-15" x="314.89" y="140.09" width="49.95" height="0.7" transform="translate(679.73 280.88) rotate(180)"/><rect class="cls-22" x="157.64" y="245.43" width="1.26" height="24.1"/><path class="cls-23" d="M157.64,245.43a24.38,24.38,0,0,0-24.32,24.28"/><rect class="cls-22" x="341.13" y="355.5" width="1.26" height="24.1" transform="translate(-25.79 709.31) rotate(-90)"/><path class="cls-23" d="M329.71,368.18A24.38,24.38,0,0,0,354,392.5"/><rect class="cls-22" x="362.2" y="312.17" width="1.26" height="24.1" transform="translate(725.66 648.43) rotate(-180)"/><path class="cls-23" d="M363.46,336.26A24.38,24.38,0,0,0,387.78,312"/><rect class="cls-22" x="68.61" y="250.24" width="1.26" height="24.1" transform="translate(138.48 524.59) rotate(-180)"/><path class="cls-23" d="M69.87,274.34a24.38,24.38,0,0,0,24.32-24.28"/><rect class="cls-22" x="168.78" y="245.43" width="1.26" height="24.1" transform="translate(338.83 514.96) rotate(180)"/><path class="cls-23" d="M170,245.43a24.38,24.38,0,0,1,24.32,24.28"/><rect class="cls-22" x="163.99" y="312.47" width="1.26" height="24.1"/><path class="cls-23" d="M164,336.57a24.38,24.38,0,0,1-24.32-24.28"/><rect class="cls-22" x="300.04" y="334.21" width="1.26" height="24.1" transform="translate(601.34 692.53) rotate(180)"/><path class="cls-23" d="M301.3,334.21a24.38,24.38,0,0,1,24.32,24.28"/><path class="cls-24" d="M234.92,335.23s-7.55-.14-13.08,5.13"/><rect class="cls-25" x="227.91" y="337.85" width="1.1" height="19.81" transform="translate(-178.99 263.4) rotate(-45)"/><path class="cls-24" d="M234.92,335.23s-7.55.14-13.08-5.13"/><rect class="cls-25" x="227.91" y="312.79" width="1.1" height="19.81" transform="translate(295.1 -67.03) rotate(45)"/><path class="cls-24" d="M232.39,248.74s.15-8.23-5.6-14.26"/><rect class="cls-25" x="218.13" y="230.89" width="1.2" height="21.6" transform="translate(234.96 -83.88) rotate(45)"/><path class="cls-24" d="M232.39,248.74s-.15-8.23,5.6-14.26"/><rect class="cls-25" x="245.45" y="230.89" width="1.2" height="21.6" transform="translate(590.92 238.61) rotate(135)"/><path class="cls-23" d="M203.75,454.24c0-4.52-.19-11.54,8.39-20"/><rect class="cls-22" x="221.04" y="430.53" width="1.51" height="28.85" transform="translate(-249.66 287.16) rotate(-45)"/><path class="cls-23" d="M235.19,424C232,424,227,423.9,221,430"/><rect class="cls-22" x="228.07" y="426.61" width="1.07" height="20.44" transform="translate(699.13 584.08) rotate(135)"/><path class="cls-23" d="M94.93,391.3c3.81,0,9.74.16,16.88-7.08"/><rect class="cls-22" x="102.13" y="363.9" width="1.28" height="24.34" transform="translate(-235.82 182.82) rotate(-45)"/><path class="cls-23" d="M95.43,411.82c4.42,0,11.29-.19,19.56,8.2"/><rect class="cls-22" x="103.78" y="415.37" width="1.48" height="28.21" transform="translate(334.3 51.88) rotate(45)"/><rect class="cls-22" x="477.15" y="188.16" width="1.37" height="26.17" transform="translate(282.26 -278.94) rotate(45)"/><path class="cls-23" d="M486.6,191.51a26.48,26.48,0,0,0-37.32,0"/><line class="cls-23" x1="483.47" y1="194.64" x2="484.44" y2="195.61"/><line class="cls-23" x1="471.23" y1="206.88" x2="472.2" y2="207.85"/><line class="cls-23" x1="483.96" y1="195.13" x2="471.71" y2="207.37"/><rect class="cls-26" x="243.34" y="314.93" width="22.04" height="19.82" transform="translate(508.72 649.67) rotate(180)"/><line class="cls-27" x1="263" y1="314.86" x2="263" y2="334.7"/><rect class="cls-26" x="243.34" y="335.78" width="22.04" height="19.82" transform="translate(508.72 691.37) rotate(180)"/><line class="cls-27" x1="263" y1="335.71" x2="263" y2="355.55"/><rect class="cls-7" x="388.97" y="217.4" width="53.29" height="14.9"/><rect class="cls-7" x="394.81" y="226.4" width="41.6" height="14.9"/><text class="cls-28" transform="translate(394.93 227.45)">LIVING</text><text class="cls-29" transform="translate(396.81 237.55)">12’ 11” x 17’</text><rect class="cls-7" x="303.57" y="257.62" width="58.97" height="21.8"/><text class="cls-28" transform="translate(306.56 267.67)">KI<tspan class="cls-30" x="12.17" y="0">T</tspan><tspan x="19.21" y="0">CHEN</tspan></text><text class="cls-29" transform="translate(311.93 277.77)">8’ 7” x 11’ 6”</text><text class="cls-28" transform="translate(84.04 195.98)">BEDROOM</text><text class="cls-29" transform="translate(98.44 206.08)">11’ x 11’ 3”</text><text class="cls-28" transform="translate(183.13 195.98)">BEDROOM</text><text class="cls-29" transform="translate(197.53 206.08)">11’ x 11’ 3”</text><text class="cls-28" transform="translate(387.57 360.5)">BEDROOM</text><text class="cls-29" transform="translate(401.21 370.6)">13’ x 11’ 8”</text><rect class="cls-7" x="104.17" y="318.97" width="26.35" height="13.73"/><text class="cls-31" transform="translate(109.47 331.22)">12’ x 5’</text><text class="cls-32" transform="translate(108.36 325.97)">B<tspan class="cls-33" x="4.62" y="0">A</tspan><tspan class="cls-34" x="9.11" y="0">TH</tspan></text><rect class="cls-7" x="291.77" y="375.29" width="34.09" height="13.73"/><text class="cls-31" transform="translate(294.05 387.54)">13’ 4” x 5’ 6”</text><text class="cls-32" transform="translate(299.83 382.3)">B<tspan class="cls-33" x="4.62" y="0">A</tspan><tspan class="cls-34" x="9.11" y="0">TH</tspan></text><text class="cls-35" transform="translate(435.03 155.3)">BA<tspan class="cls-36" x="13.63" y="0">L</tspan><tspan class="cls-37" x="18.93" y="0">C</tspan><tspan x="25.42" y="0">ONY</tspan></text><text class="cls-38" transform="translate(449.05 165.24)">11’ x 11’</text><rect class="cls-7" x="75.93" y="416.78" width="5.85" height="15.4"/><text class="cls-39" transform="translate(80.15 429.29) rotate(-90) scale(0.94 1)">C<tspan class="cls-40" x="2.55" y="0">O</tspan><tspan class="cls-41" x="5.4" y="0">A</tspan><tspan class="cls-42" x="7.89" y="0">T</tspan></text><rect class="cls-7" x="245.09" y="428.36" width="5.85" height="15.4" transform="translate(496.03 872.13) rotate(180)"/><text class="cls-39" transform="translate(246.72 431.26) rotate(90) scale(0.94 1)">C<tspan class="cls-40" x="2.55" y="0">O</tspan><tspan class="cls-41" x="5.4" y="0">A</tspan><tspan class="cls-42" x="7.89" y="0">T</tspan></text><text class="cls-43" transform="translate(217.61 266.87)">7’ 4” x 2’ 4”</text><text class="cls-44" transform="translate(218.36 260.57)">C<tspan class="cls-45" x="5.04" y="0">L</tspan><tspan class="cls-46" x="9.06" y="0">O</tspan><tspan class="cls-47" x="14.8" y="0">SET</tspan></text><text class="cls-48" transform="translate(79.46 286.03)">6’ 8” x 6’ 10”</text><text class="cls-44" transform="translate(81.41 279.73)">C<tspan class="cls-45" x="5.04" y="0">L</tspan><tspan class="cls-46" x="9.06" y="0">O</tspan><tspan class="cls-47" x="14.8" y="0">SET</tspan></text><text class="cls-48" transform="translate(298.68 328.98)">9’ 6” x 5’ 9”</text><text class="cls-44" transform="translate(299.43 322.68)">C<tspan class="cls-45" x="5.04" y="0">L</tspan><tspan class="cls-46" x="9.06" y="0">O</tspan><tspan class="cls-47" x="14.8" y="0">SET</tspan></text><rect class="cls-7" x="125.75" y="399.13" width="35.13" height="11.77"/><rect class="cls-7" x="115.73" y="410.86" width="55.17" height="11.77"/><text class="cls-28" transform="translate(130.52 409.19)">DEN</text><text class="cls-29" transform="translate(127.14 419.28)">9’ 5” x 11’</text><line class="cls-21" x1="425.14" y1="168.09" x2="410.61" y2="153.56"/><rect class="cls-15" x="407.6" y="160.48" width="20.55" height="0.7" transform="translate(236.12 -248.38) rotate(45)"/><line class="cls-21" x1="445.54" y1="188.49" x2="431.01" y2="173.96"/><rect class="cls-15" x="428" y="180.87" width="20.55" height="0.7" transform="translate(256.51 -256.83) rotate(45)"/><circle class="cls-49" cx="78.85" cy="379.17" r="9.3"/><text class="cls-50" transform="translate(72.56 380.65)">H<tspan class="cls-51" x="3.43" y="0">V</tspan><tspan class="cls-52" x="6.38" y="0">A</tspan><tspan class="cls-53" x="9.75" y="0">C</tspan></text><rect class="cls-54" x="0.5" y="0.5" width="557.34" height="557.34"/></g></g></svg>