<?xml version="1.0" encoding="utf-8"?>
<!-- Generator: Adobe Illustrator 21.1.0, SVG Export Plug-In . SVG Version: 6.00 Build 0)  -->
<svg version="1.1" id="Layer_1" xmlns="http://www.w3.org/2000/svg" xmlns:xlink="http://www.w3.org/1999/xlink" x="0px" y="0px"
	 viewBox="0 0 558.3 558.3" style="enable-background:new 0 0 558.3 558.3;" xml:space="preserve">
<style type="text/css">
	.fp-brasstown-st0{fill:none;stroke:#A6A8AB;stroke-width:0.27;stroke-miterlimit:10;}
	.fp-brasstown-st1{fill:#E4E9E4;}
	.fp-brasstown-st2{fill:#E4E9E4;stroke:#32553B;stroke-width:0.24;stroke-miterlimit:10;}
	.fp-brasstown-st3{fill:#C8D0C9;stroke:#32553B;stroke-width:0.27;stroke-miterlimit:10;}
	.fp-brasstown-st4{fill:none;stroke:#32553B;stroke-width:0.27;stroke-miterlimit:10;}
	.fp-brasstown-st5{fill:#C8D0C9;stroke:#32553B;stroke-width:0.21;stroke-miterlimit:10;}
	.fp-brasstown-st6{fill:#C8D0C9;stroke:#32553B;stroke-width:0.24;stroke-miterlimit:10;}
	.fp-brasstown-st7{fill:#32553B;}
	.fp-brasstown-st8{fill:none;stroke:#32553B;stroke-width:7.59;stroke-linejoin:round;}
	.fp-brasstown-st9{fill:none;stroke:#32553B;stroke-width:4.33;stroke-linejoin:round;}
	.fp-brasstown-st10{fill:none;stroke:#32553B;stroke-width:4.33;stroke-miterlimit:10;}
	.fp-brasstown-st11{fill:none;stroke:#32553B;stroke-width:0.24;stroke-miterlimit:10;}
	.fp-brasstown-st12{fill:#E4E9E4;stroke:#32553B;stroke-width:0.27;stroke-miterlimit:10;}
	.fp-brasstown-st13{fill:none;stroke:#799900;stroke-width:0.16;stroke-miterlimit:10;}
	.fp-brasstown-st14{fill:#FFFFFF;stroke:#62A044;stroke-width:0.16;stroke-miterlimit:10;}
	.fp-brasstown-st15{enable-background:new    ;}
	.fp-brasstown-st16{fill:none;stroke:#E4E9E4;stroke-width:7.59;stroke-linejoin:round;}
	.fp-brasstown-st17{fill:#FFFFFF;stroke:#62A044;stroke-width:0.13;stroke-miterlimit:10;}
	.fp-brasstown-st18{fill:none;stroke:#799900;stroke-width:0.13;stroke-miterlimit:10;}
	.fp-brasstown-st19{fill:none;stroke:#799900;stroke-width:0.3;stroke-miterlimit:10;}
	.fp-brasstown-st20{fill:#FFFFFF;stroke:#62A044;stroke-width:0.3;stroke-miterlimit:10;}
	.fp-brasstown-st21{fill:none;stroke:#799900;stroke-width:0.27;stroke-miterlimit:10;}
	.fp-brasstown-st22{fill:#FFFFFF;stroke:#62A044;stroke-width:0.27;stroke-miterlimit:10;}
	.fp-brasstown-st23{fill:none;stroke:#32553B;stroke-width:0.21;stroke-miterlimit:10;}
	.fp-brasstown-st24{fill:#C8D0C9;stroke:#32553B;stroke-width:0.2;stroke-miterlimit:10;}
	.fp-brasstown-st25{fill:none;stroke:#32553B;stroke-width:0.84;stroke-miterlimit:10;}
	.fp-brasstown-st26{fill:none;stroke:#F5F7F5;stroke-miterlimit:10;}
</style>
<title>fp_brasstown</title>
<g id="Layer_2">
	<g id="DESIGN">
		<line class="fp-brasstown-st0" x1="70.2" y1="130.1" x2="392.6" y2="130.1"/>
		<line class="fp-brasstown-st0" x1="70.2" y1="140.1" x2="403.3" y2="140.1"/>
		<line class="fp-brasstown-st0" x1="70.2" y1="150" x2="413.5" y2="150"/>
		<line class="fp-brasstown-st0" x1="70.2" y1="159.9" x2="422.4" y2="159.9"/>
		<line class="fp-brasstown-st0" x1="70.2" y1="169.8" x2="432.8" y2="169.8"/>
		<line class="fp-brasstown-st0" x1="70.2" y1="179.7" x2="442.7" y2="179.7"/>
		<line class="fp-brasstown-st0" x1="70.2" y1="189.6" x2="452.6" y2="189.6"/>
		<line class="fp-brasstown-st0" x1="70.2" y1="199.5" x2="459.6" y2="199.5"/>
		<line class="fp-brasstown-st0" x1="70.2" y1="209.4" x2="470.7" y2="209.4"/>
		<line class="fp-brasstown-st0" x1="70.2" y1="219.3" x2="470.7" y2="219.3"/>
		<line class="fp-brasstown-st0" x1="70.2" y1="229.2" x2="470.7" y2="229.2"/>
		<line class="fp-brasstown-st0" x1="70.2" y1="239.1" x2="470.7" y2="239.1"/>
		<line class="fp-brasstown-st0" x1="70.2" y1="249" x2="470.7" y2="249"/>
		<line class="fp-brasstown-st0" x1="70.2" y1="259" x2="470.7" y2="259"/>
		<line class="fp-brasstown-st0" x1="70.2" y1="268.9" x2="470.7" y2="268.9"/>
		<line class="fp-brasstown-st0" x1="70.2" y1="278.8" x2="470.7" y2="278.8"/>
		<line class="fp-brasstown-st0" x1="70.2" y1="288.7" x2="470.7" y2="288.7"/>
		<line class="fp-brasstown-st0" x1="70.2" y1="298.6" x2="470.7" y2="298.6"/>
		<line class="fp-brasstown-st0" x1="70.2" y1="308.5" x2="470.7" y2="308.5"/>
		<line class="fp-brasstown-st0" x1="70.2" y1="318.4" x2="470.7" y2="318.4"/>
		<line class="fp-brasstown-st0" x1="70.2" y1="328.3" x2="470.7" y2="328.3"/>
		<line class="fp-brasstown-st0" x1="70.2" y1="338.2" x2="470.4" y2="338.2"/>
		<line class="fp-brasstown-st0" x1="70.2" y1="348.1" x2="470.4" y2="348.1"/>
		<line class="fp-brasstown-st0" x1="70.2" y1="358" x2="470.4" y2="358"/>
		<line class="fp-brasstown-st0" x1="70.2" y1="367.9" x2="459.6" y2="367.9"/>
		<line class="fp-brasstown-st0" x1="70.2" y1="377.8" x2="459.6" y2="377.8"/>
		<line class="fp-brasstown-st0" x1="70.2" y1="387.7" x2="459.6" y2="387.7"/>
		<line class="fp-brasstown-st0" x1="70.2" y1="397.6" x2="459.6" y2="397.6"/>
		<line class="fp-brasstown-st0" x1="70.2" y1="407.6" x2="459.6" y2="407.6"/>
		<line class="fp-brasstown-st0" x1="70.2" y1="417.5" x2="459.6" y2="417.5"/>
		<line class="fp-brasstown-st0" x1="70.2" y1="427.4" x2="459.6" y2="427.4"/>
		<line class="fp-brasstown-st0" x1="70.2" y1="437.3" x2="459.6" y2="437.3"/>
		<line class="fp-brasstown-st0" x1="70.2" y1="447.2" x2="459.6" y2="447.2"/>
		<line class="fp-brasstown-st0" x1="70.2" y1="457.1" x2="459.6" y2="457.1"/>
		<line class="fp-brasstown-st0" x1="70.2" y1="467" x2="459.6" y2="467"/>
		<line class="fp-brasstown-st0" x1="70.2" y1="476.9" x2="459.6" y2="476.9"/>
		<polygon class="fp-brasstown-st1" points="68.7,117.6 68.7,216.4 68.7,233.3 68.7,311.5 135.1,311.5 135.1,293.4 145.6,293.4 145.6,233.3 
			229.1,233.3 229.1,117.6 		"/>
		<polygon class="fp-brasstown-st1" points="470.1,361.1 289.4,361.1 289.4,418.2 266,418.2 266,476.6 308.7,476.6 308.7,476 470.1,476 		"/>
		<line class="fp-brasstown-st0" x1="457.1" y1="194.1" x2="434" y2="171"/>
		<rect x="337.4" y="337.8" class="fp-brasstown-st2" width="86.5" height="23.2"/>
		<polygon class="fp-brasstown-st3" points="366.1,337.2 366.1,336.4 391.5,336.4 391.5,359.5 366.1,359.5 		"/>
		<circle class="fp-brasstown-st3" cx="386.1" cy="350.5" r="3.8"/>
		<circle class="fp-brasstown-st3" cx="386.1" cy="341.5" r="2.9"/>
		<circle class="fp-brasstown-st3" cx="371.6" cy="341.5" r="2.5"/>
		<circle class="fp-brasstown-st3" cx="371.6" cy="350.5" r="2.5"/>
		<line class="fp-brasstown-st4" x1="391.5" y1="355.6" x2="366.1" y2="355.6"/>
		<polyline class="fp-brasstown-st5" points="229.5,328.1 234.2,328.1 234.2,350.3 229.5,350.3 		"/>
		<path class="fp-brasstown-st5" d="M245,334.3c-0.5,0.2-0.9,0.3-1.4,0.3h-2.8c-0.5,0-0.9-0.3-0.9-0.8c0,0,0-0.1,0-0.1v10.9
			c0-0.5,0.3-0.9,0.8-0.9c0,0,0.1,0,0.1,0h2.8c0.5,0,1,0.1,1.4,0.3"/>
		<ellipse class="fp-brasstown-st5" cx="250.3" cy="339.2" rx="8.5" ry="6.3"/>
		<rect x="233.7" y="329.7" class="fp-brasstown-st5" width="6.2" height="19"/>
		<rect x="229.3" y="355.4" class="fp-brasstown-st6" width="19.7" height="46.4"/>
		<path class="fp-brasstown-st6" d="M247.1,371.9v13.4c0,1.2-1,2.2-2.2,2.2h-8.9c-1.2,0-2.2-1-2.2-2.2v-13.4c0-1.2,1-2.2,2.2-2.2h8.9
			C246.1,369.7,247.1,370.7,247.1,371.9z"/>
		<circle class="fp-brasstown-st6" cx="238.6" cy="378.6" r="1.5"/>
		<rect x="133.3" y="351.3" class="fp-brasstown-st6" width="46.2" height="19.7"/>
		<polyline class="fp-brasstown-st5" points="107,371.2 107,366.5 129.3,366.5 129.3,371.2 		"/>
		<path class="fp-brasstown-st5" d="M113.3,355.7c0.2,0.5,0.3,0.9,0.3,1.4v2.8c0,0.5-0.3,0.9-0.8,0.9c0,0-0.1,0-0.1,0h10.9
			c-0.5,0-0.9-0.3-0.9-0.8c0,0,0-0.1,0-0.1v-2.8c0-0.5,0.1-1,0.3-1.4"/>
		<ellipse class="fp-brasstown-st5" cx="118.2" cy="350.4" rx="6.3" ry="8.5"/>
		<rect x="108.7" y="360.8" class="fp-brasstown-st5" width="19" height="6.2"/>
		<rect x="72.2" y="312.4" class="fp-brasstown-st6" width="32.5" height="53.1"/>
		<path class="fp-brasstown-st6" d="M88.9,316.4c0,0-12.7-0.2-12.7,4.8v37.9c0,0-0.2,4,3.7,4h17.9c3.9,0,3.7-4,3.7-4v-37.9
			C101.6,316.2,88.9,316.4,88.9,316.4L88.9,316.4z"/>
		<path class="fp-brasstown-st6" d="M89,361.4c0.9,0,1.7,0.3,2.3,0.8l-2.3,2.5h-0.1l-2.3-2.5C87.3,361.6,88.2,361.3,89,361.4"/>
		<rect x="70.1" y="363.9" class="fp-brasstown-st7" width="36.4" height="8.5"/>
		<rect x="235.4" y="291.5" class="fp-brasstown-st6" width="53.1" height="32.5"/>
		<path class="fp-brasstown-st6" d="M284.5,308.2c0,0,0.2-12.6-4.8-12.6h-37.9c0,0-4-0.2-4,3.7v9l0,0v9c0,3.9,4,3.7,4,3.7h37.9
			C284.6,320.9,284.5,308.2,284.5,308.2L284.5,308.2z"/>
		<path class="fp-brasstown-st6" d="M239.5,308.3c0,0.9-0.3,1.7-0.8,2.3l-2.5-2.3v-0.1l2.5-2.3C239.3,306.6,239.6,307.5,239.5,308.3"/>
		<rect x="228.6" y="289.4" class="fp-brasstown-st7" width="8.5" height="36.4"/>
		<polyline class="fp-brasstown-st8" points="470.7,451.2 470.7,477.2 209.4,477.2 		"/>
		<line class="fp-brasstown-st8" x1="470.7" y1="323.5" x2="470.7" y2="368.2"/>
		<polyline class="fp-brasstown-st8" points="457.1,194.1 470.7,207.7 470.7,264 		"/>
		<line class="fp-brasstown-st8" x1="429.3" y1="166.3" x2="434" y2="171"/>
		<line class="fp-brasstown-st8" x1="406.9" y1="143.9" x2="409.6" y2="146.6"/>
		<polyline class="fp-brasstown-st8" points="336.4,117.6 380.5,117.6 387.2,124.2 		"/>
		<line class="fp-brasstown-st8" x1="185.3" y1="117.6" x2="253.4" y2="117.6"/>
		<polyline class="fp-brasstown-st8" points="178.4,477.2 68.7,477.2 68.7,117.6 102.3,117.6 		"/>
		<polyline class="fp-brasstown-st9" points="380.5,117.6 380.5,97.3 489.8,97.3 489.8,208.3 470.7,208.3 		"/>
		<line class="fp-brasstown-st10" x1="190.9" y1="233.3" x2="124.1" y2="233.3"/>
		<line class="fp-brasstown-st10" x1="94.1" y1="233.3" x2="68.7" y2="233.3"/>
		<polyline class="fp-brasstown-st10" points="230.9,291.3 289.4,291.3 289.4,382.8 		"/>
		<line class="fp-brasstown-st10" x1="289.4" y1="412.1" x2="289.4" y2="417.7"/>
		<line class="fp-brasstown-st10" x1="229.1" y1="423.7" x2="229.1" y2="282.9"/>
		<polyline class="fp-brasstown-st10" points="331.5,422.7 331.5,417.7 229.1,417.7 		"/>
		<line class="fp-brasstown-st10" x1="266" y1="418.2" x2="266" y2="477.2"/>
		<line class="fp-brasstown-st10" x1="331.5" y1="453.4" x2="331.5" y2="477.2"/>
		<line class="fp-brasstown-st10" x1="289.4" y1="361.1" x2="431.1" y2="361.1"/>
		<line class="fp-brasstown-st10" x1="461.7" y1="361.1" x2="470.6" y2="361.1"/>
		<line class="fp-brasstown-st10" x1="461.7" y1="339.5" x2="470.6" y2="339.5"/>
		<polyline class="fp-brasstown-st10" points="430.1,339.5 423.9,339.5 423.9,361.3 		"/>
		<line class="fp-brasstown-st10" x1="229.1" y1="233.3" x2="220.7" y2="233.3"/>
		<line class="fp-brasstown-st10" x1="229.1" y1="117.6" x2="229.1" y2="242.4"/>
		<line class="fp-brasstown-st10" x1="179.7" y1="237.7" x2="179.7" y2="233.3"/>
		<line class="fp-brasstown-st10" x1="179.7" y1="267.5" x2="179.7" y2="280.8"/>
		<line class="fp-brasstown-st10" x1="179.7" y1="302.3" x2="179.7" y2="315.9"/>
		<line class="fp-brasstown-st10" x1="179.7" y1="346.9" x2="179.7" y2="371"/>
		<line class="fp-brasstown-st10" x1="229.1" y1="370.4" x2="220.3" y2="370.4"/>
		<line class="fp-brasstown-st10" x1="188.7" y1="370.4" x2="68.5" y2="370.4"/>
		<line class="fp-brasstown-st10" x1="171.9" y1="379.7" x2="171.9" y2="370.4"/>
		<line class="fp-brasstown-st10" x1="171.9" y1="475.3" x2="171.9" y2="466"/>
		<line class="fp-brasstown-st10" x1="229.1" y1="470.9" x2="229.1" y2="477.2"/>
		<line class="fp-brasstown-st10" x1="145.7" y1="233.3" x2="145.7" y2="293.5"/>
		<line class="fp-brasstown-st10" x1="179.7" y1="272.6" x2="145.7" y2="272.6"/>
		<line class="fp-brasstown-st10" x1="151.6" y1="311.5" x2="179.7" y2="311.5"/>
		<line class="fp-brasstown-st10" x1="68.7" y1="311.5" x2="138.4" y2="311.5"/>
		<line class="fp-brasstown-st10" x1="154.9" y1="272.6" x2="154.9" y2="311.5"/>
		<polyline class="fp-brasstown-st10" points="155.1,293.5 135.2,293.5 135.2,311.5 		"/>
		<path class="fp-brasstown-st6" d="M142.8,353.1h13.4c1.2,0,2.2,1,2.2,2.2v8.9c0,1.2-1,2.2-2.2,2.2h-13.4c-1.2,0-2.2-1-2.2-2.2v-8.9
			C140.6,354.1,141.6,353.1,142.8,353.1z"/>
		<circle class="fp-brasstown-st6" cx="149.5" cy="361.6" r="1.5"/>
		<rect x="327.1" y="252.8" class="fp-brasstown-st2" width="99.4" height="38.2"/>
		<line class="fp-brasstown-st11" x1="327.1" y1="264.1" x2="426.5" y2="264.1"/>
		<path class="fp-brasstown-st3" d="M397.9,274.1v13c0,1.3-1,2.3-2.3,2.3h-22.6c-1.3,0-2.3-1-2.3-2.3v-13c0-1.3,1-2.3,2.3-2.3h22.6
			C396.9,271.9,397.9,272.9,397.9,274.1z"/>
		<circle class="fp-brasstown-st3" cx="384.3" cy="280.6" r="1.5"/>
		<rect x="290.6" y="337.8" class="fp-brasstown-st12" width="2.3" height="1.3"/>
		<rect x="306.9" y="337.8" class="fp-brasstown-st12" width="3.7" height="1.3"/>
		<line class="fp-brasstown-st4" x1="307.2" y1="340.8" x2="292.4" y2="340.8"/>
		<line class="fp-brasstown-st4" x1="306.9" y1="338.5" x2="292.9" y2="338.5"/>
		<polyline class="fp-brasstown-st4" points="307.2,339.1 307.2,357.2 292.4,357.2 292.4,339.1 		"/>
		<path class="fp-brasstown-st13" d="M306.9,337.1c-0.1-3.4-1.3-6.7-3.6-9.2"/>
		
			<rect x="291" y="332.1" transform="matrix(0.7071 -0.7071 0.7071 0.7071 -147.8308 308.1147)" class="fp-brasstown-st14" width="14" height="0.8"/>
		<rect x="293.5" y="346.5" class="fp-brasstown-st1" width="12.9" height="4.6"/>
		<g class="fp-brasstown-st15">
			<path class="fp-brasstown-st7" d="M294,347.7h0.8c0.5,0,0.7,0.3,0.7,0.7v0c0,0.4-0.4,0.7-0.8,0.7h-0.4v0.6H294V347.7z M294.7,348.7
				c0.3,0,0.4-0.1,0.4-0.4v0c0-0.2-0.2-0.4-0.4-0.4h-0.4v0.7H294.7z"/>
		</g>
		<g class="fp-brasstown-st15">
			<path class="fp-brasstown-st7" d="M296.5,347.7h0.3l0.9,2h-0.4l-0.2-0.5h-0.9l-0.2,0.5h-0.4L296.5,347.7z M297,348.9l-0.3-0.8l-0.3,0.8H297z"
				/>
			<path class="fp-brasstown-st7" d="M298.1,347.7h0.3l1.1,1.4v-1.4h0.3v2h-0.3l-1.1-1.4v1.4h-0.3V347.7z"/>
			<path class="fp-brasstown-st7" d="M300.9,348h-0.6v-0.3h1.6v0.3h-0.6v1.6h-0.3V348z"/>
		</g>
		<g class="fp-brasstown-st15">
			<path class="fp-brasstown-st7" d="M302.4,347.7h0.9c0.2,0,0.4,0.1,0.6,0.2c0.1,0.1,0.2,0.3,0.2,0.4v0c0,0.3-0.2,0.5-0.5,0.6l0.5,0.7h-0.4
				l-0.5-0.7h-0.4v0.7h-0.3V347.7z M303.2,348.7c0.2,0,0.4-0.1,0.4-0.3v0c0-0.2-0.2-0.3-0.4-0.3h-0.5v0.7H303.2z"/>
		</g>
		<g class="fp-brasstown-st15">
			<path class="fp-brasstown-st7" d="M305,348.9l-0.8-1.2h0.4l0.5,0.9l0.6-0.9h0.4l-0.8,1.2v0.8H305V348.9z"/>
		</g>
		<rect x="308" y="330" class="fp-brasstown-st3" width="28.3" height="27.1"/>
		<line class="fp-brasstown-st16" x1="336.4" y1="117.6" x2="253.4" y2="117.6"/>
		<rect x="270" y="115" class="fp-brasstown-st7" width="0.8" height="5.1"/>
		<rect x="319.1" y="115" class="fp-brasstown-st7" width="0.8" height="5.1"/>
		<rect x="253.5" y="117.2" class="fp-brasstown-st7" width="83" height="0.7"/>
		<rect x="253.5" y="119.7" class="fp-brasstown-st7" width="83" height="0.7"/>
		<rect x="253.5" y="114.7" class="fp-brasstown-st7" width="83" height="0.7"/>
		<line class="fp-brasstown-st16" x1="185.3" y1="117.6" x2="102.3" y2="117.6"/>
		<rect x="118.8" y="115" class="fp-brasstown-st7" width="0.8" height="5.1"/>
		<rect x="167.9" y="115" class="fp-brasstown-st7" width="0.8" height="5.1"/>
		<rect x="102.3" y="117.2" class="fp-brasstown-st7" width="83" height="0.7"/>
		<rect x="102.3" y="119.7" class="fp-brasstown-st7" width="83" height="0.7"/>
		<rect x="102.3" y="114.7" class="fp-brasstown-st7" width="83" height="0.7"/>
		<line class="fp-brasstown-st16" x1="470.7" y1="264" x2="470.7" y2="323.5"/>
		<rect x="468.2" y="281.6" class="fp-brasstown-st7" width="5" height="0.8"/>
		<rect x="470.4" y="264" class="fp-brasstown-st7" width="0.7" height="59.5"/>
		<rect x="467.8" y="264" class="fp-brasstown-st7" width="0.7" height="59.5"/>
		<rect x="472.9" y="264" class="fp-brasstown-st7" width="0.7" height="59.5"/>
		<line class="fp-brasstown-st16" x1="470.7" y1="451.2" x2="470.7" y2="368.2"/>
		<rect x="468.2" y="384.7" class="fp-brasstown-st7" width="5.1" height="0.8"/>
		<rect x="468.2" y="433.8" class="fp-brasstown-st7" width="5.1" height="0.8"/>
		<rect x="470.4" y="368.2" class="fp-brasstown-st7" width="0.7" height="83"/>
		<rect x="467.8" y="368.2" class="fp-brasstown-st7" width="0.7" height="83"/>
		<rect x="472.9" y="368.2" class="fp-brasstown-st7" width="0.7" height="83"/>
		
			<rect x="140.3" y="318.3" transform="matrix(0.7071 -0.7071 0.7071 0.7071 -182.3594 197.0611)" class="fp-brasstown-st17" width="12.9" height="0.7"/>
		<path class="fp-brasstown-st18" d="M138.6,314.5c0.1,3.1,1.2,6.1,3.3,8.5"/>
		<path class="fp-brasstown-st19" d="M209.6,472.4c0-4.8,0.2-12.3-8.9-21.3"/>
		
			<rect x="175" y="461.7" transform="matrix(0.7071 -0.7071 0.7071 0.7071 -271.2643 270.0561)" class="fp-brasstown-st20" width="30.7" height="1.6"/>
		<path class="fp-brasstown-st21" d="M226.2,447.4c0,0-8.8-0.2-15.3,6"/>
		
			<rect x="218.1" y="450.4" transform="matrix(0.7071 -0.7071 0.7071 0.7071 -262.6071 289.946)" class="fp-brasstown-st22" width="1.3" height="23.1"/>
		<path class="fp-brasstown-st21" d="M226.2,447.4c0,0-8.8,0.2-15.3-6"/>
		
			<rect x="207.1" y="432.1" transform="matrix(0.7071 -0.7071 0.7071 0.7071 -241.9286 281.3796)" class="fp-brasstown-st22" width="23.1" height="1.3"/>
		<rect x="258.5" y="410.9" class="fp-brasstown-st20" width="27.8" height="1.5"/>
		<path class="fp-brasstown-st19" d="M258.5,410.9c0.1-15.4,12.6-27.9,28-28"/>
		<rect x="459.9" y="364.4" class="fp-brasstown-st20" width="1.5" height="28.2"/>
		<path class="fp-brasstown-st19" d="M459.9,392.5c-15.7,0-28.3-12.7-28.4-28.4"/>
		<rect x="219.1" y="201.7" class="fp-brasstown-st20" width="1.5" height="28.2"/>
		<path class="fp-brasstown-st19" d="M219.1,201.7c-15.7,0-28.3,12.7-28.4,28.4"/>
		<rect x="94.1" y="236.6" class="fp-brasstown-st20" width="1.5" height="28.2"/>
		<path class="fp-brasstown-st19" d="M95.6,264.7c15.7,0,28.4-12.7,28.4-28.4"/>
		<rect x="300.6" y="423" class="fp-brasstown-st20" width="28.2" height="1.5"/>
		<path class="fp-brasstown-st19" d="M300.6,424.4c0,15.7,12.7,28.4,28.4,28.4"/>
		<rect x="182.8" y="237.6" class="fp-brasstown-st20" width="28.2" height="1.5"/>
		<path class="fp-brasstown-st19" d="M210.9,239c0,15.7-12.7,28.3-28.4,28.4"/>
		<rect x="182.7" y="281.9" class="fp-brasstown-st20" width="19" height="1"/>
		<path class="fp-brasstown-st19" d="M201.7,282.9c0,10.6-8.6,19.1-19.2,19.1"/>
		
			<rect x="455.8" y="178.4" transform="matrix(0.7071 -0.7071 0.7071 0.7071 11.303 385.6949)" class="fp-brasstown-st20" width="30.9" height="1.6"/>
		<path class="fp-brasstown-st19" d="M481.6,167.7c-11.4-11.4-31.2-12.8-44,0"/>
		<line class="fp-brasstown-st19" x1="477.9" y1="171.4" x2="479" y2="172.6"/>
		<line class="fp-brasstown-st19" x1="463.4" y1="185.8" x2="464.6" y2="187"/>
		<line class="fp-brasstown-st19" x1="478.5" y1="172" x2="464" y2="186.4"/>
		<rect x="148.5" y="316.5" class="fp-brasstown-st20" width="28.2" height="1.5"/>
		<path class="fp-brasstown-st19" d="M148.5,317.9c0,15.7,12.7,28.3,28.4,28.4"/>
		<rect x="233.8" y="424.8" class="fp-brasstown-st5" width="24.7" height="22.2"/>
		<line class="fp-brasstown-st23" x1="255.9" y1="424.7" x2="255.9" y2="447"/>
		<rect x="233.8" y="448.2" class="fp-brasstown-st5" width="24.7" height="22.2"/>
		<line class="fp-brasstown-st23" x1="255.9" y1="448.1" x2="255.9" y2="470.3"/>
		<rect x="98.8" y="425.7" class="fp-brasstown-st1" width="49.2" height="10.2"/>
		<rect x="353.4" y="299.7" class="fp-brasstown-st1" width="59" height="14.1"/>
		<rect x="365" y="309.2" class="fp-brasstown-st1" width="35.8" height="14.1"/>
		<rect x="253.4" y="360.3" class="fp-brasstown-st1" width="29.5" height="15.6"/>
		<rect x="120.2" y="324.6" class="fp-brasstown-st1" width="28.8" height="17.6"/>
		<rect x="314.5" y="191" class="fp-brasstown-st1" width="51.3" height="13.9"/>
		<rect x="105.8" y="412.8" class="fp-brasstown-st1" width="34.4" height="21.8"/>
		<rect x="322.8" y="201.4" class="fp-brasstown-st1" width="34.4" height="13.1"/>
		<g class="fp-brasstown-st15">
			<path class="fp-brasstown-st7" d="M118.4,171.1h3.4c0.9,0,1.5,0.2,2,0.7c0.3,0.3,0.5,0.7,0.5,1.3v0c0,0.9-0.5,1.4-1.1,1.7
				c0.9,0.3,1.5,0.8,1.5,1.8v0c0,1.4-1.1,2.1-2.8,2.1h-3.5V171.1z M123,173.2c0-0.6-0.5-1-1.3-1h-1.9v2h1.8
				C122.4,174.3,123,173.9,123,173.2L123,173.2z M121.8,175.4h-2.1v2.1h2.2c0.9,0,1.5-0.4,1.5-1v0
				C123.4,175.8,122.9,175.4,121.8,175.4z"/>
			<path class="fp-brasstown-st7" d="M126.7,171.1h5.6v1.2H128v2h3.8v1.2H128v2h4.3v1.2h-5.7V171.1z"/>
			<path class="fp-brasstown-st7" d="M134.4,171.1h2.8c2.4,0,4,1.6,4,3.8v0c0,2.1-1.6,3.8-4,3.8h-2.8V171.1z M135.7,172.3v5.2h1.5
				c1.6,0,2.6-1.1,2.6-2.6v0c0-1.5-1-2.6-2.6-2.6H135.7z"/>
			<path class="fp-brasstown-st7" d="M143.3,171.1h3.4c1,0,1.7,0.3,2.2,0.8c0.4,0.4,0.6,1,0.6,1.6v0c0,1.2-0.7,2-1.8,2.3l2,2.9h-1.6l-1.9-2.6
				h-1.7v2.6h-1.3V171.1z M146.6,174.8c1,0,1.6-0.5,1.6-1.3v0c0-0.8-0.6-1.3-1.6-1.3h-1.9v2.5H146.6z"/>
			<path class="fp-brasstown-st7" d="M151.2,174.9L151.2,174.9c0-2.2,1.6-3.9,4-3.9s4,1.8,4,3.9v0c0,2.1-1.6,3.9-4,3.9
				C152.8,178.8,151.2,177,151.2,174.9z M157.7,174.9L157.7,174.9c0-1.5-1.1-2.7-2.6-2.7c-1.5,0-2.6,1.2-2.6,2.7v0
				c0,1.5,1.1,2.7,2.6,2.7S157.7,176.4,157.7,174.9z"/>
			<path class="fp-brasstown-st7" d="M160.9,174.9L160.9,174.9c0-2.2,1.6-3.9,4-3.9s4,1.8,4,3.9v0c0,2.1-1.6,3.9-4,3.9
				C162.5,178.8,160.9,177,160.9,174.9z M167.4,174.9L167.4,174.9c0-1.5-1.1-2.7-2.6-2.7c-1.5,0-2.6,1.2-2.6,2.7v0
				c0,1.5,1.1,2.7,2.6,2.7S167.4,176.4,167.4,174.9z"/>
			<path class="fp-brasstown-st7" d="M170.8,171.1h1.4l2.3,3.6l2.3-3.6h1.4v7.6H177v-5.4l-2.4,3.6h0l-2.4-3.6v5.4h-1.3V171.1z"/>
		</g>
		<g class="fp-brasstown-st15">
			<path class="fp-brasstown-st7" d="M128.1,185.5l-0.8,0.2l-0.2-0.6l1.2-0.4h0.5v4.5h-0.8V185.5z"/>
			<path class="fp-brasstown-st7" d="M130,188.7l0.5-0.6c0.4,0.3,0.7,0.5,1.2,0.5c0.5,0,0.9-0.3,0.9-0.8v0c0-0.5-0.4-0.7-0.9-0.7
				c-0.3,0-0.6,0.1-0.8,0.2l-0.5-0.3l0.1-2.2h2.7v0.7h-2l-0.1,1.1c0.2-0.1,0.4-0.1,0.7-0.1c0.9,0,1.6,0.5,1.6,1.4v0
				c0,0.9-0.7,1.5-1.7,1.5C131,189.3,130.4,189.1,130,188.7z"/>
			<path class="fp-brasstown-st7" d="M134.2,186.3c0.4-0.1,0.6-0.3,0.6-0.6h-0.3v-0.9h0.9v0.8c0,0.7-0.3,1-1,1.1L134.2,186.3z"/>
			<path class="fp-brasstown-st7" d="M140.8,185.5h-2.3v-0.7h3.2v0.6l-2,3.9h-0.9L140.8,185.5z"/>
			<path class="fp-brasstown-st7" d="M142.6,186.3c0.4-0.1,0.6-0.3,0.6-0.6h-0.3v-0.9h0.9v0.8c0,0.7-0.3,1-1,1.1L142.6,186.3z M144.1,186.3
				c0.4-0.1,0.6-0.3,0.5-0.6h-0.3v-0.9h0.9v0.8c0,0.7-0.3,1-1,1.1L144.1,186.3z"/>
			<path class="fp-brasstown-st7" d="M149.9,187l0.8-1.1h0.8l-1.2,1.7l1.2,1.7h-0.8l-0.8-1.2l-0.8,1.2h-0.8l1.2-1.7l-1.2-1.7h0.8L149.9,187z"/>
			<path class="fp-brasstown-st7" d="M155.3,185.5l-0.8,0.2l-0.2-0.6l1.2-0.4h0.5v4.5h-0.8V185.5z"/>
			<path class="fp-brasstown-st7" d="M158.1,185.5l-0.8,0.2l-0.2-0.6l1.2-0.4h0.5v4.5h-0.8V185.5z"/>
			<path class="fp-brasstown-st7" d="M160,186.3c0.4-0.1,0.6-0.3,0.6-0.6h-0.3v-0.9h0.9v0.8c0,0.7-0.3,1-1,1.1L160,186.3z"/>
			<path class="fp-brasstown-st7" d="M165.1,185.5l-0.8,0.2l-0.2-0.6l1.2-0.4h0.5v4.5h-0.8V185.5z"/>
			<path class="fp-brasstown-st7" d="M167,186.3c0.4-0.1,0.6-0.3,0.6-0.6h-0.3v-0.9h0.9v0.8c0,0.7-0.3,1-1,1.1L167,186.3z M168.5,186.3
				c0.4-0.1,0.6-0.3,0.5-0.6h-0.3v-0.9h0.9v0.8c0,0.7-0.3,1-1,1.1L168.5,186.3z"/>
		</g>
		<g class="fp-brasstown-st15">
			<path class="fp-brasstown-st7" d="M371.4,413.1h3.4c0.9,0,1.5,0.2,2,0.7c0.3,0.3,0.5,0.7,0.5,1.3v0c0,0.9-0.5,1.4-1.1,1.7
				c0.9,0.3,1.5,0.8,1.5,1.8v0c0,1.4-1.1,2.1-2.8,2.1h-3.5V413.1z M375.9,415.2c0-0.6-0.5-1-1.3-1h-1.9v2h1.8
				C375.3,416.3,375.9,415.9,375.9,415.2L375.9,415.2z M374.8,417.4h-2.1v2.1h2.2c0.9,0,1.5-0.4,1.5-1v0
				C376.3,417.8,375.8,417.4,374.8,417.4z"/>
			<path class="fp-brasstown-st7" d="M379.6,413.1h5.6v1.2h-4.3v2h3.8v1.2h-3.8v2h4.3v1.2h-5.7V413.1z"/>
			<path class="fp-brasstown-st7" d="M387.3,413.1h2.8c2.4,0,4,1.6,4,3.8v0c0,2.1-1.6,3.8-4,3.8h-2.8V413.1z M388.6,414.3v5.2h1.5
				c1.6,0,2.6-1.1,2.6-2.6v0c0-1.5-1-2.6-2.6-2.6H388.6z"/>
			<path class="fp-brasstown-st7" d="M396.2,413.1h3.4c1,0,1.7,0.3,2.2,0.8c0.4,0.4,0.6,1,0.6,1.6v0c0,1.2-0.7,2-1.8,2.3l2,2.9h-1.6l-1.9-2.6
				h-1.7v2.6h-1.3V413.1z M399.5,416.8c1,0,1.6-0.5,1.6-1.3v0c0-0.8-0.6-1.3-1.6-1.3h-1.9v2.5H399.5z"/>
			<path class="fp-brasstown-st7" d="M404.2,416.9L404.2,416.9c0-2.2,1.6-3.9,4-3.9s4,1.8,4,3.9v0c0,2.1-1.6,3.9-4,3.9S404.2,419,404.2,416.9z
				 M410.7,416.9L410.7,416.9c0-1.5-1.1-2.7-2.6-2.7s-2.6,1.2-2.6,2.7v0c0,1.5,1.1,2.7,2.6,2.7S410.7,418.3,410.7,416.9z"/>
			<path class="fp-brasstown-st7" d="M413.8,416.9L413.8,416.9c0-2.2,1.6-3.9,4-3.9s4,1.8,4,3.9v0c0,2.1-1.6,3.9-4,3.9S413.8,419,413.8,416.9z
				 M420.3,416.9L420.3,416.9c0-1.5-1.1-2.7-2.6-2.7s-2.6,1.2-2.6,2.7v0c0,1.5,1.1,2.7,2.6,2.7S420.3,418.3,420.3,416.9z"/>
			<path class="fp-brasstown-st7" d="M423.8,413.1h1.4l2.3,3.6l2.3-3.6h1.4v7.6h-1.3v-5.4l-2.4,3.6h0l-2.4-3.6v5.4h-1.3V413.1z"/>
		</g>
		<g class="fp-brasstown-st15">
			<path class="fp-brasstown-st7" d="M378.5,427.5l-0.8,0.2l-0.2-0.6l1.2-0.4h0.5v4.5h-0.8V427.5z"/>
			<path class="fp-brasstown-st7" d="M380.5,430.6l1.5-1.3c0.6-0.5,0.8-0.8,0.8-1.2c0-0.4-0.3-0.7-0.7-0.7s-0.7,0.2-1,0.7l-0.6-0.4
				c0.4-0.6,0.9-0.9,1.7-0.9c0.9,0,1.5,0.5,1.5,1.3v0c0,0.7-0.4,1.1-1.2,1.7l-0.9,0.8h2.1v0.7h-3.2V430.6z"/>
			<path class="fp-brasstown-st7" d="M384.7,428.2c0.4-0.1,0.6-0.3,0.6-0.6h-0.3v-0.9h0.9v0.8c0,0.7-0.3,1-1,1.1L384.7,428.2z"/>
			<path class="fp-brasstown-st7" d="M389.7,427.5l-0.8,0.2l-0.2-0.6l1.2-0.4h0.5v4.5h-0.8V427.5z"/>
			<path class="fp-brasstown-st7" d="M391.7,429L391.7,429c0-1.3,0.8-2.3,2-2.3c1.2,0,2,1,2,2.3v0c0,1.3-0.8,2.3-2,2.3
				C392.5,431.3,391.7,430.3,391.7,429z M394.8,429L394.8,429c0-0.9-0.5-1.6-1.2-1.6c-0.7,0-1.1,0.7-1.1,1.6v0
				c0,0.9,0.5,1.6,1.2,1.6S394.8,429.9,394.8,429z"/>
			<path class="fp-brasstown-st7" d="M396.5,428.2c0.4-0.1,0.6-0.3,0.6-0.6h-0.3v-0.9h0.9v0.8c0,0.7-0.3,1-1,1.1L396.5,428.2z M398,428.2
				c0.4-0.1,0.6-0.3,0.5-0.6h-0.3v-0.9h0.9v0.8c0,0.7-0.3,1-1,1.1L398,428.2z"/>
			<path class="fp-brasstown-st7" d="M403.8,429l0.8-1.1h0.8l-1.2,1.7l1.2,1.7h-0.8l-0.8-1.2l-0.8,1.2h-0.8l1.2-1.7l-1.2-1.7h0.8L403.8,429z"/>
			<path class="fp-brasstown-st7" d="M409.3,427.5l-0.8,0.2l-0.2-0.6l1.2-0.4h0.5v4.5h-0.8V427.5z"/>
			<path class="fp-brasstown-st7" d="M412.1,427.5l-0.8,0.2l-0.2-0.6l1.2-0.4h0.5v4.5h-0.8V427.5z"/>
			<path class="fp-brasstown-st7" d="M414,428.2c0.4-0.1,0.6-0.3,0.6-0.6h-0.3v-0.9h0.9v0.8c0,0.7-0.3,1-1,1.1L414,428.2z"/>
			<path class="fp-brasstown-st7" d="M418.2,430.5l0.6-0.5c0.3,0.4,0.7,0.6,1.2,0.6c0.4,0,0.8-0.3,0.8-0.7v0c0-0.4-0.4-0.7-1-0.7h-0.4l-0.1-0.5
				l1.2-1.3h-1.9v-0.7h3v0.6l-1.3,1.3c0.7,0.1,1.3,0.4,1.3,1.3v0c0,0.8-0.6,1.4-1.6,1.4C419.1,431.3,418.6,431,418.2,430.5z"/>
			<path class="fp-brasstown-st7" d="M422.4,428.2c0.4-0.1,0.6-0.3,0.6-0.6h-0.3v-0.9h0.9v0.8c0,0.7-0.3,1-1,1.1L422.4,428.2z M423.9,428.2
				c0.4-0.1,0.6-0.3,0.5-0.6h-0.3v-0.9h0.9v0.8c0,0.7-0.3,1-1,1.1L423.9,428.2z"/>
		</g>
		<g class="fp-brasstown-st15">
			<path class="fp-brasstown-st7" d="M111.1,415.1h2.8c2.4,0,4,1.6,4,3.8v0c0,2.1-1.6,3.8-4,3.8h-2.8V415.1z M112.5,416.3v5.2h1.5
				c1.6,0,2.6-1.1,2.6-2.6v0c0-1.5-1-2.6-2.6-2.6H112.5z"/>
			<path class="fp-brasstown-st7" d="M120,415.1h5.6v1.2h-4.3v2h3.8v1.2h-3.8v2h4.3v1.2H120V415.1z"/>
			<path class="fp-brasstown-st7" d="M127.7,415.1h1.2l4.1,5.2v-5.2h1.3v7.6h-1.1l-4.2-5.4v5.4h-1.3V415.1z"/>
		</g>
		<g class="fp-brasstown-st15">
			<path class="fp-brasstown-st7" d="M103.7,429.2c-0.3,0.3-0.6,0.5-1.1,0.5c-1,0-1.6-0.6-1.6-1.4v0c0-0.9,0.7-1.6,1.7-1.6c0.6,0,0.9,0.2,1.3,0.5
				c0.3,0.3,0.5,0.8,0.5,1.7v0c0,1.4-0.7,2.4-1.9,2.4c-0.6,0-1.1-0.2-1.4-0.5l0.4-0.6c0.3,0.3,0.6,0.4,1,0.4
				C103.4,430.6,103.7,429.8,103.7,429.2z M103.7,428.2L103.7,428.2c0-0.5-0.4-0.8-0.9-0.8c-0.6,0-0.9,0.4-0.9,0.8v0
				c0,0.5,0.4,0.8,0.9,0.8C103.3,429,103.7,428.6,103.7,428.2z"/>
			<path class="fp-brasstown-st7" d="M105.4,428.2c0.4-0.1,0.6-0.3,0.6-0.6h-0.3v-0.9h0.9v0.8c0,0.7-0.3,1-1,1.1L105.4,428.2z"/>
			<path class="fp-brasstown-st7" d="M110.2,430.9c-0.3-0.3-0.5-0.8-0.5-1.7v0c0-1.4,0.7-2.4,1.9-2.4c0.6,0,1,0.2,1.4,0.5l-0.4,0.6
				c-0.3-0.2-0.6-0.4-1-0.4c-0.8,0-1.1,0.8-1.1,1.4c0.3-0.3,0.6-0.5,1.1-0.5c0.9,0,1.6,0.5,1.6,1.4v0c0,0.9-0.7,1.5-1.7,1.5
				C110.9,431.3,110.5,431.2,110.2,430.9z M112.4,429.8L112.4,429.8c0-0.5-0.4-0.8-0.9-0.8c-0.6,0-0.9,0.4-0.9,0.8v0
				c0,0.5,0.4,0.8,0.9,0.8C112,430.6,112.4,430.3,112.4,429.8z"/>
			<path class="fp-brasstown-st7" d="M114.1,428.2c0.4-0.1,0.6-0.3,0.6-0.6h-0.3v-0.9h0.9v0.8c0,0.7-0.3,1-1,1.1L114.1,428.2z M115.5,428.2
				c0.4-0.1,0.6-0.3,0.5-0.6h-0.3v-0.9h0.9v0.8c0,0.7-0.3,1-1,1.1L115.5,428.2z"/>
			<path class="fp-brasstown-st7" d="M121.3,429l0.8-1.1h0.8l-1.2,1.7l1.2,1.7h-0.8l-0.8-1.2l-0.8,1.2h-0.8l1.2-1.7l-1.2-1.7h0.8L121.3,429z"/>
			<path class="fp-brasstown-st7" d="M126.8,427.5l-0.8,0.2l-0.2-0.6l1.2-0.4h0.5v4.5h-0.8V427.5z"/>
			<path class="fp-brasstown-st7" d="M128.8,429L128.8,429c0-1.3,0.8-2.3,2-2.3c1.2,0,2,1,2,2.3v0c0,1.3-0.8,2.3-2,2.3
				C129.6,431.3,128.8,430.3,128.8,429z M131.9,429L131.9,429c0-0.9-0.5-1.6-1.1-1.6c-0.7,0-1.1,0.7-1.1,1.6v0
				c0,0.9,0.4,1.6,1.1,1.6S131.9,429.9,131.9,429z"/>
			<path class="fp-brasstown-st7" d="M133.6,428.2c0.4-0.1,0.6-0.3,0.6-0.6h-0.3v-0.9h0.9v0.8c0,0.7-0.3,1-1,1.1L133.6,428.2z"/>
			<path class="fp-brasstown-st7" d="M137.8,430.5l0.6-0.5c0.3,0.4,0.7,0.6,1.2,0.6c0.4,0,0.8-0.3,0.8-0.7v0c0-0.4-0.4-0.7-1-0.7h-0.4l-0.1-0.5
				l1.2-1.3h-1.9v-0.7h3v0.6l-1.3,1.3c0.7,0.1,1.3,0.4,1.3,1.3v0c0,0.8-0.6,1.4-1.6,1.4C138.7,431.3,138.2,431,137.8,430.5z"/>
			<path class="fp-brasstown-st7" d="M142,428.2c0.4-0.1,0.6-0.3,0.6-0.6h-0.3v-0.9h0.9v0.8c0,0.7-0.3,1-1,1.1L142,428.2z M143.5,428.2
				c0.4-0.1,0.6-0.3,0.5-0.6h-0.3v-0.9h0.9v0.8c0,0.7-0.3,1-1,1.1L143.5,428.2z"/>
		</g>
		<g class="fp-brasstown-st15">
			<path class="fp-brasstown-st7" d="M320.5,194.3h1.3v6.4h4v1.2h-5.3V194.3z"/>
			<path class="fp-brasstown-st7" d="M327.8,194.3h1.3v7.6h-1.3V194.3z"/>
			<path class="fp-brasstown-st7" d="M330.9,194.3h1.5l2.3,5.8l2.3-5.8h1.4l-3.1,7.6h-1.2L330.9,194.3z"/>
			<path class="fp-brasstown-st7" d="M340.2,194.3h1.3v7.6h-1.3V194.3z"/>
			<path class="fp-brasstown-st7" d="M344,194.3h1.2l4.1,5.2v-5.2h1.3v7.6h-1.1l-4.2-5.4v5.4H344V194.3z"/>
			<path class="fp-brasstown-st7" d="M352.6,198.1L352.6,198.1c0-2.1,1.6-3.9,3.9-3.9c1.3,0,2.1,0.4,2.9,1l-0.8,1c-0.6-0.5-1.2-0.8-2.1-0.8
				c-1.4,0-2.5,1.2-2.5,2.7v0c0,1.6,1,2.7,2.6,2.7c0.7,0,1.4-0.2,1.8-0.6v-1.4h-1.9v-1.2h3.2v3.2c-0.7,0.6-1.8,1.2-3.2,1.2
				C354.2,202,352.6,200.3,352.6,198.1z"/>
		</g>
		<g class="fp-brasstown-st15">
			<path class="fp-brasstown-st7" d="M326.5,211.7l1.5-1.3c0.6-0.5,0.8-0.8,0.8-1.2c0-0.4-0.3-0.7-0.7-0.7s-0.7,0.2-1,0.7l-0.6-0.4
				c0.4-0.6,0.9-0.9,1.7-0.9c0.9,0,1.5,0.5,1.5,1.3v0c0,0.7-0.4,1.1-1.2,1.7l-0.9,0.8h2.1v0.7h-3.3V211.7z"/>
			<path class="fp-brasstown-st7" d="M330.7,211.6l0.6-0.5c0.3,0.4,0.7,0.6,1.2,0.6c0.4,0,0.8-0.3,0.8-0.7v0c0-0.4-0.4-0.7-1-0.7h-0.4l-0.1-0.5
				l1.2-1.3H331v-0.7h3v0.6l-1.3,1.3c0.7,0.1,1.3,0.4,1.3,1.3v0c0,0.8-0.6,1.4-1.6,1.4C331.6,212.4,331.1,212.1,330.7,211.6z"/>
			<path class="fp-brasstown-st7" d="M334.9,209.3c0.4-0.1,0.6-0.3,0.6-0.6h-0.3v-0.9h0.9v0.8c0,0.7-0.3,1-1,1.1L334.9,209.3z"/>
			<path class="fp-brasstown-st7" d="M340.7,210.1l0.8-1.1h0.8l-1.2,1.7l1.2,1.7h-0.8l-0.8-1.2l-0.8,1.2H339l1.2-1.7l-1.2-1.7h0.8L340.7,210.1z"
				/>
			<path class="fp-brasstown-st7" d="M346.1,208.6l-0.8,0.2l-0.2-0.6l1.2-0.4h0.5v4.5h-0.8V208.6z"/>
			<path class="fp-brasstown-st7" d="M348.7,211.9c-0.3-0.3-0.5-0.8-0.5-1.7v0c0-1.4,0.7-2.4,1.9-2.4c0.6,0,1,0.2,1.4,0.5l-0.4,0.6
				c-0.3-0.2-0.6-0.4-1-0.4c-0.8,0-1.1,0.8-1.1,1.4c0.3-0.3,0.6-0.5,1.1-0.5c0.9,0,1.6,0.5,1.6,1.4v0c0,0.9-0.7,1.5-1.7,1.5
				C349.4,212.4,349,212.2,348.7,211.9z M350.9,210.9L350.9,210.9c0-0.5-0.4-0.8-0.9-0.8c-0.6,0-0.9,0.4-0.9,0.8v0
				c0,0.5,0.4,0.8,0.9,0.8C350.5,211.7,350.9,211.4,350.9,210.9z"/>
			<path class="fp-brasstown-st7" d="M352.5,209.3c0.4-0.1,0.6-0.3,0.6-0.6h-0.3v-0.9h0.9v0.8c0,0.7-0.3,1-1,1.1L352.5,209.3z"/>
		</g>
		<g class="fp-brasstown-st15">
			<path class="fp-brasstown-st7" d="M415.4,123.3h3.4c0.9,0,1.5,0.2,2,0.7c0.3,0.3,0.5,0.7,0.5,1.3v0c0,0.9-0.5,1.4-1.1,1.7
				c0.9,0.3,1.5,0.8,1.5,1.8v0c0,1.4-1.1,2.1-2.8,2.1h-3.5V123.3z M420,125.4c0-0.6-0.5-1-1.3-1h-1.9v2h1.8
				C419.4,126.5,420,126.1,420,125.4L420,125.4z M418.8,127.6h-2.1v2.1h2.2c0.9,0,1.5-0.4,1.5-1v0
				C420.4,128,419.9,127.6,418.8,127.6z"/>
			<path class="fp-brasstown-st7" d="M426.4,123.2h1.2l3.3,7.6h-1.4l-0.8-1.8h-3.6l-0.8,1.8H423L426.4,123.2z M428.3,127.8l-1.3-3l-1.3,3H428.3z"
				/>
		</g>
		<g class="fp-brasstown-st15">
			<path class="fp-brasstown-st7" d="M432.7,123.3h1.3v6.4h4v1.2h-5.3V123.3z"/>
		</g>
		<g class="fp-brasstown-st15">
			<path class="fp-brasstown-st7" d="M439,127.1L439,127.1c0-2.2,1.6-3.9,3.9-3.9c1.4,0,2.2,0.5,3,1.2l-0.9,1c-0.6-0.6-1.3-0.9-2.1-0.9
				c-1.4,0-2.5,1.2-2.5,2.7v0c0,1.5,1.1,2.7,2.5,2.7c0.9,0,1.5-0.4,2.2-1l0.9,0.9c-0.8,0.8-1.7,1.3-3.1,1.3
				C440.7,131,439,129.3,439,127.1z"/>
		</g>
		<g class="fp-brasstown-st15">
			<path class="fp-brasstown-st7" d="M447.2,127.1L447.2,127.1c0-2.2,1.6-3.9,4-3.9s4,1.8,4,3.9v0c0,2.1-1.6,3.9-4,3.9
				C448.9,131,447.2,129.2,447.2,127.1z M453.8,127.1L453.8,127.1c0-1.5-1.1-2.7-2.6-2.7c-1.5,0-2.6,1.2-2.6,2.7v0
				c0,1.5,1.1,2.7,2.6,2.7S453.8,128.6,453.8,127.1z"/>
			<path class="fp-brasstown-st7" d="M457.2,123.3h1.2l4.1,5.2v-5.2h1.3v7.6h-1.1l-4.2-5.4v5.4h-1.3V123.3z"/>
			<path class="fp-brasstown-st7" d="M468.5,127.9l-3-4.6h1.6l2.1,3.3l2.1-3.3h1.5l-3,4.6v3h-1.3V127.9z"/>
		</g>
		<g class="fp-brasstown-st15">
			<path class="fp-brasstown-st7" d="M433.3,136.7l-0.8,0.2l-0.2-0.6l1.2-0.4h0.5v4.5h-0.8V136.7z"/>
			<path class="fp-brasstown-st7" d="M436.1,136.7l-0.8,0.2l-0.2-0.6l1.2-0.4h0.5v4.5h-0.8V136.7z"/>
			<path class="fp-brasstown-st7" d="M438,137.4c0.4-0.1,0.6-0.3,0.6-0.6h-0.3v-0.9h0.9v0.8c0,0.7-0.3,1-1,1.1L438,137.4z"/>
			<path class="fp-brasstown-st7" d="M443.8,138.2l0.8-1.1h0.8l-1.2,1.7l1.2,1.7h-0.8l-0.8-1.2l-0.8,1.2h-0.8l1.2-1.7l-1.2-1.7h0.8L443.8,138.2z"
				/>
			<path class="fp-brasstown-st7" d="M449.3,136.7l-0.8,0.2l-0.2-0.6l1.2-0.4h0.5v4.5h-0.8V136.7z"/>
			<path class="fp-brasstown-st7" d="M452.1,136.7l-0.8,0.2l-0.2-0.6l1.2-0.4h0.5v4.5h-0.8V136.7z"/>
			<path class="fp-brasstown-st7" d="M454,137.4c0.4-0.1,0.6-0.3,0.6-0.6h-0.3v-0.9h0.9v0.8c0,0.7-0.3,1-1,1.1L454,137.4z"/>
		</g>
		<g class="fp-brasstown-st15">
			<path class="fp-brasstown-st7" d="M356.9,303.9h1.3v3.8l3.6-3.8h1.6l-3.2,3.3l3.3,4.3H362l-2.6-3.4l-1.2,1.2v2.2h-1.3V303.9z"/>
			<path class="fp-brasstown-st7" d="M365.3,303.9h1.3v7.6h-1.3V303.9z"/>
		</g>
		<g class="fp-brasstown-st15">
			<path class="fp-brasstown-st7" d="M370.9,305.1h-2.4v-1.2h6.2v1.2h-2.4v6.3h-1.3V305.1z"/>
		</g>
		<g class="fp-brasstown-st15">
			<path class="fp-brasstown-st7" d="M375.8,307.7L375.8,307.7c0-2.2,1.6-3.9,3.9-3.9c1.4,0,2.2,0.5,3,1.2l-0.9,1c-0.6-0.6-1.3-0.9-2.1-0.9
				c-1.4,0-2.5,1.2-2.5,2.7v0c0,1.5,1.1,2.7,2.5,2.7c0.9,0,1.5-0.4,2.2-1l0.9,0.9c-0.8,0.8-1.7,1.3-3.1,1.3
				C377.4,311.6,375.8,309.9,375.8,307.7z"/>
			<path class="fp-brasstown-st7" d="M384.6,303.9h1.3v3.2h3.6v-3.2h1.3v7.6h-1.3v-3.2h-3.6v3.2h-1.3V303.9z"/>
			<path class="fp-brasstown-st7" d="M393.2,303.9h5.6v1.2h-4.3v2h3.8v1.2h-3.8v2h4.3v1.2h-5.7V303.9z"/>
			<path class="fp-brasstown-st7" d="M400.9,303.9h1.2l4.1,5.2v-5.2h1.3v7.6h-1.1l-4.2-5.4v5.4h-1.3V303.9z"/>
		</g>
		<g class="fp-brasstown-st15">
			<path class="fp-brasstown-st7" d="M370.3,317.1l-0.8,0.2l-0.2-0.6l1.2-0.4h0.5v4.5h-0.8V317.1z"/>
			<path class="fp-brasstown-st7" d="M372.9,320.5c-0.3-0.3-0.5-0.8-0.5-1.7v0c0-1.4,0.7-2.4,1.9-2.4c0.6,0,1,0.2,1.4,0.5l-0.4,0.6
				c-0.3-0.2-0.6-0.4-1-0.4c-0.8,0-1.1,0.8-1.1,1.4c0.3-0.3,0.6-0.5,1.1-0.5c0.9,0,1.6,0.5,1.6,1.4v0c0,0.9-0.7,1.5-1.7,1.5
				C373.6,320.9,373.2,320.8,372.9,320.5z M375,319.5L375,319.5c0-0.5-0.4-0.8-0.9-0.8s-0.9,0.4-0.9,0.8v0c0,0.5,0.4,0.8,0.9,0.8
				S375,319.9,375,319.5z"/>
			<path class="fp-brasstown-st7" d="M376.7,317.9c0.4-0.1,0.6-0.3,0.6-0.6h-0.3v-0.9h0.9v0.8c0,0.7-0.3,1-1,1.1L376.7,317.9z"/>
			<path class="fp-brasstown-st7" d="M382.5,318.6l0.8-1.1h0.8l-1.2,1.7l1.2,1.7h-0.8l-0.8-1.2l-0.8,1.2h-0.8l1.2-1.7l-1.2-1.7h0.8L382.5,318.6z"
				/>
			<path class="fp-brasstown-st7" d="M387.9,317.1l-0.8,0.2l-0.2-0.6l1.2-0.4h0.5v4.5h-0.8V317.1z"/>
			<path class="fp-brasstown-st7" d="M390,318.6L390,318.6c0-1.3,0.8-2.3,2-2.3c1.2,0,2,1,2,2.3v0c0,1.3-0.8,2.3-2,2.3S390,319.9,390,318.6z
				 M393.1,318.6L393.1,318.6c0-0.9-0.5-1.6-1.1-1.6s-1.1,0.7-1.1,1.6v0c0,0.9,0.4,1.6,1.1,1.6S393.1,319.5,393.1,318.6z"/>
			<path class="fp-brasstown-st7" d="M394.8,317.9c0.4-0.1,0.6-0.3,0.6-0.6H395v-0.9h0.9v0.8c0,0.7-0.3,1-1,1.1L394.8,317.9z"/>
		</g>
		<g class="fp-brasstown-st15">
			<path class="fp-brasstown-st7" d="M91.2,285.3h-1.9v-0.6H92v0.5l-1.7,3.3h-0.8L91.2,285.3z"/>
			<path class="fp-brasstown-st7" d="M92.7,285.9c0.3-0.1,0.5-0.2,0.5-0.5h-0.3v-0.7h0.7v0.6c0,0.6-0.3,0.9-0.8,0.9L92.7,285.9z"/>
			<path class="fp-brasstown-st7" d="M96.2,287.9l0.5-0.4c0.3,0.3,0.6,0.5,1,0.5c0.4,0,0.7-0.2,0.7-0.6v0c0-0.4-0.3-0.6-0.9-0.6h-0.3l-0.1-0.4
				l1-1.1h-1.6v-0.6h2.5v0.5l-1.1,1.1c0.6,0.1,1.1,0.4,1.1,1.1v0c0,0.7-0.5,1.2-1.3,1.2C97,288.5,96.5,288.3,96.2,287.9z"/>
			<path class="fp-brasstown-st7" d="M99.7,285.9c0.3-0.1,0.5-0.2,0.5-0.5h-0.3v-0.7h0.7v0.6c0,0.6-0.3,0.9-0.8,0.9L99.7,285.9z M101,285.9
				c0.3-0.1,0.5-0.2,0.5-0.5h-0.3v-0.7h0.7v0.6c0,0.6-0.3,0.9-0.8,0.9L101,285.9z"/>
			<path class="fp-brasstown-st7" d="M105.9,286.6l0.7-1h0.7l-1,1.4l1.1,1.5h-0.7l-0.7-1l-0.7,1h-0.7l1-1.5l-1-1.4h0.7L105.9,286.6z"/>
			<path class="fp-brasstown-st7" d="M111.8,285.3h-1.9v-0.6h2.7v0.5l-1.7,3.3h-0.8L111.8,285.3z"/>
			<path class="fp-brasstown-st7" d="M113.2,285.9c0.3-0.1,0.5-0.2,0.5-0.5h-0.3v-0.7h0.7v0.6c0,0.6-0.3,0.9-0.8,0.9L113.2,285.9z"/>
			<path class="fp-brasstown-st7" d="M118.8,285.3h-1.9v-0.6h2.7v0.5l-1.7,3.3h-0.8L118.8,285.3z"/>
			<path class="fp-brasstown-st7" d="M120.3,285.9c0.3-0.1,0.5-0.2,0.5-0.5h-0.3v-0.7h0.7v0.6c0,0.6-0.3,0.9-0.8,0.9L120.3,285.9z M121.5,285.9
				c0.3-0.1,0.5-0.2,0.5-0.5h-0.3v-0.7h0.7v0.6c0,0.6-0.3,0.9-0.8,0.9L121.5,285.9z"/>
		</g>
		<g class="fp-brasstown-st15">
			<path class="fp-brasstown-st7" d="M89.9,276.5L89.9,276.5c0-1.5,1.1-2.8,2.7-2.8c1,0,1.6,0.3,2.1,0.8l-0.6,0.7c-0.4-0.4-0.9-0.7-1.5-0.7
				c-1,0-1.8,0.8-1.8,1.9v0c0,1,0.7,1.9,1.8,1.9c0.7,0,1.1-0.3,1.5-0.7l0.6,0.6c-0.6,0.6-1.2,0.9-2.2,0.9
				C91,279.2,89.9,278,89.9,276.5z"/>
		</g>
		<g class="fp-brasstown-st15">
			<path class="fp-brasstown-st7" d="M96,273.8h0.9v4.5h2.8v0.9H96V273.8z"/>
		</g>
		<g class="fp-brasstown-st15">
			<path class="fp-brasstown-st7" d="M100.5,276.5L100.5,276.5c0-1.5,1.2-2.8,2.8-2.8c1.6,0,2.8,1.2,2.8,2.7v0c0,1.5-1.2,2.7-2.8,2.7
				S100.5,278,100.5,276.5z M105,276.5L105,276.5c0-1-0.8-1.9-1.8-1.9s-1.8,0.8-1.8,1.9v0c0,1,0.8,1.9,1.8,1.9S105,277.5,105,276.5z
				"/>
		</g>
		<g class="fp-brasstown-st15">
			<path class="fp-brasstown-st7" d="M107.1,278.3l0.6-0.7c0.5,0.4,1,0.7,1.7,0.7c0.6,0,0.9-0.3,0.9-0.7v0c0-0.4-0.2-0.6-1.2-0.8
				c-1.1-0.3-1.8-0.6-1.8-1.6v0c0-0.9,0.8-1.5,1.8-1.5c0.8,0,1.4,0.2,1.9,0.7l-0.5,0.7c-0.5-0.4-1-0.5-1.4-0.5
				c-0.5,0-0.9,0.3-0.9,0.6v0c0,0.4,0.2,0.6,1.3,0.8c1.1,0.3,1.7,0.7,1.7,1.6v0c0,1-0.8,1.6-1.9,1.6
				C108.5,279.2,107.7,278.9,107.1,278.3z"/>
			<path class="fp-brasstown-st7" d="M112.6,273.8h3.9v0.8h-3v1.4h2.7v0.8h-2.7v1.4h3v0.8h-4V273.8z"/>
			<path class="fp-brasstown-st7" d="M119.3,274.7h-1.7v-0.9h4.3v0.9h-1.7v4.4h-0.9V274.7z"/>
		</g>
		<g class="fp-brasstown-st15">
			<path class="fp-brasstown-st7" d="M124.9,337.2c-0.2,0.2-0.4,0.3-0.7,0.3c-0.7,0-1.1-0.4-1.1-1v0c0-0.6,0.5-1.1,1.1-1.1c0.4,0,0.6,0.1,0.9,0.3
				c0.2,0.2,0.4,0.6,0.4,1.2v0c0,1-0.5,1.7-1.3,1.7c-0.4,0-0.7-0.2-1-0.4l0.3-0.4c0.2,0.2,0.4,0.3,0.7,0.3
				C124.7,338.2,124.9,337.6,124.9,337.2z M124.9,336.6L124.9,336.6c0-0.3-0.2-0.6-0.6-0.6c-0.4,0-0.6,0.3-0.6,0.6v0
				c0,0.3,0.2,0.5,0.6,0.5C124.6,337.1,124.9,336.9,124.9,336.6z"/>
			<path class="fp-brasstown-st7" d="M126,336.6c0.3,0,0.4-0.2,0.4-0.4h-0.2v-0.6h0.6v0.5c0,0.5-0.2,0.7-0.7,0.7L126,336.6z"/>
			<path class="fp-brasstown-st7" d="M129.5,336.1l-0.5,0.2l-0.1-0.4l0.8-0.3h0.4v3.1h-0.5V336.1z"/>
			<path class="fp-brasstown-st7" d="M130.9,337.1L130.9,337.1c0-0.9,0.5-1.6,1.3-1.6c0.8,0,1.3,0.7,1.3,1.6v0c0,0.9-0.5,1.6-1.3,1.6
				C131.4,338.7,130.9,338,130.9,337.1z M133,337.1L133,337.1c0-0.6-0.3-1.1-0.8-1.1c-0.5,0-0.8,0.5-0.8,1.1v0
				c0,0.6,0.3,1.1,0.8,1.1C132.7,338.2,133,337.7,133,337.1z"/>
			<path class="fp-brasstown-st7" d="M134.1,336.6c0.3,0,0.4-0.2,0.4-0.4h-0.2v-0.6h0.6v0.5c0,0.5-0.2,0.7-0.7,0.7L134.1,336.6z M135.1,336.6
				c0.3,0,0.4-0.2,0.4-0.4h-0.2v-0.6h0.6v0.5c0,0.5-0.2,0.7-0.7,0.7L135.1,336.6z"/>
			<path class="fp-brasstown-st7" d="M139.1,337.1l0.5-0.8h0.6l-0.8,1.1l0.8,1.2h-0.6l-0.6-0.8l-0.6,0.8h-0.6l0.8-1.2l-0.8-1.1h0.6L139.1,337.1z"
				/>
			<path class="fp-brasstown-st7" d="M142.2,338.2l0.3-0.4c0.2,0.2,0.5,0.4,0.8,0.4c0.4,0,0.6-0.2,0.6-0.5v0c0-0.3-0.3-0.5-0.6-0.5
				c-0.2,0-0.4,0.1-0.6,0.1l-0.3-0.2l0.1-1.5h1.8v0.5H143l0,0.7c0.1-0.1,0.3-0.1,0.5-0.1c0.6,0,1.1,0.3,1.1,1v0c0,0.6-0.5,1-1.1,1
				C142.9,338.7,142.5,338.5,142.2,338.2z"/>
			<path class="fp-brasstown-st7" d="M145.1,336.6c0.3,0,0.4-0.2,0.4-0.4h-0.2v-0.6h0.6v0.5c0,0.5-0.2,0.7-0.7,0.7L145.1,336.6z"/>
		</g>
		<g class="fp-brasstown-st15">
			<path class="fp-brasstown-st7" d="M125.9,328.5h1.9c0.5,0,0.9,0.1,1.1,0.4c0.2,0.2,0.3,0.4,0.3,0.7v0c0,0.5-0.3,0.8-0.6,1
				c0.5,0.2,0.8,0.5,0.8,1v0c0,0.8-0.6,1.2-1.6,1.2h-2V328.5z M128.5,329.7c0-0.3-0.3-0.5-0.8-0.5h-1.1v1.1h1
				C128.2,330.3,128.5,330.1,128.5,329.7L128.5,329.7z M127.9,331h-1.2v1.2h1.2c0.5,0,0.8-0.2,0.8-0.6v0
				C128.7,331.2,128.5,331,127.9,331z"/>
		</g>
		<g class="fp-brasstown-st15">
			<path class="fp-brasstown-st7" d="M132.1,328.5h0.7l1.9,4.3h-0.8l-0.4-1h-2l-0.4,1h-0.8L132.1,328.5z M133.2,331.1l-0.7-1.7l-0.7,1.7H133.2z"
				/>
		</g>
		<g class="fp-brasstown-st15">
			<path class="fp-brasstown-st7" d="M136.2,329.2h-1.4v-0.7h3.5v0.7h-1.4v3.6h-0.8V329.2z"/>
			<path class="fp-brasstown-st7" d="M139.3,328.5h0.8v1.8h2v-1.8h0.8v4.3h-0.8V331h-2v1.8h-0.8V328.5z"/>
		</g>
		<g class="fp-brasstown-st15">
			<path class="fp-brasstown-st7" d="M256.9,370.9h-1.5v-0.5h2.1v0.4l-1.4,2.6h-0.6L256.9,370.9z"/>
			<path class="fp-brasstown-st7" d="M258.1,371.5c0.3,0,0.4-0.2,0.4-0.4h-0.2v-0.6h0.6v0.5c0,0.5-0.2,0.7-0.7,0.7L258.1,371.5z"/>
			<path class="fp-brasstown-st7" d="M261,373l0.4-0.3c0.2,0.3,0.5,0.4,0.8,0.4c0.3,0,0.5-0.2,0.5-0.5v0c0-0.3-0.3-0.5-0.7-0.5h-0.2l-0.1-0.3
				l0.8-0.9h-1.3v-0.5h2v0.4l-0.9,0.9c0.5,0.1,0.9,0.3,0.9,0.9v0c0,0.6-0.4,1-1.1,1C261.6,373.6,261.2,373.3,261,373z"/>
			<path class="fp-brasstown-st7" d="M263.8,371.5c0.3,0,0.4-0.2,0.4-0.4H264v-0.6h0.6v0.5c0,0.5-0.2,0.7-0.7,0.7L263.8,371.5z M264.8,371.5
				c0.3,0,0.4-0.2,0.4-0.4H265v-0.6h0.6v0.5c0,0.5-0.2,0.7-0.7,0.7L264.8,371.5z"/>
			<path class="fp-brasstown-st7" d="M268.8,372l0.5-0.8h0.6l-0.8,1.1l0.8,1.2h-0.6l-0.6-0.8l-0.6,0.8h-0.6l0.8-1.2l-0.8-1.1h0.6L268.8,372z"/>
			<path class="fp-brasstown-st7" d="M273.5,370.9H272v-0.5h2.1v0.4l-1.4,2.6h-0.6L273.5,370.9z"/>
			<path class="fp-brasstown-st7" d="M274.7,371.5c0.3,0,0.4-0.2,0.4-0.4h-0.2v-0.6h0.6v0.5c0,0.5-0.2,0.7-0.7,0.7L274.7,371.5z"/>
			<path class="fp-brasstown-st7" d="M279.2,370.9h-1.5v-0.5h2.1v0.4l-1.4,2.6h-0.6L279.2,370.9z"/>
			<path class="fp-brasstown-st7" d="M280.4,371.5c0.3,0,0.4-0.2,0.4-0.4h-0.2v-0.6h0.6v0.5c0,0.5-0.2,0.7-0.7,0.7L280.4,371.5z M281.4,371.5
				c0.3,0,0.4-0.2,0.4-0.4h-0.2v-0.6h0.6v0.5c0,0.5-0.2,0.7-0.7,0.7L281.4,371.5z"/>
		</g>
		<g class="fp-brasstown-st15">
			<path class="fp-brasstown-st7" d="M259.7,362.3h1.9c0.5,0,0.9,0.1,1.1,0.4c0.2,0.2,0.3,0.4,0.3,0.7v0c0,0.5-0.3,0.8-0.6,1
				c0.5,0.2,0.8,0.5,0.8,1v0c0,0.8-0.6,1.2-1.6,1.2h-2V362.3z M262.2,363.5c0-0.3-0.3-0.5-0.8-0.5h-1.1v1.1h1
				C261.9,364.1,262.2,363.9,262.2,363.5L262.2,363.5z M261.6,364.8h-1.2v1.2h1.2c0.5,0,0.8-0.2,0.8-0.6v0
				C262.5,365,262.2,364.8,261.6,364.8z"/>
		</g>
		<g class="fp-brasstown-st15">
			<path class="fp-brasstown-st7" d="M265.8,362.3h0.7l1.9,4.3h-0.8l-0.4-1h-2l-0.4,1H264L265.8,362.3z M266.9,364.9l-0.7-1.7l-0.7,1.7H266.9z"/>
		</g>
		<g class="fp-brasstown-st15">
			<path class="fp-brasstown-st7" d="M269.9,363h-1.4v-0.7h3.5v0.7h-1.4v3.6h-0.8V363z"/>
			<path class="fp-brasstown-st7" d="M273,362.3h0.8v1.8h2v-1.8h0.8v4.3h-0.8v-1.8h-2v1.8H273V362.3z"/>
		</g>
		<g class="fp-brasstown-st15">
			<path class="fp-brasstown-st7" d="M284.2,455.5c-0.3-0.3-0.5-0.7-0.5-1.4v0c0-1.2,0.6-2.1,1.6-2.1c0.5,0,0.8,0.2,1.2,0.4l-0.4,0.5
				c-0.3-0.2-0.5-0.3-0.8-0.3c-0.7,0-0.9,0.7-0.9,1.2c0.2-0.2,0.5-0.4,0.9-0.4c0.7,0,1.3,0.4,1.3,1.2v0c0,0.8-0.6,1.3-1.4,1.3
				C284.8,455.9,284.4,455.8,284.2,455.5z M286,454.7L286,454.7c0-0.4-0.3-0.7-0.8-0.7c-0.5,0-0.8,0.3-0.8,0.7v0
				c0,0.4,0.3,0.7,0.8,0.7C285.7,455.4,286,455.1,286,454.7z"/>
			<path class="fp-brasstown-st7" d="M287.4,453.3c0.3-0.1,0.5-0.2,0.5-0.5h-0.3v-0.7h0.7v0.6c0,0.6-0.3,0.9-0.8,0.9L287.4,453.3z"/>
			<path class="fp-brasstown-st7" d="M290.9,455.3l0.5-0.4c0.3,0.3,0.6,0.5,1,0.5c0.4,0,0.7-0.2,0.7-0.6v0c0-0.4-0.3-0.6-0.9-0.6h-0.3l-0.1-0.4
				l1-1.1h-1.6v-0.6h2.5v0.5l-1.1,1.1c0.6,0.1,1.1,0.4,1.1,1.1v0c0,0.7-0.5,1.2-1.3,1.2C291.7,455.9,291.2,455.7,290.9,455.3z"/>
			<path class="fp-brasstown-st7" d="M294.5,453.3c0.3-0.1,0.5-0.2,0.5-0.5h-0.3v-0.7h0.7v0.6c0,0.6-0.3,0.9-0.8,0.9L294.5,453.3z M295.7,453.3
				c0.3-0.1,0.5-0.2,0.5-0.5h-0.3v-0.7h0.7v0.6c0,0.6-0.3,0.9-0.8,0.9L295.7,453.3z"/>
			<path class="fp-brasstown-st7" d="M300.6,454l0.7-1h0.7l-1,1.4l1.1,1.5h-0.7l-0.7-1l-0.7,1h-0.7l1-1.5l-1-1.4h0.7L300.6,454z"/>
			<path class="fp-brasstown-st7" d="M304.5,455.4l0.4-0.5c0.3,0.3,0.6,0.5,1,0.5c0.5,0,0.8-0.3,0.8-0.7v0c0-0.4-0.3-0.6-0.8-0.6
				c-0.3,0-0.5,0.1-0.7,0.2l-0.4-0.3l0.1-1.9h2.3v0.6h-1.7l-0.1,0.9c0.2-0.1,0.3-0.1,0.6-0.1c0.7,0,1.3,0.4,1.3,1.2v0
				c0,0.8-0.6,1.3-1.4,1.3C305.3,455.9,304.8,455.7,304.5,455.4z"/>
			<path class="fp-brasstown-st7" d="M308,453.3c0.3-0.1,0.5-0.2,0.5-0.5h-0.3v-0.7h0.7v0.6c0,0.6-0.3,0.9-0.8,0.9L308,453.3z"/>
			<path class="fp-brasstown-st7" d="M313.9,454.1c-0.2,0.3-0.5,0.4-0.9,0.4c-0.8,0-1.3-0.5-1.3-1.2v0c0-0.7,0.6-1.3,1.4-1.3
				c0.5,0,0.8,0.1,1.1,0.4c0.3,0.3,0.5,0.7,0.5,1.4v0c0,1.2-0.6,2.1-1.6,2.1c-0.5,0-0.9-0.2-1.2-0.5l0.4-0.5
				c0.3,0.2,0.5,0.4,0.9,0.4C313.7,455.3,313.9,454.6,313.9,454.1z M313.9,453.3L313.9,453.3c0-0.4-0.3-0.7-0.8-0.7
				c-0.5,0-0.8,0.3-0.8,0.7v0c0,0.4,0.3,0.7,0.8,0.7C313.6,454,313.9,453.7,313.9,453.3z"/>
			<path class="fp-brasstown-st7" d="M315.3,453.3c0.3-0.1,0.5-0.2,0.5-0.5h-0.3v-0.7h0.7v0.6c0,0.6-0.3,0.9-0.8,0.9L315.3,453.3z M316.6,453.3
				c0.3-0.1,0.5-0.2,0.5-0.5h-0.3v-0.7h0.7v0.6c0,0.6-0.3,0.9-0.8,0.9L316.6,453.3z"/>
		</g>
		<g class="fp-brasstown-st15">
			<path class="fp-brasstown-st7" d="M284.6,443.9L284.6,443.9c0-1.5,1.1-2.8,2.7-2.8c1,0,1.6,0.3,2.1,0.8l-0.6,0.7c-0.4-0.4-0.9-0.7-1.5-0.7
				c-1,0-1.8,0.8-1.8,1.9v0c0,1,0.7,1.9,1.8,1.9c0.7,0,1.1-0.3,1.5-0.7l0.6,0.6c-0.6,0.6-1.2,0.9-2.2,0.9
				C285.8,446.6,284.6,445.4,284.6,443.9z"/>
		</g>
		<g class="fp-brasstown-st15">
			<path class="fp-brasstown-st7" d="M290.8,441.2h0.9v4.5h2.8v0.8h-3.7V441.2z"/>
		</g>
		<g class="fp-brasstown-st15">
			<path class="fp-brasstown-st7" d="M295.2,443.9L295.2,443.9c0-1.5,1.2-2.8,2.8-2.8s2.8,1.2,2.8,2.7v0c0,1.5-1.2,2.7-2.8,2.7
				C296.4,446.6,295.2,445.4,295.2,443.9z M299.8,443.9L299.8,443.9c0-1-0.8-1.9-1.8-1.9c-1.1,0-1.8,0.8-1.8,1.9v0
				c0,1,0.8,1.9,1.8,1.9C299.1,445.7,299.8,444.9,299.8,443.9z"/>
		</g>
		<g class="fp-brasstown-st15">
			<path class="fp-brasstown-st7" d="M301.8,445.7l0.6-0.7c0.5,0.4,1,0.7,1.7,0.7c0.6,0,0.9-0.3,0.9-0.7v0c0-0.4-0.2-0.6-1.2-0.8
				c-1.1-0.3-1.8-0.6-1.8-1.6v0c0-0.9,0.8-1.5,1.8-1.5c0.8,0,1.4,0.2,1.9,0.7l-0.5,0.7c-0.5-0.4-1-0.5-1.4-0.5
				c-0.5,0-0.9,0.3-0.9,0.6v0c0,0.4,0.2,0.6,1.3,0.8c1.1,0.3,1.7,0.7,1.7,1.6v0c0,1-0.8,1.6-1.9,1.6
				C303.2,446.6,302.5,446.3,301.8,445.7z"/>
			<path class="fp-brasstown-st7" d="M307.3,441.2h3.9v0.8h-3v1.4h2.7v0.8h-2.7v1.4h3v0.8h-4V441.2z"/>
			<path class="fp-brasstown-st7" d="M314,442.1h-1.7v-0.9h4.3v0.9H315v4.4H314V442.1z"/>
		</g>
		<circle class="fp-brasstown-st24" cx="162.7" cy="253" r="13.4"/>
		<g class="fp-brasstown-st15">
			<path class="fp-brasstown-st7" d="M154.2,250.8h0.8v1.8h2.1v-1.8h0.8v4.3H157v-1.8H155v1.8h-0.8V250.8z"/>
		</g>
		<g class="fp-brasstown-st15">
			<path class="fp-brasstown-st7" d="M158.8,250.8h0.8l1.3,3.3l1.3-3.3h0.8l-1.8,4.4h-0.7L158.8,250.8z"/>
		</g>
		<g class="fp-brasstown-st15">
			<path class="fp-brasstown-st7" d="M164.9,250.8h0.7l1.9,4.4h-0.8l-0.4-1h-2l-0.4,1H163L164.9,250.8z M166,253.4l-0.7-1.7l-0.7,1.7H166z"/>
		</g>
		<g class="fp-brasstown-st15">
			<path class="fp-brasstown-st7" d="M168.1,253L168.1,253c0-1.2,0.9-2.2,2.2-2.2c0.8,0,1.3,0.3,1.7,0.7l-0.5,0.6c-0.3-0.3-0.7-0.5-1.2-0.5
				c-0.8,0-1.4,0.7-1.4,1.5v0c0,0.8,0.6,1.5,1.4,1.5c0.5,0,0.9-0.2,1.2-0.6l0.5,0.5c-0.5,0.5-0.9,0.8-1.8,0.8
				C169,255.2,168.1,254.3,168.1,253z"/>
		</g>
		<line class="fp-brasstown-st16" x1="406.9" y1="143.9" x2="387.2" y2="124.2"/>
		
			<rect x="396.7" y="120.1" transform="matrix(0.7071 -0.7071 0.7071 0.7071 21.4937 320.051)" class="fp-brasstown-st7" width="0.7" height="27.9"/>
		<line class="fp-brasstown-st16" x1="429.3" y1="166.3" x2="409.6" y2="146.6"/>
		
			<rect x="419.1" y="142.5" transform="matrix(0.7071 -0.7071 0.7071 0.7071 12.2194 342.4352)" class="fp-brasstown-st7" width="0.7" height="27.9"/>
		<rect x="226.4" y="438.7" class="fp-brasstown-st1" width="5.8" height="18.9"/>
		<g class="fp-brasstown-st15">
			<path class="fp-brasstown-st7" d="M230.5,439.6v0.4h-2v1.2h-0.4v-1.6H230.5z"/>
		</g>
		<g class="fp-brasstown-st15">
			<path class="fp-brasstown-st7" d="M230.5,442.5v0.4l-2.4,1v-0.4l0.6-0.2v-1.1l-0.6-0.2v-0.4L230.5,442.5z M229,443.1l0.9-0.4l-0.9-0.4V443.1z"
				/>
		</g>
		<g class="fp-brasstown-st15">
			<path class="fp-brasstown-st7" d="M229.1,444.2h1.4v0.4h-1.3c-0.4,0-0.7,0.2-0.7,0.6c0,0.3,0.2,0.6,0.7,0.6h1.4v0.4h-1.3c-0.7,0-1.1-0.4-1.1-1
				C228.1,444.6,228.4,444.2,229.1,444.2z"/>
			<path class="fp-brasstown-st7" d="M230.5,446.8v0.4l-1.6,1.2h1.6v0.4h-2.4v-0.3l1.7-1.2h-1.7v-0.4H230.5z"/>
			<path class="fp-brasstown-st7" d="M230.5,449.4v0.8c0,0.7-0.5,1.2-1.2,1.2h0c-0.7,0-1.2-0.5-1.2-1.2v-0.8H230.5z M230.1,449.8h-1.6v0.4
				c0,0.5,0.3,0.8,0.8,0.8h0c0.5,0,0.8-0.3,0.8-0.8V449.8z"/>
		</g>
		<g class="fp-brasstown-st15">
			<path class="fp-brasstown-st7" d="M230.5,452v1c0,0.3-0.1,0.5-0.2,0.6c-0.1,0.1-0.3,0.2-0.5,0.2h0c-0.4,0-0.6-0.2-0.7-0.5l-0.9,0.6v-0.5
				l0.8-0.5v-0.5h-0.8V452H230.5z M229.3,453c0,0.3,0.2,0.5,0.4,0.5h0c0.3,0,0.4-0.2,0.4-0.5v-0.6h-0.8V453z"/>
		</g>
		<g class="fp-brasstown-st15">
			<path class="fp-brasstown-st7" d="M229,455l1.4-0.9v0.5l-1,0.6l1,0.6v0.4l-1.4-0.9h-0.9V455H229z"/>
		</g>
		<polyline class="fp-brasstown-st25" points="231.1,401.9 248.7,401.9 248.7,403.2 		"/>
		<polyline class="fp-brasstown-st25" points="231.1,415.4 248.7,415.4 248.7,414.1 		"/>
		
			<rect x="247.7" y="409.8" transform="matrix(0.7071 -0.7071 0.7071 0.7071 -215.7749 299.2956)" class="fp-brasstown-st17" width="11.3" height="0.6"/>
		<path class="fp-brasstown-st18" d="M249.7,402.9c2.8,0.1,5.4,1.1,7.5,2.9"/>
		<rect x="164.4" y="284.4" class="fp-brasstown-st1" width="5.9" height="15.4"/>
		<g class="fp-brasstown-st15">
			<path class="fp-brasstown-st7" d="M167.4,297.1L167.4,297.1c-0.7,0-1.2-0.5-1.2-1.1c0-0.4,0.2-0.7,0.4-0.9l0.3,0.3c-0.2,0.2-0.3,0.4-0.3,0.6
				c0,0.4,0.4,0.7,0.8,0.7h0c0.5,0,0.8-0.3,0.8-0.7c0-0.3-0.1-0.4-0.3-0.6l0.3-0.3c0.3,0.2,0.4,0.5,0.4,0.9
				C168.6,296.6,168.1,297.1,167.4,297.1z"/>
		</g>
		<g class="fp-brasstown-st15">
			<path class="fp-brasstown-st7" d="M167.4,294.7L167.4,294.7c-0.7,0-1.2-0.5-1.2-1.2c0-0.7,0.5-1.2,1.2-1.2h0c0.7,0,1.2,0.5,1.2,1.2
				S168.1,294.7,167.4,294.7z M167.4,292.7L167.4,292.7c-0.5,0-0.8,0.3-0.8,0.8s0.4,0.7,0.8,0.7h0c0.5,0,0.8-0.3,0.8-0.8
				C168.3,293,167.9,292.7,167.4,292.7z"/>
		</g>
		<g class="fp-brasstown-st15">
			<path class="fp-brasstown-st7" d="M166.2,291.1v-0.4l2.4-1v0.4l-0.6,0.2v1.1l0.6,0.2v0.4L166.2,291.1z M167.7,290.5l-0.9,0.4l0.9,0.4V290.5z"
				/>
		</g>
		<g class="fp-brasstown-st15">
			<path class="fp-brasstown-st7" d="M166.6,289v0.7h-0.4v-1.8h0.4v0.7h2v0.4H166.6z"/>
		</g>
		<rect x="0.5" y="0.5" class="fp-brasstown-st26" width="557.3" height="557.3"/>
	</g>
</g>
</svg>
