<?xml version="1.0" encoding="utf-8"?>
<!-- Generator: Adobe Illustrator 21.1.0, SVG Export Plug-In . SVG Version: 6.00 Build 0)  -->
<svg version="1.1" id="Layer_1" xmlns="http://www.w3.org/2000/svg" xmlns:xlink="http://www.w3.org/1999/xlink" x="0px" y="0px"
	 viewBox="0 0 558.3 558.3" style="enable-background:new 0 0 558.3 558.3;" xml:space="preserve">
<style type="text/css">
	.fp-brushy-st0{fill:none;stroke:#A6A8AB;stroke-width:0.27;stroke-miterlimit:10;}
	.fp-brushy-st1{fill:#E4E9E4;}
	.fp-brushy-st2{fill:#E4E9E4;stroke:#32553B;stroke-width:0.27;stroke-miterlimit:10;}
	.fp-brushy-st3{fill:none;stroke:#32553B;stroke-width:0.27;stroke-miterlimit:10;}
	.fp-brushy-st4{fill:none;stroke:#799900;stroke-width:0.16;stroke-miterlimit:10;}
	.fp-brushy-st5{fill:#FFFFFF;stroke:#62A044;stroke-width:0.16;stroke-miterlimit:10;}
	.fp-brushy-st6{enable-background:new    ;}
	.fp-brushy-st7{fill:#32553B;}
	.fp-brushy-st8{fill:none;stroke:#E4E9E4;stroke-width:7.59;stroke-linejoin:round;}
	.fp-brushy-st9{fill:#C8D0C9;stroke:#32553B;stroke-width:0.24;stroke-miterlimit:10;}
	.fp-brushy-st10{fill:#C8D0C9;stroke:#32553B;stroke-width:0.21;stroke-miterlimit:10;}
	.fp-brushy-st11{fill:#E4E9E4;stroke:#32553B;stroke-width:0.24;stroke-miterlimit:10;}
	.fp-brushy-st12{fill:#C8D0C9;stroke:#32553B;stroke-width:0.27;stroke-miterlimit:10;}
	.fp-brushy-st13{fill:#E4E9E4;stroke:#32553B;stroke-width:0.31;stroke-miterlimit:10;}
	.fp-brushy-st14{fill:none;stroke:#32553B;stroke-width:7.59;stroke-linejoin:round;}
	.fp-brushy-st15{fill:none;stroke:#32553B;stroke-width:4.33;stroke-linejoin:round;}
	.fp-brushy-st16{fill:none;stroke:#32553B;stroke-width:4.33;stroke-miterlimit:10;}
	.fp-brushy-st17{fill:none;stroke:#32553B;stroke-width:0.24;stroke-miterlimit:10;}
	.fp-brushy-st18{fill:none;stroke:#799900;stroke-width:0.3;stroke-miterlimit:10;}
	.fp-brushy-st19{fill:#FFFFFF;stroke:#62A044;stroke-width:0.3;stroke-miterlimit:10;}
	.fp-brushy-st20{fill:none;stroke:#799900;stroke-width:0.27;stroke-miterlimit:10;}
	.fp-brushy-st21{fill:#FFFFFF;stroke:#62A044;stroke-width:0.27;stroke-miterlimit:10;}
	.fp-brushy-st22{fill:none;stroke:#32553B;stroke-width:0.84;stroke-miterlimit:10;}
	.fp-brushy-st23{fill:#FFFFFF;stroke:#62A044;stroke-width:0.13;stroke-miterlimit:10;}
	.fp-brushy-st24{fill:none;stroke:#799900;stroke-width:0.13;stroke-miterlimit:10;}
	.fp-brushy-st25{fill:none;stroke:#32553B;stroke-width:0.21;stroke-miterlimit:10;}
	.fp-brushy-st26{fill:#C8D0C9;stroke:#32553B;stroke-width:0.2;stroke-miterlimit:10;}
	.fp-brushy-st27{fill:none;stroke:#F5F7F5;stroke-miterlimit:10;}
</style>
<title>fp_brushy</title>
<g id="Layer_2">
	<g id="DESIGN">
		<line class="fp-brushy-st0" x1="158.9" y1="248.9" x2="505.4" y2="248.9"/>
		<line class="fp-brushy-st0" x1="143.9" y1="263.1" x2="505.4" y2="263.1"/>
		<line class="fp-brushy-st0" x1="130.6" y1="277.4" x2="505.4" y2="277.4"/>
		<line class="fp-brushy-st0" x1="115.5" y1="291.6" x2="505.4" y2="291.6"/>
		<line class="fp-brushy-st0" x1="101.2" y1="305.8" x2="505.4" y2="305.8"/>
		<line class="fp-brushy-st0" x1="87" y1="320" x2="505.4" y2="320"/>
		<line class="fp-brushy-st0" x1="72.8" y1="334.3" x2="505.4" y2="334.3"/>
		<line class="fp-brushy-st0" x1="58" y1="348.5" x2="505.4" y2="348.5"/>
		<line class="fp-brushy-st0" x1="58" y1="362.7" x2="505.4" y2="362.7"/>
		<line class="fp-brushy-st0" x1="58" y1="377" x2="505.4" y2="377"/>
		<line class="fp-brushy-st0" x1="58" y1="391.2" x2="505.4" y2="391.2"/>
		<line class="fp-brushy-st0" x1="58" y1="405.4" x2="505.4" y2="405.4"/>
		<polygon class="fp-brushy-st1" points="279.2,229.6 279.7,229.1 228.6,178.4 58,349 58.2,363.2 111.4,363.2 111.4,392.4 128.2,392.4 
			128.2,397.5 204.8,397.5 204.8,397.4 219.2,397.4 219.2,392.8 204.8,392.8 204.8,364.9 219.2,364.8 219.2,360.2 369.4,360.2 
			369.4,229.6 		"/>
		<line class="fp-brushy-st0" x1="393.3" y1="206.2" x2="505.4" y2="206.2"/>
		<line class="fp-brushy-st0" x1="378" y1="220.4" x2="505.4" y2="220.4"/>
		<line class="fp-brushy-st0" x1="369.4" y1="234.7" x2="505.4" y2="234.7"/>
		<line class="fp-brushy-st0" x1="58.5" y1="419.6" x2="505.4" y2="419.6"/>
		<line class="fp-brushy-st0" x1="58.5" y1="433.9" x2="505.4" y2="433.9"/>
		<line class="fp-brushy-st0" x1="58.5" y1="448.1" x2="505.4" y2="448.1"/>
		<rect x="414.1" y="432.1" class="fp-brushy-st2" width="2.3" height="1.3"/>
		<rect x="430.4" y="432.1" class="fp-brushy-st2" width="3.7" height="1.3"/>
		<line class="fp-brushy-st3" x1="430.8" y1="435.1" x2="415.9" y2="435.1"/>
		<line class="fp-brushy-st3" x1="430.4" y1="432.7" x2="416.4" y2="432.7"/>
		<polyline class="fp-brushy-st3" points="430.7,433.4 430.7,450.2 415.9,450.2 415.9,433.4 		"/>
		<path class="fp-brushy-st4" d="M430.4,431.3c-0.1-3.4-1.3-6.7-3.6-9.2"/>
		
			<rect x="414.6" y="426.4" transform="matrix(0.7071 -0.7071 0.7071 0.7071 -178.3113 423.0781)" class="fp-brushy-st5" width="14" height="0.8"/>
		<rect x="417" y="440.8" class="fp-brushy-st1" width="12.9" height="4.6"/>
		<g class="fp-brushy-st6">
			<path class="fp-brushy-st7" d="M417.5,442h0.8c0.5,0,0.7,0.3,0.7,0.7v0c0,0.4-0.4,0.7-0.8,0.7h-0.4v0.6h-0.3V442z M418.2,443
				c0.3,0,0.4-0.1,0.4-0.4v0c0-0.2-0.2-0.4-0.4-0.4h-0.4v0.7H418.2z"/>
		</g>
		<g class="fp-brushy-st6">
			<path class="fp-brushy-st7" d="M420,442h0.3l0.9,2h-0.4l-0.2-0.5h-0.9l-0.2,0.5h-0.4L420,442z M420.5,443.2l-0.3-0.8l-0.3,0.8H420.5z"/>
			<path class="fp-brushy-st7" d="M421.6,442h0.3l1.1,1.4V442h0.3v2H423l-1.1-1.4v1.4h-0.3V442z"/>
			<path class="fp-brushy-st7" d="M424.4,442.3h-0.6V442h1.6v0.3h-0.6v1.6h-0.3V442.3z"/>
		</g>
		<g class="fp-brushy-st6">
			<path class="fp-brushy-st7" d="M425.9,442h0.9c0.2,0,0.4,0.1,0.6,0.2c0.1,0.1,0.2,0.3,0.2,0.4v0c0,0.3-0.2,0.5-0.5,0.6l0.5,0.7h-0.4
				l-0.5-0.7h-0.4v0.7h-0.3V442z M426.7,443c0.2,0,0.4-0.1,0.4-0.3v0c0-0.2-0.2-0.3-0.4-0.3h-0.5v0.7H426.7z"/>
		</g>
		<g class="fp-brushy-st6">
			<path class="fp-brushy-st7" d="M428.5,443.2l-0.8-1.2h0.4l0.5,0.9l0.6-0.9h0.4l-0.8,1.2v0.8h-0.3V443.2z"/>
		</g>
		<line class="fp-brushy-st8" x1="504.8" y1="327.1" x2="504.8" y2="270.4"/>
		<rect x="504.5" y="270.4" class="fp-brushy-st7" width="0.7" height="56.7"/>
		<rect x="501.9" y="270.4" class="fp-brushy-st7" width="0.7" height="56.7"/>
		<rect x="507" y="270.4" class="fp-brushy-st7" width="0.7" height="56.7"/>
		<rect x="502.3" y="287.5" class="fp-brushy-st7" width="5.1" height="0.7"/>
		<line class="fp-brushy-st8" x1="291" y1="229.1" x2="353.2" y2="229.1"/>
		<rect x="291" y="228.8" class="fp-brushy-st7" width="62.2" height="0.7"/>
		<rect x="291" y="226.3" class="fp-brushy-st7" width="62.2" height="0.7"/>
		<rect x="291" y="231.3" class="fp-brushy-st7" width="62.2" height="0.7"/>
		<rect x="335.4" y="226.6" class="fp-brushy-st7" width="0.7" height="5.1"/>
		<line class="fp-brushy-st8" x1="471.9" y1="196.3" x2="447.3" y2="196.3"/>
		<rect x="447.3" y="196" class="fp-brushy-st7" width="24.6" height="0.6"/>
		<rect x="60.4" y="364.6" class="fp-brushy-st9" width="48.8" height="27.5"/>
		<path class="fp-brushy-st9" d="M63.8,378c0,0-0.2,10.7,4.1,10.7h35.9c0,0,3.4,0.1,3.4-3.1V378l0,0v-7.5c0-3.3-3.4-3.1-3.4-3.1H67.9
			C63.6,367.3,63.8,378,63.8,378L63.8,378z"/>
		<path class="fp-brushy-st9" d="M105.7,377.9c0-0.7,0.2-1.4,0.7-2l2.1,1.9v0.1l-2.1,1.9C105.9,379.3,105.6,378.6,105.7,377.9"/>
		<rect x="107.8" y="363.1" class="fp-brushy-st7" width="7.1" height="31.4"/>
		<rect x="92.1" y="435.3" class="fp-brushy-st9" width="73.5" height="21"/>
		<rect x="224.4" y="435.3" class="fp-brushy-st9" width="28.6" height="21"/>
		<polyline class="fp-brushy-st10" points="199.2,453.7 199.2,449.5 219.2,449.5 219.2,453.7 		"/>
		<path class="fp-brushy-st10" d="M204.8,439.8c0.2,0.4,0.3,0.8,0.3,1.3v2.5c0,0.4-0.3,0.8-0.7,0.8c0,0-0.1,0-0.1,0h9.8
			c-0.4,0-0.8-0.3-0.8-0.7c0,0,0-0.1,0-0.1v-2.5c0-0.4,0.1-0.9,0.3-1.3"/>
		<ellipse class="fp-brushy-st10" cx="209.2" cy="435" rx="5.6" ry="7.6"/>
		<rect x="200.7" y="444.4" class="fp-brushy-st10" width="17" height="5.5"/>
		<polyline class="fp-brushy-st10" points="65.4,453.7 65.4,449.5 85.4,449.5 85.4,453.7 		"/>
		<path class="fp-brushy-st10" d="M71,439.8c0.2,0.4,0.3,0.8,0.3,1.3v2.5c0,0.4-0.3,0.8-0.7,0.8c0,0-0.1,0-0.1,0h9.8c-0.4,0-0.8-0.3-0.8-0.7
			c0,0,0-0.1,0-0.1v-2.5c0-0.4,0.1-0.9,0.3-1.3"/>
		<ellipse class="fp-brushy-st10" cx="75.4" cy="435" rx="5.6" ry="7.6"/>
		<rect x="66.9" y="444.4" class="fp-brushy-st10" width="17" height="5.5"/>
		<rect x="165.9" y="398.4" class="fp-brushy-st9" width="29.4" height="52.1"/>
		<path class="fp-brushy-st9" d="M180.9,401.9c0,0-11.4-0.2-11.4,4.4v38.4c0,0-0.2,3.6,3.4,3.6H189c3.5,0,3.4-3.6,3.4-3.6v-38.4
			C192.4,401.8,180.9,401.9,180.9,401.9L180.9,401.9z"/>
		<path class="fp-brushy-st9" d="M181,446.7c0.8,0,1.5,0.3,2.1,0.8l-2,2.3H181l-2-2.3C179.6,447,180.3,446.7,181,446.7"/>
		<rect x="163.9" y="449" class="fp-brushy-st7" width="32.8" height="7.6"/>
		<polygon class="fp-brushy-st11" points="504.8,340.2 409.8,340.2 409.8,375 480.5,375 480.5,432.1 458.7,432.1 458.7,456.5 504.8,456.5 		
			"/>
		<polygon class="fp-brushy-st12" points="478.6,418.8 477.9,418.8 477.9,395 502.6,395 502.6,418.8 		"/>
		<circle class="fp-brushy-st12" cx="493.3" cy="400.2" r="3.5"/>
		<circle class="fp-brushy-st12" cx="482.6" cy="400.2" r="2.8"/>
		<circle class="fp-brushy-st12" cx="482.6" cy="413.6" r="2.3"/>
		<circle class="fp-brushy-st12" cx="493.3" cy="413.6" r="2.3"/>
		<line class="fp-brushy-st3" x1="498.9" y1="395" x2="498.9" y2="418.8"/>
		<rect x="185.8" y="364.9" class="fp-brushy-st13" width="19" height="28"/>
		<polyline class="fp-brushy-st14" points="504.8,327.1 504.8,455.8 337.2,455.8 		"/>
		<polyline class="fp-brushy-st14" points="471.9,196.3 504.8,196.3 504.8,270.4 		"/>
		<line class="fp-brushy-st14" x1="444.4" y1="196.3" x2="447.3" y2="196.3"/>
		<polyline class="fp-brushy-st14" points="353.2,229.1 369.4,229.1 402.2,196.3 416,196.3 		"/>
		<polyline class="fp-brushy-st14" points="309.4,455.8 58.5,455.8 58.5,349.5 229.3,178.7 279.7,229.1 291,229.1 		"/>
		<polyline class="fp-brushy-st15" points="504.8,196.3 504.8,107.8 398.4,107.8 365.7,140.5 267.5,140.5 229.3,178.7 		"/>
		<polyline class="fp-brushy-st16" points="257.7,359.9 257.7,250.5 279.4,228.8 		"/>
		<line class="fp-brushy-st16" x1="252.7" y1="360.2" x2="262.3" y2="360.2"/>
		<line class="fp-brushy-st16" x1="369.4" y1="360.2" x2="290.5" y2="360.2"/>
		<line class="fp-brushy-st16" x1="369.4" y1="229.1" x2="369.4" y2="364"/>
		<line class="fp-brushy-st16" x1="369.4" y1="418.1" x2="369.4" y2="422"/>
		<polyline class="fp-brushy-st16" points="381.8,422 354.7,422 354.7,427.2 		"/>
		<line class="fp-brushy-st16" x1="354.7" y1="447.2" x2="354.7" y2="455.8"/>
		<line class="fp-brushy-st16" x1="377.4" y1="422" x2="377.4" y2="455.7"/>
		<polyline class="fp-brushy-st16" points="408.6,422 413.2,422 413.2,455.8 		"/>
		<polyline class="fp-brushy-st16" points="503.3,353.1 492.3,353.1 492.3,342.2 503.3,342.2 		"/>
		<polyline class="fp-brushy-st16" points="294.9,360.4 294.9,337.5 307.4,337.5 		"/>
		<line class="fp-brushy-st16" x1="355.4" y1="337.5" x2="369.4" y2="337.5"/>
		<line class="fp-brushy-st16" x1="205" y1="360" x2="205" y2="397.3"/>
		<polyline class="fp-brushy-st16" points="219.2,360.2 219.2,364.8 185.6,364.8 185.6,355.8 187.4,354 193.6,360.2 224.4,360.2 		"/>
		<polyline class="fp-brushy-st16" points="185.6,397.5 185.6,392.8 219.2,392.8 219.2,397.5 		"/>
		<line class="fp-brushy-st16" x1="166.1" y1="332.6" x2="120.7" y2="287.3"/>
		<line class="fp-brushy-st16" x1="161.2" y1="397.5" x2="236.7" y2="397.5"/>
		<line class="fp-brushy-st16" x1="158.7" y1="333.6" x2="162.9" y2="329.5"/>
		<line class="fp-brushy-st16" x1="138.6" y1="353.7" x2="127.9" y2="364.4"/>
		<polyline class="fp-brushy-st16" points="58.5,363.2 128.2,363.2 128.2,367.4 		"/>
		<polyline class="fp-brushy-st16" points="133.3,397.5 128.2,397.5 128.2,387.9 		"/>
		<polyline class="fp-brushy-st16" points="128.3,392.4 111.4,392.4 111.4,363.2 		"/>
		<line class="fp-brushy-st16" x1="165.6" y1="397.5" x2="165.6" y2="455.8"/>
		<line class="fp-brushy-st16" x1="265" y1="397.5" x2="302.9" y2="397.5"/>
		<line class="fp-brushy-st16" x1="270" y1="455.7" x2="270" y2="397.4"/>
		<line class="fp-brushy-st16" x1="303.1" y1="393.7" x2="303.1" y2="400.8"/>
		<line class="fp-brushy-st16" x1="303.1" y1="449.7" x2="303.1" y2="456.9"/>
		<line class="fp-brushy-st16" x1="303.1" y1="360.2" x2="303.1" y2="364.2"/>
		<line class="fp-brushy-st16" x1="79.2" y1="363" x2="61.8" y2="345.6"/>
		<rect x="431.5" y="427" class="fp-brushy-st12" width="26.3" height="23.2"/>
		<line class="fp-brushy-st17" x1="409.8" y1="351.8" x2="492.3" y2="351.8"/>
		<path class="fp-brushy-st12" d="M461.5,357.7v13.7c0,1.3-1,2.3-2.3,2.3h-23.8c-1.3,0-2.3-1-2.3-2.3v-13.7c0-1.3,1-2.3,2.3-2.3h23.8
			C460.4,355.4,461.5,356.4,461.5,357.7z"/>
		<circle class="fp-brushy-st12" cx="447.3" cy="364.5" r="1.6"/>
		<path class="fp-brushy-st9" d="M98.5,437.3h10.9c1.2,0,2.2,1,2.2,2.2v7c0,1.2-1,2.2-2.2,2.2H98.5c-1.2,0-2.2-1-2.2-2.2v-7
			C96.3,438.3,97.3,437.3,98.5,437.3z"/>
		<circle class="fp-brushy-st9" cx="104" cy="444.6" r="1.3"/>
		<path class="fp-brushy-st9" d="M133.9,437.3h10.9c1.2,0,2.2,1,2.2,2.2v7c0,1.2-1,2.2-2.2,2.2h-10.9c-1.2,0-2.2-1-2.2-2.2v-7
			C131.8,438.3,132.7,437.3,133.9,437.3z"/>
		<circle class="fp-brushy-st9" cx="139.4" cy="444.6" r="1.3"/>
		<path class="fp-brushy-st9" d="M233.2,437.3h10.9c1.2,0,2.2,1,2.2,2.2v7c0,1.2-1,2.2-2.2,2.2h-10.9c-1.2,0-2.2-1-2.2-2.2v-7
			C231,438.3,232,437.3,233.2,437.3z"/>
		<circle class="fp-brushy-st9" cx="238.6" cy="444.6" r="1.3"/>
		<line class="fp-brushy-st8" x1="378.9" y1="219.6" x2="398.5" y2="200"/>
		
			<rect x="374.8" y="209.5" transform="matrix(0.7071 -0.7071 0.7071 0.7071 -34.5156 336.3347)" class="fp-brushy-st7" width="27.8" height="0.7"/>
		
			<rect x="373" y="207.7" transform="matrix(0.7071 -0.7071 0.7071 0.7071 -33.763 334.5316)" class="fp-brushy-st7" width="27.8" height="0.7"/>
		
			<rect x="376.6" y="211.3" transform="matrix(0.7071 -0.7071 0.7071 0.7071 -35.2497 338.1025)" class="fp-brushy-st7" width="27.8" height="0.7"/>
		<line class="fp-brushy-st8" x1="236.3" y1="185.7" x2="273.3" y2="222.7"/>
		
			<rect x="254.4" y="178.1" transform="matrix(0.7071 -0.7071 0.7071 0.7071 -69.7942 239.9592)" class="fp-brushy-st7" width="0.7" height="52.4"/>
		
			<rect x="256.2" y="176.2" transform="matrix(0.7071 -0.7071 0.7071 0.7071 -67.977 240.712)" class="fp-brushy-st7" width="0.7" height="52.4"/>
		
			<rect x="252.6" y="179.8" transform="matrix(0.7071 -0.7071 0.7071 0.7071 -71.5561 239.2253)" class="fp-brushy-st7" width="0.7" height="52.4"/>
		
			<rect x="260.6" y="212.2" transform="matrix(0.7071 -0.7071 0.7071 0.7071 -73.2401 248.3337)" class="fp-brushy-st7" width="5.1" height="0.7"/>
		<path class="fp-brushy-st18" d="M337.4,450.8c0-4.4,0.2-11.3-8.2-19.6"/>
		
			<rect x="305.5" y="440.9" transform="matrix(0.7071 -0.7071 0.7071 0.7071 -218.6835 355.3704)" class="fp-brushy-st19" width="28.3" height="1.5"/>
		<path class="fp-brushy-st18" d="M382.1,419.4c0-4.1-0.2-10.5,7.6-18.2"/>
		
			<rect x="397.9" y="397.7" transform="matrix(0.7071 -0.7071 0.7071 0.7071 -173.8044 402.1939)" class="fp-brushy-st19" width="1.4" height="26.3"/>
		<path class="fp-brushy-st20" d="M305.8,425.3c0,0,8.8,0.2,15.3-6"/>
		
			<rect x="312.7" y="399.1" transform="matrix(0.7071 -0.7071 0.7071 0.7071 -198.6002 341.8325)" class="fp-brushy-st21" width="1.3" height="23.1"/>
		<path class="fp-brushy-st20" d="M305.8,425.3c0,0,8.8-0.2,15.3,6"/>
		
			<rect x="301.8" y="439.2" transform="matrix(0.7071 -0.7071 0.7071 0.7071 -219.2593 350.3943)" class="fp-brushy-st21" width="23.1" height="1.3"/>
		<path class="fp-brushy-st18" d="M351.8,427.4c-3,0-7.7-0.1-13.4,5.6"/>
		
			<rect x="345.1" y="429.8" transform="matrix(0.7071 -0.7071 0.7071 0.7071 -209.5621 373.0869)" class="fp-brushy-st19" width="1" height="19.4"/>
		
			<rect x="146.1" y="310.4" transform="matrix(0.7071 -0.7071 0.7071 0.7071 -185.6803 198.4994)" class="fp-brushy-st19" width="1.4" height="26"/>
		<path class="fp-brushy-st18" d="M137.1,314.7c-10.2,10.3-10.2,26.8,0,37.1"/>
		<rect x="159.9" y="400.1" class="fp-brushy-st19" width="1.4" height="26"/>
		<path class="fp-brushy-st18" d="M159.9,426.1c-14.5,0-26.2-11.7-26.2-26.2"/>
		<rect x="263.3" y="400.1" class="fp-brushy-st19" width="1.4" height="26"/>
		<path class="fp-brushy-st18" d="M263.3,426.1c-14.5,0-26.2-11.7-26.3-26.2"/>
		<rect x="130.1" y="368" class="fp-brushy-st19" width="18.4" height="1"/>
		<path class="fp-brushy-st18" d="M148.6,368.9c0,10.2-8.3,18.5-18.6,18.6"/>
		<rect x="262.6" y="331.4" class="fp-brushy-st19" width="1.4" height="26"/>
		<path class="fp-brushy-st18" d="M264,331.4c14.5,0,26.2,11.7,26.2,26.2"/>
		<rect x="416.2" y="166.1" class="fp-brushy-st19" width="1.4" height="26"/>
		<path class="fp-brushy-st18" d="M417.6,166.1c14.5,0,26.2,11.7,26.2,26.2"/>
		<rect x="251" y="331.4" class="fp-brushy-st19" width="1.4" height="26"/>
		<path class="fp-brushy-st18" d="M251,331.4c-14.5,0-26.2,11.7-26.2,26.2"/>
		<path class="fp-brushy-st20" d="M331.5,335.2c0,0,0.2-8.8-6-15.3"/>
		
			<rect x="305.3" y="327.1" transform="matrix(0.7071 -0.7071 0.7071 0.7071 -138.9168 320.0154)" class="fp-brushy-st21" width="23.1" height="1.3"/>
		<path class="fp-brushy-st20" d="M331.5,335.2c0,0-0.2-8.8,6-15.3"/>
		
			<rect x="345.4" y="316.1" transform="matrix(0.7071 -0.7071 0.7071 0.7071 -130.3565 340.6836)" class="fp-brushy-st21" width="1.3" height="23.1"/>
		<polyline class="fp-brushy-st22" points="252.8,454.1 252.8,435.6 254.2,435.6 		"/>
		<polyline class="fp-brushy-st22" points="267,454.1 267,435.6 265.6,435.6 		"/>
		
			<rect x="261.1" y="424.7" transform="matrix(0.7071 -0.7071 0.7071 0.7071 -227.9326 311.0043)" class="fp-brushy-st23" width="0.7" height="11.9"/>
		<path class="fp-brushy-st24" d="M253.9,434.5c0.1-2.9,1.2-5.7,3.1-7.9"/>
		<rect x="275.4" y="425.7" class="fp-brushy-st10" width="24" height="21.5"/>
		<line class="fp-brushy-st25" x1="278" y1="447.4" x2="278" y2="425.8"/>
		<rect x="275.4" y="403.1" class="fp-brushy-st10" width="24" height="21.5"/>
		<line class="fp-brushy-st25" x1="278" y1="424.7" x2="278" y2="403.1"/>
		<rect x="407.7" y="276.3" class="fp-brushy-st1" width="59.3" height="11.9"/>
		<rect x="409.9" y="393.4" class="fp-brushy-st1" width="59.2" height="23.8"/>
		<rect x="91.7" y="407.1" class="fp-brushy-st1" width="33.8" height="17.7"/>
		<rect x="200.2" y="407.1" class="fp-brushy-st1" width="37.3" height="18.7"/>
		<rect x="360.4" y="430.2" class="fp-brushy-st1" width="8.5" height="16.2"/>
		<rect x="300.6" y="415.6" class="fp-brushy-st1" width="5.8" height="18.9"/>
		<g class="fp-brushy-st6">
			<path class="fp-brushy-st7" d="M364.9,431.5L364.9,431.5c0.9,0,1.6,0.6,1.6,1.6c0,0.6-0.2,0.9-0.5,1.2l-0.4-0.3c0.2-0.2,0.4-0.5,0.4-0.8
				c0-0.6-0.5-1-1.1-1h0c-0.6,0-1.1,0.4-1.1,1c0,0.4,0.1,0.6,0.4,0.9l-0.3,0.3c-0.3-0.3-0.5-0.7-0.5-1.2
				C363.3,432.2,364,431.5,364.9,431.5z"/>
		</g>
		<g class="fp-brushy-st6">
			<path class="fp-brushy-st7" d="M364.9,434.8L364.9,434.8c0.9,0,1.6,0.7,1.6,1.6s-0.7,1.6-1.6,1.6h0c-0.9,0-1.6-0.7-1.6-1.6
				S364.1,434.8,364.9,434.8z M364.9,437.4L364.9,437.4c0.6,0,1.1-0.4,1.1-1s-0.5-1-1.1-1h0c-0.6,0-1.1,0.4-1.1,1
				S364.3,437.4,364.9,437.4z"/>
		</g>
		<g class="fp-brushy-st6">
			<path class="fp-brushy-st7" d="M366.5,439.7v0.5l-3.1,1.3v-0.6l0.7-0.3v-1.4l-0.7-0.3v-0.5L366.5,439.7z M364.6,440.4l1.2-0.5l-1.2-0.5
				V440.4z"/>
		</g>
		<g class="fp-brushy-st6">
			<path class="fp-brushy-st7" d="M365.9,442.5v-1h0.5v2.5h-0.5v-1h-2.5v-0.5H365.9z"/>
		</g>
		<g class="fp-brushy-st6">
			<path class="fp-brushy-st7" d="M119.3,384.8v-0.5h2.5v-1.6h0.5v2.1H119.3z"/>
			<path class="fp-brushy-st7" d="M119.3,381.9v-0.5h3v0.5H119.3z"/>
			<path class="fp-brushy-st7" d="M119.3,380.4v-0.5l2.1-1.6h-2.1v-0.5h3v0.4l-2.2,1.7h2.2v0.5H119.3z"/>
			<path class="fp-brushy-st7" d="M119.3,376.8v-2.2h0.5v1.7h0.8v-1.5h0.5v1.5h0.8v-1.7h0.5v2.3H119.3z"/>
			<path class="fp-brushy-st7" d="M119.3,373.7v-0.5l2.1-1.6h-2.1v-0.5h3v0.4l-2.2,1.7h2.2v0.5H119.3z"/>
		</g>
		<g class="fp-brushy-st6">
			<path class="fp-brushy-st7" d="M283.4,283h3.4c0.9,0,1.5,0.2,2,0.7c0.3,0.3,0.5,0.7,0.5,1.3v0c0,0.9-0.5,1.4-1.1,1.7
				c0.9,0.3,1.5,0.8,1.5,1.8v0c0,1.4-1.1,2.1-2.8,2.1h-3.5V283z M288,285.1c0-0.6-0.5-1-1.3-1h-1.9v2h1.8
				C287.4,286.2,288,285.9,288,285.1L288,285.1z M286.9,287.3h-2.1v2.1h2.2c0.9,0,1.5-0.4,1.5-1v0
				C288.4,287.7,287.9,287.3,286.9,287.3z"/>
			<path class="fp-brushy-st7" d="M291.7,283h5.6v1.2H293v2h3.8v1.2H293v2h4.3v1.2h-5.7V283z"/>
			<path class="fp-brushy-st7" d="M299.4,283h2.8c2.4,0,4,1.6,4,3.8v0c0,2.1-1.6,3.8-4,3.8h-2.8V283z M300.7,284.2v5.2h1.5
				c1.6,0,2.6-1.1,2.6-2.6v0c0-1.5-1-2.6-2.6-2.6H300.7z"/>
			<path class="fp-brushy-st7" d="M308.3,283h3.4c1,0,1.7,0.3,2.2,0.8c0.4,0.4,0.6,1,0.6,1.6v0c0,1.2-0.7,2-1.8,2.3l2,2.9h-1.6l-1.9-2.6h-1.7
				v2.6h-1.3V283z M311.6,286.8c1,0,1.6-0.5,1.6-1.3v0c0-0.8-0.6-1.3-1.6-1.3h-1.9v2.5H311.6z"/>
			<path class="fp-brushy-st7" d="M316.2,286.8L316.2,286.8c0-2.2,1.6-3.9,4-3.9s4,1.8,4,3.9v0c0,2.1-1.6,3.9-4,3.9S316.2,288.9,316.2,286.8z
				 M322.8,286.8L322.8,286.8c0-1.5-1.1-2.7-2.6-2.7s-2.6,1.2-2.6,2.7v0c0,1.5,1.1,2.7,2.6,2.7S322.8,288.3,322.8,286.8z"/>
			<path class="fp-brushy-st7" d="M325.9,286.8L325.9,286.8c0-2.2,1.6-3.9,4-3.9s4,1.8,4,3.9v0c0,2.1-1.6,3.9-4,3.9S325.9,288.9,325.9,286.8z
				 M332.4,286.8L332.4,286.8c0-1.5-1.1-2.7-2.6-2.7s-2.6,1.2-2.6,2.7v0c0,1.5,1.1,2.7,2.6,2.7S332.4,288.3,332.4,286.8z"/>
			<path class="fp-brushy-st7" d="M335.9,283h1.4l2.3,3.6l2.3-3.6h1.4v7.6H342v-5.4l-2.4,3.6h0l-2.4-3.6v5.4h-1.3V283z"/>
		</g>
		<g class="fp-brushy-st6">
			<path class="fp-brushy-st7" d="M292.7,298.9l-0.8,0.2l-0.2-0.6l1.2-0.4h0.5v4.5h-0.8V298.9z"/>
			<path class="fp-brushy-st7" d="M295.5,298.9l-0.8,0.2l-0.2-0.6l1.2-0.4h0.5v4.5h-0.8V298.9z"/>
			<path class="fp-brushy-st7" d="M297.4,299.6c0.4-0.1,0.6-0.3,0.6-0.6h-0.3v-0.9h0.9v0.8c0,0.7-0.3,1-1,1.1L297.4,299.6z"/>
			<path class="fp-brushy-st7" d="M304.4,300.5c-0.3,0.3-0.6,0.5-1.1,0.5c-1,0-1.6-0.6-1.6-1.4v0c0-0.9,0.7-1.6,1.7-1.6c0.6,0,0.9,0.2,1.3,0.5
				c0.3,0.3,0.5,0.8,0.5,1.7v0c0,1.4-0.7,2.4-1.9,2.4c-0.6,0-1.1-0.2-1.4-0.5l0.4-0.6c0.3,0.3,0.6,0.4,1,0.4
				C304.1,301.9,304.4,301.1,304.4,300.5z M304.4,299.5L304.4,299.5c0-0.5-0.4-0.8-0.9-0.8c-0.6,0-0.9,0.4-0.9,0.8v0
				c0,0.5,0.4,0.8,0.9,0.8C304,300.3,304.4,300,304.4,299.5z"/>
			<path class="fp-brushy-st7" d="M306.1,299.6c0.4-0.1,0.6-0.3,0.6-0.6h-0.3v-0.9h0.9v0.8c0,0.7-0.3,1-1,1.1L306.1,299.6z M307.6,299.6
				c0.4-0.1,0.6-0.3,0.5-0.6h-0.3v-0.9h0.9v0.8c0,0.7-0.3,1-1,1.1L307.6,299.6z"/>
			<path class="fp-brushy-st7" d="M313.4,300.3l0.8-1.1h0.8l-1.2,1.7l1.2,1.7h-0.8l-0.8-1.2l-0.8,1.2h-0.8l1.2-1.7l-1.2-1.7h0.8L313.4,300.3z"
				/>
			<path class="fp-brushy-st7" d="M318.8,298.9l-0.8,0.2l-0.2-0.6l1.2-0.4h0.5v4.5h-0.8V298.9z"/>
			<path class="fp-brushy-st7" d="M321.6,298.9l-0.8,0.2l-0.2-0.6l1.2-0.4h0.5v4.5h-0.8V298.9z"/>
			<path class="fp-brushy-st7" d="M323.5,299.6c0.4-0.1,0.6-0.3,0.6-0.6h-0.3v-0.9h0.9v0.8c0,0.7-0.3,1-1,1.1L323.5,299.6z"/>
			<path class="fp-brushy-st7" d="M330.1,301.6h-2.3l-0.1-0.6l2.5-3h0.7v2.9h0.6v0.6h-0.6v1h-0.8V301.6z M330.1,300.9v-1.8l-1.5,1.8H330.1z"/>
			<path class="fp-brushy-st7" d="M332.4,299.6c0.4-0.1,0.6-0.3,0.6-0.6h-0.3v-0.9h0.9v0.8c0,0.7-0.3,1-1,1.1L332.4,299.6z M333.8,299.6
				c0.4-0.1,0.6-0.3,0.5-0.6h-0.3v-0.9h0.9v0.8c0,0.7-0.3,1-1,1.1L333.8,299.6z"/>
		</g>
		<g class="fp-brushy-st6">
			<path class="fp-brushy-st7" d="M172.4,283h3.4c0.9,0,1.5,0.2,2,0.7c0.3,0.3,0.5,0.7,0.5,1.3v0c0,0.9-0.5,1.4-1.1,1.7
				c0.9,0.3,1.5,0.8,1.5,1.8v0c0,1.4-1.1,2.1-2.8,2.1h-3.5V283z M177,285.1c0-0.6-0.5-1-1.3-1h-1.9v2h1.8
				C176.4,286.2,177,285.9,177,285.1L177,285.1z M175.8,287.3h-2.1v2.1h2.2c0.9,0,1.5-0.4,1.5-1v0
				C177.4,287.7,176.9,287.3,175.8,287.3z"/>
			<path class="fp-brushy-st7" d="M180.7,283h5.6v1.2H182v2h3.8v1.2H182v2h4.3v1.2h-5.7V283z"/>
			<path class="fp-brushy-st7" d="M188.4,283h2.8c2.4,0,4,1.6,4,3.8v0c0,2.1-1.6,3.8-4,3.8h-2.8V283z M189.7,284.2v5.2h1.5
				c1.6,0,2.6-1.1,2.6-2.6v0c0-1.5-1-2.6-2.6-2.6H189.7z"/>
			<path class="fp-brushy-st7" d="M197.3,283h3.4c1,0,1.7,0.3,2.2,0.8c0.4,0.4,0.6,1,0.6,1.6v0c0,1.2-0.7,2-1.8,2.3l2,2.9h-1.6l-1.9-2.6h-1.7
				v2.6h-1.3V283z M200.6,286.8c1,0,1.6-0.5,1.6-1.3v0c0-0.8-0.6-1.3-1.6-1.3h-1.9v2.5H200.6z"/>
			<path class="fp-brushy-st7" d="M205.2,286.8L205.2,286.8c0-2.2,1.6-3.9,4-3.9s4,1.8,4,3.9v0c0,2.1-1.6,3.9-4,3.9
				C206.9,290.7,205.2,288.9,205.2,286.8z M211.8,286.8L211.8,286.8c0-1.5-1.1-2.7-2.6-2.7c-1.5,0-2.6,1.2-2.6,2.7v0
				c0,1.5,1.1,2.7,2.6,2.7S211.8,288.3,211.8,286.8z"/>
			<path class="fp-brushy-st7" d="M214.9,286.8L214.9,286.8c0-2.2,1.6-3.9,4-3.9s4,1.8,4,3.9v0c0,2.1-1.6,3.9-4,3.9
				C216.5,290.7,214.9,288.9,214.9,286.8z M221.4,286.8L221.4,286.8c0-1.5-1.1-2.7-2.6-2.7c-1.5,0-2.6,1.2-2.6,2.7v0
				c0,1.5,1.1,2.7,2.6,2.7S221.4,288.3,221.4,286.8z"/>
			<path class="fp-brushy-st7" d="M224.9,283h1.4l2.3,3.6l2.3-3.6h1.4v7.6H231v-5.4l-2.4,3.6h0l-2.4-3.6v5.4h-1.3V283z"/>
		</g>
		<g class="fp-brushy-st6">
			<path class="fp-brushy-st7" d="M183.5,298.9l-0.8,0.2l-0.2-0.6l1.2-0.4h0.5v4.5h-0.8V298.9z"/>
			<path class="fp-brushy-st7" d="M185.4,302l0.5-0.6c0.4,0.3,0.7,0.5,1.2,0.5c0.5,0,0.9-0.3,0.9-0.8v0c0-0.5-0.4-0.7-0.9-0.7
				c-0.3,0-0.6,0.1-0.8,0.2l-0.5-0.3l0.1-2.2h2.7v0.7h-2l-0.1,1.1c0.2-0.1,0.4-0.1,0.7-0.1c0.9,0,1.6,0.5,1.6,1.4v0
				c0,0.9-0.7,1.5-1.7,1.5C186.4,302.7,185.8,302.4,185.4,302z"/>
			<path class="fp-brushy-st7" d="M189.6,299.6c0.4-0.1,0.6-0.3,0.6-0.6h-0.3v-0.9h0.9v0.8c0,0.7-0.3,1-1,1.1L189.6,299.6z"/>
			<path class="fp-brushy-st7" d="M194.7,298.9l-0.8,0.2l-0.2-0.6l1.2-0.4h0.5v4.5h-0.8V298.9z"/>
			<path class="fp-brushy-st7" d="M196.7,300.3L196.7,300.3c0-1.3,0.8-2.3,2-2.3c1.2,0,2,1,2,2.3v0c0,1.3-0.8,2.3-2,2.3
				C197.5,302.7,196.7,301.6,196.7,300.3z M199.8,300.3L199.8,300.3c0-0.9-0.5-1.6-1.1-1.6c-0.7,0-1.1,0.7-1.1,1.6v0
				c0,0.9,0.4,1.6,1.1,1.6S199.8,301.2,199.8,300.3z"/>
			<path class="fp-brushy-st7" d="M201.5,299.6c0.4-0.1,0.6-0.3,0.6-0.6h-0.3v-0.9h0.9v0.8c0,0.7-0.3,1-1,1.1L201.5,299.6z M203,299.6
				c0.4-0.1,0.6-0.3,0.5-0.6h-0.3v-0.9h0.9v0.8c0,0.7-0.3,1-1,1.1L203,299.6z"/>
			<path class="fp-brushy-st7" d="M208.8,300.3l0.8-1.1h0.8l-1.2,1.7l1.2,1.7h-0.8l-0.8-1.2l-0.8,1.2h-0.8l1.2-1.7l-1.2-1.7h0.8L208.8,300.3z"
				/>
			<path class="fp-brushy-st7" d="M214.2,298.9l-0.8,0.2l-0.2-0.6l1.2-0.4h0.5v4.5h-0.8V298.9z"/>
			<path class="fp-brushy-st7" d="M216.3,300.3L216.3,300.3c0-1.3,0.8-2.3,2-2.3c1.2,0,2,1,2,2.3v0c0,1.3-0.8,2.3-2,2.3
				C217,302.7,216.3,301.6,216.3,300.3z M219.4,300.3L219.4,300.3c0-0.9-0.5-1.6-1.1-1.6c-0.7,0-1.1,0.7-1.1,1.6v0
				c0,0.9,0.4,1.6,1.1,1.6S219.4,301.2,219.4,300.3z"/>
			<path class="fp-brushy-st7" d="M221.1,299.6c0.4-0.1,0.6-0.3,0.6-0.6h-0.3v-0.9h0.9v0.8c0,0.7-0.3,1-1,1.1L221.1,299.6z"/>
		</g>
		<circle class="fp-brushy-st26" cx="395.2" cy="437.8" r="11.6"/>
		<g class="fp-brushy-st6">
			<path class="fp-brushy-st7" d="M387.8,435.9h0.7v1.5h1.8v-1.5h0.7v3.7h-0.7v-1.6h-1.8v1.6h-0.7V435.9z"/>
		</g>
		<g class="fp-brushy-st6">
			<path class="fp-brushy-st7" d="M391.8,435.9h0.7l1.1,2.9l1.1-2.9h0.7l-1.5,3.8h-0.6L391.8,435.9z"/>
		</g>
		<g class="fp-brushy-st6">
			<path class="fp-brushy-st7" d="M397.1,435.9h0.6l1.6,3.8h-0.7l-0.4-0.9h-1.8l-0.4,0.9h-0.7L397.1,435.9z M398,438.2l-0.6-1.5l-0.6,1.5H398z
				"/>
		</g>
		<g class="fp-brushy-st6">
			<path class="fp-brushy-st7" d="M399.8,437.8L399.8,437.8c0-1.1,0.8-1.9,1.9-1.9c0.7,0,1.1,0.2,1.5,0.6l-0.4,0.5c-0.3-0.3-0.6-0.5-1-0.5
				c-0.7,0-1.2,0.6-1.2,1.3v0c0,0.7,0.5,1.3,1.2,1.3c0.5,0,0.8-0.2,1.1-0.5l0.4,0.4c-0.4,0.4-0.8,0.7-1.5,0.7
				C400.6,439.7,399.8,438.9,399.8,437.8z"/>
		</g>
		<g class="fp-brushy-st6">
			<path class="fp-brushy-st7" d="M296.3,174.1h3.4c0.9,0,1.5,0.2,2,0.7c0.3,0.3,0.5,0.7,0.5,1.3v0c0,0.9-0.5,1.4-1.1,1.7
				c0.9,0.3,1.5,0.8,1.5,1.8v0c0,1.4-1.1,2.1-2.8,2.1h-3.5V174.1z M300.9,176.3c0-0.6-0.5-1-1.3-1h-1.9v2h1.8
				C300.3,177.3,300.9,177,300.9,176.3L300.9,176.3z M299.7,178.5h-2.1v2.1h2.2c0.9,0,1.5-0.4,1.5-1v0
				C301.3,178.8,300.8,178.5,299.7,178.5z"/>
			<path class="fp-brushy-st7" d="M307.2,174.1h1.2l3.3,7.6h-1.4l-0.8-1.8H306l-0.8,1.8h-1.4L307.2,174.1z M309.1,178.7l-1.3-3l-1.3,3H309.1z"
				/>
		</g>
		<g class="fp-brushy-st6">
			<path class="fp-brushy-st7" d="M313.5,174.1h1.3v6.4h4v1.2h-5.3V174.1z"/>
		</g>
		<g class="fp-brushy-st6">
			<path class="fp-brushy-st7" d="M319.9,178L319.9,178c0-2.2,1.6-3.9,3.9-3.9c1.4,0,2.2,0.5,3,1.2l-0.9,1c-0.6-0.6-1.3-0.9-2.1-0.9
				c-1.4,0-2.5,1.2-2.5,2.7v0c0,1.5,1.1,2.7,2.5,2.7c0.9,0,1.5-0.4,2.2-1l0.9,0.9c-0.8,0.8-1.7,1.3-3.1,1.3
				C321.6,181.9,319.9,180.1,319.9,178z"/>
		</g>
		<g class="fp-brushy-st6">
			<path class="fp-brushy-st7" d="M328.1,178L328.1,178c0-2.2,1.6-3.9,4-3.9s4,1.8,4,3.9v0c0,2.1-1.6,3.9-4,3.9
				C329.8,181.9,328.1,180.1,328.1,178z M334.7,178L334.7,178c0-1.5-1.1-2.7-2.6-2.7c-1.5,0-2.6,1.2-2.6,2.7v0
				c0,1.5,1.1,2.7,2.6,2.7S334.7,179.4,334.7,178z"/>
			<path class="fp-brushy-st7" d="M338.1,174.1h1.2l4.1,5.2v-5.2h1.3v7.6h-1.1l-4.2-5.4v5.4h-1.3V174.1z"/>
			<path class="fp-brushy-st7" d="M349.3,178.7l-3-4.6h1.6l2.1,3.3l2.1-3.3h1.5l-3,4.6v3h-1.3V178.7z"/>
		</g>
		<g class="fp-brushy-st6">
			<path class="fp-brushy-st7" d="M312.5,191.4l1.5-1.3c0.6-0.5,0.8-0.8,0.8-1.2c0-0.4-0.3-0.7-0.7-0.7s-0.7,0.2-1,0.7l-0.6-0.4
				c0.4-0.6,0.9-0.9,1.7-0.9c0.9,0,1.5,0.5,1.5,1.3v0c0,0.7-0.4,1.1-1.2,1.7l-0.9,0.8h2.1v0.7h-3.3V191.4z"/>
			<path class="fp-brushy-st7" d="M316.7,190.8L316.7,190.8c0-0.6,0.3-0.9,0.8-1.1c-0.4-0.2-0.7-0.5-0.7-1v0c0-0.7,0.7-1.2,1.6-1.2
				s1.6,0.5,1.6,1.2v0c0,0.5-0.3,0.8-0.7,1c0.5,0.2,0.8,0.5,0.8,1.1v0c0,0.8-0.7,1.3-1.7,1.3C317.4,192.1,316.7,191.5,316.7,190.8z
				 M319.3,190.7L319.3,190.7c0-0.4-0.4-0.7-0.9-0.7s-0.9,0.3-0.9,0.7v0c0,0.4,0.3,0.7,0.9,0.7C319,191.4,319.3,191.1,319.3,190.7z
				 M319.2,188.7L319.2,188.7c0-0.4-0.3-0.6-0.8-0.6c-0.5,0-0.8,0.3-0.8,0.6v0c0,0.4,0.3,0.7,0.8,0.7
				C318.8,189.4,319.2,189.1,319.2,188.7z"/>
			<path class="fp-brushy-st7" d="M320.9,189c0.4-0.1,0.6-0.3,0.6-0.6h-0.3v-0.9h0.9v0.8c0,0.7-0.3,1-1,1.1L320.9,189z"/>
			<path class="fp-brushy-st7" d="M326.7,189.7l0.8-1.1h0.8l-1.2,1.7l1.2,1.7h-0.8l-0.8-1.2l-0.8,1.2H325l1.2-1.7l-1.2-1.7h0.8L326.7,189.7z"
				/>
			<path class="fp-brushy-st7" d="M334,189.9c-0.3,0.3-0.6,0.5-1.1,0.5c-1,0-1.6-0.6-1.6-1.4v0c0-0.9,0.7-1.6,1.7-1.6c0.6,0,0.9,0.2,1.3,0.5
				c0.3,0.3,0.5,0.8,0.5,1.7v0c0,1.4-0.7,2.4-1.9,2.4c-0.6,0-1.1-0.2-1.4-0.5l0.4-0.6c0.3,0.3,0.6,0.4,1,0.4
				C333.7,191.3,334,190.5,334,189.9z M334,188.9L334,188.9c0-0.5-0.4-0.8-0.9-0.8c-0.6,0-0.9,0.4-0.9,0.8v0c0,0.5,0.4,0.8,0.9,0.8
				C333.7,189.7,334,189.4,334,188.9z"/>
			<path class="fp-brushy-st7" d="M335.7,189c0.4-0.1,0.6-0.3,0.6-0.6h-0.3v-0.9h0.9v0.8c0,0.7-0.3,1-1,1.1L335.7,189z"/>
		</g>
		<g class="fp-brushy-st6">
			<path class="fp-brushy-st7" d="M417.8,266.9h1.3v6.4h4v1.2h-5.3V266.9z"/>
			<path class="fp-brushy-st7" d="M425.1,266.9h1.3v7.6h-1.3V266.9z"/>
			<path class="fp-brushy-st7" d="M428.2,266.9h1.5l2.3,5.8l2.3-5.8h1.4l-3.1,7.6h-1.2L428.2,266.9z"/>
			<path class="fp-brushy-st7" d="M437.5,266.9h1.3v7.6h-1.3V266.9z"/>
			<path class="fp-brushy-st7" d="M441.3,266.9h1.2l4.1,5.2v-5.2h1.3v7.6h-1.1l-4.2-5.4v5.4h-1.3V266.9z"/>
			<path class="fp-brushy-st7" d="M450,270.7L450,270.7c0-2.1,1.6-3.9,3.9-3.9c1.3,0,2.1,0.4,2.9,1l-0.8,1c-0.6-0.5-1.2-0.8-2.1-0.8
				c-1.4,0-2.5,1.2-2.5,2.7v0c0,1.6,1,2.7,2.6,2.7c0.7,0,1.4-0.2,1.8-0.6v-1.4h-1.9v-1.2h3.2v3.2c-0.7,0.6-1.8,1.2-3.2,1.2
				C451.5,274.6,450,272.9,450,270.7z"/>
		</g>
		<g class="fp-brushy-st6">
			<path class="fp-brushy-st7" d="M413.6,280l-0.8,0.2l-0.2-0.6l1.2-0.4h0.5v4.5h-0.8V280z"/>
			<path class="fp-brushy-st7" d="M415.6,283l0.6-0.5c0.3,0.4,0.7,0.6,1.2,0.6c0.4,0,0.8-0.3,0.8-0.7v0c0-0.4-0.4-0.7-1-0.7h-0.4l-0.1-0.5
				l1.2-1.3h-1.9v-0.7h3v0.6l-1.3,1.3c0.7,0.1,1.3,0.4,1.3,1.3v0c0,0.8-0.6,1.4-1.6,1.4C416.5,283.8,415.9,283.4,415.6,283z"/>
			<path class="fp-brushy-st7" d="M419.8,280.7c0.4-0.1,0.6-0.3,0.6-0.6H420v-0.9h0.9v0.8c0,0.7-0.3,1-1,1.1L419.8,280.7z"/>
			<path class="fp-brushy-st7" d="M424.8,280l-0.8,0.2l-0.2-0.6l1.2-0.4h0.5v4.5h-0.8V280z"/>
			<path class="fp-brushy-st7" d="M426.9,281.5L426.9,281.5c0-1.3,0.8-2.3,2-2.3c1.2,0,2,1,2,2.3v0c0,1.3-0.8,2.3-2,2.3
				C427.6,283.8,426.9,282.7,426.9,281.5z M430,281.5L430,281.5c0-0.9-0.5-1.6-1.2-1.6c-0.7,0-1.1,0.7-1.1,1.6v0
				c0,0.9,0.5,1.6,1.2,1.6S430,282.3,430,281.5z"/>
			<path class="fp-brushy-st7" d="M431.7,280.7c0.4-0.1,0.6-0.3,0.6-0.6h-0.3v-0.9h0.9v0.8c0,0.7-0.3,1-1,1.1L431.7,280.7z M433.1,280.7
				c0.4-0.1,0.6-0.3,0.5-0.6h-0.3v-0.9h0.9v0.8c0,0.7-0.3,1-1,1.1L433.1,280.7z"/>
			<path class="fp-brushy-st7" d="M438.9,281.4l0.8-1.1h0.8l-1.2,1.7l1.2,1.7h-0.8l-0.8-1.2l-0.8,1.2h-0.8l1.2-1.7l-1.2-1.7h0.8L438.9,281.4z"
				/>
			<path class="fp-brushy-st7" d="M444.4,280l-0.8,0.2l-0.2-0.6l1.2-0.4h0.5v4.5h-0.8V280z"/>
			<path class="fp-brushy-st7" d="M446.3,283.1l0.5-0.6c0.4,0.3,0.7,0.5,1.2,0.5c0.5,0,0.9-0.3,0.9-0.8v0c0-0.5-0.4-0.7-0.9-0.7
				c-0.3,0-0.6,0.1-0.8,0.2l-0.5-0.3l0.1-2.2h2.7v0.7h-2l-0.1,1.1c0.2-0.1,0.4-0.1,0.7-0.1c0.9,0,1.6,0.5,1.6,1.4v0
				c0,0.9-0.7,1.5-1.7,1.5C447.3,283.8,446.8,283.5,446.3,283.1z"/>
			<path class="fp-brushy-st7" d="M450.6,280.7c0.4-0.1,0.6-0.3,0.6-0.6h-0.3v-0.9h0.9v0.8c0,0.7-0.3,1-1,1.1L450.6,280.7z"/>
			<path class="fp-brushy-st7" d="M457.1,282.7h-2.3l-0.1-0.6l2.5-3h0.7v2.9h0.6v0.6h-0.6v1h-0.8V282.7z M457.1,282v-1.8l-1.5,1.8H457.1z"/>
			<path class="fp-brushy-st7" d="M459.4,280.7c0.4-0.1,0.6-0.3,0.6-0.6h-0.3v-0.9h0.9v0.8c0,0.7-0.3,1-1,1.1L459.4,280.7z M460.9,280.7
				c0.4-0.1,0.6-0.3,0.5-0.6h-0.3v-0.9h0.9v0.8c0,0.7-0.3,1-1,1.1L460.9,280.7z"/>
		</g>
		<g class="fp-brushy-st6">
			<path class="fp-brushy-st7" d="M414.2,394.7h1.3v3.8l3.6-3.8h1.6l-3.2,3.3l3.3,4.3h-1.6l-2.6-3.4l-1.2,1.2v2.2h-1.3V394.7z"/>
			<path class="fp-brushy-st7" d="M422.6,394.7h1.3v7.6h-1.3V394.7z"/>
		</g>
		<g class="fp-brushy-st6">
			<path class="fp-brushy-st7" d="M428.3,395.9h-2.4v-1.2h6.2v1.2h-2.4v6.3h-1.3V395.9z"/>
		</g>
		<g class="fp-brushy-st6">
			<path class="fp-brushy-st7" d="M433.1,398.5L433.1,398.5c0-2.2,1.6-3.9,3.9-3.9c1.4,0,2.2,0.5,3,1.2l-0.9,1c-0.6-0.6-1.3-0.9-2.1-0.9
				c-1.4,0-2.5,1.2-2.5,2.7v0c0,1.5,1.1,2.7,2.5,2.7c0.9,0,1.5-0.4,2.2-1l0.9,0.9c-0.8,0.8-1.7,1.3-3.1,1.3
				C434.7,402.4,433.1,400.7,433.1,398.5z"/>
			<path class="fp-brushy-st7" d="M441.9,394.7h1.3v3.2h3.6v-3.2h1.3v7.6h-1.3v-3.2h-3.6v3.2h-1.3V394.7z"/>
			<path class="fp-brushy-st7" d="M450.5,394.7h5.6v1.2h-4.3v2h3.8v1.2h-3.8v2h4.3v1.2h-5.7V394.7z"/>
			<path class="fp-brushy-st7" d="M458.2,394.7h1.2l4.1,5.2v-5.2h1.3v7.6h-1.1l-4.2-5.4v5.4h-1.3V394.7z"/>
		</g>
		<g class="fp-brushy-st6">
			<path class="fp-brushy-st7" d="M425.4,408.8c-0.3,0.3-0.6,0.5-1.1,0.5c-1,0-1.6-0.6-1.6-1.4v0c0-0.9,0.7-1.6,1.7-1.6c0.6,0,0.9,0.2,1.3,0.5
				c0.3,0.3,0.5,0.8,0.5,1.7v0c0,1.4-0.7,2.4-1.9,2.4c-0.6,0-1.1-0.2-1.4-0.5l0.4-0.6c0.3,0.3,0.6,0.4,1,0.4
				C425.1,410.2,425.3,409.4,425.4,408.8z M425.3,407.8L425.3,407.8c0-0.5-0.4-0.8-0.9-0.8c-0.6,0-0.9,0.4-0.9,0.8v0
				c0,0.5,0.4,0.8,0.9,0.8C425,408.6,425.3,408.3,425.3,407.8z"/>
			<path class="fp-brushy-st7" d="M427,407.9c0.4-0.1,0.6-0.3,0.6-0.6h-0.3v-0.9h0.9v0.8c0,0.7-0.3,1-1,1.1L427,407.9z"/>
			<path class="fp-brushy-st7" d="M432.8,408.6l0.8-1.1h0.8l-1.2,1.7l1.2,1.7h-0.8l-0.8-1.2l-0.8,1.2h-0.8l1.2-1.7l-1.2-1.7h0.8L432.8,408.6z"
				/>
			<path class="fp-brushy-st7" d="M438.3,407.2l-0.8,0.2l-0.2-0.6l1.2-0.4h0.5v4.5h-0.8V407.2z"/>
			<path class="fp-brushy-st7" d="M440.3,408.7L440.3,408.7c0-1.3,0.8-2.3,2-2.3c1.2,0,2,1,2,2.3v0c0,1.3-0.8,2.3-2,2.3
				C441.1,411,440.3,409.9,440.3,408.7z M443.4,408.7L443.4,408.7c0-0.9-0.5-1.6-1.2-1.6c-0.7,0-1.1,0.7-1.1,1.6v0
				c0,0.9,0.5,1.6,1.2,1.6S443.4,409.5,443.4,408.7z"/>
			<path class="fp-brushy-st7" d="M445.1,407.9c0.4-0.1,0.6-0.3,0.6-0.6h-0.3v-0.9h0.9v0.8c0,0.7-0.3,1-1,1.1L445.1,407.9z"/>
			<path class="fp-brushy-st7" d="M451.7,409.9h-2.3l-0.1-0.6l2.5-3h0.7v2.9h0.6v0.6h-0.6v1h-0.8V409.9z M451.7,409.2v-1.8l-1.5,1.8H451.7z"/>
			<path class="fp-brushy-st7" d="M453.9,407.9c0.4-0.1,0.6-0.3,0.6-0.6h-0.3v-0.9h0.9v0.8c0,0.7-0.3,1-1,1.1L453.9,407.9z M455.4,407.9
				c0.4-0.1,0.6-0.3,0.5-0.6h-0.3v-0.9h0.9v0.8c0,0.7-0.3,1-1,1.1L455.4,407.9z"/>
		</g>
		<g class="fp-brushy-st6">
			<path class="fp-brushy-st7" d="M95.9,419.3l-0.7,0.2l-0.1-0.5l1-0.3h0.5v3.8h-0.7V419.3z"/>
			<path class="fp-brushy-st7" d="M98.3,419.3l-0.7,0.2l-0.1-0.5l1-0.3h0.5v3.8h-0.7V419.3z"/>
			<path class="fp-brushy-st7" d="M99.9,419.9c0.3-0.1,0.5-0.2,0.5-0.5h-0.3v-0.7h0.7v0.6c0,0.6-0.3,0.9-0.8,0.9L99.9,419.9z"/>
			<path class="fp-brushy-st7" d="M103.4,421.9l1.3-1.1c0.5-0.4,0.7-0.7,0.7-1c0-0.4-0.3-0.6-0.6-0.6s-0.6,0.2-0.9,0.6l-0.5-0.4
				c0.4-0.5,0.7-0.8,1.4-0.8c0.7,0,1.3,0.5,1.3,1.1v0c0,0.6-0.3,0.9-1,1.5l-0.8,0.7h1.8v0.6h-2.7V421.9z"/>
			<path class="fp-brushy-st7" d="M106.9,419.9c0.3-0.1,0.5-0.2,0.5-0.5h-0.3v-0.7h0.7v0.6c0,0.6-0.3,0.9-0.8,0.9L106.9,419.9z M108.2,419.9
				c0.3-0.1,0.5-0.2,0.5-0.5h-0.3v-0.7h0.7v0.6c0,0.6-0.3,0.9-0.8,0.9L108.2,419.9z"/>
			<path class="fp-brushy-st7" d="M113.1,420.5l0.7-1h0.7l-1,1.4l1.1,1.5h-0.7l-0.7-1l-0.7,1h-0.7l1-1.5l-1-1.4h0.7L113.1,420.5z"/>
			<path class="fp-brushy-st7" d="M117.5,422.1c-0.3-0.3-0.5-0.7-0.5-1.4v0c0-1.2,0.6-2.1,1.6-2.1c0.5,0,0.8,0.2,1.2,0.4l-0.4,0.5
				c-0.3-0.2-0.5-0.3-0.8-0.3c-0.7,0-0.9,0.7-0.9,1.2c0.2-0.2,0.5-0.4,0.9-0.4c0.7,0,1.3,0.4,1.3,1.2v0c0,0.8-0.6,1.3-1.4,1.3
				C118.1,422.5,117.7,422.3,117.5,422.1z M119.3,421.2L119.3,421.2c0-0.4-0.3-0.7-0.8-0.7s-0.8,0.3-0.8,0.7v0
				c0,0.4,0.3,0.7,0.8,0.7S119.3,421.6,119.3,421.2z"/>
			<path class="fp-brushy-st7" d="M120.7,419.9c0.3-0.1,0.5-0.2,0.5-0.5h-0.3v-0.7h0.7v0.6c0,0.6-0.3,0.9-0.8,0.9L120.7,419.9z"/>
		</g>
		<g class="fp-brushy-st6">
			<path class="fp-brushy-st7" d="M97.7,410.3h2.4c0.6,0,1.1,0.2,1.4,0.5c0.2,0.2,0.4,0.5,0.4,0.9v0c0,0.6-0.4,1-0.8,1.2
				c0.6,0.2,1.1,0.6,1.1,1.3v0c0,0.9-0.8,1.5-2,1.5h-2.5V410.3z M100.9,411.8c0-0.4-0.3-0.7-0.9-0.7h-1.3v1.4h1.3
				C100.5,412.5,100.9,412.3,100.9,411.8L100.9,411.8z M100.1,413.3h-1.5v1.5h1.5c0.6,0,1-0.3,1-0.7v0
				C101.2,413.6,100.8,413.3,100.1,413.3z"/>
		</g>
		<g class="fp-brushy-st6">
			<path class="fp-brushy-st7" d="M105.3,410.3h0.9l2.3,5.3h-1l-0.5-1.3h-2.5l-0.5,1.3h-1L105.3,410.3z M106.7,413.5l-0.9-2.1l-0.9,2.1H106.7z
				"/>
		</g>
		<g class="fp-brushy-st6">
			<path class="fp-brushy-st7" d="M110.4,411.2h-1.7v-0.9h4.3v0.9h-1.7v4.4h-0.9V411.2z"/>
			<path class="fp-brushy-st7" d="M114.3,410.3h0.9v2.2h2.5v-2.2h0.9v5.3h-0.9v-2.2h-2.5v2.2h-0.9V410.3z"/>
		</g>
		<g class="fp-brushy-st6">
			<path class="fp-brushy-st7" d="M204.2,419.2h-1.9v-0.6h2.7v0.5l-1.7,3.3h-0.8L204.2,419.2z"/>
			<path class="fp-brushy-st7" d="M205.7,419.9c0.3-0.1,0.5-0.2,0.5-0.5h-0.3v-0.7h0.7v0.6c0,0.6-0.3,0.9-0.8,0.9L205.7,419.9z"/>
			<path class="fp-brushy-st7" d="M211.3,419.2h-1.9v-0.6h2.7v0.5l-1.7,3.3h-0.8L211.3,419.2z"/>
			<path class="fp-brushy-st7" d="M212.7,419.9c0.3-0.1,0.5-0.2,0.5-0.5h-0.3v-0.7h0.7v0.6c0,0.6-0.3,0.9-0.8,0.9L212.7,419.9z M214,419.9
				c0.3-0.1,0.5-0.2,0.5-0.5h-0.3v-0.7h0.7v0.6c0,0.6-0.3,0.9-0.8,0.9L214,419.9z"/>
			<path class="fp-brushy-st7" d="M218.9,420.5l0.7-1h0.7l-1,1.4l1.1,1.5h-0.7l-0.7-1l-0.7,1h-0.7l1-1.5l-1-1.4h0.7L218.9,420.5z"/>
			<path class="fp-brushy-st7" d="M222.7,421.9l0.4-0.5c0.3,0.3,0.6,0.5,1,0.5c0.5,0,0.8-0.3,0.8-0.7v0c0-0.4-0.3-0.6-0.8-0.6
				c-0.3,0-0.5,0.1-0.7,0.2l-0.4-0.3l0.1-1.9h2.3v0.6h-1.7l-0.1,0.9c0.2-0.1,0.3-0.1,0.6-0.1c0.7,0,1.3,0.4,1.3,1.2v0
				c0,0.8-0.6,1.3-1.4,1.3C223.5,422.5,223.1,422.2,222.7,421.9z"/>
			<path class="fp-brushy-st7" d="M226.3,419.9c0.3-0.1,0.5-0.2,0.5-0.5h-0.3v-0.7h0.7v0.6c0,0.6-0.3,0.9-0.8,0.9L226.3,419.9z"/>
			<path class="fp-brushy-st7" d="M229.8,421.8l0.5-0.4c0.3,0.3,0.6,0.5,1,0.5c0.4,0,0.7-0.2,0.7-0.6v0c0-0.4-0.3-0.6-0.9-0.6h-0.3l-0.1-0.4
				l1-1.1H230v-0.6h2.5v0.5l-1.1,1.1c0.6,0.1,1.1,0.4,1.1,1.1v0c0,0.7-0.5,1.2-1.3,1.2C230.6,422.5,230.1,422.2,229.8,421.8z"/>
			<path class="fp-brushy-st7" d="M233.4,419.9c0.3-0.1,0.5-0.2,0.5-0.5h-0.3v-0.7h0.7v0.6c0,0.6-0.3,0.9-0.8,0.9L233.4,419.9z M234.6,419.9
				c0.3-0.1,0.5-0.2,0.5-0.5h-0.3v-0.7h0.7v0.6c0,0.6-0.3,0.9-0.8,0.9L234.6,419.9z"/>
		</g>
		<g class="fp-brushy-st6">
			<path class="fp-brushy-st7" d="M208.2,410.3h2.4c0.6,0,1.1,0.2,1.4,0.5c0.2,0.2,0.4,0.5,0.4,0.9v0c0,0.6-0.4,1-0.8,1.2
				c0.6,0.2,1.1,0.6,1.1,1.3v0c0,0.9-0.8,1.5-2,1.5h-2.5V410.3z M211.3,411.8c0-0.4-0.3-0.7-0.9-0.7h-1.3v1.4h1.3
				C210.9,412.5,211.3,412.3,211.3,411.8L211.3,411.8z M210.5,413.3h-1.5v1.5h1.5c0.6,0,1-0.3,1-0.7v0
				C211.6,413.6,211.3,413.3,210.5,413.3z"/>
		</g>
		<g class="fp-brushy-st6">
			<path class="fp-brushy-st7" d="M215.8,410.3h0.9l2.3,5.3h-1l-0.5-1.3H215l-0.5,1.3h-1L215.8,410.3z M217.1,413.5l-0.9-2.1l-0.9,2.1H217.1z"
				/>
		</g>
		<g class="fp-brushy-st6">
			<path class="fp-brushy-st7" d="M220.8,411.2h-1.7v-0.9h4.3v0.9h-1.7v4.4h-0.9V411.2z"/>
			<path class="fp-brushy-st7" d="M224.8,410.3h0.9v2.2h2.5v-2.2h0.9v5.3h-0.9v-2.2h-2.5v2.2h-0.9V410.3z"/>
		</g>
		<g class="fp-brushy-st6">
			<path class="fp-brushy-st7" d="M302,433.6v-0.4h2V432h0.4v1.6H302z"/>
		</g>
		<g class="fp-brushy-st6">
			<path class="fp-brushy-st7" d="M302,430.7v-0.4l2.4-1v0.4l-0.6,0.2v1.1l0.6,0.2v0.4L302,430.7z M303.4,430.2l-0.9,0.4l0.9,0.4V430.2z"/>
		</g>
		<g class="fp-brushy-st6">
			<path class="fp-brushy-st7" d="M303.4,429H302v-0.4h1.3c0.4,0,0.7-0.2,0.7-0.6c0-0.3-0.2-0.6-0.7-0.6H302v-0.4h1.3c0.7,0,1.1,0.4,1.1,1
				C304.4,428.6,304.1,429,303.4,429z"/>
			<path class="fp-brushy-st7" d="M302,426.4v-0.4l1.6-1.2H302v-0.4h2.4v0.3l-1.7,1.2h1.7v0.4H302z"/>
			<path class="fp-brushy-st7" d="M302,423.8V423c0-0.7,0.5-1.2,1.2-1.2h0c0.7,0,1.2,0.5,1.2,1.2v0.8H302z M302.4,423.4h1.6V423
				c0-0.5-0.3-0.8-0.8-0.8h0c-0.5,0-0.8,0.3-0.8,0.8V423.4z"/>
		</g>
		<g class="fp-brushy-st6">
			<path class="fp-brushy-st7" d="M302,421.2v-1c0-0.3,0.1-0.5,0.2-0.6c0.1-0.1,0.3-0.2,0.5-0.2h0c0.4,0,0.6,0.2,0.7,0.5l0.9-0.6v0.5l-0.8,0.5
				v0.5h0.8v0.4H302z M303.2,420.2c0-0.3-0.2-0.5-0.4-0.5h0c-0.3,0-0.4,0.2-0.4,0.5v0.6h0.8V420.2z"/>
		</g>
		<g class="fp-brushy-st6">
			<path class="fp-brushy-st7" d="M303.4,418.2l-1.4,0.9v-0.5l1-0.6l-1-0.6v-0.4l1.4,0.9h0.9v0.4H303.4z"/>
		</g>
		<g class="fp-brushy-st6">
			<path class="fp-brushy-st7" d="M196.1,372.7v1.1c0,1-0.7,1.6-1.5,1.6h0c-0.9,0-1.5-0.7-1.5-1.6v-1.1H196.1z M195.7,373.2h-2.1v0.6
				c0,0.6,0.4,1.1,1,1.1h0c0.6,0,1-0.4,1-1.1V373.2z"/>
			<path class="fp-brushy-st7" d="M196.1,376.2v2.2h-0.5v-1.7h-0.8v1.5h-0.5v-1.5h-0.8v1.7h-0.5v-2.3H196.1z"/>
			<path class="fp-brushy-st7" d="M193.6,379.1l0.4,0.3c-0.3,0.3-0.4,0.6-0.4,1c0,0.3,0.2,0.5,0.4,0.5h0c0.2,0,0.3-0.1,0.5-0.7
				c0.2-0.6,0.3-1,0.9-1h0c0.5,0,0.9,0.4,0.9,1c0,0.4-0.1,0.8-0.4,1.1l-0.4-0.3c0.2-0.3,0.3-0.5,0.3-0.8c0-0.3-0.2-0.5-0.4-0.5h0
				c-0.2,0-0.3,0.1-0.5,0.7c-0.2,0.6-0.4,1-0.9,1h0c-0.6,0-0.9-0.4-0.9-1.1C193.1,379.9,193.2,379.5,193.6,379.1z"/>
			<path class="fp-brushy-st7" d="M196.1,382.3v0.5h-1.5l1.5,1.4v0.7l-1.3-1.3l-1.7,1.3v-0.6l1.4-1l-0.5-0.5h-0.9v-0.5H196.1z"/>
		</g>
		<g class="fp-brushy-st6">
			<path class="fp-brushy-st7" d="M92.7,347.9L92.7,347.9c0-0.5,0.3-0.8,0.7-0.9c-0.3-0.2-0.6-0.4-0.6-0.8v0c0-0.6,0.6-1,1.3-1
				c0.8,0,1.3,0.4,1.3,1v0c0,0.4-0.2,0.7-0.6,0.8c0.4,0.2,0.7,0.5,0.7,0.9v0c0,0.7-0.6,1.1-1.4,1.1C93.3,349,92.7,348.6,92.7,347.9z
				 M94.9,347.9L94.9,347.9c0-0.4-0.3-0.6-0.8-0.6c-0.4,0-0.8,0.2-0.8,0.6v0c0,0.3,0.3,0.6,0.8,0.6
				C94.6,348.5,94.9,348.2,94.9,347.9z M94.8,346.2L94.8,346.2c0-0.3-0.3-0.5-0.7-0.5c-0.4,0-0.7,0.2-0.7,0.5v0
				c0,0.3,0.3,0.6,0.7,0.6C94.5,346.8,94.8,346.5,94.8,346.2z"/>
			<path class="fp-brushy-st7" d="M96.3,346.4c0.3-0.1,0.5-0.2,0.5-0.5h-0.3v-0.7h0.7v0.6c0,0.6-0.3,0.9-0.8,0.9L96.3,346.4z"/>
			<path class="fp-brushy-st7" d="M102.1,347.2c-0.2,0.3-0.5,0.4-0.9,0.4c-0.8,0-1.3-0.5-1.3-1.2v0c0-0.7,0.6-1.3,1.4-1.3
				c0.5,0,0.8,0.1,1.1,0.4c0.3,0.3,0.5,0.7,0.5,1.4v0c0,1.2-0.6,2.1-1.6,2.1c-0.5,0-0.9-0.2-1.2-0.5l0.4-0.5
				c0.3,0.2,0.5,0.4,0.9,0.4C101.9,348.4,102.1,347.7,102.1,347.2z M102.1,346.4L102.1,346.4c0-0.4-0.3-0.7-0.8-0.7
				c-0.5,0-0.8,0.3-0.8,0.7v0c0,0.4,0.3,0.7,0.8,0.7C101.8,347.1,102.1,346.8,102.1,346.4z"/>
			<path class="fp-brushy-st7" d="M103.5,346.4c0.3-0.1,0.5-0.2,0.5-0.5h-0.3v-0.7h0.7v0.6c0,0.6-0.3,0.9-0.8,0.9L103.5,346.4z M104.8,346.4
				c0.3-0.1,0.5-0.2,0.5-0.5H105v-0.7h0.7v0.6c0,0.6-0.3,0.9-0.8,0.9L104.8,346.4z"/>
			<path class="fp-brushy-st7" d="M109.7,347.1l0.7-1h0.7l-1,1.4l1.1,1.5h-0.7l-0.7-1l-0.7,1h-0.7l1-1.5l-1-1.4h0.7L109.7,347.1z"/>
			<path class="fp-brushy-st7" d="M114.1,348.6c-0.3-0.3-0.5-0.7-0.5-1.4v0c0-1.2,0.6-2.1,1.6-2.1c0.5,0,0.8,0.2,1.2,0.4L116,346
				c-0.3-0.2-0.5-0.3-0.8-0.3c-0.7,0-0.9,0.7-0.9,1.2c0.2-0.2,0.5-0.4,0.9-0.4c0.7,0,1.3,0.4,1.3,1.2v0c0,0.8-0.6,1.3-1.4,1.3
				C114.7,349,114.3,348.9,114.1,348.6z M115.9,347.8L115.9,347.8c0-0.4-0.3-0.7-0.8-0.7s-0.8,0.3-0.8,0.7v0c0,0.4,0.3,0.7,0.8,0.7
				S115.9,348.2,115.9,347.8z"/>
			<path class="fp-brushy-st7" d="M117.3,346.4c0.3-0.1,0.5-0.2,0.5-0.5h-0.3v-0.7h0.7v0.6c0,0.6-0.3,0.9-0.8,0.9L117.3,346.4z"/>
		</g>
		<g class="fp-brushy-st6">
			<path class="fp-brushy-st7" d="M88.9,337.4L88.9,337.4c0-1.5,1.1-2.8,2.7-2.8c1,0,1.6,0.3,2.1,0.8l-0.6,0.7c-0.4-0.4-0.9-0.7-1.5-0.7
				c-1,0-1.8,0.8-1.8,1.9v0c0,1,0.7,1.9,1.8,1.9c0.7,0,1.1-0.3,1.5-0.7l0.6,0.6c-0.6,0.6-1.2,0.9-2.2,0.9
				C90.1,340.1,88.9,338.9,88.9,337.4z"/>
		</g>
		<g class="fp-brushy-st6">
			<path class="fp-brushy-st7" d="M95.1,334.7H96v4.5h2.8v0.8h-3.7V334.7z"/>
		</g>
		<g class="fp-brushy-st6">
			<path class="fp-brushy-st7" d="M99.5,337.4L99.5,337.4c0-1.5,1.2-2.8,2.8-2.8c1.6,0,2.8,1.2,2.8,2.7v0c0,1.5-1.2,2.7-2.8,2.7
				S99.5,338.8,99.5,337.4z M104.1,337.4L104.1,337.4c0-1-0.8-1.9-1.8-1.9s-1.8,0.8-1.8,1.9v0c0,1,0.8,1.9,1.8,1.9
				S104.1,338.4,104.1,337.4z"/>
		</g>
		<g class="fp-brushy-st6">
			<path class="fp-brushy-st7" d="M106.1,339.2l0.6-0.7c0.5,0.4,1,0.7,1.7,0.7c0.6,0,0.9-0.3,0.9-0.7v0c0-0.4-0.2-0.6-1.2-0.8
				c-1.1-0.3-1.8-0.6-1.8-1.6v0c0-0.9,0.8-1.5,1.8-1.5c0.8,0,1.4,0.2,1.9,0.7l-0.5,0.7c-0.5-0.4-1-0.5-1.4-0.5
				c-0.5,0-0.9,0.3-0.9,0.6v0c0,0.4,0.2,0.6,1.3,0.8c1.1,0.3,1.7,0.7,1.7,1.6v0c0,1-0.8,1.6-1.9,1.6
				C107.5,340.1,106.8,339.8,106.1,339.2z"/>
			<path class="fp-brushy-st7" d="M111.6,334.7h3.9v0.8h-3v1.4h2.7v0.8h-2.7v1.4h3v0.8h-4V334.7z"/>
			<path class="fp-brushy-st7" d="M118.3,335.5h-1.7v-0.9h4.3v0.9h-1.7v4.4h-0.9V335.5z"/>
		</g>
		<g class="fp-brushy-st6">
			<path class="fp-brushy-st7" d="M315.5,350.4h-1.9v-0.6h2.7v0.5l-1.7,3.3h-0.8L315.5,350.4z"/>
			<path class="fp-brushy-st7" d="M316.9,351.1c0.3-0.1,0.5-0.2,0.5-0.5h-0.3v-0.7h0.7v0.6c0,0.6-0.3,0.9-0.8,0.9L316.9,351.1z"/>
			<path class="fp-brushy-st7" d="M321.2,350.5l-0.7,0.2l-0.1-0.5l1-0.3h0.5v3.8h-0.7V350.5z"/>
			<path class="fp-brushy-st7" d="M322.9,351.8L322.9,351.8c0-1.1,0.7-2,1.7-2c1,0,1.6,0.9,1.6,2v0c0,1.1-0.7,2-1.7,2
				C323.6,353.7,322.9,352.8,322.9,351.8z M325.5,351.8L325.5,351.8c0-0.8-0.4-1.4-1-1.4s-1,0.6-1,1.3v0c0,0.7,0.4,1.4,1,1.4
				C325.2,353.1,325.5,352.5,325.5,351.8z"/>
			<path class="fp-brushy-st7" d="M327,351.1c0.3-0.1,0.5-0.2,0.5-0.5h-0.3v-0.7h0.7v0.6c0,0.6-0.3,0.9-0.8,0.9L327,351.1z M328.2,351.1
				c0.3-0.1,0.5-0.2,0.5-0.5h-0.3v-0.7h0.7v0.6c0,0.6-0.3,0.9-0.8,0.9L328.2,351.1z"/>
			<path class="fp-brushy-st7" d="M333.1,351.7l0.7-1h0.7l-1,1.4l1.1,1.5h-0.7l-0.7-1l-0.7,1h-0.7l1-1.5l-1-1.4h0.7L333.1,351.7z"/>
			<path class="fp-brushy-st7" d="M337,353.1l1.3-1.1c0.5-0.4,0.7-0.7,0.7-1c0-0.4-0.3-0.6-0.6-0.6s-0.6,0.2-0.9,0.6l-0.5-0.4
				c0.4-0.5,0.7-0.8,1.4-0.8c0.7,0,1.3,0.5,1.3,1.1v0c0,0.6-0.3,0.9-1,1.5l-0.8,0.7h1.8v0.6H337V353.1z"/>
			<path class="fp-brushy-st7" d="M340.5,351.1c0.3-0.1,0.5-0.2,0.5-0.5h-0.3v-0.7h0.7v0.6c0,0.6-0.3,0.9-0.8,0.9L340.5,351.1z"/>
			<path class="fp-brushy-st7" d="M346,352.8h-1.9l-0.1-0.5l2.1-2.5h0.6v2.4h0.5v0.5h-0.5v0.9H346V352.8z M346,352.2v-1.5l-1.2,1.5H346z"/>
			<path class="fp-brushy-st7" d="M347.9,351.1c0.3-0.1,0.5-0.2,0.5-0.5h-0.3v-0.7h0.7v0.6c0,0.6-0.3,0.9-0.8,0.9L347.9,351.1z M349.2,351.1
				c0.3-0.1,0.5-0.2,0.5-0.5h-0.3v-0.7h0.7v0.6c0,0.6-0.3,0.9-0.8,0.9L349.2,351.1z"/>
		</g>
		<g class="fp-brushy-st6">
			<path class="fp-brushy-st7" d="M315.3,343.7L315.3,343.7c0-1.5,1.1-2.8,2.7-2.8c1,0,1.6,0.3,2.1,0.8l-0.6,0.7c-0.4-0.4-0.9-0.7-1.5-0.7
				c-1,0-1.8,0.8-1.8,1.9v0c0,1,0.7,1.9,1.8,1.9c0.7,0,1.1-0.3,1.5-0.7l0.6,0.6c-0.6,0.6-1.2,0.9-2.2,0.9
				C316.4,346.4,315.3,345.2,315.3,343.7z"/>
		</g>
		<g class="fp-brushy-st6">
			<path class="fp-brushy-st7" d="M321.4,341h0.9v4.5h2.8v0.8h-3.7V341z"/>
		</g>
		<g class="fp-brushy-st6">
			<path class="fp-brushy-st7" d="M325.9,343.7L325.9,343.7c0-1.5,1.2-2.8,2.8-2.8c1.6,0,2.8,1.2,2.8,2.7v0c0,1.5-1.2,2.7-2.8,2.7
				C327,346.4,325.9,345.2,325.9,343.7z M330.4,343.7L330.4,343.7c0-1-0.8-1.9-1.8-1.9c-1.1,0-1.8,0.8-1.8,1.9v0
				c0,1,0.8,1.9,1.8,1.9C329.7,345.5,330.4,344.7,330.4,343.7z"/>
		</g>
		<g class="fp-brushy-st6">
			<path class="fp-brushy-st7" d="M332.5,345.5l0.6-0.7c0.5,0.4,1,0.7,1.7,0.7c0.6,0,0.9-0.3,0.9-0.7v0c0-0.4-0.2-0.6-1.2-0.8
				c-1.1-0.3-1.8-0.6-1.8-1.6v0c0-0.9,0.8-1.5,1.8-1.5c0.8,0,1.4,0.2,1.9,0.7l-0.5,0.7c-0.5-0.4-1-0.5-1.4-0.5
				c-0.5,0-0.9,0.3-0.9,0.6v0c0,0.4,0.2,0.6,1.3,0.8c1.1,0.3,1.7,0.7,1.7,1.6v0c0,1-0.8,1.6-1.9,1.6
				C333.9,346.4,333.1,346.1,332.5,345.5z"/>
			<path class="fp-brushy-st7" d="M338,341h3.9v0.8h-3v1.4h2.7v0.8h-2.7v1.4h3v0.8h-4V341z"/>
			<path class="fp-brushy-st7" d="M344.7,341.9H343V341h4.3v0.9h-1.7v4.4h-0.9V341.9z"/>
		</g>
		<rect x="0.5" y="0.5" class="fp-brushy-st27" width="557.3" height="557.3"/>
	</g>
</g>
</svg>
