<?xml version="1.0" encoding="utf-8"?>
<!-- Generator: Adobe Illustrator 21.1.0, SVG Export Plug-In . SVG Version: 6.00 Build 0)  -->
<svg version="1.1" id="Layer_1" xmlns="http://www.w3.org/2000/svg" xmlns:xlink="http://www.w3.org/1999/xlink" x="0px" y="0px"
	 viewBox="0 0 558.3 558.3" style="enable-background:new 0 0 558.3 558.3;" xml:space="preserve">
<style type="text/css">
	.fp-chattooga-st0{fill:none;stroke:#A6A8AB;stroke-width:0.27;stroke-miterlimit:10;}
	.fp-chattooga-st1{fill:#E4E9E4;}
	.fp-chattooga-st2{fill:#C8D0C9;stroke:#32553B;stroke-width:0.24;stroke-miterlimit:10;}
	.fp-chattooga-st3{fill:#C8D0C9;stroke:#32553B;stroke-width:0.21;stroke-miterlimit:10;}
	.fp-chattooga-st4{fill:none;stroke:#32553B;stroke-width:4.33;stroke-linejoin:round;}
	.fp-chattooga-st5{fill:#32553B;}
	.fp-chattooga-st6{fill:none;stroke:#32553B;stroke-width:7.59;stroke-linejoin:round;}
	.fp-chattooga-st7{fill:none;stroke:#32553B;stroke-width:4.33;stroke-miterlimit:10;}
	.fp-chattooga-st8{fill:#FFFFFF;stroke:#62A044;stroke-width:0.3;stroke-miterlimit:10;}
	.fp-chattooga-st9{fill:none;stroke:#799900;stroke-width:0.3;stroke-miterlimit:10;}
	.fp-chattooga-st10{fill:#F5F7F5;}
	.fp-chattooga-st11{fill:none;stroke:#E4E9E4;stroke-width:7.59;stroke-linejoin:round;}
	.fp-chattooga-st12{fill:#E4E9E4;stroke:#32553B;stroke-width:0.24;stroke-miterlimit:10;}
	.fp-chattooga-st13{fill:none;stroke:#32553B;stroke-width:0.24;stroke-miterlimit:10;}
	.fp-chattooga-st14{fill:#C8D0C9;stroke:#32553B;stroke-width:0.27;stroke-miterlimit:10;}
	.fp-chattooga-st15{fill:none;stroke:#32553B;stroke-width:0.84;stroke-miterlimit:10;}
	.fp-chattooga-st16{fill:#FFFFFF;stroke:#62A044;stroke-width:0.13;stroke-miterlimit:10;}
	.fp-chattooga-st17{fill:none;stroke:#799900;stroke-width:0.13;stroke-miterlimit:10;}
	.fp-chattooga-st18{enable-background:new    ;}
	.fp-chattooga-st19{fill:#C8D0C9;stroke:#32553B;stroke-width:0.2;stroke-miterlimit:10;}
	.fp-chattooga-st20{fill:none;stroke:#32553B;stroke-width:0.21;stroke-miterlimit:10;}
	.fp-chattooga-st21{fill:#E4E9E4;stroke:#32553B;stroke-width:0.27;stroke-miterlimit:10;}
	.fp-chattooga-st22{fill:none;stroke:#32553B;stroke-width:0.27;stroke-miterlimit:10;}
	.fp-chattooga-st23{fill:none;stroke:#799900;stroke-width:0.16;stroke-miterlimit:10;}
	.fp-chattooga-st24{fill:#FFFFFF;stroke:#62A044;stroke-width:0.16;stroke-miterlimit:10;}
	.fp-chattooga-st25{fill:none;stroke:#F5F7F5;stroke-miterlimit:10;}
</style>
<title>fp_chattooga</title>
<g id="Layer_2">
	<g id="DESIGN">
		<line class="fp-chattooga-st0" x1="112.1" y1="157.1" x2="366.9" y2="157.1"/>
		<line class="fp-chattooga-st0" x1="112.1" y1="128.6" x2="338.1" y2="128.6"/>
		<line class="fp-chattooga-st0" x1="112.1" y1="142.8" x2="352.5" y2="142.8"/>
		<line class="fp-chattooga-st0" x1="112.1" y1="171.3" x2="382.5" y2="171.3"/>
		<line class="fp-chattooga-st0" x1="112.1" y1="185.5" x2="396.1" y2="185.5"/>
		<line class="fp-chattooga-st0" x1="112.1" y1="199.8" x2="410.1" y2="199.8"/>
		<line class="fp-chattooga-st0" x1="112.1" y1="214" x2="422.3" y2="214"/>
		<line class="fp-chattooga-st0" x1="112.1" y1="228.2" x2="422.8" y2="228.2"/>
		<line class="fp-chattooga-st0" x1="112.1" y1="242.4" x2="422.8" y2="242.4"/>
		<line class="fp-chattooga-st0" x1="112.1" y1="256.7" x2="422.8" y2="256.7"/>
		<line class="fp-chattooga-st0" x1="112.1" y1="270.9" x2="422.8" y2="270.9"/>
		<line class="fp-chattooga-st0" x1="112.1" y1="285.1" x2="422.8" y2="285.1"/>
		<line class="fp-chattooga-st0" x1="112.1" y1="299.3" x2="422.8" y2="299.3"/>
		<line class="fp-chattooga-st0" x1="112.1" y1="327.8" x2="422.8" y2="327.8"/>
		<line class="fp-chattooga-st0" x1="112.1" y1="342" x2="422.8" y2="342"/>
		<line class="fp-chattooga-st0" x1="112.1" y1="356.2" x2="422.8" y2="356.2"/>
		<line class="fp-chattooga-st0" x1="112.1" y1="370.5" x2="422.8" y2="370.5"/>
		<line class="fp-chattooga-st0" x1="112.1" y1="384.7" x2="422.8" y2="384.7"/>
		<line class="fp-chattooga-st0" x1="112.1" y1="398.9" x2="422.8" y2="398.9"/>
		<line class="fp-chattooga-st0" x1="112.1" y1="413.2" x2="422.8" y2="413.2"/>
		<line class="fp-chattooga-st0" x1="112.1" y1="427.4" x2="422.8" y2="427.4"/>
		<line class="fp-chattooga-st0" x1="112.1" y1="441.6" x2="422.8" y2="441.6"/>
		<polygon class="fp-chattooga-st1" points="316.6,335 316.6,313.4 289.6,286.4 241.8,334.2 266.1,359 266.3,359 266.3,394.9 316.6,394.9 
			316.6,448.8 422.3,448.8 422.3,335 		"/>
		<polygon class="fp-chattooga-st1" points="224.2,221.4 224.2,121.1 112.1,121.1 112.1,222.2 112.1,228.5 112.1,303.5 145.3,303.5 199.1,249.5 
			209.5,258.5 235.4,232.6 		"/>
		<rect x="255.5" y="430.6" class="fp-chattooga-st2" width="44.6" height="21"/>
		<polyline class="fp-chattooga-st3" points="231.2,448.1 231.2,443.9 251.1,443.9 251.1,448.1 		"/>
		<path class="fp-chattooga-st3" d="M236.8,434.2c0.2,0.4,0.3,0.8,0.3,1.3v2.5c0,0.4-0.3,0.8-0.7,0.8c0,0-0.1,0-0.1,0h9.7c-0.4,0-0.8-0.3-0.8-0.7
			c0,0,0-0.1,0-0.1v-2.5c0-0.4,0.1-0.9,0.3-1.3"/>
		<ellipse class="fp-chattooga-st3" cx="241.1" cy="429.4" rx="5.6" ry="7.6"/>
		<rect x="232.6" y="438.8" class="fp-chattooga-st3" width="17" height="5.5"/>
		<path class="fp-chattooga-st2" d="M272.4,432.6h10.9c1.2,0,2.2,1,2.2,2.2v7c0,1.2-1,2.2-2.2,2.2h-10.9c-1.2,0-2.2-1-2.2-2.2v-7
			C270.2,433.6,271.2,432.6,272.4,432.6z"/>
		<circle class="fp-chattooga-st2" cx="277.9" cy="440" r="1.3"/>
		
			<rect x="167.1" y="268.1" transform="matrix(0.7071 -0.7071 0.7071 0.7071 -142.2825 210.9819)" class="fp-chattooga-st2" width="33" height="18.3"/>
		<polyline class="fp-chattooga-st3" points="162.6,285.9 165.6,288.9 151.5,303 148.5,300 		"/>
		<path class="fp-chattooga-st3" d="M168.5,299.7c-0.4-0.2-0.8-0.4-1.1-0.7l-1.8-1.8c-0.3-0.3-0.3-0.7-0.1-1.1c0,0,0,0,0.1-0.1l-6.9,6.9
			c0.3-0.3,0.7-0.3,1.1-0.1c0,0,0,0,0.1,0.1l1.8,1.8c0.3,0.3,0.6,0.7,0.7,1.1"/>
		
			<ellipse transform="matrix(0.7071 -0.7071 0.7071 0.7071 -167.0264 208.9848)" class="fp-chattooga-st3" cx="168.8" cy="306.1" rx="5.6" ry="7.6"/>
		
			<rect x="151.7" y="294.8" transform="matrix(0.7071 -0.7071 0.7071 0.7071 -163.4779 200.4202)" class="fp-chattooga-st3" width="17" height="5.5"/>
		<path class="fp-chattooga-st2" d="M189,281.9l-7.7,7.7c-0.9,0.9-2.2,0.9-3.1,0l-4.9-4.9c-0.9-0.9-0.9-2.2,0-3.1l7.7-7.7c0.9-0.9,2.2-0.9,3.1,0
			l4.9,4.9C189.9,279.6,189.9,281,189,281.9z"/>
		
			<ellipse transform="matrix(0.7071 -0.7071 0.7071 0.7071 -145.6495 209.4677)" class="fp-chattooga-st2" cx="180" cy="280.5" rx="1.3" ry="1.3"/>
		<polyline class="fp-chattooga-st4" points="330.6,121.1 330.6,109.3 446.2,109.3 446.2,212.4 422.9,212.4 		"/>
		<rect x="198" y="395.3" class="fp-chattooga-st2" width="29.4" height="47.9"/>
		<path class="fp-chattooga-st2" d="M213,398.9c0,0-11.4-0.2-11.4,4.4v34.2c0,0-0.2,3.6,3.4,3.6h16.1c3.5,0,3.4-3.6,3.4-3.6v-34.2
			C224.4,398.7,213,398.9,213,398.9L213,398.9z"/>
		<path class="fp-chattooga-st2" d="M213.1,439.5c0.8,0,1.5,0.3,2.1,0.8l-2,2.3H213l-2-2.3C211.6,439.7,212.3,439.5,213.1,439.5"/>
		<rect x="196" y="441.7" class="fp-chattooga-st5" width="32.9" height="7.6"/>
		<rect x="114.6" y="304.1" class="fp-chattooga-st2" width="29.4" height="47.9"/>
		<path class="fp-chattooga-st2" d="M129.6,307.7c0,0-11.4-0.2-11.4,4.4v34.2c0,0-0.2,3.6,3.4,3.6h16.1c3.5,0,3.4-3.6,3.4-3.6V312
			C141.1,307.5,129.7,307.6,129.6,307.7L129.6,307.7z"/>
		<path class="fp-chattooga-st2" d="M129.7,348.2c0.8,0,1.5,0.3,2.1,0.8l-2,2.3h-0.1l-2-2.3C128.3,348.5,129,348.2,129.7,348.2"/>
		<rect x="112.6" y="350.5" class="fp-chattooga-st5" width="32.8" height="7.6"/>
		<polyline class="fp-chattooga-st6" points="131.5,121.1 112.1,121.1 112.1,448.8 150.7,448.8 		"/>
		<line class="fp-chattooga-st6" x1="240.3" y1="121.1" x2="206.3" y2="121.1"/>
		<path class="fp-chattooga-st6" d="M353.4,142.9l-21.7-21.7h-16.6"/>
		<path class="fp-chattooga-st6" d="M393.5,183l-3-3"/>
		<path class="fp-chattooga-st6" d="M422.3,231.5v-19.7l-8.9-8.9"/>
		<polyline class="fp-chattooga-st7" points="224.2,121.7 224.2,220.9 263.5,260.2 		"/>
		<line class="fp-chattooga-st7" x1="266.3" y1="358.7" x2="266.3" y2="362.6"/>
		<line class="fp-chattooga-st7" x1="266.3" y1="390.1" x2="266.3" y2="395"/>
		<line class="fp-chattooga-st7" x1="284.2" y1="395" x2="197.6" y2="395"/>
		<polyline class="fp-chattooga-st7" points="312.4,395 316.6,395 316.6,449.4 		"/>
		<polyline class="fp-chattooga-st7" points="312,358.7 316.6,358.7 316.6,313.4 289.6,286.4 241.8,334.2 266.3,358.7 283.8,358.7 		"/>
		<line class="fp-chattooga-st7" x1="231.7" y1="236.2" x2="235.6" y2="232.4"/>
		<line class="fp-chattooga-st7" x1="212.1" y1="255.8" x2="208.9" y2="259.1"/>
		<polyline class="fp-chattooga-st7" points="170.2,228.5 178.5,228.5 213.7,263.8 		"/>
		<line class="fp-chattooga-st7" x1="112.1" y1="228.5" x2="143.7" y2="228.5"/>
		<polyline class="fp-chattooga-st7" points="233.4,283.5 236.2,286.2 163.8,358.6 112.1,358.6 		"/>
		<line class="fp-chattooga-st7" x1="146.2" y1="362.7" x2="146.2" y2="358.5"/>
		<polyline class="fp-chattooga-st7" points="197.6,448.8 197.6,377.6 215,360.2 218.9,364.1 		"/>
		<line class="fp-chattooga-st7" x1="199.4" y1="375.8" x2="218.7" y2="395.1"/>
		<line class="fp-chattooga-st7" x1="233.1" y1="378.2" x2="250" y2="395.2"/>
		<line class="fp-chattooga-st7" x1="237.1" y1="382.2" x2="224.1" y2="395.2"/>
		
			<rect x="170.8" y="348.2" transform="matrix(0.7071 -0.7071 0.7071 0.7071 -196.2036 226.7832)" class="fp-chattooga-st5" width="9.7" height="4.1"/>
		
			<rect x="290.5" y="282.4" transform="matrix(0.7071 -0.7071 0.7071 0.7071 -117.3994 290.9902)" class="fp-chattooga-st5" width="4.1" height="9.7"/>
		
			<rect x="194.2" y="371.6" transform="matrix(0.7071 -0.7071 0.7071 0.7071 -205.9 250.1997)" class="fp-chattooga-st5" width="9.7" height="4.1"/>
		<polyline class="fp-chattooga-st7" points="112.1,303.5 145,303.5 199.1,249.5 		"/>
		<line class="fp-chattooga-st7" x1="146.2" y1="410.6" x2="146.2" y2="417.6"/>
		<line class="fp-chattooga-st7" x1="146.2" y1="414" x2="112.2" y2="414"/>
		
			<rect x="413.1" y="189" transform="matrix(0.7071 -0.7071 0.7071 0.7071 -9.1406 357.3176)" class="fp-chattooga-st8" width="27.2" height="1.4"/>
		<path class="fp-chattooga-st9" d="M435.9,179.6c-10.7-10.7-28.1-10.7-38.8,0"/>
		<line class="fp-chattooga-st9" x1="432.6" y1="182.8" x2="433.6" y2="183.8"/>
		<line class="fp-chattooga-st9" x1="419.9" y1="195.6" x2="420.9" y2="196.6"/>
		<line class="fp-chattooga-st9" x1="433.1" y1="183.3" x2="420.4" y2="196.1"/>
		<rect x="287.2" y="187.8" class="fp-chattooga-st10" width="51" height="23.8"/>
		<line class="fp-chattooga-st11" x1="370.8" y1="160.2" x2="353.4" y2="142.9"/>
		
			<rect x="361.8" y="139.3" transform="matrix(0.7071 -0.7071 0.7071 0.7071 -1.1017 300.4309)" class="fp-chattooga-st5" width="0.6" height="24.6"/>
		<rect x="325.9" y="238.1" class="fp-chattooga-st12" width="62.7" height="34.2"/>
		<path class="fp-chattooga-st6" d="M373.1,162.6l-2.4-2.4"/>
		
			<rect x="259.1" y="250.9" transform="matrix(0.7071 -0.7071 0.7071 0.7071 -104.3645 259.5228)" class="fp-chattooga-st5" width="4.1" height="9.7"/>
		<line class="fp-chattooga-st13" x1="325.8" y1="247.3" x2="388.4" y2="247.3"/>
		<path class="fp-chattooga-st14" d="M374.8,258.3v9.7c0,1.3-1,2.3-2.3,2.3H355c-1.3,0-2.3-1-2.3-2.3v-9.7c0-1.3,1-2.3,2.3-2.3h17.5
			C373.7,256,374.8,257.1,374.8,258.3z"/>
		<circle class="fp-chattooga-st14" cx="363.8" cy="263.1" r="1.2"/>
		<line class="fp-chattooga-st11" x1="131.5" y1="121.1" x2="206.3" y2="121.1"/>
		<rect x="131.5" y="120.8" class="fp-chattooga-st5" width="74.8" height="0.7"/>
		<rect x="131.5" y="118.3" class="fp-chattooga-st5" width="74.8" height="0.7"/>
		<rect x="131.5" y="123.3" class="fp-chattooga-st5" width="74.8" height="0.7"/>
		<rect x="190.6" y="118.6" class="fp-chattooga-st5" width="0.7" height="5.1"/>
		<rect x="146.6" y="118.6" class="fp-chattooga-st5" width="0.7" height="5.1"/>
		<line class="fp-chattooga-st11" x1="240.3" y1="121.1" x2="315.1" y2="121.1"/>
		<rect x="240.3" y="120.8" class="fp-chattooga-st5" width="74.8" height="0.7"/>
		<rect x="240.3" y="118.3" class="fp-chattooga-st5" width="74.8" height="0.7"/>
		<rect x="240.3" y="123.3" class="fp-chattooga-st5" width="74.8" height="0.7"/>
		<rect x="299.4" y="118.6" class="fp-chattooga-st5" width="0.7" height="5.1"/>
		<rect x="255.3" y="118.6" class="fp-chattooga-st5" width="0.7" height="5.1"/>
		<line class="fp-chattooga-st11" x1="422.3" y1="231.5" x2="422.3" y2="306.3"/>
		<rect x="421.9" y="231.5" class="fp-chattooga-st5" width="0.7" height="74.8"/>
		<rect x="424.5" y="231.5" class="fp-chattooga-st5" width="0.7" height="74.8"/>
		<rect x="419.4" y="231.5" class="fp-chattooga-st5" width="0.7" height="74.8"/>
		<rect x="419.8" y="290.6" class="fp-chattooga-st5" width="5.1" height="0.7"/>
		<rect x="419.8" y="246.6" class="fp-chattooga-st5" width="5.1" height="0.7"/>
		
			<rect x="201.6" y="231.7" transform="matrix(0.7071 -0.7071 0.7071 0.7071 -113.5132 214.546)" class="fp-chattooga-st8" width="1.3" height="25.2"/>
		<path class="fp-chattooga-st9" d="M193.8,234.9c9.9-9.9,25.9-9.9,35.9,0"/>
		<rect x="169.1" y="231.4" class="fp-chattooga-st8" width="1.3" height="25.2"/>
		<path class="fp-chattooga-st9" d="M169.1,256.6c-14,0-25.3-11.4-25.4-25.3"/>
		<rect x="269" y="363" class="fp-chattooga-st8" width="25.1" height="1.3"/>
		<path class="fp-chattooga-st9" d="M294.1,364.3c0,14-11.4,25.3-25.3,25.4"/>
		<rect x="310.1" y="330.9" class="fp-chattooga-st8" width="1.3" height="25.1"/>
		<path class="fp-chattooga-st9" d="M310.1,330.9c-14,0-25.3,11.4-25.4,25.3"/>
		
			<rect x="231.5" y="368.9" transform="matrix(0.7071 -0.7071 0.7071 0.7071 -190.7643 278.2571)" class="fp-chattooga-st8" width="18.1" height="0.9"/>
		<path class="fp-chattooga-st9" d="M246.6,362.7c-7.1-7.1-18.7-7.1-25.8,0"/>
		<rect x="310.1" y="396.9" class="fp-chattooga-st8" width="1.3" height="25.1"/>
		<path class="fp-chattooga-st9" d="M310.1,422c-14,0-25.3-11.4-25.4-25.3"/>
		<rect x="148.2" y="363.4" class="fp-chattooga-st8" width="22" height="1.1"/>
		<path class="fp-chattooga-st9" d="M170.2,364.5c0,12.2-9.9,22.2-22.2,22.2"/>
		<rect x="148.2" y="408.9" class="fp-chattooga-st8" width="22" height="1.1"/>
		<path class="fp-chattooga-st9" d="M170.2,408.9c0-12.2-9.9-22.2-22.2-22.2"/>
		<path class="fp-chattooga-st9" d="M179.5,444.6c0-4.4,0.2-11.3-8.2-19.6"/>
		
			<rect x="147.6" y="434.7" transform="matrix(0.7071 -0.7071 0.7071 0.7071 -260.5218 241.9106)" class="fp-chattooga-st8" width="28.3" height="1.5"/>
		<path class="fp-chattooga-st9" d="M148.1,417.8c4.2,0,10.7-0.2,18.5,7.7"/>
		
			<rect x="143.3" y="433.8" transform="matrix(0.7071 -0.7071 0.7071 0.7071 -261.3681 238.0268)" class="fp-chattooga-st8" width="26.6" height="1.4"/>
		<polyline class="fp-chattooga-st15" points="300.3,449.4 300.3,430.9 301.7,430.9 		"/>
		<polyline class="fp-chattooga-st15" points="314.6,449.4 314.6,430.9 313.2,430.9 		"/>
		
			<rect x="308.7" y="420" transform="matrix(0.7071 -0.7071 0.7071 0.7071 -210.7237 343.2579)" class="fp-chattooga-st16" width="0.7" height="11.9"/>
		<path class="fp-chattooga-st17" d="M301.5,429.9c0.1-2.9,1.2-5.7,3.1-7.9"/>
		<polyline class="fp-chattooga-st15" points="198.9,251.5 210.4,262.9 209.5,263.8 		"/>
		<polyline class="fp-chattooga-st15" points="190.1,260.3 201.5,271.8 202.4,270.9 		"/>
		<rect x="209.8" y="264.1" class="fp-chattooga-st16" width="0.6" height="10.4"/>
		<path class="fp-chattooga-st17" d="M203,271.6c1.8,1.8,4.2,2.8,6.8,3"/>
		
			<rect x="208.7" y="292.8" transform="matrix(0.7071 -0.7071 0.7071 0.7071 -142.663 242.418)" class="fp-chattooga-st8" width="25.1" height="1.3"/>
		<path class="fp-chattooga-st9" d="M211.9,301.9c-9.9-9.9-9.9-25.9,0-35.9"/>
		<rect x="326.8" y="277.1" class="fp-chattooga-st10" width="60.8" height="15.9"/>
		<rect x="338.5" y="289.6" class="fp-chattooga-st10" width="37.5" height="13.7"/>
		<g class="fp-chattooga-st18">
			<path class="fp-chattooga-st5" d="M138.8,164.8h3.4c0.9,0,1.5,0.2,2,0.7c0.3,0.3,0.5,0.7,0.5,1.3v0c0,0.9-0.5,1.4-1.1,1.7
				c0.9,0.3,1.5,0.8,1.5,1.8v0c0,1.4-1.1,2.1-2.8,2.1h-3.5V164.8z M143.3,167c0-0.6-0.5-1-1.3-1h-1.9v2h1.8
				C142.8,168,143.3,167.7,143.3,167L143.3,167z M142.2,169.1h-2.1v2.1h2.2c0.9,0,1.5-0.4,1.5-1v0
				C143.8,169.5,143.2,169.1,142.2,169.1z"/>
			<path class="fp-chattooga-st5" d="M147,164.8h5.6v1.2h-4.3v2h3.8v1.2h-3.8v2h4.3v1.2H147V164.8z"/>
			<path class="fp-chattooga-st5" d="M154.7,164.8h2.8c2.4,0,4,1.6,4,3.8v0c0,2.1-1.6,3.8-4,3.8h-2.8V164.8z M156.1,166v5.2h1.5
				c1.6,0,2.6-1.1,2.6-2.6v0c0-1.5-1-2.6-2.6-2.6H156.1z"/>
			<path class="fp-chattooga-st5" d="M163.6,164.8h3.4c1,0,1.7,0.3,2.2,0.8c0.4,0.4,0.6,1,0.6,1.6v0c0,1.2-0.7,2-1.8,2.3l2,2.9h-1.6l-1.9-2.6H165
				v2.6h-1.3V164.8z M166.9,168.6c1,0,1.6-0.5,1.6-1.3v0c0-0.8-0.6-1.3-1.6-1.3H165v2.5H166.9z"/>
			<path class="fp-chattooga-st5" d="M171.6,168.6L171.6,168.6c0-2.2,1.6-3.9,4-3.9s4,1.8,4,3.9v0c0,2.1-1.6,3.9-4,3.9
				C173.2,172.5,171.6,170.8,171.6,168.6z M178.1,168.6L178.1,168.6c0-1.5-1.1-2.7-2.6-2.7c-1.5,0-2.6,1.2-2.6,2.7v0
				c0,1.5,1.1,2.7,2.6,2.7S178.1,170.1,178.1,168.6z"/>
			<path class="fp-chattooga-st5" d="M181.2,168.6L181.2,168.6c0-2.2,1.6-3.9,4-3.9s4,1.8,4,3.9v0c0,2.1-1.6,3.9-4,3.9
				C182.8,172.5,181.2,170.8,181.2,168.6z M187.8,168.6L187.8,168.6c0-1.5-1.1-2.7-2.6-2.7c-1.5,0-2.6,1.2-2.6,2.7v0
				c0,1.5,1.1,2.7,2.6,2.7S187.8,170.1,187.8,168.6z"/>
			<path class="fp-chattooga-st5" d="M191.2,164.8h1.4l2.3,3.6l2.3-3.6h1.4v7.6h-1.3V167l-2.4,3.6h0l-2.4-3.6v5.4h-1.3V164.8z"/>
		</g>
		<g class="fp-chattooga-st18">
			<path class="fp-chattooga-st5" d="M148.1,180.7l-0.8,0.2l-0.2-0.6l1.2-0.4h0.5v4.5h-0.8V180.7z"/>
			<path class="fp-chattooga-st5" d="M150.9,180.7l-0.8,0.2l-0.2-0.6l1.2-0.4h0.5v4.5h-0.8V180.7z"/>
			<path class="fp-chattooga-st5" d="M152.8,181.4c0.4-0.1,0.6-0.3,0.6-0.6H153v-0.9h0.9v0.8c0,0.7-0.3,1-1,1.1L152.8,181.4z"/>
			<path class="fp-chattooga-st5" d="M159.7,182.3c-0.3,0.3-0.6,0.5-1.1,0.5c-1,0-1.6-0.6-1.6-1.4v0c0-0.9,0.7-1.6,1.7-1.6c0.6,0,0.9,0.2,1.3,0.5
				c0.3,0.3,0.5,0.8,0.5,1.7v0c0,1.4-0.7,2.4-1.9,2.4c-0.6,0-1.1-0.2-1.4-0.5l0.4-0.6c0.3,0.3,0.6,0.4,1,0.4
				C159.4,183.8,159.7,182.9,159.7,182.3z M159.7,181.4L159.7,181.4c0-0.5-0.4-0.8-0.9-0.8c-0.6,0-0.9,0.4-0.9,0.8v0
				c0,0.5,0.4,0.8,0.9,0.8C159.4,182.2,159.7,181.8,159.7,181.4z"/>
			<path class="fp-chattooga-st5" d="M161.4,181.4c0.4-0.1,0.6-0.3,0.6-0.6h-0.3v-0.9h0.9v0.8c0,0.7-0.3,1-1,1.1L161.4,181.4z M162.9,181.4
				c0.4-0.1,0.6-0.3,0.5-0.6h-0.3v-0.9h0.9v0.8c0,0.7-0.3,1-1,1.1L162.9,181.4z"/>
			<path class="fp-chattooga-st5" d="M168.7,182.2l0.8-1.1h0.8l-1.2,1.7l1.2,1.7h-0.8l-0.8-1.2l-0.8,1.2H167l1.2-1.7l-1.2-1.7h0.8L168.7,182.2z"
				/>
			<path class="fp-chattooga-st5" d="M174.2,180.7l-0.8,0.2l-0.2-0.6l1.2-0.4h0.5v4.5h-0.8V180.7z"/>
			<path class="fp-chattooga-st5" d="M177,180.7l-0.8,0.2l-0.2-0.6l1.2-0.4h0.5v4.5H177V180.7z"/>
			<path class="fp-chattooga-st5" d="M178.9,181.4c0.4-0.1,0.6-0.3,0.6-0.6h-0.3v-0.9h0.9v0.8c0,0.7-0.3,1-1,1.1L178.9,181.4z"/>
			<path class="fp-chattooga-st5" d="M185.4,183.4h-2.3l-0.1-0.6l2.5-3h0.7v2.9h0.6v0.6h-0.6v1h-0.8V183.4z M185.4,182.8V181l-1.5,1.8H185.4z"/>
			<path class="fp-chattooga-st5" d="M187.7,181.4c0.4-0.1,0.6-0.3,0.6-0.6h-0.3v-0.9h0.9v0.8c0,0.7-0.3,1-1,1.1L187.7,181.4z M189.2,181.4
				c0.4-0.1,0.6-0.3,0.5-0.6h-0.3v-0.9h0.9v0.8c0,0.7-0.3,1-1,1.1L189.2,181.4z"/>
		</g>
		<g class="fp-chattooga-st18">
			<path class="fp-chattooga-st5" d="M339.7,382.1h3.4c0.9,0,1.5,0.2,2,0.7c0.3,0.3,0.5,0.7,0.5,1.3v0c0,0.9-0.5,1.4-1.1,1.7
				c0.9,0.3,1.5,0.8,1.5,1.8v0c0,1.4-1.1,2.1-2.8,2.1h-3.5V382.1z M344.2,384.2c0-0.6-0.5-1-1.3-1H341v2h1.8
				C343.7,385.3,344.2,384.9,344.2,384.2L344.2,384.2z M343.1,386.4H341v2.1h2.2c0.9,0,1.5-0.4,1.5-1v0
				C344.7,386.8,344.2,386.4,343.1,386.4z"/>
			<path class="fp-chattooga-st5" d="M347.9,382.1h5.6v1.2h-4.3v2h3.8v1.2h-3.8v2h4.3v1.2h-5.7V382.1z"/>
			<path class="fp-chattooga-st5" d="M355.6,382.1h2.8c2.4,0,4,1.6,4,3.8v0c0,2.1-1.6,3.8-4,3.8h-2.8V382.1z M357,383.3v5.2h1.5
				c1.6,0,2.6-1.1,2.6-2.6v0c0-1.5-1-2.6-2.6-2.6H357z"/>
			<path class="fp-chattooga-st5" d="M364.6,382.1h3.4c1,0,1.7,0.3,2.2,0.8c0.4,0.4,0.6,1,0.6,1.6v0c0,1.2-0.7,2-1.8,2.3l2,2.9h-1.6l-1.9-2.6
				h-1.7v2.6h-1.3V382.1z M367.8,385.8c1,0,1.6-0.5,1.6-1.3v0c0-0.8-0.6-1.3-1.6-1.3h-1.9v2.5H367.8z"/>
			<path class="fp-chattooga-st5" d="M372.5,385.9L372.5,385.9c0-2.2,1.6-3.9,4-3.9s4,1.8,4,3.9v0c0,2.1-1.6,3.9-4,3.9S372.5,388,372.5,385.9z
				 M379,385.9L379,385.9c0-1.5-1.1-2.7-2.6-2.7s-2.6,1.2-2.6,2.7v0c0,1.5,1.1,2.7,2.6,2.7S379,387.4,379,385.9z"/>
			<path class="fp-chattooga-st5" d="M382.1,385.9L382.1,385.9c0-2.2,1.6-3.9,4-3.9s4,1.8,4,3.9v0c0,2.1-1.6,3.9-4,3.9S382.1,388,382.1,385.9z
				 M388.7,385.9L388.7,385.9c0-1.5-1.1-2.7-2.6-2.7s-2.6,1.2-2.6,2.7v0c0,1.5,1.1,2.7,2.6,2.7S388.7,387.4,388.7,385.9z"/>
			<path class="fp-chattooga-st5" d="M392.1,382.1h1.4l2.3,3.6l2.3-3.6h1.4v7.6h-1.3v-5.4l-2.4,3.6h0l-2.4-3.6v5.4h-1.3V382.1z"/>
		</g>
		<g class="fp-chattooga-st18">
			<path class="fp-chattooga-st5" d="M346.5,397.9l-0.8,0.2l-0.2-0.6l1.2-0.4h0.5v4.5h-0.8V397.9z"/>
			<path class="fp-chattooga-st5" d="M348.5,399.4L348.5,399.4c0-1.3,0.8-2.3,2-2.3c1.2,0,2,1,2,2.3v0c0,1.3-0.8,2.3-2,2.3
				C349.3,401.7,348.5,400.7,348.5,399.4z M351.7,399.4L351.7,399.4c0-0.9-0.5-1.6-1.2-1.6c-0.7,0-1.1,0.7-1.1,1.6v0
				c0,0.9,0.5,1.6,1.2,1.6S351.7,400.3,351.7,399.4z"/>
			<path class="fp-chattooga-st5" d="M353.3,398.6c0.4-0.1,0.6-0.3,0.6-0.6h-0.3v-0.9h0.9v0.8c0,0.7-0.3,1-1,1.1L353.3,398.6z"/>
			<path class="fp-chattooga-st5" d="M358.4,397.9l-0.8,0.2l-0.2-0.6l1.2-0.4h0.5v4.5h-0.8V397.9z"/>
			<path class="fp-chattooga-st5" d="M360.4,399.4L360.4,399.4c0-1.3,0.8-2.3,2-2.3c1.2,0,2,1,2,2.3v0c0,1.3-0.8,2.3-2,2.3
				S360.4,400.7,360.4,399.4z M363.5,399.4L363.5,399.4c0-0.9-0.5-1.6-1.1-1.6s-1.1,0.7-1.1,1.6v0c0,0.9,0.4,1.6,1.1,1.6
				S363.5,400.3,363.5,399.4z"/>
			<path class="fp-chattooga-st5" d="M365.2,398.6c0.4-0.1,0.6-0.3,0.6-0.6h-0.3v-0.9h0.9v0.8c0,0.7-0.3,1-1,1.1L365.2,398.6z M366.7,398.6
				c0.4-0.1,0.6-0.3,0.5-0.6h-0.3v-0.9h0.9v0.8c0,0.7-0.3,1-1,1.1L366.7,398.6z"/>
			<path class="fp-chattooga-st5" d="M372.5,399.4l0.8-1.1h0.8l-1.2,1.7l1.2,1.7h-0.8l-0.8-1.2l-0.8,1.2h-0.8l1.2-1.7l-1.2-1.7h0.8L372.5,399.4z"
				/>
			<path class="fp-chattooga-st5" d="M378,397.9l-0.8,0.2l-0.2-0.6l1.2-0.4h0.5v4.5H378V397.9z"/>
			<path class="fp-chattooga-st5" d="M379.9,401l1.5-1.3c0.6-0.5,0.8-0.8,0.8-1.2c0-0.4-0.3-0.7-0.7-0.7s-0.7,0.2-1,0.7L380,398
				c0.4-0.6,0.9-0.9,1.7-0.9c0.9,0,1.5,0.5,1.5,1.3v0c0,0.7-0.4,1.1-1.2,1.7l-0.9,0.8h2.1v0.7h-3.3V401z"/>
			<path class="fp-chattooga-st5" d="M384.1,398.6c0.4-0.1,0.6-0.3,0.6-0.6h-0.3v-0.9h0.9v0.8c0,0.7-0.3,1-1,1.1L384.1,398.6z"/>
			<path class="fp-chattooga-st5" d="M389.1,397.9l-0.8,0.2l-0.2-0.6l1.2-0.4h0.5v4.5h-0.8V397.9z"/>
			<path class="fp-chattooga-st5" d="M391.1,398.6c0.4-0.1,0.6-0.3,0.6-0.6h-0.3v-0.9h0.9v0.8c0,0.7-0.3,1-1,1.1L391.1,398.6z M392.5,398.6
				c0.4-0.1,0.6-0.3,0.5-0.6h-0.3v-0.9h0.9v0.8c0,0.7-0.3,1-1,1.1L392.5,398.6z"/>
		</g>
		<g class="fp-chattooga-st18">
			<path class="fp-chattooga-st5" d="M293.6,190.2h1.3v6.4h4v1.2h-5.3V190.2z"/>
			<path class="fp-chattooga-st5" d="M300.8,190.2h1.3v7.6h-1.3V190.2z"/>
			<path class="fp-chattooga-st5" d="M304,190.2h1.5l2.3,5.8l2.3-5.8h1.4l-3.1,7.6h-1.2L304,190.2z"/>
			<path class="fp-chattooga-st5" d="M313.3,190.2h1.3v7.6h-1.3V190.2z"/>
			<path class="fp-chattooga-st5" d="M317.1,190.2h1.2l4.1,5.2v-5.2h1.3v7.6h-1.1l-4.2-5.4v5.4h-1.3V190.2z"/>
			<path class="fp-chattooga-st5" d="M325.7,194L325.7,194c0-2.1,1.6-3.9,3.9-3.9c1.3,0,2.1,0.4,2.9,1l-0.8,1c-0.6-0.5-1.2-0.8-2.1-0.8
				c-1.4,0-2.5,1.2-2.5,2.7v0c0,1.6,1,2.7,2.6,2.7c0.7,0,1.4-0.2,1.8-0.6v-1.4h-1.9v-1.2h3.2v3.2c-0.7,0.6-1.8,1.2-3.2,1.2
				C327.3,197.9,325.7,196.2,325.7,194z"/>
		</g>
		<g class="fp-chattooga-st18">
			<path class="fp-chattooga-st5" d="M299.4,205.9l1.5-1.3c0.6-0.5,0.8-0.8,0.8-1.2c0-0.4-0.3-0.7-0.7-0.7s-0.7,0.2-1,0.7l-0.6-0.4
				c0.4-0.6,0.9-0.9,1.7-0.9c0.9,0,1.5,0.5,1.5,1.3v0c0,0.7-0.4,1.1-1.2,1.7l-0.9,0.8h2.1v0.7h-3.3V205.9z"/>
			<path class="fp-chattooga-st5" d="M303.6,205.8l0.6-0.5c0.3,0.4,0.7,0.6,1.2,0.6c0.4,0,0.8-0.3,0.8-0.7v0c0-0.4-0.4-0.7-1-0.7h-0.4l-0.1-0.5
				l1.2-1.3h-1.9V202h3v0.6l-1.3,1.3c0.7,0.1,1.3,0.4,1.3,1.3v0c0,0.8-0.6,1.4-1.6,1.4C304.5,206.6,303.9,206.2,303.6,205.8z"/>
			<path class="fp-chattooga-st5" d="M307.8,203.5c0.4-0.1,0.6-0.3,0.6-0.6H308V202h0.9v0.8c0,0.7-0.3,1-1,1.1L307.8,203.5z"/>
			<path class="fp-chattooga-st5" d="M313.6,204.2l0.8-1.1h0.8l-1.2,1.7l1.2,1.7h-0.8l-0.8-1.2l-0.8,1.2h-0.8l1.2-1.7l-1.2-1.7h0.8L313.6,204.2z"
				/>
			<path class="fp-chattooga-st5" d="M319,202.8l-0.8,0.2l-0.2-0.6l1.2-0.4h0.5v4.5H319V202.8z"/>
			<path class="fp-chattooga-st5" d="M321,204.2L321,204.2c0-1.3,0.8-2.3,2-2.3c1.2,0,2,1,2,2.3v0c0,1.3-0.8,2.3-2,2.3S321,205.5,321,204.2z
				 M324.1,204.2L324.1,204.2c0-0.9-0.5-1.6-1.1-1.6s-1.1,0.7-1.1,1.6v0c0,0.9,0.4,1.6,1.1,1.6S324.1,205.1,324.1,204.2z"/>
			<path class="fp-chattooga-st5" d="M325.8,203.5c0.4-0.1,0.6-0.3,0.6-0.6H326V202h0.9v0.8c0,0.7-0.3,1-1,1.1L325.8,203.5z"/>
		</g>
		<g class="fp-chattooga-st18">
			<path class="fp-chattooga-st5" d="M374.4,135.2h3.4c0.9,0,1.5,0.2,2,0.7c0.3,0.3,0.5,0.7,0.5,1.3v0c0,0.9-0.5,1.4-1.1,1.7
				c0.9,0.3,1.5,0.8,1.5,1.8v0c0,1.4-1.1,2.1-2.8,2.1h-3.5V135.2z M378.9,137.4c0-0.6-0.5-1-1.3-1h-1.9v2h1.8
				C378.4,138.4,378.9,138.1,378.9,137.4L378.9,137.4z M377.8,139.5h-2.1v2.1h2.2c0.9,0,1.5-0.4,1.5-1v0
				C379.4,139.9,378.8,139.5,377.8,139.5z"/>
			<path class="fp-chattooga-st5" d="M385.3,135.2h1.2l3.3,7.6h-1.4l-0.8-1.8h-3.6l-0.8,1.8H382L385.3,135.2z M387.2,139.8l-1.3-3l-1.3,3H387.2z"
				/>
		</g>
		<g class="fp-chattooga-st18">
			<path class="fp-chattooga-st5" d="M391.6,135.2h1.3v6.4h4v1.2h-5.3V135.2z"/>
		</g>
		<g class="fp-chattooga-st18">
			<path class="fp-chattooga-st5" d="M398,139L398,139c0-2.2,1.6-3.9,3.9-3.9c1.4,0,2.2,0.5,3,1.2l-0.9,1c-0.6-0.6-1.3-0.9-2.1-0.9
				c-1.4,0-2.5,1.2-2.5,2.7v0c0,1.5,1.1,2.7,2.5,2.7c0.9,0,1.5-0.4,2.2-1l0.9,0.9c-0.8,0.8-1.7,1.3-3.1,1.3
				C399.6,142.9,398,141.2,398,139z"/>
		</g>
		<g class="fp-chattooga-st18">
			<path class="fp-chattooga-st5" d="M406.2,139L406.2,139c0-2.2,1.6-3.9,4-3.9s4,1.8,4,3.9v0c0,2.1-1.6,3.9-4,3.9
				C407.8,142.9,406.2,141.2,406.2,139z M412.7,139L412.7,139c0-1.5-1.1-2.7-2.6-2.7c-1.5,0-2.6,1.2-2.6,2.7v0
				c0,1.5,1.1,2.7,2.6,2.7S412.7,140.5,412.7,139z"/>
			<path class="fp-chattooga-st5" d="M416.2,135.2h1.2l4.1,5.2v-5.2h1.3v7.6h-1.1l-4.2-5.4v5.4h-1.3V135.2z"/>
			<path class="fp-chattooga-st5" d="M427.4,139.8l-3-4.6h1.6l2.1,3.3l2.1-3.3h1.5l-3,4.6v3h-1.3V139.8z"/>
		</g>
		<g class="fp-chattooga-st18">
			<path class="fp-chattooga-st5" d="M388.9,151.1l-0.8,0.2l-0.2-0.6l1.2-0.4h0.5v4.5h-0.8V151.1z"/>
			<path class="fp-chattooga-st5" d="M390.9,152.6L390.9,152.6c0-1.3,0.8-2.3,2-2.3c1.2,0,2,1,2,2.3v0c0,1.3-0.8,2.3-2,2.3
				S390.9,153.8,390.9,152.6z M394,152.6L394,152.6c0-0.9-0.5-1.6-1.1-1.6s-1.1,0.7-1.1,1.6v0c0,0.9,0.4,1.6,1.1,1.6
				S394,153.4,394,152.6z"/>
			<path class="fp-chattooga-st5" d="M395.7,151.8c0.4-0.1,0.6-0.3,0.6-0.6h-0.3v-0.9h0.9v0.8c0,0.7-0.3,1-1,1.1L395.7,151.8z"/>
			<path class="fp-chattooga-st5" d="M401.5,152.5l0.8-1.1h0.8l-1.2,1.7l1.2,1.7h-0.8l-0.8-1.2l-0.8,1.2h-0.8l1.2-1.7l-1.2-1.7h0.8L401.5,152.5z"
				/>
			<path class="fp-chattooga-st5" d="M406.9,151.1l-0.8,0.2l-0.2-0.6l1.2-0.4h0.5v4.5h-0.8V151.1z"/>
			<path class="fp-chattooga-st5" d="M409,152.6L409,152.6c0-1.3,0.8-2.3,2-2.3c1.2,0,2,1,2,2.3v0c0,1.3-0.8,2.3-2,2.3S409,153.8,409,152.6z
				 M412.1,152.6L412.1,152.6c0-0.9-0.5-1.6-1.1-1.6s-1.1,0.7-1.1,1.6v0c0,0.9,0.4,1.6,1.1,1.6S412.1,153.4,412.1,152.6z"/>
			<path class="fp-chattooga-st5" d="M413.8,151.8c0.4-0.1,0.6-0.3,0.6-0.6H414v-0.9h0.9v0.8c0,0.7-0.3,1-1,1.1L413.8,151.8z"/>
		</g>
		<g class="fp-chattooga-st18">
			<path class="fp-chattooga-st5" d="M332.1,281.1h1.3v3.8l3.6-3.8h1.6l-3.2,3.3l3.3,4.3h-1.6l-2.6-3.4l-1.2,1.2v2.2h-1.3V281.1z"/>
			<path class="fp-chattooga-st5" d="M340.4,281.1h1.3v7.6h-1.3V281.1z"/>
		</g>
		<g class="fp-chattooga-st18">
			<path class="fp-chattooga-st5" d="M346.1,282.3h-2.4v-1.2h6.2v1.2h-2.4v6.3h-1.3V282.3z"/>
		</g>
		<g class="fp-chattooga-st18">
			<path class="fp-chattooga-st5" d="M350.9,284.9L350.9,284.9c0-2.2,1.6-3.9,3.9-3.9c1.4,0,2.2,0.5,3,1.2l-0.9,1c-0.6-0.6-1.3-0.9-2.1-0.9
				c-1.4,0-2.5,1.2-2.5,2.7v0c0,1.5,1.1,2.7,2.5,2.7c0.9,0,1.5-0.4,2.2-1l0.9,0.9c-0.8,0.8-1.7,1.3-3.1,1.3
				C352.6,288.8,350.9,287.1,350.9,284.9z"/>
			<path class="fp-chattooga-st5" d="M359.7,281.1h1.3v3.2h3.6v-3.2h1.3v7.6h-1.3v-3.2H361v3.2h-1.3V281.1z"/>
			<path class="fp-chattooga-st5" d="M368.4,281.1h5.6v1.2h-4.3v2h3.8v1.2h-3.8v2h4.3v1.2h-5.7V281.1z"/>
			<path class="fp-chattooga-st5" d="M376.1,281.1h1.2l4.1,5.2v-5.2h1.3v7.6h-1.1l-4.2-5.4v5.4h-1.3V281.1z"/>
		</g>
		<g class="fp-chattooga-st18">
			<path class="fp-chattooga-st5" d="M343.7,300l1.5-1.3c0.6-0.5,0.8-0.8,0.8-1.2c0-0.4-0.3-0.7-0.7-0.7s-0.7,0.2-1,0.7l-0.6-0.4
				c0.4-0.6,0.9-0.9,1.7-0.9c0.9,0,1.5,0.5,1.5,1.3v0c0,0.7-0.4,1.1-1.2,1.7l-0.9,0.8h2.1v0.7h-3.2V300z"/>
			<path class="fp-chattooga-st5" d="M347.8,299.9l0.6-0.5c0.3,0.4,0.7,0.6,1.2,0.6c0.4,0,0.8-0.3,0.8-0.7v0c0-0.4-0.4-0.7-1-0.7h-0.4l-0.1-0.5
				l1.2-1.3h-1.9v-0.7h3v0.6l-1.3,1.3c0.7,0.1,1.3,0.4,1.3,1.3v0c0,0.8-0.6,1.4-1.6,1.4C348.8,300.7,348.2,300.4,347.8,299.9z"/>
			<path class="fp-chattooga-st5" d="M352,297.6c0.4-0.1,0.6-0.3,0.6-0.6h-0.3v-0.9h0.9v0.8c0,0.7-0.3,1-1,1.1L352,297.6z"/>
			<path class="fp-chattooga-st5" d="M357.8,298.4l0.8-1.1h0.8l-1.2,1.7l1.2,1.7h-0.8l-0.8-1.2l-0.8,1.2h-0.8l1.2-1.7l-1.2-1.7h0.8L357.8,298.4z"
				/>
			<path class="fp-chattooga-st5" d="M363.3,296.9l-0.8,0.2l-0.2-0.6l1.2-0.4h0.5v4.5h-0.8V296.9z"/>
			<path class="fp-chattooga-st5" d="M365.3,298.4L365.3,298.4c0-1.3,0.8-2.3,2-2.3c1.2,0,2,1,2,2.3v0c0,1.3-0.8,2.3-2,2.3
				C366.1,300.7,365.3,299.7,365.3,298.4z M368.4,298.4L368.4,298.4c0-0.9-0.5-1.6-1.2-1.6c-0.7,0-1.1,0.7-1.1,1.6v0
				c0,0.9,0.5,1.6,1.2,1.6S368.4,299.3,368.4,298.4z"/>
			<path class="fp-chattooga-st5" d="M370.1,297.6c0.4-0.1,0.6-0.3,0.6-0.6h-0.3v-0.9h0.9v0.8c0,0.7-0.3,1-1,1.1L370.1,297.6z"/>
		</g>
		<circle class="fp-chattooga-st19" cx="131.4" cy="431.1" r="11.6"/>
		<g class="fp-chattooga-st18">
			<path class="fp-chattooga-st5" d="M124.1,429.2h0.7v1.5h1.8v-1.5h0.7v3.7h-0.7v-1.6h-1.8v1.6h-0.7V429.2z"/>
		</g>
		<g class="fp-chattooga-st18">
			<path class="fp-chattooga-st5" d="M128,429.2h0.7l1.1,2.9l1.1-2.9h0.7l-1.5,3.8h-0.6L128,429.2z"/>
		</g>
		<g class="fp-chattooga-st18">
			<path class="fp-chattooga-st5" d="M133.3,429.2h0.6l1.6,3.8h-0.7l-0.4-0.9h-1.8l-0.4,0.9h-0.7L133.3,429.2z M134.3,431.5l-0.6-1.5l-0.6,1.5
				H134.3z"/>
		</g>
		<g class="fp-chattooga-st18">
			<path class="fp-chattooga-st5" d="M136,431.1L136,431.1c0-1.1,0.8-1.9,1.9-1.9c0.7,0,1.1,0.2,1.5,0.6l-0.4,0.5c-0.3-0.3-0.6-0.5-1-0.5
				c-0.7,0-1.2,0.6-1.2,1.3v0c0,0.7,0.5,1.3,1.2,1.3c0.5,0,0.8-0.2,1.1-0.5l0.4,0.4c-0.4,0.4-0.8,0.7-1.5,0.7
				C136.8,433,136,432.2,136,431.1z"/>
		</g>
		<rect x="117.8" y="386.9" class="fp-chattooga-st3" width="23.9" height="21.5"/>
		<line class="fp-chattooga-st20" x1="120.4" y1="408.5" x2="120.4" y2="386.9"/>
		<rect x="117.8" y="364.2" class="fp-chattooga-st3" width="23.9" height="21.5"/>
		<line class="fp-chattooga-st20" x1="120.4" y1="385.8" x2="120.4" y2="364.3"/>
		<g class="fp-chattooga-st18">
			<path class="fp-chattooga-st5" d="M215.4,377.8L215.4,377.8c0-0.7,0.5-1.2,1.1-1.2c0.4,0,0.7,0.2,0.9,0.4l-0.3,0.3c-0.2-0.2-0.4-0.3-0.6-0.3
				c-0.4,0-0.7,0.4-0.7,0.8v0c0,0.5,0.3,0.8,0.7,0.8c0.3,0,0.4-0.1,0.6-0.3l0.3,0.3c-0.2,0.3-0.5,0.4-0.9,0.4
				C215.9,379,215.4,378.5,215.4,377.8z"/>
		</g>
		<g class="fp-chattooga-st18">
			<path class="fp-chattooga-st5" d="M217.8,377.8L217.8,377.8c0-0.7,0.5-1.2,1.2-1.2s1.2,0.5,1.2,1.2v0c0,0.7-0.5,1.2-1.2,1.2
				S217.8,378.5,217.8,377.8z M219.7,377.8L219.7,377.8c0-0.5-0.3-0.8-0.8-0.8s-0.7,0.4-0.7,0.8v0c0,0.5,0.3,0.8,0.8,0.8
				S219.7,378.3,219.7,377.8z"/>
		</g>
		<g class="fp-chattooga-st18">
			<path class="fp-chattooga-st5" d="M221.3,376.6h0.4l1,2.4h-0.4l-0.2-0.6H221l-0.2,0.6h-0.4L221.3,376.6z M221.9,378.1l-0.4-0.9l-0.4,0.9H221.9
				z"/>
		</g>
		<g class="fp-chattooga-st18">
			<path class="fp-chattooga-st5" d="M223.4,377h-0.7v-0.4h1.8v0.4h-0.7v2h-0.4V377z"/>
		</g>
		<g class="fp-chattooga-st18">
			<path class="fp-chattooga-st5" d="M253.1,417.4l-0.7,0.2l-0.1-0.5l1-0.3h0.5v3.8h-0.7V417.4z"/>
			<path class="fp-chattooga-st5" d="M254.8,420l1.3-1.1c0.5-0.4,0.7-0.7,0.7-1c0-0.4-0.3-0.6-0.6-0.6s-0.6,0.2-0.9,0.6l-0.5-0.4
				c0.4-0.5,0.7-0.8,1.4-0.8c0.7,0,1.3,0.5,1.3,1.1v0c0,0.6-0.3,0.9-1,1.5l-0.8,0.7h1.8v0.6h-2.7V420z"/>
			<path class="fp-chattooga-st5" d="M258.3,418c0.3-0.1,0.5-0.2,0.5-0.5h-0.3v-0.7h0.7v0.6c0,0.6-0.3,0.9-0.8,0.9L258.3,418z"/>
			<path class="fp-chattooga-st5" d="M263.2,418.7l0.7-1h0.7l-1,1.4l1.1,1.5h-0.7l-0.7-1l-0.7,1h-0.7l1-1.5l-1-1.4h0.7L263.2,418.7z"/>
			<path class="fp-chattooga-st5" d="M267,420l0.4-0.5c0.3,0.3,0.6,0.5,1,0.5c0.5,0,0.8-0.3,0.8-0.7v0c0-0.4-0.3-0.6-0.8-0.6
				c-0.3,0-0.5,0.1-0.7,0.2l-0.4-0.3l0.1-1.9h2.3v0.6H268l-0.1,0.9c0.2-0.1,0.3-0.1,0.6-0.1c0.7,0,1.3,0.4,1.3,1.2v0
				c0,0.8-0.6,1.3-1.4,1.3C267.9,420.6,267.4,420.4,267,420z"/>
			<path class="fp-chattooga-st5" d="M270.6,418c0.3-0.1,0.5-0.2,0.5-0.5h-0.3v-0.7h0.7v0.6c0,0.6-0.3,0.9-0.8,0.9L270.6,418z"/>
			<path class="fp-chattooga-st5" d="M276.5,418.8c-0.2,0.3-0.5,0.4-0.9,0.4c-0.8,0-1.3-0.5-1.3-1.2v0c0-0.7,0.6-1.3,1.4-1.3
				c0.5,0,0.8,0.1,1.1,0.4c0.3,0.3,0.5,0.7,0.5,1.4v0c0,1.2-0.6,2.1-1.6,2.1c-0.5,0-0.9-0.2-1.2-0.5l0.4-0.5
				c0.3,0.2,0.5,0.4,0.9,0.4C276.2,420,276.4,419.3,276.5,418.8z M276.4,418L276.4,418c0-0.4-0.3-0.7-0.8-0.7
				c-0.5,0-0.8,0.3-0.8,0.7v0c0,0.4,0.3,0.7,0.8,0.7C276.1,418.7,276.4,418.4,276.4,418z"/>
			<path class="fp-chattooga-st5" d="M277.9,418c0.3-0.1,0.5-0.2,0.5-0.5h-0.3v-0.7h0.7v0.6c0,0.6-0.3,0.9-0.8,0.9L277.9,418z M279.1,418
				c0.3-0.1,0.5-0.2,0.5-0.5h-0.3v-0.7h0.7v0.6c0,0.6-0.3,0.9-0.8,0.9L279.1,418z"/>
		</g>
		<g class="fp-chattooga-st18">
			<path class="fp-chattooga-st5" d="M255.5,404.2h2.4c0.6,0,1.1,0.2,1.4,0.5c0.2,0.2,0.4,0.5,0.4,0.9v0c0,0.6-0.4,1-0.8,1.2
				c0.6,0.2,1.1,0.6,1.1,1.3v0c0,0.9-0.8,1.5-2,1.5h-2.5V404.2z M258.7,405.7c0-0.4-0.3-0.7-0.9-0.7h-1.3v1.4h1.3
				C258.3,406.4,258.7,406.2,258.7,405.7L258.7,405.7z M257.9,407.2h-1.5v1.5h1.5c0.6,0,1-0.3,1-0.7v0
				C259,407.4,258.6,407.2,257.9,407.2z"/>
		</g>
		<g class="fp-chattooga-st18">
			<path class="fp-chattooga-st5" d="M263.2,404.1h0.9l2.3,5.3h-1l-0.5-1.3h-2.5l-0.5,1.3h-1L263.2,404.1z M264.5,407.4l-0.9-2.1l-0.9,2.1H264.5z
				"/>
		</g>
		<g class="fp-chattooga-st18">
			<path class="fp-chattooga-st5" d="M268.2,405h-1.7v-0.9h4.3v0.9h-1.7v4.4h-0.9V405z"/>
			<path class="fp-chattooga-st5" d="M272.1,404.2h0.9v2.2h2.5v-2.2h0.9v5.3h-0.9v-2.2h-2.5v2.2h-0.9V404.2z"/>
		</g>
		<g class="fp-chattooga-st18">
			<path class="fp-chattooga-st5" d="M154.5,334.9l0.4-0.5c0.3,0.3,0.6,0.5,1,0.5c0.5,0,0.8-0.3,0.8-0.7v0c0-0.4-0.3-0.6-0.8-0.6
				c-0.3,0-0.5,0.1-0.7,0.2l-0.4-0.3l0.1-1.9h2.3v0.6h-1.7l-0.1,0.9c0.2-0.1,0.3-0.1,0.6-0.1c0.7,0,1.3,0.4,1.3,1.2v0
				c0,0.8-0.6,1.3-1.4,1.3C155.3,335.5,154.9,335.3,154.5,334.9z"/>
			<path class="fp-chattooga-st5" d="M158.1,332.9c0.3-0.1,0.5-0.2,0.5-0.5h-0.3v-0.7h0.7v0.6c0,0.6-0.3,0.9-0.8,0.9L158.1,332.9z"/>
			<path class="fp-chattooga-st5" d="M163,333.5l0.7-1h0.7l-1,1.4l1.1,1.5h-0.7l-0.7-1l-0.7,1h-0.7l1-1.5l-1-1.4h0.7L163,333.5z"/>
			<path class="fp-chattooga-st5" d="M167.5,332.3l-0.7,0.2l-0.1-0.5l1-0.3h0.5v3.8h-0.7V332.3z"/>
			<path class="fp-chattooga-st5" d="M169.3,333.5L169.3,333.5c0-1.1,0.7-2,1.7-2c1,0,1.6,0.9,1.6,2v0c0,1.1-0.7,2-1.7,2S169.3,334.6,169.3,333.5
				z M171.9,333.5L171.9,333.5c0-0.8-0.4-1.4-1-1.4s-1,0.6-1,1.3v0c0,0.7,0.4,1.4,1,1.4S171.9,334.3,171.9,333.5z"/>
			<path class="fp-chattooga-st5" d="M173.3,332.9c0.3-0.1,0.5-0.2,0.5-0.5h-0.3v-0.7h0.7v0.6c0,0.6-0.3,0.9-0.8,0.9L173.3,332.9z"/>
		</g>
		<g class="fp-chattooga-st18">
			<path class="fp-chattooga-st5" d="M153.7,319h2.4c0.6,0,1.1,0.2,1.4,0.5c0.2,0.2,0.4,0.5,0.4,0.9v0c0,0.6-0.4,1-0.8,1.2
				c0.6,0.2,1.1,0.6,1.1,1.3v0c0,0.9-0.8,1.5-2,1.5h-2.5V319z M156.8,320.5c0-0.4-0.3-0.7-0.9-0.7h-1.3v1.4h1.3
				C156.4,321.2,156.8,321,156.8,320.5L156.8,320.5z M156,322h-1.5v1.5h1.5c0.6,0,1-0.3,1-0.7v0C157.1,322.3,156.8,322,156,322z"/>
		</g>
		<g class="fp-chattooga-st18">
			<path class="fp-chattooga-st5" d="M161.3,319h0.9l2.3,5.3h-1L163,323h-2.5l-0.5,1.3h-1L161.3,319z M162.6,322.2l-0.9-2.1l-0.9,2.1H162.6z"/>
		</g>
		<g class="fp-chattooga-st18">
			<path class="fp-chattooga-st5" d="M166.3,319.9h-1.7V319h4.3v0.9h-1.7v4.4h-0.9V319.9z"/>
			<path class="fp-chattooga-st5" d="M170.3,319h0.9v2.2h2.5V319h0.9v5.3h-0.9v-2.2h-2.5v2.2h-0.9V319z"/>
		</g>
		<g class="fp-chattooga-st18">
			<path class="fp-chattooga-st5" d="M128.1,275.5c-0.3-0.3-0.5-0.7-0.5-1.4v0c0-1.2,0.6-2.1,1.6-2.1c0.5,0,0.8,0.2,1.2,0.4l-0.4,0.5
				c-0.3-0.2-0.5-0.3-0.8-0.3c-0.7,0-0.9,0.7-0.9,1.2c0.2-0.2,0.5-0.4,0.9-0.4c0.7,0,1.3,0.4,1.3,1.2v0c0,0.8-0.6,1.3-1.4,1.3
				C128.7,275.9,128.4,275.7,128.1,275.5z M129.9,274.6L129.9,274.6c0-0.4-0.3-0.7-0.8-0.7s-0.8,0.3-0.8,0.7v0
				c0,0.4,0.3,0.7,0.8,0.7S129.9,275,129.9,274.6z"/>
			<path class="fp-chattooga-st5" d="M131.4,273.3c0.3-0.1,0.5-0.2,0.5-0.5h-0.3V272h0.7v0.6c0,0.6-0.3,0.9-0.8,0.9L131.4,273.3z"/>
			<path class="fp-chattooga-st5" d="M135.6,272.7l-0.7,0.2l-0.1-0.5l1-0.3h0.5v3.8h-0.7V272.7z"/>
			<path class="fp-chattooga-st5" d="M137.3,273.9L137.3,273.9c0-1.1,0.7-2,1.7-2c1,0,1.6,0.9,1.6,2v0c0,1.1-0.7,2-1.7,2S137.3,275,137.3,273.9z
				 M139.9,273.9L139.9,273.9c0-0.8-0.4-1.4-1-1.4s-1,0.6-1,1.3v0c0,0.7,0.4,1.4,1,1.4S139.9,274.7,139.9,273.9z"/>
			<path class="fp-chattooga-st5" d="M141.4,273.3c0.3-0.1,0.5-0.2,0.5-0.5h-0.3V272h0.7v0.6c0,0.6-0.3,0.9-0.8,0.9L141.4,273.3z M142.6,273.3
				c0.3-0.1,0.5-0.2,0.5-0.5h-0.3V272h0.7v0.6c0,0.6-0.3,0.9-0.8,0.9L142.6,273.3z"/>
			<path class="fp-chattooga-st5" d="M147.5,273.9l0.7-1h0.7l-1,1.4l1.1,1.5h-0.7l-0.7-1l-0.7,1h-0.7l1-1.5l-1-1.4h0.7L147.5,273.9z"/>
			<path class="fp-chattooga-st5" d="M153.4,272.6h-1.9V272h2.7v0.5l-1.7,3.3h-0.8L153.4,272.6z"/>
			<path class="fp-chattooga-st5" d="M154.9,273.3c0.3-0.1,0.5-0.2,0.5-0.5h-0.3V272h0.7v0.6c0,0.6-0.3,0.9-0.8,0.9L154.9,273.3z"/>
		</g>
		<g class="fp-chattooga-st18">
			<path class="fp-chattooga-st5" d="M125.9,264.2L125.9,264.2c0-1.5,1.1-2.8,2.7-2.8c1,0,1.6,0.3,2.1,0.8l-0.6,0.7c-0.4-0.4-0.9-0.7-1.5-0.7
				c-1,0-1.8,0.8-1.8,1.9v0c0,1,0.7,1.9,1.8,1.9c0.7,0,1.1-0.3,1.5-0.7l0.6,0.6c-0.6,0.6-1.2,0.9-2.2,0.9
				C127.1,267,125.9,265.7,125.9,264.2z"/>
		</g>
		<g class="fp-chattooga-st18">
			<path class="fp-chattooga-st5" d="M132.1,261.6h0.9v4.5h2.8v0.8h-3.7V261.6z"/>
		</g>
		<g class="fp-chattooga-st18">
			<path class="fp-chattooga-st5" d="M136.5,264.2L136.5,264.2c0-1.5,1.2-2.8,2.8-2.8c1.6,0,2.8,1.2,2.8,2.7v0c0,1.5-1.2,2.7-2.8,2.7
				S136.5,265.7,136.5,264.2z M141.1,264.2L141.1,264.2c0-1-0.8-1.9-1.8-1.9s-1.8,0.8-1.8,1.9v0c0,1,0.8,1.9,1.8,1.9
				S141.1,265.3,141.1,264.2z"/>
		</g>
		<g class="fp-chattooga-st18">
			<path class="fp-chattooga-st5" d="M143.1,266.1l0.6-0.7c0.5,0.4,1,0.7,1.7,0.7c0.6,0,0.9-0.3,0.9-0.7v0c0-0.4-0.2-0.6-1.2-0.8
				c-1.1-0.3-1.8-0.6-1.8-1.6v0c0-0.9,0.8-1.5,1.8-1.5c0.8,0,1.4,0.2,1.9,0.7l-0.5,0.7c-0.5-0.4-1-0.5-1.4-0.5
				c-0.5,0-0.9,0.3-0.9,0.6v0c0,0.4,0.2,0.6,1.3,0.8c1.1,0.3,1.7,0.7,1.7,1.6v0c0,1-0.8,1.6-1.9,1.6
				C144.5,266.9,143.8,266.7,143.1,266.1z"/>
			<path class="fp-chattooga-st5" d="M148.7,261.6h3.9v0.8h-3v1.4h2.7v0.8h-2.7v1.4h3v0.8h-4V261.6z"/>
			<path class="fp-chattooga-st5" d="M155.3,262.4h-1.7v-0.9h4.3v0.9h-1.7v4.4h-0.9V262.4z"/>
		</g>
		<g class="fp-chattooga-st18">
			<path class="fp-chattooga-st5" d="M276.7,330.4h-1.9v-0.6h2.7v0.5l-1.7,3.3H275L276.7,330.4z"/>
			<path class="fp-chattooga-st5" d="M278.2,331c0.3-0.1,0.5-0.2,0.5-0.5h-0.3v-0.7h0.7v0.6c0,0.6-0.3,0.9-0.8,0.9L278.2,331z"/>
			<path class="fp-chattooga-st5" d="M283.1,331.7l0.7-1h0.7l-1,1.4l1.1,1.5h-0.7l-0.7-1l-0.7,1h-0.7l1-1.5l-1-1.4h0.7L283.1,331.7z"/>
			<path class="fp-chattooga-st5" d="M288.9,332.7H287l-0.1-0.5l2.1-2.5h0.6v2.4h0.5v0.5h-0.5v0.9h-0.6V332.7z M288.9,332.2v-1.5l-1.2,1.5H288.9z
				"/>
			<path class="fp-chattooga-st5" d="M290.8,331c0.3-0.1,0.5-0.2,0.5-0.5H291v-0.7h0.7v0.6c0,0.6-0.3,0.9-0.8,0.9L290.8,331z"/>
		</g>
		<g class="fp-chattooga-st18">
			<path class="fp-chattooga-st5" d="M266.7,322.7L266.7,322.7c0-1.5,1.1-2.8,2.7-2.8c1,0,1.6,0.3,2.1,0.8l-0.6,0.7c-0.4-0.4-0.9-0.7-1.5-0.7
				c-1,0-1.8,0.8-1.8,1.9v0c0,1,0.7,1.9,1.8,1.9c0.7,0,1.1-0.3,1.5-0.7l0.6,0.6c-0.6,0.6-1.2,0.9-2.2,0.9
				C267.9,325.4,266.7,324.2,266.7,322.7z"/>
		</g>
		<g class="fp-chattooga-st18">
			<path class="fp-chattooga-st5" d="M272.9,320h0.9v4.5h2.8v0.8h-3.7V320z"/>
		</g>
		<g class="fp-chattooga-st18">
			<path class="fp-chattooga-st5" d="M277.3,322.7L277.3,322.7c0-1.5,1.2-2.8,2.8-2.8c1.6,0,2.8,1.2,2.8,2.7v0c0,1.5-1.2,2.7-2.8,2.7
				C278.5,325.4,277.3,324.2,277.3,322.7z M281.9,322.7L281.9,322.7c0-1-0.8-1.9-1.8-1.9c-1.1,0-1.8,0.8-1.8,1.9v0
				c0,1,0.8,1.9,1.8,1.9C281.2,324.5,281.9,323.7,281.9,322.7z"/>
		</g>
		<g class="fp-chattooga-st18">
			<path class="fp-chattooga-st5" d="M283.9,324.5l0.6-0.7c0.5,0.4,1,0.7,1.7,0.7c0.6,0,0.9-0.3,0.9-0.7v0c0-0.4-0.2-0.6-1.2-0.8
				c-1.1-0.3-1.8-0.6-1.8-1.6v0c0-0.9,0.8-1.5,1.8-1.5c0.8,0,1.4,0.2,1.9,0.7l-0.5,0.7c-0.5-0.4-1-0.5-1.4-0.5
				c-0.5,0-0.9,0.3-0.9,0.6v0c0,0.4,0.2,0.6,1.3,0.8c1.1,0.3,1.7,0.7,1.7,1.6v0c0,1-0.8,1.6-1.9,1.6
				C285.3,325.4,284.5,325.1,283.9,324.5z"/>
			<path class="fp-chattooga-st5" d="M289.4,320h3.9v0.8h-3v1.4h2.7v0.8h-2.7v1.4h3v0.8h-4V320z"/>
			<path class="fp-chattooga-st5" d="M296.1,320.9h-1.7V320h4.3v0.9h-1.7v4.4h-0.9V320.9z"/>
		</g>
		<line class="fp-chattooga-st11" x1="390.5" y1="180" x2="373.1" y2="162.6"/>
		
			<rect x="381.5" y="159" transform="matrix(0.7071 -0.7071 0.7071 0.7071 -9.283 320.1729)" class="fp-chattooga-st5" width="0.6" height="24.6"/>
		<rect x="344.4" y="314.2" class="fp-chattooga-st21" width="2.3" height="1.3"/>
		<rect x="360.7" y="314.2" class="fp-chattooga-st21" width="3.7" height="1.3"/>
		<line class="fp-chattooga-st22" x1="361" y1="317.2" x2="346.2" y2="317.2"/>
		<line class="fp-chattooga-st22" x1="360.7" y1="314.8" x2="346.7" y2="314.8"/>
		<polyline class="fp-chattooga-st22" points="361,315.5 361,332 346.2,332 346.2,315.5 		"/>
		<path class="fp-chattooga-st23" d="M360.7,313.4c-0.1-3.4-1.3-6.7-3.6-9.2"/>
		
			<rect x="344.8" y="308.5" transform="matrix(0.7071 -0.7071 0.7071 0.7071 -115.3468 339.2449)" class="fp-chattooga-st24" width="14" height="0.8"/>
		<g class="fp-chattooga-st18">
			<path class="fp-chattooga-st5" d="M347.8,324.1h0.8c0.5,0,0.7,0.3,0.7,0.7v0c0,0.4-0.4,0.7-0.8,0.7h-0.4v0.6h-0.3V324.1z M348.5,325.1
				c0.3,0,0.4-0.1,0.4-0.4v0c0-0.2-0.2-0.4-0.4-0.4h-0.4v0.7H348.5z"/>
		</g>
		<g class="fp-chattooga-st18">
			<path class="fp-chattooga-st5" d="M350.3,324.1h0.3l0.9,2h-0.4l-0.2-0.5H350l-0.2,0.5h-0.4L350.3,324.1z M350.8,325.3l-0.3-0.8l-0.3,0.8H350.8
				z"/>
			<path class="fp-chattooga-st5" d="M351.9,324.1h0.3l1.1,1.4v-1.4h0.3v2h-0.3l-1.1-1.4v1.4h-0.3V324.1z"/>
			<path class="fp-chattooga-st5" d="M354.7,324.4h-0.6v-0.3h1.6v0.3h-0.6v1.6h-0.3V324.4z"/>
		</g>
		<g class="fp-chattooga-st18">
			<path class="fp-chattooga-st5" d="M356.2,324.1h0.9c0.2,0,0.4,0.1,0.6,0.2c0.1,0.1,0.2,0.3,0.2,0.4v0c0,0.3-0.2,0.5-0.5,0.6l0.5,0.7h-0.4
				l-0.5-0.7h-0.4v0.7h-0.3V324.1z M357,325c0.2,0,0.4-0.1,0.4-0.3v0c0-0.2-0.2-0.3-0.4-0.3h-0.5v0.7H357z"/>
		</g>
		<g class="fp-chattooga-st18">
			<path class="fp-chattooga-st5" d="M358.8,325.3l-0.8-1.2h0.4l0.5,0.9l0.6-0.9h0.4l-0.8,1.2v0.8h-0.3V325.3z"/>
		</g>
		<rect x="361.4" y="314.1" class="fp-chattooga-st12" width="60.4" height="21.6"/>
		<polygon class="fp-chattooga-st14" points="380.1,313.5 380.1,312.8 403.9,312.8 403.9,334.4 380.1,334.4 		"/>
		<circle class="fp-chattooga-st14" cx="398.8" cy="325.9" r="3.5"/>
		<circle class="fp-chattooga-st14" cx="398.8" cy="317.5" r="2.8"/>
		<circle class="fp-chattooga-st14" cx="385.3" cy="317.5" r="2.3"/>
		<circle class="fp-chattooga-st14" cx="385.3" cy="325.9" r="2.3"/>
		<line class="fp-chattooga-st22" x1="403.9" y1="330.7" x2="380.1" y2="330.7"/>
		<rect x="319.4" y="308.8" class="fp-chattooga-st14" width="26.3" height="23.2"/>
		<polyline class="fp-chattooga-st6" points="179.8,448.8 422.3,448.8 422.3,306.3 		"/>
		<line class="fp-chattooga-st7" x1="316.6" y1="335" x2="422.8" y2="335"/>
		<rect x="142.8" y="376.6" class="fp-chattooga-st10" width="6.1" height="19.5"/>
		<g class="fp-chattooga-st18">
			<path class="fp-chattooga-st5" d="M144.8,394.7v-0.4h2v-1.2h0.4v1.6H144.8z"/>
		</g>
		<g class="fp-chattooga-st18">
			<path class="fp-chattooga-st5" d="M144.8,391.8v-0.4l2.4-1v0.4l-0.6,0.2v1.1l0.6,0.2v0.4L144.8,391.8z M146.2,391.3l-0.9,0.4l0.9,0.4V391.3z"
				/>
		</g>
		<g class="fp-chattooga-st18">
			<path class="fp-chattooga-st5" d="M146.1,390.1h-1.4v-0.4h1.3c0.4,0,0.7-0.2,0.7-0.6c0-0.3-0.2-0.6-0.7-0.6h-1.4v-0.4h1.3c0.7,0,1.1,0.4,1.1,1
				C147.2,389.7,146.8,390.1,146.1,390.1z"/>
			<path class="fp-chattooga-st5" d="M144.8,387.6v-0.4l1.6-1.2h-1.6v-0.4h2.4v0.3l-1.7,1.2h1.7v0.4H144.8z"/>
			<path class="fp-chattooga-st5" d="M144.8,384.9v-0.8c0-0.7,0.5-1.2,1.2-1.2h0c0.7,0,1.2,0.5,1.2,1.2v0.8H144.8z M145.2,384.5h1.6v-0.4
				c0-0.5-0.3-0.8-0.8-0.8h0c-0.5,0-0.8,0.3-0.8,0.8V384.5z"/>
		</g>
		<g class="fp-chattooga-st18">
			<path class="fp-chattooga-st5" d="M144.8,382.3v-1c0-0.3,0.1-0.5,0.2-0.6c0.1-0.1,0.3-0.2,0.5-0.2h0c0.4,0,0.6,0.2,0.7,0.5l0.9-0.6v0.5
				l-0.8,0.5v0.5h0.8v0.4H144.8z M146,381.4c0-0.3-0.2-0.5-0.4-0.5h0c-0.3,0-0.4,0.2-0.4,0.5v0.6h0.8V381.4z"/>
		</g>
		<g class="fp-chattooga-st18">
			<path class="fp-chattooga-st5" d="M146.2,379.3l-1.4,0.9v-0.5l1-0.6l-1-0.6v-0.4l1.4,0.9h0.9v0.4H146.2z"/>
		</g>
		<rect x="0.5" y="0.5" class="fp-chattooga-st25" width="557.3" height="557.3"/>
	</g>
</g>
</svg>
