<?xml version="1.0" encoding="utf-8"?>
<!-- Generator: Adobe Illustrator 21.1.0, SVG Export Plug-In . SVG Version: 6.00 Build 0)  -->
<svg version="1.1" id="Layer_1" xmlns="http://www.w3.org/2000/svg" xmlns:xlink="http://www.w3.org/1999/xlink" x="0px" y="0px"
	 viewBox="0 0 558.3 558.3" style="enable-background:new 0 0 558.3 558.3;" xml:space="preserve">
<style type="text/css">
	.fp-eastatoe-st0{fill:none;stroke:#A6A8AB;stroke-width:0.27;stroke-miterlimit:10;}
	.fp-eastatoe-st1{fill:#E4E9E4;}
	.fp-eastatoe-st2{fill:#C8D0C9;stroke:#32553B;stroke-width:0.24;stroke-miterlimit:10;}
	.fp-eastatoe-st3{fill:#C8D0C9;stroke:#32553B;stroke-width:0.23;stroke-miterlimit:10;}
	.fp-eastatoe-st4{fill:none;stroke:#32553B;stroke-width:0.23;stroke-miterlimit:10;}
	.fp-eastatoe-st5{fill:#E4E9E4;stroke:#32553B;stroke-width:0.31;stroke-miterlimit:10;}
	.fp-eastatoe-st6{fill:none;stroke:#32553B;stroke-width:4.33;stroke-miterlimit:10;}
	.fp-eastatoe-st7{fill:none;stroke:#32553B;stroke-width:4.33;stroke-linecap:square;stroke-miterlimit:10;}
	.fp-eastatoe-st8{fill:#32553B;}
	.fp-eastatoe-st9{fill:#C8D0C9;stroke:#32553B;stroke-width:0.27;stroke-miterlimit:10;}
	.fp-eastatoe-st10{fill:none;stroke:#32553B;stroke-width:0.27;stroke-miterlimit:10;}
	.fp-eastatoe-st11{fill:none;stroke:#32553B;stroke-width:7.59;stroke-linejoin:round;}
	.fp-eastatoe-st12{fill:none;stroke:#E4E9E4;stroke-width:7.59;stroke-linejoin:round;}
	.fp-eastatoe-st13{fill:none;stroke:#32553B;stroke-width:4.33;stroke-linejoin:round;}
	.fp-eastatoe-st14{fill:#FFFFFF;stroke:#799900;stroke-width:0.25;stroke-miterlimit:10;}
	.fp-eastatoe-st15{fill:none;stroke:#799900;stroke-width:0.27;stroke-miterlimit:10;}
	.fp-eastatoe-st16{fill:#FFFFFF;stroke:#799900;stroke-width:0.27;stroke-miterlimit:10;}
	.fp-eastatoe-st17{fill:none;stroke:#799900;stroke-width:0.35;stroke-miterlimit:10;}
	.fp-eastatoe-st18{fill:#FFFFFF;stroke:#62A044;stroke-width:0.27;stroke-miterlimit:10;}
	.fp-eastatoe-st19{fill:none;stroke:#32553B;stroke-width:1.08;stroke-miterlimit:10;}
	.fp-eastatoe-st20{fill:#F5F7F5;}
	.fp-eastatoe-st21{fill:#C8D0C9;stroke:#32553B;stroke-width:0.25;stroke-miterlimit:10;}
	.fp-eastatoe-st22{fill:none;stroke:#32553B;stroke-width:0.25;stroke-miterlimit:10;}
	.fp-eastatoe-st23{enable-background:new    ;}
	.fp-eastatoe-st24{fill:none;stroke:#F5F7F5;stroke-miterlimit:10;}
</style>
<title>fp_eastatoe</title>
<g id="Layer_2">
	<g id="DESIGN">
		<line class="fp-eastatoe-st0" x1="145.4" y1="134.1" x2="286.9" y2="134.1"/>
		<line class="fp-eastatoe-st0" x1="145.4" y1="146.7" x2="286.9" y2="146.7"/>
		<line class="fp-eastatoe-st0" x1="145.4" y1="159.4" x2="286.9" y2="159.4"/>
		<line class="fp-eastatoe-st0" x1="145.4" y1="172" x2="286.9" y2="172"/>
		<line class="fp-eastatoe-st0" x1="145.4" y1="184.6" x2="286.9" y2="184.6"/>
		<line class="fp-eastatoe-st0" x1="145.4" y1="197.3" x2="286.9" y2="197.3"/>
		<line class="fp-eastatoe-st0" x1="145.4" y1="209.9" x2="286.9" y2="209.9"/>
		<line class="fp-eastatoe-st0" x1="145.4" y1="222.6" x2="286.9" y2="222.6"/>
		<line class="fp-eastatoe-st0" x1="145.4" y1="235.2" x2="286.9" y2="235.2"/>
		<line class="fp-eastatoe-st0" x1="145.4" y1="247.8" x2="286.9" y2="247.8"/>
		<line class="fp-eastatoe-st0" x1="145.4" y1="260.5" x2="286.9" y2="260.5"/>
		<line class="fp-eastatoe-st0" x1="145.4" y1="273.1" x2="286.9" y2="273.1"/>
		<line class="fp-eastatoe-st0" x1="145.4" y1="285.8" x2="286.9" y2="285.8"/>
		<line class="fp-eastatoe-st0" x1="145.4" y1="298.4" x2="286.9" y2="298.4"/>
		<line class="fp-eastatoe-st0" x1="145.4" y1="311" x2="286.9" y2="311"/>
		<line class="fp-eastatoe-st0" x1="145.4" y1="323.7" x2="286.9" y2="323.7"/>
		<line class="fp-eastatoe-st0" x1="145.4" y1="336.3" x2="286.9" y2="336.3"/>
		<line class="fp-eastatoe-st0" x1="145.4" y1="349" x2="342.8" y2="349"/>
		<line class="fp-eastatoe-st0" x1="238.2" y1="361.6" x2="342.8" y2="361.6"/>
		<line class="fp-eastatoe-st0" x1="238.2" y1="374.2" x2="342.8" y2="374.2"/>
		<line class="fp-eastatoe-st0" x1="238.2" y1="386.9" x2="391.4" y2="386.9"/>
		<line class="fp-eastatoe-st0" x1="238.2" y1="399.5" x2="388.9" y2="399.5"/>
		<line class="fp-eastatoe-st0" x1="145.4" y1="412.2" x2="388.9" y2="412.2"/>
		<line class="fp-eastatoe-st0" x1="145.4" y1="424.8" x2="388.9" y2="424.8"/>
		<line class="fp-eastatoe-st0" x1="145.4" y1="437.5" x2="388.9" y2="437.5"/>
		<line class="fp-eastatoe-st0" x1="145.4" y1="450.1" x2="399.6" y2="450.1"/>
		<line class="fp-eastatoe-st0" x1="145.4" y1="462.7" x2="385" y2="462.7"/>
		<line class="fp-eastatoe-st0" x1="145.4" y1="475.4" x2="342.8" y2="475.4"/>
		<line class="fp-eastatoe-st0" x1="145.4" y1="488" x2="342.8" y2="488"/>
		<line class="fp-eastatoe-st0" x1="145.4" y1="500.6" x2="342.8" y2="500.6"/>
		<polygon class="fp-eastatoe-st1" points="286.9,121.4 286.9,341.7 342.8,341.7 342.8,371.8 414.8,371.8 414.8,341.7 414.8,327.7 414.8,121.4 
					"/>
		<rect x="284.8" y="425.5" class="fp-eastatoe-st1" width="12.1" height="21.3"/>
		<rect x="388.9" y="393.6" class="fp-eastatoe-st2" width="23" height="47.8"/>
		<path class="fp-eastatoe-st2" d="M392.5,424.2v-13.6c0-1.2,1-2.2,2.2-2.2h9c1.2,0,2.2,1,2.2,2.2v13.6c0,1.2-1,2.2-2.2,2.2h-9
			C393.4,426.4,392.5,425.4,392.5,424.2z"/>
		<circle class="fp-eastatoe-st2" cx="401" cy="417.4" r="1.5"/>
		<rect x="343.7" y="475.9" class="fp-eastatoe-st3" width="63.6" height="35.8"/>
		<path class="fp-eastatoe-st4" d="M348.1,493.4c0,0-0.2,13.9,5.3,13.9h46.9c0,0,4.4,0.2,4.4-4.1v-9.9l0,0v-9.9c0-4.3-4.4-4.1-4.4-4.1h-46.9
			C347.9,479.4,348.1,493.4,348.1,493.4L348.1,493.4z"/>
		<path class="fp-eastatoe-st3" d="M402.7,493.3c0-0.9,0.3-1.9,0.9-2.6l2.8,2.5v0.2l-2.8,2.5C403,495.1,402.7,494.2,402.7,493.3"/>
		<rect x="226.1" y="486.9" class="fp-eastatoe-st5" width="3.6" height="1.9"/>
		<polygon class="fp-eastatoe-st5" points="238.3,402.4 238.3,360.2 160.4,360.2 160.4,375.7 145.4,375.7 145.4,514.1 165.9,514.1 165.9,514.1 
			189.9,514.1 189.9,488.7 191.2,488.7 191.2,486.9 189.9,486.9 187.7,486.9 172.7,486.9 172.7,402.4 		"/>
		<line class="fp-eastatoe-st6" x1="286.9" y1="121.4" x2="286.9" y2="359.7"/>
		<line class="fp-eastatoe-st6" x1="415.4" y1="296.4" x2="385" y2="296.4"/>
		<polyline class="fp-eastatoe-st6" points="350,296.4 342.8,296.4 342.8,378.1 		"/>
		<line class="fp-eastatoe-st6" x1="342.8" y1="371.8" x2="414.8" y2="371.8"/>
		<line class="fp-eastatoe-st6" x1="293.1" y1="341.7" x2="286.9" y2="341.7"/>
		<line class="fp-eastatoe-st6" x1="342.8" y1="425.5" x2="336.6" y2="425.5"/>
		<line class="fp-eastatoe-st6" x1="328" y1="341.7" x2="342.8" y2="341.7"/>
		<line class="fp-eastatoe-st6" x1="342.8" y1="413.5" x2="342.8" y2="514.1"/>
		<polyline class="fp-eastatoe-st6" points="301.3,425.5 286.9,425.5 286.9,406.8 		"/>
		<line class="fp-eastatoe-st6" x1="297" y1="425.5" x2="297" y2="473.8"/>
		<line class="fp-eastatoe-st6" x1="297" y1="467.1" x2="342.8" y2="467.1"/>
		<line class="fp-eastatoe-st7" x1="297" y1="446.8" x2="286.9" y2="446.8"/>
		<line class="fp-eastatoe-st6" x1="297" y1="508.8" x2="297" y2="514.1"/>
		<line class="fp-eastatoe-st6" x1="230.3" y1="514.1" x2="230.3" y2="486.4"/>
		<polyline class="fp-eastatoe-st6" points="145.4,360.2 160.4,360.2 160.4,375.7 145.4,375.7 		"/>
		<rect x="405.5" y="474.1" class="fp-eastatoe-st8" width="9.3" height="40.1"/>
		<rect x="191.9" y="478.5" class="fp-eastatoe-st9" width="33.4" height="31.2"/>
		<polygon class="fp-eastatoe-st9" points="173,424.1 174.1,424.1 174.1,457.7 144.4,457.7 144.4,424.1 		"/>
		<circle class="fp-eastatoe-st9" cx="156.6" cy="450.5" r="5"/>
		<circle class="fp-eastatoe-st9" cx="167.4" cy="450.5" r="3.9"/>
		<circle class="fp-eastatoe-st9" cx="167.4" cy="431.4" r="3.2"/>
		<circle class="fp-eastatoe-st9" cx="156.6" cy="431.4" r="3.2"/>
		<line class="fp-eastatoe-st10" x1="150.8" y1="457.7" x2="150.8" y2="424.1"/>
		<line class="fp-eastatoe-st11" x1="197" y1="121.4" x2="224.3" y2="121.4"/>
		<polyline class="fp-eastatoe-st11" points="254.6,514.1 145.4,514.1 145.4,514.1 145.4,121.4 160.2,121.4 		"/>
		<polyline class="fp-eastatoe-st11" points="397.2,121.4 414.8,121.4 414.8,514.1 289.8,514.1 		"/>
		<line class="fp-eastatoe-st11" x1="259.5" y1="121.4" x2="360.4" y2="121.4"/>
		<path class="fp-eastatoe-st9" d="M230.1,382.3v15.6c0,1.3-1,2.3-2.3,2.3h-26.7c-1.3,0-2.3-1-2.3-2.3v-15.6c0-1.3,1-2.3,2.3-2.3h26.7
			C229.1,380,230.1,381,230.1,382.3z"/>
		<circle class="fp-eastatoe-st9" cx="214.5" cy="390.1" r="1.7"/>
		<polyline class="fp-eastatoe-st2" points="411,470.9 405.8,470.9 405.8,446.4 411,446.4 		"/>
		<path class="fp-eastatoe-st2" d="M394,464c0.5-0.2,1-0.4,1.6-0.4h3.1c0.5,0,1,0.3,1,0.8c0,0.1,0,0.1,0,0.2v-12c0,0.5-0.3,1-0.8,1
			c-0.1,0-0.1,0-0.2,0h-3.1c-0.5,0-1.1-0.1-1.6-0.4"/>
		<ellipse class="fp-eastatoe-st2" cx="388.1" cy="458.7" rx="9.4" ry="6.9"/>
		<rect x="399.6" y="448.2" class="fp-eastatoe-st2" width="6.8" height="20.9"/>
		<line class="fp-eastatoe-st12" x1="197" y1="121.4" x2="160.2" y2="121.4"/>
		<rect x="160.2" y="118.9" class="fp-eastatoe-st8" width="36.8" height="0.6"/>
		<rect x="160.2" y="121.1" class="fp-eastatoe-st8" width="36.8" height="0.6"/>
		<rect x="160.2" y="123.4" class="fp-eastatoe-st8" width="36.8" height="0.6"/>
		<line class="fp-eastatoe-st12" x1="397.2" y1="121.4" x2="360.4" y2="121.4"/>
		<rect x="360.4" y="118.9" class="fp-eastatoe-st8" width="36.8" height="0.6"/>
		<rect x="360.4" y="121.1" class="fp-eastatoe-st8" width="36.8" height="0.6"/>
		<rect x="360.4" y="123.4" class="fp-eastatoe-st8" width="36.8" height="0.6"/>
		<line class="fp-eastatoe-st12" x1="337.2" y1="121.4" x2="300.4" y2="121.4"/>
		<rect x="300.4" y="118.9" class="fp-eastatoe-st8" width="36.8" height="0.6"/>
		<rect x="300.4" y="121.1" class="fp-eastatoe-st8" width="36.8" height="0.6"/>
		<rect x="300.4" y="123.4" class="fp-eastatoe-st8" width="36.8" height="0.6"/>
		<polyline class="fp-eastatoe-st13" points="206.8,121.4 206.8,46.3 349.9,46.3 349.9,121.4 		"/>
		
			<rect x="377" y="382.4" transform="matrix(0.7071 -0.7071 0.7071 0.7071 -158.239 383.3396)" class="fp-eastatoe-st14" width="13.2" height="0.7"/>
		<path class="fp-eastatoe-st15" d="M379.2,387.6c2.7,2.4,6.1,3.8,9.7,3.9"/>
		<rect x="222.5" y="81.5" class="fp-eastatoe-st15" width="1.8" height="34.9"/>
		<path class="fp-eastatoe-st15" d="M224.3,81.5c18.2,0,35.2,14.7,35.2,35.1"/>
		<rect x="291" y="303.6" class="fp-eastatoe-st16" width="1.8" height="34.9"/>
		<rect x="349.1" y="299.6" class="fp-eastatoe-st16" width="1.8" height="34.9"/>
		<path class="fp-eastatoe-st15" d="M292.9,303.6c18.2,0,35.2,14.7,35.2,35.1"/>
		<rect x="334.9" y="389" class="fp-eastatoe-st16" width="1.7" height="33.2"/>
		<path class="fp-eastatoe-st15" d="M334.9,389c-17.3,0-33.5,14-33.5,33.5"/>
		<path class="fp-eastatoe-st17" d="M385,299.6c0,19.3-14.8,34.9-34.1,34.9"/>
		<path class="fp-eastatoe-st15" d="M254.6,508.9c0-5.6-0.2-14.2,10.3-24.6"/>
		
			<rect x="275.9" y="479.7" transform="matrix(0.7071 -0.7071 0.7071 0.7071 -270.6921 341.4577)" class="fp-eastatoe-st18" width="1.9" height="35.6"/>
		<path class="fp-eastatoe-st15" d="M294.4,473.8c0,0-12.9-0.2-22.3,8.7"/>
		
			<rect x="282.4" y="478.3" transform="matrix(0.7071 -0.7071 0.7071 0.7071 -267.1176 345.389)" class="fp-eastatoe-st18" width="1.9" height="33.7"/>
		<polyline class="fp-eastatoe-st19" points="411.3,393.6 388.9,393.6 388.9,391.4 		"/>
		<polyline class="fp-eastatoe-st19" points="411.3,375.8 388.9,375.8 388.9,378 		"/>
		<line class="fp-eastatoe-st10" x1="391.4" y1="375.8" x2="391.4" y2="393.6"/>
		<path class="fp-eastatoe-st15" d="M346.5,413.5c5.6,0,14.3,0.2,24.8-10.4"/>
		
			<rect x="357.1" y="373.2" transform="matrix(0.7071 -0.7071 0.7071 0.7071 -171.6884 367.6839)" class="fp-eastatoe-st16" width="1.9" height="35.8"/>
		<rect x="188.7" y="224.2" class="fp-eastatoe-st20" width="54.9" height="17.2"/>
		<rect x="185.1" y="441.9" class="fp-eastatoe-st20" width="54.9" height="17.2"/>
		<rect x="348.2" y="418.9" class="fp-eastatoe-st20" width="37.7" height="14"/>
		<rect x="304.8" y="430.2" class="fp-eastatoe-st21" width="30.1" height="31.5"/>
		<line class="fp-eastatoe-st22" x1="334.9" y1="458.3" x2="304.8" y2="458.3"/>
		<g class="fp-eastatoe-st23">
			<path class="fp-eastatoe-st8" d="M196.6,226.6h1.3v6.4h4v1.2h-5.3V226.6z"/>
			<path class="fp-eastatoe-st8" d="M203.9,226.6h1.3v7.6h-1.3V226.6z"/>
			<path class="fp-eastatoe-st8" d="M207,226.6h1.5l2.3,5.8l2.3-5.8h1.4l-3.1,7.6h-1.2L207,226.6z"/>
			<path class="fp-eastatoe-st8" d="M216.3,226.6h1.3v7.6h-1.3V226.6z"/>
			<path class="fp-eastatoe-st8" d="M220.1,226.6h1.2l4.1,5.2v-5.2h1.3v7.6h-1.1l-4.2-5.4v5.4h-1.3V226.6z"/>
			<path class="fp-eastatoe-st8" d="M228.8,230.4L228.8,230.4c0-2.1,1.6-3.9,3.9-3.9c1.3,0,2.1,0.4,2.9,1l-0.8,1c-0.6-0.5-1.2-0.8-2.1-0.8
				c-1.4,0-2.5,1.2-2.5,2.7v0c0,1.6,1,2.7,2.6,2.7c0.7,0,1.4-0.2,1.8-0.6v-1.4h-1.9v-1.2h3.2v3.2c-0.7,0.6-1.8,1.2-3.2,1.2
				C230.3,234.3,228.8,232.6,228.8,230.4z"/>
		</g>
		<g class="fp-eastatoe-st23">
			<path class="fp-eastatoe-st8" d="M249.8,73.1h3.4c0.9,0,1.5,0.2,2,0.7c0.3,0.3,0.5,0.7,0.5,1.3v0c0,0.9-0.5,1.4-1.1,1.7
				c0.9,0.3,1.5,0.8,1.5,1.8v0c0,1.4-1.1,2.1-2.8,2.1h-3.5V73.1z M254.4,75.2c0-0.6-0.5-1-1.3-1h-1.9v2h1.8
				C253.8,76.3,254.4,76,254.4,75.2L254.4,75.2z M253.2,77.4h-2.1v2.1h2.2c0.9,0,1.5-0.4,1.5-1v0C254.8,77.8,254.3,77.4,253.2,77.4z
				"/>
			<path class="fp-eastatoe-st8" d="M260.8,73h1.2l3.3,7.6h-1.4l-0.8-1.8h-3.6l-0.8,1.8h-1.4L260.8,73z M262.7,77.7l-1.3-3l-1.3,3H262.7z"/>
		</g>
		<g class="fp-eastatoe-st23">
			<path class="fp-eastatoe-st8" d="M267.1,73.1h1.3v6.4h4v1.2h-5.3V73.1z"/>
		</g>
		<g class="fp-eastatoe-st23">
			<path class="fp-eastatoe-st8" d="M273.4,76.9L273.4,76.9c0-2.2,1.6-3.9,3.9-3.9c1.4,0,2.2,0.5,3,1.2l-0.9,1c-0.6-0.6-1.3-0.9-2.1-0.9
				c-1.4,0-2.5,1.2-2.5,2.7v0c0,1.5,1.1,2.7,2.5,2.7c0.9,0,1.5-0.4,2.2-1l0.9,0.9c-0.8,0.8-1.7,1.3-3.1,1.3
				C275.1,80.8,273.4,79.1,273.4,76.9z"/>
		</g>
		<g class="fp-eastatoe-st23">
			<path class="fp-eastatoe-st8" d="M281.6,76.9L281.6,76.9c0-2.2,1.6-3.9,4-3.9s4,1.8,4,3.9v0c0,2.1-1.6,3.9-4,3.9
				C283.3,80.8,281.6,79,281.6,76.9z M288.2,76.9L288.2,76.9c0-1.5-1.1-2.7-2.6-2.7s-2.6,1.2-2.6,2.7v0c0,1.5,1.1,2.7,2.6,2.7
				S288.2,78.4,288.2,76.9z"/>
			<path class="fp-eastatoe-st8" d="M291.6,73.1h1.2l4.1,5.2v-5.2h1.3v7.6h-1.1l-4.2-5.4v5.4h-1.3V73.1z"/>
			<path class="fp-eastatoe-st8" d="M302.9,77.7l-3-4.6h1.6l2.1,3.3l2.1-3.3h1.5l-3,4.6v3h-1.3V77.7z"/>
		</g>
		<g class="fp-eastatoe-st23">
			<path class="fp-eastatoe-st8" d="M267.6,86.7l-0.8,0.2l-0.2-0.6l1.2-0.4h0.5v4.5h-0.8V86.7z"/>
			<path class="fp-eastatoe-st8" d="M269.5,89.8l1.5-1.3c0.6-0.5,0.8-0.8,0.8-1.2c0-0.4-0.3-0.7-0.7-0.7s-0.7,0.2-1,0.7l-0.6-0.4
				c0.4-0.6,0.9-0.9,1.7-0.9c0.9,0,1.5,0.5,1.5,1.3v0c0,0.7-0.4,1.1-1.2,1.7l-0.9,0.8h2.1v0.7h-3.3V89.8z"/>
			<path class="fp-eastatoe-st8" d="M273.7,87.4c0.4-0.1,0.6-0.3,0.6-0.6h-0.3v-0.9h0.9v0.8c0,0.7-0.3,1-1,1.1L273.7,87.4z"/>
			<path class="fp-eastatoe-st8" d="M279.5,88.1l0.8-1.1h0.8l-1.2,1.7l1.2,1.7h-0.8l-0.8-1.2l-0.8,1.2h-0.8l1.2-1.7l-1.2-1.7h0.8L279.5,88.1z"/>
			<path class="fp-eastatoe-st8" d="M284.7,90c-0.3-0.3-0.5-0.8-0.5-1.7v0c0-1.4,0.7-2.4,1.9-2.4c0.6,0,1,0.2,1.4,0.5l-0.4,0.6
				c-0.3-0.2-0.6-0.4-1-0.4c-0.8,0-1.1,0.8-1.1,1.4c0.3-0.3,0.6-0.5,1.1-0.5c0.9,0,1.6,0.5,1.6,1.4v0c0,0.9-0.7,1.5-1.7,1.5
				C285.4,90.5,285,90.3,284.7,90z M286.8,89L286.8,89c0-0.5-0.4-0.8-0.9-0.8c-0.6,0-0.9,0.4-0.9,0.8v0c0,0.5,0.4,0.8,0.9,0.8
				C286.5,89.8,286.8,89.4,286.8,89z"/>
			<path class="fp-eastatoe-st8" d="M288.5,87.4c0.4-0.1,0.6-0.3,0.6-0.6h-0.3v-0.9h0.9v0.8c0,0.7-0.3,1-1,1.1L288.5,87.4z"/>
		</g>
		<g class="fp-eastatoe-st23">
			<path class="fp-eastatoe-st8" d="M320.8,212.6h3.4c0.9,0,1.5,0.2,2,0.7c0.3,0.3,0.5,0.7,0.5,1.3v0c0,0.9-0.5,1.4-1.1,1.7
				c0.9,0.3,1.5,0.8,1.5,1.8v0c0,1.4-1.1,2.1-2.8,2.1h-3.5V212.6z M325.4,214.8c0-0.6-0.5-1-1.3-1h-1.9v2h1.8
				C324.8,215.8,325.4,215.5,325.4,214.8L325.4,214.8z M324.3,216.9h-2.1v2.1h2.2c0.9,0,1.5-0.4,1.5-1v0
				C325.8,217.3,325.3,216.9,324.3,216.9z"/>
			<path class="fp-eastatoe-st8" d="M329.1,212.6h5.6v1.2h-4.3v2h3.8v1.2h-3.8v2h4.3v1.2h-5.7V212.6z"/>
			<path class="fp-eastatoe-st8" d="M336.8,212.6h2.8c2.4,0,4,1.6,4,3.8v0c0,2.1-1.6,3.8-4,3.8h-2.8V212.6z M338.1,213.8v5.2h1.5
				c1.6,0,2.6-1.1,2.6-2.6v0c0-1.5-1-2.6-2.6-2.6H338.1z"/>
			<path class="fp-eastatoe-st8" d="M345.7,212.6h3.4c1,0,1.7,0.3,2.2,0.8c0.4,0.4,0.6,1,0.6,1.6v0c0,1.2-0.7,2-1.8,2.3l2,2.9h-1.6l-1.9-2.6H347
				v2.6h-1.3V212.6z M349,216.4c1,0,1.6-0.5,1.6-1.3v0c0-0.8-0.6-1.3-1.6-1.3H347v2.5H349z"/>
			<path class="fp-eastatoe-st8" d="M353.6,216.4L353.6,216.4c0-2.2,1.6-3.9,4-3.9s4,1.8,4,3.9v0c0,2.1-1.6,3.9-4,3.9
				C355.3,220.3,353.6,218.6,353.6,216.4z M360.2,216.4L360.2,216.4c0-1.5-1.1-2.7-2.6-2.7c-1.5,0-2.6,1.2-2.6,2.7v0
				c0,1.5,1.1,2.7,2.6,2.7S360.2,217.9,360.2,216.4z"/>
			<path class="fp-eastatoe-st8" d="M363.3,216.4L363.3,216.4c0-2.2,1.6-3.9,4-3.9s4,1.8,4,3.9v0c0,2.1-1.6,3.9-4,3.9
				C364.9,220.3,363.3,218.6,363.3,216.4z M369.8,216.4L369.8,216.4c0-1.5-1.1-2.7-2.6-2.7c-1.5,0-2.6,1.2-2.6,2.7v0
				c0,1.5,1.1,2.7,2.6,2.7S369.8,217.9,369.8,216.4z"/>
			<path class="fp-eastatoe-st8" d="M373.3,212.6h1.4l2.3,3.6l2.3-3.6h1.4v7.6h-1.3v-5.4l-2.4,3.6h0l-2.4-3.6v5.4h-1.3V212.6z"/>
		</g>
		<g class="fp-eastatoe-st23">
			<path class="fp-eastatoe-st8" d="M333.6,227.2l-0.8,0.2l-0.2-0.6l1.2-0.4h0.5v4.5h-0.8V227.2z"/>
			<path class="fp-eastatoe-st8" d="M335.7,228.7L335.7,228.7c0-1.3,0.8-2.3,2-2.3c1.2,0,2,1,2,2.3v0c0,1.3-0.8,2.3-2,2.3S335.7,230,335.7,228.7
				z M338.8,228.7L338.8,228.7c0-0.9-0.5-1.6-1.1-1.6s-1.1,0.7-1.1,1.6v0c0,0.9,0.4,1.6,1.1,1.6S338.8,229.6,338.8,228.7z"/>
			<path class="fp-eastatoe-st8" d="M340.5,228c0.4-0.1,0.6-0.3,0.6-0.6h-0.3v-0.9h0.9v0.8c0,0.7-0.3,1-1,1.1L340.5,228z"/>
			<path class="fp-eastatoe-st8" d="M344.7,230.3l1.5-1.3c0.6-0.5,0.8-0.8,0.8-1.2c0-0.4-0.3-0.7-0.7-0.7s-0.7,0.2-1,0.7l-0.6-0.4
				c0.4-0.6,0.9-0.9,1.7-0.9c0.9,0,1.5,0.5,1.5,1.3v0c0,0.7-0.4,1.1-1.2,1.7l-0.9,0.8h2.1v0.7h-3.3V230.3z"/>
			<path class="fp-eastatoe-st8" d="M348.8,228c0.4-0.1,0.6-0.3,0.6-0.6H349v-0.9h0.9v0.8c0,0.7-0.3,1-1,1.1L348.8,228z M350.3,228
				c0.4-0.1,0.6-0.3,0.5-0.6h-0.3v-0.9h0.9v0.8c0,0.7-0.3,1-1,1.1L350.3,228z"/>
			<path class="fp-eastatoe-st8" d="M356.1,228.7l0.8-1.1h0.8l-1.2,1.7l1.2,1.7h-0.8l-0.8-1.2l-0.8,1.2h-0.8l1.2-1.7l-1.2-1.7h0.8L356.1,228.7z"
				/>
			<path class="fp-eastatoe-st8" d="M361.6,227.2l-0.8,0.2l-0.2-0.6l1.2-0.4h0.5v4.5h-0.8V227.2z"/>
			<path class="fp-eastatoe-st8" d="M363.5,230.4l0.5-0.6c0.4,0.3,0.7,0.5,1.2,0.5c0.5,0,0.9-0.3,0.9-0.8v0c0-0.5-0.4-0.7-0.9-0.7
				c-0.3,0-0.6,0.1-0.8,0.2l-0.5-0.3l0.1-2.2h2.7v0.7h-2l-0.1,1.1c0.2-0.1,0.4-0.1,0.7-0.1c0.9,0,1.6,0.5,1.6,1.4v0
				c0,0.9-0.7,1.5-1.7,1.5C364.5,231,363.9,230.8,363.5,230.4z"/>
			<path class="fp-eastatoe-st8" d="M367.7,228c0.4-0.1,0.6-0.3,0.6-0.6H368v-0.9h0.9v0.8c0,0.7-0.3,1-1,1.1L367.7,228z"/>
		</g>
		<g class="fp-eastatoe-st23">
			<path class="fp-eastatoe-st8" d="M193.9,239.2l-0.8,0.2l-0.2-0.6l1.2-0.4h0.5v4.5h-0.8V239.2z"/>
			<path class="fp-eastatoe-st8" d="M196.7,239.2l-0.8,0.2l-0.2-0.6l1.2-0.4h0.5v4.5h-0.8V239.2z"/>
			<path class="fp-eastatoe-st8" d="M198.6,239.9c0.4-0.1,0.6-0.3,0.6-0.6h-0.3v-0.9h0.9v0.8c0,0.7-0.3,1-1,1.1L198.6,239.9z"/>
			<path class="fp-eastatoe-st8" d="M205.5,240.9c-0.3,0.3-0.6,0.5-1.1,0.5c-1,0-1.6-0.6-1.6-1.4v0c0-0.9,0.7-1.6,1.7-1.6c0.6,0,0.9,0.2,1.3,0.5
				c0.3,0.3,0.5,0.8,0.5,1.7v0c0,1.4-0.7,2.4-1.9,2.4c-0.6,0-1.1-0.2-1.4-0.5l0.4-0.6c0.3,0.3,0.6,0.4,1,0.4
				C205.2,242.3,205.5,241.5,205.5,240.9z M205.5,239.9L205.5,239.9c0-0.5-0.4-0.8-0.9-0.8c-0.6,0-0.9,0.4-0.9,0.8v0
				c0,0.5,0.4,0.8,0.9,0.8C205.2,240.7,205.5,240.3,205.5,239.9z"/>
			<path class="fp-eastatoe-st8" d="M207.2,239.9c0.4-0.1,0.6-0.3,0.6-0.6h-0.3v-0.9h0.9v0.8c0,0.7-0.3,1-1,1.1L207.2,239.9z M208.7,239.9
				c0.4-0.1,0.6-0.3,0.5-0.6h-0.3v-0.9h0.9v0.8c0,0.7-0.3,1-1,1.1L208.7,239.9z"/>
			<path class="fp-eastatoe-st8" d="M214.5,240.7l0.8-1.1h0.8l-1.2,1.7l1.2,1.7h-0.8l-0.8-1.2l-0.8,1.2h-0.8l1.2-1.7l-1.2-1.7h0.8L214.5,240.7z"
				/>
			<path class="fp-eastatoe-st8" d="M219.1,242.3l1.5-1.3c0.6-0.5,0.8-0.8,0.8-1.2c0-0.4-0.3-0.7-0.7-0.7s-0.7,0.2-1,0.7l-0.6-0.4
				c0.4-0.6,0.9-0.9,1.7-0.9c0.9,0,1.5,0.5,1.5,1.3v0c0,0.7-0.4,1.1-1.2,1.7l-0.9,0.8h2.1v0.7h-3.3V242.3z"/>
			<path class="fp-eastatoe-st8" d="M223.4,240.7L223.4,240.7c0-1.3,0.8-2.3,2-2.3c1.2,0,2,1,2,2.3v0c0,1.3-0.8,2.3-2,2.3
				C224.1,243,223.4,242,223.4,240.7z M226.5,240.7L226.5,240.7c0-0.9-0.5-1.6-1.1-1.6c-0.7,0-1.1,0.7-1.1,1.6v0
				c0,0.9,0.4,1.6,1.1,1.6S226.5,241.6,226.5,240.7z"/>
			<path class="fp-eastatoe-st8" d="M228.2,239.9c0.4-0.1,0.6-0.3,0.6-0.6h-0.3v-0.9h0.9v0.8c0,0.7-0.3,1-1,1.1L228.2,239.9z"/>
			<path class="fp-eastatoe-st8" d="M232.4,242.3l1.5-1.3c0.6-0.5,0.8-0.8,0.8-1.2c0-0.4-0.3-0.7-0.7-0.7s-0.7,0.2-1,0.7l-0.6-0.4
				c0.4-0.6,0.9-0.9,1.7-0.9c0.9,0,1.5,0.5,1.5,1.3v0c0,0.7-0.4,1.1-1.2,1.7l-0.9,0.8h2.1v0.7h-3.3V242.3z"/>
			<path class="fp-eastatoe-st8" d="M236.5,239.9c0.4-0.1,0.6-0.3,0.6-0.6h-0.3v-0.9h0.9v0.8c0,0.7-0.3,1-1,1.1L236.5,239.9z M238,239.9
				c0.4-0.1,0.6-0.3,0.5-0.6h-0.3v-0.9h0.9v0.8c0,0.7-0.3,1-1,1.1L238,239.9z"/>
		</g>
		<g class="fp-eastatoe-st23">
			<path class="fp-eastatoe-st8" d="M198.7,452.5h-2.3v-0.7h3.2v0.6l-2,3.9h-0.9L198.7,452.5z"/>
			<path class="fp-eastatoe-st8" d="M200.5,453.3c0.4-0.1,0.6-0.3,0.6-0.6h-0.3v-0.9h0.9v0.8c0,0.7-0.3,1-1,1.1L200.5,453.3z"/>
			<path class="fp-eastatoe-st8" d="M204.7,455.7l1.5-1.3c0.6-0.5,0.8-0.8,0.8-1.2c0-0.4-0.3-0.7-0.7-0.7s-0.7,0.2-1,0.7l-0.6-0.4
				c0.4-0.6,0.9-0.9,1.7-0.9c0.9,0,1.5,0.5,1.5,1.3v0c0,0.7-0.4,1.1-1.2,1.7l-0.9,0.8h2.1v0.7h-3.3V455.7z"/>
			<path class="fp-eastatoe-st8" d="M208.8,453.3c0.4-0.1,0.6-0.3,0.6-0.6h-0.3v-0.9h0.9v0.8c0,0.7-0.3,1-1,1.1L208.8,453.3z M210.3,453.3
				c0.4-0.1,0.6-0.3,0.5-0.6h-0.3v-0.9h0.9v0.8c0,0.7-0.3,1-1,1.1L210.3,453.3z"/>
			<path class="fp-eastatoe-st8" d="M216.1,454.1l0.8-1.1h0.8l-1.2,1.7l1.2,1.7h-0.8l-0.8-1.2l-0.8,1.2h-0.8l1.2-1.7l-1.2-1.7h0.8L216.1,454.1z"
				/>
			<path class="fp-eastatoe-st8" d="M221.6,452.6l-0.8,0.2l-0.2-0.6l1.2-0.4h0.5v4.5h-0.8V452.6z"/>
			<path class="fp-eastatoe-st8" d="M223.5,455.6l0.6-0.5c0.3,0.4,0.7,0.6,1.2,0.6c0.4,0,0.8-0.3,0.8-0.7v0c0-0.4-0.4-0.7-1-0.7h-0.4l-0.1-0.5
				l1.2-1.3h-1.9v-0.7h3v0.6l-1.3,1.3c0.7,0.1,1.3,0.4,1.3,1.3v0c0,0.8-0.6,1.4-1.6,1.4C224.4,456.4,223.9,456.1,223.5,455.6z"/>
			<path class="fp-eastatoe-st8" d="M227.7,453.3c0.4-0.1,0.6-0.3,0.6-0.6h-0.3v-0.9h0.9v0.8c0,0.7-0.3,1-1,1.1L227.7,453.3z"/>
		</g>
		<g class="fp-eastatoe-st23">
			<path class="fp-eastatoe-st8" d="M361.9,342.1L361.9,342.1c0-1.5,1.1-2.8,2.7-2.8c1,0,1.6,0.3,2.1,0.8l-0.6,0.7c-0.4-0.4-0.9-0.7-1.5-0.7
				c-1,0-1.8,0.8-1.8,1.9v0c0,1,0.7,1.9,1.8,1.9c0.7,0,1.1-0.3,1.5-0.7l0.6,0.6c-0.6,0.6-1.2,0.9-2.2,0.9
				C363,344.9,361.9,343.7,361.9,342.1z"/>
		</g>
		<g class="fp-eastatoe-st23">
			<path class="fp-eastatoe-st8" d="M368,339.5h0.9v4.5h2.8v0.8H368V339.5z"/>
		</g>
		<g class="fp-eastatoe-st23">
			<path class="fp-eastatoe-st8" d="M372.5,342.1L372.5,342.1c0-1.5,1.2-2.8,2.8-2.8c1.6,0,2.8,1.2,2.8,2.7v0c0,1.5-1.2,2.7-2.8,2.7
				S372.5,343.6,372.5,342.1z M377,342.1L377,342.1c0-1-0.8-1.9-1.8-1.9s-1.8,0.8-1.8,1.9v0c0,1,0.8,1.9,1.8,1.9
				C376.3,344,377,343.2,377,342.1z"/>
		</g>
		<g class="fp-eastatoe-st23">
			<path class="fp-eastatoe-st8" d="M379.1,344l0.6-0.7c0.5,0.4,1,0.7,1.7,0.7c0.6,0,0.9-0.3,0.9-0.7v0c0-0.4-0.2-0.6-1.2-0.8
				c-1.1-0.3-1.8-0.6-1.8-1.6v0c0-0.9,0.8-1.5,1.8-1.5c0.8,0,1.4,0.2,1.9,0.7l-0.5,0.7c-0.5-0.4-1-0.5-1.4-0.5
				c-0.5,0-0.9,0.3-0.9,0.6v0c0,0.4,0.2,0.6,1.3,0.8c1.1,0.3,1.7,0.7,1.7,1.6v0c0,1-0.8,1.6-1.9,1.6
				C380.5,344.9,379.7,344.6,379.1,344z"/>
			<path class="fp-eastatoe-st8" d="M384.6,339.5h3.9v0.8h-3v1.4h2.7v0.8h-2.7v1.4h3v0.8h-4V339.5z"/>
			<path class="fp-eastatoe-st8" d="M391.3,340.3h-1.7v-0.9h4.3v0.9h-1.7v4.4h-0.9V340.3z"/>
		</g>
		<g class="fp-eastatoe-st23">
			<path class="fp-eastatoe-st8" d="M360.8,352.7l0.4-0.5c0.3,0.3,0.6,0.5,1,0.5c0.5,0,0.8-0.3,0.8-0.7v0c0-0.4-0.3-0.6-0.8-0.6
				c-0.3,0-0.5,0.1-0.7,0.2l-0.4-0.3l0.1-1.9h2.3v0.6h-1.7l-0.1,0.9c0.2-0.1,0.3-0.1,0.6-0.1c0.7,0,1.3,0.4,1.3,1.2v0
				c0,0.8-0.6,1.3-1.4,1.3C361.7,353.3,361.2,353,360.8,352.7z"/>
			<path class="fp-eastatoe-st8" d="M364.4,350.7c0.3-0.1,0.5-0.2,0.5-0.5h-0.3v-0.7h0.7v0.6c0,0.6-0.3,0.9-0.8,0.9L364.4,350.7z"/>
			<path class="fp-eastatoe-st8" d="M370.3,351.5c-0.2,0.3-0.5,0.4-0.9,0.4c-0.8,0-1.3-0.5-1.3-1.2v0c0-0.7,0.6-1.3,1.4-1.3
				c0.5,0,0.8,0.1,1.1,0.4c0.3,0.3,0.5,0.7,0.5,1.4v0c0,1.2-0.6,2.1-1.6,2.1c-0.5,0-0.9-0.2-1.2-0.5l0.4-0.5
				c0.3,0.2,0.5,0.4,0.9,0.4C370,352.7,370.3,352,370.3,351.5z M370.2,350.6L370.2,350.6c0-0.4-0.3-0.7-0.8-0.7
				c-0.5,0-0.8,0.3-0.8,0.7v0c0,0.4,0.3,0.7,0.8,0.7C369.9,351.3,370.2,351,370.2,350.6z"/>
			<path class="fp-eastatoe-st8" d="M371.7,350.7c0.3-0.1,0.5-0.2,0.5-0.5h-0.3v-0.7h0.7v0.6c0,0.6-0.3,0.9-0.8,0.9L371.7,350.7z M372.9,350.7
				c0.3-0.1,0.5-0.2,0.5-0.5h-0.3v-0.7h0.7v0.6c0,0.6-0.3,0.9-0.8,0.9L372.9,350.7z"/>
			<path class="fp-eastatoe-st8" d="M377.8,351.3l0.7-1h0.7l-1,1.4l1.1,1.5h-0.7l-0.7-1l-0.7,1h-0.7l1-1.5l-1-1.4h0.7L377.8,351.3z"/>
			<path class="fp-eastatoe-st8" d="M382.2,352.9c-0.3-0.3-0.5-0.7-0.5-1.4v0c0-1.2,0.6-2.1,1.6-2.1c0.5,0,0.8,0.2,1.2,0.4l-0.4,0.5
				c-0.3-0.2-0.5-0.3-0.8-0.3c-0.7,0-0.9,0.7-0.9,1.2c0.2-0.2,0.5-0.4,0.9-0.4c0.7,0,1.3,0.4,1.3,1.2v0c0,0.8-0.6,1.3-1.4,1.3
				C382.8,353.3,382.5,353.1,382.2,352.9z M384,352L384,352c0-0.4-0.3-0.7-0.8-0.7c-0.5,0-0.8,0.3-0.8,0.7v0c0,0.4,0.3,0.7,0.8,0.7
				C383.7,352.7,384,352.4,384,352z"/>
			<path class="fp-eastatoe-st8" d="M385.4,350.7c0.3-0.1,0.5-0.2,0.5-0.5h-0.3v-0.7h0.7v0.6c0,0.6-0.3,0.9-0.8,0.9L385.4,350.7z"/>
			<path class="fp-eastatoe-st8" d="M389,352.6l0.5-0.4c0.3,0.3,0.6,0.5,1,0.5c0.4,0,0.7-0.2,0.7-0.6v0c0-0.4-0.3-0.6-0.9-0.6h-0.3l-0.1-0.4
				l1-1.1h-1.6v-0.6h2.5v0.5l-1.1,1.1c0.6,0.1,1.1,0.4,1.1,1.1v0c0,0.7-0.5,1.2-1.3,1.2C389.8,353.3,389.3,353,389,352.6z"/>
			<path class="fp-eastatoe-st8" d="M392.5,350.7c0.3-0.1,0.5-0.2,0.5-0.5h-0.3v-0.7h0.7v0.6c0,0.6-0.3,0.9-0.8,0.9L392.5,350.7z M393.8,350.7
				c0.3-0.1,0.5-0.2,0.5-0.5H394v-0.7h0.7v0.6c0,0.6-0.3,0.9-0.8,0.9L393.8,350.7z"/>
		</g>
		<g class="fp-eastatoe-st23">
			<path class="fp-eastatoe-st8" d="M350.1,429.5l0.4-0.5c0.3,0.3,0.6,0.5,1,0.5c0.5,0,0.8-0.3,0.8-0.7v0c0-0.4-0.3-0.6-0.8-0.6
				c-0.3,0-0.5,0.1-0.7,0.2l-0.4-0.3l0.1-1.9h2.3v0.6h-1.7l-0.1,0.9c0.2-0.1,0.3-0.1,0.6-0.1c0.7,0,1.3,0.4,1.3,1.2v0
				c0,0.8-0.6,1.3-1.4,1.3C350.9,430.1,350.5,429.9,350.1,429.5z"/>
			<path class="fp-eastatoe-st8" d="M353.7,427.5c0.3-0.1,0.5-0.2,0.5-0.5h-0.3v-0.7h0.7v0.6c0,0.6-0.3,0.9-0.8,0.9L353.7,427.5z"/>
			<path class="fp-eastatoe-st8" d="M359.5,428.3c-0.2,0.3-0.5,0.4-0.9,0.4c-0.8,0-1.3-0.5-1.3-1.2v0c0-0.7,0.6-1.3,1.4-1.3
				c0.5,0,0.8,0.1,1.1,0.4c0.3,0.3,0.5,0.7,0.5,1.4v0c0,1.2-0.6,2.1-1.6,2.1c-0.5,0-0.9-0.2-1.2-0.5l0.4-0.5
				c0.3,0.2,0.5,0.4,0.9,0.4C359.3,429.5,359.5,428.8,359.5,428.3z M359.5,427.5L359.5,427.5c0-0.4-0.3-0.7-0.8-0.7
				c-0.5,0-0.8,0.3-0.8,0.7v0c0,0.4,0.3,0.7,0.8,0.7C359.2,428.2,359.5,427.9,359.5,427.5z"/>
			<path class="fp-eastatoe-st8" d="M361,427.5c0.3-0.1,0.5-0.2,0.5-0.5h-0.3v-0.7h0.7v0.6c0,0.6-0.3,0.9-0.8,0.9L361,427.5z M362.2,427.5
				c0.3-0.1,0.5-0.2,0.5-0.5h-0.3v-0.7h0.7v0.6c0,0.6-0.3,0.9-0.8,0.9L362.2,427.5z"/>
			<path class="fp-eastatoe-st8" d="M367.1,428.2l0.7-1h0.7l-1,1.4l1.1,1.5h-0.7l-0.7-1l-0.7,1h-0.7l1-1.5l-1-1.4h0.7L367.1,428.2z"/>
			<path class="fp-eastatoe-st8" d="M371,429L371,429c0-0.5,0.3-0.8,0.7-0.9c-0.3-0.2-0.6-0.4-0.6-0.8v0c0-0.6,0.6-1,1.3-1s1.3,0.4,1.3,1v0
				c0,0.4-0.2,0.7-0.6,0.8c0.4,0.2,0.7,0.5,0.7,0.9v0c0,0.7-0.6,1.1-1.4,1.1S371,429.7,371,429z M373.2,429L373.2,429
				c0-0.4-0.3-0.6-0.8-0.6s-0.8,0.2-0.8,0.6v0c0,0.3,0.3,0.6,0.8,0.6S373.2,429.3,373.2,429z M373.1,427.3L373.1,427.3
				c0-0.3-0.3-0.5-0.7-0.5s-0.7,0.2-0.7,0.5v0c0,0.3,0.3,0.6,0.7,0.6S373.1,427.6,373.1,427.3z"/>
			<path class="fp-eastatoe-st8" d="M374.6,427.5c0.3-0.1,0.5-0.2,0.5-0.5h-0.3v-0.7h0.7v0.6c0,0.6-0.3,0.9-0.8,0.9L374.6,427.5z"/>
			<path class="fp-eastatoe-st8" d="M378.1,429L378.1,429c0-0.5,0.3-0.8,0.7-0.9c-0.3-0.2-0.6-0.4-0.6-0.8v0c0-0.6,0.6-1,1.3-1
				c0.8,0,1.3,0.4,1.3,1v0c0,0.4-0.2,0.7-0.6,0.8c0.4,0.2,0.7,0.5,0.7,0.9v0c0,0.7-0.6,1.1-1.4,1.1
				C378.8,430.1,378.1,429.7,378.1,429z M380.4,429L380.4,429c0-0.4-0.3-0.6-0.8-0.6c-0.5,0-0.8,0.2-0.8,0.6v0
				c0,0.3,0.3,0.6,0.8,0.6C380.1,429.6,380.4,429.3,380.4,429z M380.3,427.3L380.3,427.3c0-0.3-0.3-0.5-0.7-0.5
				c-0.4,0-0.7,0.2-0.7,0.5v0c0,0.3,0.3,0.6,0.7,0.6C380,427.9,380.3,427.6,380.3,427.3z"/>
			<path class="fp-eastatoe-st8" d="M381.7,427.5c0.3-0.1,0.5-0.2,0.5-0.5h-0.3v-0.7h0.7v0.6c0,0.6-0.3,0.9-0.8,0.9L381.7,427.5z M383,427.5
				c0.3-0.1,0.5-0.2,0.5-0.5h-0.3v-0.7h0.7v0.6c0,0.6-0.3,0.9-0.8,0.9L383,427.5z"/>
		</g>
		<g class="fp-eastatoe-st23">
			<path class="fp-eastatoe-st8" d="M187.5,439.8h1.3v3.8l3.6-3.8h1.6l-3.2,3.3l3.3,4.3h-1.6L190,444l-1.2,1.2v2.2h-1.3V439.8z"/>
			<path class="fp-eastatoe-st8" d="M195.8,439.8h1.3v7.6h-1.3V439.8z"/>
		</g>
		<g class="fp-eastatoe-st23">
			<path class="fp-eastatoe-st8" d="M201.5,441.1h-2.4v-1.2h6.2v1.2h-2.4v6.3h-1.3V441.1z"/>
		</g>
		<g class="fp-eastatoe-st23">
			<path class="fp-eastatoe-st8" d="M206.3,443.7L206.3,443.7c0-2.2,1.6-3.9,3.9-3.9c1.4,0,2.2,0.5,3,1.2l-0.9,1c-0.6-0.6-1.3-0.9-2.1-0.9
				c-1.4,0-2.5,1.2-2.5,2.7v0c0,1.5,1.1,2.7,2.5,2.7c0.9,0,1.5-0.4,2.2-1l0.9,0.9c-0.8,0.8-1.7,1.3-3.1,1.3
				C208,447.6,206.3,445.8,206.3,443.7z"/>
			<path class="fp-eastatoe-st8" d="M215.1,439.8h1.3v3.2h3.6v-3.2h1.3v7.6h-1.3v-3.2h-3.6v3.2h-1.3V439.8z"/>
			<path class="fp-eastatoe-st8" d="M223.8,439.8h5.6v1.2h-4.3v2h3.8v1.2h-3.8v2h4.3v1.2h-5.7V439.8z"/>
			<path class="fp-eastatoe-st8" d="M231.5,439.8h1.2l4.1,5.2v-5.2h1.3v7.6H237l-4.2-5.4v5.4h-1.3V439.8z"/>
		</g>
		<circle class="fp-eastatoe-st9" cx="322.3" cy="491.4" r="15.5"/>
		<g class="fp-eastatoe-st23">
			<path class="fp-eastatoe-st8" d="M313.3,489.1h0.8v1.9h2.2v-1.9h0.8v4.5h-0.8v-1.9h-2.2v1.9h-0.8V489.1z"/>
		</g>
		<g class="fp-eastatoe-st23">
			<path class="fp-eastatoe-st8" d="M318.1,489.1h0.9l1.4,3.5l1.4-3.5h0.9l-1.9,4.6H320L318.1,489.1z"/>
		</g>
		<g class="fp-eastatoe-st23">
			<path class="fp-eastatoe-st8" d="M324.6,489h0.7l2,4.6h-0.8l-0.5-1.1h-2.2l-0.5,1.1h-0.8L324.6,489z M325.8,491.8L325,490l-0.8,1.8H325.8z"/>
		</g>
		<g class="fp-eastatoe-st23">
			<path class="fp-eastatoe-st8" d="M327.9,491.4L327.9,491.4c0-1.3,1-2.4,2.3-2.4c0.8,0,1.3,0.3,1.8,0.7l-0.5,0.6c-0.4-0.3-0.8-0.6-1.3-0.6
				c-0.9,0-1.5,0.7-1.5,1.6v0c0,0.9,0.6,1.6,1.5,1.6c0.6,0,0.9-0.2,1.3-0.6l0.5,0.5c-0.5,0.5-1,0.8-1.8,0.8
				C328.9,493.7,327.9,492.7,327.9,491.4z"/>
		</g>
		<g class="fp-eastatoe-st23">
			<path class="fp-eastatoe-st8" d="M356.5,417.4h2.4c0.6,0,1.1,0.2,1.4,0.5c0.2,0.2,0.4,0.5,0.4,0.9v0c0,0.6-0.4,1-0.8,1.2
				c0.6,0.2,1.1,0.6,1.1,1.3v0c0,0.9-0.8,1.5-2,1.5h-2.5V417.4z M359.7,418.9c0-0.4-0.3-0.7-0.9-0.7h-1.3v1.4h1.3
				C359.3,419.6,359.7,419.4,359.7,418.9L359.7,418.9z M358.9,420.4h-1.5v1.5h1.5c0.6,0,1-0.3,1-0.7v0
				C360,420.7,359.6,420.4,358.9,420.4z"/>
		</g>
		<g class="fp-eastatoe-st23">
			<path class="fp-eastatoe-st8" d="M364.2,417.4h0.9l2.3,5.3h-1l-0.5-1.3h-2.5l-0.5,1.3h-1L364.2,417.4z M365.5,420.6l-0.9-2.1l-0.9,2.1H365.5z
				"/>
		</g>
		<g class="fp-eastatoe-st23">
			<path class="fp-eastatoe-st8" d="M369.2,418.3h-1.7v-0.9h4.3v0.9h-1.7v4.4h-0.9V418.3z"/>
			<path class="fp-eastatoe-st8" d="M373.1,417.4h0.9v2.2h2.5v-2.2h0.9v5.3h-0.9v-2.2h-2.5v2.2h-0.9V417.4z"/>
		</g>
		<g class="fp-eastatoe-st23">
			<path class="fp-eastatoe-st8" d="M308.7,444.1h0.5v2.5h1.6v0.5h-2.1V444.1z"/>
		</g>
		<g class="fp-eastatoe-st23">
			<path class="fp-eastatoe-st8" d="M312.6,444h0.5l1.3,3h-0.6l-0.3-0.7h-1.4l-0.3,0.7h-0.5L312.6,444z M313.4,445.9l-0.5-1.2l-0.5,1.2H313.4z"
				/>
		</g>
		<g class="fp-eastatoe-st23">
			<path class="fp-eastatoe-st8" d="M315,445.8v-1.7h0.5v1.7c0,0.6,0.3,0.9,0.8,0.9c0.5,0,0.8-0.3,0.8-0.8v-1.7h0.5v1.7c0,0.9-0.5,1.3-1.3,1.3
				C315.5,447.1,315,446.7,315,445.8z"/>
			<path class="fp-eastatoe-st8" d="M318.4,444.1h0.5l1.6,2.1v-2.1h0.5v3h-0.4l-1.7-2.1v2.1h-0.5V444.1z"/>
			<path class="fp-eastatoe-st8" d="M322,444.1h1.1c0.9,0,1.6,0.6,1.6,1.5v0c0,0.8-0.7,1.5-1.6,1.5H322V444.1z M322.5,444.5v2h0.6
				c0.6,0,1-0.4,1-1v0c0-0.6-0.4-1-1-1H322.5z"/>
		</g>
		<g class="fp-eastatoe-st23">
			<path class="fp-eastatoe-st8" d="M325.5,444.1h1.3c0.4,0,0.7,0.1,0.9,0.3c0.2,0.2,0.2,0.4,0.2,0.6v0c0,0.5-0.3,0.8-0.7,0.9l0.8,1.1h-0.6
				l-0.7-1H326v1h-0.5V444.1z M326.8,445.5c0.4,0,0.6-0.2,0.6-0.5v0c0-0.3-0.2-0.5-0.6-0.5H326v1H326.8z"/>
		</g>
		<g class="fp-eastatoe-st23">
			<path class="fp-eastatoe-st8" d="M329.6,445.9l-1.2-1.8h0.6l0.8,1.3l0.8-1.3h0.6l-1.2,1.8v1.2h-0.5V445.9z"/>
		</g>
		<rect x="0.5" y="0.5" class="fp-eastatoe-st24" width="557.3" height="557.3"/>
	</g>
</g>
</svg>
