<?xml version="1.0" encoding="utf-8"?>
<!-- Generator: Adobe Illustrator 21.1.0, SVG Export Plug-In . SVG Version: 6.00 Build 0)  -->
<svg version="1.1" id="Layer_1" xmlns="http://www.w3.org/2000/svg" xmlns:xlink="http://www.w3.org/1999/xlink" x="0px" y="0px"
	 viewBox="0 0 558.3 558.3" style="enable-background:new 0 0 558.3 558.3;" xml:space="preserve">
<style type="text/css">
	.fp-jocassee-st0{fill:#E4E9E4;}
	.fp-jocassee-st1{fill:none;stroke:#A6A8AB;stroke-width:0.27;stroke-miterlimit:10;}
	.fp-jocassee-st2{fill:#C8D0C9;stroke:#32553B;stroke-width:0.24;stroke-miterlimit:10;}
	.fp-jocassee-st3{fill:#32553B;}
	.fp-jocassee-st4{fill:#E4E9E4;stroke:#32553B;stroke-width:0.31;stroke-miterlimit:10;}
	.fp-jocassee-st5{fill:#C8D0C9;stroke:#32553B;stroke-width:0.27;stroke-miterlimit:10;}
	.fp-jocassee-st6{fill:none;stroke:#32553B;stroke-width:0.27;stroke-miterlimit:10;}
	.fp-jocassee-st7{fill:none;stroke:#E4E9E4;stroke-width:7.59;stroke-linejoin:round;}
	.fp-jocassee-st8{fill:none;stroke:#32553B;stroke-width:7.59;stroke-linejoin:round;}
	.fp-jocassee-st9{fill:none;stroke:#32553B;stroke-width:4.33;stroke-linejoin:round;}
	.fp-jocassee-st10{fill:none;stroke:#32553B;stroke-width:4.33;stroke-miterlimit:10;}
	.fp-jocassee-st11{fill:none;stroke:#799900;stroke-width:0.27;stroke-miterlimit:10;}
	.fp-jocassee-st12{fill:#FFFFFF;stroke:#62A044;stroke-width:0.27;stroke-miterlimit:10;}
	.fp-jocassee-st13{fill:none;stroke:#799900;stroke-width:0.29;stroke-miterlimit:10;}
	.fp-jocassee-st14{fill:#FFFFFF;stroke:#62A044;stroke-width:0.29;stroke-miterlimit:10;}
	.fp-jocassee-st15{fill:#FFFFFF;stroke:#62A044;stroke-width:0.3;stroke-miterlimit:10;}
	.fp-jocassee-st16{fill:none;stroke:#799900;stroke-width:0.3;stroke-miterlimit:10;}
	.fp-jocassee-st17{fill:#E4E9E4;stroke:#32553B;stroke-width:0.27;stroke-miterlimit:10;}
	.fp-jocassee-st18{fill:none;stroke:#799900;stroke-width:0.16;stroke-miterlimit:10;}
	.fp-jocassee-st19{fill:#FFFFFF;stroke:#62A044;stroke-width:0.16;stroke-miterlimit:10;}
	.fp-jocassee-st20{fill:none;stroke:#32553B;stroke-width:1.08;stroke-miterlimit:10;}
	.fp-jocassee-st21{fill:#F5F7F5;}
	.fp-jocassee-st22{enable-background:new    ;}
	.fp-jocassee-st23{fill:#C8D0C9;stroke:#32553B;stroke-width:0.25;stroke-miterlimit:10;}
	.fp-jocassee-st24{fill:none;stroke:#32553B;stroke-width:0.25;stroke-miterlimit:10;}
	.fp-jocassee-st25{fill:none;stroke:#F5F7F5;stroke-miterlimit:10;}
</style>
<title>fp_jocassee</title>
<g id="Layer_2">
	<g id="DESIGN">
		<polygon class="fp-jocassee-st0" points="269.5,113.4 138.9,113.4 138.9,322.1 138.9,328.6 138.9,364.4 190.3,364.4 190.3,328.6 269.5,328.6 
					"/>
		<line class="fp-jocassee-st1" x1="270" y1="144.8" x2="418.9" y2="144.8"/>
		<line class="fp-jocassee-st1" x1="270" y1="157.4" x2="418.9" y2="157.4"/>
		<line class="fp-jocassee-st1" x1="270" y1="170" x2="418.9" y2="170"/>
		<line class="fp-jocassee-st1" x1="270" y1="182.7" x2="418.9" y2="182.7"/>
		<line class="fp-jocassee-st1" x1="270" y1="195.3" x2="418.9" y2="195.3"/>
		<line class="fp-jocassee-st1" x1="270" y1="208" x2="418.9" y2="208"/>
		<line class="fp-jocassee-st1" x1="270" y1="220.6" x2="418.9" y2="220.6"/>
		<line class="fp-jocassee-st1" x1="270" y1="233.2" x2="418.9" y2="233.2"/>
		<line class="fp-jocassee-st1" x1="270" y1="245.9" x2="418.9" y2="245.9"/>
		<line class="fp-jocassee-st1" x1="270" y1="258.5" x2="418.9" y2="258.5"/>
		<line class="fp-jocassee-st1" x1="270" y1="271.2" x2="418.9" y2="271.2"/>
		<line class="fp-jocassee-st1" x1="270" y1="283.8" x2="418.9" y2="283.8"/>
		<line class="fp-jocassee-st1" x1="270" y1="296.5" x2="418.9" y2="296.5"/>
		<line class="fp-jocassee-st1" x1="270" y1="309.1" x2="418.9" y2="309.1"/>
		<line class="fp-jocassee-st1" x1="270" y1="321.7" x2="418.9" y2="321.7"/>
		<line class="fp-jocassee-st1" x1="189.4" y1="334.4" x2="418.9" y2="334.4"/>
		<line class="fp-jocassee-st1" x1="189.4" y1="347" x2="418.9" y2="347"/>
		<line class="fp-jocassee-st1" x1="189.4" y1="359.6" x2="418.9" y2="359.6"/>
		<line class="fp-jocassee-st1" x1="138.9" y1="372.3" x2="418.9" y2="372.3"/>
		<line class="fp-jocassee-st1" x1="138.9" y1="384.9" x2="418.9" y2="384.9"/>
		<line class="fp-jocassee-st1" x1="138.9" y1="397.6" x2="418.9" y2="397.6"/>
		<line class="fp-jocassee-st1" x1="138.9" y1="410.2" x2="418.9" y2="410.2"/>
		<line class="fp-jocassee-st1" x1="138.9" y1="422.9" x2="418.9" y2="422.9"/>
		<line class="fp-jocassee-st1" x1="138.9" y1="435.5" x2="418.9" y2="435.5"/>
		<line class="fp-jocassee-st1" x1="139.1" y1="448.1" x2="418.9" y2="448.1"/>
		<line class="fp-jocassee-st1" x1="139.1" y1="460.8" x2="418.9" y2="460.8"/>
		<line class="fp-jocassee-st1" x1="138.9" y1="473.4" x2="418.9" y2="473.4"/>
		<line class="fp-jocassee-st1" x1="139.1" y1="486" x2="418.9" y2="486"/>
		<line class="fp-jocassee-st1" x1="139.1" y1="498.7" x2="318.3" y2="498.7"/>
		<line class="fp-jocassee-st1" x1="270" y1="283.8" x2="418.9" y2="283.8"/>
		<rect x="138.2" y="385.3" class="fp-jocassee-st2" width="21.5" height="48"/>
		<polyline class="fp-jocassee-st2" points="139.8,438.2 144.9,438.2 144.9,462.6 139.8,462.6 		"/>
		<path class="fp-jocassee-st2" d="M156.8,445c-0.5,0.2-1,0.4-1.6,0.4h-3.1c-0.5,0-1-0.3-1-0.8c0-0.1,0-0.1,0-0.2v12c0-0.5,0.3-1,0.8-1
			c0.1,0,0.1,0,0.2,0h3.1c0.5,0,1.1,0.1,1.6,0.4"/>
		<ellipse class="fp-jocassee-st2" cx="162.6" cy="450.4" rx="9.4" ry="6.9"/>
		<rect x="144.4" y="440" class="fp-jocassee-st2" width="6.8" height="20.9"/>
		<rect x="144.2" y="471.6" class="fp-jocassee-st2" width="60.7" height="34.2"/>
		<path class="fp-jocassee-st2" d="M200.8,489.1c0,0,0.2-13.3-5.1-13.3h-44.7c0,0-4.2-0.2-4.2,3.9v9.4l0,0v9.4c0,4.1,4.2,3.9,4.2,3.9h44.7
			C201,502.5,200.8,489.2,200.8,489.1L200.8,489.1z"/>
		<path class="fp-jocassee-st2" d="M148.6,489.3c0,0.9-0.3,1.8-0.9,2.5l-2.7-2.4v-0.1l2.7-2.4C148.2,487.5,148.6,488.4,148.6,489.3"/>
		<rect x="137.1" y="469.3" class="fp-jocassee-st3" width="8.9" height="38.3"/>
		<polygon class="fp-jocassee-st4" points="310.9,338.8 310.9,382.3 388.8,382.3 388.8,458.4 374.8,458.4 374.8,486.3 417.8,486.3 417.8,458.4 
			418.4,458.4 418.4,382.3 418.8,382.3 418.8,338.8 		"/>
		<polygon class="fp-jocassee-st5" points="387.3,440.2 386.2,440.2 386.2,406.7 415.9,406.7 415.9,440.2 		"/>
		<circle class="fp-jocassee-st5" cx="403.7" cy="413.9" r="5"/>
		<circle class="fp-jocassee-st5" cx="392.9" cy="413.9" r="3.9"/>
		<circle class="fp-jocassee-st5" cx="392.9" cy="433" r="3.2"/>
		<circle class="fp-jocassee-st5" cx="403.7" cy="433" r="3.2"/>
		<line class="fp-jocassee-st6" x1="409.5" y1="406.7" x2="409.5" y2="440.2"/>
		<line class="fp-jocassee-st7" x1="396.3" y1="131.2" x2="322.8" y2="131.2"/>
		<rect x="322.8" y="130.9" class="fp-jocassee-st3" width="75.4" height="0.6"/>
		<polyline class="fp-jocassee-st8" points="391.3,131.2 418.6,131.2 418.6,486.6 318.3,486.6 318.3,508.9 293.6,508.9 		"/>
		<polyline class="fp-jocassee-st8" points="258,508.9 138.9,508.9 138.9,113.4 269.2,113.4 269.2,131.2 288.7,131.2 		"/>
		<polyline class="fp-jocassee-st9" points="269.2,353.9 269.2,57.1 416.2,57.1 416.2,131.2 		"/>
		<polyline class="fp-jocassee-st10" points="210.5,281.4 218.2,281.4 218.2,333.7 		"/>
		<line class="fp-jocassee-st10" x1="138.9" y1="281.4" x2="176.6" y2="281.4"/>
		<polyline class="fp-jocassee-st10" points="224.4,328.8 189.4,328.8 189.4,364.3 		"/>
		<line class="fp-jocassee-st10" x1="269.3" y1="328.8" x2="259.4" y2="328.8"/>
		<polyline class="fp-jocassee-st10" points="218.2,358.9 218.2,364.4 138.9,364.4 		"/>
		<line class="fp-jocassee-st10" x1="205.8" y1="364.4" x2="205.8" y2="370.8"/>
		<line class="fp-jocassee-st10" x1="205.8" y1="405.6" x2="205.8" y2="508.6"/>
		<line class="fp-jocassee-st10" x1="318.3" y1="486.6" x2="318.3" y2="458.1"/>
		<line class="fp-jocassee-st10" x1="205.8" y1="460.1" x2="251.2" y2="460.1"/>
		<line class="fp-jocassee-st10" x1="251.2" y1="508.9" x2="251.2" y2="501.5"/>
		<line class="fp-jocassee-st10" x1="251.2" y1="466.5" x2="251.2" y2="417.7"/>
		<line class="fp-jocassee-st10" x1="205.8" y1="417.5" x2="212" y2="417.5"/>
		<polyline class="fp-jocassee-st10" points="244.7,417.5 269.2,417.5 269.2,395.3 		"/>
		<polyline class="fp-jocassee-st10" points="418.6,341 402.4,341 402.4,354.4 419.1,354.4 		"/>
		<line class="fp-jocassee-st7" x1="241.2" y1="113.4" x2="169.5" y2="113.4"/>
		<rect x="169.5" y="110.9" class="fp-jocassee-st3" width="72.4" height="0.6"/>
		<rect x="189.8" y="111.2" class="fp-jocassee-st3" width="0.6" height="4.5"/>
		<rect x="169.5" y="115.4" class="fp-jocassee-st3" width="72.4" height="0.6"/>
		<rect x="169.5" y="113.2" class="fp-jocassee-st3" width="72.4" height="0.6"/>
		<line class="fp-jocassee-st10" x1="251.2" y1="439.9" x2="271.1" y2="439.9"/>
		<line class="fp-jocassee-st8" x1="322.8" y1="131.2" x2="328.4" y2="131.2"/>
		<line class="fp-jocassee-st8" x1="354.9" y1="131.2" x2="364.4" y2="131.2"/>
		<rect x="321.5" y="450.9" class="fp-jocassee-st5" width="33.4" height="31.2"/>
		<path class="fp-jocassee-st5" d="M362.9,363.5v15.6c0,1.3-1,2.3-2.3,2.3H334c-1.3,0-2.3-1-2.3-2.3v-15.6c0-1.3,1-2.3,2.3-2.3h26.7
			C361.9,361.2,362.9,362.2,362.9,363.5z"/>
		<circle class="fp-jocassee-st5" cx="347.3" cy="371.3" r="1.7"/>
		<path class="fp-jocassee-st2" d="M157.7,402.5v13.6c0,1.2-1,2.2-2.2,2.2h-9c-1.2,0-2.2-1-2.2-2.2v-13.6c0-1.2,1-2.2,2.2-2.2h9
			C156.7,400.3,157.7,401.3,157.7,402.5z"/>
		<circle class="fp-jocassee-st2" cx="149.1" cy="409.3" r="1.5"/>
		<path class="fp-jocassee-st11" d="M293.5,503.8c0-5.6,0.2-14.2-10.3-24.6"/>
		
			<rect x="253.5" y="491.4" transform="matrix(0.7071 -0.7071 0.7071 0.7071 -268.697 336.0206)" class="fp-jocassee-st12" width="35.6" height="1.9"/>
		<path class="fp-jocassee-st11" d="M255.2,467.3c5.1,0,13-0.2,22.5,9.5"/>
		
			<rect x="249.4" y="486.8" transform="matrix(0.7071 -0.7071 0.7071 0.7071 -266.9994 330.6888)" class="fp-jocassee-st12" width="32.5" height="1.7"/>
		<path class="fp-jocassee-st13" d="M202.5,405.5c-5.4,0-13.8,0.2-24-10.1"/>
		
			<rect x="174.1" y="382.9" transform="matrix(0.7071 -0.7071 0.7071 0.7071 -215.3481 247.7598)" class="fp-jocassee-st14" width="34.6" height="1.8"/>
		<rect x="211.1" y="381.3" class="fp-jocassee-st15" width="1.7" height="32.8"/>
		<path class="fp-jocassee-st16" d="M212.9,381.3c17.1,0,33.1,13.8,33.1,33"/>
		<rect x="257.8" y="292.8" class="fp-jocassee-st15" width="1.7" height="32.8"/>
		<path class="fp-jocassee-st16" d="M257.8,292.8c-17.1,0-33.1,13.8-33.1,33"/>
		<rect x="209.6" y="284.1" class="fp-jocassee-st15" width="1.7" height="32.8"/>
		<path class="fp-jocassee-st16" d="M209.6,316.9c-17.1,0-33.1-13.8-33.1-33"/>
		<rect x="288" y="92.9" class="fp-jocassee-st15" width="1.7" height="32.8"/>
		<path class="fp-jocassee-st16" d="M289.8,92.9c17.1,0,33.1,13.8,33.1,33"/>
		<path class="fp-jocassee-st11" d="M221.2,359.2c0,0,9.5,0.2,16.5-6.5"/>
		
			<rect x="228.7" y="330.8" transform="matrix(0.7071 -0.7071 0.7071 0.7071 -175.5862 262.762)" class="fp-jocassee-st12" width="1.4" height="25"/>
		<rect x="355" y="459.1" class="fp-jocassee-st17" width="2.4" height="1.4"/>
		<rect x="372.4" y="459.1" class="fp-jocassee-st17" width="2.4" height="1.4"/>
		<line class="fp-jocassee-st6" x1="373.4" y1="462.4" x2="356.5" y2="462.4"/>
		<line class="fp-jocassee-st6" x1="372.4" y1="459.8" x2="357.4" y2="459.8"/>
		<polyline class="fp-jocassee-st6" points="373.4,460.5 373.4,481.6 356.5,481.6 356.5,460.5 		"/>
		<path class="fp-jocassee-st18" d="M372.4,458.3c-0.1-3.7-1.5-7.2-3.9-9.9"/>
		
			<rect x="355.4" y="453" transform="matrix(0.7071 -0.7071 0.7071 0.7071 -214.3033 389.4239)" class="fp-jocassee-st19" width="15" height="0.8"/>
		<path class="fp-jocassee-st18" d="M160.7,383.6c3.7-0.1,7.2-1.5,10-3.9"/>
		
			<rect x="165.3" y="366.4" transform="matrix(0.7071 -0.7071 0.7071 0.7071 -215.9423 226.7062)" class="fp-jocassee-st19" width="0.8" height="15.2"/>
		<polyline class="fp-jocassee-st20" points="138.9,367.9 159.3,367.9 159.3,369.9 		"/>
		<polyline class="fp-jocassee-st20" points="138.9,384.1 159.3,384.1 159.3,382.1 		"/>
		<rect x="316" y="227.3" class="fp-jocassee-st21" width="59" height="17.2"/>
		<rect x="314.1" y="404" class="fp-jocassee-st21" width="60.5" height="17.2"/>
		<rect x="201.3" y="339.7" class="fp-jocassee-st21" width="7.1" height="14.4"/>
		<g class="fp-jocassee-st22">
			<path class="fp-jocassee-st3" d="M175.3,190.4h3.4c0.9,0,1.5,0.2,2,0.7c0.3,0.3,0.5,0.7,0.5,1.3v0c0,0.9-0.5,1.4-1.1,1.7
				c0.9,0.3,1.5,0.8,1.5,1.8v0c0,1.4-1.1,2.1-2.8,2.1h-3.5V190.4z M179.9,192.5c0-0.6-0.5-1-1.3-1h-1.9v2h1.8
				C179.3,193.6,179.9,193.2,179.9,192.5L179.9,192.5z M178.8,194.7h-2.1v2.1h2.2c0.9,0,1.5-0.4,1.5-1v0
				C180.3,195.1,179.8,194.7,178.8,194.7z"/>
			<path class="fp-jocassee-st3" d="M183.6,190.4h5.6v1.2h-4.3v2h3.8v1.2h-3.8v2h4.3v1.2h-5.7V190.4z"/>
			<path class="fp-jocassee-st3" d="M191.3,190.4h2.8c2.4,0,4,1.6,4,3.8v0c0,2.1-1.6,3.8-4,3.8h-2.8V190.4z M192.6,191.6v5.2h1.5
				c1.6,0,2.6-1.1,2.6-2.6v0c0-1.5-1-2.6-2.6-2.6H192.6z"/>
			<path class="fp-jocassee-st3" d="M200.2,190.4h3.4c1,0,1.7,0.3,2.2,0.8c0.4,0.4,0.6,1,0.6,1.6v0c0,1.2-0.7,2-1.8,2.3l2,2.9h-1.6l-1.9-2.6
				h-1.7v2.6h-1.3V190.4z M203.5,194.1c1,0,1.6-0.5,1.6-1.3v0c0-0.8-0.6-1.3-1.6-1.3h-1.9v2.5H203.5z"/>
			<path class="fp-jocassee-st3" d="M208.1,194.2L208.1,194.2c0-2.2,1.6-3.9,4-3.9s4,1.8,4,3.9v0c0,2.1-1.6,3.9-4,3.9
				C209.8,198.1,208.1,196.3,208.1,194.2z M214.7,194.2L214.7,194.2c0-1.5-1.1-2.7-2.6-2.7c-1.5,0-2.6,1.2-2.6,2.7v0
				c0,1.5,1.1,2.7,2.6,2.7S214.7,195.6,214.7,194.2z"/>
			<path class="fp-jocassee-st3" d="M217.8,194.2L217.8,194.2c0-2.2,1.6-3.9,4-3.9s4,1.8,4,3.9v0c0,2.1-1.6,3.9-4,3.9
				C219.4,198.1,217.8,196.3,217.8,194.2z M224.3,194.2L224.3,194.2c0-1.5-1.1-2.7-2.6-2.7c-1.5,0-2.6,1.2-2.6,2.7v0
				c0,1.5,1.1,2.7,2.6,2.7S224.3,195.6,224.3,194.2z"/>
			<path class="fp-jocassee-st3" d="M227.8,190.4h1.4l2.3,3.6l2.3-3.6h1.4v7.6h-1.3v-5.4l-2.4,3.6h0l-2.4-3.6v5.4h-1.3V190.4z"/>
		</g>
		<g class="fp-jocassee-st22">
			<path class="fp-jocassee-st3" d="M187.2,205l-0.8,0.2l-0.2-0.6l1.2-0.4h0.5v4.5h-0.8V205z"/>
			<path class="fp-jocassee-st3" d="M189.3,206.5L189.3,206.5c0-1.3,0.8-2.3,2-2.3c1.2,0,2,1,2,2.3v0c0,1.3-0.8,2.3-2,2.3
				C190,208.8,189.3,207.8,189.3,206.5z M192.4,206.5L192.4,206.5c0-0.9-0.5-1.6-1.1-1.6c-0.7,0-1.1,0.7-1.1,1.6v0
				c0,0.9,0.4,1.6,1.1,1.6S192.4,207.4,192.4,206.5z"/>
			<path class="fp-jocassee-st3" d="M194.1,205.7c0.4-0.1,0.6-0.3,0.6-0.6h-0.3v-0.9h0.9v0.8c0,0.7-0.3,1-1,1.1L194.1,205.7z"/>
			<path class="fp-jocassee-st3" d="M199.1,205l-0.8,0.2l-0.2-0.6l1.2-0.4h0.5v4.5h-0.8V205z"/>
			<path class="fp-jocassee-st3" d="M201.9,205l-0.8,0.2l-0.2-0.6l1.2-0.4h0.5v4.5h-0.8V205z"/>
			<path class="fp-jocassee-st3" d="M203.8,205.7c0.4-0.1,0.6-0.3,0.6-0.6h-0.3v-0.9h0.9v0.8c0,0.7-0.3,1-1,1.1L203.8,205.7z M205.3,205.7
				c0.4-0.1,0.6-0.3,0.5-0.6h-0.3v-0.9h0.9v0.8c0,0.7-0.3,1-1,1.1L205.3,205.7z"/>
			<path class="fp-jocassee-st3" d="M211.1,206.5l0.8-1.1h0.8l-1.2,1.7l1.2,1.7h-0.8l-0.8-1.2l-0.8,1.2h-0.8l1.2-1.7l-1.2-1.7h0.8L211.1,206.5z"
				/>
			<path class="fp-jocassee-st3" d="M216.6,205l-0.8,0.2l-0.2-0.6l1.2-0.4h0.5v4.5h-0.8V205z"/>
			<path class="fp-jocassee-st3" d="M220.9,207.7h-2.3l-0.1-0.6l2.5-3h0.7v2.9h0.6v0.6h-0.6v1h-0.8V207.7z M220.9,207.1v-1.8l-1.5,1.8H220.9z"/>
			<path class="fp-jocassee-st3" d="M223.1,205.7c0.4-0.1,0.6-0.3,0.6-0.6h-0.3v-0.9h0.9v0.8c0,0.7-0.3,1-1,1.1L223.1,205.7z"/>
		</g>
		<g class="fp-jocassee-st22">
			<path class="fp-jocassee-st3" d="M326.1,223.2h1.3v6.4h4v1.2h-5.3V223.2z"/>
			<path class="fp-jocassee-st3" d="M333.3,223.2h1.3v7.6h-1.3V223.2z"/>
			<path class="fp-jocassee-st3" d="M336.4,223.2h1.5l2.3,5.8l2.3-5.8h1.4l-3.1,7.6h-1.2L336.4,223.2z"/>
			<path class="fp-jocassee-st3" d="M345.7,223.2h1.3v7.6h-1.3V223.2z"/>
			<path class="fp-jocassee-st3" d="M349.5,223.2h1.2l4.1,5.2v-5.2h1.3v7.6H355l-4.2-5.4v5.4h-1.3V223.2z"/>
			<path class="fp-jocassee-st3" d="M358.2,227L358.2,227c0-2.1,1.6-3.9,3.9-3.9c1.3,0,2.1,0.4,2.9,1l-0.8,1c-0.6-0.5-1.2-0.8-2.1-0.8
				c-1.4,0-2.5,1.2-2.5,2.7v0c0,1.6,1,2.7,2.6,2.7c0.7,0,1.4-0.2,1.8-0.6v-1.4H362v-1.2h3.2v3.2c-0.7,0.6-1.8,1.2-3.2,1.2
				C359.7,230.9,358.2,229.2,358.2,227z"/>
		</g>
		<g class="fp-jocassee-st22">
			<path class="fp-jocassee-st3" d="M323.9,236.8L323,237l-0.2-0.6l1.2-0.4h0.5v4.5h-0.8V236.8z"/>
			<path class="fp-jocassee-st3" d="M325.8,239.9l1.5-1.3c0.6-0.5,0.8-0.8,0.8-1.2c0-0.4-0.3-0.7-0.7-0.7s-0.7,0.2-1,0.7l-0.6-0.4
				c0.4-0.6,0.9-0.9,1.7-0.9c0.9,0,1.5,0.5,1.5,1.3v0c0,0.7-0.4,1.1-1.2,1.7l-0.9,0.8h2.1v0.7h-3.3V239.9z"/>
			<path class="fp-jocassee-st3" d="M330,237.5c0.4-0.1,0.6-0.3,0.6-0.6h-0.3V236h0.9v0.8c0,0.7-0.3,1-1,1.1L330,237.5z"/>
			<path class="fp-jocassee-st3" d="M334.2,239.9l0.5-0.6c0.4,0.3,0.7,0.5,1.2,0.5c0.5,0,0.9-0.3,0.9-0.8v0c0-0.5-0.4-0.7-0.9-0.7
				c-0.3,0-0.6,0.1-0.8,0.2l-0.5-0.3l0.1-2.2h2.7v0.7h-2l-0.1,1.1c0.2-0.1,0.4-0.1,0.7-0.1c0.9,0,1.6,0.5,1.6,1.4v0
				c0,0.9-0.7,1.5-1.7,1.5C335.2,240.6,334.6,240.3,334.2,239.9z"/>
			<path class="fp-jocassee-st3" d="M338.4,237.5c0.4-0.1,0.6-0.3,0.6-0.6h-0.3V236h0.9v0.8c0,0.7-0.3,1-1,1.1L338.4,237.5z M339.9,237.5
				c0.4-0.1,0.6-0.3,0.5-0.6h-0.3V236h0.9v0.8c0,0.7-0.3,1-1,1.1L339.9,237.5z"/>
			<path class="fp-jocassee-st3" d="M345.7,238.2l0.8-1.1h0.8l-1.2,1.7l1.2,1.7h-0.8l-0.8-1.2l-0.8,1.2H344l1.2-1.7l-1.2-1.7h0.8L345.7,238.2z"
				/>
			<path class="fp-jocassee-st3" d="M351.1,236.8l-0.8,0.2l-0.2-0.6l1.2-0.4h0.5v4.5h-0.8V236.8z"/>
			<path class="fp-jocassee-st3" d="M355.5,236.7h-2.3V236h3.2v0.6l-2,3.9h-0.9L355.5,236.7z"/>
			<path class="fp-jocassee-st3" d="M357.2,237.5c0.4-0.1,0.6-0.3,0.6-0.6h-0.3V236h0.9v0.8c0,0.7-0.3,1-1,1.1L357.2,237.5z"/>
			<path class="fp-jocassee-st3" d="M361.5,239.9l1.5-1.3c0.6-0.5,0.8-0.8,0.8-1.2c0-0.4-0.3-0.7-0.7-0.7s-0.7,0.2-1,0.7l-0.6-0.4
				c0.4-0.6,0.9-0.9,1.7-0.9c0.9,0,1.5,0.5,1.5,1.3v0c0,0.7-0.4,1.1-1.2,1.7l-0.9,0.8h2.1v0.7h-3.2V239.9z"/>
			<path class="fp-jocassee-st3" d="M365.6,237.5c0.4-0.1,0.6-0.3,0.6-0.6h-0.3V236h0.9v0.8c0,0.7-0.3,1-1,1.1L365.6,237.5z M367.1,237.5
				c0.4-0.1,0.6-0.3,0.5-0.6h-0.3V236h0.9v0.8c0,0.7-0.3,1-1,1.1L367.1,237.5z"/>
		</g>
		<g class="fp-jocassee-st22">
			<path class="fp-jocassee-st3" d="M320.3,400.6h1.3v3.8l3.6-3.8h1.6l-3.2,3.3l3.3,4.3h-1.6l-2.6-3.4l-1.2,1.2v2.2h-1.3V400.6z"/>
			<path class="fp-jocassee-st3" d="M328.6,400.6h1.3v7.6h-1.3V400.6z"/>
		</g>
		<g class="fp-jocassee-st22">
			<path class="fp-jocassee-st3" d="M334.3,401.8h-2.4v-1.2h6.2v1.2h-2.4v6.3h-1.3V401.8z"/>
		</g>
		<g class="fp-jocassee-st22">
			<path class="fp-jocassee-st3" d="M339.1,404.4L339.1,404.4c0-2.2,1.6-3.9,3.9-3.9c1.4,0,2.2,0.5,3,1.2l-0.9,1c-0.6-0.6-1.3-0.9-2.1-0.9
				c-1.4,0-2.5,1.2-2.5,2.7v0c0,1.5,1.1,2.7,2.5,2.7c0.9,0,1.5-0.4,2.2-1l0.9,0.9c-0.8,0.8-1.7,1.3-3.1,1.3
				C340.8,408.3,339.1,406.6,339.1,404.4z"/>
			<path class="fp-jocassee-st3" d="M347.9,400.6h1.3v3.2h3.6v-3.2h1.3v7.6h-1.3V405h-3.6v3.2h-1.3V400.6z"/>
			<path class="fp-jocassee-st3" d="M356.6,400.6h5.6v1.2h-4.3v2h3.8v1.2h-3.8v2h4.3v1.2h-5.7V400.6z"/>
			<path class="fp-jocassee-st3" d="M364.3,400.6h1.2l4.1,5.2v-5.2h1.3v7.6h-1.1l-4.2-5.4v5.4h-1.3V400.6z"/>
		</g>
		<g class="fp-jocassee-st22">
			<path class="fp-jocassee-st3" d="M329.8,415.8c-0.2,0.3-0.6,0.5-1.1,0.5c-1,0-1.6-0.6-1.6-1.4v0c0-0.9,0.7-1.6,1.7-1.6c0.6,0,0.9,0.2,1.3,0.5
				c0.3,0.3,0.5,0.8,0.5,1.7v0c0,1.4-0.7,2.4-1.9,2.4c-0.6,0-1.1-0.2-1.4-0.5l0.4-0.6c0.3,0.3,0.6,0.4,1,0.4
				C329.5,417.2,329.8,416.4,329.8,415.8z M329.8,414.8L329.8,414.8c0-0.5-0.4-0.8-0.9-0.8c-0.6,0-0.9,0.4-0.9,0.8v0
				c0,0.5,0.4,0.8,0.9,0.8C329.5,415.6,329.8,415.2,329.8,414.8z"/>
			<path class="fp-jocassee-st3" d="M331.5,414.8c0.4-0.1,0.6-0.3,0.6-0.6h-0.3v-0.9h0.9v0.8c0,0.7-0.3,1-1,1.1L331.5,414.8z"/>
			<path class="fp-jocassee-st3" d="M337.3,415.6l0.8-1.1h0.8l-1.2,1.7l1.2,1.7h-0.8l-0.8-1.2l-0.8,1.2h-0.8l1.2-1.7l-1.2-1.7h0.8L337.3,415.6z"
				/>
			<path class="fp-jocassee-st3" d="M342.8,414.1l-0.8,0.2l-0.2-0.6l1.2-0.4h0.5v4.5h-0.8V414.1z"/>
			<path class="fp-jocassee-st3" d="M344.8,415.6L344.8,415.6c0-1.3,0.8-2.3,2-2.3c1.2,0,2,1,2,2.3v0c0,1.3-0.8,2.3-2,2.3
				S344.8,416.9,344.8,415.6z M347.9,415.6L347.9,415.6c0-0.9-0.5-1.6-1.1-1.6s-1.1,0.7-1.1,1.6v0c0,0.9,0.4,1.6,1.1,1.6
				S347.9,416.5,347.9,415.6z"/>
			<path class="fp-jocassee-st3" d="M349.6,414.8c0.4-0.1,0.6-0.3,0.6-0.6h-0.3v-0.9h0.9v0.8c0,0.7-0.3,1-1,1.1L349.6,414.8z"/>
			<path class="fp-jocassee-st3" d="M354.7,414.1l-0.8,0.2l-0.2-0.6l1.2-0.4h0.5v4.5h-0.8V414.1z"/>
			<path class="fp-jocassee-st3" d="M356.7,415.6L356.7,415.6c0-1.3,0.8-2.3,2-2.3c1.2,0,2,1,2,2.3v0c0,1.3-0.8,2.3-2,2.3
				C357.5,417.9,356.7,416.9,356.7,415.6z M359.8,415.6L359.8,415.6c0-0.9-0.5-1.6-1.2-1.6c-0.7,0-1.1,0.7-1.1,1.6v0
				c0,0.9,0.5,1.6,1.2,1.6S359.8,416.5,359.8,415.6z"/>
			<path class="fp-jocassee-st3" d="M361.5,414.8c0.4-0.1,0.6-0.3,0.6-0.6h-0.3v-0.9h0.9v0.8c0,0.7-0.3,1-1,1.1L361.5,414.8z M363,414.8
				c0.4-0.1,0.6-0.3,0.5-0.6h-0.3v-0.9h0.9v0.8c0,0.7-0.3,1-1,1.1L363,414.8z"/>
		</g>
		<g class="fp-jocassee-st22">
			<path class="fp-jocassee-st3" d="M316.1,85.3h3.4c0.9,0,1.5,0.2,2,0.7c0.3,0.3,0.5,0.7,0.5,1.3v0c0,0.9-0.5,1.4-1.1,1.7
				c0.9,0.3,1.5,0.8,1.5,1.8v0c0,1.4-1.1,2.1-2.8,2.1h-3.5V85.3z M320.6,87.4c0-0.6-0.5-1-1.3-1h-1.9v2h1.8
				C320.1,88.5,320.6,88.1,320.6,87.4L320.6,87.4z M319.5,89.6h-2.1v2.1h2.2c0.9,0,1.5-0.4,1.5-1v0C321.1,90,320.5,89.6,319.5,89.6z
				"/>
			<path class="fp-jocassee-st3" d="M327,85.2h1.2l3.3,7.6h-1.4l-0.8-1.8h-3.6l-0.8,1.8h-1.4L327,85.2z M328.9,89.8l-1.3-3l-1.3,3H328.9z"/>
		</g>
		<g class="fp-jocassee-st22">
			<path class="fp-jocassee-st3" d="M333.3,85.3h1.3v6.4h4v1.2h-5.3V85.3z"/>
		</g>
		<g class="fp-jocassee-st22">
			<path class="fp-jocassee-st3" d="M339.7,89.1L339.7,89.1c0-2.2,1.6-3.9,3.9-3.9c1.4,0,2.2,0.5,3,1.2l-0.9,1c-0.6-0.6-1.3-0.9-2.1-0.9
				c-1.4,0-2.5,1.2-2.5,2.7v0c0,1.5,1.1,2.7,2.5,2.7c0.9,0,1.5-0.4,2.2-1l0.9,0.9c-0.8,0.8-1.7,1.3-3.1,1.3
				C341.3,93,339.7,91.3,339.7,89.1z"/>
		</g>
		<g class="fp-jocassee-st22">
			<path class="fp-jocassee-st3" d="M347.9,89.1L347.9,89.1c0-2.2,1.6-3.9,4-3.9c2.3,0,4,1.8,4,3.9v0c0,2.1-1.6,3.9-4,3.9
				C349.5,93,347.9,91.2,347.9,89.1z M354.4,89.1L354.4,89.1c0-1.5-1.1-2.7-2.6-2.7s-2.6,1.2-2.6,2.7v0c0,1.5,1.1,2.7,2.6,2.7
				S354.4,90.6,354.4,89.1z"/>
			<path class="fp-jocassee-st3" d="M357.9,85.3h1.2l4.1,5.2v-5.2h1.3v7.6h-1.1l-4.2-5.4v5.4h-1.3V85.3z"/>
			<path class="fp-jocassee-st3" d="M369.1,89.9l-3-4.6h1.6l2.1,3.3l2.1-3.3h1.5l-3,4.6v3h-1.3V89.9z"/>
		</g>
		<g class="fp-jocassee-st22">
			<path class="fp-jocassee-st3" d="M333.8,99.9l-0.8,0.2l-0.2-0.6l1.2-0.4h0.5v4.5h-0.8V99.9z"/>
			<path class="fp-jocassee-st3" d="M335.8,103l1.5-1.3c0.6-0.5,0.8-0.8,0.8-1.2c0-0.4-0.3-0.7-0.7-0.7s-0.7,0.2-1,0.7l-0.6-0.4
				c0.4-0.6,0.9-0.9,1.7-0.9c0.9,0,1.5,0.5,1.5,1.3v0c0,0.7-0.4,1.1-1.2,1.7l-0.9,0.8h2.1v0.7h-3.2V103z"/>
			<path class="fp-jocassee-st3" d="M339.9,100.6c0.4-0.1,0.6-0.3,0.6-0.6h-0.3v-0.9h0.9v0.8c0,0.7-0.3,1-1,1.1L339.9,100.6z"/>
			<path class="fp-jocassee-st3" d="M345.7,101.4l0.8-1.1h0.8l-1.2,1.7l1.2,1.7h-0.8l-0.8-1.2l-0.8,1.2h-0.8l1.2-1.7l-1.2-1.7h0.8L345.7,101.4z"
				/>
			<path class="fp-jocassee-st3" d="M351,103.2c-0.3-0.3-0.5-0.8-0.5-1.7v0c0-1.4,0.7-2.4,1.9-2.4c0.6,0,1,0.2,1.4,0.5l-0.4,0.6
				c-0.3-0.2-0.6-0.4-1-0.4c-0.8,0-1.1,0.8-1.1,1.4c0.3-0.3,0.6-0.5,1.1-0.5c0.9,0,1.6,0.5,1.6,1.4v0c0,0.9-0.7,1.5-1.7,1.5
				C351.7,103.7,351.3,103.5,351,103.2z M353.1,102.2L353.1,102.2c0-0.5-0.4-0.8-0.9-0.8s-0.9,0.4-0.9,0.8v0c0,0.5,0.4,0.8,0.9,0.8
				S353.1,102.7,353.1,102.2z"/>
			<path class="fp-jocassee-st3" d="M354.8,100.6c0.4-0.1,0.6-0.3,0.6-0.6H355v-0.9h0.9v0.8c0,0.7-0.3,1-1,1.1L354.8,100.6z"/>
		</g>
		<g class="fp-jocassee-st22">
			<path class="fp-jocassee-st3" d="M204.8,353.2L204.8,353.2c-0.9,0-1.6-0.6-1.6-1.6c0-0.6,0.2-0.9,0.5-1.2l0.4,0.3c-0.2,0.2-0.4,0.5-0.4,0.8
				c0,0.6,0.5,1,1.1,1h0c0.6,0,1.1-0.4,1.1-1c0-0.4-0.1-0.6-0.4-0.9l0.3-0.3c0.3,0.3,0.5,0.7,0.5,1.2
				C206.3,352.5,205.7,353.2,204.8,353.2z"/>
		</g>
		<g class="fp-jocassee-st22">
			<path class="fp-jocassee-st3" d="M204.8,349.9L204.8,349.9c-0.9,0-1.6-0.7-1.6-1.6s0.7-1.6,1.6-1.6h0c0.9,0,1.6,0.7,1.6,1.6
				S205.6,349.9,204.8,349.9z M204.8,347.3L204.8,347.3c-0.6,0-1.1,0.4-1.1,1c0,0.6,0.5,1,1.1,1h0c0.6,0,1.1-0.4,1.1-1
				C205.8,347.7,205.4,347.3,204.8,347.3z"/>
		</g>
		<g class="fp-jocassee-st22">
			<path class="fp-jocassee-st3" d="M203.2,345v-0.5l3.1-1.3v0.6l-0.7,0.3v1.4l0.7,0.3v0.5L203.2,345z M205.1,344.3l-1.2,0.5l1.2,0.5V344.3z"/>
		</g>
		<g class="fp-jocassee-st22">
			<path class="fp-jocassee-st3" d="M203.8,342.2v1h-0.5v-2.5h0.5v1h2.5v0.5H203.8z"/>
		</g>
		<g class="fp-jocassee-st22">
			<path class="fp-jocassee-st3" d="M150.5,316.8L150.5,316.8c0-1.5,1.1-2.8,2.7-2.8c1,0,1.6,0.3,2.1,0.8l-0.6,0.7c-0.4-0.4-0.9-0.7-1.5-0.7
				c-1,0-1.8,0.8-1.8,1.9v0c0,1,0.7,1.9,1.8,1.9c0.7,0,1.1-0.3,1.5-0.7l0.6,0.6c-0.6,0.6-1.2,0.9-2.2,0.9
				C151.7,319.6,150.5,318.4,150.5,316.8z"/>
		</g>
		<g class="fp-jocassee-st22">
			<path class="fp-jocassee-st3" d="M156.7,314.2h0.9v4.5h2.8v0.8h-3.7V314.2z"/>
		</g>
		<g class="fp-jocassee-st22">
			<path class="fp-jocassee-st3" d="M161.1,316.8L161.1,316.8c0-1.5,1.2-2.8,2.8-2.8c1.6,0,2.8,1.2,2.8,2.7v0c0,1.5-1.2,2.7-2.8,2.7
				S161.1,318.3,161.1,316.8z M165.7,316.8L165.7,316.8c0-1-0.8-1.9-1.8-1.9s-1.8,0.8-1.8,1.9v0c0,1,0.8,1.9,1.8,1.9
				S165.7,317.9,165.7,316.8z"/>
		</g>
		<g class="fp-jocassee-st22">
			<path class="fp-jocassee-st3" d="M167.7,318.7l0.6-0.7c0.5,0.4,1,0.7,1.7,0.7c0.6,0,0.9-0.3,0.9-0.7v0c0-0.4-0.2-0.6-1.2-0.8
				c-1.1-0.3-1.8-0.6-1.8-1.6v0c0-0.9,0.8-1.5,1.8-1.5c0.8,0,1.4,0.2,1.9,0.7l-0.5,0.7c-0.5-0.4-1-0.5-1.4-0.5
				c-0.5,0-0.9,0.3-0.9,0.6v0c0,0.4,0.2,0.6,1.3,0.8c1.1,0.3,1.7,0.7,1.7,1.6v0c0,1-0.8,1.6-1.9,1.6
				C169.1,319.6,168.4,319.3,167.7,318.7z"/>
			<path class="fp-jocassee-st3" d="M173.2,314.2h3.9v0.8h-3v1.4h2.7v0.8h-2.7v1.4h3v0.8h-4V314.2z"/>
			<path class="fp-jocassee-st3" d="M179.9,315h-1.7v-0.9h4.3v0.9h-1.7v4.4h-0.9V315z"/>
		</g>
		<g class="fp-jocassee-st22">
			<path class="fp-jocassee-st3" d="M148.5,327.6c-0.3-0.3-0.5-0.7-0.5-1.4v0c0-1.2,0.6-2.1,1.6-2.1c0.5,0,0.8,0.2,1.2,0.4l-0.4,0.5
				c-0.3-0.2-0.5-0.3-0.8-0.3c-0.7,0-0.9,0.7-0.9,1.2c0.2-0.2,0.5-0.4,0.9-0.4c0.7,0,1.3,0.4,1.3,1.2v0c0,0.8-0.6,1.3-1.4,1.3
				C149.1,328,148.8,327.8,148.5,327.6z M150.3,326.7L150.3,326.7c0-0.4-0.3-0.7-0.8-0.7s-0.8,0.3-0.8,0.7v0c0,0.4,0.3,0.7,0.8,0.7
				S150.3,327.1,150.3,326.7z"/>
			<path class="fp-jocassee-st3" d="M151.8,325.4c0.3-0.1,0.5-0.2,0.5-0.5h-0.3v-0.7h0.7v0.6c0,0.6-0.3,0.9-0.8,0.9L151.8,325.4z"/>
			<path class="fp-jocassee-st3" d="M155.3,326.9L155.3,326.9c0-0.5,0.3-0.8,0.7-0.9c-0.3-0.2-0.6-0.4-0.6-0.8v0c0-0.6,0.6-1,1.3-1
				c0.8,0,1.3,0.4,1.3,1v0c0,0.4-0.2,0.7-0.6,0.8c0.4,0.2,0.7,0.5,0.7,0.9v0c0,0.7-0.6,1.1-1.4,1.1
				C155.9,328,155.3,327.5,155.3,326.9z M157.6,326.8L157.6,326.8c0-0.4-0.3-0.6-0.8-0.6c-0.4,0-0.8,0.2-0.8,0.6v0
				c0,0.3,0.3,0.6,0.8,0.6C157.3,327.4,157.6,327.1,157.6,326.8z M157.5,325.2L157.5,325.2c0-0.3-0.3-0.5-0.7-0.5s-0.7,0.2-0.7,0.5
				v0c0,0.3,0.3,0.6,0.7,0.6C157.2,325.7,157.5,325.5,157.5,325.2z"/>
			<path class="fp-jocassee-st3" d="M158.9,325.4c0.3-0.1,0.5-0.2,0.5-0.5h-0.3v-0.7h0.7v0.6c0,0.6-0.3,0.9-0.8,0.9L158.9,325.4z M160.2,325.4
				c0.3-0.1,0.5-0.2,0.5-0.5h-0.3v-0.7h0.7v0.6c0,0.6-0.3,0.9-0.8,0.9L160.2,325.4z"/>
			<path class="fp-jocassee-st3" d="M165.1,326l0.7-1h0.7l-1,1.4l1.1,1.5h-0.7l-0.7-1l-0.7,1h-0.7l1-1.5l-1-1.4h0.7L165.1,326z"/>
			<path class="fp-jocassee-st3" d="M169.4,327.6c-0.3-0.3-0.5-0.7-0.5-1.4v0c0-1.2,0.6-2.1,1.6-2.1c0.5,0,0.8,0.2,1.2,0.4l-0.4,0.5
				c-0.3-0.2-0.5-0.3-0.8-0.3c-0.7,0-0.9,0.7-0.9,1.2c0.2-0.2,0.5-0.4,0.9-0.4c0.7,0,1.3,0.4,1.3,1.2v0c0,0.8-0.6,1.3-1.4,1.3
				C170,328,169.7,327.8,169.4,327.6z M171.2,326.7L171.2,326.7c0-0.4-0.3-0.7-0.8-0.7s-0.8,0.3-0.8,0.7v0c0,0.4,0.3,0.7,0.8,0.7
				S171.2,327.1,171.2,326.7z"/>
			<path class="fp-jocassee-st3" d="M172.7,325.4c0.3-0.1,0.5-0.2,0.5-0.5h-0.3v-0.7h0.7v0.6c0,0.6-0.3,0.9-0.8,0.9L172.7,325.4z"/>
			<path class="fp-jocassee-st3" d="M176.9,324.8l-0.7,0.2l-0.1-0.5l1-0.3h0.5v3.8h-0.7V324.8z"/>
			<path class="fp-jocassee-st3" d="M178.6,326L178.6,326c0-1.1,0.7-2,1.7-2c1,0,1.6,0.9,1.6,2v0c0,1.1-0.7,2-1.7,2S178.6,327.1,178.6,326z
				 M181.3,326L181.3,326c0-0.8-0.4-1.4-1-1.4s-1,0.6-1,1.3v0c0,0.7,0.4,1.4,1,1.4S181.3,326.8,181.3,326z"/>
			<path class="fp-jocassee-st3" d="M182.7,325.4c0.3-0.1,0.5-0.2,0.5-0.5h-0.3v-0.7h0.7v0.6c0,0.6-0.3,0.9-0.8,0.9L182.7,325.4z M183.9,325.4
				c0.3-0.1,0.5-0.2,0.5-0.5h-0.3v-0.7h0.7v0.6c0,0.6-0.3,0.9-0.8,0.9L183.9,325.4z"/>
		</g>
		<circle class="fp-jocassee-st23" cx="226.1" cy="483.7" r="14.1"/>
		<g class="fp-jocassee-st22">
			<path class="fp-jocassee-st3" d="M217.2,481.4h0.8v1.9h2.2v-1.9h0.8v4.5h-0.8V484H218v1.9h-0.8V481.4z"/>
		</g>
		<g class="fp-jocassee-st22">
			<path class="fp-jocassee-st3" d="M222,481.4h0.9l1.4,3.5l1.4-3.5h0.9l-1.9,4.6h-0.7L222,481.4z"/>
		</g>
		<g class="fp-jocassee-st22">
			<path class="fp-jocassee-st3" d="M228.5,481.3h0.7l2,4.6h-0.8l-0.5-1.1h-2.2l-0.5,1.1h-0.8L228.5,481.3z M229.6,484.1l-0.8-1.8l-0.8,1.8
				H229.6z"/>
		</g>
		<g class="fp-jocassee-st22">
			<path class="fp-jocassee-st3" d="M231.8,483.7L231.8,483.7c0-1.3,1-2.4,2.3-2.4c0.8,0,1.3,0.3,1.8,0.7l-0.5,0.6c-0.4-0.3-0.8-0.6-1.3-0.6
				c-0.9,0-1.5,0.7-1.5,1.6v0c0,0.9,0.6,1.6,1.5,1.6c0.6,0,0.9-0.2,1.3-0.6l0.5,0.5c-0.5,0.5-1,0.8-1.8,0.8
				C232.8,486,231.8,485,231.8,483.7z"/>
		</g>
		<rect x="215.7" y="426.4" class="fp-jocassee-st23" width="25.4" height="26.7"/>
		<line class="fp-jocassee-st24" x1="241.3" y1="450.2" x2="215.8" y2="450.2"/>
		<g class="fp-jocassee-st22">
			<path class="fp-jocassee-st3" d="M217.3,438h0.5v2.5h1.6v0.5h-2.1V438z"/>
		</g>
		<g class="fp-jocassee-st22">
			<path class="fp-jocassee-st3" d="M221.3,438h0.5l1.3,3.1h-0.6l-0.3-0.7h-1.4l-0.3,0.7h-0.5L221.3,438z M222,439.8l-0.5-1.2l-0.5,1.2H222z"/>
		</g>
		<g class="fp-jocassee-st22">
			<path class="fp-jocassee-st3" d="M223.6,439.7V438h0.5v1.7c0,0.6,0.3,0.9,0.8,0.9c0.5,0,0.8-0.3,0.8-0.8V438h0.5v1.7c0,0.9-0.5,1.4-1.3,1.4
				C224.1,441.1,223.6,440.6,223.6,439.7z"/>
			<path class="fp-jocassee-st3" d="M227.1,438h0.5l1.6,2.1V438h0.5v3h-0.4l-1.7-2.2v2.2h-0.5V438z"/>
			<path class="fp-jocassee-st3" d="M230.7,438h1.1c1,0,1.6,0.7,1.6,1.5v0c0,0.9-0.7,1.5-1.6,1.5h-1.1V438z M231.3,438.5v2.1h0.6
				c0.6,0,1.1-0.4,1.1-1v0c0-0.6-0.4-1-1.1-1H231.3z"/>
		</g>
		<g class="fp-jocassee-st22">
			<path class="fp-jocassee-st3" d="M234.3,438h1.4c0.4,0,0.7,0.1,0.9,0.3c0.2,0.2,0.3,0.4,0.3,0.7v0c0,0.5-0.3,0.8-0.7,0.9l0.8,1.1h-0.6
				l-0.7-1.1h-0.7v1.1h-0.5V438z M235.6,439.5c0.4,0,0.6-0.2,0.6-0.5v0c0-0.3-0.2-0.5-0.6-0.5h-0.8v1H235.6z"/>
		</g>
		<g class="fp-jocassee-st22">
			<path class="fp-jocassee-st3" d="M238.4,439.8l-1.2-1.8h0.6l0.8,1.3l0.9-1.3h0.6l-1.2,1.8v1.2h-0.5V439.8z"/>
		</g>
		<g class="fp-jocassee-st22">
			<path class="fp-jocassee-st3" d="M167.5,431.3l0.4-0.5c0.3,0.3,0.6,0.5,1,0.5c0.5,0,0.8-0.3,0.8-0.7v0c0-0.4-0.3-0.6-0.8-0.6
				c-0.3,0-0.5,0.1-0.7,0.2l-0.4-0.3l0.1-1.9h2.3v0.6h-1.7l-0.1,0.9c0.2-0.1,0.3-0.1,0.6-0.1c0.7,0,1.3,0.4,1.3,1.2v0
				c0,0.8-0.6,1.3-1.4,1.3C168.4,431.9,167.9,431.6,167.5,431.3z"/>
			<path class="fp-jocassee-st3" d="M171.1,429.2c0.3-0.1,0.5-0.2,0.5-0.5h-0.3V428h0.7v0.6c0,0.6-0.3,0.9-0.8,0.9L171.1,429.2z"/>
			<path class="fp-jocassee-st3" d="M176,429.9l0.7-1h0.7l-1,1.4l1.1,1.5h-0.7l-0.7-1l-0.7,1h-0.7l1-1.5l-1-1.4h0.7L176,429.9z"/>
			<path class="fp-jocassee-st3" d="M180.6,428.6l-0.7,0.2l-0.1-0.5l1-0.3h0.5v3.8h-0.7V428.6z"/>
			<path class="fp-jocassee-st3" d="M182.9,428.6l-0.7,0.2l-0.1-0.5l1-0.3h0.5v3.8h-0.7V428.6z"/>
			<path class="fp-jocassee-st3" d="M184.5,429.2c0.3-0.1,0.5-0.2,0.5-0.5h-0.3V428h0.7v0.6c0,0.6-0.3,0.9-0.8,0.9L184.5,429.2z"/>
			<path class="fp-jocassee-st3" d="M188.8,428.6l-0.7,0.2l-0.1-0.5l1-0.3h0.5v3.8h-0.7V428.6z"/>
			<path class="fp-jocassee-st3" d="M190.5,429.9L190.5,429.9c0-1.1,0.7-2,1.7-2c1,0,1.6,0.9,1.6,2v0c0,1.1-0.7,2-1.7,2S190.5,431,190.5,429.9z
				 M193.1,429.9L193.1,429.9c0-0.8-0.4-1.4-1-1.4s-1,0.6-1,1.3v0c0,0.7,0.4,1.4,1,1.4S193.1,430.6,193.1,429.9z"/>
			<path class="fp-jocassee-st3" d="M194.6,429.2c0.3-0.1,0.5-0.2,0.5-0.5h-0.3V428h0.7v0.6c0,0.6-0.3,0.9-0.8,0.9L194.6,429.2z M195.8,429.2
				c0.3-0.1,0.5-0.2,0.5-0.5H196V428h0.7v0.6c0,0.6-0.3,0.9-0.8,0.9L195.8,429.2z"/>
		</g>
		<g class="fp-jocassee-st22">
			<path class="fp-jocassee-st3" d="M171.6,414.5h2.4c0.6,0,1.1,0.2,1.4,0.5c0.2,0.2,0.4,0.5,0.4,0.9v0c0,0.6-0.4,1-0.8,1.2
				c0.6,0.2,1.1,0.6,1.1,1.3v0c0,0.9-0.8,1.5-2,1.5h-2.5V414.5z M174.8,416c0-0.4-0.3-0.7-0.9-0.7h-1.3v1.4h1.3
				C174.4,416.7,174.8,416.5,174.8,416L174.8,416z M174,417.5h-1.5v1.5h1.5c0.6,0,1-0.3,1-0.7v0C175.1,417.7,174.7,417.5,174,417.5z
				"/>
		</g>
		<g class="fp-jocassee-st22">
			<path class="fp-jocassee-st3" d="M179.3,414.4h0.9l2.3,5.3h-1l-0.5-1.3h-2.5l-0.5,1.3h-1L179.3,414.4z M180.6,417.7l-0.9-2.1l-0.9,2.1H180.6z
				"/>
		</g>
		<g class="fp-jocassee-st22">
			<path class="fp-jocassee-st3" d="M184.3,415.3h-1.7v-0.9h4.3v0.9h-1.7v4.4h-0.9V415.3z"/>
			<path class="fp-jocassee-st3" d="M188.2,414.5h0.9v2.2h2.5v-2.2h0.9v5.3h-0.9v-2.2h-2.5v2.2h-0.9V414.5z"/>
		</g>
		<rect x="358" y="469.6" class="fp-jocassee-st0" width="13.9" height="5"/>
		<g class="fp-jocassee-st22">
			<path class="fp-jocassee-st3" d="M358.6,470.9h0.8c0.5,0,0.8,0.3,0.8,0.7v0c0,0.5-0.4,0.7-0.8,0.7H359v0.7h-0.4V470.9z M359.4,472
				c0.3,0,0.5-0.2,0.5-0.4v0c0-0.2-0.2-0.4-0.5-0.4H359v0.8H359.4z"/>
		</g>
		<g class="fp-jocassee-st22">
			<path class="fp-jocassee-st3" d="M361.3,470.9h0.3l0.9,2.1h-0.4l-0.2-0.5h-1l-0.2,0.5h-0.4L361.3,470.9z M361.8,472.2l-0.4-0.8l-0.4,0.8
				H361.8z"/>
			<path class="fp-jocassee-st3" d="M363,470.9h0.3l1.1,1.5v-1.5h0.4v2.1h-0.3l-1.2-1.5v1.5H363V470.9z"/>
			<path class="fp-jocassee-st3" d="M366,471.3h-0.7v-0.3h1.7v0.3h-0.7v1.8H366V471.3z"/>
		</g>
		<g class="fp-jocassee-st22">
			<path class="fp-jocassee-st3" d="M367.6,470.9h0.9c0.3,0,0.5,0.1,0.6,0.2c0.1,0.1,0.2,0.3,0.2,0.5v0c0,0.3-0.2,0.6-0.5,0.6l0.6,0.8h-0.4
				l-0.5-0.7H368v0.7h-0.4V470.9z M368.5,472c0.3,0,0.4-0.1,0.4-0.4v0c0-0.2-0.2-0.3-0.4-0.3H368v0.7H368.5z"/>
		</g>
		<g class="fp-jocassee-st22">
			<path class="fp-jocassee-st3" d="M370.4,472.2l-0.8-1.3h0.4l0.6,0.9l0.6-0.9h0.4l-0.8,1.3v0.8h-0.4V472.2z"/>
		</g>
		<g class="fp-jocassee-st22">
			<path class="fp-jocassee-st3" d="M256.7,429.1L256.7,429.1c0-0.9,0.6-1.6,1.6-1.6c0.6,0,0.9,0.2,1.2,0.5l-0.3,0.4c-0.2-0.2-0.5-0.4-0.8-0.4
				c-0.6,0-1,0.5-1,1.1v0c0,0.6,0.4,1.1,1,1.1c0.4,0,0.6-0.1,0.9-0.4l0.3,0.3c-0.3,0.3-0.7,0.5-1.2,0.5
				C257.4,430.7,256.7,430,256.7,429.1z"/>
		</g>
		<g class="fp-jocassee-st22">
			<path class="fp-jocassee-st3" d="M260,429.1L260,429.1c0-0.9,0.7-1.6,1.6-1.6s1.6,0.7,1.6,1.6v0c0,0.9-0.7,1.6-1.6,1.6S260,430,260,429.1z
				 M262.6,429.1L262.6,429.1c0-0.6-0.4-1.1-1-1.1s-1,0.5-1,1.1v0c0,0.6,0.4,1.1,1,1.1C262.2,430.2,262.6,429.7,262.6,429.1z"/>
		</g>
		<g class="fp-jocassee-st22">
			<path class="fp-jocassee-st3" d="M264.9,427.6h0.5l1.3,3.1h-0.6l-0.3-0.7h-1.4l-0.3,0.7h-0.5L264.9,427.6z M265.7,429.4l-0.5-1.2l-0.5,1.2
				H265.7z"/>
		</g>
		<g class="fp-jocassee-st22">
			<path class="fp-jocassee-st3" d="M267.8,428.1h-1v-0.5h2.5v0.5h-1v2.5h-0.5V428.1z"/>
		</g>
		<rect x="0.5" y="0.5" class="fp-jocassee-st25" width="557.3" height="557.3"/>
	</g>
</g>
</svg>
