<?xml version="1.0" encoding="utf-8"?>
<!-- Generator: Adobe Illustrator 21.1.0, SVG Export Plug-In . SVG Version: 6.00 Build 0)  -->
<svg version="1.1" id="Layer_1" xmlns="http://www.w3.org/2000/svg" xmlns:xlink="http://www.w3.org/1999/xlink" x="0px" y="0px"
	 viewBox="0 0 558.3 558.3" style="enable-background:new 0 0 558.3 558.3;" xml:space="preserve">
<style type="text/css">
	.fp-keowee-st0{fill:#E4E9E4;}
	.fp-keowee-st1{fill:none;stroke:#A6A8AB;stroke-width:0.27;stroke-miterlimit:10;}
	.fp-keowee-st2{fill:none;stroke:#E4E9E4;stroke-width:7.59;stroke-linejoin:round;}
	.fp-keowee-st3{fill:#32553B;}
	.fp-keowee-st4{fill:#C8D0C9;stroke:#32553B;stroke-width:0.27;stroke-miterlimit:10;}
	.fp-keowee-st5{fill:none;stroke:#32553B;stroke-width:0.27;stroke-miterlimit:10;}
	.fp-keowee-st6{fill:#E4E9E4;stroke:#32553B;stroke-width:0.27;stroke-miterlimit:10;}
	.fp-keowee-st7{fill:none;stroke:#32553B;stroke-width:4.33;stroke-miterlimit:10;}
	.fp-keowee-st8{fill:none;stroke:#32553B;stroke-width:7.59;stroke-linejoin:round;}
	.fp-keowee-st9{fill:none;stroke:#32553B;stroke-width:1.08;stroke-miterlimit:10;}
	.fp-keowee-st10{fill:none;stroke:#32553B;stroke-width:4.33;stroke-linejoin:round;}
	.fp-keowee-st11{fill:none;stroke:#799900;stroke-width:0.27;stroke-miterlimit:10;}
	.fp-keowee-st12{fill:#FFFFFF;stroke:#799900;stroke-width:0.27;stroke-miterlimit:10;}
	.fp-keowee-st13{fill:#FFFFFF;stroke:#62A044;stroke-width:0.27;stroke-miterlimit:10;}
	.fp-keowee-st14{fill:#FFFFFF;stroke:#799900;stroke-width:0.25;stroke-miterlimit:10;}
	.fp-keowee-st15{enable-background:new    ;}
	.fp-keowee-st16{fill:#C8D0C9;stroke:#32553B;stroke-width:0.25;stroke-miterlimit:10;}
	.fp-keowee-st17{fill:none;stroke:#32553B;stroke-width:0.25;stroke-miterlimit:10;}
	.fp-keowee-st18{fill:none;stroke:#F5F7F5;stroke-miterlimit:10;}
</style>
<title>fp_keowee</title>
<g id="Layer_2">
	<g id="DESIGN">
		<polygon class="fp-keowee-st0" points="425.5,283.6 425.5,283.6 255.5,113.6 183.6,183.8 218,217.4 218,288.8 279.2,349.4 390,348.4 
			390,424.3 497.2,424.3 497.2,355.3 		"/>
		<line class="fp-keowee-st1" x1="65.1" y1="196.8" x2="197.8" y2="196.8"/>
		<line class="fp-keowee-st1" x1="65.1" y1="209.4" x2="210.2" y2="209.4"/>
		<line class="fp-keowee-st1" x1="65.1" y1="222" x2="218.2" y2="222"/>
		<line class="fp-keowee-st1" x1="65.1" y1="234.7" x2="218" y2="234.7"/>
		<line class="fp-keowee-st1" x1="65.1" y1="247.3" x2="218.2" y2="247.3"/>
		<line class="fp-keowee-st1" x1="65.1" y1="260" x2="217.8" y2="260"/>
		<line class="fp-keowee-st1" x1="65.1" y1="272.6" x2="218.2" y2="272.6"/>
		<line class="fp-keowee-st1" x1="65.1" y1="285.2" x2="218" y2="285.2"/>
		<line class="fp-keowee-st1" x1="65.1" y1="297.9" x2="227.1" y2="297.9"/>
		<line class="fp-keowee-st1" x1="65.1" y1="310.5" x2="239.8" y2="310.5"/>
		<line class="fp-keowee-st1" x1="65.1" y1="323.1" x2="252.3" y2="323.1"/>
		<line class="fp-keowee-st1" x1="65.1" y1="335.8" x2="264.8" y2="335.8"/>
		<line class="fp-keowee-st1" x1="390" y1="348.4" x2="65.1" y2="348.4"/>
		<line class="fp-keowee-st1" x1="95.7" y1="361.1" x2="390.4" y2="361.1"/>
		<line class="fp-keowee-st1" x1="65.1" y1="373.7" x2="390.4" y2="373.7"/>
		<line class="fp-keowee-st1" x1="65.1" y1="386.4" x2="390" y2="386.4"/>
		<line class="fp-keowee-st1" x1="65.1" y1="399" x2="390" y2="399"/>
		<line class="fp-keowee-st1" x1="65.1" y1="411.6" x2="390.5" y2="411.6"/>
		<line class="fp-keowee-st1" x1="65.1" y1="424.3" x2="497.2" y2="424.3"/>
		<line class="fp-keowee-st1" x1="65.1" y1="436.9" x2="497.2" y2="436.9"/>
		<line class="fp-keowee-st1" x1="65.1" y1="449.5" x2="497.2" y2="449.5"/>
		<line class="fp-keowee-st1" x1="65.1" y1="462.2" x2="497.2" y2="462.2"/>
		<line class="fp-keowee-st1" x1="65.1" y1="474.8" x2="497.2" y2="474.8"/>
		<line class="fp-keowee-st1" x1="65.1" y1="487.5" x2="497.2" y2="487.5"/>
		<line class="fp-keowee-st2" x1="118.6" y1="184.1" x2="79.4" y2="184.1"/>
		<rect x="79.4" y="181.6" class="fp-keowee-st3" width="36.8" height="0.6"/>
		<rect x="79.4" y="183.8" class="fp-keowee-st3" width="36.8" height="0.6"/>
		<rect x="79.4" y="186" class="fp-keowee-st3" width="36.8" height="0.6"/>
		<line class="fp-keowee-st2" x1="248.8" y1="120.3" x2="192" y2="176.9"/>
		
			<rect x="177.5" y="146.4" transform="matrix(0.7071 -0.7071 0.7071 0.7071 -39.5413 197.9061)" class="fp-keowee-st3" width="83.2" height="0.6"/>
		
			<rect x="179.1" y="148" transform="matrix(0.7071 -0.7071 0.7071 0.7071 -40.1945 199.4893)" class="fp-keowee-st3" width="83.2" height="0.6"/>
		
			<rect x="180.7" y="149.5" transform="matrix(0.7071 -0.7071 0.7071 0.7071 -40.8505 201.0654)" class="fp-keowee-st3" width="83.2" height="0.6"/>
		<rect x="454.2" y="425.7" class="fp-keowee-st4" width="42.9" height="68.8"/>
		<path class="fp-keowee-st5" d="M474.3,431c0,0-16.7-0.2-16.7,6.4V486c0,0-0.2,5.3,4.9,5.3h23.6c5.1,0,4.9-5.3,4.9-5.3v-48.7
			C491,430.7,474.3,431,474.3,431"/>
		<path class="fp-keowee-st4" d="M474.4,489c1.1,0,2.2,0.4,3.1,1.1l-3,3.3h-0.2l-3-3.3C472.2,489.4,473.3,489,474.4,489"/>
		<polyline class="fp-keowee-st4" points="420.2,501.3 420.2,495.5 447.9,495.5 447.9,501.3 		"/>
		<rect x="361.8" y="476" class="fp-keowee-st4" width="53.5" height="25.8"/>
		<polygon class="fp-keowee-st6" points="167,473 168.7,473 168.7,471.6 167,471.6 143.6,471.6 143.6,501.9 167,501.9 		"/>
		<rect x="95" y="359.7" class="fp-keowee-st6" width="1.4" height="1.9"/>
		<polygon class="fp-keowee-st4" points="110.1,471.6 110.1,470.5 143.6,470.5 143.6,500.1 110.1,500.1 		"/>
		<polygon class="fp-keowee-st6" points="94.9,381.5 65.1,381.5 65.1,502.1 110.1,502.1 110.1,471.6 96.3,471.6 96.3,381.5 96.3,379.8 
			94.9,379.8 		"/>
		<line class="fp-keowee-st7" x1="379.5" y1="349.3" x2="390.7" y2="349.3"/>
		<polyline class="fp-keowee-st7" points="184.8,184.1 218,217.4 218,288.8 278.5,349.3 343.9,349.3 		"/>
		<polyline class="fp-keowee-st8" points="248.8,120.3 255.5,113.6 497.2,355.3 497.2,502.1 279.2,502.1 		"/>
		<polyline class="fp-keowee-st8" points="161.5,184.1 184.8,184.1 192,176.9 		"/>
		<polyline class="fp-keowee-st8" points="239.3,502.1 65,502.1 65,184.1 79.4,184.1 		"/>
		<line class="fp-keowee-st7" x1="390.4" y1="413.5" x2="390.4" y2="424.6"/>
		<polyline class="fp-keowee-st7" points="398.7,321.5 390.4,329.8 390.4,388.6 		"/>
		<line class="fp-keowee-st7" x1="431" y1="289.2" x2="423.8" y2="296.4"/>
		<polyline class="fp-keowee-st7" points="347.2,424.6 337.8,424.6 337.8,502.1 		"/>
		<line class="fp-keowee-st7" x1="497.2" y1="424.6" x2="382.8" y2="424.6"/>
		<polyline class="fp-keowee-st7" points="390.4,378.4 422,378.4 422,424.8 		"/>
		<polyline class="fp-keowee-st7" points="295.3,403.2 286.8,403.2 286.8,450.6 337.8,450.6 		"/>
		<polyline class="fp-keowee-st7" points="337.8,424.6 337.8,403.2 331.1,403.2 		"/>
		<line class="fp-keowee-st8" x1="212.7" y1="470.7" x2="212.7" y2="501.9"/>
		<line class="fp-keowee-st8" x1="288.5" y1="396.9" x2="288.5" y2="403.2"/>
		<line class="fp-keowee-st8" x1="288.5" y1="349.4" x2="288.5" y2="355.7"/>
		<line class="fp-keowee-st7" x1="286.8" y1="449.7" x2="286.8" y2="456.5"/>
		<line class="fp-keowee-st7" x1="286.8" y1="494" x2="286.8" y2="501.4"/>
		<line class="fp-keowee-st8" x1="64.8" y1="356.2" x2="96.5" y2="356.2"/>
		<rect x="169.2" y="462.4" class="fp-keowee-st4" width="37.4" height="34.9"/>
		<rect x="207.1" y="471.6" class="fp-keowee-st5" width="1.9" height="1.4"/>
		<polyline class="fp-keowee-st5" points="95,361.6 70.3,361.6 70.3,379.9 94.9,379.9 		"/>
		<line class="fp-keowee-st5" x1="92.9" y1="361.6" x2="92.9" y2="379.8"/>
		<polygon class="fp-keowee-st6" points="148,339.6 170.4,339.6 219.3,388.4 219.3,411 173,411 147.9,385.9 		"/>
		<polyline class="fp-keowee-st6" points="205,411 205,394 164.8,353.8 148,353.8 		"/>
		<rect x="452.5" y="492.8" class="fp-keowee-st3" width="44.7" height="9.3"/>
		<path class="fp-keowee-st4" d="M428,482c0.3,0.6,0.4,1.2,0.4,1.8v3.5c0.1,0.5-0.3,1-0.9,1.1c-0.1,0-0.1,0-0.2,0h13.5c-0.5,0.1-1-0.3-1.1-0.9
			c0-0.1,0-0.1,0-0.2v-3.5c0-0.6,0.1-1.2,0.4-1.8"/>
		<line class="fp-keowee-st5" x1="440.1" y1="482" x2="428" y2="482"/>
		<ellipse class="fp-keowee-st4" cx="434.1" cy="475.5" rx="7.8" ry="10.6"/>
		<rect x="422.3" y="488.5" class="fp-keowee-st4" width="23.6" height="7.7"/>
		<polyline class="fp-keowee-st9" points="341.7,501.3 341.7,476.6 344,476.6 		"/>
		<polyline class="fp-keowee-st9" points="361.2,501.3 361.2,476.6 358.9,476.6 		"/>
		<line class="fp-keowee-st5" x1="361.2" y1="479.4" x2="341.7" y2="479.4"/>
		<polyline class="fp-keowee-st10" points="255.5,113.6 198.4,56.5 65,56.5 65,184.1 		"/>
		<path class="fp-keowee-st4" d="M380.8,480h15.7c1.2,0,2.2,1,2.2,2.2v10.6c0,1.2-1,2.2-2.2,2.2h-15.7c-1.2,0-2.2-1-2.2-2.2v-10.6
			C378.6,481,379.6,480,380.8,480z"/>
		<circle class="fp-keowee-st4" cx="388.6" cy="489.6" r="1.7"/>
		<circle class="fp-keowee-st4" cx="136.4" cy="490.5" r="5"/>
		<circle class="fp-keowee-st4" cx="136.4" cy="477.1" r="3.9"/>
		<circle class="fp-keowee-st4" cx="117.4" cy="477.1" r="3.2"/>
		<circle class="fp-keowee-st4" cx="117.4" cy="490.5" r="3.2"/>
		<line class="fp-keowee-st5" x1="143.6" y1="496.3" x2="110.1" y2="496.3"/>
		<path class="fp-keowee-st4" d="M75.6,412.8h15.6c1.3,0,2.3,1,2.3,2.3v26.7c0,1.3-1,2.3-2.3,2.3H75.6c-1.3,0-2.3-1-2.3-2.3V415
			C73.3,413.8,74.4,412.8,75.6,412.8z"/>
		<circle class="fp-keowee-st4" cx="83.4" cy="428.4" r="1.7"/>
		<line class="fp-keowee-st8" x1="121.2" y1="184.1" x2="115.9" y2="184.1"/>
		<line class="fp-keowee-st8" x1="207" y1="162" x2="210.1" y2="158.8"/>
		<circle class="fp-keowee-st4" cx="315.4" cy="475.5" r="16.4"/>
		<path class="fp-keowee-st11" d="M239.3,497.7c0-6.2-0.3-16,11.6-27.7"/>
		<path class="fp-keowee-st11" d="M283.9,456.6c0,0-14.4-0.3-24.9,9.8"/>
		
			<rect x="438.7" y="292" transform="matrix(0.7071 -0.7071 0.7071 0.7071 -91.0023 401.97)" class="fp-keowee-st12" width="2.1" height="37.8"/>
		<rect x="379.5" y="308.7" class="fp-keowee-st12" width="2.1" height="37.8"/>
		<rect x="345.1" y="427.6" class="fp-keowee-st12" width="2.1" height="37.8"/>
		<rect x="361.1" y="413.5" class="fp-keowee-st12" width="26.5" height="2.1"/>
		<rect x="293.2" y="362.4" class="fp-keowee-st12" width="2.1" height="37.8"/>
		<rect x="161.5" y="139.3" class="fp-keowee-st11" width="2.1" height="39.9"/>
		<line class="fp-keowee-st5" x1="96.3" y1="379.8" x2="96.3" y2="361.6"/>
		<path class="fp-keowee-st11" d="M108.2,374.8c-3.1,3.3-7.4,5.1-11.9,5"/>
		
			<rect x="101.8" y="359.3" transform="matrix(0.7071 -0.7071 0.7071 0.7071 -230.3945 180.1403)" class="fp-keowee-st12" width="0.9" height="17.8"/>
		<path class="fp-keowee-st11" d="M331.1,400.1c0-20.8-16.9-37.7-37.7-37.7l0,0"/>
		<path class="fp-keowee-st11" d="M388.1,388.5c-14.9,0-27.1,12.1-27.1,27c0,0,0,0,0,0"/>
		<path class="fp-keowee-st11" d="M345.1,465.4c20.8,0,37.7-16.9,37.7-37.7l0,0"/>
		<path class="fp-keowee-st11" d="M381.6,308.7c-20.8,0-37.7,16.9-37.7,37.7l0,0"/>
		<path class="fp-keowee-st11" d="M161.5,139.3c-20.8,0-40.3,16.8-40.3,40.2"/>
		<path class="fp-keowee-st11" d="M400.6,323.5c14.7,14.7,38.6,14.7,53.3,0c0,0,0,0,0,0"/>
		
			<rect x="270.5" y="461.6" transform="matrix(0.7071 -0.7071 0.7071 0.7071 -260.1886 332.7688)" class="fp-keowee-st12" width="2.1" height="37.8"/>
		
			<rect x="263.2" y="464.9" transform="matrix(0.7071 -0.7071 0.7071 0.7071 -265.4519 328.878)" class="fp-keowee-st13" width="2.1" height="39.9"/>
		
			<rect x="340.1" y="469" transform="matrix(0.7071 -0.7071 0.7071 0.7071 -229.7366 384.2367)" class="fp-keowee-st14" width="17.8" height="0.9"/>
		<path class="fp-keowee-st11" d="M355.5,463.5c3.2,3.6,5.1,8.3,5.2,13.1"/>
		<g class="fp-keowee-st15">
			<path class="fp-keowee-st3" d="M306.2,473.3h0.8v1.9h2.2v-1.9h0.8v4.5h-0.8V476H307v1.9h-0.8V473.3z"/>
		</g>
		<g class="fp-keowee-st15">
			<path class="fp-keowee-st3" d="M311,473.3h0.9l1.4,3.5l1.4-3.5h0.9l-1.9,4.6h-0.7L311,473.3z"/>
		</g>
		<g class="fp-keowee-st15">
			<path class="fp-keowee-st3" d="M317.5,473.3h0.7l2,4.6h-0.8l-0.5-1.1h-2.2l-0.5,1.1h-0.8L317.5,473.3z M318.6,476.1l-0.8-1.8l-0.8,1.8
				H318.6z"/>
		</g>
		<g class="fp-keowee-st15">
			<path class="fp-keowee-st3" d="M320.8,475.6L320.8,475.6c0-1.3,1-2.4,2.3-2.4c0.8,0,1.3,0.3,1.8,0.7l-0.5,0.6c-0.4-0.3-0.8-0.6-1.3-0.6
				c-0.9,0-1.5,0.7-1.5,1.6v0c0,0.9,0.6,1.6,1.5,1.6c0.6,0,0.9-0.2,1.3-0.6l0.5,0.5c-0.5,0.5-1,0.8-1.8,0.8
				C321.8,478,320.8,476.9,320.8,475.6z"/>
		</g>
		<g class="fp-keowee-st15">
			<path class="fp-keowee-st3" d="M72.3,369.1h1.2c0.7,0,1.2,0.4,1.2,1v0c0,0.7-0.5,1-1.2,1h-0.6v1h-0.5V369.1z M73.5,370.7
				c0.4,0,0.7-0.2,0.7-0.5v0c0-0.4-0.3-0.5-0.7-0.5h-0.6v1.1H73.5z"/>
		</g>
		<g class="fp-keowee-st15">
			<path class="fp-keowee-st3" d="M76.2,369.1h0.5l1.3,3.1h-0.6l-0.3-0.7h-1.4l-0.3,0.7h-0.5L76.2,369.1z M76.9,371l-0.5-1.2l-0.5,1.2H76.9z"
				/>
			<path class="fp-keowee-st3" d="M78.7,369.1h0.5l1.6,2.1v-2.1h0.5v3h-0.4l-1.7-2.2v2.2h-0.5V369.1z"/>
			<path class="fp-keowee-st3" d="M83,369.6h-1v-0.5h2.5v0.5h-1v2.5H83V369.6z"/>
		</g>
		<g class="fp-keowee-st15">
			<path class="fp-keowee-st3" d="M85.3,369.1h1.4c0.4,0,0.7,0.1,0.9,0.3c0.2,0.2,0.3,0.4,0.3,0.7v0c0,0.5-0.3,0.8-0.7,0.9l0.8,1.1h-0.6
				l-0.7-1.1h-0.7v1.1h-0.5V369.1z M86.6,370.7c0.4,0,0.6-0.2,0.6-0.5v0c0-0.3-0.2-0.5-0.6-0.5h-0.8v1H86.6z"/>
		</g>
		<g class="fp-keowee-st15">
			<path class="fp-keowee-st3" d="M89.4,371l-1.2-1.8h0.6l0.8,1.3l0.9-1.3h0.6l-1.2,1.8v1.2h-0.5V371z"/>
		</g>
		<g class="fp-keowee-st15">
			<path class="fp-keowee-st3" d="M277.4,262.6h3.4c0.9,0,1.5,0.2,2,0.7c0.3,0.3,0.5,0.7,0.5,1.3v0c0,0.9-0.5,1.4-1.1,1.7
				c0.9,0.3,1.5,0.8,1.5,1.8v0c0,1.4-1.1,2.1-2.8,2.1h-3.5V262.6z M281.9,264.8c0-0.6-0.5-1-1.3-1h-1.9v2h1.8
				C281.3,265.8,281.9,265.5,281.9,264.8L281.9,264.8z M280.8,266.9h-2.1v2.1h2.2c0.9,0,1.5-0.4,1.5-1v0
				C282.3,267.3,281.8,266.9,280.8,266.9z"/>
			<path class="fp-keowee-st3" d="M285.6,262.6h5.6v1.2h-4.3v2h3.8v1.2h-3.8v2h4.3v1.2h-5.7V262.6z"/>
			<path class="fp-keowee-st3" d="M293.3,262.6h2.8c2.4,0,4,1.6,4,3.8v0c0,2.1-1.6,3.8-4,3.8h-2.8V262.6z M294.6,263.8v5.2h1.5
				c1.6,0,2.6-1.1,2.6-2.6v0c0-1.5-1-2.6-2.6-2.6H294.6z"/>
			<path class="fp-keowee-st3" d="M302.2,262.6h3.4c1,0,1.7,0.3,2.2,0.8c0.4,0.4,0.6,1,0.6,1.6v0c0,1.2-0.7,2-1.8,2.3l2,2.9h-1.6l-1.9-2.6
				h-1.7v2.6h-1.3V262.6z M305.5,266.4c1,0,1.6-0.5,1.6-1.3v0c0-0.8-0.6-1.3-1.6-1.3h-1.9v2.5H305.5z"/>
			<path class="fp-keowee-st3" d="M310.2,266.4L310.2,266.4c0-2.2,1.6-3.9,4-3.9s4,1.8,4,3.9v0c0,2.1-1.6,3.9-4,3.9S310.2,268.6,310.2,266.4z
				 M316.7,266.4L316.7,266.4c0-1.5-1.1-2.7-2.6-2.7s-2.6,1.2-2.6,2.7v0c0,1.5,1.1,2.7,2.6,2.7S316.7,267.9,316.7,266.4z"/>
			<path class="fp-keowee-st3" d="M319.8,266.4L319.8,266.4c0-2.2,1.6-3.9,4-3.9s4,1.8,4,3.9v0c0,2.1-1.6,3.9-4,3.9S319.8,268.6,319.8,266.4z
				 M326.3,266.4L326.3,266.4c0-1.5-1.1-2.7-2.6-2.7s-2.6,1.2-2.6,2.7v0c0,1.5,1.1,2.7,2.6,2.7S326.3,267.9,326.3,266.4z"/>
			<path class="fp-keowee-st3" d="M329.8,262.6h1.4l2.3,3.6l2.3-3.6h1.4v7.6h-1.3v-5.4l-2.4,3.6h0l-2.4-3.6v5.4h-1.3V262.6z"/>
		</g>
		<g class="fp-keowee-st15">
			<path class="fp-keowee-st3" d="M432,363.5L432,363.5c0-1.5,1.1-2.8,2.7-2.8c1,0,1.6,0.3,2.1,0.8l-0.6,0.7c-0.4-0.4-0.9-0.7-1.5-0.7
				c-1,0-1.8,0.8-1.8,1.9v0c0,1,0.7,1.9,1.8,1.9c0.7,0,1.1-0.3,1.5-0.7l0.6,0.6c-0.6,0.6-1.2,0.9-2.2,0.9
				C433.1,366.3,432,365.1,432,363.5z"/>
		</g>
		<g class="fp-keowee-st15">
			<path class="fp-keowee-st3" d="M438.1,360.9h0.9v4.5h2.8v0.8h-3.7V360.9z"/>
		</g>
		<g class="fp-keowee-st15">
			<path class="fp-keowee-st3" d="M442.6,363.5L442.6,363.5c0-1.5,1.2-2.8,2.8-2.8c1.6,0,2.8,1.2,2.8,2.7v0c0,1.5-1.2,2.7-2.8,2.7
				C443.7,366.3,442.6,365,442.6,363.5z M447.2,363.5L447.2,363.5c0-1-0.8-1.9-1.8-1.9c-1.1,0-1.8,0.8-1.8,1.9v0
				c0,1,0.8,1.9,1.8,1.9C446.4,365.4,447.2,364.6,447.2,363.5z"/>
		</g>
		<g class="fp-keowee-st15">
			<path class="fp-keowee-st3" d="M449.2,365.4l0.6-0.7c0.5,0.4,1,0.7,1.7,0.7c0.6,0,0.9-0.3,0.9-0.7v0c0-0.4-0.2-0.6-1.2-0.8
				c-1.1-0.3-1.8-0.6-1.8-1.6v0c0-0.9,0.8-1.5,1.8-1.5c0.8,0,1.4,0.2,1.9,0.7l-0.5,0.7c-0.5-0.4-1-0.5-1.4-0.5
				c-0.5,0-0.9,0.3-0.9,0.6v0c0,0.4,0.2,0.6,1.3,0.8c1.1,0.3,1.7,0.7,1.7,1.6v0c0,1-0.8,1.6-1.9,1.6
				C450.6,366.3,449.8,366,449.2,365.4z"/>
			<path class="fp-keowee-st3" d="M454.7,360.9h3.9v0.8h-3v1.4h2.7v0.8h-2.7v1.4h3v0.8h-4V360.9z"/>
			<path class="fp-keowee-st3" d="M461.4,361.7h-1.7v-0.9h4.3v0.9h-1.7v4.4h-0.9V361.7z"/>
		</g>
		<g class="fp-keowee-st15">
			<path class="fp-keowee-st3" d="M394.1,453.5h2.4c0.6,0,1.1,0.2,1.4,0.5c0.2,0.2,0.4,0.5,0.4,0.9v0c0,0.6-0.4,1-0.8,1.2
				c0.6,0.2,1.1,0.6,1.1,1.3v0c0,0.9-0.8,1.5-2,1.5h-2.5V453.5z M397.3,455c0-0.4-0.3-0.7-0.9-0.7H395v1.4h1.3
				C396.9,455.7,397.3,455.5,397.3,455L397.3,455z M396.5,456.5H395v1.5h1.5c0.6,0,1-0.3,1-0.7v0
				C397.6,456.8,397.2,456.5,396.5,456.5z"/>
		</g>
		<g class="fp-keowee-st15">
			<path class="fp-keowee-st3" d="M401.8,453.4h0.9l2.3,5.3h-1l-0.5-1.3h-2.5l-0.5,1.3h-1L401.8,453.4z M403.1,456.7l-0.9-2.1l-0.9,2.1H403.1z
				"/>
		</g>
		<g class="fp-keowee-st15">
			<path class="fp-keowee-st3" d="M406.8,454.3h-1.7v-0.9h4.3v0.9h-1.7v4.4h-0.9V454.3z"/>
			<path class="fp-keowee-st3" d="M410.7,453.5h0.9v2.2h2.5v-2.2h0.9v5.3h-0.9v-2.2h-2.5v2.2h-0.9V453.5z"/>
		</g>
		<g class="fp-keowee-st15">
			<path class="fp-keowee-st3" d="M405.8,385.9L405.8,385.9c1.5,0,2.8,1.1,2.8,2.7c0,1-0.3,1.6-0.8,2.1l-0.7-0.6c0.4-0.4,0.7-0.9,0.7-1.5
				c0-1-0.8-1.8-1.9-1.8h0c-1,0-1.9,0.7-1.9,1.8c0,0.7,0.3,1.1,0.7,1.5l-0.6,0.6c-0.6-0.6-0.9-1.2-0.9-2.2
				C403.1,387,404.3,385.9,405.8,385.9z"/>
		</g>
		<g class="fp-keowee-st15">
			<path class="fp-keowee-st3" d="M408.5,392v0.9H404v2.8h-0.8V392H408.5z"/>
		</g>
		<g class="fp-keowee-st15">
			<path class="fp-keowee-st3" d="M405.8,396.5L405.8,396.5c1.5,0,2.8,1.2,2.8,2.8s-1.2,2.8-2.7,2.8h0c-1.5,0-2.7-1.2-2.7-2.8
				C403.1,397.6,404.3,396.5,405.8,396.5z M405.8,401.1L405.8,401.1c1,0,1.9-0.8,1.9-1.8c0-1.1-0.8-1.8-1.9-1.8h0
				c-1,0-1.9,0.8-1.9,1.8C404,400.3,404.8,401.1,405.8,401.1z"/>
		</g>
		<g class="fp-keowee-st15">
			<path class="fp-keowee-st3" d="M404,403.1l0.7,0.6c-0.4,0.5-0.7,1-0.7,1.7c0,0.6,0.3,0.9,0.7,0.9h0c0.4,0,0.6-0.2,0.8-1.2
				c0.3-1.1,0.6-1.8,1.6-1.8h0c0.9,0,1.5,0.8,1.5,1.8c0,0.8-0.2,1.4-0.7,1.9l-0.7-0.5c0.4-0.5,0.5-1,0.5-1.4c0-0.5-0.3-0.9-0.6-0.9
				h0c-0.4,0-0.6,0.2-0.8,1.3c-0.3,1.1-0.7,1.7-1.6,1.7h0c-1,0-1.6-0.8-1.6-1.9C403.1,404.5,403.4,403.7,404,403.1z"/>
			<path class="fp-keowee-st3" d="M408.5,408.6v3.9h-0.8v-3h-1.4v2.7h-0.8v-2.7H404v3h-0.8v-4H408.5z"/>
			<path class="fp-keowee-st3" d="M407.6,415.3v-1.7h0.9v4.3h-0.9v-1.7h-4.4v-0.9H407.6z"/>
		</g>
		<g class="fp-keowee-st15">
			<path class="fp-keowee-st3" d="M339.7,377.1h0.9v4.5h2.8v0.8h-3.7V377.1z"/>
			<path class="fp-keowee-st3" d="M344.7,377.1h0.9v5.3h-0.9V377.1z"/>
			<path class="fp-keowee-st3" d="M347.4,377.1h0.9l2.8,3.7v-3.7h0.9v5.3h-0.8l-2.9-3.8v3.8h-0.9V377.1z"/>
			<path class="fp-keowee-st3" d="M353.7,377.1h3.9v0.8h-3v1.4h2.7v0.8h-2.7v1.4h3v0.8h-4V377.1z"/>
			<path class="fp-keowee-st3" d="M359.1,377.1h0.9l2.8,3.7v-3.7h0.9v5.3h-0.8l-2.9-3.8v3.8h-0.9V377.1z"/>
		</g>
		<g class="fp-keowee-st15">
			<path class="fp-keowee-st3" d="M122.1,262.6h1.3v6.4h4v1.2h-5.3V262.6z"/>
			<path class="fp-keowee-st3" d="M129.3,262.6h1.3v7.6h-1.3V262.6z"/>
			<path class="fp-keowee-st3" d="M132.5,262.6h1.5l2.3,5.8l2.3-5.8h1.4l-3.1,7.6h-1.2L132.5,262.6z"/>
			<path class="fp-keowee-st3" d="M141.8,262.6h1.3v7.6h-1.3V262.6z"/>
			<path class="fp-keowee-st3" d="M145.6,262.6h1.2l4.1,5.2v-5.2h1.3v7.6h-1.1l-4.2-5.4v5.4h-1.3V262.6z"/>
			<path class="fp-keowee-st3" d="M154.2,266.4L154.2,266.4c0-2.1,1.6-3.9,3.9-3.9c1.3,0,2.1,0.4,2.9,1l-0.8,1c-0.6-0.5-1.2-0.8-2.1-0.8
				c-1.4,0-2.5,1.2-2.5,2.7v0c0,1.6,1,2.7,2.6,2.7c0.7,0,1.4-0.2,1.8-0.6v-1.4h-1.9V266h3.2v3.2c-0.7,0.6-1.8,1.2-3.2,1.2
				C155.8,270.3,154.2,268.6,154.2,266.4z"/>
		</g>
		<g class="fp-keowee-st15">
			<path class="fp-keowee-st3" d="M109.3,110.7h3.4c0.9,0,1.5,0.2,2,0.7c0.3,0.3,0.5,0.7,0.5,1.3v0c0,0.9-0.5,1.4-1.1,1.7
				c0.9,0.3,1.5,0.8,1.5,1.8v0c0,1.4-1.1,2.1-2.8,2.1h-3.5V110.7z M113.9,112.9c0-0.6-0.5-1-1.3-1h-1.9v2h1.8
				C113.3,113.9,113.9,113.6,113.9,112.9L113.9,112.9z M112.7,115h-2.1v2.1h2.2c0.9,0,1.5-0.4,1.5-1v0
				C114.3,115.4,113.8,115,112.7,115z"/>
			<path class="fp-keowee-st3" d="M120.3,110.7h1.2l3.3,7.6h-1.4l-0.8-1.8h-3.6l-0.8,1.8h-1.4L120.3,110.7z M122.2,115.3l-1.3-3l-1.3,3H122.2z
				"/>
		</g>
		<g class="fp-keowee-st15">
			<path class="fp-keowee-st3" d="M126.6,110.7h1.3v6.4h4v1.2h-5.3V110.7z"/>
		</g>
		<g class="fp-keowee-st15">
			<path class="fp-keowee-st3" d="M132.9,114.5L132.9,114.5c0-2.2,1.6-3.9,3.9-3.9c1.4,0,2.2,0.5,3,1.2l-0.9,1c-0.6-0.6-1.3-0.9-2.1-0.9
				c-1.4,0-2.5,1.2-2.5,2.7v0c0,1.5,1.1,2.7,2.5,2.7c0.9,0,1.5-0.4,2.2-1l0.9,0.9c-0.8,0.8-1.7,1.3-3.1,1.3
				C134.6,118.4,132.9,116.7,132.9,114.5z"/>
		</g>
		<g class="fp-keowee-st15">
			<path class="fp-keowee-st3" d="M141.2,114.5L141.2,114.5c0-2.2,1.6-3.9,4-3.9s4,1.8,4,3.9v0c0,2.1-1.6,3.9-4,3.9
				C142.8,118.4,141.2,116.7,141.2,114.5z M147.7,114.5L147.7,114.5c0-1.5-1.1-2.7-2.6-2.7c-1.5,0-2.6,1.2-2.6,2.7v0
				c0,1.5,1.1,2.7,2.6,2.7S147.7,116,147.7,114.5z"/>
			<path class="fp-keowee-st3" d="M151.1,110.7h1.2l4.1,5.2v-5.2h1.3v7.6h-1.1l-4.2-5.4v5.4h-1.3V110.7z"/>
			<path class="fp-keowee-st3" d="M162.4,115.3l-3-4.6h1.6l2.1,3.3l2.1-3.3h1.5l-3,4.6v3h-1.3V115.3z"/>
		</g>
		<g class="fp-keowee-st15">
			<path class="fp-keowee-st3" d="M127,124.3l-0.8,0.2l-0.2-0.6l1.2-0.4h0.5v4.5H127V124.3z"/>
			<path class="fp-keowee-st3" d="M128.9,127.3l0.6-0.5c0.3,0.4,0.7,0.6,1.2,0.6c0.4,0,0.8-0.3,0.8-0.7v0c0-0.4-0.4-0.7-1-0.7H130l-0.1-0.5
				l1.2-1.3h-1.9v-0.7h3v0.6l-1.3,1.3c0.7,0.1,1.3,0.4,1.3,1.3v0c0,0.8-0.6,1.4-1.6,1.4C129.8,128.1,129.3,127.8,128.9,127.3z"/>
			<path class="fp-keowee-st3" d="M133.1,125c0.4-0.1,0.6-0.3,0.6-0.6h-0.3v-0.9h0.9v0.8c0,0.7-0.3,1-1,1.1L133.1,125z"/>
			<path class="fp-keowee-st3" d="M138.9,125.8l0.8-1.1h0.8l-1.2,1.7l1.2,1.7h-0.8l-0.8-1.2l-0.8,1.2h-0.8l1.2-1.7l-1.2-1.7h0.8L138.9,125.8z"
				/>
			<path class="fp-keowee-st3" d="M146.2,125.9c-0.3,0.3-0.6,0.5-1.1,0.5c-1,0-1.6-0.6-1.6-1.4v0c0-0.9,0.7-1.6,1.7-1.6c0.6,0,0.9,0.2,1.3,0.5
				c0.3,0.3,0.5,0.8,0.5,1.7v0c0,1.4-0.7,2.4-1.9,2.4c-0.6,0-1.1-0.2-1.4-0.5l0.4-0.6c0.3,0.3,0.6,0.4,1,0.4
				C145.9,127.4,146.2,126.5,146.2,125.9z M146.2,125L146.2,125c0-0.5-0.4-0.8-0.9-0.8c-0.6,0-0.9,0.4-0.9,0.8v0
				c0,0.5,0.4,0.8,0.9,0.8C145.9,125.8,146.2,125.4,146.2,125z"/>
			<path class="fp-keowee-st3" d="M147.9,125c0.4-0.1,0.6-0.3,0.6-0.6h-0.3v-0.9h0.9v0.8c0,0.7-0.3,1-1,1.1L147.9,125z"/>
		</g>
		<g class="fp-keowee-st15">
			<path class="fp-keowee-st3" d="M130.4,277.2l-0.8,0.2l-0.2-0.6l1.2-0.4h0.5v4.5h-0.8V277.2z"/>
			<path class="fp-keowee-st3" d="M132.4,280.3l1.5-1.3c0.6-0.5,0.8-0.8,0.8-1.2c0-0.4-0.3-0.7-0.7-0.7s-0.7,0.2-1,0.7l-0.6-0.4
				c0.4-0.6,0.9-0.9,1.7-0.9c0.9,0,1.5,0.5,1.5,1.3v0c0,0.7-0.4,1.1-1.2,1.7l-0.9,0.8h2.1v0.7h-3.3V280.3z"/>
			<path class="fp-keowee-st3" d="M136.5,278c0.4-0.1,0.6-0.3,0.6-0.6h-0.3v-0.9h0.9v0.8c0,0.7-0.3,1-1,1.1L136.5,278z"/>
			<path class="fp-keowee-st3" d="M142.3,278.7l0.8-1.1h0.8l-1.2,1.7l1.2,1.7h-0.8l-0.8-1.2l-0.8,1.2h-0.8l1.2-1.7l-1.2-1.7h0.8L142.3,278.7z"
				/>
			<path class="fp-keowee-st3" d="M147.8,277.2l-0.8,0.2l-0.2-0.6l1.2-0.4h0.5v4.5h-0.8V277.2z"/>
			<path class="fp-keowee-st3" d="M150.6,277.2l-0.8,0.2l-0.2-0.6l1.2-0.4h0.5v4.5h-0.8V277.2z"/>
			<path class="fp-keowee-st3" d="M152.5,278c0.4-0.1,0.6-0.3,0.6-0.6h-0.3v-0.9h0.9v0.8c0,0.7-0.3,1-1,1.1L152.5,278z"/>
		</g>
		<g class="fp-keowee-st15">
			<path class="fp-keowee-st3" d="M123.7,441.7l-0.8,0.2l-0.2-0.6l1.2-0.4h0.5v4.5h-0.8V441.7z"/>
			<path class="fp-keowee-st3" d="M125.7,443.2L125.7,443.2c0-1.3,0.8-2.3,2-2.3c1.2,0,2,1,2,2.3v0c0,1.3-0.8,2.3-2,2.3
				C126.5,445.5,125.7,444.5,125.7,443.2z M128.8,443.2L128.8,443.2c0-0.9-0.5-1.6-1.1-1.6c-0.7,0-1.1,0.7-1.1,1.6v0
				c0,0.9,0.4,1.6,1.1,1.6S128.8,444.1,128.8,443.2z"/>
			<path class="fp-keowee-st3" d="M130.5,442.4c0.4-0.1,0.6-0.3,0.6-0.6h-0.3v-0.9h0.9v0.8c0,0.7-0.3,1-1,1.1L130.5,442.4z"/>
			<path class="fp-keowee-st3" d="M135.6,441.7l-0.8,0.2l-0.2-0.6l1.2-0.4h0.5v4.5h-0.8V441.7z"/>
			<path class="fp-keowee-st3" d="M137.6,443.2L137.6,443.2c0-1.3,0.8-2.3,2-2.3c1.2,0,2,1,2,2.3v0c0,1.3-0.8,2.3-2,2.3
				C138.4,445.5,137.6,444.5,137.6,443.2z M140.7,443.2L140.7,443.2c0-0.9-0.5-1.6-1.1-1.6c-0.7,0-1.1,0.7-1.1,1.6v0
				c0,0.9,0.4,1.6,1.1,1.6S140.7,444.1,140.7,443.2z"/>
			<path class="fp-keowee-st3" d="M142.4,442.4c0.4-0.1,0.6-0.3,0.6-0.6h-0.3v-0.9h0.9v0.8c0,0.7-0.3,1-1,1.1L142.4,442.4z M143.9,442.4
				c0.4-0.1,0.6-0.3,0.5-0.6h-0.3v-0.9h0.9v0.8c0,0.7-0.3,1-1,1.1L143.9,442.4z"/>
			<path class="fp-keowee-st3" d="M149.7,443.2l0.8-1.1h0.8l-1.2,1.7l1.2,1.7h-0.8l-0.8-1.2l-0.8,1.2H148l1.2-1.7l-1.2-1.7h0.8L149.7,443.2z"
				/>
			<path class="fp-keowee-st3" d="M155.1,441.7l-0.8,0.2l-0.2-0.6l1.2-0.4h0.5v4.5h-0.8V441.7z"/>
			<path class="fp-keowee-st3" d="M157.2,443.2L157.2,443.2c0-1.3,0.8-2.3,2-2.3c1.2,0,2,1,2,2.3v0c0,1.3-0.8,2.3-2,2.3
				C157.9,445.5,157.2,444.5,157.2,443.2z M160.3,443.2L160.3,443.2c0-0.9-0.5-1.6-1.1-1.6c-0.7,0-1.1,0.7-1.1,1.6v0
				c0,0.9,0.4,1.6,1.1,1.6S160.3,444.1,160.3,443.2z"/>
			<path class="fp-keowee-st3" d="M162,442.4c0.4-0.1,0.6-0.3,0.6-0.6h-0.3v-0.9h0.9v0.8c0,0.7-0.3,1-1,1.1L162,442.4z"/>
			<path class="fp-keowee-st3" d="M168.6,441.6h-2.3v-0.7h3.2v0.6l-2,3.9h-0.9L168.6,441.6z"/>
			<path class="fp-keowee-st3" d="M170.3,442.4c0.4-0.1,0.6-0.3,0.6-0.6h-0.3v-0.9h0.9v0.8c0,0.7-0.3,1-1,1.1L170.3,442.4z M171.8,442.4
				c0.4-0.1,0.6-0.3,0.5-0.6H172v-0.9h0.9v0.8c0,0.7-0.3,1-1,1.1L171.8,442.4z"/>
		</g>
		<g class="fp-keowee-st15">
			<path class="fp-keowee-st3" d="M296.1,277.2l-0.8,0.2l-0.2-0.6l1.2-0.4h0.5v4.5h-0.8V277.2z"/>
			<path class="fp-keowee-st3" d="M298.1,279.7L298.1,279.7c0-0.6,0.3-0.9,0.8-1.1c-0.4-0.2-0.7-0.5-0.7-1v0c0-0.7,0.7-1.2,1.6-1.2
				s1.6,0.5,1.6,1.2v0c0,0.5-0.3,0.8-0.7,1c0.5,0.2,0.8,0.5,0.8,1.1v0c0,0.8-0.7,1.3-1.7,1.3C298.8,281,298.1,280.5,298.1,279.7z
				 M300.7,279.7L300.7,279.7c0-0.4-0.4-0.7-0.9-0.7s-0.9,0.3-0.9,0.7v0c0,0.4,0.3,0.7,0.9,0.7S300.7,280.1,300.7,279.7z
				 M300.6,277.7L300.6,277.7c0-0.4-0.3-0.6-0.8-0.6c-0.5,0-0.8,0.3-0.8,0.6v0c0,0.4,0.3,0.7,0.8,0.7
				C300.3,278.4,300.6,278.1,300.6,277.7z"/>
			<path class="fp-keowee-st3" d="M302.3,278c0.4-0.1,0.6-0.3,0.6-0.6h-0.3v-0.9h0.9v0.8c0,0.7-0.3,1-1,1.1L302.3,278z"/>
			<path class="fp-keowee-st3" d="M308.1,278.7l0.8-1.1h0.8l-1.2,1.7l1.2,1.7h-0.8l-0.8-1.2l-0.8,1.2h-0.8l1.2-1.7l-1.2-1.7h0.8L308.1,278.7z"
				/>
			<path class="fp-keowee-st3" d="M313.6,277.2l-0.8,0.2l-0.2-0.6l1.2-0.4h0.5v4.5h-0.8V277.2z"/>
			<path class="fp-keowee-st3" d="M316.4,277.2l-0.8,0.2l-0.2-0.6l1.2-0.4h0.5v4.5h-0.8V277.2z"/>
			<path class="fp-keowee-st3" d="M318.3,278c0.4-0.1,0.6-0.3,0.6-0.6h-0.3v-0.9h0.9v0.8c0,0.7-0.3,1-1,1.1L318.3,278z"/>
		</g>
		<g class="fp-keowee-st15">
			<path class="fp-keowee-st3" d="M436.8,374.1l0.4-0.5c0.3,0.3,0.6,0.5,1,0.5c0.5,0,0.8-0.3,0.8-0.7v0c0-0.4-0.3-0.6-0.8-0.6
				c-0.3,0-0.5,0.1-0.7,0.2l-0.4-0.3l0.1-1.9h2.3v0.6h-1.7l-0.1,0.9c0.2-0.1,0.3-0.1,0.6-0.1c0.7,0,1.3,0.4,1.3,1.2v0
				c0,0.8-0.6,1.3-1.4,1.3C437.6,374.7,437.2,374.4,436.8,374.1z"/>
			<path class="fp-keowee-st3" d="M440.5,373.9h0.7v0.7h-0.7V373.9z"/>
			<path class="fp-keowee-st3" d="M442.1,374.1l0.4-0.5c0.3,0.3,0.6,0.5,1,0.5c0.5,0,0.8-0.3,0.8-0.7v0c0-0.4-0.3-0.6-0.8-0.6
				c-0.3,0-0.5,0.1-0.7,0.2l-0.4-0.3l0.1-1.9h2.3v0.6H443l-0.1,0.9c0.2-0.1,0.3-0.1,0.6-0.1c0.7,0,1.3,0.4,1.3,1.2v0
				c0,0.8-0.6,1.3-1.4,1.3C442.9,374.7,442.5,374.4,442.1,374.1z"/>
			<path class="fp-keowee-st3" d="M445.7,372.1c0.3-0.1,0.5-0.2,0.5-0.5h-0.3v-0.7h0.7v0.6c0,0.6-0.3,0.9-0.8,0.9L445.7,372.1z"/>
			<path class="fp-keowee-st3" d="M450.5,372.7l0.7-1h0.7l-1,1.4l1.1,1.5h-0.7l-0.7-1l-0.7,1h-0.7l1-1.5l-1-1.4h0.7L450.5,372.7z"/>
			<path class="fp-keowee-st3" d="M454.4,373.6L454.4,373.6c0-0.5,0.3-0.8,0.7-0.9c-0.3-0.2-0.6-0.4-0.6-0.8v0c0-0.6,0.6-1,1.3-1
				s1.3,0.4,1.3,1v0c0,0.4-0.2,0.7-0.6,0.8c0.4,0.2,0.7,0.5,0.7,0.9v0c0,0.7-0.6,1.1-1.4,1.1S454.4,374.2,454.4,373.6z M456.7,373.5
				L456.7,373.5c0-0.4-0.3-0.6-0.8-0.6s-0.8,0.2-0.8,0.6v0c0,0.3,0.3,0.6,0.8,0.6S456.7,373.8,456.7,373.5z M456.5,371.9
				L456.5,371.9c0-0.3-0.3-0.5-0.7-0.5s-0.7,0.2-0.7,0.5v0c0,0.3,0.3,0.6,0.7,0.6S456.5,372.2,456.5,371.9z"/>
			<path class="fp-keowee-st3" d="M458,372.1c0.3-0.1,0.5-0.2,0.5-0.5h-0.3v-0.7h0.7v0.6c0,0.6-0.3,0.9-0.8,0.9L458,372.1z"/>
		</g>
		<g class="fp-keowee-st15">
			<path class="fp-keowee-st3" d="M395,468l0.4-0.5c0.3,0.3,0.6,0.5,1,0.5c0.5,0,0.8-0.3,0.8-0.7v0c0-0.4-0.3-0.6-0.8-0.6
				c-0.3,0-0.5,0.1-0.7,0.2l-0.4-0.3l0.1-1.9h2.3v0.6H396l-0.1,0.9c0.2-0.1,0.3-0.1,0.6-0.1c0.7,0,1.3,0.4,1.3,1.2v0
				c0,0.8-0.6,1.3-1.4,1.3C395.8,468.6,395.4,468.3,395,468z"/>
			<path class="fp-keowee-st3" d="M398.6,466c0.3-0.1,0.5-0.2,0.5-0.5h-0.3v-0.7h0.7v0.6c0,0.6-0.3,0.9-0.8,0.9L398.6,466z"/>
			<path class="fp-keowee-st3" d="M403.4,466.6l0.7-1h0.7l-1,1.4l1.1,1.5h-0.7l-0.7-1l-0.7,1H402l1-1.5l-1-1.4h0.7L403.4,466.6z"/>
			<path class="fp-keowee-st3" d="M408,465.4l-0.7,0.2l-0.1-0.5l1-0.3h0.5v3.8H408V465.4z"/>
			<path class="fp-keowee-st3" d="M409.7,466.6L409.7,466.6c0-1.1,0.7-2,1.7-2c1,0,1.6,0.9,1.6,2v0c0,1.1-0.7,2-1.7,2
				C410.4,468.6,409.7,467.7,409.7,466.6z M412.4,466.6L412.4,466.6c0-0.8-0.4-1.4-1-1.4s-1,0.6-1,1.3v0c0,0.7,0.4,1.4,1,1.4
				C412,468,412.4,467.4,412.4,466.6z"/>
			<path class="fp-keowee-st3" d="M413.8,466c0.3-0.1,0.5-0.2,0.5-0.5H414v-0.7h0.7v0.6c0,0.6-0.3,0.9-0.8,0.9L413.8,466z"/>
		</g>
		<g class="fp-keowee-st15">
			<path class="fp-keowee-st3" d="M122.7,427.1h1.3v3.8l3.6-3.8h1.6l-3.2,3.3l3.3,4.3h-1.6l-2.6-3.4l-1.2,1.2v2.2h-1.3V427.1z"/>
			<path class="fp-keowee-st3" d="M131,427.1h1.3v7.6H131V427.1z"/>
		</g>
		<g class="fp-keowee-st15">
			<path class="fp-keowee-st3" d="M136.7,428.4h-2.4v-1.2h6.2v1.2H138v6.3h-1.3V428.4z"/>
		</g>
		<g class="fp-keowee-st15">
			<path class="fp-keowee-st3" d="M141.5,430.9L141.5,430.9c0-2.2,1.6-3.9,3.9-3.9c1.4,0,2.2,0.5,3,1.2l-0.9,1c-0.6-0.6-1.3-0.9-2.1-0.9
				c-1.4,0-2.5,1.2-2.5,2.7v0c0,1.5,1.1,2.7,2.5,2.7c0.9,0,1.5-0.4,2.2-1l0.9,0.9c-0.8,0.8-1.7,1.3-3.1,1.3
				C143.2,434.8,141.5,433.1,141.5,430.9z"/>
			<path class="fp-keowee-st3" d="M150.3,427.1h1.3v3.2h3.6v-3.2h1.3v7.6h-1.3v-3.2h-3.6v3.2h-1.3V427.1z"/>
			<path class="fp-keowee-st3" d="M159,427.1h5.6v1.2h-4.3v2h3.8v1.2h-3.8v2h4.3v1.2H159V427.1z"/>
			<path class="fp-keowee-st3" d="M166.7,427.1h1.2l4.1,5.2v-5.2h1.3v7.6h-1.1l-4.2-5.4v5.4h-1.3V427.1z"/>
		</g>
		<rect x="295.3" y="409.2" class="fp-keowee-st16" width="33.9" height="35.5"/>
		<line class="fp-keowee-st17" x1="329.3" y1="440.9" x2="295.4" y2="440.9"/>
		<g class="fp-keowee-st15">
			<path class="fp-keowee-st3" d="M299.8,424.8h0.6v2.8h1.8v0.5h-2.4V424.8z"/>
		</g>
		<g class="fp-keowee-st15">
			<path class="fp-keowee-st3" d="M304.2,424.8h0.6l1.5,3.4h-0.6l-0.3-0.8h-1.6l-0.3,0.8h-0.6L304.2,424.8z M305,426.9l-0.6-1.4l-0.6,1.4H305z
				"/>
		</g>
		<g class="fp-keowee-st15">
			<path class="fp-keowee-st3" d="M306.8,426.8v-1.9h0.6v1.9c0,0.6,0.3,1,0.9,1c0.5,0,0.9-0.3,0.9-0.9v-1.9h0.6v1.9c0,1-0.6,1.5-1.5,1.5
				C307.4,428.3,306.8,427.8,306.8,426.8z"/>
			<path class="fp-keowee-st3" d="M310.7,424.8h0.6l1.8,2.3v-2.3h0.6v3.4h-0.5l-1.9-2.4v2.4h-0.6V424.8z"/>
			<path class="fp-keowee-st3" d="M314.7,424.8h1.3c1.1,0,1.8,0.7,1.8,1.7v0c0,1-0.7,1.7-1.8,1.7h-1.3V424.8z M315.3,425.4v2.3h0.7
				c0.7,0,1.2-0.5,1.2-1.1v0c0-0.7-0.5-1.2-1.2-1.2H315.3z"/>
		</g>
		<g class="fp-keowee-st15">
			<path class="fp-keowee-st3" d="M318.7,424.8h1.5c0.4,0,0.8,0.1,1,0.3c0.2,0.2,0.3,0.4,0.3,0.7v0c0,0.6-0.3,0.9-0.8,1l0.9,1.3h-0.7L320,427
				h-0.7v1.2h-0.6V424.8z M320.2,426.5c0.4,0,0.7-0.2,0.7-0.6v0c0-0.4-0.3-0.6-0.7-0.6h-0.9v1.1H320.2z"/>
		</g>
		<g class="fp-keowee-st15">
			<path class="fp-keowee-st3" d="M323.3,426.9l-1.3-2.1h0.7l0.9,1.5l1-1.5h0.7l-1.3,2v1.3h-0.6V426.9z"/>
		</g>
		<rect x="0.5" y="0.5" class="fp-keowee-st18" width="557.3" height="557.3"/>
	</g>
</g>
</svg>
