<?xml version="1.0" encoding="utf-8"?>
<!-- Generator: Adobe Illustrator 21.1.0, SVG Export Plug-In . SVG Version: 6.00 Build 0)  -->
<svg version="1.1" id="Layer_1" xmlns="http://www.w3.org/2000/svg" xmlns:xlink="http://www.w3.org/1999/xlink" x="0px" y="0px"
	 viewBox="0 0 558.3 558.3" style="enable-background:new 0 0 558.3 558.3;" xml:space="preserve">
<style type="text/css">
	.fp-pacolet-st0{fill:none;stroke:#A6A8AB;stroke-width:0.27;stroke-miterlimit:10;}
	.fp-pacolet-st1{fill:#E4E9E4;}
	.fp-pacolet-st2{fill:none;stroke:#E4E9E4;stroke-width:7.59;stroke-linejoin:round;}
	.fp-pacolet-st3{fill:#32553B;}
	.fp-pacolet-st4{fill:#C8D0C9;stroke:#32553B;stroke-width:0.21;stroke-miterlimit:10;}
	.fp-pacolet-st5{fill:#C8D0C9;stroke:#32553B;stroke-width:0.24;stroke-miterlimit:10;}
	.fp-pacolet-st6{fill:#E4E9E4;stroke:#32553B;stroke-width:0.27;stroke-miterlimit:10;}
	.fp-pacolet-st7{fill:none;stroke:#32553B;stroke-width:0.27;stroke-miterlimit:10;}
	.fp-pacolet-st8{fill:none;stroke:#799900;stroke-width:0.16;stroke-miterlimit:10;}
	.fp-pacolet-st9{fill:#FFFFFF;stroke:#62A044;stroke-width:0.16;stroke-miterlimit:10;}
	.fp-pacolet-st10{fill:#F5F7F5;}
	.fp-pacolet-st11{enable-background:new    ;}
	.fp-pacolet-st12{fill:#C8D0C9;stroke:#32553B;stroke-width:0.27;stroke-miterlimit:10;}
	.fp-pacolet-st13{fill:#E4E9E4;stroke:#32553B;stroke-width:0.24;stroke-miterlimit:10;}
	.fp-pacolet-st14{fill:none;stroke:#32553B;stroke-width:7.59;stroke-linejoin:round;}
	.fp-pacolet-st15{fill:none;stroke:#32553B;stroke-width:4.33;stroke-linejoin:round;}
	.fp-pacolet-st16{fill:none;stroke:#32553B;stroke-width:4.33;stroke-miterlimit:10;}
	.fp-pacolet-st17{fill:none;stroke:#32553B;stroke-width:0.24;stroke-miterlimit:10;}
	.fp-pacolet-st18{fill:none;stroke:#32553B;stroke-width:0.84;stroke-miterlimit:10;}
	.fp-pacolet-st19{fill:none;stroke:#799900;stroke-width:0.3;stroke-miterlimit:10;}
	.fp-pacolet-st20{fill:#FFFFFF;stroke:#62A044;stroke-width:0.3;stroke-miterlimit:10;}
	.fp-pacolet-st21{fill:none;stroke:#799900;stroke-width:0.27;stroke-miterlimit:10;}
	.fp-pacolet-st22{fill:#FFFFFF;stroke:#62A044;stroke-width:0.27;stroke-miterlimit:10;}
	.fp-pacolet-st23{fill:#FFFFFF;stroke:#62A044;stroke-width:0.13;stroke-miterlimit:10;}
	.fp-pacolet-st24{fill:none;stroke:#799900;stroke-width:0.13;stroke-miterlimit:10;}
	.fp-pacolet-st25{fill:none;stroke:#32553B;stroke-width:0.21;stroke-miterlimit:10;}
	.fp-pacolet-st26{fill:#C8D0C9;stroke:#32553B;stroke-width:0.2;stroke-miterlimit:10;}
	.fp-pacolet-st27{fill:none;stroke:#F5F7F5;stroke-miterlimit:10;}
</style>
<title>fp_pacolet</title>
<g id="Layer_2">
	<g id="DESIGN">
		<line class="fp-pacolet-st0" x1="197.7" y1="124.5" x2="343.8" y2="124.5"/>
		<line class="fp-pacolet-st0" x1="169.1" y1="153.2" x2="343.8" y2="153.2"/>
		<line class="fp-pacolet-st0" x1="154.8" y1="167.5" x2="343.8" y2="167.5"/>
		<line class="fp-pacolet-st0" x1="140.5" y1="181.8" x2="343.8" y2="181.8"/>
		<line class="fp-pacolet-st0" x1="126.1" y1="196.1" x2="343.8" y2="196.1"/>
		<line class="fp-pacolet-st0" x1="123" y1="210.4" x2="343.8" y2="210.4"/>
		<line class="fp-pacolet-st0" x1="123" y1="224.7" x2="372.5" y2="224.7"/>
		<line class="fp-pacolet-st0" x1="123" y1="239" x2="368" y2="239"/>
		<line class="fp-pacolet-st0" x1="123" y1="253.4" x2="382.3" y2="253.4"/>
		<line class="fp-pacolet-st0" x1="123" y1="267.7" x2="395.8" y2="267.7"/>
		<line class="fp-pacolet-st0" x1="123" y1="282" x2="460.2" y2="282"/>
		<line class="fp-pacolet-st0" x1="123" y1="296.3" x2="460.2" y2="296.3"/>
		<line class="fp-pacolet-st0" x1="123" y1="310.6" x2="460.2" y2="310.6"/>
		<line class="fp-pacolet-st0" x1="123" y1="324.9" x2="460.2" y2="324.9"/>
		<line class="fp-pacolet-st0" x1="123" y1="339.2" x2="460.2" y2="339.2"/>
		<line class="fp-pacolet-st0" x1="123" y1="353.5" x2="460.2" y2="353.5"/>
		<line class="fp-pacolet-st0" x1="123" y1="367.9" x2="460.2" y2="367.9"/>
		<line class="fp-pacolet-st0" x1="123" y1="382.2" x2="460.2" y2="382.2"/>
		<line class="fp-pacolet-st0" x1="123" y1="396.5" x2="460.2" y2="396.5"/>
		<line class="fp-pacolet-st0" x1="123" y1="410.8" x2="460.2" y2="410.8"/>
		<line class="fp-pacolet-st0" x1="123" y1="425.1" x2="460.2" y2="425.1"/>
		<line class="fp-pacolet-st0" x1="123" y1="439.4" x2="460.2" y2="439.4"/>
		<line class="fp-pacolet-st0" x1="123" y1="453.7" x2="460.2" y2="453.7"/>
		<line class="fp-pacolet-st0" x1="183.4" y1="138.9" x2="343.8" y2="138.9"/>
		<polygon class="fp-pacolet-st1" points="300.2,313.5 265.9,313.5 265.9,352.2 123,352.2 123,470.4 245.8,470.4 245.8,408.6 366.8,408.6 
			366.8,380.1 		"/>
		<polygon class="fp-pacolet-st1" points="460.2,208.3 460.2,109.3 342.9,109.3 342.9,214.1 405.1,276 460.2,276 460.2,208.3 		"/>
		<line class="fp-pacolet-st2" x1="178.7" y1="143.6" x2="161.3" y2="160.9"/>
		
			<rect x="157.7" y="152" transform="matrix(0.7071 -0.7071 0.7071 0.7071 -57.8787 164.7886)" class="fp-pacolet-st3" width="24.6" height="0.6"/>
		<line class="fp-pacolet-st2" x1="199.9" y1="122.4" x2="182.5" y2="139.8"/>
		
			<rect x="178.9" y="130.8" transform="matrix(0.7071 -0.7071 0.7071 0.7071 -36.6907 173.5666)" class="fp-pacolet-st3" width="24.6" height="0.6"/>
		<polyline class="fp-pacolet-st4" points="398.8,336.3 398.8,331.5 421.4,331.5 421.4,336.3 		"/>
		<path class="fp-pacolet-st4" d="M405.2,320.5c0.2,0.5,0.3,1,0.3,1.5v2.9c0,0.5-0.3,0.9-0.8,0.9c0,0-0.1,0-0.1,0h11c-0.5,0-0.9-0.3-0.9-0.8
			c0,0,0-0.1,0-0.1V322c0-0.5,0.1-1,0.3-1.5"/>
		<ellipse class="fp-pacolet-st4" cx="410.1" cy="315.2" rx="6.4" ry="8.6"/>
		<rect x="400.5" y="325.8" class="fp-pacolet-st4" width="19.2" height="6.2"/>
		<rect x="263.8" y="448.7" class="fp-pacolet-st5" width="39.4" height="21"/>
		<path class="fp-pacolet-st5" d="M283.3,450.6h13.2c1.2,0,2.2,1,2.2,2.2v8.7c0,1.2-1,2.2-2.2,2.2h-13.2c-1.2,0-2.2-1-2.2-2.2v-8.7
			C281.1,451.6,282.1,450.6,283.3,450.6z"/>
		<circle class="fp-pacolet-st5" cx="289.8" cy="459.1" r="1.5"/>
		<polygon class="fp-pacolet-st5" points="342.6,296.5 383.1,336.9 383.2,311.5 355.4,283.7 		"/>
		<path class="fp-pacolet-st5" d="M367.8,298.9l9.3,9.3c0.9,0.9,0.9,2.2,0,3.1l-6.1,6.1c-0.9,0.9-2.2,0.9-3.1,0l-9.3-9.3
			c-0.9-0.9-0.9-2.2,0-3.1l6.1-6.1C365.5,298,366.9,298,367.8,298.9z"/>
		
			<ellipse transform="matrix(0.7071 -0.7071 0.7071 0.7071 -111.4876 349.7748)" class="fp-pacolet-st5" cx="366.5" cy="309.5" rx="1.5" ry="1.5"/>
		<polyline class="fp-pacolet-st4" points="307,468.9 307,464.1 329.5,464.1 329.5,468.9 		"/>
		<path class="fp-pacolet-st4" d="M313.3,453.2c0.2,0.5,0.3,1,0.3,1.5v2.9c0,0.5-0.3,0.9-0.8,0.9c0,0-0.1,0-0.1,0h11c-0.5,0-0.9-0.3-0.9-0.8
			c0,0,0-0.1,0-0.1v-2.9c0-0.5,0.1-1,0.3-1.5"/>
		<ellipse class="fp-pacolet-st4" cx="318.2" cy="447.8" rx="6.4" ry="8.6"/>
		<rect x="308.6" y="458.4" class="fp-pacolet-st4" width="19.2" height="6.2"/>
		<rect x="125.6" y="329.4" class="fp-pacolet-st6" width="2.3" height="1.3"/>
		<rect x="141.9" y="329.4" class="fp-pacolet-st6" width="3.7" height="1.3"/>
		<line class="fp-pacolet-st7" x1="142.2" y1="332.4" x2="127.4" y2="332.4"/>
		<line class="fp-pacolet-st7" x1="141.9" y1="330" x2="127.9" y2="330"/>
		<polyline class="fp-pacolet-st7" points="142.2,330.7 142.2,349.1 127.4,349.1 127.4,330.7 		"/>
		<path class="fp-pacolet-st8" d="M141.9,328.6c-0.1-3.4-1.3-6.7-3.6-9.2"/>
		
			<rect x="126" y="323.7" transform="matrix(0.7071 -0.7071 0.7071 0.7071 -190.1882 188.9736)" class="fp-pacolet-st9" width="14" height="0.8"/>
		<rect x="128.3" y="336.9" class="fp-pacolet-st10" width="13.3" height="4.6"/>
		<g class="fp-pacolet-st11">
			<path class="fp-pacolet-st3" d="M129,338.2h0.8c0.5,0,0.7,0.3,0.7,0.7v0c0,0.4-0.4,0.7-0.8,0.7h-0.4v0.6H129V338.2z M129.7,339.2
				c0.3,0,0.4-0.1,0.4-0.4v0c0-0.2-0.2-0.4-0.4-0.4h-0.4v0.7H129.7z"/>
		</g>
		<g class="fp-pacolet-st11">
			<path class="fp-pacolet-st3" d="M131.5,338.2h0.3l0.9,2h-0.4l-0.2-0.5h-0.9l-0.2,0.5h-0.4L131.5,338.2z M132,339.4l-0.3-0.8l-0.3,0.8H132z"
				/>
			<path class="fp-pacolet-st3" d="M133.1,338.2h0.3l1.1,1.4v-1.4h0.3v2h-0.3l-1.1-1.4v1.4h-0.3V338.2z"/>
			<path class="fp-pacolet-st3" d="M135.9,338.5h-0.6v-0.3h1.6v0.3h-0.6v1.6h-0.3V338.5z"/>
		</g>
		<g class="fp-pacolet-st11">
			<path class="fp-pacolet-st3" d="M137.4,338.2h0.9c0.2,0,0.4,0.1,0.6,0.2c0.1,0.1,0.2,0.3,0.2,0.4v0c0,0.3-0.2,0.5-0.5,0.6l0.5,0.7h-0.4
				l-0.5-0.7h-0.4v0.7h-0.3V338.2z M138.2,339.2c0.2,0,0.4-0.1,0.4-0.3v0c0-0.2-0.2-0.3-0.4-0.3h-0.5v0.7H138.2z"/>
		</g>
		<g class="fp-pacolet-st11">
			<path class="fp-pacolet-st3" d="M140,339.4l-0.8-1.2h0.4l0.5,0.9l0.6-0.9h0.4l-0.8,1.2v0.8H140V339.4z"/>
		</g>
		<rect x="142.9" y="323.7" class="fp-pacolet-st12" width="32.5" height="28.5"/>
		<rect x="175.5" y="329.1" class="fp-pacolet-st13" width="90.2" height="24.6"/>
		<polygon class="fp-pacolet-st12" points="200.5,328 200.5,327.1 229.1,327.1 229.1,352.4 200.5,352.4 		"/>
		<circle class="fp-pacolet-st12" cx="223" cy="342" r="4.3"/>
		<circle class="fp-pacolet-st12" cx="223" cy="332.8" r="3.3"/>
		<circle class="fp-pacolet-st12" cx="206.7" cy="332.8" r="2.8"/>
		<circle class="fp-pacolet-st12" cx="206.7" cy="342" r="2.8"/>
		<line class="fp-pacolet-st7" x1="229.1" y1="347" x2="200.5" y2="347"/>
		<rect x="333.4" y="408.5" class="fp-pacolet-st5" width="32.1" height="57"/>
		<path class="fp-pacolet-st5" d="M349.8,412.4c0,0-12.5-0.2-12.5,4.8v42c0,0-0.2,4,3.7,4h17.6c3.9,0,3.7-4,3.7-4v-42
			C362.3,412.1,349.8,412.4,349.8,412.4L349.8,412.4z"/>
		<path class="fp-pacolet-st5" d="M349.9,461.3c0.8,0,1.7,0.3,2.3,0.8l-2.2,2.5h-0.1l-2.2-2.5C348.2,461.6,349.1,461.3,349.9,461.3"/>
		<rect x="331.2" y="463.8" class="fp-pacolet-st3" width="35.9" height="8.3"/>
		<rect x="425.3" y="276.3" class="fp-pacolet-st5" width="31" height="55.1"/>
		<path class="fp-pacolet-st5" d="M441.2,280.1c0,0-12.1-0.2-12.1,4.6v40.6c0,0-0.2,3.9,3.5,3.9h17.1c3.7,0,3.5-3.9,3.5-3.9v-40.6
			C453.3,279.9,441.2,280.1,441.2,280.1L441.2,280.1z"/>
		<path class="fp-pacolet-st5" d="M441.3,327.5c0.8,0,1.6,0.3,2.2,0.8l-2.2,2.4h-0.1l-2.2-2.4C439.7,327.7,440.5,327.5,441.3,327.5"/>
		<rect x="423.3" y="329.9" class="fp-pacolet-st3" width="34.7" height="8.1"/>
		<polyline class="fp-pacolet-st14" points="318.4,109.3 460.2,109.3 460.2,470.4 417.5,470.4 		"/>
		<path class="fp-pacolet-st14" d="M318.4,109.3"/>
		<polyline class="fp-pacolet-st14" points="199.9,122.4 212.9,109.3 236.5,109.3 		"/>
		<line class="fp-pacolet-st14" x1="178.7" y1="143.6" x2="182.5" y2="139.8"/>
		<line class="fp-pacolet-st14" x1="157.8" y1="164.4" x2="161.3" y2="160.9"/>
		<polyline class="fp-pacolet-st14" points="386,470.4 123,470.4 123,199.2 135.4,186.9 		"/>
		<polyline class="fp-pacolet-st15" points="212.9,109.3 212.9,86.7 99.6,86.7 99.6,199.2 123,199.2 		"/>
		<polyline class="fp-pacolet-st16" points="342.9,213.8 300.4,256.3 303.6,259.5 		"/>
		<polyline class="fp-pacolet-st16" points="342.9,109.3 342.9,213.8 346.6,217.6 		"/>
		<polyline class="fp-pacolet-st16" points="368,238.9 405.1,276 460.2,276 		"/>
		<line class="fp-pacolet-st16" x1="460.2" y1="226.1" x2="453.3" y2="226.1"/>
		<polyline class="fp-pacolet-st16" points="423.8,226.1 387.9,226.1 367.8,246.2 		"/>
		<line class="fp-pacolet-st16" x1="346.2" y1="267.8" x2="326" y2="288"/>
		<polyline class="fp-pacolet-st16" points="325.9,281.8 380.3,336.2 460.2,336.2 		"/>
		<line class="fp-pacolet-st16" x1="123" y1="352.2" x2="266.2" y2="352.2"/>
		<polyline class="fp-pacolet-st16" points="362.7,376.1 366.8,380.1 366.8,470.4 		"/>
		<polyline class="fp-pacolet-st16" points="271.3,368 265.9,368 265.9,313.5 300.2,313.5 342.7,356 		"/>
		<line class="fp-pacolet-st16" x1="303.3" y1="310.7" x2="300.3" y2="313.6"/>
		<line class="fp-pacolet-st16" x1="366.3" y1="322.2" x2="363.2" y2="325.3"/>
		<line class="fp-pacolet-st16" x1="340.6" y1="348" x2="337.6" y2="350.9"/>
		<line class="fp-pacolet-st16" x1="422.9" y1="342.2" x2="422.9" y2="336"/>
		<line class="fp-pacolet-st16" x1="422.9" y1="399.9" x2="422.9" y2="389.7"/>
		<line class="fp-pacolet-st16" x1="422.9" y1="433.3" x2="422.9" y2="425.6"/>
		<line class="fp-pacolet-st16" x1="422.9" y1="471.1" x2="422.9" y2="463.4"/>
		<line class="fp-pacolet-st16" x1="460.2" y1="395.3" x2="422.9" y2="395.3"/>
		<line class="fp-pacolet-st16" x1="422.9" y1="429.4" x2="460.2" y2="429.4"/>
		<polyline class="fp-pacolet-st16" points="302,368 321.9,368 338,351.9 		"/>
		<polyline class="fp-pacolet-st16" points="366.8,408.6 245.8,408.6 245.8,413.5 		"/>
		<line class="fp-pacolet-st16" x1="245.8" y1="444.5" x2="245.8" y2="470.3"/>
		<line class="fp-pacolet-st16" x1="339.2" y1="408.6" x2="367.2" y2="380.5"/>
		<rect x="160.9" y="243.1" class="fp-pacolet-st13" width="80.6" height="41.4"/>
		<line class="fp-pacolet-st17" x1="160.8" y1="254.9" x2="241.3" y2="254.9"/>
		<polyline class="fp-pacolet-st18" points="248.7,467.4 248.7,449 250.1,449 		"/>
		<polyline class="fp-pacolet-st18" points="263,467.4 263,449 261.5,449 		"/>
		<line class="fp-pacolet-st2" x1="318.4" y1="109.3" x2="236.5" y2="109.3"/>
		<rect x="236.5" y="109" class="fp-pacolet-st3" width="81.9" height="0.7"/>
		<rect x="236.5" y="106.5" class="fp-pacolet-st3" width="81.9" height="0.7"/>
		<rect x="236.5" y="111.5" class="fp-pacolet-st3" width="81.9" height="0.7"/>
		<rect x="300.5" y="106.8" class="fp-pacolet-st3" width="0.7" height="5.1"/>
		<rect x="253.6" y="106.8" class="fp-pacolet-st3" width="0.7" height="5.1"/>
		<line class="fp-pacolet-st2" x1="123" y1="255.8" x2="123" y2="317.2"/>
		<rect x="122.7" y="255.8" class="fp-pacolet-st3" width="0.7" height="61.4"/>
		<rect x="120.2" y="255.8" class="fp-pacolet-st3" width="0.7" height="61.5"/>
		<rect x="125.2" y="255.8" class="fp-pacolet-st3" width="0.7" height="61.5"/>
		<rect x="120.5" y="272.9" class="fp-pacolet-st3" width="5.1" height="0.7"/>
		<line class="fp-pacolet-st2" x1="435.5" y1="109.3" x2="353.6" y2="109.3"/>
		<rect x="353.6" y="109" class="fp-pacolet-st3" width="81.9" height="0.7"/>
		<rect x="353.6" y="106.5" class="fp-pacolet-st3" width="81.9" height="0.7"/>
		<rect x="353.6" y="111.5" class="fp-pacolet-st3" width="81.9" height="0.7"/>
		<rect x="417.6" y="106.8" class="fp-pacolet-st3" width="0.7" height="5.1"/>
		<rect x="370.7" y="106.8" class="fp-pacolet-st3" width="0.7" height="5.1"/>
		<path class="fp-pacolet-st12" d="M215.4,266v13.7c0,1.3-1,2.3-2.3,2.3h-23.8c-1.3,0-2.3-1-2.3-2.3V266c0-1.3,1-2.3,2.3-2.3h23.8
			C214.4,263.8,215.4,264.8,215.4,266z"/>
		<circle class="fp-pacolet-st12" cx="201.2" cy="272.9" r="1.6"/>
		<line class="fp-pacolet-st2" x1="123" y1="442" x2="123" y2="360.1"/>
		<rect x="122.7" y="360.1" class="fp-pacolet-st3" width="0.7" height="81.9"/>
		<rect x="125.2" y="360.1" class="fp-pacolet-st3" width="0.7" height="81.9"/>
		<rect x="120.2" y="360.1" class="fp-pacolet-st3" width="0.7" height="81.9"/>
		<rect x="120.5" y="424.2" class="fp-pacolet-st3" width="5.1" height="0.7"/>
		<rect x="120.5" y="377.2" class="fp-pacolet-st3" width="5.1" height="0.7"/>
		<path class="fp-pacolet-st19" d="M386.2,465c0-5-0.2-12.8,9.3-22.2"/>
		
			<rect x="405.4" y="438.7" transform="matrix(0.7071 -0.7071 0.7071 0.7071 -202.5391 420.4025)" class="fp-pacolet-st20" width="1.7" height="32"/>
		<path class="fp-pacolet-st19" d="M419.8,434.6c-4.5,0-11.4-0.2-19.7,8.3"/>
		
			<rect x="409.9" y="438.2" transform="matrix(0.7071 -0.7071 0.7071 0.7071 -199.5753 422.8924)" class="fp-pacolet-st20" width="1.5" height="28.4"/>
		<path class="fp-pacolet-st19" d="M420.7,424.5c-3.8,0-9.7,0.2-16.8-7"/>
		
			<rect x="400.8" y="408.7" transform="matrix(0.7071 -0.7071 0.7071 0.7071 -168.5224 411.867)" class="fp-pacolet-st20" width="24.2" height="1.3"/>
		
			<rect x="336.3" y="388.4" transform="matrix(0.7071 -0.7071 0.7071 0.7071 -172.4098 362.1171)" class="fp-pacolet-st20" width="29.1" height="1.5"/>
		<path class="fp-pacolet-st19" d="M340.1,398.9c-10.7-10.7-12.1-29.5,0-41.5"/>
		
			<rect x="365" y="225.5" transform="matrix(0.7071 -0.7071 0.7071 0.7071 -48.9585 334.3083)" class="fp-pacolet-st20" width="28.1" height="1.5"/>
		<path class="fp-pacolet-st19" d="M388.5,215.8c-11.1-11-28.9-11-40,0"/>
		<rect x="271.6" y="336.8" class="fp-pacolet-st20" width="1.5" height="28.1"/>
		<path class="fp-pacolet-st19" d="M273.1,336.8c15.6,0,28.3,12.7,28.4,28.3"/>
		<rect x="452.1" y="228.7" class="fp-pacolet-st20" width="1.5" height="28.1"/>
		<path class="fp-pacolet-st19" d="M452.1,256.8c-15.6,0-28.3-12.7-28.4-28.3"/>
		
			<rect x="121.2" y="157.3" transform="matrix(0.7071 -0.7071 0.7071 0.7071 -86.246 136.7719)" class="fp-pacolet-st20" width="1.6" height="30.3"/>
		<path class="fp-pacolet-st19" d="M111.8,161.2c11.2-11.2,30.7-12.6,43.2,0"/>
		
			<rect x="378" y="244.5" transform="matrix(0.7071 -0.7071 0.7071 0.7071 -71.9234 343.5509)" class="fp-pacolet-st20" width="1.5" height="28.1"/>
		<rect x="248.5" y="414.3" class="fp-pacolet-st20" width="28.1" height="1.5"/>
		<path class="fp-pacolet-st21" d="M420.4,366c0,0-8.8-0.2-15.3,6"/>
		
			<rect x="412.3" y="369.1" transform="matrix(0.7071 -0.7071 0.7071 0.7071 -148.21 403.4456)" class="fp-pacolet-st22" width="1.3" height="23.1"/>
		<path class="fp-pacolet-st21" d="M420.4,366c0,0-8.8,0.2-15.3-6"/>
		
			<rect x="401.3" y="350.8" transform="matrix(0.7071 -0.7071 0.7071 0.7071 -127.5444 394.8911)" class="fp-pacolet-st22" width="23.1" height="1.3"/>
		
			<rect x="248.2" y="443.7" transform="matrix(0.7071 -0.7071 0.7071 0.7071 -239.5284 309.7308)" class="fp-pacolet-st23" width="11.9" height="0.7"/>
		<path class="fp-pacolet-st19" d="M276.6,415.8c0,15.6-12.7,28.3-28.3,28.4"/>
		<path class="fp-pacolet-st24" d="M261.6,447.9c-0.1-2.9-1.2-5.7-3.1-7.9"/>
		<polyline class="fp-pacolet-st18" points="331.5,286.4 344.5,273.3 345.5,274.3 		"/>
		<polyline class="fp-pacolet-st18" points="341.6,296.4 354.6,283.4 353.6,282.4 		"/>
		<rect x="345.9" y="273.3" class="fp-pacolet-st23" width="11.9" height="0.7"/>
		<path class="fp-pacolet-st24" d="M354.5,281.7c2-2.1,3.2-4.8,3.4-7.7"/>
		<path class="fp-pacolet-st19" d="M388.2,269.1c-11.1,11-29,11-40.1,0"/>
		<rect x="427.3" y="341.5" class="fp-pacolet-st4" width="26.7" height="24"/>
		<line class="fp-pacolet-st25" x1="451.1" y1="341.4" x2="451.1" y2="365.4"/>
		<rect x="427.3" y="366.8" class="fp-pacolet-st4" width="26.7" height="24"/>
		<line class="fp-pacolet-st25" x1="451.1" y1="366.7" x2="451.1" y2="390.7"/>
		<rect x="283.9" y="417.8" class="fp-pacolet-st10" width="40.7" height="17.2"/>
		<rect x="377.5" y="280.8" class="fp-pacolet-st10" width="36.6" height="17.2"/>
		<rect x="231.6" y="170.1" class="fp-pacolet-st10" width="50" height="17.2"/>
		<rect x="170.5" y="293.4" class="fp-pacolet-st10" width="62.1" height="10.8"/>
		<rect x="184.1" y="303.5" class="fp-pacolet-st10" width="34.7" height="10.8"/>
		<rect x="420.9" y="356.5" class="fp-pacolet-st10" width="5.2" height="19.6"/>
		<g class="fp-pacolet-st11">
			<path class="fp-pacolet-st3" d="M278.1,350.3l0.4-0.5c0.3,0.3,0.6,0.5,1,0.5c0.5,0,0.8-0.3,0.8-0.7v0c0-0.4-0.3-0.6-0.8-0.6
				c-0.3,0-0.5,0.1-0.7,0.2l-0.4-0.3l0.1-1.9h2.3v0.6H279l-0.1,0.9c0.2-0.1,0.3-0.1,0.6-0.1c0.7,0,1.3,0.4,1.3,1.2v0
				c0,0.8-0.6,1.3-1.4,1.3C278.9,350.8,278.5,350.6,278.1,350.3z"/>
			<path class="fp-pacolet-st3" d="M281.6,348.2c0.3-0.1,0.5-0.2,0.5-0.5h-0.3V347h0.7v0.6c0,0.6-0.3,0.9-0.8,0.9L281.6,348.2z"/>
			<path class="fp-pacolet-st3" d="M285.2,350.2l0.5-0.4c0.3,0.3,0.6,0.5,1,0.5c0.4,0,0.7-0.2,0.7-0.6v0c0-0.4-0.3-0.6-0.9-0.6h-0.3l-0.1-0.4
				l1-1.1h-1.6V347h2.5v0.5l-1.1,1.1c0.6,0.1,1.1,0.4,1.1,1.1v0c0,0.7-0.5,1.2-1.3,1.2C286,350.8,285.5,350.6,285.2,350.2z"/>
			<path class="fp-pacolet-st3" d="M288.7,348.2c0.3-0.1,0.5-0.2,0.5-0.5h-0.3V347h0.7v0.6c0,0.6-0.3,0.9-0.8,0.9L288.7,348.2z M290,348.2
				c0.3-0.1,0.5-0.2,0.5-0.5h-0.3V347h0.7v0.6c0,0.6-0.3,0.9-0.8,0.9L290,348.2z"/>
			<path class="fp-pacolet-st3" d="M294.9,348.9l0.7-1h0.7l-1,1.4l1.1,1.5h-0.7l-0.7-1l-0.7,1h-0.7l1-1.5l-1-1.4h0.7L294.9,348.9z"/>
			<path class="fp-pacolet-st3" d="M298.8,350.3l0.4-0.5c0.3,0.3,0.6,0.5,1,0.5c0.5,0,0.8-0.3,0.8-0.7v0c0-0.4-0.3-0.6-0.8-0.6
				c-0.3,0-0.5,0.1-0.7,0.2l-0.4-0.3l0.1-1.9h2.3v0.6h-1.7l-0.1,0.9c0.2-0.1,0.3-0.1,0.6-0.1c0.7,0,1.3,0.4,1.3,1.2v0
				c0,0.8-0.6,1.3-1.4,1.3C299.6,350.8,299.1,350.6,298.8,350.3z"/>
			<path class="fp-pacolet-st3" d="M302.3,348.2c0.3-0.1,0.5-0.2,0.5-0.5h-0.3V347h0.7v0.6c0,0.6-0.3,0.9-0.8,0.9L302.3,348.2z"/>
			<path class="fp-pacolet-st3" d="M305.9,350.3l1.3-1.1c0.5-0.4,0.7-0.7,0.7-1c0-0.4-0.3-0.6-0.6-0.6s-0.6,0.2-0.9,0.6l-0.5-0.4
				c0.4-0.5,0.7-0.8,1.4-0.8c0.7,0,1.3,0.5,1.3,1.1v0c0,0.6-0.3,0.9-1,1.5l-0.8,0.7h1.8v0.6h-2.7V350.3z"/>
			<path class="fp-pacolet-st3" d="M309.4,348.2c0.3-0.1,0.5-0.2,0.5-0.5h-0.3V347h0.7v0.6c0,0.6-0.3,0.9-0.8,0.9L309.4,348.2z M310.6,348.2
				c0.3-0.1,0.5-0.2,0.5-0.5h-0.3V347h0.7v0.6c0,0.6-0.3,0.9-0.8,0.9L310.6,348.2z"/>
		</g>
		<g class="fp-pacolet-st11">
			<path class="fp-pacolet-st3" d="M278.9,339.2L278.9,339.2c0-1.5,1.1-2.8,2.7-2.8c1,0,1.6,0.3,2.1,0.8l-0.6,0.7c-0.4-0.4-0.9-0.7-1.5-0.7
				c-1,0-1.8,0.8-1.8,1.9v0c0,1,0.7,1.9,1.8,1.9c0.7,0,1.1-0.3,1.5-0.7l0.6,0.6c-0.6,0.6-1.2,0.9-2.2,0.9
				C280,341.9,278.9,340.7,278.9,339.2z"/>
		</g>
		<g class="fp-pacolet-st11">
			<path class="fp-pacolet-st3" d="M285,336.5h0.9v4.5h2.8v0.8H285V336.5z"/>
		</g>
		<g class="fp-pacolet-st11">
			<path class="fp-pacolet-st3" d="M289.5,339.2L289.5,339.2c0-1.5,1.2-2.8,2.8-2.8c1.6,0,2.8,1.2,2.8,2.7v0c0,1.5-1.2,2.7-2.8,2.7
				C290.6,341.9,289.5,340.7,289.5,339.2z M294,339.2L294,339.2c0-1-0.8-1.9-1.8-1.9c-1.1,0-1.8,0.8-1.8,1.9v0c0,1,0.8,1.9,1.8,1.9
				C293.3,341,294,340.2,294,339.2z"/>
		</g>
		<g class="fp-pacolet-st11">
			<path class="fp-pacolet-st3" d="M296,341l0.6-0.7c0.5,0.4,1,0.7,1.7,0.7c0.6,0,0.9-0.3,0.9-0.7v0c0-0.4-0.2-0.6-1.2-0.8
				c-1.1-0.3-1.8-0.6-1.8-1.6v0c0-0.9,0.8-1.5,1.8-1.5c0.8,0,1.4,0.2,1.9,0.7l-0.5,0.7c-0.5-0.4-1-0.5-1.4-0.5
				c-0.5,0-0.9,0.3-0.9,0.6v0c0,0.4,0.2,0.6,1.3,0.8c1.1,0.3,1.7,0.7,1.7,1.6v0c0,1-0.8,1.6-1.9,1.6
				C297.4,341.9,296.7,341.6,296,341z"/>
			<path class="fp-pacolet-st3" d="M301.6,336.5h3.9v0.8h-3v1.4h2.7v0.8h-2.7v1.4h3v0.8h-4V336.5z"/>
			<path class="fp-pacolet-st3" d="M308.3,337.4h-1.7v-0.9h4.3v0.9h-1.7v4.4h-0.9V337.4z"/>
		</g>
		<g class="fp-pacolet-st11">
			<path class="fp-pacolet-st3" d="M408.1,257.3l0.4-0.5c0.3,0.3,0.6,0.5,1,0.5c0.5,0,0.8-0.3,0.8-0.7v0c0-0.4-0.3-0.6-0.8-0.6
				c-0.3,0-0.5,0.1-0.7,0.2l-0.4-0.3l0.1-1.9h2.3v0.6H409l-0.1,0.9c0.2-0.1,0.3-0.1,0.6-0.1c0.7,0,1.3,0.4,1.3,1.2v0
				c0,0.8-0.6,1.3-1.4,1.3C408.9,257.9,408.5,257.7,408.1,257.3z"/>
			<path class="fp-pacolet-st3" d="M411.6,255.3c0.3-0.1,0.5-0.2,0.5-0.5h-0.3V254h0.7v0.6c0,0.6-0.3,0.9-0.8,0.9L411.6,255.3z"/>
			<path class="fp-pacolet-st3" d="M416.5,255.9l0.7-1h0.7l-1,1.4l1.1,1.5h-0.7l-0.7-1l-0.7,1h-0.7l1-1.5l-1-1.4h0.7L416.5,255.9z"/>
			<path class="fp-pacolet-st3" d="M422.4,257h-1.9l-0.1-0.5l2.1-2.5h0.6v2.4h0.5v0.5H423v0.9h-0.6V257z M422.4,256.4v-1.5l-1.2,1.5H422.4z"/>
			<path class="fp-pacolet-st3" d="M424.3,255.3c0.3-0.1,0.5-0.2,0.5-0.5h-0.3V254h0.7v0.6c0,0.6-0.3,0.9-0.8,0.9L424.3,255.3z"/>
			<path class="fp-pacolet-st3" d="M428.5,254.7l-0.7,0.2l-0.1-0.5l1-0.3h0.5v3.8h-0.7V254.7z"/>
			<path class="fp-pacolet-st3" d="M430.3,256L430.3,256c0-1.1,0.7-2,1.7-2c1,0,1.6,0.9,1.6,2v0c0,1.1-0.7,2-1.7,2
				C430.9,257.9,430.3,257,430.3,256z M432.9,256L432.9,256c0-0.8-0.4-1.4-1-1.4s-1,0.6-1,1.3v0c0,0.7,0.4,1.4,1,1.4
				C432.5,257.3,432.9,256.7,432.9,256z"/>
			<path class="fp-pacolet-st3" d="M434.3,255.3c0.3-0.1,0.5-0.2,0.5-0.5h-0.3V254h0.7v0.6c0,0.6-0.3,0.9-0.8,0.9L434.3,255.3z M435.6,255.3
				c0.3-0.1,0.5-0.2,0.5-0.5h-0.3V254h0.7v0.6c0,0.6-0.3,0.9-0.8,0.9L435.6,255.3z"/>
		</g>
		<g class="fp-pacolet-st11">
			<path class="fp-pacolet-st3" d="M406.3,246.2L406.3,246.2c0-1.5,1.1-2.8,2.7-2.8c1,0,1.6,0.3,2.1,0.8l-0.6,0.7c-0.4-0.4-0.9-0.7-1.5-0.7
				c-1,0-1.8,0.8-1.8,1.9v0c0,1,0.7,1.9,1.8,1.9c0.7,0,1.1-0.3,1.5-0.7l0.6,0.6c-0.6,0.6-1.2,0.9-2.2,0.9
				C407.5,249,406.3,247.8,406.3,246.2z"/>
		</g>
		<g class="fp-pacolet-st11">
			<path class="fp-pacolet-st3" d="M412.5,243.6h0.9v4.5h2.8v0.8h-3.7V243.6z"/>
		</g>
		<g class="fp-pacolet-st11">
			<path class="fp-pacolet-st3" d="M416.9,246.2L416.9,246.2c0-1.5,1.2-2.8,2.8-2.8s2.8,1.2,2.8,2.7v0c0,1.5-1.2,2.7-2.8,2.7
				C418.1,249,416.9,247.7,416.9,246.2z M421.5,246.2L421.5,246.2c0-1-0.8-1.9-1.8-1.9c-1.1,0-1.8,0.8-1.8,1.9v0
				c0,1,0.8,1.9,1.8,1.9C420.8,248.1,421.5,247.3,421.5,246.2z"/>
		</g>
		<g class="fp-pacolet-st11">
			<path class="fp-pacolet-st3" d="M423.5,248.1l0.6-0.7c0.5,0.4,1,0.7,1.7,0.7c0.6,0,0.9-0.3,0.9-0.7v0c0-0.4-0.2-0.6-1.2-0.8
				c-1.1-0.3-1.8-0.6-1.8-1.6v0c0-0.9,0.8-1.5,1.8-1.5c0.8,0,1.4,0.2,1.9,0.7l-0.5,0.7c-0.5-0.4-1-0.5-1.4-0.5
				c-0.5,0-0.9,0.3-0.9,0.6v0c0,0.4,0.2,0.6,1.3,0.8c1.1,0.3,1.7,0.7,1.7,1.6v0c0,1-0.8,1.6-1.9,1.6
				C424.9,248.9,424.2,248.7,423.5,248.1z"/>
			<path class="fp-pacolet-st3" d="M429,243.6h3.9v0.8h-3v1.4h2.7v0.8H430v1.4h3v0.8h-4V243.6z"/>
			<path class="fp-pacolet-st3" d="M435.7,244.4h-1.7v-0.9h4.3v0.9h-1.7v4.4h-0.9V244.4z"/>
		</g>
		<rect x="435.6" y="404.1" class="fp-pacolet-st10" width="7.1" height="17.6"/>
		<g class="fp-pacolet-st11">
			<path class="fp-pacolet-st3" d="M439.1,406.6L439.1,406.6c0.9,0,1.6,0.6,1.6,1.6c0,0.6-0.2,0.9-0.5,1.2l-0.4-0.3c0.2-0.2,0.4-0.5,0.4-0.8
				c0-0.6-0.5-1-1.1-1h0c-0.6,0-1.1,0.4-1.1,1c0,0.4,0.1,0.6,0.4,0.9l-0.3,0.3c-0.3-0.3-0.5-0.7-0.5-1.2
				C437.5,407.3,438.2,406.6,439.1,406.6z"/>
		</g>
		<g class="fp-pacolet-st11">
			<path class="fp-pacolet-st3" d="M439.1,409.9L439.1,409.9c0.9,0,1.6,0.7,1.6,1.6s-0.7,1.6-1.6,1.6h0c-0.9,0-1.6-0.7-1.6-1.6
				S438.2,409.9,439.1,409.9z M439.1,412.5L439.1,412.5c0.6,0,1.1-0.4,1.1-1s-0.5-1-1.1-1h0c-0.6,0-1.1,0.4-1.1,1
				S438.5,412.5,439.1,412.5z"/>
		</g>
		<g class="fp-pacolet-st11">
			<path class="fp-pacolet-st3" d="M440.6,414.8v0.5l-3.1,1.3V416l0.7-0.3v-1.4l-0.7-0.3v-0.5L440.6,414.8z M438.8,415.5l1.2-0.5l-1.2-0.5
				V415.5z"/>
		</g>
		<g class="fp-pacolet-st11">
			<path class="fp-pacolet-st3" d="M440.1,417.7v-1h0.5v2.5h-0.5v-1h-2.5v-0.5H440.1z"/>
		</g>
		<g class="fp-pacolet-st11">
			<path class="fp-pacolet-st3" d="M236.9,174.4h1.3v6.4h4v1.2h-5.3V174.4z"/>
			<path class="fp-pacolet-st3" d="M244.1,174.4h1.3v7.6h-1.3V174.4z"/>
			<path class="fp-pacolet-st3" d="M247.3,174.4h1.5l2.3,5.8l2.3-5.8h1.4l-3.1,7.6h-1.2L247.3,174.4z"/>
			<path class="fp-pacolet-st3" d="M256.5,174.4h1.3v7.6h-1.3V174.4z"/>
			<path class="fp-pacolet-st3" d="M260.3,174.4h1.2l4.1,5.2v-5.2h1.3v7.6h-1.1l-4.2-5.4v5.4h-1.3V174.4z"/>
			<path class="fp-pacolet-st3" d="M269,178.2L269,178.2c0-2.1,1.6-3.9,3.9-3.9c1.3,0,2.1,0.4,2.9,1l-0.8,1c-0.6-0.5-1.2-0.8-2.1-0.8
				c-1.4,0-2.5,1.2-2.5,2.7v0c0,1.6,1,2.7,2.6,2.7c0.7,0,1.4-0.2,1.8-0.6v-1.4h-1.9v-1.2h3.2v3.2c-0.7,0.6-1.8,1.2-3.2,1.2
				C270.6,182.1,269,180.4,269,178.2z"/>
		</g>
		<g class="fp-pacolet-st11">
			<path class="fp-pacolet-st3" d="M244.4,190l1.5-1.3c0.6-0.5,0.8-0.8,0.8-1.2c0-0.4-0.3-0.7-0.7-0.7s-0.7,0.2-1,0.7l-0.6-0.4
				c0.4-0.6,0.9-0.9,1.7-0.9c0.9,0,1.5,0.5,1.5,1.3v0c0,0.7-0.4,1.1-1.2,1.7l-0.9,0.8h2.1v0.7h-3.3V190z"/>
			<path class="fp-pacolet-st3" d="M249.5,186.9l-0.8,0.2l-0.2-0.6l1.2-0.4h0.5v4.5h-0.8V186.9z"/>
			<path class="fp-pacolet-st3" d="M251.4,187.6c0.4-0.1,0.6-0.3,0.6-0.6h-0.3v-0.9h0.9v0.8c0,0.7-0.3,1-1,1.1L251.4,187.6z"/>
			<path class="fp-pacolet-st3" d="M257.2,188.4l0.8-1.1h0.8l-1.2,1.7l1.2,1.7H258l-0.8-1.2l-0.8,1.2h-0.8l1.2-1.7l-1.2-1.7h0.8L257.2,188.4z"
				/>
			<path class="fp-pacolet-st3" d="M262.6,186.9l-0.8,0.2l-0.2-0.6l1.2-0.4h0.5v4.5h-0.8V186.9z"/>
			<path class="fp-pacolet-st3" d="M265.4,186.9l-0.8,0.2l-0.2-0.6l1.2-0.4h0.5v4.5h-0.8V186.9z"/>
			<path class="fp-pacolet-st3" d="M267.3,187.6c0.4-0.1,0.6-0.3,0.6-0.6h-0.3v-0.9h0.9v0.8c0,0.7-0.3,1-1,1.1L267.3,187.6z"/>
		</g>
		<g class="fp-pacolet-st11">
			<path class="fp-pacolet-st3" d="M175.9,294.6h1.3v3.8l3.6-3.8h1.6l-3.2,3.3l3.3,4.3H181l-2.6-3.4l-1.2,1.2v2.2h-1.3V294.6z"/>
			<path class="fp-pacolet-st3" d="M184.2,294.6h1.3v7.6h-1.3V294.6z"/>
		</g>
		<g class="fp-pacolet-st11">
			<path class="fp-pacolet-st3" d="M189.9,295.9h-2.4v-1.2h6.2v1.2h-2.4v6.3h-1.3V295.9z"/>
		</g>
		<g class="fp-pacolet-st11">
			<path class="fp-pacolet-st3" d="M194.7,298.4L194.7,298.4c0-2.2,1.6-3.9,3.9-3.9c1.4,0,2.2,0.5,3,1.2l-0.9,1c-0.6-0.6-1.3-0.9-2.1-0.9
				c-1.4,0-2.5,1.2-2.5,2.7v0c0,1.5,1.1,2.7,2.5,2.7c0.9,0,1.5-0.4,2.2-1l0.9,0.9c-0.8,0.8-1.7,1.3-3.1,1.3
				C196.4,302.3,194.7,300.6,194.7,298.4z"/>
			<path class="fp-pacolet-st3" d="M203.5,294.6h1.3v3.2h3.6v-3.2h1.3v7.6h-1.3V299h-3.6v3.2h-1.3V294.6z"/>
			<path class="fp-pacolet-st3" d="M212.2,294.6h5.6v1.2h-4.3v2h3.8v1.2h-3.8v2h4.3v1.2h-5.7V294.6z"/>
			<path class="fp-pacolet-st3" d="M219.9,294.6h1.2l4.1,5.2v-5.2h1.3v7.6h-1.1l-4.2-5.4v5.4h-1.3V294.6z"/>
		</g>
		<g class="fp-pacolet-st11">
			<path class="fp-pacolet-st3" d="M189,306.9l-0.8,0.2l-0.2-0.6l1.2-0.4h0.5v4.5H189V306.9z"/>
			<path class="fp-pacolet-st3" d="M191,308.4L191,308.4c0-1.3,0.8-2.3,2-2.3c1.2,0,2,1,2,2.3v0c0,1.3-0.8,2.3-2,2.3
				C191.8,310.7,191,309.7,191,308.4z M194.1,308.4L194.1,308.4c0-0.9-0.5-1.6-1.1-1.6c-0.7,0-1.1,0.7-1.1,1.6v0
				c0,0.9,0.4,1.6,1.1,1.6S194.1,309.3,194.1,308.4z"/>
			<path class="fp-pacolet-st3" d="M195.8,307.6c0.4-0.1,0.6-0.3,0.6-0.6H196v-0.9h0.9v0.8c0,0.7-0.3,1-1,1.1L195.8,307.6z"/>
			<path class="fp-pacolet-st3" d="M201.6,308.4l0.8-1.1h0.8l-1.2,1.7l1.2,1.7h-0.8l-0.8-1.2l-0.8,1.2h-0.8l1.2-1.7l-1.2-1.7h0.8L201.6,308.4z"
				/>
			<path class="fp-pacolet-st3" d="M207.1,306.9l-0.8,0.2l-0.2-0.6l1.2-0.4h0.5v4.5h-0.8V306.9z"/>
			<path class="fp-pacolet-st3" d="M209,310l1.5-1.3c0.6-0.5,0.8-0.8,0.8-1.2c0-0.4-0.3-0.7-0.7-0.7s-0.7,0.2-1,0.7l-0.6-0.4
				c0.4-0.6,0.9-0.9,1.7-0.9c0.9,0,1.5,0.5,1.5,1.3v0c0,0.7-0.4,1.1-1.2,1.7l-0.9,0.8h2.1v0.7H209V310z"/>
			<path class="fp-pacolet-st3" d="M213.2,307.6c0.4-0.1,0.6-0.3,0.6-0.6h-0.3v-0.9h0.9v0.8c0,0.7-0.3,1-1,1.1L213.2,307.6z"/>
		</g>
		<g class="fp-pacolet-st11">
			<path class="fp-pacolet-st3" d="M119.8,112.1h3.4c0.9,0,1.5,0.2,2,0.7c0.3,0.3,0.5,0.7,0.5,1.3v0c0,0.9-0.5,1.4-1.1,1.7
				c0.9,0.3,1.5,0.8,1.5,1.8v0c0,1.4-1.1,2.1-2.8,2.1h-3.5V112.1z M124.4,114.2c0-0.6-0.5-1-1.3-1h-1.9v2h1.8
				C123.8,115.3,124.4,115,124.4,114.2L124.4,114.2z M123.2,116.4h-2.1v2.1h2.2c0.9,0,1.5-0.4,1.5-1v0
				C124.8,116.8,124.3,116.4,123.2,116.4z"/>
			<path class="fp-pacolet-st3" d="M130.7,112h1.2l3.3,7.6h-1.4l-0.8-1.8h-3.6l-0.8,1.8h-1.4L130.7,112z M132.6,116.7l-1.3-3l-1.3,3H132.6z"/>
		</g>
		<g class="fp-pacolet-st11">
			<path class="fp-pacolet-st3" d="M137,112.1h1.3v6.4h4v1.2H137V112.1z"/>
		</g>
		<g class="fp-pacolet-st11">
			<path class="fp-pacolet-st3" d="M143.4,115.9L143.4,115.9c0-2.2,1.6-3.9,3.9-3.9c1.4,0,2.2,0.5,3,1.2l-0.9,1c-0.6-0.6-1.3-0.9-2.1-0.9
				c-1.4,0-2.5,1.2-2.5,2.7v0c0,1.5,1.1,2.7,2.5,2.7c0.9,0,1.5-0.4,2.2-1l0.9,0.9c-0.8,0.8-1.7,1.3-3.1,1.3
				C145.1,119.8,143.4,118.1,143.4,115.9z"/>
		</g>
		<g class="fp-pacolet-st11">
			<path class="fp-pacolet-st3" d="M151.6,115.9L151.6,115.9c0-2.2,1.6-3.9,4-3.9s4,1.8,4,3.9v0c0,2.1-1.6,3.9-4,3.9
				C153.3,119.8,151.6,118,151.6,115.9z M158.2,115.9L158.2,115.9c0-1.5-1.1-2.7-2.6-2.7c-1.5,0-2.6,1.2-2.6,2.7v0
				c0,1.5,1.1,2.7,2.6,2.7S158.2,117.4,158.2,115.9z"/>
			<path class="fp-pacolet-st3" d="M161.6,112.1h1.2l4.1,5.2v-5.2h1.3v7.6h-1.1l-4.2-5.4v5.4h-1.3V112.1z"/>
			<path class="fp-pacolet-st3" d="M172.8,116.7l-3-4.6h1.6l2.1,3.3l2.1-3.3h1.5l-3,4.6v3h-1.3V116.7z"/>
		</g>
		<g class="fp-pacolet-st11">
			<path class="fp-pacolet-st3" d="M137.7,128l-0.8,0.2l-0.2-0.6l1.2-0.4h0.5v4.5h-0.8V128z"/>
			<path class="fp-pacolet-st3" d="M140.5,128l-0.8,0.2l-0.2-0.6l1.2-0.4h0.5v4.5h-0.8V128z"/>
			<path class="fp-pacolet-st3" d="M142.4,128.7c0.4-0.1,0.6-0.3,0.6-0.6h-0.3v-0.9h0.9v0.8c0,0.7-0.3,1-1,1.1L142.4,128.7z"/>
			<path class="fp-pacolet-st3" d="M148.2,129.4l0.8-1.1h0.8l-1.2,1.7l1.2,1.7H149l-0.8-1.2l-0.8,1.2h-0.8l1.2-1.7l-1.2-1.7h0.8L148.2,129.4z"
				/>
			<path class="fp-pacolet-st3" d="M153.6,128l-0.8,0.2l-0.2-0.6l1.2-0.4h0.5v4.5h-0.8V128z"/>
			<path class="fp-pacolet-st3" d="M156.4,128l-0.8,0.2l-0.2-0.6l1.2-0.4h0.5v4.5h-0.8V128z"/>
			<path class="fp-pacolet-st3" d="M158.4,128.7c0.4-0.1,0.6-0.3,0.6-0.6h-0.3v-0.9h0.9v0.8c0,0.7-0.3,1-1,1.1L158.4,128.7z"/>
		</g>
		<g class="fp-pacolet-st11">
			<path class="fp-pacolet-st3" d="M371.6,156.3h3.4c0.9,0,1.5,0.2,2,0.7c0.3,0.3,0.5,0.7,0.5,1.3v0c0,0.9-0.5,1.4-1.1,1.7
				c0.9,0.3,1.5,0.8,1.5,1.8v0c0,1.4-1.1,2.1-2.8,2.1h-3.5V156.3z M376.1,158.5c0-0.6-0.5-1-1.3-1h-1.9v2h1.8
				C375.6,159.5,376.1,159.2,376.1,158.5L376.1,158.5z M375,160.7h-2.1v2.1h2.2c0.9,0,1.5-0.4,1.5-1v0
				C376.6,161,376,160.7,375,160.7z"/>
			<path class="fp-pacolet-st3" d="M379.8,156.3h5.6v1.2h-4.3v2h3.8v1.2h-3.8v2h4.3v1.2h-5.7V156.3z"/>
			<path class="fp-pacolet-st3" d="M387.5,156.3h2.8c2.4,0,4,1.6,4,3.8v0c0,2.1-1.6,3.8-4,3.8h-2.8V156.3z M388.9,157.5v5.2h1.5
				c1.6,0,2.6-1.1,2.6-2.6v0c0-1.5-1-2.6-2.6-2.6H388.9z"/>
			<path class="fp-pacolet-st3" d="M396.4,156.3h3.4c1,0,1.7,0.3,2.2,0.8c0.4,0.4,0.6,1,0.6,1.6v0c0,1.2-0.7,2-1.8,2.3l2,2.9h-1.6l-1.9-2.6
				h-1.7v2.6h-1.3V156.3z M399.7,160.1c1,0,1.6-0.5,1.6-1.3v0c0-0.8-0.6-1.3-1.6-1.3h-1.9v2.5H399.7z"/>
			<path class="fp-pacolet-st3" d="M404.4,160.1L404.4,160.1c0-2.2,1.6-3.9,4-3.9s4,1.8,4,3.9v0c0,2.1-1.6,3.9-4,3.9S404.4,162.3,404.4,160.1z
				 M410.9,160.1L410.9,160.1c0-1.5-1.1-2.7-2.6-2.7s-2.6,1.2-2.6,2.7v0c0,1.5,1.1,2.7,2.6,2.7S410.9,161.6,410.9,160.1z"/>
			<path class="fp-pacolet-st3" d="M414,160.1L414,160.1c0-2.2,1.6-3.9,4-3.9s4,1.8,4,3.9v0c0,2.1-1.6,3.9-4,3.9S414,162.3,414,160.1z
				 M420.6,160.1L420.6,160.1c0-1.5-1.1-2.7-2.6-2.7s-2.6,1.2-2.6,2.7v0c0,1.5,1.1,2.7,2.6,2.7S420.6,161.6,420.6,160.1z"/>
			<path class="fp-pacolet-st3" d="M424,156.3h1.4l2.3,3.6l2.3-3.6h1.4v7.6h-1.3v-5.4l-2.4,3.6h0l-2.4-3.6v5.4H424V156.3z"/>
		</g>
		<g class="fp-pacolet-st11">
			<path class="fp-pacolet-st3" d="M381.2,172.2l-0.8,0.2l-0.2-0.6l1.2-0.4h0.5v4.5h-0.8V172.2z"/>
			<path class="fp-pacolet-st3" d="M384,172.2l-0.8,0.2l-0.2-0.6l1.2-0.4h0.5v4.5H384V172.2z"/>
			<path class="fp-pacolet-st3" d="M385.9,172.9c0.4-0.1,0.6-0.3,0.6-0.6h-0.3v-0.9h0.9v0.8c0,0.7-0.3,1-1,1.1L385.9,172.9z"/>
			<path class="fp-pacolet-st3" d="M390.1,175.2l0.6-0.5c0.3,0.4,0.7,0.6,1.2,0.6c0.4,0,0.8-0.3,0.8-0.7v0c0-0.4-0.4-0.7-1-0.7h-0.4l-0.1-0.5
				l1.2-1.3h-1.9v-0.7h3v0.6l-1.3,1.3c0.7,0.1,1.3,0.4,1.3,1.3v0c0,0.8-0.6,1.4-1.6,1.4C391,176,390.5,175.7,390.1,175.2z"/>
			<path class="fp-pacolet-st3" d="M394.3,172.9c0.4-0.1,0.6-0.3,0.6-0.6h-0.3v-0.9h0.9v0.8c0,0.7-0.3,1-1,1.1L394.3,172.9z M395.8,172.9
				c0.4-0.1,0.6-0.3,0.5-0.6H396v-0.9h0.9v0.8c0,0.7-0.3,1-1,1.1L395.8,172.9z"/>
			<path class="fp-pacolet-st3" d="M401.6,173.7l0.8-1.1h0.8l-1.2,1.7l1.2,1.7h-0.8l-0.8-1.2l-0.8,1.2h-0.8l1.2-1.7l-1.2-1.7h0.8L401.6,173.7z"
				/>
			<path class="fp-pacolet-st3" d="M407,172.2l-0.8,0.2l-0.2-0.6l1.2-0.4h0.5v4.5H407V172.2z"/>
			<path class="fp-pacolet-st3" d="M409.8,172.2l-0.8,0.2l-0.2-0.6l1.2-0.4h0.5v4.5h-0.8V172.2z"/>
			<path class="fp-pacolet-st3" d="M411.8,172.9c0.4-0.1,0.6-0.3,0.6-0.6H412v-0.9h0.9v0.8c0,0.7-0.3,1-1,1.1L411.8,172.9z"/>
			<path class="fp-pacolet-st3" d="M416,175.2l0.6-0.5c0.3,0.4,0.7,0.6,1.2,0.6c0.4,0,0.8-0.3,0.8-0.7v0c0-0.4-0.4-0.7-1-0.7h-0.4l-0.1-0.5
				l1.2-1.3h-1.9v-0.7h3v0.6l-1.3,1.3c0.7,0.1,1.3,0.4,1.3,1.3v0c0,0.8-0.6,1.4-1.6,1.4C416.9,176,416.3,175.7,416,175.2z"/>
			<path class="fp-pacolet-st3" d="M420.2,172.9c0.4-0.1,0.6-0.3,0.6-0.6h-0.3v-0.9h0.9v0.8c0,0.7-0.3,1-1,1.1L420.2,172.9z M421.6,172.9
				c0.4-0.1,0.6-0.3,0.5-0.6h-0.3v-0.9h0.9v0.8c0,0.7-0.3,1-1,1.1L421.6,172.9z"/>
		</g>
		<g class="fp-pacolet-st11">
			<path class="fp-pacolet-st3" d="M155.3,401.2h3.4c0.9,0,1.5,0.2,2,0.7c0.3,0.3,0.5,0.7,0.5,1.3v0c0,0.9-0.5,1.4-1.1,1.7
				c0.9,0.3,1.5,0.8,1.5,1.8v0c0,1.4-1.1,2.1-2.8,2.1h-3.5V401.2z M159.9,403.4c0-0.6-0.5-1-1.3-1h-1.9v2h1.8
				C159.3,404.4,159.9,404.1,159.9,403.4L159.9,403.4z M158.7,405.5h-2.1v2.1h2.2c0.9,0,1.5-0.4,1.5-1v0
				C160.3,405.9,159.8,405.5,158.7,405.5z"/>
			<path class="fp-pacolet-st3" d="M163.6,401.2h5.6v1.2h-4.3v2h3.8v1.2h-3.8v2h4.3v1.2h-5.7V401.2z"/>
			<path class="fp-pacolet-st3" d="M171.3,401.2h2.8c2.4,0,4,1.6,4,3.8v0c0,2.1-1.6,3.8-4,3.8h-2.8V401.2z M172.6,402.4v5.2h1.5
				c1.6,0,2.6-1.1,2.6-2.6v0c0-1.5-1-2.6-2.6-2.6H172.6z"/>
			<path class="fp-pacolet-st3" d="M180.2,401.2h3.4c1,0,1.7,0.3,2.2,0.8c0.4,0.4,0.6,1,0.6,1.6v0c0,1.2-0.7,2-1.8,2.3l2,2.9h-1.6l-1.9-2.6
				h-1.7v2.6h-1.3V401.2z M183.5,405c1,0,1.6-0.5,1.6-1.3v0c0-0.8-0.6-1.3-1.6-1.3h-1.9v2.5H183.5z"/>
			<path class="fp-pacolet-st3" d="M188.1,405L188.1,405c0-2.2,1.6-3.9,4-3.9s4,1.8,4,3.9v0c0,2.1-1.6,3.9-4,3.9
				C189.8,408.9,188.1,407.2,188.1,405z M194.7,405L194.7,405c0-1.5-1.1-2.7-2.6-2.7c-1.5,0-2.6,1.2-2.6,2.7v0
				c0,1.5,1.1,2.7,2.6,2.7S194.7,406.5,194.7,405z"/>
			<path class="fp-pacolet-st3" d="M197.8,405L197.8,405c0-2.2,1.6-3.9,4-3.9s4,1.8,4,3.9v0c0,2.1-1.6,3.9-4,3.9
				C199.4,408.9,197.8,407.2,197.8,405z M204.3,405L204.3,405c0-1.5-1.1-2.7-2.6-2.7c-1.5,0-2.6,1.2-2.6,2.7v0
				c0,1.5,1.1,2.7,2.6,2.7S204.3,406.5,204.3,405z"/>
			<path class="fp-pacolet-st3" d="M207.8,401.2h1.4l2.3,3.6l2.3-3.6h1.4v7.6h-1.3v-5.4l-2.4,3.6h0l-2.4-3.6v5.4h-1.3V401.2z"/>
		</g>
		<g class="fp-pacolet-st11">
			<path class="fp-pacolet-st3" d="M164.8,417.1l-0.8,0.2l-0.2-0.6l1.2-0.4h0.5v4.5h-0.8V417.1z"/>
			<path class="fp-pacolet-st3" d="M167.6,417.1l-0.8,0.2l-0.2-0.6l1.2-0.4h0.5v4.5h-0.8V417.1z"/>
			<path class="fp-pacolet-st3" d="M169.5,417.8c0.4-0.1,0.6-0.3,0.6-0.6h-0.3v-0.9h0.9v0.8c0,0.7-0.3,1-1,1.1L169.5,417.8z"/>
			<path class="fp-pacolet-st3" d="M176.5,418.7c-0.3,0.3-0.6,0.5-1.1,0.5c-1,0-1.6-0.6-1.6-1.4v0c0-0.9,0.7-1.6,1.7-1.6c0.6,0,0.9,0.2,1.3,0.5
				c0.3,0.3,0.5,0.8,0.5,1.7v0c0,1.4-0.7,2.4-1.9,2.4c-0.6,0-1.1-0.2-1.4-0.5l0.4-0.6c0.3,0.3,0.6,0.4,1,0.4
				C176.2,420.1,176.5,419.3,176.5,418.7z M176.4,417.7L176.4,417.7c0-0.5-0.4-0.8-0.9-0.8c-0.6,0-0.9,0.4-0.9,0.8v0
				c0,0.5,0.4,0.8,0.9,0.8C176.1,418.5,176.4,418.2,176.4,417.7z"/>
			<path class="fp-pacolet-st3" d="M178.2,417.8c0.4-0.1,0.6-0.3,0.6-0.6h-0.3v-0.9h0.9v0.8c0,0.7-0.3,1-1,1.1L178.2,417.8z M179.7,417.8
				c0.4-0.1,0.6-0.3,0.5-0.6h-0.3v-0.9h0.9v0.8c0,0.7-0.3,1-1,1.1L179.7,417.8z"/>
			<path class="fp-pacolet-st3" d="M185.5,418.5l0.8-1.1h0.8l-1.2,1.7l1.2,1.7h-0.8l-0.8-1.2l-0.8,1.2h-0.8l1.2-1.7l-1.2-1.7h0.8L185.5,418.5z"
				/>
			<path class="fp-pacolet-st3" d="M190.9,417.1l-0.8,0.2l-0.2-0.6l1.2-0.4h0.5v4.5h-0.8V417.1z"/>
			<path class="fp-pacolet-st3" d="M193.7,417.1l-0.8,0.2l-0.2-0.6l1.2-0.4h0.5v4.5h-0.8V417.1z"/>
			<path class="fp-pacolet-st3" d="M195.6,417.8c0.4-0.1,0.6-0.3,0.6-0.6h-0.3v-0.9h0.9v0.8c0,0.7-0.3,1-1,1.1L195.6,417.8z"/>
			<path class="fp-pacolet-st3" d="M199.8,420.1l0.6-0.5c0.3,0.4,0.7,0.6,1.2,0.6c0.4,0,0.8-0.3,0.8-0.7v0c0-0.4-0.4-0.7-1-0.7h-0.4l-0.1-0.5
				l1.2-1.3h-1.9v-0.7h3v0.6l-1.3,1.3c0.7,0.1,1.3,0.4,1.3,1.3v0c0,0.8-0.6,1.4-1.6,1.4C200.8,420.9,200.2,420.5,199.8,420.1z"/>
			<path class="fp-pacolet-st3" d="M204,417.8c0.4-0.1,0.6-0.3,0.6-0.6h-0.3v-0.9h0.9v0.8c0,0.7-0.3,1-1,1.1L204,417.8z M205.5,417.8
				c0.4-0.1,0.6-0.3,0.5-0.6h-0.3v-0.9h0.9v0.8c0,0.7-0.3,1-1,1.1L205.5,417.8z"/>
		</g>
		<circle class="fp-pacolet-st26" cx="440.9" cy="449.4" r="13.7"/>
		<g class="fp-pacolet-st11">
			<path class="fp-pacolet-st3" d="M432.2,447.2h0.8v1.8h2.1v-1.8h0.8v4.4h-0.8v-1.9H433v1.9h-0.8V447.2z"/>
		</g>
		<g class="fp-pacolet-st11">
			<path class="fp-pacolet-st3" d="M436.8,447.2h0.9l1.3,3.4l1.3-3.4h0.8l-1.8,4.4h-0.7L436.8,447.2z"/>
		</g>
		<g class="fp-pacolet-st11">
			<path class="fp-pacolet-st3" d="M443.1,447.2h0.7l1.9,4.4H445l-0.4-1.1h-2.1l-0.5,1.1h-0.8L443.1,447.2z M444.2,449.8l-0.8-1.8l-0.8,1.8
				H444.2z"/>
		</g>
		<g class="fp-pacolet-st11">
			<path class="fp-pacolet-st3" d="M446.3,449.4L446.3,449.4c0-1.3,0.9-2.3,2.3-2.3c0.8,0,1.3,0.3,1.7,0.7l-0.5,0.6c-0.4-0.3-0.7-0.5-1.2-0.5
				c-0.8,0-1.5,0.7-1.5,1.6v0c0,0.9,0.6,1.6,1.5,1.6c0.5,0,0.9-0.2,1.3-0.6l0.5,0.5c-0.5,0.5-1,0.8-1.8,0.8
				C447.3,451.7,446.3,450.7,446.3,449.4z"/>
		</g>
		<g class="fp-pacolet-st11">
			<path class="fp-pacolet-st3" d="M287.5,429.2l-0.7,0.2l-0.1-0.5l1-0.3h0.5v3.8h-0.7V429.2z"/>
			<path class="fp-pacolet-st3" d="M289.8,429.2l-0.7,0.2l-0.1-0.5l1-0.3h0.5v3.8h-0.7V429.2z"/>
			<path class="fp-pacolet-st3" d="M291.4,429.8c0.3-0.1,0.5-0.2,0.5-0.5h-0.3v-0.7h0.7v0.6c0,0.6-0.3,0.9-0.8,0.9L291.4,429.8z"/>
			<path class="fp-pacolet-st3" d="M297,429.2h-1.9v-0.6h2.7v0.5l-1.7,3.3h-0.8L297,429.2z"/>
			<path class="fp-pacolet-st3" d="M298.5,429.8c0.3-0.1,0.5-0.2,0.5-0.5h-0.3v-0.7h0.7v0.6c0,0.6-0.3,0.9-0.8,0.9L298.5,429.8z M299.7,429.8
				c0.3-0.1,0.5-0.2,0.5-0.5h-0.3v-0.7h0.7v0.6c0,0.6-0.3,0.9-0.8,0.9L299.7,429.8z"/>
			<path class="fp-pacolet-st3" d="M304.6,430.5l0.7-1h0.7l-1,1.4l1.1,1.5h-0.7l-0.7-1l-0.7,1h-0.7l1-1.5l-1-1.4h0.7L304.6,430.5z"/>
			<path class="fp-pacolet-st3" d="M308.5,431.9l0.4-0.5c0.3,0.3,0.6,0.5,1,0.5c0.5,0,0.8-0.3,0.8-0.7v0c0-0.4-0.3-0.6-0.8-0.6
				c-0.3,0-0.5,0.1-0.7,0.2l-0.4-0.3l0.1-1.9h2.3v0.6h-1.7l-0.1,0.9c0.2-0.1,0.3-0.1,0.6-0.1c0.7,0,1.3,0.4,1.3,1.2v0
				c0,0.8-0.6,1.3-1.4,1.3C309.3,432.4,308.8,432.2,308.5,431.9z"/>
			<path class="fp-pacolet-st3" d="M312,429.8c0.3-0.1,0.5-0.2,0.5-0.5h-0.3v-0.7h0.7v0.6c0,0.6-0.3,0.9-0.8,0.9L312,429.8z"/>
			<path class="fp-pacolet-st3" d="M317.9,430.6c-0.2,0.3-0.5,0.4-0.9,0.4c-0.8,0-1.3-0.5-1.3-1.2v0c0-0.7,0.6-1.3,1.4-1.3
				c0.5,0,0.8,0.1,1.1,0.4c0.3,0.3,0.5,0.7,0.5,1.4v0c0,1.2-0.6,2.1-1.6,2.1c-0.5,0-0.9-0.2-1.2-0.5l0.4-0.5
				c0.3,0.2,0.5,0.4,0.9,0.4C317.6,431.8,317.9,431.1,317.9,430.6z M317.9,429.8L317.9,429.8c0-0.4-0.3-0.7-0.8-0.7
				c-0.5,0-0.8,0.3-0.8,0.7v0c0,0.4,0.3,0.7,0.8,0.7C317.6,430.5,317.9,430.2,317.9,429.8z"/>
			<path class="fp-pacolet-st3" d="M319.3,429.8c0.3-0.1,0.5-0.2,0.5-0.5h-0.3v-0.7h0.7v0.6c0,0.6-0.3,0.9-0.8,0.9L319.3,429.8z M320.6,429.8
				c0.3-0.1,0.5-0.2,0.5-0.5h-0.3v-0.7h0.7v0.6c0,0.6-0.3,0.9-0.8,0.9L320.6,429.8z"/>
		</g>
		<g class="fp-pacolet-st11">
			<path class="fp-pacolet-st3" d="M293.6,419.9h2.4c0.6,0,1.1,0.2,1.4,0.5c0.2,0.2,0.4,0.5,0.4,0.9v0c0,0.6-0.4,1-0.8,1.2
				c0.6,0.2,1.1,0.6,1.1,1.3v0c0,0.9-0.8,1.5-2,1.5h-2.5V419.9z M296.8,421.4c0-0.4-0.3-0.7-0.9-0.7h-1.3v1.4h1.3
				C296.4,422.2,296.8,421.9,296.8,421.4L296.8,421.4z M296,423h-1.5v1.5h1.5c0.6,0,1-0.3,1-0.7v0C297.1,423.2,296.7,423,296,423z"
				/>
		</g>
		<g class="fp-pacolet-st11">
			<path class="fp-pacolet-st3" d="M301.3,419.9h0.9l2.3,5.3h-1l-0.5-1.3h-2.5l-0.5,1.3h-1L301.3,419.9z M302.6,423.1l-0.9-2.1l-0.9,2.1H302.6z
				"/>
		</g>
		<g class="fp-pacolet-st11">
			<path class="fp-pacolet-st3" d="M306.3,420.8h-1.7v-0.9h4.3v0.9h-1.7v4.4h-0.9V420.8z"/>
			<path class="fp-pacolet-st3" d="M310.2,419.9h0.9v2.2h2.5v-2.2h0.9v5.3h-0.9V423h-2.5v2.2h-0.9V419.9z"/>
		</g>
		<g class="fp-pacolet-st11">
			<path class="fp-pacolet-st3" d="M383.5,295.8c-0.3-0.3-0.5-0.7-0.5-1.4v0c0-1.2,0.6-2.1,1.6-2.1c0.5,0,0.8,0.2,1.2,0.4l-0.4,0.5
				c-0.3-0.2-0.5-0.3-0.8-0.3c-0.7,0-0.9,0.7-0.9,1.2c0.2-0.2,0.5-0.4,0.9-0.4c0.7,0,1.3,0.4,1.3,1.2v0c0,0.8-0.6,1.3-1.4,1.3
				C384.1,296.2,383.8,296.1,383.5,295.8z M385.3,295L385.3,295c0-0.4-0.3-0.7-0.8-0.7c-0.5,0-0.8,0.3-0.8,0.7v0
				c0,0.4,0.3,0.7,0.8,0.7C385,295.6,385.3,295.4,385.3,295z"/>
			<path class="fp-pacolet-st3" d="M386.7,293.6c0.3-0.1,0.5-0.2,0.5-0.5h-0.3v-0.7h0.7v0.6c0,0.6-0.3,0.9-0.8,0.9L386.7,293.6z"/>
			<path class="fp-pacolet-st3" d="M391.6,294.3l0.7-1h0.7l-1,1.4l1.1,1.5h-0.7l-0.7-1l-0.7,1h-0.7l1-1.5l-1-1.4h0.7L391.6,294.3z"/>
			<path class="fp-pacolet-st3" d="M395.5,295.6l0.4-0.5c0.3,0.3,0.6,0.5,1,0.5c0.5,0,0.8-0.3,0.8-0.7v0c0-0.4-0.3-0.6-0.8-0.6
				c-0.3,0-0.5,0.1-0.7,0.2l-0.4-0.3l0.1-1.9h2.3v0.6h-1.7l-0.1,0.9c0.2-0.1,0.3-0.1,0.6-0.1c0.7,0,1.3,0.4,1.3,1.2v0
				c0,0.8-0.6,1.3-1.4,1.3C396.3,296.2,395.9,296,395.5,295.6z"/>
			<path class="fp-pacolet-st3" d="M399.1,293.6c0.3-0.1,0.5-0.2,0.5-0.5h-0.3v-0.7h0.7v0.6c0,0.6-0.3,0.9-0.8,0.9L399.1,293.6z"/>
			<path class="fp-pacolet-st3" d="M402.6,295.6l0.5-0.4c0.3,0.3,0.6,0.5,1,0.5c0.4,0,0.7-0.2,0.7-0.6v0c0-0.4-0.3-0.6-0.9-0.6h-0.3l-0.1-0.4
				l1-1.1h-1.6v-0.6h2.5v0.5l-1.1,1.1c0.6,0.1,1.1,0.4,1.1,1.1v0c0,0.7-0.5,1.2-1.3,1.2C403.4,296.2,402.9,295.9,402.6,295.6z"/>
			<path class="fp-pacolet-st3" d="M406.1,293.6c0.3-0.1,0.5-0.2,0.5-0.5h-0.3v-0.7h0.7v0.6c0,0.6-0.3,0.9-0.8,0.9L406.1,293.6z M407.4,293.6
				c0.3-0.1,0.5-0.2,0.5-0.5h-0.3v-0.7h0.7v0.6c0,0.6-0.3,0.9-0.8,0.9L407.4,293.6z"/>
		</g>
		<g class="fp-pacolet-st11">
			<path class="fp-pacolet-st3" d="M384.9,283.1h2.4c0.6,0,1.1,0.2,1.4,0.5c0.2,0.2,0.4,0.5,0.4,0.9v0c0,0.6-0.4,1-0.8,1.2
				c0.6,0.2,1.1,0.6,1.1,1.3v0c0,0.9-0.8,1.5-2,1.5h-2.5V283.1z M388.1,284.6c0-0.4-0.3-0.7-0.9-0.7h-1.3v1.4h1.3
				C387.7,285.3,388.1,285.1,388.1,284.6L388.1,284.6z M387.3,286.1h-1.5v1.5h1.5c0.6,0,1-0.3,1-0.7v0
				C388.4,286.3,388.1,286.1,387.3,286.1z"/>
		</g>
		<g class="fp-pacolet-st11">
			<path class="fp-pacolet-st3" d="M392.6,283h0.9l2.3,5.3h-1l-0.5-1.3h-2.5l-0.5,1.3h-1L392.6,283z M393.9,286.3l-0.9-2.1l-0.9,2.1H393.9z"/>
		</g>
		<g class="fp-pacolet-st11">
			<path class="fp-pacolet-st3" d="M397.6,283.9H396v-0.9h4.3v0.9h-1.7v4.4h-0.9V283.9z"/>
			<path class="fp-pacolet-st3" d="M401.6,283.1h0.9v2.2h2.5v-2.2h0.9v5.3H405v-2.2h-2.5v2.2h-0.9V283.1z"/>
		</g>
		<g class="fp-pacolet-st11">
			<path class="fp-pacolet-st3" d="M424.6,358.4v0.4h-1.9v1.1h-0.4v-1.5H424.6z"/>
		</g>
		<g class="fp-pacolet-st11">
			<path class="fp-pacolet-st3" d="M424.6,361.2v0.4l-2.3,0.9v-0.4l0.6-0.2v-1l-0.6-0.2v-0.4L424.6,361.2z M423.2,361.7l0.9-0.4l-0.9-0.4V361.7
				z"/>
		</g>
		<g class="fp-pacolet-st11">
			<path class="fp-pacolet-st3" d="M423.3,362.9h1.3v0.4h-1.3c-0.4,0-0.7,0.2-0.7,0.5c0,0.3,0.2,0.5,0.6,0.5h1.3v0.4h-1.3c-0.7,0-1-0.4-1-0.9
				C422.3,363.2,422.6,362.9,423.3,362.9z"/>
			<path class="fp-pacolet-st3" d="M424.6,365.3v0.4l-1.6,1.2h1.6v0.4h-2.3v-0.3l1.6-1.2h-1.6v-0.4H424.6z"/>
			<path class="fp-pacolet-st3" d="M424.6,367.9v0.8c0,0.7-0.5,1.1-1.1,1.1h0c-0.6,0-1.1-0.5-1.1-1.1v-0.8H424.6z M424.2,368.3h-1.6v0.4
				c0,0.5,0.3,0.7,0.8,0.7h0c0.4,0,0.8-0.3,0.8-0.7V368.3z"/>
		</g>
		<g class="fp-pacolet-st11">
			<path class="fp-pacolet-st3" d="M424.6,370.4v1c0,0.3-0.1,0.5-0.2,0.6c-0.1,0.1-0.3,0.2-0.5,0.2h0c-0.4,0-0.6-0.2-0.7-0.5l-0.9,0.6v-0.5
				l0.8-0.5v-0.5h-0.8v-0.4H424.6z M423.5,371.4c0,0.3,0.2,0.4,0.4,0.4h0c0.2,0,0.4-0.2,0.4-0.4v-0.6h-0.8V371.4z"/>
		</g>
		<g class="fp-pacolet-st11">
			<path class="fp-pacolet-st3" d="M423.2,373.3l1.4-0.9v0.5l-1,0.6l1,0.6v0.4l-1.4-0.9h-0.9v-0.4H423.2z"/>
		</g>
		<rect x="0.5" y="0.5" class="fp-pacolet-st27" width="557.3" height="557.3"/>
	</g>
</g>
</svg>
