<?xml version="1.0" encoding="utf-8"?>
<!-- Generator: Adobe Illustrator 21.1.0, SVG Export Plug-In . SVG Version: 6.00 Build 0)  -->
<svg version="1.1" id="Layer_1" xmlns="http://www.w3.org/2000/svg" xmlns:xlink="http://www.w3.org/1999/xlink" x="0px" y="0px"
	 viewBox="0 0 558.3 558.3" style="enable-background:new 0 0 558.3 558.3;" xml:space="preserve">
<style type="text/css">
	.fp-reedy-st0{fill:none;stroke:#F5F7F5;stroke-miterlimit:10;}
	.fp-reedy-st1{fill:none;stroke:#A6A8AB;stroke-width:0.27;stroke-miterlimit:10;}
	.fp-reedy-st2{fill:#E4E9E4;stroke:#32553B;stroke-width:0.31;stroke-miterlimit:10;}
	.fp-reedy-st3{fill:#C8D0C9;stroke:#32553B;stroke-width:0.27;stroke-miterlimit:10;}
	.fp-reedy-st4{fill:#E4E9E4;stroke:#32553B;stroke-width:0.27;stroke-miterlimit:10;}
	.fp-reedy-st5{fill:#C8D0C9;stroke:#32553B;stroke-width:0.24;stroke-miterlimit:10;}
	.fp-reedy-st6{fill:#32553B;}
	.fp-reedy-st7{fill:none;stroke:#32553B;stroke-width:0.27;stroke-miterlimit:10;}
	.fp-reedy-st8{fill:none;stroke:#62A044;stroke-width:7.59;stroke-miterlimit:10;}
	.fp-reedy-st9{fill:none;stroke:#32553B;stroke-width:7.59;stroke-linejoin:round;}
	.fp-reedy-st10{fill:none;stroke:#32553B;stroke-width:4.33;stroke-miterlimit:10;}
	.fp-reedy-st11{fill:none;stroke:#32553B;stroke-width:4.33;stroke-linejoin:round;}
	.fp-reedy-st12{fill:none;stroke:#E4E9E4;stroke-width:7.59;stroke-linejoin:round;}
	.fp-reedy-st13{fill:none;stroke:#799900;stroke-width:0.27;stroke-miterlimit:10;}
	.fp-reedy-st14{fill:#FFFFFF;stroke:#62A044;stroke-width:0.27;stroke-miterlimit:10;}
	.fp-reedy-st15{fill:#FFFFFF;stroke:#62A044;stroke-width:0.28;stroke-miterlimit:10;}
	.fp-reedy-st16{fill:none;stroke:#799900;stroke-width:0.28;stroke-miterlimit:10;}
	.fp-reedy-st17{fill:none;stroke:#799900;stroke-width:0.16;stroke-miterlimit:10;}
	.fp-reedy-st18{fill:#FFFFFF;stroke:#62A044;stroke-width:0.16;stroke-miterlimit:10;}
	.fp-reedy-st19{fill:none;stroke:#32553B;stroke-width:1.08;stroke-miterlimit:10;}
	.fp-reedy-st20{fill:none;stroke:#799900;stroke-width:0.13;stroke-miterlimit:10;}
	.fp-reedy-st21{fill:#FFFFFF;stroke:#62A044;stroke-width:0.13;stroke-miterlimit:10;}
	.fp-reedy-st22{fill:#E4E9E4;}
	.fp-reedy-st23{enable-background:new    ;}
	.fp-reedy-st24{fill:#C8D0C9;stroke:#32553B;stroke-width:0.25;stroke-miterlimit:10;}
	.fp-reedy-st25{fill:none;stroke:#32553B;stroke-width:0.25;stroke-miterlimit:10;}
</style>
<title>fp_reedy</title>
<g id="Layer_2">
	<g id="DESIGN">
		<rect x="0.5" y="0.5" class="fp-reedy-st0" width="557.3" height="557.3"/>
		<line class="fp-reedy-st1" x1="178.9" y1="124.7" x2="391.4" y2="124.7"/>
		<line class="fp-reedy-st1" x1="178.9" y1="137.3" x2="391.4" y2="137.3"/>
		<line class="fp-reedy-st1" x1="178.9" y1="149.9" x2="391.4" y2="149.9"/>
		<line class="fp-reedy-st1" x1="178.9" y1="162.6" x2="391.4" y2="162.6"/>
		<line class="fp-reedy-st1" x1="178.9" y1="175.2" x2="391.4" y2="175.2"/>
		<line class="fp-reedy-st1" x1="178.9" y1="187.9" x2="391.4" y2="187.9"/>
		<line class="fp-reedy-st1" x1="178.9" y1="200.5" x2="391.4" y2="200.5"/>
		<line class="fp-reedy-st1" x1="178.9" y1="213.1" x2="391.4" y2="213.1"/>
		<line class="fp-reedy-st1" x1="178.9" y1="225.8" x2="391.4" y2="225.8"/>
		<line class="fp-reedy-st1" x1="178.9" y1="238.4" x2="391.4" y2="238.4"/>
		<line class="fp-reedy-st1" x1="178.9" y1="251.1" x2="391.4" y2="251.1"/>
		<line class="fp-reedy-st1" x1="178.9" y1="263.7" x2="391.4" y2="263.7"/>
		<line class="fp-reedy-st1" x1="178.9" y1="276.3" x2="391.4" y2="276.3"/>
		<line class="fp-reedy-st1" x1="178.9" y1="289" x2="391.4" y2="289"/>
		<line class="fp-reedy-st1" x1="178.9" y1="301.6" x2="391.4" y2="301.6"/>
		<line class="fp-reedy-st1" x1="178.9" y1="314.3" x2="391.4" y2="314.3"/>
		<line class="fp-reedy-st1" x1="178.9" y1="326.9" x2="391.4" y2="326.9"/>
		<line class="fp-reedy-st1" x1="178.9" y1="339.5" x2="391.4" y2="339.5"/>
		<line class="fp-reedy-st1" x1="178.9" y1="352.2" x2="391.4" y2="352.2"/>
		<line class="fp-reedy-st1" x1="178.9" y1="364.8" x2="391.4" y2="364.8"/>
		<line class="fp-reedy-st1" x1="178.9" y1="377.5" x2="391.4" y2="377.5"/>
		<line class="fp-reedy-st1" x1="178.9" y1="390.1" x2="391.4" y2="390.1"/>
		<line class="fp-reedy-st1" x1="178.9" y1="402.7" x2="391.4" y2="402.7"/>
		<line class="fp-reedy-st1" x1="178.9" y1="415.4" x2="391.4" y2="415.4"/>
		<line class="fp-reedy-st1" x1="178.9" y1="428" x2="391.4" y2="428"/>
		<line class="fp-reedy-st1" x1="178.9" y1="440.7" x2="391.4" y2="440.7"/>
		<line class="fp-reedy-st1" x1="178.9" y1="453.3" x2="391.4" y2="453.3"/>
		<line class="fp-reedy-st1" x1="178.9" y1="465.9" x2="391.4" y2="465.9"/>
		<line class="fp-reedy-st1" x1="178.9" y1="478.6" x2="391.4" y2="478.6"/>
		<line class="fp-reedy-st1" x1="178.9" y1="491.2" x2="391.4" y2="491.2"/>
		<line class="fp-reedy-st1" x1="178.9" y1="503.9" x2="391.4" y2="503.9"/>
		<rect x="364" y="112.2" class="fp-reedy-st2" width="27.3" height="110.2"/>
		<rect x="358" y="222.4" class="fp-reedy-st3" width="31.2" height="33.4"/>
		<rect x="360.7" y="271" class="fp-reedy-st4" width="1.4" height="1.9"/>
		<rect x="178.5" y="434.7" class="fp-reedy-st2" width="26" height="39.8"/>
		<rect x="354.4" y="449.8" class="fp-reedy-st5" width="34.2" height="60.7"/>
		<path class="fp-reedy-st5" d="M371.9,454c0,0-13.3-0.2-13.3,5.1v44.7c0,0-0.2,4.2,3.9,4.2h18.8c4.1,0,3.9-4.2,3.9-4.2v-44.7
			C385.2,453.8,371.9,454,371.9,454L371.9,454z"/>
		<path class="fp-reedy-st5" d="M372,506.1c0.9,0,1.8,0.3,2.5,0.9l-2.4,2.7h-0.1l-2.4-2.7C370.2,506.4,371.1,506.1,372,506.1"/>
		<rect x="352.1" y="508.8" class="fp-reedy-st6" width="38.3" height="8.9"/>
		<polyline class="fp-reedy-st5" points="324.5,514.3 324.5,509.1 349,509.1 349,514.3 		"/>
		<path class="fp-reedy-st5" d="M331.4,497.2c0.2,0.5,0.4,1,0.4,1.6v3.1c0,0.5-0.3,1-0.8,1c-0.1,0-0.1,0-0.2,0h12c-0.5,0-1-0.3-1-0.8
			c0-0.1,0-0.1,0-0.2v-3.1c0-0.5,0.1-1.1,0.4-1.6"/>
		<ellipse class="fp-reedy-st5" cx="336.8" cy="491.4" rx="6.9" ry="9.4"/>
		<rect x="326.3" y="502.9" class="fp-reedy-st5" width="20.9" height="6.8"/>
		<rect x="286.9" y="493.1" class="fp-reedy-st5" width="31.7" height="21.5"/>
		<polygon class="fp-reedy-st3" points="361.5,216.1 360.4,216.1 360.4,182.6 390,182.6 390,216.1 		"/>
		<circle class="fp-reedy-st3" cx="377.9" cy="189.8" r="5"/>
		<circle class="fp-reedy-st3" cx="367" cy="189.8" r="3.9"/>
		<circle class="fp-reedy-st3" cx="367" cy="208.9" r="3.2"/>
		<circle class="fp-reedy-st3" cx="377.9" cy="208.9" r="3.2"/>
		<line class="fp-reedy-st7" x1="383.7" y1="182.6" x2="383.7" y2="216.1"/>
		<polyline class="fp-reedy-st8" points="266.4,394 266.4,276.1 311.6,276.1 		"/>
		<polyline class="fp-reedy-st9" points="195.8,112.2 178.4,112.2 178.4,515.1 212.7,515.1 		"/>
		<line class="fp-reedy-st9" x1="321" y1="112.2" x2="263.5" y2="112.2"/>
		<polyline class="fp-reedy-st9" points="247.6,515.1 391.4,515.1 391.4,112.2 354.1,112.2 		"/>
		<line class="fp-reedy-st10" x1="206.8" y1="515.1" x2="206.8" y2="508.1"/>
		<polyline class="fp-reedy-st10" points="206.8,483.8 206.8,476.1 178.4,476.1 		"/>
		<line class="fp-reedy-st10" x1="307" y1="449.2" x2="391.4" y2="449.2"/>
		<polyline class="fp-reedy-st10" points="274.9,449.2 267.6,449.2 267.6,515.1 		"/>
		<polyline class="fp-reedy-st10" points="313.5,449.4 313.5,399.4 319,399.4 		"/>
		<line class="fp-reedy-st10" x1="352.3" y1="399.2" x2="391.4" y2="399.2"/>
		<rect x="261.9" y="389.5" class="fp-reedy-st6" width="9.1" height="9.1"/>
		<rect x="261.9" y="442.2" class="fp-reedy-st6" width="9.1" height="9.1"/>
		<line class="fp-reedy-st9" x1="311.6" y1="276.1" x2="391.4" y2="276.1"/>
		<polyline class="fp-reedy-st10" points="178.4,325.4 220,325.4 220,333.7 		"/>
		<polyline class="fp-reedy-st10" points="178.4,434 220,434 220,430 		"/>
		<line class="fp-reedy-st10" x1="220" y1="385.3" x2="220" y2="397.5"/>
		<line class="fp-reedy-st10" x1="178.4" y1="391.1" x2="220" y2="391.1"/>
		<polyline class="fp-reedy-st11" points="273.4,112.2 273.4,42.8 366.9,42.8 366.9,112.2 		"/>
		<path class="fp-reedy-st5" d="M296.3,495.2h13.6c1.2,0,2.2,1,2.2,2.2v9c0,1.2-1,2.2-2.2,2.2h-13.6c-1.2,0-2.2-1-2.2-2.2v-9
			C294.1,496.2,295.1,495.2,296.3,495.2z"/>
		<circle class="fp-reedy-st5" cx="303" cy="503.8" r="1.5"/>
		<line class="fp-reedy-st12" x1="263.5" y1="112.2" x2="195.8" y2="112.2"/>
		<rect x="195.8" y="109.7" class="fp-reedy-st6" width="67.8" height="0.6"/>
		<rect x="215.1" y="110" class="fp-reedy-st6" width="0.6" height="4.5"/>
		<rect x="195.8" y="111.9" class="fp-reedy-st6" width="67.8" height="0.6"/>
		<rect x="195.8" y="114.1" class="fp-reedy-st6" width="67.8" height="0.6"/>
		<path class="fp-reedy-st3" d="M383.1,173.7h-15.6c-1.3,0-2.3-1-2.3-2.3v-26.7c0-1.3,1-2.3,2.3-2.3h15.6c1.3,0,2.3,1,2.3,2.3v26.7
			C385.4,172.7,384.3,173.7,383.1,173.7z"/>
		<circle class="fp-reedy-st3" cx="375.3" cy="158.1" r="1.7"/>
		<rect x="360.7" y="255.8" class="fp-reedy-st4" width="1.4" height="1.9"/>
		<path class="fp-reedy-st13" d="M248,509.9c0-5.6,0.2-14.2-10.3-24.6"/>
		
			<rect x="207.9" y="497.5" transform="matrix(0.7071 -0.7071 0.7071 0.7071 -286.3102 305.5917)" class="fp-reedy-st14" width="35.6" height="1.9"/>
		<rect x="274" y="452.3" class="fp-reedy-st14" width="1.6" height="29.9"/>
		<path class="fp-reedy-st13" d="M275.6,482.2c15.6,0,30.2-12.6,30.2-30.2"/>
		<rect x="319.8" y="402.6" class="fp-reedy-st14" width="1.6" height="29.9"/>
		<path class="fp-reedy-st13" d="M321.3,432.5c15.6,0,30.2-12.6,30.2-30.2"/>
		<rect x="222.5" y="397.7" class="fp-reedy-st14" width="29.9" height="1.6"/>
		<path class="fp-reedy-st13" d="M252.4,399.3c0,15.6-12.6,30.2-30.2,30.2"/>
		<rect x="352.5" y="75.9" class="fp-reedy-st15" width="1.6" height="31.2"/>
		<path class="fp-reedy-st16" d="M352.5,75.9c-16.3,0-31.5,13.1-31.5,31.4"/>
		<path class="fp-reedy-st13" d="M223,359.3c0,0,9.5,0.2,16.5-6.5"/>
		
			<rect x="230.5" y="331" transform="matrix(0.7071 -0.7071 0.7071 0.7071 -175.1765 264.082)" class="fp-reedy-st14" width="1.4" height="25"/>
		<path class="fp-reedy-st13" d="M223,359.3c0,0,9.5-0.2,16.5,6.5"/>
		
			<rect x="218.7" y="374.5" transform="matrix(0.7071 -0.7071 0.7071 0.7071 -197.5773 273.3578)" class="fp-reedy-st14" width="25" height="1.4"/>
		<path class="fp-reedy-st13" d="M210.1,484c0,0,9-0.2,15.7,6.1"/>
		
			<rect x="205.9" y="498.4" transform="matrix(0.7071 -0.7071 0.7071 0.7071 -289.0876 300.1864)" class="fp-reedy-st14" width="23.7" height="1.3"/>
		<path class="fp-reedy-st17" d="M286.5,491.7c-0.1-3.7-1.5-7.2-3.9-10"/>
		
			<rect x="269.3" y="486.4" transform="matrix(0.7071 -0.7071 0.7071 0.7071 -263.1037 338.3946)" class="fp-reedy-st18" width="15.2" height="0.8"/>
		<polyline class="fp-reedy-st19" points="270.8,513.6 270.8,493.1 272.8,493.1 		"/>
		<polyline class="fp-reedy-st19" points="287,513.6 287,493.1 285,493.1 		"/>
		<line class="fp-reedy-st7" x1="364" y1="255.8" x2="364" y2="275.7"/>
		<line class="fp-reedy-st7" x1="361.4" y1="257.7" x2="361.4" y2="271"/>
		<polyline class="fp-reedy-st7" points="364,257.4 385.9,257.4 385.9,271 364,271 		"/>
		<path class="fp-reedy-st20" d="M360.4,258.2c-3,0.1-5.8,1.2-8,3.1"/>
		
			<rect x="356.1" y="259.9" transform="matrix(0.7071 -0.7071 0.7071 0.7071 -83.6521 329.9395)" class="fp-reedy-st21" width="0.7" height="12.2"/>
		<rect x="365.2" y="260.4" class="fp-reedy-st22" width="20" height="7.1"/>
		<g class="fp-reedy-st23">
			<path class="fp-reedy-st6" d="M299.9,329.6h3.4c0.9,0,1.5,0.2,2,0.7c0.3,0.3,0.5,0.7,0.5,1.3v0c0,0.9-0.5,1.4-1.1,1.7
				c0.9,0.3,1.5,0.8,1.5,1.8v0c0,1.4-1.1,2.1-2.8,2.1h-3.5V329.6z M304.4,331.8c0-0.6-0.5-1-1.3-1h-1.9v2h1.8
				C303.9,332.8,304.4,332.5,304.4,331.8L304.4,331.8z M303.3,333.9h-2.1v2.1h2.2c0.9,0,1.5-0.4,1.5-1v0
				C304.9,334.3,304.3,333.9,303.3,333.9z"/>
			<path class="fp-reedy-st6" d="M308.1,329.6h5.6v1.2h-4.3v2h3.8v1.2h-3.8v2h4.3v1.2h-5.7V329.6z"/>
			<path class="fp-reedy-st6" d="M315.8,329.6h2.8c2.4,0,4,1.6,4,3.8v0c0,2.1-1.6,3.8-4,3.8h-2.8V329.6z M317.2,330.8v5.2h1.5
				c1.6,0,2.6-1.1,2.6-2.6v0c0-1.5-1-2.6-2.6-2.6H317.2z"/>
			<path class="fp-reedy-st6" d="M324.7,329.6h3.4c1,0,1.7,0.3,2.2,0.8c0.4,0.4,0.6,1,0.6,1.6v0c0,1.2-0.7,2-1.8,2.3l2,2.9h-1.6l-1.9-2.6
				h-1.7v2.6h-1.3V329.6z M328,333.4c1,0,1.6-0.5,1.6-1.3v0c0-0.8-0.6-1.3-1.6-1.3h-1.9v2.5H328z"/>
			<path class="fp-reedy-st6" d="M332.7,333.4L332.7,333.4c0-2.2,1.6-3.9,4-3.9s4,1.8,4,3.9v0c0,2.1-1.6,3.9-4,3.9
				C334.3,337.3,332.7,335.6,332.7,333.4z M339.2,333.4L339.2,333.4c0-1.5-1.1-2.7-2.6-2.7c-1.5,0-2.6,1.2-2.6,2.7v0
				c0,1.5,1.1,2.7,2.6,2.7S339.2,334.9,339.2,333.4z"/>
			<path class="fp-reedy-st6" d="M342.3,333.4L342.3,333.4c0-2.2,1.6-3.9,4-3.9s4,1.8,4,3.9v0c0,2.1-1.6,3.9-4,3.9
				C343.9,337.3,342.3,335.6,342.3,333.4z M348.9,333.4L348.9,333.4c0-1.5-1.1-2.7-2.6-2.7c-1.5,0-2.6,1.2-2.6,2.7v0
				c0,1.5,1.1,2.7,2.6,2.7S348.9,334.9,348.9,333.4z"/>
			<path class="fp-reedy-st6" d="M352.3,329.6h1.4l2.3,3.6l2.3-3.6h1.4v7.6h-1.3v-5.4l-2.4,3.6h0l-2.4-3.6v5.4h-1.3V329.6z"/>
		</g>
		<g class="fp-reedy-st23">
			<path class="fp-reedy-st6" d="M227.9,177.8h1.3v6.4h4v1.2h-5.3V177.8z"/>
			<path class="fp-reedy-st6" d="M235.1,177.8h1.3v7.6h-1.3V177.8z"/>
			<path class="fp-reedy-st6" d="M238.3,177.8h1.5l2.3,5.8l2.3-5.8h1.4l-3.1,7.6h-1.2L238.3,177.8z"/>
			<path class="fp-reedy-st6" d="M247.6,177.8h1.3v7.6h-1.3V177.8z"/>
			<path class="fp-reedy-st6" d="M251.4,177.8h1.2l4.1,5.2v-5.2h1.3v7.6h-1.1l-4.2-5.4v5.4h-1.3V177.8z"/>
			<path class="fp-reedy-st6" d="M260,181.6L260,181.6c0-2.1,1.6-3.9,3.9-3.9c1.3,0,2.1,0.4,2.9,1l-0.8,1c-0.6-0.5-1.2-0.8-2.1-0.8
				c-1.4,0-2.5,1.2-2.5,2.7v0c0,1.6,1,2.7,2.6,2.7c0.7,0,1.4-0.2,1.8-0.6v-1.4h-1.9v-1.2h3.2v3.2c-0.7,0.6-1.8,1.2-3.2,1.2
				C261.6,185.5,260,183.8,260,181.6z"/>
			<path class="fp-reedy-st6" d="M272.9,176.7h1.1l-4.9,10H268L272.9,176.7z"/>
			<path class="fp-reedy-st6" d="M275.4,177.8h1.3v3.8l3.6-3.8h1.6l-3.2,3.3l3.3,4.3h-1.6l-2.6-3.4l-1.2,1.2v2.2h-1.3V177.8z"/>
			<path class="fp-reedy-st6" d="M283.7,177.8h1.3v7.6h-1.3V177.8z"/>
		</g>
		<g class="fp-reedy-st23">
			<path class="fp-reedy-st6" d="M289.4,179H287v-1.2h6.2v1.2h-2.4v6.3h-1.3V179z"/>
		</g>
		<g class="fp-reedy-st23">
			<path class="fp-reedy-st6" d="M294.2,181.6L294.2,181.6c0-2.2,1.6-3.9,3.9-3.9c1.4,0,2.2,0.5,3,1.2l-0.9,1c-0.6-0.6-1.3-0.9-2.1-0.9
				c-1.4,0-2.5,1.2-2.5,2.7v0c0,1.5,1.1,2.7,2.5,2.7c0.9,0,1.5-0.4,2.2-1l0.9,0.9c-0.8,0.8-1.7,1.3-3.1,1.3
				C295.9,185.5,294.2,183.8,294.2,181.6z"/>
			<path class="fp-reedy-st6" d="M303,177.8h1.3v3.2h3.6v-3.2h1.3v7.6h-1.3v-3.2h-3.6v3.2H303V177.8z"/>
			<path class="fp-reedy-st6" d="M311.7,177.8h5.6v1.2H313v2h3.8v1.2H313v2h4.3v1.2h-5.7V177.8z"/>
			<path class="fp-reedy-st6" d="M319.4,177.8h1.2l4.1,5.2v-5.2h1.3v7.6h-1.1l-4.2-5.4v5.4h-1.3V177.8z"/>
		</g>
		<g class="fp-reedy-st23">
			<path class="fp-reedy-st6" d="M307.1,344.2l-0.8,0.2l-0.2-0.6l1.2-0.4h0.5v4.5h-0.8V344.2z"/>
			<path class="fp-reedy-st6" d="M309.2,345.7L309.2,345.7c0-1.3,0.8-2.3,2-2.3c1.2,0,2,1,2,2.3v0c0,1.3-0.8,2.3-2,2.3S309.2,347,309.2,345.7
				z M312.3,345.7L312.3,345.7c0-0.9-0.5-1.6-1.1-1.6s-1.1,0.7-1.1,1.6v0c0,0.9,0.4,1.6,1.1,1.6S312.3,346.6,312.3,345.7z"/>
			<path class="fp-reedy-st6" d="M314,344.9c0.4-0.1,0.6-0.3,0.6-0.6h-0.3v-0.9h0.9v0.8c0,0.7-0.3,1-1,1.1L314,344.9z"/>
			<path class="fp-reedy-st6" d="M318.8,347.6c-0.3-0.3-0.5-0.8-0.5-1.7v0c0-1.4,0.7-2.4,1.9-2.4c0.6,0,1,0.2,1.4,0.5l-0.4,0.6
				c-0.3-0.2-0.6-0.4-1-0.4c-0.8,0-1.1,0.8-1.1,1.4c0.3-0.3,0.6-0.5,1.1-0.5c0.9,0,1.6,0.5,1.6,1.4v0c0,0.9-0.7,1.5-1.7,1.5
				C319.5,348,319.1,347.9,318.8,347.6z M320.9,346.5L320.9,346.5c0-0.5-0.4-0.8-0.9-0.8s-0.9,0.4-0.9,0.8v0c0,0.5,0.4,0.8,0.9,0.8
				S320.9,347,320.9,346.5z"/>
			<path class="fp-reedy-st6" d="M322.6,344.9c0.4-0.1,0.6-0.3,0.6-0.6h-0.3v-0.9h0.9v0.8c0,0.7-0.3,1-1,1.1L322.6,344.9z M324.1,344.9
				c0.4-0.1,0.6-0.3,0.5-0.6h-0.3v-0.9h0.9v0.8c0,0.7-0.3,1-1,1.1L324.1,344.9z"/>
			<path class="fp-reedy-st6" d="M329.9,345.7l0.8-1.1h0.8l-1.2,1.7l1.2,1.7h-0.8l-0.8-1.2L329,348h-0.8l1.2-1.7l-1.2-1.7h0.8L329.9,345.7z"
				/>
			<path class="fp-reedy-st6" d="M335.3,344.2l-0.8,0.2l-0.2-0.6l1.2-0.4h0.5v4.5h-0.8V344.2z"/>
			<path class="fp-reedy-st6" d="M337.4,345.7L337.4,345.7c0-1.3,0.8-2.3,2-2.3c1.2,0,2,1,2,2.3v0c0,1.3-0.8,2.3-2,2.3
				C338.1,348,337.4,347,337.4,345.7z M340.5,345.7L340.5,345.7c0-0.9-0.5-1.6-1.2-1.6c-0.7,0-1.1,0.7-1.1,1.6v0
				c0,0.9,0.5,1.6,1.2,1.6S340.5,346.6,340.5,345.7z"/>
			<path class="fp-reedy-st6" d="M342.2,344.9c0.4-0.1,0.6-0.3,0.6-0.6h-0.3v-0.9h0.9v0.8c0,0.7-0.3,1-1,1.1L342.2,344.9z"/>
			<path class="fp-reedy-st6" d="M347,347.6c-0.3-0.3-0.5-0.8-0.5-1.7v0c0-1.4,0.7-2.4,1.9-2.4c0.6,0,1,0.2,1.4,0.5l-0.4,0.6
				c-0.3-0.2-0.6-0.4-1-0.4c-0.8,0-1.1,0.8-1.1,1.4c0.3-0.3,0.6-0.5,1.1-0.5c0.9,0,1.6,0.5,1.6,1.4v0c0,0.9-0.7,1.5-1.7,1.5
				C347.7,348,347.3,347.9,347,347.6z M349.1,346.5L349.1,346.5c0-0.5-0.4-0.8-0.9-0.8c-0.6,0-0.9,0.4-0.9,0.8v0
				c0,0.5,0.4,0.8,0.9,0.8C348.8,347.3,349.1,347,349.1,346.5z"/>
			<path class="fp-reedy-st6" d="M350.8,344.9c0.4-0.1,0.6-0.3,0.6-0.6H351v-0.9h0.9v0.8c0,0.7-0.3,1-1,1.1L350.8,344.9z M352.3,344.9
				c0.4-0.1,0.6-0.3,0.5-0.6h-0.3v-0.9h0.9v0.8c0,0.7-0.3,1-1,1.1L352.3,344.9z"/>
		</g>
		<g class="fp-reedy-st23">
			<path class="fp-reedy-st6" d="M307.5,483.9l-0.7,0.2l-0.1-0.5l1-0.3h0.5v3.8h-0.7V483.9z"/>
			<path class="fp-reedy-st6" d="M309.9,483.9l-0.7,0.2l-0.1-0.5l1-0.3h0.5v3.8h-0.7V483.9z"/>
			<path class="fp-reedy-st6" d="M311.5,484.5c0.3-0.1,0.5-0.2,0.5-0.5h-0.3v-0.7h0.7v0.6c0,0.6-0.3,0.9-0.8,0.9L311.5,484.5z"/>
			<path class="fp-reedy-st6" d="M316.3,485.1l0.7-1h0.7l-1,1.4l1.1,1.5H317l-0.7-1l-0.7,1h-0.7l1-1.5l-1-1.4h0.7L316.3,485.1z"/>
			<path class="fp-reedy-st6" d="M320.2,486.5l0.4-0.5c0.3,0.3,0.6,0.5,1,0.5c0.5,0,0.8-0.3,0.8-0.7v0c0-0.4-0.3-0.6-0.8-0.6
				c-0.3,0-0.5,0.1-0.7,0.2l-0.4-0.3l0.1-1.9h2.3v0.6h-1.7l-0.1,0.9c0.2-0.1,0.3-0.1,0.6-0.1c0.7,0,1.3,0.4,1.3,1.2v0
				c0,0.8-0.6,1.3-1.4,1.3C321,487.1,320.6,486.9,320.2,486.5z"/>
			<path class="fp-reedy-st6" d="M323.8,484.5c0.3-0.1,0.5-0.2,0.5-0.5H324v-0.7h0.7v0.6c0,0.6-0.3,0.9-0.8,0.9L323.8,484.5z"/>
		</g>
		<g class="fp-reedy-st23">
			<path class="fp-reedy-st6" d="M305.2,469.7h2.4c0.6,0,1.1,0.2,1.4,0.5c0.2,0.2,0.4,0.5,0.4,0.9v0c0,0.6-0.4,1-0.8,1.2
				c0.6,0.2,1.1,0.6,1.1,1.3v0c0,0.9-0.8,1.5-2,1.5h-2.5V469.7z M308.4,471.2c0-0.4-0.3-0.7-0.9-0.7h-1.3v1.4h1.3
				C308,471.9,308.4,471.7,308.4,471.2L308.4,471.2z M307.6,472.7h-1.5v1.5h1.5c0.6,0,1-0.3,1-0.7v0
				C308.7,473,308.3,472.7,307.6,472.7z"/>
		</g>
		<g class="fp-reedy-st23">
			<path class="fp-reedy-st6" d="M312.9,469.7h0.9l2.3,5.3h-1l-0.5-1.3H312l-0.5,1.3h-1L312.9,469.7z M314.2,472.9l-0.9-2.1l-0.9,2.1H314.2z"
				/>
		</g>
		<g class="fp-reedy-st23">
			<path class="fp-reedy-st6" d="M317.9,470.6h-1.7v-0.9h4.3v0.9h-1.7v4.4h-0.9V470.6z"/>
			<path class="fp-reedy-st6" d="M321.8,469.7h0.9v2.2h2.5v-2.2h0.9v5.3h-0.9v-2.2h-2.5v2.2h-0.9V469.7z"/>
		</g>
		<circle class="fp-reedy-st24" cx="197.8" cy="412.8" r="14.1"/>
		<g class="fp-reedy-st23">
			<path class="fp-reedy-st6" d="M188.9,410.5h0.8v1.9h2.2v-1.9h0.8v4.5h-0.8v-1.9h-2.2v1.9h-0.8V410.5z"/>
		</g>
		<g class="fp-reedy-st23">
			<path class="fp-reedy-st6" d="M193.7,410.5h0.9l1.4,3.5l1.4-3.5h0.9l-1.9,4.6h-0.7L193.7,410.5z"/>
		</g>
		<g class="fp-reedy-st23">
			<path class="fp-reedy-st6" d="M200.2,410.5h0.7l2,4.6h-0.8l-0.5-1.1h-2.2L199,415h-0.8L200.2,410.5z M201.3,413.2l-0.8-1.8l-0.8,1.8H201.3
				z"/>
		</g>
		<g class="fp-reedy-st23">
			<path class="fp-reedy-st6" d="M203.5,412.8L203.5,412.8c0-1.3,1-2.4,2.3-2.4c0.8,0,1.3,0.3,1.8,0.7l-0.5,0.6c-0.4-0.3-0.8-0.6-1.3-0.6
				c-0.9,0-1.5,0.7-1.5,1.6v0c0,0.9,0.6,1.6,1.5,1.6c0.6,0,0.9-0.2,1.3-0.6l0.5,0.5c-0.5,0.5-1,0.8-1.8,0.8
				C204.5,415.1,203.5,414.1,203.5,412.8z"/>
		</g>
		<rect x="186.9" y="332.3" class="fp-reedy-st24" width="26.7" height="25.4"/>
		<line class="fp-reedy-st25" x1="189.8" y1="357.8" x2="189.8" y2="332.4"/>
		<rect x="186.9" y="359.5" class="fp-reedy-st24" width="26.7" height="25.4"/>
		<line class="fp-reedy-st25" x1="189.8" y1="385" x2="189.8" y2="359.5"/>
		<g class="fp-reedy-st23">
			<path class="fp-reedy-st6" d="M191.6,462.1V461c0-1,0.7-1.6,1.5-1.6h0c0.9,0,1.5,0.7,1.5,1.6v1.1H191.6z M192.1,461.6h2.1V461
				c0-0.6-0.4-1.1-1-1.1h0c-0.6,0-1,0.4-1,1.1V461.6z"/>
			<path class="fp-reedy-st6" d="M191.6,458.6v-2.2h0.5v1.7h0.8v-1.5h0.5v1.5h0.8v-1.7h0.5v2.3H191.6z"/>
			<path class="fp-reedy-st6" d="M194.2,455.7l-0.4-0.3c0.3-0.3,0.4-0.6,0.4-1c0-0.3-0.2-0.5-0.4-0.5h0c-0.2,0-0.3,0.1-0.5,0.7
				c-0.2,0.6-0.3,1-0.9,1h0c-0.5,0-0.9-0.4-0.9-1c0-0.4,0.1-0.8,0.4-1.1l0.4,0.3c-0.2,0.3-0.3,0.5-0.3,0.8c0,0.3,0.2,0.5,0.4,0.5h0
				c0.2,0,0.3-0.1,0.5-0.7c0.2-0.6,0.4-1,0.9-1h0c0.6,0,0.9,0.4,0.9,1.1C194.7,454.9,194.5,455.3,194.2,455.7z"/>
			<path class="fp-reedy-st6" d="M191.6,452.5V452h1.5l-1.5-1.4v-0.7l1.3,1.3l1.7-1.3v0.6l-1.4,1l0.5,0.5h0.9v0.5H191.6z"/>
		</g>
		<g class="fp-reedy-st23">
			<path class="fp-reedy-st6" d="M366,262.4h1.2c0.7,0,1.2,0.4,1.2,1v0c0,0.7-0.5,1-1.2,1h-0.6v1H366V262.4z M367.1,263.9
				c0.4,0,0.7-0.2,0.7-0.5v0c0-0.4-0.3-0.5-0.7-0.5h-0.6v1.1H367.1z"/>
		</g>
		<g class="fp-reedy-st23">
			<path class="fp-reedy-st6" d="M369.8,262.3h0.5l1.3,3.1h-0.6l-0.3-0.7h-1.4l-0.3,0.7h-0.5L369.8,262.3z M370.6,264.2L370,263l-0.5,1.2
				H370.6z"/>
			<path class="fp-reedy-st6" d="M372.3,262.4h0.5l1.6,2.1v-2.1h0.5v3h-0.4l-1.7-2.2v2.2h-0.5V262.4z"/>
			<path class="fp-reedy-st6" d="M376.7,262.9h-1v-0.5h2.5v0.5h-1v2.5h-0.5V262.9z"/>
		</g>
		<g class="fp-reedy-st23">
			<path class="fp-reedy-st6" d="M378.9,262.4h1.4c0.4,0,0.7,0.1,0.9,0.3c0.2,0.2,0.3,0.4,0.3,0.7v0c0,0.5-0.3,0.8-0.7,0.9l0.8,1.1h-0.6
				l-0.7-1.1h-0.7v1.1h-0.5V262.4z M380.2,263.9c0.4,0,0.6-0.2,0.6-0.5v0c0-0.3-0.2-0.5-0.6-0.5h-0.8v1H380.2z"/>
		</g>
		<g class="fp-reedy-st23">
			<path class="fp-reedy-st6" d="M383,264.2l-1.2-1.8h0.6l0.8,1.3l0.9-1.3h0.6l-1.2,1.8v1.2H383V264.2z"/>
		</g>
		<g class="fp-reedy-st23">
			<path class="fp-reedy-st6" d="M357.4,422L357.4,422c0-0.9,0.6-1.6,1.6-1.6c0.6,0,0.9,0.2,1.2,0.5l-0.3,0.4c-0.2-0.2-0.5-0.4-0.8-0.4
				c-0.6,0-1,0.5-1,1.1v0c0,0.6,0.4,1.1,1,1.1c0.4,0,0.6-0.1,0.9-0.4l0.3,0.3c-0.3,0.3-0.7,0.5-1.2,0.5
				C358,423.6,357.4,422.9,357.4,422z"/>
		</g>
		<g class="fp-reedy-st23">
			<path class="fp-reedy-st6" d="M360.9,420.5h0.5v2.5h1.6v0.5h-2.1V420.5z"/>
		</g>
		<g class="fp-reedy-st23">
			<path class="fp-reedy-st6" d="M363.4,422L363.4,422c0-0.9,0.7-1.6,1.6-1.6s1.6,0.7,1.6,1.6v0c0,0.9-0.7,1.6-1.6,1.6S363.4,422.8,363.4,422
				z M366,422L366,422c0-0.6-0.4-1.1-1-1.1s-1,0.5-1,1.1v0c0,0.6,0.4,1.1,1,1.1C365.6,423.1,366,422.6,366,422z"/>
		</g>
		<g class="fp-reedy-st23">
			<path class="fp-reedy-st6" d="M367.2,423.1l0.3-0.4c0.3,0.3,0.6,0.4,1,0.4c0.3,0,0.5-0.2,0.5-0.4v0c0-0.2-0.1-0.3-0.7-0.5
				c-0.6-0.2-1-0.3-1-0.9v0c0-0.5,0.4-0.9,1-0.9c0.4,0,0.8,0.1,1.1,0.4l-0.3,0.4c-0.3-0.2-0.5-0.3-0.8-0.3c-0.3,0-0.5,0.2-0.5,0.4v0
				c0,0.2,0.1,0.3,0.7,0.5c0.6,0.2,1,0.4,1,0.9v0c0,0.6-0.4,0.9-1.1,0.9C368,423.5,367.6,423.4,367.2,423.1z"/>
			<path class="fp-reedy-st6" d="M370.4,420.5h2.2v0.5h-1.7v0.8h1.5v0.5h-1.5v0.8h1.7v0.5h-2.3V420.5z"/>
			<path class="fp-reedy-st6" d="M374.2,421h-1v-0.5h2.5v0.5h-1v2.5h-0.5V421z"/>
		</g>
		<g class="fp-reedy-st23">
			<path class="fp-reedy-st6" d="M253.3,192.7l-0.8,0.2l-0.2-0.6l1.2-0.4h0.5v4.5h-0.8V192.7z"/>
			<path class="fp-reedy-st6" d="M255.2,195.2L255.2,195.2c0-0.6,0.3-0.9,0.8-1.1c-0.4-0.2-0.7-0.5-0.7-1v0c0-0.7,0.7-1.2,1.6-1.2
				s1.6,0.5,1.6,1.2v0c0,0.5-0.3,0.8-0.7,1c0.5,0.2,0.8,0.5,0.8,1.1v0c0,0.8-0.7,1.3-1.7,1.3S255.2,195.9,255.2,195.2z M257.9,195.1
				L257.9,195.1c0-0.4-0.4-0.7-0.9-0.7s-0.9,0.3-0.9,0.7v0c0,0.4,0.3,0.7,0.9,0.7C257.5,195.8,257.9,195.5,257.9,195.1z
				 M257.8,193.1L257.8,193.1c0-0.4-0.3-0.6-0.8-0.6s-0.8,0.3-0.8,0.6v0c0,0.4,0.3,0.7,0.8,0.7S257.8,193.5,257.8,193.1z"/>
			<path class="fp-reedy-st6" d="M259.5,193.4c0.4-0.1,0.6-0.3,0.6-0.6h-0.3v-0.9h0.9v0.8c0,0.7-0.3,1-1,1.1L259.5,193.4z"/>
			<path class="fp-reedy-st6" d="M263.7,195.7l0.6-0.5c0.3,0.4,0.7,0.6,1.2,0.6c0.4,0,0.8-0.3,0.8-0.7v0c0-0.4-0.4-0.7-1-0.7h-0.4l-0.1-0.5
				l1.2-1.3h-1.9v-0.7h3v0.6l-1.3,1.3c0.7,0.1,1.3,0.4,1.3,1.3v0c0,0.8-0.6,1.4-1.6,1.4C264.6,196.5,264.1,196.1,263.7,195.7z"/>
			<path class="fp-reedy-st6" d="M267.9,193.4c0.4-0.1,0.6-0.3,0.6-0.6h-0.3v-0.9h0.9v0.8c0,0.7-0.3,1-1,1.1L267.9,193.4z M269.4,193.4
				c0.4-0.1,0.6-0.3,0.5-0.6h-0.3v-0.9h0.9v0.8c0,0.7-0.3,1-1,1.1L269.4,193.4z"/>
			<path class="fp-reedy-st6" d="M275.2,194.1l0.8-1.1h0.8l-1.2,1.7l1.2,1.7H276l-0.8-1.2l-0.8,1.2h-0.8l1.2-1.7l-1.2-1.7h0.8L275.2,194.1z"
				/>
			<path class="fp-reedy-st6" d="M280.6,192.7l-0.8,0.2l-0.2-0.6l1.2-0.4h0.5v4.5h-0.8V192.7z"/>
			<path class="fp-reedy-st6" d="M282.6,195.2L282.6,195.2c0-0.6,0.3-0.9,0.8-1.1c-0.4-0.2-0.7-0.5-0.7-1v0c0-0.7,0.7-1.2,1.6-1.2
				s1.6,0.5,1.6,1.2v0c0,0.5-0.3,0.8-0.7,1c0.5,0.2,0.8,0.5,0.8,1.1v0c0,0.8-0.7,1.3-1.7,1.3C283.3,196.5,282.6,195.9,282.6,195.2z
				 M285.3,195.1L285.3,195.1c0-0.4-0.4-0.7-0.9-0.7s-0.9,0.3-0.9,0.7v0c0,0.4,0.3,0.7,0.9,0.7C284.9,195.8,285.3,195.5,285.3,195.1
				z M285.1,193.1L285.1,193.1c0-0.4-0.3-0.6-0.8-0.6c-0.5,0-0.8,0.3-0.8,0.6v0c0,0.4,0.3,0.7,0.8,0.7
				C284.8,193.8,285.1,193.5,285.1,193.1z"/>
			<path class="fp-reedy-st6" d="M286.8,193.4c0.4-0.1,0.6-0.3,0.6-0.6h-0.3v-0.9h0.9v0.8c0,0.7-0.3,1-1,1.1L286.8,193.4z"/>
			<path class="fp-reedy-st6" d="M291.9,192.7l-0.8,0.2l-0.2-0.6l1.2-0.4h0.5v4.5h-0.8V192.7z"/>
			<path class="fp-reedy-st6" d="M293.9,194.2L293.9,194.2c0-1.3,0.8-2.3,2-2.3c1.2,0,2,1,2,2.3v0c0,1.3-0.8,2.3-2,2.3
				S293.9,195.4,293.9,194.2z M297,194.2L297,194.2c0-0.9-0.5-1.6-1.1-1.6s-1.1,0.7-1.1,1.6v0c0,0.9,0.4,1.6,1.1,1.6
				S297,195,297,194.2z"/>
			<path class="fp-reedy-st6" d="M298.7,193.4c0.4-0.1,0.6-0.3,0.6-0.6H299v-0.9h0.9v0.8c0,0.7-0.3,1-1,1.1L298.7,193.4z M300.2,193.4
				c0.4-0.1,0.6-0.3,0.5-0.6h-0.3v-0.9h0.9v0.8c0,0.7-0.3,1-1,1.1L300.2,193.4z"/>
		</g>
		<g class="fp-reedy-st23">
			<path class="fp-reedy-st6" d="M291.8,61.3h3.4c0.9,0,1.5,0.2,2,0.7c0.3,0.3,0.5,0.7,0.5,1.3v0c0,0.9-0.5,1.4-1.1,1.7
				c0.9,0.3,1.5,0.8,1.5,1.8v0c0,1.4-1.1,2.1-2.8,2.1h-3.5V61.3z M296.4,63.4c0-0.6-0.5-1-1.3-1h-1.9v2h1.8
				C295.8,64.5,296.4,64.2,296.4,63.4L296.4,63.4z M295.2,65.6h-2.1v2.1h2.2c0.9,0,1.5-0.4,1.5-1v0C296.8,66,296.3,65.6,295.2,65.6z
				"/>
			<path class="fp-reedy-st6" d="M302.8,61.2h1.2l3.3,7.6h-1.4l-0.8-1.8h-3.6l-0.8,1.8h-1.4L302.8,61.2z M304.7,65.9l-1.3-3l-1.3,3H304.7z"/>
		</g>
		<g class="fp-reedy-st23">
			<path class="fp-reedy-st6" d="M309.1,61.3h1.3v6.4h4v1.2h-5.3V61.3z"/>
		</g>
		<g class="fp-reedy-st23">
			<path class="fp-reedy-st6" d="M315.4,65.1L315.4,65.1c0-2.2,1.6-3.9,3.9-3.9c1.4,0,2.2,0.5,3,1.2l-0.9,1c-0.6-0.6-1.3-0.9-2.1-0.9
				c-1.4,0-2.5,1.2-2.5,2.7v0c0,1.5,1.1,2.7,2.5,2.7c0.9,0,1.5-0.4,2.2-1l0.9,0.9c-0.8,0.8-1.7,1.3-3.1,1.3
				C317.1,69,315.4,67.3,315.4,65.1z"/>
		</g>
		<g class="fp-reedy-st23">
			<path class="fp-reedy-st6" d="M323.6,65.1L323.6,65.1c0-2.2,1.6-3.9,4-3.9s4,1.8,4,3.9v0c0,2.1-1.6,3.9-4,3.9S323.6,67.2,323.6,65.1z
				 M330.2,65.1L330.2,65.1c0-1.5-1.1-2.7-2.6-2.7s-2.6,1.2-2.6,2.7v0c0,1.5,1.1,2.7,2.6,2.7S330.2,66.6,330.2,65.1z"/>
			<path class="fp-reedy-st6" d="M333.6,61.3h1.2l4.1,5.2v-5.2h1.3v7.6h-1.1l-4.2-5.4v5.4h-1.3V61.3z"/>
			<path class="fp-reedy-st6" d="M344.9,65.9l-3-4.6h1.6l2.1,3.3l2.1-3.3h1.5l-3,4.6v3h-1.3V65.9z"/>
		</g>
		<g class="fp-reedy-st23">
			<path class="fp-reedy-st6" d="M305.1,77.4L305.1,77.4c0-0.6,0.3-0.9,0.8-1.1c-0.4-0.2-0.7-0.5-0.7-1v0c0-0.7,0.7-1.2,1.6-1.2
				s1.6,0.5,1.6,1.2v0c0,0.5-0.3,0.8-0.7,1c0.5,0.2,0.8,0.5,0.8,1.1v0c0,0.8-0.7,1.3-1.7,1.3C305.9,78.7,305.1,78.1,305.1,77.4z
				 M307.8,77.3L307.8,77.3c0-0.4-0.4-0.7-0.9-0.7s-0.9,0.3-0.9,0.7v0c0,0.4,0.3,0.7,0.9,0.7S307.8,77.7,307.8,77.3z M307.6,75.3
				L307.6,75.3c0-0.4-0.3-0.6-0.8-0.6S306,75,306,75.3v0c0,0.4,0.3,0.7,0.8,0.7C307.3,76,307.6,75.7,307.6,75.3z"/>
			<path class="fp-reedy-st6" d="M309.4,75.6c0.4-0.1,0.6-0.3,0.6-0.6h-0.3v-0.9h0.9v0.8c0,0.7-0.3,1-1,1.1L309.4,75.6z"/>
			<path class="fp-reedy-st6" d="M313.6,77.9l0.6-0.5c0.3,0.4,0.7,0.6,1.2,0.6c0.4,0,0.8-0.3,0.8-0.7v0c0-0.4-0.4-0.7-1-0.7h-0.4l-0.1-0.5
				l1.2-1.3h-1.9v-0.7h3v0.6l-1.3,1.3c0.7,0.1,1.3,0.4,1.3,1.3v0c0,0.8-0.6,1.4-1.6,1.4C314.5,78.7,314,78.3,313.6,77.9z"/>
			<path class="fp-reedy-st6" d="M317.8,75.6c0.4-0.1,0.6-0.3,0.6-0.6H318v-0.9h0.9v0.8c0,0.7-0.3,1-1,1.1L317.8,75.6z M319.3,75.6
				c0.4-0.1,0.6-0.3,0.5-0.6h-0.3v-0.9h0.9v0.8c0,0.7-0.3,1-1,1.1L319.3,75.6z"/>
			<path class="fp-reedy-st6" d="M325.1,76.3l0.8-1.1h0.8l-1.2,1.7l1.2,1.7h-0.8l-0.8-1.2l-0.8,1.2h-0.8l1.2-1.7l-1.2-1.7h0.8L325.1,76.3z"/>
			<path class="fp-reedy-st6" d="M330.3,78.2c-0.3-0.3-0.5-0.8-0.5-1.7v0c0-1.4,0.7-2.4,1.9-2.4c0.6,0,1,0.2,1.4,0.5l-0.4,0.6
				c-0.3-0.2-0.6-0.4-1-0.4c-0.8,0-1.1,0.8-1.1,1.4c0.3-0.3,0.6-0.5,1.1-0.5c0.9,0,1.6,0.5,1.6,1.4v0c0,0.9-0.7,1.5-1.7,1.5
				C331,78.7,330.6,78.5,330.3,78.2z M332.4,77.2L332.4,77.2c0-0.5-0.4-0.8-0.9-0.8c-0.6,0-0.9,0.4-0.9,0.8v0c0,0.5,0.4,0.8,0.9,0.8
				C332.1,78,332.4,77.6,332.4,77.2z"/>
			<path class="fp-reedy-st6" d="M334.1,75.6c0.4-0.1,0.6-0.3,0.6-0.6h-0.3v-0.9h0.9v0.8c0,0.7-0.3,1-1,1.1L334.1,75.6z"/>
		</g>
		<rect x="189.6" y="488" class="fp-reedy-st22" width="7.1" height="14.4"/>
		<g class="fp-reedy-st23">
			<path class="fp-reedy-st6" d="M193.1,501.5L193.1,501.5c-0.9,0-1.6-0.6-1.6-1.6c0-0.6,0.2-0.9,0.5-1.2l0.4,0.3c-0.2,0.2-0.4,0.5-0.4,0.8
				c0,0.6,0.5,1,1.1,1h0c0.6,0,1.1-0.4,1.1-1c0-0.4-0.1-0.6-0.4-0.9l0.3-0.3c0.3,0.3,0.5,0.7,0.5,1.2
				C194.7,500.8,194,501.5,193.1,501.5z"/>
		</g>
		<g class="fp-reedy-st23">
			<path class="fp-reedy-st6" d="M193.1,498.2L193.1,498.2c-0.9,0-1.6-0.7-1.6-1.6s0.7-1.6,1.6-1.6h0c0.9,0,1.6,0.7,1.6,1.6
				S194,498.2,193.1,498.2z M193.1,495.6L193.1,495.6c-0.6,0-1.1,0.4-1.1,1c0,0.6,0.5,1,1.1,1h0c0.6,0,1.1-0.4,1.1-1
				C194.2,496,193.7,495.6,193.1,495.6z"/>
		</g>
		<g class="fp-reedy-st23">
			<path class="fp-reedy-st6" d="M191.6,493.3v-0.5l3.1-1.3v0.6l-0.7,0.3v1.4l0.7,0.3v0.5L191.6,493.3z M193.4,492.6l-1.2,0.5l1.2,0.5V492.6z
				"/>
		</g>
		<g class="fp-reedy-st23">
			<path class="fp-reedy-st6" d="M192.1,490.5v1h-0.5V489h0.5v1h2.5v0.5H192.1z"/>
		</g>
		<rect x="215.1" y="348.7" class="fp-reedy-st22" width="5.2" height="19.6"/>
		<g class="fp-reedy-st23">
			<path class="fp-reedy-st6" d="M216.5,366.4V366h1.9v-1.1h0.4v1.5H216.5z"/>
		</g>
		<g class="fp-reedy-st23">
			<path class="fp-reedy-st6" d="M216.5,363.6v-0.4l2.3-0.9v0.4l-0.6,0.2v1l0.6,0.2v0.4L216.5,363.6z M217.9,363l-0.9,0.4l0.9,0.4V363z"/>
		</g>
		<g class="fp-reedy-st23">
			<path class="fp-reedy-st6" d="M217.9,361.9h-1.3v-0.4h1.3c0.4,0,0.7-0.2,0.7-0.5c0-0.3-0.2-0.5-0.6-0.5h-1.3v-0.4h1.3c0.7,0,1,0.4,1,0.9
				C218.9,361.5,218.5,361.9,217.9,361.9z"/>
			<path class="fp-reedy-st6" d="M216.5,359.4v-0.4l1.6-1.2h-1.6v-0.4h2.3v0.3l-1.6,1.2h1.6v0.4H216.5z"/>
			<path class="fp-reedy-st6" d="M216.5,356.9V356c0-0.7,0.5-1.1,1.1-1.1h0c0.6,0,1.1,0.5,1.1,1.1v0.8H216.5z M216.9,356.5h1.6V356
				c0-0.5-0.3-0.7-0.8-0.7h0c-0.4,0-0.8,0.3-0.8,0.7V356.5z"/>
		</g>
		<g class="fp-reedy-st23">
			<path class="fp-reedy-st6" d="M216.5,354.3v-1c0-0.3,0.1-0.5,0.2-0.6c0.1-0.1,0.3-0.2,0.5-0.2h0c0.4,0,0.6,0.2,0.7,0.5l0.9-0.6v0.5
				l-0.8,0.5v0.5h0.8v0.4H216.5z M217.7,353.4c0-0.3-0.2-0.4-0.4-0.4h0c-0.2,0-0.4,0.2-0.4,0.4v0.6h0.8V353.4z"/>
		</g>
		<g class="fp-reedy-st23">
			<path class="fp-reedy-st6" d="M217.9,351.4l-1.4,0.9v-0.5l1-0.6l-1-0.6v-0.4l1.4,0.9h0.9v0.4H217.9z"/>
		</g>
	</g>
</g>
</svg>
