<?xml version="1.0" encoding="utf-8"?>
<!-- Generator: Adobe Illustrator 21.1.0, SVG Export Plug-In . SVG Version: 6.00 Build 0)  -->
<svg version="1.1" id="Layer_1" xmlns="http://www.w3.org/2000/svg" xmlns:xlink="http://www.w3.org/1999/xlink" x="0px" y="0px"
	 viewBox="0 0 558.3 558.3" style="enable-background:new 0 0 558.3 558.3;" xml:space="preserve">
<style type="text/css">
	.fp-summit-st0{fill:none;stroke:#A6A8AB;stroke-width:0.27;stroke-miterlimit:10;}
	.fp-summit-st1{fill:#E4E9E4;}
	.fp-summit-st2{fill:#E4E9E4;stroke:#32553B;stroke-width:0.27;stroke-miterlimit:10;}
	.fp-summit-st3{fill:none;stroke:#32553B;stroke-width:0.27;stroke-miterlimit:10;}
	.fp-summit-st4{fill:none;stroke:#799900;stroke-width:0.16;stroke-miterlimit:10;}
	.fp-summit-st5{fill:#FFFFFF;stroke:#62A044;stroke-width:0.16;stroke-miterlimit:10;}
	.fp-summit-st6{fill:#F5F7F5;}
	.fp-summit-st7{enable-background:new    ;}
	.fp-summit-st8{fill:#32553B;}
	.fp-summit-st9{fill:#E4E9E4;stroke:#32553B;stroke-width:0.24;stroke-miterlimit:10;}
	.fp-summit-st10{fill:#C8D0C9;stroke:#32553B;stroke-width:0.27;stroke-miterlimit:10;}
	.fp-summit-st11{fill:#E4E9E4;stroke:#32553B;stroke-width:0.31;stroke-miterlimit:10;}
	.fp-summit-st12{fill:#C8D0C9;stroke:#32553B;stroke-width:0.24;stroke-miterlimit:10;}
	.fp-summit-st13{fill:#C8D0C9;stroke:#32553B;stroke-width:0.21;stroke-miterlimit:10;}
	.fp-summit-st14{fill:none;stroke:#32553B;stroke-width:7.59;stroke-linejoin:round;}
	.fp-summit-st15{fill:none;stroke:#32553B;stroke-width:4.33;stroke-miterlimit:10;}
	.fp-summit-st16{fill:none;stroke:#32553B;stroke-width:4.33;stroke-linejoin:round;}
	.fp-summit-st17{fill:none;stroke:#32553B;stroke-width:0.24;stroke-miterlimit:10;}
	.fp-summit-st18{fill:none;stroke:#E4E9E4;stroke-width:7.59;stroke-linejoin:round;}
	.fp-summit-st19{fill:none;stroke:#799900;stroke-width:0.3;stroke-miterlimit:10;}
	.fp-summit-st20{fill:#FFFFFF;stroke:#62A044;stroke-width:0.3;stroke-miterlimit:10;}
	.fp-summit-st21{fill:none;stroke:#799900;stroke-width:0.27;stroke-miterlimit:10;}
	.fp-summit-st22{fill:#FFFFFF;stroke:#62A044;stroke-width:0.27;stroke-miterlimit:10;}
	.fp-summit-st23{fill:none;stroke:#32553B;stroke-width:0.21;stroke-miterlimit:10;}
	.fp-summit-st24{fill:#C8D0C9;stroke:#32553B;stroke-width:0.2;stroke-miterlimit:10;}
	.fp-summit-st25{fill:#FFFFFF;stroke:#62A044;stroke-width:0.13;stroke-miterlimit:10;}
	.fp-summit-st26{fill:none;stroke:#799900;stroke-width:0.13;stroke-miterlimit:10;}
	.fp-summit-st27{fill:none;stroke:#32553B;stroke-width:0.84;stroke-miterlimit:10;}
	.fp-summit-st28{fill:none;stroke:#F5F7F5;stroke-miterlimit:10;}
</style>
<title>fp_summit</title>
<g id="Layer_2">
	<g id="DESIGN">
		<line class="fp-summit-st0" x1="70.3" y1="138.2" x2="406.1" y2="138.2"/>
		<line class="fp-summit-st0" x1="70.3" y1="146" x2="414" y2="146"/>
		<line class="fp-summit-st0" x1="70.3" y1="153.9" x2="421.9" y2="153.9"/>
		<line class="fp-summit-st0" x1="70.3" y1="161.7" x2="430.6" y2="161.7"/>
		<line class="fp-summit-st0" x1="70.3" y1="169.6" x2="438.5" y2="169.6"/>
		<line class="fp-summit-st0" x1="70.3" y1="177.4" x2="446" y2="177.4"/>
		<line class="fp-summit-st0" x1="70.3" y1="185.3" x2="454" y2="185.3"/>
		<line class="fp-summit-st0" x1="70.3" y1="193.1" x2="461.1" y2="193.1"/>
		<line class="fp-summit-st0" x1="70.3" y1="201" x2="474.3" y2="201"/>
		<line class="fp-summit-st0" x1="70.3" y1="208.9" x2="474.3" y2="208.9"/>
		<line class="fp-summit-st0" x1="70.3" y1="216.7" x2="474.3" y2="216.7"/>
		<line class="fp-summit-st0" x1="70.3" y1="224.6" x2="474.3" y2="224.6"/>
		<line class="fp-summit-st0" x1="70.3" y1="232.4" x2="474.3" y2="232.4"/>
		<line class="fp-summit-st0" x1="70.3" y1="240.3" x2="474.3" y2="240.3"/>
		<line class="fp-summit-st0" x1="70.3" y1="248.1" x2="474.3" y2="248.1"/>
		<line class="fp-summit-st0" x1="70.3" y1="256" x2="474.3" y2="256"/>
		<line class="fp-summit-st0" x1="70.3" y1="263.8" x2="474.3" y2="263.8"/>
		<line class="fp-summit-st0" x1="70.3" y1="271.7" x2="474.3" y2="271.7"/>
		<line class="fp-summit-st0" x1="70.3" y1="279.5" x2="474.3" y2="279.5"/>
		<line class="fp-summit-st0" x1="70.3" y1="287.4" x2="474.3" y2="287.4"/>
		<line class="fp-summit-st0" x1="70.3" y1="295.2" x2="474.3" y2="295.2"/>
		<line class="fp-summit-st0" x1="70.3" y1="303.1" x2="474.3" y2="303.1"/>
		<line class="fp-summit-st0" x1="70.3" y1="311" x2="474.3" y2="311"/>
		<line class="fp-summit-st0" x1="70.3" y1="318.8" x2="474.3" y2="318.8"/>
		<line class="fp-summit-st0" x1="70.3" y1="326.7" x2="474.3" y2="326.7"/>
		<line class="fp-summit-st0" x1="70.3" y1="334.5" x2="474.3" y2="334.5"/>
		<line class="fp-summit-st0" x1="70.3" y1="342.4" x2="474.3" y2="342.4"/>
		<line class="fp-summit-st0" x1="70.3" y1="350.2" x2="474.3" y2="350.2"/>
		<line class="fp-summit-st0" x1="70.3" y1="358.1" x2="474.3" y2="358.1"/>
		<line class="fp-summit-st0" x1="70.3" y1="365.9" x2="474.3" y2="365.9"/>
		<line class="fp-summit-st0" x1="70.3" y1="373.8" x2="474.3" y2="373.8"/>
		<line class="fp-summit-st0" x1="70.3" y1="381.6" x2="474.3" y2="381.6"/>
		<line class="fp-summit-st0" x1="70.3" y1="389.5" x2="474.3" y2="389.5"/>
		<line class="fp-summit-st0" x1="70.3" y1="397.3" x2="474.3" y2="397.3"/>
		<line class="fp-summit-st0" x1="70.3" y1="405.2" x2="474.3" y2="405.2"/>
		<line class="fp-summit-st0" x1="70.3" y1="413" x2="474.3" y2="413"/>
		<line class="fp-summit-st0" x1="70.3" y1="420.9" x2="474.3" y2="420.9"/>
		<line class="fp-summit-st0" x1="70.3" y1="428.8" x2="474.3" y2="428.8"/>
		<line class="fp-summit-st0" x1="70.3" y1="436.6" x2="468.7" y2="436.6"/>
		<line class="fp-summit-st0" x1="70.3" y1="444.5" x2="460.2" y2="444.5"/>
		<line class="fp-summit-st0" x1="70.3" y1="452.3" x2="452.3" y2="452.3"/>
		<polygon class="fp-summit-st1" points="280,126.7 71.7,126.7 71.7,254.3 71.8,254.3 71.8,306.5 135.4,306.5 135.4,254.3 280,254.3 		"/>
		<polygon class="fp-summit-st1" points="345.4,348 330.8,332.3 303.5,359.6 276.7,332.4 217.7,391.6 229.6,403.9 345.4,403.9 345.4,460.9 
			442.8,460.9 474.8,429.2 474.8,348 		"/>
		<line class="fp-summit-st0" x1="404" y1="136" x2="424.8" y2="156.8"/>
		<rect x="377.1" y="326.9" class="fp-summit-st2" width="2.3" height="1.3"/>
		<rect x="393.4" y="326.9" class="fp-summit-st2" width="3.7" height="1.3"/>
		<line class="fp-summit-st3" x1="393.7" y1="329.9" x2="378.9" y2="329.9"/>
		<line class="fp-summit-st3" x1="393.4" y1="327.5" x2="379.4" y2="327.5"/>
		<polyline class="fp-summit-st3" points="393.7,328.2 393.7,345.1 378.9,345.1 378.9,328.2 		"/>
		<path class="fp-summit-st4" d="M393.4,326.2c-0.1-3.4-1.3-6.7-3.6-9.2"/>
		
			<rect x="377.6" y="321.2" transform="matrix(0.7071 -0.7071 0.7071 0.7071 -114.7772 366.1018)" class="fp-summit-st5" width="14" height="0.8"/>
		<rect x="380" y="335.6" class="fp-summit-st6" width="12.9" height="4.6"/>
		<g class="fp-summit-st7">
			<path class="fp-summit-st8" d="M380.5,336.8h0.8c0.5,0,0.7,0.3,0.7,0.7v0c0,0.4-0.4,0.7-0.8,0.7h-0.4v0.6h-0.3V336.8z M381.2,337.8
				c0.3,0,0.4-0.1,0.4-0.4v0c0-0.2-0.2-0.4-0.4-0.4h-0.4v0.7H381.2z"/>
		</g>
		<g class="fp-summit-st7">
			<path class="fp-summit-st8" d="M383,336.8h0.3l0.9,2h-0.4l-0.2-0.5h-0.9l-0.2,0.5h-0.4L383,336.8z M383.5,338l-0.3-0.8l-0.3,0.8H383.5z"/>
			<path class="fp-summit-st8" d="M384.6,336.8h0.3l1.1,1.4v-1.4h0.3v2H386l-1.1-1.4v1.4h-0.3V336.8z"/>
			<path class="fp-summit-st8" d="M387.4,337.1h-0.6v-0.3h1.6v0.3h-0.6v1.6h-0.3V337.1z"/>
		</g>
		<g class="fp-summit-st7">
			<path class="fp-summit-st8" d="M388.9,336.8h0.9c0.2,0,0.4,0.1,0.6,0.2c0.1,0.1,0.2,0.3,0.2,0.4v0c0,0.3-0.2,0.5-0.5,0.6l0.5,0.7h-0.4
				l-0.5-0.7h-0.4v0.7h-0.3V336.8z M389.7,337.8c0.2,0,0.4-0.1,0.4-0.3v0c0-0.2-0.2-0.3-0.4-0.3h-0.5v0.7H389.7z"/>
		</g>
		<g class="fp-summit-st7">
			<path class="fp-summit-st8" d="M391.5,338l-0.8-1.2h0.4l0.5,0.9l0.6-0.9h0.4l-0.8,1.2v0.8h-0.3V338z"/>
		</g>
		<rect x="394.5" y="326.9" class="fp-summit-st9" width="79.8" height="21.5"/>
		<polygon class="fp-summit-st10" points="404.9,326.1 404.9,325.3 430.4,325.3 430.4,348.4 404.9,348.4 		"/>
		<circle class="fp-summit-st10" cx="424.9" cy="339.4" r="3.8"/>
		<circle class="fp-summit-st10" cx="424.9" cy="330.4" r="2.9"/>
		<circle class="fp-summit-st10" cx="410.5" cy="330.4" r="2.5"/>
		<circle class="fp-summit-st10" cx="410.5" cy="339.4" r="2.5"/>
		<line class="fp-summit-st3" x1="430.4" y1="344.5" x2="404.9" y2="344.5"/>
		
			<rect x="207.1" y="304.6" transform="matrix(0.7071 -0.7071 0.7071 0.7071 -156.3173 250.868)" class="fp-summit-st11" width="35.1" height="19.1"/>
		<rect x="274.9" y="440.4" class="fp-summit-st12" width="70.5" height="20.7"/>
		<polygon class="fp-summit-st12" points="103.2,361.2 156.8,361.2 156.7,343 103.1,343 		"/>
		<polyline class="fp-summit-st13" points="251.7,458.8 251.7,454.6 271.7,454.6 271.7,458.8 		"/>
		<path class="fp-summit-st13" d="M257.3,444.9c0.2,0.4,0.3,0.9,0.3,1.3v2.5c0,0.4-0.3,0.8-0.7,0.8c0,0-0.1,0-0.1,0h9.8
			c-0.4,0-0.8-0.3-0.8-0.7c0,0,0-0.1,0-0.1v-2.5c0-0.4,0.1-0.9,0.3-1.3"/>
		<ellipse class="fp-summit-st13" cx="261.7" cy="440.1" rx="5.7" ry="7.6"/>
		<rect x="253.2" y="449.5" class="fp-summit-st13" width="17.1" height="5.5"/>
		<polyline class="fp-summit-st13" points="79.6,361 79.6,356.8 99.7,356.8 99.7,361 		"/>
		<path class="fp-summit-st13" d="M85.2,347.1c0.2,0.4,0.3,0.9,0.3,1.3v2.5c0,0.4-0.3,0.8-0.7,0.8c0,0-0.1,0-0.1,0h9.8c-0.4,0-0.8-0.3-0.8-0.7
			c0,0,0-0.1,0-0.1v-2.5c0-0.4,0.1-0.9,0.3-1.3"/>
		<ellipse class="fp-summit-st13" cx="89.6" cy="342.3" rx="5.7" ry="7.6"/>
		<rect x="81.1" y="351.7" class="fp-summit-st13" width="17.1" height="5.5"/>
		<rect x="218.3" y="405.1" class="fp-summit-st12" width="29.7" height="48.5"/>
		<path class="fp-summit-st12" d="M233.5,408.7c0,0-11.5-0.2-11.5,4.4v34.6c0,0-0.2,3.7,3.4,3.7h16.3c3.6,0,3.4-3.7,3.4-3.7v-34.6
			C245.1,408.5,233.6,408.7,233.5,408.7L233.5,408.7z"/>
		<path class="fp-summit-st12" d="M233.6,449.7c0.8,0,1.5,0.3,2.1,0.8l-2.1,2.3h-0.1l-2.1-2.3C232.1,450,232.8,449.7,233.6,449.7"/>
		<rect x="216.3" y="452" class="fp-summit-st8" width="33.2" height="5.7"/>
		<rect x="172.7" y="292.6" class="fp-summit-st12" width="29.7" height="48.5"/>
		<path class="fp-summit-st12" d="M187.9,296.2c0,0-11.6-0.2-11.6,4.4v34.6c0,0-0.2,3.7,3.4,3.7h16.3c3.6,0,3.4-3.7,3.4-3.7v-34.6
			C199.5,296,187.9,296.2,187.9,296.2L187.9,296.2z"/>
		<path class="fp-summit-st12" d="M188,337.2c0.8,0,1.5,0.3,2.1,0.8l-2.1,2.3h-0.1l-2.1-2.3C186.5,337.5,187.2,337.2,188,337.2"/>
		<rect x="170.9" y="339.5" class="fp-summit-st8" width="33.1" height="4.7"/>
		<polyline class="fp-summit-st14" points="474.8,318.2 474.8,429.9 444.4,460.2 108.2,460.2 		"/>
		<polyline class="fp-summit-st14" points="424.8,156.8 474.8,206.8 474.8,242.9 		"/>
		<polyline class="fp-summit-st14" points="351.6,126.7 394.6,126.7 404,136 		"/>
		<line class="fp-summit-st14" x1="269.9" y1="126.7" x2="297" y2="126.7"/>
		<polyline class="fp-summit-st14" points="78.7,460.2 71.7,460.2 71.7,126.7 194.6,126.7 		"/>
		<line class="fp-summit-st15" x1="177" y1="126.7" x2="177" y2="254.3"/>
		<line class="fp-summit-st15" x1="171.7" y1="254.3" x2="182.3" y2="254.3"/>
		<line class="fp-summit-st15" x1="71.7" y1="234.9" x2="78.9" y2="234.9"/>
		<polyline class="fp-summit-st15" points="106,234.9 135.4,234.9 135.4,306.5 71.7,306.5 		"/>
		<line class="fp-summit-st15" x1="145.2" y1="254.3" x2="135.4" y2="254.3"/>
		<line class="fp-summit-st15" x1="143.1" y1="292" x2="135.4" y2="292"/>
		<polyline class="fp-summit-st15" points="209,254.3 280,254.3 280,126.7 		"/>
		<line class="fp-summit-st15" x1="280" y1="254.3" x2="292.1" y2="266.3"/>
		<polyline class="fp-summit-st15" points="252.5,254.3 262,263.8 268.5,257.3 278.8,267.6 272.3,274.1 275.1,276.9 288.9,263.1 		"/>
		<line class="fp-summit-st15" x1="314.8" y1="289.1" x2="322.6" y2="296.9"/>
		<polyline class="fp-summit-st15" points="317.4,291.6 303.6,305.4 346.3,348 474.8,348 		"/>
		<polyline class="fp-summit-st15" points="339.2,313.4 348.6,322.8 348.6,348.2 		"/>
		<line class="fp-summit-st15" x1="327.1" y1="336" x2="344.3" y2="318.8"/>
		<polyline class="fp-summit-st15" points="170.7,292 235.9,292 248,304 243.7,308.3 230.3,295 205.5,319.8 218.9,333.1 202.4,349.6 
			196.1,343.3 		"/>
		<polyline class="fp-summit-st15" points="203.4,291.9 203.4,343.3 173.1,343.3 173.1,361.1 71.7,361.1 		"/>
		<polyline class="fp-summit-st15" points="186.8,343.2 176.6,353.4 176.6,364.5 181.9,369.7 156.6,394.5 153.6,394.5 		"/>
		<line class="fp-summit-st15" x1="345.2" y1="436.1" x2="345.2" y2="460.1"/>
		<polyline class="fp-summit-st15" points="345.2,409.1 345.2,404.1 295,404.1 		"/>
		<polyline class="fp-summit-st15" points="318.7,404.1 318.7,374.4 276.7,332.4 211.7,397.3 217.9,403.5 		"/>
		<polyline class="fp-summit-st15" points="268.2,404.1 217.3,404.1 217.3,460.2 		"/>
		<line class="fp-summit-st15" x1="186.2" y1="460.2" x2="186.2" y2="454.3"/>
		<polyline class="fp-summit-st15" points="186.2,427.6 186.2,422.7 217.2,422.7 		"/>
		<line class="fp-summit-st15" x1="161" y1="396.7" x2="157.7" y2="393.4"/>
		<line class="fp-summit-st15" x1="135" y1="394.5" x2="125.4" y2="394.5"/>
		<line class="fp-summit-st15" x1="130.2" y1="361.1" x2="130.2" y2="394.5"/>
		<polyline class="fp-summit-st15" points="130.2,372 163.9,372 163.9,387.3 		"/>
		<line class="fp-summit-st15" x1="183.9" y1="419.7" x2="186.9" y2="422.7"/>
		<polyline class="fp-summit-st15" points="186.3,422.8 191.5,417.6 196.9,423 		"/>
		<line class="fp-summit-st15" x1="217.4" y1="414.1" x2="208.9" y2="422.5"/>
		<line class="fp-summit-st15" x1="217.6" y1="391.6" x2="230.5" y2="404.4"/>
		<line class="fp-summit-st15" x1="307.4" y1="355.7" x2="303.7" y2="359.4"/>
		<polyline class="fp-summit-st15" points="214.8,254.3 214.8,230.7 223.2,230.7 		"/>
		<line class="fp-summit-st15" x1="270.8" y1="230.7" x2="280" y2="230.7"/>
		<polyline class="fp-summit-st16" points="391.2,127.6 391.2,107.3 494.8,107.3 494.8,208.4 475.7,208.4 		"/>
		<line class="fp-summit-st15" x1="78.3" y1="394.5" x2="71.7" y2="394.5"/>
		<path class="fp-summit-st12" d="M281.7,442.2h11.1c1.2,0,2.2,1,2.2,2.2v7.1c0,1.2-1,2.2-2.2,2.2h-11.1c-1.2,0-2.2-1-2.2-2.2v-7.1
			C279.5,443.2,280.5,442.2,281.7,442.2z"/>
		<circle class="fp-summit-st12" cx="287.2" cy="449.6" r="1.3"/>
		<path class="fp-summit-st12" d="M124.4,345.4h11.1c1.2,0,2.2,1,2.2,2.2v7.1c0,1.2-1,2.2-2.2,2.2h-11.1c-1.2,0-2.2-1-2.2-2.2v-7.1
			C122.3,346.4,123.2,345.4,124.4,345.4z"/>
		<circle class="fp-summit-st12" cx="130" cy="352.8" r="1.3"/>
		<path class="fp-summit-st12" d="M315,442.2H326c1.2,0,2.2,1,2.2,2.2v7.1c0,1.2-1,2.2-2.2,2.2H315c-1.2,0-2.2-1-2.2-2.2v-7.1
			C312.8,443.2,313.8,442.2,315,442.2z"/>
		<circle class="fp-summit-st12" cx="320.5" cy="449.6" r="1.3"/>
		<rect x="364.4" y="248.9" class="fp-summit-st9" width="72.1" height="34.7"/>
		<line class="fp-summit-st17" x1="364.4" y1="259.1" x2="436.5" y2="259.1"/>
		<path class="fp-summit-st10" d="M414.7,269.2V280c0,1.3-1,2.3-2.3,2.3h-19.2c-1.3,0-2.3-1-2.3-2.3v-10.8c0-1.3,1-2.3,2.3-2.3h19.2
			C413.7,266.9,414.7,267.9,414.7,269.2z"/>
		<circle class="fp-summit-st10" cx="402.8" cy="274.6" r="1.3"/>
		<rect x="351.5" y="319.6" class="fp-summit-st10" width="26.6" height="25.5"/>
		<line class="fp-summit-st18" x1="351.6" y1="126.7" x2="297" y2="126.7"/>
		<rect x="335.1" y="124.1" class="fp-summit-st8" width="0.8" height="5"/>
		<rect x="297" y="126.3" class="fp-summit-st8" width="54.6" height="0.7"/>
		<rect x="297" y="123.8" class="fp-summit-st8" width="54.6" height="0.7"/>
		<rect x="297" y="128.9" class="fp-summit-st8" width="54.6" height="0.7"/>
		<line class="fp-summit-st18" x1="269.9" y1="126.7" x2="194.6" y2="126.7"/>
		<rect x="209.6" y="124.1" class="fp-summit-st8" width="0.8" height="5.1"/>
		<rect x="254.1" y="124.1" class="fp-summit-st8" width="0.8" height="5.1"/>
		<rect x="194.6" y="126.3" class="fp-summit-st8" width="75.3" height="0.7"/>
		<rect x="194.6" y="128.8" class="fp-summit-st8" width="75.3" height="0.7"/>
		<rect x="194.6" y="123.8" class="fp-summit-st8" width="75.3" height="0.7"/>
		<line class="fp-summit-st18" x1="166.9" y1="126.7" x2="91.6" y2="126.7"/>
		<rect x="106.6" y="124.1" class="fp-summit-st8" width="0.8" height="5.1"/>
		<rect x="151.1" y="124.1" class="fp-summit-st8" width="0.8" height="5.1"/>
		<rect x="91.6" y="126.3" class="fp-summit-st8" width="75.3" height="0.7"/>
		<rect x="91.6" y="128.8" class="fp-summit-st8" width="75.3" height="0.7"/>
		<rect x="91.6" y="123.8" class="fp-summit-st8" width="75.3" height="0.7"/>
		<line class="fp-summit-st18" x1="474.8" y1="318.2" x2="474.8" y2="242.9"/>
		<rect x="472.2" y="257.9" class="fp-summit-st8" width="5.1" height="0.8"/>
		<rect x="472.2" y="302.5" class="fp-summit-st8" width="5.1" height="0.8"/>
		<rect x="474.4" y="242.9" class="fp-summit-st8" width="0.7" height="75.3"/>
		<rect x="471.9" y="242.9" class="fp-summit-st8" width="0.7" height="75.3"/>
		<rect x="476.9" y="242.9" class="fp-summit-st8" width="0.7" height="75.3"/>
		<line class="fp-summit-st18" x1="474.8" y1="413.6" x2="474.8" y2="359"/>
		<rect x="472.2" y="397.1" class="fp-summit-st8" width="5" height="0.8"/>
		<rect x="474.4" y="359" class="fp-summit-st8" width="0.7" height="54.6"/>
		<rect x="476.9" y="359" class="fp-summit-st8" width="0.7" height="54.6"/>
		<rect x="471.9" y="359" class="fp-summit-st8" width="0.7" height="54.6"/>
		<path class="fp-summit-st19" d="M107.9,457.5c0-4.5,0.2-11.5-8.4-20"/>
		
			<rect x="75.4" y="447.5" transform="matrix(0.7071 -0.7071 0.7071 0.7071 -290.6212 194.8124)" class="fp-summit-st20" width="28.9" height="1.5"/>
		<path class="fp-summit-st19" d="M143.3,294.8c0,4.2-0.2,10.8,7.9,18.7"/>
		
			<rect x="146.7" y="302.8" transform="matrix(0.7071 -0.7071 0.7071 0.7071 -167.6734 202.2162)" class="fp-summit-st20" width="27" height="1.4"/>
		<rect x="158.1" y="452.9" class="fp-summit-st20" width="25.1" height="1.3"/>
		<path class="fp-summit-st19" d="M158.1,452.9c0-14,11.4-25.3,25.3-25.4"/>
		
			<rect x="322.1" y="287.2" transform="matrix(0.7071 -0.7071 0.7071 0.7071 -105.9756 319.6911)" class="fp-summit-st20" width="21.6" height="1.1"/>
		<path class="fp-summit-st19" d="M341,280.5c8.4,8.5,8.4,22.2,0,30.8"/>
		<rect x="134.7" y="397.3" class="fp-summit-st20" width="0.9" height="17.8"/>
		<path class="fp-summit-st19" d="M135.6,415.1c9.9,0,18-8,18-17.9"/>
		<rect x="182.4" y="226" class="fp-summit-st20" width="1.3" height="25.1"/>
		<path class="fp-summit-st19" d="M183.8,226c14,0,25.3,11.4,25.4,25.3"/>
		<rect x="170.4" y="226" class="fp-summit-st20" width="1.3" height="25.1"/>
		<path class="fp-summit-st19" d="M170.4,226c-14,0-25.3,11.4-25.4,25.3"/>
		<rect x="78.7" y="237.8" class="fp-summit-st20" width="1.3" height="25.1"/>
		<path class="fp-summit-st19" d="M80,263c14,0,25.3-11.4,25.4-25.3"/>
		<rect x="317" y="409.8" class="fp-summit-st20" width="25.1" height="1.3"/>
		<path class="fp-summit-st19" d="M317,411.1c0,14,11.4,25.3,25.3,25.4"/>
		<rect x="293.7" y="375.7" class="fp-summit-st20" width="1.3" height="25.1"/>
		<path class="fp-summit-st19" d="M293.7,375.7c-14,0-25.3,11.4-25.4,25.3"/>
		
			<rect x="336.5" y="335.4" transform="matrix(0.7071 -0.7071 0.7071 0.7071 -147.2852 340.2898)" class="fp-summit-st20" width="1.3" height="25.1"/>
		<path class="fp-summit-st19" d="M345.5,357.3c-9.9,9.9-25.9,9.9-35.9,0"/>
		<path class="fp-summit-st21" d="M101.9,397.7c0,0-0.2,8.9,6.1,15.5"/>
		
			<rect x="105" y="404.7" transform="matrix(0.7071 -0.7071 0.7071 0.7071 -252.4604 201.2776)" class="fp-summit-st22" width="23.5" height="1.3"/>
		<path class="fp-summit-st21" d="M101.9,397.7c0,0,0.2,8.9-6.1,15.5"/>
		
			<rect x="86.4" y="393.6" transform="matrix(0.7071 -0.7071 0.7071 0.7071 -261.1586 180.2822)" class="fp-summit-st22" width="1.3" height="23.5"/>
		<path class="fp-summit-st21" d="M247.1,227.9c0,0,0.2-8.9-6.1-15.5"/>
		
			<rect x="220.5" y="219.6" transform="matrix(0.7071 -0.7071 0.7071 0.7071 -87.7255 228.7378)" class="fp-summit-st22" width="23.5" height="1.3"/>
		<path class="fp-summit-st21" d="M247.1,227.9c0,0-0.2-8.9,6.1-15.5"/>
		
			<rect x="261.3" y="208.5" transform="matrix(0.7071 -0.7071 0.7071 0.7071 -79.0275 249.735)" class="fp-summit-st22" width="1.3" height="23.5"/>
		
			<rect x="400.7" y="127.6" transform="matrix(0.7071 -0.7071 0.7071 0.7071 30.4909 330.1922)" class="fp-summit-st20" width="26.2" height="1.4"/>
		<path class="fp-summit-st19" d="M423.6,119.5c10.3,10.3,10.3,27,0,37.3"/>
		<line class="fp-summit-st19" x1="420.4" y1="122.7" x2="419.5" y2="121.7"/>
		<line class="fp-summit-st19" x1="408.2" y1="134.9" x2="407.2" y2="133.9"/>
		<line class="fp-summit-st19" x1="420" y1="122.2" x2="407.7" y2="134.4"/>
		<rect x="81.5" y="368.2" class="fp-summit-st13" width="19.8" height="22"/>
		<line class="fp-summit-st23" x1="81.4" y1="370.6" x2="101.3" y2="370.6"/>
		<rect x="102.3" y="368.2" class="fp-summit-st13" width="19.8" height="22"/>
		<line class="fp-summit-st23" x1="102.3" y1="370.6" x2="122.1" y2="370.6"/>
		<circle class="fp-summit-st24" cx="200.9" cy="441.1" r="12.2"/>
		<g class="fp-summit-st7">
			<path class="fp-summit-st8" d="M193.2,439.1h0.7v1.6h1.9v-1.6h0.7v3.9h-0.7v-1.7h-1.9v1.7h-0.7V439.1z"/>
		</g>
		<g class="fp-summit-st7">
			<path class="fp-summit-st8" d="M197.3,439.1h0.8l1.2,3l1.2-3h0.7l-1.6,4H199L197.3,439.1z"/>
		</g>
		<g class="fp-summit-st7">
			<path class="fp-summit-st8" d="M202.9,439.1h0.6l1.7,4h-0.7l-0.4-1h-1.9l-0.4,1h-0.7L202.9,439.1z M203.9,441.5l-0.7-1.6l-0.7,1.6H203.9z"
				/>
		</g>
		<g class="fp-summit-st7">
			<path class="fp-summit-st8" d="M205.8,441.1L205.8,441.1c0-1.1,0.8-2,2-2c0.7,0,1.2,0.3,1.5,0.6l-0.4,0.5c-0.3-0.3-0.7-0.5-1.1-0.5
				c-0.7,0-1.3,0.6-1.3,1.4v0c0,0.8,0.5,1.4,1.3,1.4c0.5,0,0.8-0.2,1.1-0.5l0.4,0.5c-0.4,0.4-0.9,0.7-1.6,0.7
				C206.6,443.1,205.8,442.2,205.8,441.1z"/>
		</g>
		<g class="fp-summit-st7">
			<path class="fp-summit-st8" d="M91,280.3c-0.2-0.2-0.4-0.6-0.4-1.2v0c0-1,0.5-1.8,1.4-1.8c0.4,0,0.7,0.1,1,0.4l-0.3,0.4
				c-0.2-0.2-0.4-0.3-0.7-0.3c-0.6,0-0.8,0.6-0.8,1c0.2-0.2,0.4-0.3,0.8-0.3c0.6,0,1.1,0.4,1.1,1v0c0,0.6-0.5,1.1-1.2,1.1
				C91.5,280.6,91.2,280.5,91,280.3z M92.5,279.5L92.5,279.5c0-0.3-0.3-0.6-0.7-0.6s-0.7,0.3-0.7,0.6v0c0,0.3,0.3,0.6,0.7,0.6
				C92.3,280.1,92.5,279.9,92.5,279.5z"/>
			<path class="fp-summit-st8" d="M93.7,278.4c0.3-0.1,0.4-0.2,0.4-0.4h-0.2v-0.6h0.6v0.5c0,0.5-0.2,0.7-0.7,0.8L93.7,278.4z"/>
			<path class="fp-summit-st8" d="M96.8,280.1l0.4-0.4c0.3,0.2,0.5,0.4,0.8,0.4c0.4,0,0.6-0.2,0.6-0.6v0c0-0.3-0.3-0.5-0.7-0.5
				c-0.2,0-0.4,0.1-0.6,0.1l-0.3-0.2l0.1-1.6H99v0.5h-1.4l-0.1,0.8c0.2-0.1,0.3-0.1,0.5-0.1c0.6,0,1.1,0.3,1.1,1v0
				c0,0.7-0.5,1.1-1.2,1.1C97.5,280.6,97.1,280.4,96.8,280.1z"/>
			<path class="fp-summit-st8" d="M99.8,278.4c0.3-0.1,0.4-0.2,0.4-0.4H100v-0.6h0.6v0.5c0,0.5-0.2,0.7-0.7,0.8L99.8,278.4z M100.9,278.4
				c0.3-0.1,0.4-0.2,0.4-0.4H101v-0.6h0.6v0.5c0,0.5-0.2,0.7-0.7,0.8L100.9,278.4z"/>
			<path class="fp-summit-st8" d="M105.1,278.9l0.6-0.8h0.6l-0.9,1.2l0.9,1.2h-0.6l-0.6-0.9l-0.6,0.9h-0.6l0.9-1.2l-0.9-1.2h0.6L105.1,278.9z"
				/>
			<path class="fp-summit-st8" d="M110.1,277.8h-1.6v-0.5h2.3v0.4l-1.5,2.8h-0.6L110.1,277.8z"/>
			<path class="fp-summit-st8" d="M111.3,278.4c0.3-0.1,0.4-0.2,0.4-0.4h-0.2v-0.6h0.6v0.5c0,0.5-0.2,0.7-0.7,0.8L111.3,278.4z"/>
			<path class="fp-summit-st8" d="M114.4,280.1l0.4-0.4c0.3,0.2,0.5,0.4,0.8,0.4c0.4,0,0.6-0.2,0.6-0.6v0c0-0.3-0.3-0.5-0.7-0.5
				c-0.2,0-0.4,0.1-0.6,0.1l-0.3-0.2l0.1-1.6h1.9v0.5h-1.4l-0.1,0.8c0.2-0.1,0.3-0.1,0.5-0.1c0.6,0,1.1,0.3,1.1,1v0
				c0,0.7-0.5,1.1-1.2,1.1C115.1,280.6,114.7,280.4,114.4,280.1z"/>
			<path class="fp-summit-st8" d="M117.4,278.4c0.3-0.1,0.4-0.2,0.4-0.4h-0.2v-0.6h0.6v0.5c0,0.5-0.2,0.7-0.7,0.8L117.4,278.4z M118.5,278.4
				c0.3-0.1,0.4-0.2,0.4-0.4h-0.2v-0.6h0.6v0.5c0,0.5-0.2,0.7-0.7,0.8L118.5,278.4z"/>
		</g>
		<g class="fp-summit-st7">
			<path class="fp-summit-st8" d="M91.3,270.9L91.3,270.9c0-1.3,1-2.4,2.3-2.4c0.8,0,1.3,0.3,1.8,0.7l-0.5,0.6c-0.4-0.3-0.8-0.6-1.3-0.6
				c-0.9,0-1.5,0.7-1.5,1.6v0c0,0.9,0.6,1.6,1.5,1.6c0.6,0,0.9-0.2,1.3-0.6l0.5,0.5c-0.5,0.5-1,0.8-1.8,0.8
				C92.3,273.3,91.3,272.2,91.3,270.9z"/>
		</g>
		<g class="fp-summit-st7">
			<path class="fp-summit-st8" d="M96.5,268.7h0.8v3.8h2.4v0.7h-3.2V268.7z"/>
		</g>
		<g class="fp-summit-st7">
			<path class="fp-summit-st8" d="M100.3,270.9L100.3,270.9c0-1.3,1-2.4,2.4-2.4c1.4,0,2.4,1.1,2.4,2.3v0c0,1.3-1,2.3-2.4,2.3
				C101.3,273.3,100.3,272.2,100.3,270.9z M104.3,270.9L104.3,270.9c0-0.9-0.6-1.6-1.5-1.6s-1.5,0.7-1.5,1.6v0
				c0,0.9,0.6,1.6,1.5,1.6S104.3,271.8,104.3,270.9z"/>
		</g>
		<g class="fp-summit-st7">
			<path class="fp-summit-st8" d="M106,272.5l0.5-0.6c0.4,0.4,0.9,0.6,1.4,0.6c0.5,0,0.8-0.2,0.8-0.6v0c0-0.3-0.2-0.5-1-0.7
				c-1-0.2-1.5-0.5-1.5-1.4v0c0-0.8,0.6-1.3,1.5-1.3c0.7,0,1.2,0.2,1.6,0.6l-0.4,0.6c-0.4-0.3-0.8-0.5-1.2-0.5
				c-0.5,0-0.7,0.2-0.7,0.5v0c0,0.4,0.2,0.5,1.1,0.7c1,0.2,1.5,0.6,1.5,1.3v0c0,0.8-0.7,1.4-1.6,1.4
				C107.2,273.3,106.5,273,106,272.5z"/>
			<path class="fp-summit-st8" d="M110.7,268.7h3.4v0.7h-2.6v1.2h2.3v0.7h-2.3v1.2h2.6v0.7h-3.4V268.7z"/>
			<path class="fp-summit-st8" d="M116.4,269.4H115v-0.7h3.7v0.7h-1.4v3.8h-0.8V269.4z"/>
		</g>
		<g class="fp-summit-st7">
			<path class="fp-summit-st8" d="M269.7,373.4L269.7,373.4c0-0.4,0.2-0.6,0.6-0.8c-0.3-0.1-0.5-0.4-0.5-0.7v0c0-0.5,0.5-0.9,1.1-0.9
				s1.1,0.4,1.1,0.9v0c0,0.4-0.2,0.6-0.5,0.7c0.4,0.2,0.6,0.4,0.6,0.8v0c0,0.6-0.5,0.9-1.2,0.9S269.7,373.9,269.7,373.4z
				 M271.6,373.4L271.6,373.4c0-0.3-0.3-0.5-0.7-0.5s-0.7,0.2-0.7,0.5v0c0,0.3,0.2,0.5,0.7,0.5C271.4,373.8,271.6,373.6,271.6,373.4
				z M271.5,371.9L271.5,371.9c0-0.3-0.2-0.5-0.6-0.5s-0.6,0.2-0.6,0.4v0c0,0.3,0.2,0.5,0.6,0.5S271.5,372.2,271.5,371.9z"/>
			<path class="fp-summit-st8" d="M272.8,372.1c0.3-0.1,0.4-0.2,0.4-0.4h-0.2V371h0.6v0.5c0,0.5-0.2,0.7-0.7,0.8L272.8,372.1z"/>
			<path class="fp-summit-st8" d="M276.9,372.6l0.6-0.8h0.6l-0.9,1.2l0.9,1.2h-0.6l-0.6-0.9l-0.6,0.9h-0.6l0.9-1.2l-0.9-1.2h0.6L276.9,372.6z"
				/>
			<path class="fp-summit-st8" d="M282,371.5h-1.6V371h2.3v0.4l-1.5,2.8h-0.6L282,371.5z"/>
			<path class="fp-summit-st8" d="M283.2,372.1c0.3-0.1,0.4-0.2,0.4-0.4h-0.2V371h0.6v0.5c0,0.5-0.2,0.7-0.7,0.8L283.2,372.1z"/>
		</g>
		<g class="fp-summit-st7">
			<path class="fp-summit-st8" d="M263.2,364.6L263.2,364.6c0-1.3,1-2.4,2.3-2.4c0.8,0,1.3,0.3,1.8,0.7l-0.5,0.6c-0.4-0.3-0.8-0.6-1.3-0.6
				c-0.9,0-1.5,0.7-1.5,1.6v0c0,0.9,0.6,1.6,1.5,1.6c0.6,0,0.9-0.2,1.3-0.6l0.5,0.5c-0.5,0.5-1,0.8-1.8,0.8
				C264.2,367,263.2,365.9,263.2,364.6z"/>
		</g>
		<g class="fp-summit-st7">
			<path class="fp-summit-st8" d="M268.5,362.4h0.8v3.8h2.4v0.7h-3.2V362.4z"/>
		</g>
		<g class="fp-summit-st7">
			<path class="fp-summit-st8" d="M272.3,364.6L272.3,364.6c0-1.3,1-2.4,2.4-2.4c1.4,0,2.4,1.1,2.4,2.3v0c0,1.3-1,2.3-2.4,2.3
				C273.3,367,272.3,365.9,272.3,364.6z M276.2,364.6L276.2,364.6c0-0.9-0.6-1.6-1.5-1.6s-1.5,0.7-1.5,1.6v0c0,0.9,0.6,1.6,1.5,1.6
				S276.2,365.5,276.2,364.6z"/>
		</g>
		<g class="fp-summit-st7">
			<path class="fp-summit-st8" d="M277.9,366.2l0.5-0.6c0.4,0.4,0.9,0.6,1.4,0.6c0.5,0,0.8-0.2,0.8-0.6v0c0-0.3-0.2-0.5-1-0.7
				c-1-0.2-1.5-0.5-1.5-1.4v0c0-0.8,0.6-1.3,1.5-1.3c0.7,0,1.2,0.2,1.6,0.6l-0.4,0.6c-0.4-0.3-0.8-0.5-1.2-0.5
				c-0.5,0-0.7,0.2-0.7,0.5v0c0,0.4,0.2,0.5,1.1,0.7c1,0.2,1.5,0.6,1.5,1.3v0c0,0.8-0.7,1.4-1.6,1.4
				C279.1,367,278.5,366.7,277.9,366.2z"/>
			<path class="fp-summit-st8" d="M282.6,362.4h3.4v0.7h-2.6v1.2h2.3v0.7h-2.3v1.2h2.6v0.7h-3.4V362.4z"/>
			<path class="fp-summit-st8" d="M288.3,363.1h-1.4v-0.7h3.7v0.7h-1.4v3.8h-0.8V363.1z"/>
		</g>
		<g class="fp-summit-st7">
			<path class="fp-summit-st8" d="M233.1,246.3c-0.2-0.2-0.4-0.6-0.4-1.2v0c0-1,0.5-1.8,1.4-1.8c0.4,0,0.7,0.1,1,0.4l-0.3,0.4
				c-0.2-0.2-0.4-0.3-0.7-0.3c-0.6,0-0.8,0.6-0.8,1c0.2-0.2,0.4-0.3,0.8-0.3c0.6,0,1.1,0.4,1.1,1v0c0,0.6-0.5,1.1-1.2,1.1
				C233.6,246.6,233.3,246.5,233.1,246.3z M234.6,245.5L234.6,245.5c0-0.3-0.3-0.6-0.7-0.6s-0.7,0.3-0.7,0.6v0
				c0,0.3,0.3,0.6,0.7,0.6C234.4,246.1,234.6,245.9,234.6,245.5z"/>
			<path class="fp-summit-st8" d="M235.8,244.4c0.3-0.1,0.4-0.2,0.4-0.4H236v-0.6h0.6v0.5c0,0.5-0.2,0.7-0.7,0.8L235.8,244.4z"/>
			<path class="fp-summit-st8" d="M238.9,245.7L238.9,245.7c0-0.4,0.2-0.6,0.6-0.8c-0.3-0.1-0.5-0.4-0.5-0.7v0c0-0.5,0.5-0.9,1.1-0.9
				c0.6,0,1.1,0.4,1.1,0.9v0c0,0.4-0.2,0.6-0.5,0.7c0.4,0.2,0.6,0.4,0.6,0.8v0c0,0.6-0.5,0.9-1.2,0.9
				C239.4,246.6,238.9,246.2,238.9,245.7z M240.8,245.7L240.8,245.7c0-0.3-0.3-0.5-0.7-0.5s-0.7,0.2-0.7,0.5v0
				c0,0.3,0.2,0.5,0.7,0.5S240.8,245.9,240.8,245.7z M240.7,244.2L240.7,244.2c0-0.3-0.2-0.5-0.6-0.5s-0.6,0.2-0.6,0.4v0
				c0,0.3,0.2,0.5,0.6,0.5C240.4,244.7,240.7,244.5,240.7,244.2z"/>
			<path class="fp-summit-st8" d="M241.9,244.4c0.3-0.1,0.4-0.2,0.4-0.4h-0.2v-0.6h0.6v0.5c0,0.5-0.2,0.7-0.7,0.8L241.9,244.4z M243,244.4
				c0.3-0.1,0.4-0.2,0.4-0.4h-0.2v-0.6h0.6v0.5c0,0.5-0.2,0.7-0.7,0.8L243,244.4z"/>
			<path class="fp-summit-st8" d="M247.2,244.9l0.6-0.8h0.6l-0.9,1.2l0.9,1.2h-0.6l-0.6-0.9l-0.6,0.9H246l0.9-1.2l-0.9-1.2h0.6L247.2,244.9z"
				/>
			<path class="fp-summit-st8" d="M252.2,243.8h-1.6v-0.5h2.3v0.4l-1.5,2.8h-0.6L252.2,243.8z"/>
			<path class="fp-summit-st8" d="M253.5,244.4c0.3-0.1,0.4-0.2,0.4-0.4h-0.2v-0.6h0.6v0.5c0,0.5-0.2,0.7-0.7,0.8L253.5,244.4z"/>
			<path class="fp-summit-st8" d="M258.5,245.1c-0.2,0.2-0.4,0.3-0.8,0.3c-0.7,0-1.1-0.4-1.1-1v0c0-0.6,0.5-1.1,1.2-1.1c0.4,0,0.7,0.1,0.9,0.3
				c0.2,0.2,0.4,0.6,0.4,1.2v0c0,1-0.5,1.8-1.4,1.8c-0.4,0-0.8-0.2-1-0.4l0.3-0.4c0.2,0.2,0.5,0.3,0.7,0.3
				C258.3,246.1,258.5,245.5,258.5,245.1z M258.4,244.4L258.4,244.4c0-0.3-0.3-0.6-0.7-0.6c-0.4,0-0.6,0.3-0.6,0.6v0
				c0,0.3,0.3,0.6,0.7,0.6C258.2,245,258.4,244.7,258.4,244.4z"/>
			<path class="fp-summit-st8" d="M259.7,244.4c0.3-0.1,0.4-0.2,0.4-0.4h-0.2v-0.6h0.6v0.5c0,0.5-0.2,0.7-0.7,0.8L259.7,244.4z M260.8,244.4
				c0.3-0.1,0.4-0.2,0.4-0.4h-0.2v-0.6h0.6v0.5c0,0.5-0.2,0.7-0.7,0.8L260.8,244.4z"/>
		</g>
		<g class="fp-summit-st7">
			<path class="fp-summit-st8" d="M233.5,238L233.5,238c0-1.3,1-2.4,2.3-2.4c0.8,0,1.3,0.3,1.8,0.7l-0.5,0.6c-0.4-0.3-0.8-0.6-1.3-0.6
				c-0.9,0-1.5,0.7-1.5,1.6v0c0,0.9,0.6,1.6,1.5,1.6c0.6,0,0.9-0.2,1.3-0.6l0.5,0.5c-0.5,0.5-1,0.8-1.8,0.8
				C234.5,240.3,233.5,239.3,233.5,238z"/>
		</g>
		<g class="fp-summit-st7">
			<path class="fp-summit-st8" d="M238.7,235.7h0.8v3.8h2.4v0.7h-3.2V235.7z"/>
		</g>
		<g class="fp-summit-st7">
			<path class="fp-summit-st8" d="M242.5,238L242.5,238c0-1.3,1-2.4,2.4-2.4c1.4,0,2.4,1.1,2.4,2.3v0c0,1.3-1,2.3-2.4,2.3
				C243.5,240.3,242.5,239.3,242.5,238z M246.4,238L246.4,238c0-0.9-0.6-1.6-1.5-1.6s-1.5,0.7-1.5,1.6v0c0,0.9,0.6,1.6,1.5,1.6
				S246.4,238.9,246.4,238z"/>
		</g>
		<g class="fp-summit-st7">
			<path class="fp-summit-st8" d="M248.2,239.6l0.5-0.6c0.4,0.4,0.9,0.6,1.4,0.6c0.5,0,0.8-0.2,0.8-0.6v0c0-0.3-0.2-0.5-1-0.7
				c-1-0.2-1.5-0.5-1.5-1.4v0c0-0.8,0.6-1.3,1.5-1.3c0.7,0,1.2,0.2,1.6,0.6l-0.4,0.6c-0.4-0.3-0.8-0.5-1.2-0.5
				c-0.5,0-0.7,0.2-0.7,0.5v0c0,0.4,0.2,0.5,1.1,0.7c1,0.2,1.5,0.6,1.5,1.3v0c0,0.8-0.7,1.4-1.6,1.4
				C249.4,240.3,248.7,240.1,248.2,239.6z"/>
			<path class="fp-summit-st8" d="M252.9,235.7h3.4v0.7h-2.6v1.2h2.3v0.7h-2.3v1.2h2.6v0.7h-3.4V235.7z"/>
			<path class="fp-summit-st8" d="M258.6,236.5h-1.4v-0.7h3.7v0.7h-1.4v3.8h-0.8V236.5z"/>
		</g>
		
			<rect x="164.9" y="333.1" transform="matrix(0.678 -0.735 0.735 0.678 -195.8055 230.5461)" class="fp-summit-st25" width="0.6" height="11.3"/>
		<path class="fp-summit-st26" d="M158.2,342.8c-0.1-2.8,0.9-5.5,2.6-7.6"/>
		<polyline class="fp-summit-st27" points="156.8,360.9 156.8,343.3 158.1,343.3 		"/>
		<polyline class="fp-summit-st27" points="170.7,361.1 170.7,343.5 169.4,343.5 		"/>
		<rect x="373.4" y="291.9" class="fp-summit-st6" width="59" height="12.2"/>
		<rect x="387.5" y="302.4" class="fp-summit-st6" width="30.7" height="12.2"/>
		<g class="fp-summit-st7">
			<path class="fp-summit-st8" d="M377.3,294.3h1.3v3.8l3.6-3.8h1.6l-3.2,3.3l3.3,4.3h-1.6l-2.6-3.4l-1.2,1.2v2.2h-1.3V294.3z"/>
			<path class="fp-summit-st8" d="M385.7,294.3h1.3v7.6h-1.3V294.3z"/>
		</g>
		<g class="fp-summit-st7">
			<path class="fp-summit-st8" d="M391.3,295.6h-2.4v-1.2h6.2v1.2h-2.4v6.3h-1.3V295.6z"/>
		</g>
		<g class="fp-summit-st7">
			<path class="fp-summit-st8" d="M396.2,298.2L396.2,298.2c0-2.2,1.6-3.9,3.9-3.9c1.4,0,2.2,0.5,3,1.2l-0.9,1c-0.6-0.6-1.3-0.9-2.1-0.9
				c-1.4,0-2.5,1.2-2.5,2.7v0c0,1.5,1.1,2.7,2.5,2.7c0.9,0,1.5-0.4,2.2-1l0.9,0.9c-0.8,0.8-1.7,1.3-3.1,1.3
				C397.8,302.1,396.2,300.3,396.2,298.2z"/>
			<path class="fp-summit-st8" d="M405,294.3h1.3v3.2h3.6v-3.2h1.3v7.6h-1.3v-3.2h-3.6v3.2H405V294.3z"/>
			<path class="fp-summit-st8" d="M413.6,294.3h5.6v1.2H415v2h3.8v1.2H415v2h4.3v1.2h-5.7V294.3z"/>
			<path class="fp-summit-st8" d="M421.3,294.3h1.2l4.1,5.2v-5.2h1.3v7.6h-1.1l-4.2-5.4v5.4h-1.3V294.3z"/>
		</g>
		<g class="fp-summit-st7">
			<path class="fp-summit-st8" d="M392.8,308.3l-0.8,0.2l-0.2-0.6l1.2-0.4h0.5v4.5h-0.8V308.3z"/>
			<path class="fp-summit-st8" d="M395.6,308.3l-0.8,0.2l-0.2-0.6l1.2-0.4h0.5v4.5h-0.8V308.3z"/>
			<path class="fp-summit-st8" d="M397.5,309c0.4-0.1,0.6-0.3,0.6-0.6h-0.3v-0.9h0.9v0.8c0,0.7-0.3,1-1,1.1L397.5,309z"/>
			<path class="fp-summit-st8" d="M403.3,309.8l0.8-1.1h0.8l-1.2,1.7l1.2,1.7h-0.8l-0.8-1.2l-0.8,1.2h-0.8l1.2-1.7l-1.2-1.7h0.8L403.3,309.8z"
				/>
			<path class="fp-summit-st8" d="M410.6,310c-0.2,0.3-0.6,0.5-1.1,0.5c-1,0-1.6-0.6-1.6-1.4v0c0-0.9,0.7-1.6,1.7-1.6c0.6,0,0.9,0.2,1.3,0.5
				c0.3,0.3,0.5,0.8,0.5,1.7v0c0,1.4-0.7,2.4-1.9,2.4c-0.6,0-1.1-0.2-1.4-0.5l0.4-0.6c0.3,0.3,0.6,0.4,1,0.4
				C410.3,311.4,410.6,310.6,410.6,310z M410.6,309L410.6,309c0-0.5-0.4-0.8-0.9-0.8c-0.6,0-0.9,0.4-0.9,0.8v0
				c0,0.5,0.4,0.8,0.9,0.8C410.2,309.8,410.6,309.4,410.6,309z"/>
			<path class="fp-summit-st8" d="M412.3,309c0.4-0.1,0.6-0.3,0.6-0.6h-0.3v-0.9h0.9v0.8c0,0.7-0.3,1-1,1.1L412.3,309z"/>
		</g>
		<rect x="330.5" y="183.5" class="fp-summit-st6" width="59" height="21.8"/>
		<g class="fp-summit-st7">
			<path class="fp-summit-st8" d="M340.3,186h1.3v6.4h4v1.2h-5.3V186z"/>
			<path class="fp-summit-st8" d="M347.5,186h1.3v7.6h-1.3V186z"/>
			<path class="fp-summit-st8" d="M350.7,186h1.5l2.3,5.8l2.3-5.8h1.4l-3.1,7.6h-1.2L350.7,186z"/>
			<path class="fp-summit-st8" d="M360,186h1.3v7.6H360V186z"/>
			<path class="fp-summit-st8" d="M363.8,186h1.2l4.1,5.2V186h1.3v7.6h-1.1l-4.2-5.4v5.4h-1.3V186z"/>
			<path class="fp-summit-st8" d="M372.4,189.8L372.4,189.8c0-2.1,1.6-3.9,3.9-3.9c1.3,0,2.1,0.4,2.9,1l-0.8,1c-0.6-0.5-1.2-0.8-2.1-0.8
				c-1.4,0-2.5,1.2-2.5,2.7v0c0,1.6,1,2.7,2.6,2.7c0.7,0,1.4-0.2,1.8-0.6v-1.4h-1.9v-1.2h3.2v3.2c-0.7,0.6-1.8,1.2-3.2,1.2
				C374,193.7,372.4,192,372.4,189.8z"/>
		</g>
		<g class="fp-summit-st7">
			<path class="fp-summit-st8" d="M336.1,199.9l-0.8,0.2l-0.2-0.6l1.2-0.4h0.5v4.5h-0.8V199.9z"/>
			<path class="fp-summit-st8" d="M340.8,201.6c-0.3,0.3-0.6,0.5-1.1,0.5c-1,0-1.6-0.6-1.6-1.4v0c0-0.9,0.7-1.6,1.7-1.6c0.6,0,0.9,0.2,1.3,0.5
				c0.3,0.3,0.5,0.8,0.5,1.7v0c0,1.4-0.7,2.4-1.9,2.4c-0.6,0-1.1-0.2-1.4-0.5l0.4-0.6c0.3,0.3,0.6,0.4,1,0.4
				C340.5,203,340.8,202.2,340.8,201.6z M340.7,200.6L340.7,200.6c0-0.5-0.4-0.8-0.9-0.8c-0.6,0-0.9,0.4-0.9,0.8v0
				c0,0.5,0.4,0.8,0.9,0.8C340.4,201.4,340.7,201,340.7,200.6z"/>
			<path class="fp-summit-st8" d="M342.5,200.6c0.4-0.1,0.6-0.3,0.6-0.6h-0.3v-0.9h0.9v0.8c0,0.7-0.3,1-1,1.1L342.5,200.6z"/>
			<path class="fp-summit-st8" d="M347.5,199.9l-0.8,0.2l-0.2-0.6l1.2-0.4h0.5v4.5h-0.8V199.9z"/>
			<path class="fp-summit-st8" d="M349.6,201.4L349.6,201.4c0-1.3,0.8-2.3,2-2.3c1.2,0,2,1,2,2.3v0c0,1.3-0.8,2.3-2,2.3
				S349.6,202.7,349.6,201.4z M352.7,201.4L352.7,201.4c0-0.9-0.5-1.6-1.1-1.6s-1.1,0.7-1.1,1.6v0c0,0.9,0.4,1.6,1.1,1.6
				S352.7,202.3,352.7,201.4z"/>
			<path class="fp-summit-st8" d="M354.3,200.6c0.4-0.1,0.6-0.3,0.6-0.6h-0.3v-0.9h0.9v0.8c0,0.7-0.3,1-1,1.1L354.3,200.6z M355.8,200.6
				c0.4-0.1,0.6-0.3,0.5-0.6h-0.3v-0.9h0.9v0.8c0,0.7-0.3,1-1,1.1L355.8,200.6z"/>
			<path class="fp-summit-st8" d="M361.6,201.4l0.8-1.1h0.8l-1.2,1.7l1.2,1.7h-0.8l-0.8-1.2l-0.8,1.2H360l1.2-1.7l-1.2-1.7h0.8L361.6,201.4z"
				/>
			<path class="fp-summit-st8" d="M367.1,199.9l-0.8,0.2l-0.2-0.6l1.2-0.4h0.5v4.5h-0.8V199.9z"/>
			<path class="fp-summit-st8" d="M369.1,203l1.5-1.3c0.6-0.5,0.8-0.8,0.8-1.2c0-0.4-0.3-0.7-0.7-0.7s-0.7,0.2-1,0.7l-0.6-0.4
				c0.4-0.6,0.9-0.9,1.7-0.9c0.9,0,1.5,0.5,1.5,1.3v0c0,0.7-0.4,1.1-1.2,1.7l-0.9,0.8h2.1v0.7h-3.3V203z"/>
			<path class="fp-summit-st8" d="M373.2,200.6c0.4-0.1,0.6-0.3,0.6-0.6h-0.3v-0.9h0.9v0.8c0,0.7-0.3,1-1,1.1L373.2,200.6z"/>
			<path class="fp-summit-st8" d="M378,203.3c-0.3-0.3-0.5-0.8-0.5-1.7v0c0-1.4,0.7-2.4,1.9-2.4c0.6,0,1,0.2,1.4,0.5l-0.4,0.6
				c-0.3-0.2-0.6-0.4-1-0.4c-0.8,0-1.1,0.8-1.1,1.4c0.3-0.3,0.6-0.5,1.1-0.5c0.9,0,1.6,0.5,1.6,1.4v0c0,0.9-0.7,1.5-1.7,1.5
				C378.7,203.7,378.3,203.6,378,203.3z M380.2,202.2L380.2,202.2c0-0.5-0.4-0.8-0.9-0.8s-0.9,0.4-0.9,0.8v0c0,0.5,0.4,0.8,0.9,0.8
				S380.2,202.7,380.2,202.2z"/>
			<path class="fp-summit-st8" d="M381.8,200.6c0.4-0.1,0.6-0.3,0.6-0.6h-0.3v-0.9h0.9v0.8c0,0.7-0.3,1-1,1.1L381.8,200.6z M383.3,200.6
				c0.4-0.1,0.6-0.3,0.5-0.6h-0.3v-0.9h0.9v0.8c0,0.7-0.3,1-1,1.1L383.3,200.6z"/>
		</g>
		<g class="fp-summit-st7">
			<path class="fp-summit-st8" d="M378.9,392.8h3.4c0.9,0,1.5,0.2,2,0.7c0.3,0.3,0.5,0.7,0.5,1.3v0c0,0.9-0.5,1.4-1.1,1.7
				c0.9,0.3,1.5,0.8,1.5,1.8v0c0,1.4-1.1,2.1-2.8,2.1h-3.5V392.8z M383.5,395c0-0.6-0.5-1-1.3-1h-1.9v2h1.8
				C382.9,396,383.5,395.7,383.5,395L383.5,395z M382.4,397.2h-2.1v2.1h2.2c0.9,0,1.5-0.4,1.5-1v0
				C383.9,397.5,383.4,397.2,382.4,397.2z"/>
			<path class="fp-summit-st8" d="M387.2,392.8h5.6v1.2h-4.3v2h3.8v1.2h-3.8v2h4.3v1.2h-5.7V392.8z"/>
			<path class="fp-summit-st8" d="M394.9,392.8h2.8c2.4,0,4,1.6,4,3.8v0c0,2.1-1.6,3.8-4,3.8h-2.8V392.8z M396.2,394.1v5.2h1.5
				c1.6,0,2.6-1.1,2.6-2.6v0c0-1.5-1-2.6-2.6-2.6H396.2z"/>
			<path class="fp-summit-st8" d="M403.8,392.8h3.4c1,0,1.7,0.3,2.2,0.8c0.4,0.4,0.6,1,0.6,1.6v0c0,1.2-0.7,2-1.8,2.3l2,2.9h-1.6l-1.9-2.6
				h-1.7v2.6h-1.3V392.8z M407.1,396.6c1,0,1.6-0.5,1.6-1.3v0c0-0.8-0.6-1.3-1.6-1.3h-1.9v2.5H407.1z"/>
			<path class="fp-summit-st8" d="M411.7,396.7L411.7,396.7c0-2.2,1.6-3.9,4-3.9s4,1.8,4,3.9v0c0,2.1-1.6,3.9-4,3.9S411.7,398.8,411.7,396.7z
				 M418.3,396.7L418.3,396.7c0-1.5-1.1-2.7-2.6-2.7s-2.6,1.2-2.6,2.7v0c0,1.5,1.1,2.7,2.6,2.7S418.3,398.1,418.3,396.7z"/>
			<path class="fp-summit-st8" d="M421.4,396.7L421.4,396.7c0-2.2,1.6-3.9,4-3.9s4,1.8,4,3.9v0c0,2.1-1.6,3.9-4,3.9S421.4,398.8,421.4,396.7z
				 M427.9,396.7L427.9,396.7c0-1.5-1.1-2.7-2.6-2.7s-2.6,1.2-2.6,2.7v0c0,1.5,1.1,2.7,2.6,2.7S427.9,398.1,427.9,396.7z"/>
			<path class="fp-summit-st8" d="M431.4,392.8h1.4l2.3,3.6l2.3-3.6h1.4v7.6h-1.3V395l-2.4,3.6h0l-2.4-3.6v5.4h-1.3V392.8z"/>
		</g>
		<g class="fp-summit-st7">
			<path class="fp-summit-st8" d="M387.5,406.8l-0.8,0.2l-0.2-0.6l1.2-0.4h0.5v4.5h-0.8V406.8z"/>
			<path class="fp-summit-st8" d="M389.4,409.8l0.6-0.5c0.3,0.4,0.7,0.6,1.2,0.6c0.4,0,0.8-0.3,0.8-0.7v0c0-0.4-0.4-0.7-1-0.7h-0.4l-0.1-0.5
				l1.2-1.3h-1.9V406h3v0.6l-1.3,1.3c0.7,0.1,1.3,0.4,1.3,1.3v0c0,0.8-0.6,1.4-1.6,1.4C390.4,410.6,389.8,410.3,389.4,409.8z"/>
			<path class="fp-summit-st8" d="M393.7,407.5c0.4-0.1,0.6-0.3,0.6-0.6h-0.3V406h0.9v0.8c0,0.7-0.3,1-1,1.1L393.7,407.5z"/>
			<path class="fp-summit-st8" d="M400.2,409.5H398l-0.1-0.6l2.5-3h0.7v2.9h0.6v0.6H401v1h-0.8V409.5z M400.2,408.9v-1.8l-1.5,1.8H400.2z"/>
			<path class="fp-summit-st8" d="M402.5,407.5c0.4-0.1,0.6-0.3,0.6-0.6h-0.3V406h0.9v0.8c0,0.7-0.3,1-1,1.1L402.5,407.5z M404,407.5
				c0.4-0.1,0.6-0.3,0.5-0.6h-0.3V406h0.9v0.8c0,0.7-0.3,1-1,1.1L404,407.5z"/>
			<path class="fp-summit-st8" d="M409.8,408.3l0.8-1.1h0.8l-1.2,1.7l1.2,1.7h-0.8l-0.8-1.2l-0.8,1.2h-0.8l1.2-1.7l-1.2-1.7h0.8L409.8,408.3z"
				/>
			<path class="fp-summit-st8" d="M415.2,406.8l-0.8,0.2l-0.2-0.6l1.2-0.4h0.5v4.5h-0.8V406.8z"/>
			<path class="fp-summit-st8" d="M418,406.8l-0.8,0.2l-0.2-0.6l1.2-0.4h0.5v4.5H418V406.8z"/>
			<path class="fp-summit-st8" d="M419.9,407.5c0.4-0.1,0.6-0.3,0.6-0.6h-0.3V406h0.9v0.8c0,0.7-0.3,1-1,1.1L419.9,407.5z"/>
			<path class="fp-summit-st8" d="M426.9,408.5c-0.3,0.3-0.6,0.5-1.1,0.5c-1,0-1.6-0.6-1.6-1.4v0c0-0.9,0.7-1.6,1.7-1.6c0.6,0,0.9,0.2,1.3,0.5
				c0.3,0.3,0.5,0.8,0.5,1.7v0c0,1.4-0.7,2.4-1.9,2.4c-0.6,0-1.1-0.2-1.4-0.5l0.4-0.6c0.3,0.3,0.6,0.4,1,0.4
				C426.6,409.9,426.9,409.1,426.9,408.5z M426.8,407.5L426.8,407.5c0-0.5-0.4-0.8-0.9-0.8c-0.6,0-0.9,0.4-0.9,0.8v0
				c0,0.5,0.4,0.8,0.9,0.8C426.5,408.3,426.8,407.9,426.8,407.5z"/>
			<path class="fp-summit-st8" d="M428.6,407.5c0.4-0.1,0.6-0.3,0.6-0.6h-0.3V406h0.9v0.8c0,0.7-0.3,1-1,1.1L428.6,407.5z M430.1,407.5
				c0.4-0.1,0.6-0.3,0.5-0.6h-0.3V406h0.9v0.8c0,0.7-0.3,1-1,1.1L430.1,407.5z"/>
		</g>
		<g class="fp-summit-st7">
			<path class="fp-summit-st8" d="M199.5,173.7h3.4c0.9,0,1.5,0.2,2,0.7c0.3,0.3,0.5,0.7,0.5,1.3v0c0,0.9-0.5,1.4-1.1,1.7
				c0.9,0.3,1.5,0.8,1.5,1.8v0c0,1.4-1.1,2.1-2.8,2.1h-3.5V173.7z M204.1,175.8c0-0.6-0.5-1-1.3-1h-1.9v2h1.8
				C203.5,176.9,204.1,176.6,204.1,175.8L204.1,175.8z M202.9,178h-2.1v2.1h2.2c0.9,0,1.5-0.4,1.5-1v0
				C204.5,178.4,204,178,202.9,178z"/>
			<path class="fp-summit-st8" d="M207.8,173.7h5.6v1.2h-4.3v2h3.8v1.2h-3.8v2h4.3v1.2h-5.7V173.7z"/>
			<path class="fp-summit-st8" d="M215.5,173.7h2.8c2.4,0,4,1.6,4,3.8v0c0,2.1-1.6,3.8-4,3.8h-2.8V173.7z M216.8,174.9v5.2h1.5
				c1.6,0,2.6-1.1,2.6-2.6v0c0-1.5-1-2.6-2.6-2.6H216.8z"/>
			<path class="fp-summit-st8" d="M224.4,173.7h3.4c1,0,1.7,0.3,2.2,0.8c0.4,0.4,0.6,1,0.6,1.6v0c0,1.2-0.7,2-1.8,2.3l2,2.9h-1.6l-1.9-2.6
				h-1.7v2.6h-1.3V173.7z M227.7,177.5c1,0,1.6-0.5,1.6-1.3v0c0-0.8-0.6-1.3-1.6-1.3h-1.9v2.5H227.7z"/>
			<path class="fp-summit-st8" d="M232.3,177.5L232.3,177.5c0-2.2,1.6-3.9,4-3.9s4,1.8,4,3.9v0c0,2.1-1.6,3.9-4,3.9
				C233.9,181.4,232.3,179.6,232.3,177.5z M238.8,177.5L238.8,177.5c0-1.5-1.1-2.7-2.6-2.7c-1.5,0-2.6,1.2-2.6,2.7v0
				c0,1.5,1.1,2.7,2.6,2.7S238.8,179,238.8,177.5z"/>
			<path class="fp-summit-st8" d="M242,177.5L242,177.5c0-2.2,1.6-3.9,4-3.9s4,1.8,4,3.9v0c0,2.1-1.6,3.9-4,3.9
				C243.6,181.4,242,179.6,242,177.5z M248.5,177.5L248.5,177.5c0-1.5-1.1-2.7-2.6-2.7c-1.5,0-2.6,1.2-2.6,2.7v0
				c0,1.5,1.1,2.7,2.6,2.7S248.5,179,248.5,177.5z"/>
			<path class="fp-summit-st8" d="M251.9,173.7h1.4l2.3,3.6l2.3-3.6h1.4v7.6h-1.3v-5.4l-2.4,3.6h0l-2.4-3.6v5.4h-1.3V173.7z"/>
		</g>
		<g class="fp-summit-st7">
			<path class="fp-summit-st8" d="M205.1,187.7l-0.8,0.2l-0.2-0.6l1.2-0.4h0.5v4.5h-0.8V187.7z"/>
			<path class="fp-summit-st8" d="M207.2,189.1L207.2,189.1c0-1.3,0.8-2.3,2-2.3c1.2,0,2,1,2,2.3v0c0,1.3-0.8,2.3-2,2.3
				C207.9,191.5,207.2,190.4,207.2,189.1z M210.3,189.1L210.3,189.1c0-0.9-0.5-1.6-1.1-1.6c-0.7,0-1.1,0.7-1.1,1.6v0
				c0,0.9,0.4,1.6,1.1,1.6S210.3,190,210.3,189.1z"/>
			<path class="fp-summit-st8" d="M212,188.4c0.4-0.1,0.6-0.3,0.6-0.6h-0.3v-0.9h0.9v0.8c0,0.7-0.3,1-1,1.1L212,188.4z"/>
			<path class="fp-summit-st8" d="M218.9,189.3c-0.3,0.3-0.6,0.5-1.1,0.5c-1,0-1.6-0.6-1.6-1.4v0c0-0.9,0.7-1.6,1.7-1.6c0.6,0,0.9,0.2,1.3,0.5
				c0.3,0.3,0.5,0.8,0.5,1.7v0c0,1.4-0.7,2.4-1.9,2.4c-0.6,0-1.1-0.2-1.4-0.5l0.4-0.6c0.3,0.3,0.6,0.4,1,0.4
				C218.6,190.7,218.9,189.9,218.9,189.3z M218.9,188.3L218.9,188.3c0-0.5-0.4-0.8-0.9-0.8c-0.6,0-0.9,0.4-0.9,0.8v0
				c0,0.5,0.4,0.8,0.9,0.8C218.5,189.1,218.9,188.8,218.9,188.3z"/>
			<path class="fp-summit-st8" d="M220.6,188.4c0.4-0.1,0.6-0.3,0.6-0.6h-0.3v-0.9h0.9v0.8c0,0.7-0.3,1-1,1.1L220.6,188.4z M222.1,188.4
				c0.4-0.1,0.6-0.3,0.5-0.6h-0.3v-0.9h0.9v0.8c0,0.7-0.3,1-1,1.1L222.1,188.4z"/>
			<path class="fp-summit-st8" d="M227.9,189.1l0.8-1.1h0.8l-1.2,1.7l1.2,1.7h-0.8l-0.8-1.2l-0.8,1.2h-0.8l1.2-1.7l-1.2-1.7h0.8L227.9,189.1z"
				/>
			<path class="fp-summit-st8" d="M233.3,187.7l-0.8,0.2l-0.2-0.6l1.2-0.4h0.5v4.5h-0.8V187.7z"/>
			<path class="fp-summit-st8" d="M235.4,189.1L235.4,189.1c0-1.3,0.8-2.3,2-2.3c1.2,0,2,1,2,2.3v0c0,1.3-0.8,2.3-2,2.3
				C236.1,191.5,235.4,190.4,235.4,189.1z M238.5,189.1L238.5,189.1c0-0.9-0.5-1.6-1.1-1.6c-0.7,0-1.1,0.7-1.1,1.6v0
				c0,0.9,0.4,1.6,1.1,1.6S238.5,190,238.5,189.1z"/>
			<path class="fp-summit-st8" d="M240.2,188.4c0.4-0.1,0.6-0.3,0.6-0.6h-0.3v-0.9h0.9v0.8c0,0.7-0.3,1-1,1.1L240.2,188.4z"/>
			<path class="fp-summit-st8" d="M245.2,187.7l-0.8,0.2l-0.2-0.6l1.2-0.4h0.5v4.5h-0.8V187.7z"/>
			<path class="fp-summit-st8" d="M247.3,189.1L247.3,189.1c0-1.3,0.8-2.3,2-2.3c1.2,0,2,1,2,2.3v0c0,1.3-0.8,2.3-2,2.3
				C248,191.5,247.3,190.4,247.3,189.1z M250.4,189.1L250.4,189.1c0-0.9-0.5-1.6-1.1-1.6c-0.7,0-1.1,0.7-1.1,1.6v0
				c0,0.9,0.4,1.6,1.1,1.6S250.4,190,250.4,189.1z"/>
			<path class="fp-summit-st8" d="M252.1,188.4c0.4-0.1,0.6-0.3,0.6-0.6h-0.3v-0.9h0.9v0.8c0,0.7-0.3,1-1,1.1L252.1,188.4z M253.5,188.4
				c0.4-0.1,0.6-0.3,0.5-0.6h-0.3v-0.9h0.9v0.8c0,0.7-0.3,1-1,1.1L253.5,188.4z"/>
		</g>
		<g class="fp-summit-st7">
			<path class="fp-summit-st8" d="M96.7,173.7h3.4c0.9,0,1.5,0.2,2,0.7c0.3,0.3,0.5,0.7,0.5,1.3v0c0,0.9-0.5,1.4-1.1,1.7
				c0.9,0.3,1.5,0.8,1.5,1.8v0c0,1.4-1.1,2.1-2.8,2.1h-3.5V173.7z M101.3,175.8c0-0.6-0.5-1-1.3-1H98v2h1.8
				C100.7,176.9,101.3,176.6,101.3,175.8L101.3,175.8z M100.1,178H98v2.1h2.2c0.9,0,1.5-0.4,1.5-1v0
				C101.7,178.4,101.2,178,100.1,178z"/>
			<path class="fp-summit-st8" d="M105,173.7h5.6v1.2h-4.3v2h3.8v1.2h-3.8v2h4.3v1.2H105V173.7z"/>
			<path class="fp-summit-st8" d="M112.7,173.7h2.8c2.4,0,4,1.6,4,3.8v0c0,2.1-1.6,3.8-4,3.8h-2.8V173.7z M114,174.9v5.2h1.5
				c1.6,0,2.6-1.1,2.6-2.6v0c0-1.5-1-2.6-2.6-2.6H114z"/>
			<path class="fp-summit-st8" d="M121.6,173.7h3.4c1,0,1.7,0.3,2.2,0.8c0.4,0.4,0.6,1,0.6,1.6v0c0,1.2-0.7,2-1.8,2.3l2,2.9h-1.6l-1.9-2.6
				h-1.7v2.6h-1.3V173.7z M124.9,177.5c1,0,1.6-0.5,1.6-1.3v0c0-0.8-0.6-1.3-1.6-1.3h-1.9v2.5H124.9z"/>
			<path class="fp-summit-st8" d="M129.5,177.5L129.5,177.5c0-2.2,1.6-3.9,4-3.9s4,1.8,4,3.9v0c0,2.1-1.6,3.9-4,3.9
				C131.1,181.4,129.5,179.6,129.5,177.5z M136,177.5L136,177.5c0-1.5-1.1-2.7-2.6-2.7c-1.5,0-2.6,1.2-2.6,2.7v0
				c0,1.5,1.1,2.7,2.6,2.7S136,179,136,177.5z"/>
			<path class="fp-summit-st8" d="M139.2,177.5L139.2,177.5c0-2.2,1.6-3.9,4-3.9s4,1.8,4,3.9v0c0,2.1-1.6,3.9-4,3.9
				C140.8,181.4,139.2,179.6,139.2,177.5z M145.7,177.5L145.7,177.5c0-1.5-1.1-2.7-2.6-2.7c-1.5,0-2.6,1.2-2.6,2.7v0
				c0,1.5,1.1,2.7,2.6,2.7S145.7,179,145.7,177.5z"/>
			<path class="fp-summit-st8" d="M149.1,173.7h1.4l2.3,3.6l2.3-3.6h1.4v7.6h-1.3v-5.4l-2.4,3.6h0l-2.4-3.6v5.4h-1.3V173.7z"/>
		</g>
		<g class="fp-summit-st7">
			<path class="fp-summit-st8" d="M102.3,187.7l-0.8,0.2l-0.2-0.6l1.2-0.4h0.5v4.5h-0.8V187.7z"/>
			<path class="fp-summit-st8" d="M104.4,189.1L104.4,189.1c0-1.3,0.8-2.3,2-2.3c1.2,0,2,1,2,2.3v0c0,1.3-0.8,2.3-2,2.3
				C105.1,191.5,104.4,190.4,104.4,189.1z M107.5,189.1L107.5,189.1c0-0.9-0.5-1.6-1.1-1.6c-0.7,0-1.1,0.7-1.1,1.6v0
				c0,0.9,0.4,1.6,1.1,1.6S107.5,190,107.5,189.1z"/>
			<path class="fp-summit-st8" d="M109.2,188.4c0.4-0.1,0.6-0.3,0.6-0.6h-0.3v-0.9h0.9v0.8c0,0.7-0.3,1-1,1.1L109.2,188.4z"/>
			<path class="fp-summit-st8" d="M116.1,189.3c-0.3,0.3-0.6,0.5-1.1,0.5c-1,0-1.6-0.6-1.6-1.4v0c0-0.9,0.7-1.6,1.7-1.6c0.6,0,0.9,0.2,1.3,0.5
				c0.3,0.3,0.5,0.8,0.5,1.7v0c0,1.4-0.7,2.4-1.9,2.4c-0.6,0-1.1-0.2-1.4-0.5l0.4-0.6c0.3,0.3,0.6,0.4,1,0.4
				C115.8,190.7,116.1,189.9,116.1,189.3z M116.1,188.3L116.1,188.3c0-0.5-0.4-0.8-0.9-0.8c-0.6,0-0.9,0.4-0.9,0.8v0
				c0,0.5,0.4,0.8,0.9,0.8C115.7,189.1,116.1,188.8,116.1,188.3z"/>
			<path class="fp-summit-st8" d="M117.8,188.4c0.4-0.1,0.6-0.3,0.6-0.6H118v-0.9h0.9v0.8c0,0.7-0.3,1-1,1.1L117.8,188.4z M119.3,188.4
				c0.4-0.1,0.6-0.3,0.5-0.6h-0.3v-0.9h0.9v0.8c0,0.7-0.3,1-1,1.1L119.3,188.4z"/>
			<path class="fp-summit-st8" d="M125.1,189.1l0.8-1.1h0.8l-1.2,1.7l1.2,1.7h-0.8l-0.8-1.2l-0.8,1.2h-0.8l1.2-1.7l-1.2-1.7h0.8L125.1,189.1z"
				/>
			<path class="fp-summit-st8" d="M130.5,187.7l-0.8,0.2l-0.2-0.6l1.2-0.4h0.5v4.5h-0.8V187.7z"/>
			<path class="fp-summit-st8" d="M132.6,189.1L132.6,189.1c0-1.3,0.8-2.3,2-2.3c1.2,0,2,1,2,2.3v0c0,1.3-0.8,2.3-2,2.3
				C133.3,191.5,132.6,190.4,132.6,189.1z M135.7,189.1L135.7,189.1c0-0.9-0.5-1.6-1.1-1.6c-0.7,0-1.1,0.7-1.1,1.6v0
				c0,0.9,0.4,1.6,1.1,1.6S135.7,190,135.7,189.1z"/>
			<path class="fp-summit-st8" d="M137.4,188.4c0.4-0.1,0.6-0.3,0.6-0.6h-0.3v-0.9h0.9v0.8c0,0.7-0.3,1-1,1.1L137.4,188.4z"/>
			<path class="fp-summit-st8" d="M142.4,187.7l-0.8,0.2l-0.2-0.6l1.2-0.4h0.5v4.5h-0.8V187.7z"/>
			<path class="fp-summit-st8" d="M144.5,189.1L144.5,189.1c0-1.3,0.8-2.3,2-2.3c1.2,0,2,1,2,2.3v0c0,1.3-0.8,2.3-2,2.3
				C145.2,191.5,144.5,190.4,144.5,189.1z M147.6,189.1L147.6,189.1c0-0.9-0.5-1.6-1.1-1.6c-0.7,0-1.1,0.7-1.1,1.6v0
				c0,0.9,0.4,1.6,1.1,1.6S147.6,190,147.6,189.1z"/>
			<path class="fp-summit-st8" d="M149.3,188.4c0.4-0.1,0.6-0.3,0.6-0.6h-0.3v-0.9h0.9v0.8c0,0.7-0.3,1-1,1.1L149.3,188.4z M150.7,188.4
				c0.4-0.1,0.6-0.3,0.5-0.6H151v-0.9h0.9v0.8c0,0.7-0.3,1-1,1.1L150.7,188.4z"/>
		</g>
		<rect x="92.8" y="391.1" class="fp-summit-st6" width="18.9" height="5.8"/>
		<g class="fp-summit-st7">
			<path class="fp-summit-st8" d="M93.8,392.8h0.4v2h1.2v0.4h-1.6V392.8z"/>
		</g>
		<g class="fp-summit-st7">
			<path class="fp-summit-st8" d="M96.7,392.8H97l1,2.4h-0.4l-0.2-0.6h-1.1l-0.2,0.6h-0.4L96.7,392.8z M97.2,394.3l-0.4-0.9l-0.4,0.9H97.2z"/>
		</g>
		<g class="fp-summit-st7">
			<path class="fp-summit-st8" d="M98.4,394.2v-1.4h0.4v1.3c0,0.4,0.2,0.7,0.6,0.7c0.3,0,0.6-0.2,0.6-0.7v-1.4h0.4v1.3c0,0.7-0.4,1.1-1,1.1
				C98.8,395.2,98.4,394.9,98.4,394.2z"/>
			<path class="fp-summit-st8" d="M100.9,392.8h0.4l1.2,1.6v-1.6h0.4v2.4h-0.3l-1.2-1.7v1.7h-0.4V392.8z"/>
			<path class="fp-summit-st8" d="M103.6,392.8h0.8c0.7,0,1.2,0.5,1.2,1.2v0c0,0.7-0.5,1.2-1.2,1.2h-0.8V392.8z M104,393.2v1.6h0.4
				c0.5,0,0.8-0.3,0.8-0.8v0c0-0.5-0.3-0.8-0.8-0.8H104z"/>
		</g>
		<g class="fp-summit-st7">
			<path class="fp-summit-st8" d="M106.2,392.8h1c0.3,0,0.5,0.1,0.6,0.2c0.1,0.1,0.2,0.3,0.2,0.5v0c0,0.4-0.2,0.6-0.5,0.7l0.6,0.9h-0.5
				l-0.5-0.8h-0.5v0.8h-0.4V392.8z M107.1,394c0.3,0,0.5-0.2,0.5-0.4v0c0-0.3-0.2-0.4-0.5-0.4h-0.6v0.8H107.1z"/>
		</g>
		<g class="fp-summit-st7">
			<path class="fp-summit-st8" d="M109.2,394.3l-0.9-1.4h0.5l0.6,1l0.6-1h0.4l-0.9,1.4v0.9h-0.4V394.3z"/>
		</g>
		<rect x="139.3" y="380.4" class="fp-summit-st6" width="15.4" height="5.9"/>
		<g class="fp-summit-st7">
			<path class="fp-summit-st8" d="M142.4,383.5L142.4,383.5c0-0.7,0.5-1.2,1.1-1.2c0.4,0,0.7,0.2,0.9,0.4l-0.3,0.3c-0.2-0.2-0.4-0.3-0.6-0.3
				c-0.4,0-0.7,0.4-0.7,0.8v0c0,0.5,0.3,0.8,0.7,0.8c0.3,0,0.4-0.1,0.6-0.3l0.3,0.3c-0.2,0.3-0.5,0.4-0.9,0.4
				C142.9,384.7,142.4,384.1,142.4,383.5z"/>
		</g>
		<g class="fp-summit-st7">
			<path class="fp-summit-st8" d="M144.8,383.5L144.8,383.5c0-0.7,0.5-1.2,1.2-1.2s1.2,0.5,1.2,1.2v0c0,0.7-0.5,1.2-1.2,1.2
				S144.8,384.1,144.8,383.5z M146.7,383.5L146.7,383.5c0-0.5-0.3-0.8-0.8-0.8s-0.7,0.4-0.7,0.8v0c0,0.5,0.3,0.8,0.8,0.8
				S146.7,383.9,146.7,383.5z"/>
		</g>
		<g class="fp-summit-st7">
			<path class="fp-summit-st8" d="M148.4,382.3h0.4l1,2.4h-0.4l-0.2-0.6H148l-0.2,0.6h-0.4L148.4,382.3z M148.9,383.7l-0.4-0.9l-0.4,0.9H148.9
				z"/>
		</g>
		<g class="fp-summit-st7">
			<path class="fp-summit-st8" d="M150.5,382.7h-0.7v-0.4h1.8v0.4h-0.7v2h-0.4V382.7z"/>
		</g>
		<rect x="102.8" y="316.2" class="fp-summit-st6" width="41.3" height="17.2"/>
		<g class="fp-summit-st7">
			<path class="fp-summit-st8" d="M105.8,328.4l-0.7,0.2l-0.1-0.5l1-0.3h0.5v3.8h-0.7V328.4z"/>
			<path class="fp-summit-st8" d="M107.5,329.7L107.5,329.7c0-1.1,0.7-2,1.7-2c1,0,1.6,0.9,1.6,2v0c0,1.1-0.7,2-1.7,2S107.5,330.8,107.5,329.7
				z M110.1,329.7L110.1,329.7c0-0.8-0.4-1.4-1-1.4s-1,0.6-1,1.3v0c0,0.7,0.4,1.4,1,1.4S110.1,330.4,110.1,329.7z"/>
			<path class="fp-summit-st8" d="M111.5,329c0.3-0.1,0.5-0.2,0.5-0.5h-0.3v-0.7h0.7v0.6c0,0.6-0.3,0.9-0.8,0.9L111.5,329z"/>
			<path class="fp-summit-st8" d="M117.4,329.8c-0.2,0.3-0.5,0.4-0.9,0.4c-0.8,0-1.3-0.5-1.3-1.2v0c0-0.7,0.6-1.3,1.4-1.3
				c0.5,0,0.8,0.1,1.1,0.4c0.3,0.3,0.5,0.7,0.5,1.4v0c0,1.2-0.6,2.1-1.6,2.1c-0.5,0-0.9-0.2-1.2-0.5l0.4-0.5
				c0.3,0.2,0.5,0.4,0.9,0.4C117.1,331,117.4,330.3,117.4,329.8z M117.4,329L117.4,329c0-0.4-0.3-0.7-0.8-0.7
				c-0.5,0-0.8,0.3-0.8,0.7v0c0,0.4,0.3,0.7,0.8,0.7C117.1,329.7,117.4,329.4,117.4,329z"/>
			<path class="fp-summit-st8" d="M118.8,329c0.3-0.1,0.5-0.2,0.5-0.5H119v-0.7h0.7v0.6c0,0.6-0.3,0.9-0.8,0.9L118.8,329z M120.1,329
				c0.3-0.1,0.5-0.2,0.5-0.5h-0.3v-0.7h0.7v0.6c0,0.6-0.3,0.9-0.8,0.9L120.1,329z"/>
			<path class="fp-summit-st8" d="M125,329.7l0.7-1h0.7l-1,1.4l1.1,1.5h-0.7l-0.7-1l-0.7,1h-0.7l1-1.5l-1-1.4h0.7L125,329.7z"/>
			<path class="fp-summit-st8" d="M128.8,331l0.4-0.5c0.3,0.3,0.6,0.5,1,0.5c0.5,0,0.8-0.3,0.8-0.7v0c0-0.4-0.3-0.6-0.8-0.6
				c-0.3,0-0.5,0.1-0.7,0.2l-0.4-0.3l0.1-1.9h2.3v0.6h-1.7l-0.1,0.9c0.2-0.1,0.3-0.1,0.6-0.1c0.7,0,1.3,0.4,1.3,1.2v0
				c0,0.8-0.6,1.3-1.4,1.3C129.6,331.6,129.2,331.4,128.8,331z"/>
			<path class="fp-summit-st8" d="M132.4,329c0.3-0.1,0.5-0.2,0.5-0.5h-0.3v-0.7h0.7v0.6c0,0.6-0.3,0.9-0.8,0.9L132.4,329z"/>
			<path class="fp-summit-st8" d="M138.2,329.8c-0.2,0.3-0.5,0.4-0.9,0.4c-0.8,0-1.3-0.5-1.3-1.2v0c0-0.7,0.6-1.3,1.4-1.3
				c0.5,0,0.8,0.1,1.1,0.4c0.3,0.3,0.5,0.7,0.5,1.4v0c0,1.2-0.6,2.1-1.6,2.1c-0.5,0-0.9-0.2-1.2-0.5l0.4-0.5
				c0.3,0.2,0.5,0.4,0.9,0.4C138,331,138.2,330.3,138.2,329.8z M138.2,329L138.2,329c0-0.4-0.3-0.7-0.8-0.7c-0.5,0-0.8,0.3-0.8,0.7
				v0c0,0.4,0.3,0.7,0.8,0.7C137.9,329.7,138.2,329.4,138.2,329z"/>
			<path class="fp-summit-st8" d="M139.7,329c0.3-0.1,0.5-0.2,0.5-0.5h-0.3v-0.7h0.7v0.6c0,0.6-0.3,0.9-0.8,0.9L139.7,329z M140.9,329
				c0.3-0.1,0.5-0.2,0.5-0.5h-0.3v-0.7h0.7v0.6c0,0.6-0.3,0.9-0.8,0.9L140.9,329z"/>
		</g>
		<g class="fp-summit-st7">
			<path class="fp-summit-st8" d="M112.9,319.7h2.4c0.6,0,1.1,0.2,1.4,0.5c0.2,0.2,0.4,0.5,0.4,0.9v0c0,0.6-0.4,1-0.8,1.2
				c0.6,0.2,1.1,0.6,1.1,1.3v0c0,0.9-0.8,1.5-2,1.5h-2.5V319.7z M116.1,321.2c0-0.4-0.3-0.7-0.9-0.7h-1.3v1.4h1.3
				C115.7,321.9,116.1,321.7,116.1,321.2L116.1,321.2z M115.3,322.7h-1.5v1.5h1.5c0.6,0,1-0.3,1-0.7v0
				C116.4,323,116.1,322.7,115.3,322.7z"/>
		</g>
		<g class="fp-summit-st7">
			<path class="fp-summit-st8" d="M120.6,319.7h0.9l2.3,5.3h-1l-0.5-1.3h-2.5l-0.5,1.3h-1L120.6,319.7z M121.9,322.9l-0.9-2.1l-0.9,2.1H121.9z
				"/>
		</g>
		<g class="fp-summit-st7">
			<path class="fp-summit-st8" d="M125.6,320.6H124v-0.9h4.3v0.9h-1.7v4.4h-0.9V320.6z"/>
			<path class="fp-summit-st8" d="M129.6,319.7h0.9v2.2h2.5v-2.2h0.9v5.3H133v-2.2h-2.5v2.2h-0.9V319.7z"/>
		</g>
		<rect x="270.1" y="416.5" class="fp-summit-st6" width="42.6" height="17.2"/>
		<g class="fp-summit-st7">
			<path class="fp-summit-st8" d="M274,428.7l-0.7,0.2l-0.1-0.5l1-0.3h0.5v3.8H274V428.7z"/>
			<path class="fp-summit-st8" d="M275.6,431.3l0.5-0.4c0.3,0.3,0.6,0.5,1,0.5c0.4,0,0.7-0.2,0.7-0.6v0c0-0.4-0.3-0.6-0.9-0.6h-0.3l-0.1-0.4
				l1-1.1h-1.6v-0.6h2.5v0.5l-1.1,1.1c0.6,0.1,1.1,0.4,1.1,1.1v0c0,0.7-0.5,1.2-1.3,1.2C276.4,431.9,275.9,431.6,275.6,431.3z"/>
			<path class="fp-summit-st8" d="M279.1,429.3c0.3-0.1,0.5-0.2,0.5-0.5h-0.3v-0.7h0.7v0.6c0,0.6-0.3,0.9-0.8,0.9L279.1,429.3z"/>
			<path class="fp-summit-st8" d="M284.7,431h-1.9l-0.1-0.5l2.1-2.5h0.6v2.4h0.5v0.5h-0.5v0.9h-0.6V431z M284.7,430.5V429l-1.2,1.5H284.7z"/>
			<path class="fp-summit-st8" d="M286.6,429.3c0.3-0.1,0.5-0.2,0.5-0.5h-0.3v-0.7h0.7v0.6c0,0.6-0.3,0.9-0.8,0.9L286.6,429.3z M287.8,429.3
				c0.3-0.1,0.5-0.2,0.5-0.5H288v-0.7h0.7v0.6c0,0.6-0.3,0.9-0.8,0.9L287.8,429.3z"/>
			<path class="fp-summit-st8" d="M292.7,430l0.7-1h0.7l-1,1.4l1.1,1.5h-0.7l-0.7-1l-0.7,1h-0.7l1-1.5l-1-1.4h0.7L292.7,430z"/>
			<path class="fp-summit-st8" d="M296.6,431.3l0.4-0.5c0.3,0.3,0.6,0.5,1,0.5c0.5,0,0.8-0.3,0.8-0.7v0c0-0.4-0.3-0.6-0.8-0.6
				c-0.3,0-0.5,0.1-0.7,0.2l-0.4-0.3l0.1-1.9h2.3v0.6h-1.7l-0.1,0.9c0.2-0.1,0.3-0.1,0.6-0.1c0.7,0,1.3,0.4,1.3,1.2v0
				c0,0.8-0.6,1.3-1.4,1.3C297.4,431.9,297,431.7,296.6,431.3z"/>
			<path class="fp-summit-st8" d="M300.1,429.3c0.3-0.1,0.5-0.2,0.5-0.5h-0.3v-0.7h0.7v0.6c0,0.6-0.3,0.9-0.8,0.9L300.1,429.3z"/>
			<path class="fp-summit-st8" d="M304.2,431.5c-0.3-0.3-0.5-0.7-0.5-1.4v0c0-1.2,0.6-2.1,1.6-2.1c0.5,0,0.8,0.2,1.2,0.4l-0.4,0.5
				c-0.3-0.2-0.5-0.3-0.8-0.3c-0.7,0-0.9,0.7-0.9,1.2c0.2-0.2,0.5-0.4,0.9-0.4c0.7,0,1.3,0.4,1.3,1.2v0c0,0.8-0.6,1.3-1.4,1.3
				C304.8,431.9,304.5,431.8,304.2,431.5z M306,430.7L306,430.7c0-0.4-0.3-0.7-0.8-0.7c-0.5,0-0.8,0.3-0.8,0.7v0
				c0,0.4,0.3,0.7,0.8,0.7S306,431.1,306,430.7z"/>
			<path class="fp-summit-st8" d="M307.4,429.3c0.3-0.1,0.5-0.2,0.5-0.5h-0.3v-0.7h0.7v0.6c0,0.6-0.3,0.9-0.8,0.9L307.4,429.3z M308.7,429.3
				c0.3-0.1,0.5-0.2,0.5-0.5h-0.3v-0.7h0.7v0.6c0,0.6-0.3,0.9-0.8,0.9L308.7,429.3z"/>
		</g>
		<g class="fp-summit-st7">
			<path class="fp-summit-st8" d="M280.9,420h2.4c0.6,0,1.1,0.2,1.4,0.5c0.2,0.2,0.4,0.5,0.4,0.9v0c0,0.6-0.4,1-0.8,1.2
				c0.6,0.2,1.1,0.6,1.1,1.3v0c0,0.9-0.8,1.5-2,1.5h-2.5V420z M284.1,421.5c0-0.4-0.3-0.7-0.9-0.7h-1.3v1.4h1.3
				C283.7,422.2,284.1,422,284.1,421.5L284.1,421.5z M283.3,423h-1.5v1.5h1.5c0.6,0,1-0.3,1-0.7v0C284.4,423.3,284,423,283.3,423z"
				/>
		</g>
		<g class="fp-summit-st7">
			<path class="fp-summit-st8" d="M288.6,420h0.9l2.3,5.3h-1l-0.5-1.3h-2.5l-0.5,1.3h-1L288.6,420z M289.9,423.2l-0.9-2.1l-0.9,2.1H289.9z"/>
		</g>
		<g class="fp-summit-st7">
			<path class="fp-summit-st8" d="M293.6,420.9h-1.7V420h4.3v0.9h-1.7v4.4h-0.9V420.9z"/>
			<path class="fp-summit-st8" d="M297.5,420h0.9v2.2h2.5V420h0.9v5.3H301v-2.2h-2.5v2.2h-0.9V420z"/>
		</g>
		<g class="fp-summit-st7">
			<path class="fp-summit-st8" d="M219.6,317.8l0.8-0.8c0.7-0.7,1.6-0.7,2.2-0.1l0,0c0.6,0.6,0.6,1.5-0.1,2.2l-0.8,0.8L219.6,317.8z
				 M220.3,317.8l1.5,1.5l0.4-0.4c0.5-0.5,0.4-1,0-1.5l0,0c-0.4-0.4-1-0.4-1.5,0L220.3,317.8z"/>
			<path class="fp-summit-st8" d="M222.1,315.3l1.6-1.6l0.3,0.3l-1.2,1.2l0.6,0.6l1.1-1.1l0.3,0.3l-1.1,1.1l0.6,0.6l1.2-1.2l0.3,0.3l-1.6,1.6
				L222.1,315.3z"/>
			<path class="fp-summit-st8" d="M225.9,315.1l0-0.5c0.4,0,0.7-0.1,1-0.4c0.2-0.2,0.3-0.5,0.1-0.6l0,0c-0.2-0.2-0.3-0.1-0.8,0.2
				c-0.6,0.3-1,0.5-1.4,0.1l0,0c-0.4-0.4-0.3-0.9,0.1-1.4c0.3-0.3,0.7-0.5,1-0.5l0.1,0.5c-0.3,0-0.6,0.2-0.8,0.4
				c-0.2,0.2-0.2,0.5-0.1,0.6l0,0c0.2,0.2,0.3,0.1,0.8-0.2c0.6-0.3,1-0.4,1.3-0.1l0,0c0.4,0.4,0.3,1-0.1,1.4
				C226.9,314.9,226.4,315.1,225.9,315.1z"/>
			<path class="fp-summit-st8" d="M226.3,311.1l0.4-0.4l1.1,1.1l-0.1-2.1l0.5-0.5l0,1.8l2.2,0.3l-0.5,0.5l-1.7-0.2l0,0.7l0.6,0.6l-0.4,0.4
				L226.3,311.1z"/>
		</g>
		<g class="fp-summit-st7">
			<path class="fp-summit-st8" d="M438.7,135.1h2.7c0.7,0,1.2,0.2,1.6,0.5c0.3,0.3,0.4,0.6,0.4,1v0c0,0.7-0.4,1.1-0.9,1.3
				c0.7,0.2,1.2,0.6,1.2,1.5v0c0,1.1-0.9,1.6-2.2,1.6h-2.8V135.1z M442.3,136.8c0-0.5-0.4-0.8-1.1-0.8h-1.5v1.6h1.4
				C441.9,137.6,442.3,137.3,442.3,136.8L442.3,136.8z M441.4,138.5h-1.7v1.6h1.7c0.7,0,1.2-0.3,1.2-0.8v0
				C442.6,138.8,442.2,138.5,441.4,138.5z"/>
			<path class="fp-summit-st8" d="M447.4,135h1l2.6,6h-1.1l-0.6-1.4h-2.8l-0.6,1.4h-1.1L447.4,135z M448.9,138.7l-1-2.4l-1,2.4H448.9z"/>
		</g>
		<g class="fp-summit-st7">
			<path class="fp-summit-st8" d="M452.3,135.1h1.1v5h3.2v1h-4.2V135.1z"/>
		</g>
		<g class="fp-summit-st7">
			<path class="fp-summit-st8" d="M457.4,138.1L457.4,138.1c0-1.7,1.3-3.1,3.1-3.1c1.1,0,1.8,0.4,2.3,0.9l-0.7,0.8c-0.5-0.4-1-0.7-1.7-0.7
				c-1.1,0-2,0.9-2,2.1v0c0,1.2,0.8,2.1,2,2.1c0.7,0,1.2-0.3,1.7-0.8l0.7,0.7c-0.6,0.7-1.3,1.1-2.4,1.1
				C458.7,141.2,457.4,139.8,457.4,138.1z"/>
		</g>
		<g class="fp-summit-st7">
			<path class="fp-summit-st8" d="M463.9,138.1L463.9,138.1c0-1.7,1.3-3.1,3.1-3.1s3.1,1.4,3.1,3.1v0c0,1.7-1.3,3.1-3.1,3.1
				C465.1,141.2,463.9,139.8,463.9,138.1z M469,138.1L469,138.1c0-1.2-0.8-2.1-2-2.1c-1.2,0-2,1-2,2.1v0c0,1.2,0.8,2.1,2,2.1
				C468.2,140.2,469,139.2,469,138.1z"/>
			<path class="fp-summit-st8" d="M471.7,135.1h1l3.2,4.1v-4.1h1v6h-0.9l-3.3-4.3v4.3h-1V135.1z"/>
			<path class="fp-summit-st8" d="M480.6,138.7l-2.4-3.6h1.2l1.7,2.6l1.7-2.6h1.2l-2.4,3.6v2.4h-1.1V138.7z"/>
		</g>
		<g class="fp-summit-st7">
			<path class="fp-summit-st8" d="M451.2,148.1l-0.6,0.2l-0.1-0.5l1-0.3h0.4v3.6h-0.6V148.1z"/>
			<path class="fp-summit-st8" d="M452.8,149.2L452.8,149.2c0-1,0.6-1.8,1.6-1.8c0.9,0,1.5,0.8,1.5,1.8v0c0,1-0.6,1.8-1.6,1.8
				S452.8,150.2,452.8,149.2z M455.2,149.2L455.2,149.2c0-0.7-0.4-1.3-0.9-1.3s-0.9,0.6-0.9,1.3v0c0,0.7,0.4,1.3,0.9,1.3
				C454.9,150.5,455.2,149.9,455.2,149.2z"/>
			<path class="fp-summit-st8" d="M456.6,148.6c0.3-0.1,0.5-0.2,0.4-0.5h-0.3v-0.7h0.7v0.6c0,0.6-0.3,0.8-0.8,0.8L456.6,148.6z"/>
			<path class="fp-summit-st8" d="M461.2,149.2l0.6-0.9h0.7l-0.9,1.3l1,1.4h-0.7l-0.7-1l-0.7,1h-0.7l1-1.4l-0.9-1.3h0.7L461.2,149.2z"/>
			<path class="fp-summit-st8" d="M465.5,148.1l-0.6,0.2l-0.1-0.5l1-0.3h0.4v3.6h-0.6V148.1z"/>
			<path class="fp-summit-st8" d="M467.1,149.2L467.1,149.2c0-1,0.6-1.8,1.6-1.8c0.9,0,1.5,0.8,1.5,1.8v0c0,1-0.6,1.8-1.6,1.8
				S467.1,150.2,467.1,149.2z M469.5,149.2L469.5,149.2c0-0.7-0.4-1.3-0.9-1.3s-0.9,0.6-0.9,1.3v0c0,0.7,0.4,1.3,0.9,1.3
				C469.2,150.5,469.5,149.9,469.5,149.2z"/>
			<path class="fp-summit-st8" d="M470.8,148.6c0.3-0.1,0.5-0.2,0.4-0.5H471v-0.7h0.7v0.6c0,0.6-0.3,0.8-0.8,0.8L470.8,148.6z"/>
		</g>
		<line class="fp-summit-st18" x1="440.9" y1="172.9" x2="426.4" y2="158.4"/>
		
			<rect x="433.3" y="155.4" transform="matrix(0.7071 -0.7071 0.7071 0.7071 9.8549 355.1594)" class="fp-summit-st8" width="0.7" height="20.5"/>
		<line class="fp-summit-st18" x1="461.3" y1="193.4" x2="446.8" y2="178.8"/>
		
			<rect x="453.7" y="175.8" transform="matrix(0.7071 -0.7071 0.7071 0.7071 1.412 375.5623)" class="fp-summit-st8" width="0.7" height="20.5"/>
		<rect x="0.5" y="0.5" class="fp-summit-st28" width="557.3" height="557.3"/>
	</g>
</g>
</svg>
