<?xml version="1.0" encoding="utf-8"?>
<!-- Generator: Adobe Illustrator 21.1.0, SVG Export Plug-In . SVG Version: 6.00 Build 0)  -->
<svg version="1.1" id="Layer_1" xmlns="http://www.w3.org/2000/svg" xmlns:xlink="http://www.w3.org/1999/xlink" x="0px" y="0px"
	 viewBox="0 0 558.3 558.3" style="enable-background:new 0 0 558.3 558.3;" xml:space="preserve">
<style type="text/css">
	.fp-saluda-st0{fill:none;stroke:#A6A8AB;stroke-width:0.27;stroke-miterlimit:10;}
	.fp-saluda-st1{fill:#E4E9E4;}
	.fp-saluda-st2{fill:none;stroke:#E4E9E4;stroke-width:7.59;stroke-linejoin:round;}
	.fp-saluda-st3{fill:#32553B;}
	.fp-saluda-st4{fill:#C8D0C9;stroke:#32553B;stroke-width:0.24;stroke-miterlimit:10;}
	.fp-saluda-st5{fill:#E4E9E4;stroke:#32553B;stroke-width:0.27;stroke-miterlimit:10;}
	.fp-saluda-st6{fill:none;stroke:#32553B;stroke-width:0.27;stroke-miterlimit:10;}
	.fp-saluda-st7{fill:#E4E9E4;stroke:#32553B;stroke-width:0.24;stroke-miterlimit:10;}
	.fp-saluda-st8{fill:#C8D0C9;stroke:#32553B;stroke-width:0.27;stroke-miterlimit:10;}
	.fp-saluda-st9{fill:#C8D0C9;stroke:#32553B;stroke-width:0.21;stroke-miterlimit:10;}
	.fp-saluda-st10{fill:none;stroke:#32553B;stroke-width:0.21;stroke-miterlimit:10;}
	.fp-saluda-st11{fill:none;stroke:#32553B;stroke-width:7.59;stroke-linejoin:round;}
	.fp-saluda-st12{fill:none;stroke:#32553B;stroke-width:4.33;stroke-linejoin:round;}
	.fp-saluda-st13{fill:none;stroke:#32553B;stroke-width:4.33;stroke-miterlimit:10;}
	.fp-saluda-st14{fill:none;stroke:#32553B;stroke-width:0.24;stroke-miterlimit:10;}
	.fp-saluda-st15{fill:#32553B;stroke:#32553B;stroke-width:0.21;stroke-miterlimit:10;}
	.fp-saluda-st16{fill:#32553B;stroke:#32553B;stroke-width:0.84;stroke-miterlimit:10;}
	.fp-saluda-st17{fill:#FFFFFF;stroke:#62A044;stroke-width:0.3;stroke-miterlimit:10;}
	.fp-saluda-st18{fill:none;stroke:#799900;stroke-width:0.3;stroke-miterlimit:10;}
	.fp-saluda-st19{fill:none;stroke:#799900;stroke-width:0.27;stroke-miterlimit:10;}
	.fp-saluda-st20{fill:#FFFFFF;stroke:#62A044;stroke-width:0.27;stroke-miterlimit:10;}
	.fp-saluda-st21{fill:none;stroke:#799900;stroke-width:0.13;stroke-miterlimit:10;}
	.fp-saluda-st22{fill:#FFFFFF;stroke:#62A044;stroke-width:0.13;stroke-miterlimit:10;}
	.fp-saluda-st23{fill:none;stroke:#32553B;stroke-width:0.84;stroke-miterlimit:10;}
	.fp-saluda-st24{fill:#F5F7F5;}
	.fp-saluda-st25{enable-background:new    ;}
	.fp-saluda-st26{fill:#C8D0C9;stroke:#32553B;stroke-width:0.2;stroke-miterlimit:10;}
	.fp-saluda-st27{fill:none;stroke:#799900;stroke-width:0.16;stroke-miterlimit:10;}
	.fp-saluda-st28{fill:#FFFFFF;stroke:#62A044;stroke-width:0.16;stroke-miterlimit:10;}
	.fp-saluda-st29{fill:none;stroke:#F5F7F5;stroke-miterlimit:10;}
</style>
<title>fp_saluda</title>
<g id="Layer_2">
	<g id="DESIGN">
		<line class="fp-saluda-st0" x1="196.5" y1="207.9" x2="364.1" y2="207.9"/>
		<line class="fp-saluda-st0" x1="196.5" y1="222.2" x2="364.1" y2="222.2"/>
		<line class="fp-saluda-st0" x1="196.5" y1="236.5" x2="364.1" y2="236.5"/>
		<line class="fp-saluda-st0" x1="196.5" y1="250.8" x2="364.1" y2="250.8"/>
		<line class="fp-saluda-st0" x1="196.5" y1="265.1" x2="364.1" y2="265.1"/>
		<line class="fp-saluda-st0" x1="196.5" y1="279.4" x2="364.1" y2="279.4"/>
		<line class="fp-saluda-st0" x1="82.1" y1="293.7" x2="364.1" y2="293.7"/>
		<line class="fp-saluda-st0" x1="82.1" y1="308" x2="364.1" y2="308"/>
		<line class="fp-saluda-st0" x1="82.1" y1="322.4" x2="478.5" y2="322.4"/>
		<line class="fp-saluda-st0" x1="82.1" y1="336.7" x2="478.5" y2="336.7"/>
		<line class="fp-saluda-st0" x1="82.1" y1="351" x2="478.5" y2="351"/>
		<line class="fp-saluda-st0" x1="82.1" y1="365.3" x2="478.5" y2="365.3"/>
		<line class="fp-saluda-st0" x1="82.1" y1="379.6" x2="478.5" y2="379.6"/>
		<line class="fp-saluda-st0" x1="82.1" y1="393.9" x2="478.5" y2="393.9"/>
		<line class="fp-saluda-st0" x1="82.1" y1="408.2" x2="478.5" y2="408.2"/>
		<line class="fp-saluda-st0" x1="82.1" y1="422.5" x2="478.5" y2="422.5"/>
		<line class="fp-saluda-st0" x1="82.1" y1="436.9" x2="478.5" y2="436.9"/>
		<line class="fp-saluda-st0" x1="82.1" y1="451.2" x2="478.5" y2="451.2"/>
		<line class="fp-saluda-st0" x1="82.1" y1="465.5" x2="478.5" y2="465.5"/>
		<line class="fp-saluda-st0" x1="196.5" y1="222.2" x2="364.1" y2="222.2"/>
		<line class="fp-saluda-st0" x1="196.5" y1="193.5" x2="364.1" y2="193.5"/>
		<line class="fp-saluda-st0" x1="196.5" y1="179.2" x2="364.1" y2="179.2"/>
		<polygon class="fp-saluda-st1" points="209.6,132.4 82.1,132.4 82.1,270.8 82.1,281.4 82.1,363.6 171.6,363.6 171.6,281.4 209.6,281.4 		"/>
		<polygon class="fp-saluda-st1" points="478.5,283.3 478.5,132.4 350.9,132.4 350.9,310.8 394.7,310.8 394.7,319.4 478.8,319.4 478.8,283.3 
					"/>
		<line class="fp-saluda-st2" x1="448.4" y1="132.4" x2="381.6" y2="132.4"/>
		<rect x="381.6" y="132.1" class="fp-saluda-st3" width="67.6" height="0.7"/>
		<rect x="414" y="431" class="fp-saluda-st4" width="60.4" height="34"/>
		<path class="fp-saluda-st4" d="M418.1,447.6c0,0-0.2,13.2,5,13.2h44.5c0,0,4.2,0.2,4.2-3.9v-9.4l0,0v-9.4c0-4.1-4.2-3.9-4.2-3.9h-44.4
			C417.9,434.3,418.2,447.6,418.1,447.6L418.1,447.6z"/>
		<path class="fp-saluda-st4" d="M470,447.5c0-0.9,0.3-1.8,0.9-2.4l2.6,2.4v0.1l-2.6,2.4C470.3,449.3,470,448.4,470,447.5"/>
		<rect x="472.6" y="429.2" class="fp-saluda-st3" width="8.8" height="38"/>
		<rect x="351.1" y="441.1" class="fp-saluda-st5" width="2.4" height="1.4"/>
		<rect x="368.7" y="441.1" class="fp-saluda-st5" width="4" height="1.4"/>
		<line class="fp-saluda-st6" x1="369.7" y1="444.4" x2="352.6" y2="444.4"/>
		<line class="fp-saluda-st6" x1="368.7" y1="441.8" x2="353.6" y2="441.8"/>
		<polyline class="fp-saluda-st6" points="369.7,442.5 369.7,463.7 352.6,463.7 352.6,442.5 		"/>
		<rect x="242.3" y="441.5" class="fp-saluda-st7" width="76.9" height="24.6"/>
		<polygon class="fp-saluda-st8" points="265,440.5 265,439.5 293.6,439.5 293.6,464.9 265,464.9 		"/>
		<circle class="fp-saluda-st8" cx="287.4" cy="454.5" r="4.3"/>
		<circle class="fp-saluda-st8" cx="287.4" cy="445.2" r="3.3"/>
		<circle class="fp-saluda-st8" cx="271.2" cy="445.2" r="2.8"/>
		<circle class="fp-saluda-st8" cx="271.2" cy="454.5" r="2.8"/>
		<line class="fp-saluda-st6" x1="293.6" y1="459.4" x2="265" y2="459.4"/>
		<rect x="146.6" y="406.3" class="fp-saluda-st9" width="34.5" height="59.8"/>
		<line class="fp-saluda-st10" x1="178.7" y1="406.3" x2="146.6" y2="466.1"/>
		<line class="fp-saluda-st10" x1="146.6" y1="406.3" x2="178.7" y2="466.1"/>
		<circle class="fp-saluda-st9" cx="162.7" cy="436.2" r="1.5"/>
		<rect x="81.8" y="382.7" class="fp-saluda-st4" width="21" height="46.9"/>
		<path class="fp-saluda-st4" d="M100.8,399.5v13.2c0,1.2-1,2.2-2.2,2.2H90c-1.2,0-2.2-1-2.2-2.2v-13.2c0-1.2,1-2.2,2.2-2.2h8.7
			C99.8,397.3,100.8,398.3,100.8,399.5z"/>
		<circle class="fp-saluda-st4" cx="92.4" cy="406.1" r="1.5"/>
		<rect x="458" y="342.8" class="fp-saluda-st4" width="21" height="55"/>
		<path class="fp-saluda-st4" d="M459.9,376.8v-13.2c0-1.2,1-2.2,2.2-2.2h8.7c1.2,0,2.2,1,2.2,2.2v13.2c0,1.2-1,2.2-2.2,2.2h-8.7
			C460.9,379,459.9,378,459.9,376.8z"/>
		<circle class="fp-saluda-st4" cx="468.4" cy="370.3" r="1.5"/>
		<polyline class="fp-saluda-st9" points="82.7,436.1 87.5,436.1 87.5,458.7 82.7,458.7 		"/>
		<path class="fp-saluda-st9" d="M98.4,442.4c-0.5,0.2-1,0.3-1.5,0.3h-2.8c-0.5,0-0.9-0.3-0.9-0.8c0,0,0-0.1,0-0.1v11c0-0.5,0.3-0.9,0.8-0.9
			c0,0,0.1,0,0.1,0H97c0.5,0,1,0.1,1.5,0.3"/>
		<ellipse class="fp-saluda-st9" cx="103.8" cy="447.4" rx="8.6" ry="6.4"/>
		<rect x="87" y="437.8" class="fp-saluda-st9" width="6.2" height="19.2"/>
		<polyline class="fp-saluda-st9" points="477.4,425.5 472.7,425.5 472.7,402.9 477.4,402.9 		"/>
		<path class="fp-saluda-st9" d="M461.7,419.1c0.5-0.2,1-0.3,1.5-0.3h2.8c0.5,0,0.9,0.3,0.9,0.8c0,0,0,0.1,0,0.1v-11c0,0.5-0.3,0.9-0.8,0.9
			c0,0-0.1,0-0.1,0h-2.9c-0.5,0-1-0.1-1.5-0.3"/>
		<ellipse class="fp-saluda-st9" cx="456.4" cy="414.2" rx="8.6" ry="6.4"/>
		<rect x="467" y="404.6" class="fp-saluda-st9" width="6.2" height="19.2"/>
		<rect x="319.1" y="436" class="fp-saluda-st8" width="32.5" height="28.5"/>
		<polyline class="fp-saluda-st11" points="111.2,132.4 82.1,132.4 82.1,467.4 186.9,467.4 		"/>
		<polyline class="fp-saluda-st11" points="263.2,163.3 209.6,163.3 209.6,132.4 178,132.4 		"/>
		<polyline class="fp-saluda-st11" points="381.6,132.4 350.9,132.4 350.9,163.3 296.2,163.3 		"/>
		<polyline class="fp-saluda-st11" points="220.5,467.4 478.5,467.4 478.5,132.4 448.4,132.4 		"/>
		<polyline class="fp-saluda-st12" points="352.1,134.8 352.1,85.6 208.5,85.6 208.5,134.8 		"/>
		<line class="fp-saluda-st12" x1="209.6" y1="163.3" x2="209.6" y2="313.3"/>
		<polyline class="fp-saluda-st13" points="350.9,163.3 350.9,310.8 356.2,310.8 		"/>
		<polyline class="fp-saluda-st13" points="209.6,281.4 172.3,281.4 172.3,318.4 		"/>
		<line class="fp-saluda-st12" x1="209.6" y1="307.4" x2="202.2" y2="307.4"/>
		<line class="fp-saluda-st12" x1="179" y1="307.4" x2="171.6" y2="307.4"/>
		<polyline class="fp-saluda-st13" points="82.1,268.8 128.3,268.8 128.3,282.9 		"/>
		<line class="fp-saluda-st13" x1="128.3" y1="363.6" x2="128.3" y2="340.5"/>
		<line class="fp-saluda-st13" x1="82.1" y1="363.6" x2="134.2" y2="363.6"/>
		<line class="fp-saluda-st13" x1="166.3" y1="363.6" x2="208.4" y2="363.6"/>
		<line class="fp-saluda-st13" x1="209.6" y1="357.6" x2="209.6" y2="368.5"/>
		<line class="fp-saluda-st13" x1="172.3" y1="350.8" x2="172.3" y2="405.8"/>
		<polyline class="fp-saluda-st13" points="144.9,406.4 209.6,406.4 209.6,401.2 		"/>
		<line class="fp-saluda-st13" x1="180.7" y1="406.3" x2="180.7" y2="467.4"/>
		<line class="fp-saluda-st13" x1="241.9" y1="467.4" x2="241.9" y2="439.9"/>
		<line class="fp-saluda-st13" x1="388.3" y1="310.8" x2="394.5" y2="310.8"/>
		<polyline class="fp-saluda-st13" points="394.5,324.8 394.5,252.5 416,252.5 		"/>
		<line class="fp-saluda-st13" x1="449.1" y1="252.5" x2="478.5" y2="252.5"/>
		<line class="fp-saluda-st13" x1="416" y1="319.4" x2="394.7" y2="319.4"/>
		<line class="fp-saluda-st13" x1="478.8" y1="319.4" x2="449.1" y2="319.4"/>
		<line class="fp-saluda-st13" x1="394.7" y1="357.8" x2="394.7" y2="363.1"/>
		<polyline class="fp-saluda-st13" points="372.8,394 372.8,363.1 414.3,363.1 414.3,467.6 		"/>
		<line class="fp-saluda-st13" x1="372.6" y1="426.6" x2="372.6" y2="467.3"/>
		<rect x="252.8" y="350.8" class="fp-saluda-st7" width="80.6" height="41.4"/>
		<line class="fp-saluda-st14" x1="252.7" y1="362.6" x2="333.2" y2="362.6"/>
		<path class="fp-saluda-st8" d="M307.2,373.6v13.7c0,1.3-1,2.3-2.3,2.3h-23.8c-1.3,0-2.3-1-2.3-2.3v-13.7c0-1.3,1-2.3,2.3-2.3H305
			C306.2,371.4,307.2,372.4,307.2,373.6z"/>
		<circle class="fp-saluda-st8" cx="293.1" cy="380.5" r="1.6"/>
		<rect x="372.6" y="458.7" class="fp-saluda-st15" width="41.7" height="7.3"/>
		<rect x="457.1" y="318" class="fp-saluda-st16" width="20.7" height="7.1"/>
		<rect x="381.6" y="129.5" class="fp-saluda-st3" width="67.6" height="0.7"/>
		<rect x="381.6" y="134.6" class="fp-saluda-st3" width="67.6" height="0.7"/>
		<rect x="428.4" y="129.9" class="fp-saluda-st3" width="0.7" height="5.1"/>
		<line class="fp-saluda-st2" x1="111.2" y1="132.4" x2="178" y2="132.4"/>
		<rect x="110.4" y="132" class="fp-saluda-st3" width="67.6" height="0.7"/>
		<rect x="110.4" y="134.6" class="fp-saluda-st3" width="67.6" height="0.7"/>
		<rect x="110.4" y="129.5" class="fp-saluda-st3" width="67.6" height="0.7"/>
		<rect x="130.5" y="129.9" class="fp-saluda-st3" width="0.7" height="5.1"/>
		<line class="fp-saluda-st2" x1="258" y1="163.4" x2="233.4" y2="163.4"/>
		<rect x="233.4" y="163" class="fp-saluda-st3" width="24.6" height="0.6"/>
		<line class="fp-saluda-st2" x1="326.2" y1="163.4" x2="301.6" y2="163.4"/>
		<rect x="301.6" y="163" class="fp-saluda-st3" width="24.6" height="0.6"/>
		<rect x="295.6" y="126.1" class="fp-saluda-st17" width="1.7" height="32.1"/>
		<path class="fp-saluda-st18" d="M295.6,126.1c-16.7,0-32.3,13.5-32.3,32.3"/>
		<rect x="164.5" y="366.5" class="fp-saluda-st17" width="1.5" height="29.1"/>
		<path class="fp-saluda-st18" d="M164.5,395.6c-15.2,0-29.4-12.3-29.4-29.4"/>
		<rect x="139.4" y="348.7" class="fp-saluda-st17" width="29.1" height="1.5"/>
		<path class="fp-saluda-st18" d="M139.4,348.7c0-15.2,12.3-29.4,29.4-29.4"/>
		<rect x="357" y="278.1" class="fp-saluda-st17" width="1.5" height="29.1"/>
		<path class="fp-saluda-st18" d="M358.5,278.2c15.2,0,29.4,12.3,29.4,29.4"/>
		<rect x="446.5" y="255.3" class="fp-saluda-st17" width="1.5" height="29.1"/>
		<path class="fp-saluda-st18" d="M446.5,284.4c-15.2,0-29.4-12.3-29.4-29.4"/>
		<rect x="179.4" y="310.1" class="fp-saluda-st17" width="1.1" height="20.7"/>
		<path class="fp-saluda-st18" d="M180.4,330.8c11.5,0,20.9-9.4,20.9-20.9"/>
		<path class="fp-saluda-st18" d="M220.5,461.8c0-5.2,0.2-13.4-9.7-23.2"/>
		
			<rect x="182.9" y="450.2" transform="matrix(0.7071 -0.7071 0.7071 0.7071 -260.4758 273.2215)" class="fp-saluda-st17" width="33.4" height="1.8"/>
		<path class="fp-saluda-st18" d="M212.6,400.2c5,0,12.7,0.2,21.9-9.2"/>
		
			<rect x="222" y="364.6" transform="matrix(0.7071 -0.7071 0.7071 0.7071 -203.7422 268.9525)" class="fp-saluda-st17" width="1.7" height="31.6"/>
		<path class="fp-saluda-st18" d="M369.3,394.4c-5,0-12.7-0.2-22,9.2"/>
		
			<rect x="358.2" y="398.3" transform="matrix(0.7071 -0.7071 0.7071 0.7071 -187.7038 375.2198)" class="fp-saluda-st17" width="1.7" height="31.7"/>
		<path class="fp-saluda-st18" d="M397.2,357.3c5,0,12.7,0.2,22-9.2"/>
		
			<rect x="406.6" y="321.7" transform="matrix(0.7071 -0.7071 0.7071 0.7071 -119.3221 386.9175)" class="fp-saluda-st17" width="1.7" height="31.7"/>
		<path class="fp-saluda-st18" d="M448.2,322.3c0,5,0.2,12.7-9.2,22"/>
		
			<rect x="427.6" y="316.7" transform="matrix(0.7071 -0.7071 0.7071 0.7071 -109.6628 400.323)" class="fp-saluda-st17" width="1.7" height="31.7"/>
		<path class="fp-saluda-st19" d="M130.9,311.6c0,0,10.6,0.2,18.4-7.2"/>
		
			<rect x="139.2" y="280.1" transform="matrix(0.7071 -0.7071 0.7071 0.7071 -166.9171 185.114)" class="fp-saluda-st20" width="1.5" height="27.8"/>
		<path class="fp-saluda-st19" d="M130.9,311.6c0,0,10.6-0.2,18.4,7.2"/>
		
			<rect x="126.1" y="328.5" transform="matrix(0.7071 -0.7071 0.7071 0.7071 -191.7865 195.4281)" class="fp-saluda-st20" width="27.8" height="1.5"/>
		<path class="fp-saluda-st21" d="M103.8,380.8c3.3-0.1,6.4-1.3,8.8-3.5"/>
		
			<rect x="107.8" y="365.7" transform="matrix(0.7071 -0.7071 0.7071 0.7071 -231.606 185.5126)" class="fp-saluda-st22" width="0.7" height="13.3"/>
		<polyline class="fp-saluda-st23" points="80.1,367 102.5,367 102.5,368.7 		"/>
		<polyline class="fp-saluda-st23" points="80.1,381.1 102.5,381.1 102.5,379.4 		"/>
		<path class="fp-saluda-st21" d="M455.8,341.1c-3.5-0.1-6.9-1.4-9.6-3.8"/>
		
			<rect x="443.8" y="331.5" transform="matrix(0.7071 -0.7071 0.7071 0.7071 -102.5959 416.1738)" class="fp-saluda-st22" width="14.5" height="0.8"/>
		<polyline class="fp-saluda-st23" points="479.6,342.3 457.1,342.3 457.1,340.6 		"/>
		<polyline class="fp-saluda-st23" points="479.6,324.9 457.1,324.9 457.1,326.6 		"/>
		<rect x="418.6" y="370.2" class="fp-saluda-st24" width="37.2" height="17.2"/>
		<rect x="252.6" y="229.7" class="fp-saluda-st24" width="59" height="17.2"/>
		<rect x="259" y="406.4" class="fp-saluda-st24" width="67.8" height="8.6"/>
		<rect x="270" y="415.4" class="fp-saluda-st24" width="46.3" height="8.6"/>
		<rect x="105.3" y="398.2" class="fp-saluda-st24" width="37.2" height="17.2"/>
		<rect x="182.1" y="291.7" class="fp-saluda-st24" width="17.6" height="7.1"/>
		<g class="fp-saluda-st25">
			<path class="fp-saluda-st3" d="M108.3,412.3L108.3,412.3c0-0.4,0.2-0.7,0.6-0.8c-0.3-0.1-0.5-0.4-0.5-0.7v0c0-0.5,0.5-0.9,1.1-0.9
				s1.1,0.4,1.1,0.9v0c0,0.4-0.2,0.6-0.5,0.7c0.4,0.2,0.6,0.4,0.6,0.8v0c0,0.6-0.5,1-1.3,1C108.9,413.2,108.3,412.8,108.3,412.3z
				 M110.3,412.2L110.3,412.2c0-0.3-0.3-0.5-0.7-0.5c-0.4,0-0.7,0.2-0.7,0.5v0c0,0.3,0.3,0.5,0.7,0.5
				C110,412.7,110.3,412.5,110.3,412.2z M110.2,410.8L110.2,410.8c0-0.3-0.2-0.5-0.6-0.5s-0.6,0.2-0.6,0.5v0c0,0.3,0.2,0.5,0.6,0.5
				C109.9,411.3,110.2,411.1,110.2,410.8z"/>
			<path class="fp-saluda-st3" d="M111.4,411c0.3-0.1,0.4-0.2,0.4-0.4h-0.2v-0.6h0.6v0.6c0,0.5-0.2,0.7-0.7,0.8L111.4,411z"/>
			<path class="fp-saluda-st3" d="M115.2,410.4l-0.6,0.2l-0.1-0.5l0.9-0.3h0.4v3.3h-0.6V410.4z"/>
			<path class="fp-saluda-st3" d="M117.2,410.4l-0.6,0.2l-0.1-0.5l0.9-0.3h0.4v3.3h-0.6V410.4z"/>
			<path class="fp-saluda-st3" d="M118.6,411c0.3-0.1,0.4-0.2,0.4-0.4h-0.2v-0.6h0.6v0.6c0,0.5-0.2,0.7-0.7,0.8L118.6,411z M119.7,411
				c0.3-0.1,0.4-0.2,0.4-0.4h-0.2v-0.6h0.6v0.6c0,0.5-0.2,0.7-0.7,0.8L119.7,411z"/>
			<path class="fp-saluda-st3" d="M124,411.5l0.6-0.8h0.6l-0.9,1.2l0.9,1.3h-0.6l-0.6-0.9l-0.6,0.9h-0.6l0.9-1.3l-0.9-1.2h0.6L124,411.5z"/>
			<path class="fp-saluda-st3" d="M129.3,411.7c-0.2,0.2-0.4,0.4-0.8,0.4c-0.7,0-1.2-0.4-1.2-1v0c0-0.6,0.5-1.1,1.2-1.1c0.4,0,0.7,0.1,0.9,0.3
				c0.2,0.2,0.4,0.6,0.4,1.3v0c0,1.1-0.5,1.8-1.4,1.8c-0.5,0-0.8-0.2-1.1-0.4l0.3-0.4c0.2,0.2,0.5,0.3,0.8,0.3
				C129.1,412.7,129.3,412.1,129.3,411.7z M129.3,410.9L129.3,410.9c0-0.4-0.3-0.6-0.7-0.6c-0.4,0-0.7,0.3-0.7,0.6v0
				c0,0.3,0.3,0.6,0.7,0.6C129.1,411.5,129.3,411.3,129.3,410.9z"/>
			<path class="fp-saluda-st3" d="M130.6,411c0.3-0.1,0.4-0.2,0.4-0.4h-0.2v-0.6h0.6v0.6c0,0.5-0.2,0.7-0.7,0.8L130.6,411z"/>
			<path class="fp-saluda-st3" d="M133.6,412.7l0.4-0.4c0.2,0.3,0.5,0.4,0.9,0.4c0.3,0,0.6-0.2,0.6-0.5v0c0-0.3-0.3-0.5-0.8-0.5h-0.3l-0.1-0.4
				l0.9-0.9h-1.4v-0.5h2.2v0.4l-0.9,0.9c0.5,0.1,1,0.3,1,0.9v0c0,0.6-0.5,1-1.2,1C134.3,413.2,133.9,413,133.6,412.7z"/>
			<path class="fp-saluda-st3" d="M136.7,411c0.3-0.1,0.4-0.2,0.4-0.4h-0.2v-0.6h0.6v0.6c0,0.5-0.2,0.7-0.7,0.8L136.7,411z M137.8,411
				c0.3-0.1,0.4-0.2,0.4-0.4H138v-0.6h0.6v0.6c0,0.5-0.2,0.7-0.7,0.8L137.8,411z"/>
		</g>
		<g class="fp-saluda-st25">
			<path class="fp-saluda-st3" d="M114.3,401.7h2.1c0.5,0,0.9,0.1,1.2,0.4c0.2,0.2,0.3,0.5,0.3,0.8v0c0,0.6-0.3,0.9-0.7,1
				c0.5,0.2,0.9,0.5,0.9,1.1v0c0,0.8-0.7,1.3-1.7,1.3h-2.1V401.7z M117.1,403c0-0.4-0.3-0.6-0.8-0.6h-1.2v1.2h1.1
				C116.8,403.6,117.1,403.4,117.1,403L117.1,403z M116.4,404.3h-1.3v1.3h1.3c0.6,0,0.9-0.2,0.9-0.6v0
				C117.4,404.5,117.1,404.3,116.4,404.3z"/>
		</g>
		<g class="fp-saluda-st25">
			<path class="fp-saluda-st3" d="M121,401.7h0.8l2,4.6h-0.9l-0.5-1.1h-2.2l-0.5,1.1H119L121,401.7z M122.1,404.5l-0.8-1.8l-0.8,1.8H122.1z"/>
		</g>
		<g class="fp-saluda-st25">
			<path class="fp-saluda-st3" d="M125.4,402.4h-1.5v-0.8h3.7v0.8h-1.5v3.9h-0.8V402.4z"/>
			<path class="fp-saluda-st3" d="M128.8,401.7h0.8v1.9h2.2v-1.9h0.8v4.6h-0.8v-1.9h-2.2v1.9h-0.8V401.7z"/>
		</g>
		<g class="fp-saluda-st25">
			<path class="fp-saluda-st3" d="M420.4,384l0.4-0.4c0.3,0.2,0.5,0.4,0.8,0.4c0.4,0,0.7-0.2,0.7-0.6v0c0-0.3-0.3-0.5-0.7-0.5
				c-0.2,0-0.4,0.1-0.6,0.1l-0.3-0.2l0.1-1.6h2v0.5h-1.5l-0.1,0.8c0.2-0.1,0.3-0.1,0.5-0.1c0.6,0,1.2,0.3,1.2,1v0
				c0,0.7-0.5,1.1-1.2,1.1C421.1,384.5,420.7,384.3,420.4,384z"/>
			<path class="fp-saluda-st3" d="M423.5,382.3c0.3-0.1,0.4-0.2,0.4-0.4h-0.2v-0.6h0.6v0.6c0,0.5-0.2,0.7-0.7,0.8L423.5,382.3z"/>
			<path class="fp-saluda-st3" d="M428.6,383c-0.2,0.2-0.4,0.4-0.8,0.4c-0.7,0-1.2-0.4-1.2-1v0c0-0.6,0.5-1.1,1.2-1.1c0.4,0,0.7,0.1,0.9,0.3
				c0.2,0.2,0.4,0.6,0.4,1.3v0c0,1.1-0.5,1.8-1.4,1.8c-0.5,0-0.8-0.2-1.1-0.4l0.3-0.4c0.2,0.2,0.5,0.3,0.8,0.3
				C428.4,384,428.6,383.4,428.6,383z M428.6,382.2L428.6,382.2c0-0.4-0.3-0.6-0.7-0.6c-0.4,0-0.7,0.3-0.7,0.6v0
				c0,0.3,0.3,0.6,0.7,0.6C428.3,382.8,428.6,382.6,428.6,382.2z"/>
			<path class="fp-saluda-st3" d="M429.9,382.3c0.3-0.1,0.4-0.2,0.4-0.4H430v-0.6h0.6v0.6c0,0.5-0.2,0.7-0.7,0.8L429.9,382.3z M430.9,382.3
				c0.3-0.1,0.4-0.2,0.4-0.4h-0.2v-0.6h0.6v0.6c0,0.5-0.2,0.7-0.7,0.8L430.9,382.3z"/>
			<path class="fp-saluda-st3" d="M435.2,382.8l0.6-0.8h0.6l-0.9,1.2l0.9,1.3h-0.6l-0.6-0.9l-0.6,0.9H434l0.9-1.3L434,382h0.6L435.2,382.8z"/>
			<path class="fp-saluda-st3" d="M439.2,381.7l-0.6,0.2l-0.1-0.5l0.9-0.3h0.4v3.3h-0.6V381.7z"/>
			<path class="fp-saluda-st3" d="M440.6,384l1.1-1c0.5-0.4,0.6-0.6,0.6-0.9c0-0.3-0.2-0.5-0.5-0.5s-0.5,0.2-0.8,0.5l-0.4-0.3
				c0.3-0.4,0.6-0.7,1.2-0.7c0.6,0,1.1,0.4,1.1,1v0c0,0.5-0.3,0.8-0.9,1.3l-0.7,0.6h1.6v0.5h-2.4V384z"/>
			<path class="fp-saluda-st3" d="M443.7,382.3c0.3-0.1,0.4-0.2,0.4-0.4h-0.2v-0.6h0.6v0.6c0,0.5-0.2,0.7-0.7,0.8L443.7,382.3z"/>
			<path class="fp-saluda-st3" d="M447.4,381.7l-0.6,0.2l-0.1-0.5l0.9-0.3h0.4v3.3h-0.6V381.7z"/>
			<path class="fp-saluda-st3" d="M448.8,382.8L448.8,382.8c0-1,0.6-1.7,1.4-1.7c0.9,0,1.4,0.8,1.4,1.7v0c0,0.9-0.6,1.7-1.4,1.7
				C449.4,384.5,448.8,383.8,448.8,382.8z M451.1,382.8L451.1,382.8c0-0.7-0.3-1.2-0.8-1.2c-0.5,0-0.8,0.5-0.8,1.2v0
				c0,0.7,0.3,1.2,0.8,1.2C450.8,384,451.1,383.5,451.1,382.8z"/>
			<path class="fp-saluda-st3" d="M452.4,382.3c0.3-0.1,0.4-0.2,0.4-0.4h-0.2v-0.6h0.6v0.6c0,0.5-0.2,0.7-0.7,0.8L452.4,382.3z M453.5,382.3
				c0.3-0.1,0.4-0.2,0.4-0.4h-0.2v-0.6h0.6v0.6c0,0.5-0.2,0.7-0.7,0.8L453.5,382.3z"/>
		</g>
		<g class="fp-saluda-st25">
			<path class="fp-saluda-st3" d="M428,372.6h2.1c0.5,0,0.9,0.1,1.2,0.4c0.2,0.2,0.3,0.5,0.3,0.8v0c0,0.6-0.3,0.9-0.7,1
				c0.5,0.2,0.9,0.5,0.9,1.1v0c0,0.8-0.7,1.3-1.7,1.3H428V372.6z M430.8,373.9c0-0.4-0.3-0.6-0.8-0.6h-1.2v1.2h1.1
				C430.4,374.5,430.8,374.3,430.8,373.9L430.8,373.9z M430.1,375.2h-1.3v1.3h1.3c0.6,0,0.9-0.2,0.9-0.6v0
				C431,375.5,430.7,375.2,430.1,375.2z"/>
		</g>
		<g class="fp-saluda-st25">
			<path class="fp-saluda-st3" d="M434.7,372.6h0.8l2,4.6h-0.9l-0.5-1.1h-2.2l-0.5,1.1h-0.8L434.7,372.6z M435.8,375.4l-0.8-1.8l-0.8,1.8
				H435.8z"/>
		</g>
		<g class="fp-saluda-st25">
			<path class="fp-saluda-st3" d="M439,373.3h-1.5v-0.8h3.7v0.8h-1.5v3.9H439V373.3z"/>
			<path class="fp-saluda-st3" d="M442.4,372.6h0.8v1.9h2.2v-1.9h0.8v4.6h-0.8v-1.9h-2.2v1.9h-0.8V372.6z"/>
		</g>
		<g class="fp-saluda-st25">
			<path class="fp-saluda-st3" d="M92.7,323h-1.9l-0.1-0.5l2.1-2.5h0.6v2.4h0.5v0.5h-0.5v0.9h-0.6V323z M92.7,322.5V321l-1.2,1.5H92.7z"/>
			<path class="fp-saluda-st3" d="M94.6,321.4c0.3-0.1,0.5-0.2,0.5-0.5h-0.3v-0.7h0.7v0.6c0,0.6-0.3,0.9-0.8,0.9L94.6,321.4z"/>
			<path class="fp-saluda-st3" d="M98.1,323.3l0.5-0.4c0.3,0.3,0.6,0.5,1,0.5c0.4,0,0.7-0.2,0.7-0.6v0c0-0.4-0.3-0.6-0.9-0.6h-0.3l-0.1-0.4
				l1-1.1h-1.6v-0.6h2.5v0.5l-1.1,1.1c0.6,0.1,1.1,0.4,1.1,1.1v0c0,0.7-0.5,1.2-1.3,1.2C98.9,324,98.4,323.7,98.1,323.3z"/>
			<path class="fp-saluda-st3" d="M101.7,321.4c0.3-0.1,0.5-0.2,0.5-0.5h-0.3v-0.7h0.7v0.6c0,0.6-0.3,0.9-0.8,0.9L101.7,321.4z M102.9,321.4
				c0.3-0.1,0.5-0.2,0.5-0.5h-0.3v-0.7h0.7v0.6c0,0.6-0.3,0.9-0.8,0.9L102.9,321.4z"/>
			<path class="fp-saluda-st3" d="M107.8,322l0.7-1h0.7l-1,1.4l1.1,1.5h-0.7l-0.7-1l-0.7,1h-0.7l1-1.5l-1-1.4h0.7L107.8,322z"/>
			<path class="fp-saluda-st3" d="M111.7,322.9L111.7,322.9c0-0.5,0.3-0.8,0.7-0.9c-0.3-0.2-0.6-0.4-0.6-0.8v0c0-0.6,0.6-1,1.3-1
				c0.8,0,1.3,0.4,1.3,1v0c0,0.4-0.2,0.7-0.6,0.8c0.4,0.2,0.7,0.5,0.7,0.9v0c0,0.7-0.6,1.1-1.4,1.1
				C112.3,324,111.7,323.5,111.7,322.9z M113.9,322.8L113.9,322.8c0-0.4-0.3-0.6-0.8-0.6c-0.4,0-0.8,0.2-0.8,0.6v0
				c0,0.3,0.3,0.6,0.8,0.6C113.6,323.4,113.9,323.1,113.9,322.8z M113.8,321.2L113.8,321.2c0-0.3-0.3-0.5-0.7-0.5s-0.7,0.2-0.7,0.5
				v0c0,0.3,0.3,0.6,0.7,0.6C113.5,321.7,113.8,321.5,113.8,321.2z"/>
			<path class="fp-saluda-st3" d="M115.3,321.4c0.3-0.1,0.5-0.2,0.5-0.5h-0.3v-0.7h0.7v0.6c0,0.6-0.3,0.9-0.8,0.9L115.3,321.4z"/>
			<path class="fp-saluda-st3" d="M119.3,323.6c-0.3-0.3-0.5-0.7-0.5-1.4v0c0-1.2,0.6-2.1,1.6-2.1c0.5,0,0.8,0.2,1.2,0.4l-0.4,0.5
				c-0.3-0.2-0.5-0.3-0.8-0.3c-0.7,0-0.9,0.7-0.9,1.2c0.2-0.2,0.5-0.4,0.9-0.4c0.7,0,1.3,0.4,1.3,1.2v0c0,0.8-0.6,1.3-1.4,1.3
				C119.9,324,119.6,323.8,119.3,323.6z M121.1,322.7L121.1,322.7c0-0.4-0.3-0.7-0.8-0.7s-0.8,0.3-0.8,0.7v0c0,0.4,0.3,0.7,0.8,0.7
				S121.1,323.1,121.1,322.7z"/>
			<path class="fp-saluda-st3" d="M122.6,321.4c0.3-0.1,0.5-0.2,0.5-0.5h-0.3v-0.7h0.7v0.6c0,0.6-0.3,0.9-0.8,0.9L122.6,321.4z M123.8,321.4
				c0.3-0.1,0.5-0.2,0.5-0.5H124v-0.7h0.7v0.6c0,0.6-0.3,0.9-0.8,0.9L123.8,321.4z"/>
		</g>
		<g class="fp-saluda-st25">
			<path class="fp-saluda-st3" d="M91.8,312.3L91.8,312.3c0-1.5,1.1-2.8,2.7-2.8c1,0,1.6,0.3,2.1,0.8L96,311c-0.4-0.4-0.9-0.7-1.5-0.7
				c-1,0-1.8,0.8-1.8,1.9v0c0,1,0.7,1.9,1.8,1.9c0.7,0,1.1-0.3,1.5-0.7l0.6,0.6c-0.6,0.6-1.2,0.9-2.2,0.9
				C92.9,315,91.8,313.8,91.8,312.3z"/>
		</g>
		<g class="fp-saluda-st25">
			<path class="fp-saluda-st3" d="M97.9,309.6h0.9v4.5h2.8v0.8h-3.7V309.6z"/>
		</g>
		<g class="fp-saluda-st25">
			<path class="fp-saluda-st3" d="M102.4,312.3L102.4,312.3c0-1.5,1.2-2.8,2.8-2.8c1.6,0,2.8,1.2,2.8,2.7v0c0,1.5-1.2,2.7-2.8,2.7
				S102.4,313.8,102.4,312.3z M106.9,312.3L106.9,312.3c0-1-0.8-1.9-1.8-1.9s-1.8,0.8-1.8,1.9v0c0,1,0.8,1.9,1.8,1.9
				S106.9,313.3,106.9,312.3z"/>
		</g>
		<g class="fp-saluda-st25">
			<path class="fp-saluda-st3" d="M109,314.1l0.6-0.7c0.5,0.4,1,0.7,1.7,0.7c0.6,0,0.9-0.3,0.9-0.7v0c0-0.4-0.2-0.6-1.2-0.8
				c-1.1-0.3-1.8-0.6-1.8-1.6v0c0-0.9,0.8-1.5,1.8-1.5c0.8,0,1.4,0.2,1.9,0.7l-0.5,0.7c-0.5-0.4-1-0.5-1.4-0.5
				c-0.5,0-0.9,0.3-0.9,0.6v0c0,0.4,0.2,0.6,1.3,0.8c1.1,0.3,1.7,0.7,1.7,1.6v0c0,1-0.8,1.6-1.9,1.6
				C110.4,315,109.6,314.7,109,314.1z"/>
			<path class="fp-saluda-st3" d="M114.5,309.6h3.9v0.8h-3v1.4h2.7v0.8h-2.7v1.4h3v0.8h-4V309.6z"/>
			<path class="fp-saluda-st3" d="M121.2,310.5h-1.7v-0.9h4.3v0.9h-1.7v4.4h-0.9V310.5z"/>
		</g>
		<g class="fp-saluda-st25">
			<path class="fp-saluda-st3" d="M421.8,303.2h-1.9v-0.6h2.7v0.5l-1.7,3.3h-0.8L421.8,303.2z"/>
			<path class="fp-saluda-st3" d="M423.3,303.9c0.3-0.1,0.5-0.2,0.5-0.5h-0.3v-0.7h0.7v0.6c0,0.6-0.3,0.9-0.8,0.9L423.3,303.9z"/>
			<path class="fp-saluda-st3" d="M428.8,303.2h-1.9v-0.6h2.7v0.5l-1.7,3.3h-0.8L428.8,303.2z"/>
			<path class="fp-saluda-st3" d="M430.3,303.9c0.3-0.1,0.5-0.2,0.5-0.5h-0.3v-0.7h0.7v0.6c0,0.6-0.3,0.9-0.8,0.9L430.3,303.9z M431.6,303.9
				c0.3-0.1,0.5-0.2,0.5-0.5h-0.3v-0.7h0.7v0.6c0,0.6-0.3,0.9-0.8,0.9L431.6,303.9z"/>
			<path class="fp-saluda-st3" d="M436.4,304.5l0.7-1h0.7l-1,1.4l1.1,1.5h-0.7l-0.7-1l-0.7,1H435l1-1.5l-1-1.4h0.7L436.4,304.5z"/>
			<path class="fp-saluda-st3" d="M440.8,306.1c-0.3-0.3-0.5-0.7-0.5-1.4v0c0-1.2,0.6-2.1,1.6-2.1c0.5,0,0.8,0.2,1.2,0.4l-0.4,0.5
				c-0.3-0.2-0.5-0.3-0.8-0.3c-0.7,0-0.9,0.7-0.9,1.2c0.2-0.2,0.5-0.4,0.9-0.4c0.7,0,1.3,0.4,1.3,1.2v0c0,0.8-0.6,1.3-1.4,1.3
				C441.4,306.5,441.1,306.3,440.8,306.1z M442.6,305.2L442.6,305.2c0-0.4-0.3-0.7-0.8-0.7c-0.5,0-0.8,0.3-0.8,0.7v0
				c0,0.4,0.3,0.7,0.8,0.7C442.4,305.9,442.6,305.6,442.6,305.2z"/>
			<path class="fp-saluda-st3" d="M444.1,303.9c0.3-0.1,0.5-0.2,0.5-0.5h-0.3v-0.7h0.7v0.6c0,0.6-0.3,0.9-0.8,0.9L444.1,303.9z"/>
			<path class="fp-saluda-st3" d="M448.3,303.3l-0.7,0.2l-0.1-0.5l1-0.3h0.5v3.8h-0.7V303.3z"/>
			<path class="fp-saluda-st3" d="M449.9,303.9c0.3-0.1,0.5-0.2,0.5-0.5h-0.3v-0.7h0.7v0.6c0,0.6-0.3,0.9-0.8,0.9L449.9,303.9z M451.2,303.9
				c0.3-0.1,0.5-0.2,0.5-0.5h-0.3v-0.7h0.7v0.6c0,0.6-0.3,0.9-0.8,0.9L451.2,303.9z"/>
		</g>
		<g class="fp-saluda-st25">
			<path class="fp-saluda-st3" d="M420,294.8L420,294.8c0-1.5,1.1-2.8,2.7-2.8c1,0,1.6,0.3,2.1,0.8l-0.6,0.7c-0.4-0.4-0.9-0.7-1.5-0.7
				c-1,0-1.8,0.8-1.8,1.9v0c0,1,0.7,1.9,1.8,1.9c0.7,0,1.1-0.3,1.5-0.7l0.6,0.6c-0.6,0.6-1.2,0.9-2.2,0.9
				C421.2,297.5,420,296.3,420,294.8z"/>
		</g>
		<g class="fp-saluda-st25">
			<path class="fp-saluda-st3" d="M426.1,292.1h0.9v4.5h2.8v0.8h-3.7V292.1z"/>
		</g>
		<g class="fp-saluda-st25">
			<path class="fp-saluda-st3" d="M430.6,294.8L430.6,294.8c0-1.5,1.2-2.8,2.8-2.8s2.8,1.2,2.8,2.7v0c0,1.5-1.2,2.7-2.8,2.7
				C431.7,297.5,430.6,296.3,430.6,294.8z M435.2,294.8L435.2,294.8c0-1-0.8-1.9-1.8-1.9c-1.1,0-1.8,0.8-1.8,1.9v0
				c0,1,0.8,1.9,1.8,1.9C434.4,296.7,435.2,295.8,435.2,294.8z"/>
		</g>
		<g class="fp-saluda-st25">
			<path class="fp-saluda-st3" d="M437.2,296.7l0.6-0.7c0.5,0.4,1,0.7,1.7,0.7c0.6,0,0.9-0.3,0.9-0.7v0c0-0.4-0.2-0.6-1.2-0.8
				c-1.1-0.3-1.8-0.6-1.8-1.6v0c0-0.9,0.8-1.5,1.8-1.5c0.8,0,1.4,0.2,1.9,0.7l-0.5,0.7c-0.5-0.4-1-0.5-1.4-0.5
				c-0.5,0-0.9,0.3-0.9,0.6v0c0,0.4,0.2,0.6,1.3,0.8c1.1,0.3,1.7,0.7,1.7,1.6v0c0,1-0.8,1.6-1.9,1.6
				C438.6,297.5,437.8,297.2,437.2,296.7z"/>
			<path class="fp-saluda-st3" d="M442.7,292.1h3.9v0.8h-3v1.4h2.7v0.8h-2.7v1.4h3v0.8h-4V292.1z"/>
			<path class="fp-saluda-st3" d="M449.4,293h-1.7v-0.9h4.3v0.9h-1.7v4.4h-0.9V293z"/>
		</g>
		<g class="fp-saluda-st25">
			<path class="fp-saluda-st3" d="M184.6,294L184.6,294c0-0.9,0.6-1.6,1.6-1.6c0.6,0,0.9,0.2,1.2,0.5l-0.3,0.4c-0.2-0.2-0.5-0.4-0.8-0.4
				c-0.6,0-1,0.5-1,1.1v0c0,0.6,0.4,1.1,1,1.1c0.4,0,0.6-0.1,0.9-0.4l0.3,0.3c-0.3,0.3-0.7,0.5-1.2,0.5
				C185.2,295.6,184.6,294.9,184.6,294z"/>
		</g>
		<g class="fp-saluda-st25">
			<path class="fp-saluda-st3" d="M187.9,294L187.9,294c0-0.9,0.7-1.6,1.6-1.6s1.6,0.7,1.6,1.6v0c0,0.9-0.7,1.6-1.6,1.6S187.9,294.9,187.9,294
				z M190.5,294L190.5,294c0-0.6-0.4-1.1-1-1.1s-1,0.5-1,1.1v0c0,0.6,0.4,1.1,1,1.1C190,295.1,190.5,294.6,190.5,294z"/>
		</g>
		<g class="fp-saluda-st25">
			<path class="fp-saluda-st3" d="M192.7,292.5h0.5l1.3,3.1H194l-0.3-0.7h-1.4l-0.3,0.7h-0.5L192.7,292.5z M193.5,294.3l-0.5-1.2l-0.5,1.2
				H193.5z"/>
		</g>
		<g class="fp-saluda-st25">
			<path class="fp-saluda-st3" d="M195.6,293h-1v-0.5h2.5v0.5h-1v2.5h-0.5V293z"/>
		</g>
		<circle class="fp-saluda-st26" cx="190.9" cy="385" r="13.7"/>
		<g class="fp-saluda-st25">
			<path class="fp-saluda-st3" d="M182.3,382.7h0.8v1.8h2.1v-1.8h0.8v4.4h-0.8v-1.9H183v1.9h-0.8V382.7z"/>
		</g>
		<g class="fp-saluda-st25">
			<path class="fp-saluda-st3" d="M186.9,382.7h0.9l1.3,3.4l1.3-3.4h0.8l-1.8,4.4h-0.7L186.9,382.7z"/>
		</g>
		<g class="fp-saluda-st25">
			<path class="fp-saluda-st3" d="M193.2,382.7h0.7l1.9,4.4h-0.8l-0.4-1.1h-2.1l-0.5,1.1h-0.8L193.2,382.7z M194.3,385.4l-0.8-1.8l-0.8,1.8
				H194.3z"/>
		</g>
		<g class="fp-saluda-st25">
			<path class="fp-saluda-st3" d="M196.4,385L196.4,385c0-1.3,0.9-2.3,2.3-2.3c0.8,0,1.3,0.3,1.7,0.7l-0.5,0.6c-0.4-0.3-0.7-0.5-1.2-0.5
				c-0.8,0-1.5,0.7-1.5,1.6v0c0,0.9,0.6,1.6,1.5,1.6c0.5,0,0.9-0.2,1.3-0.6l0.5,0.5c-0.5,0.5-1,0.8-1.8,0.8
				C197.4,387.2,196.4,386.2,196.4,385z"/>
		</g>
		<path class="fp-saluda-st27" d="M353.5,440.3c0.1-3.7,1.5-7.2,3.9-10"/>
		
			<rect x="362.6" y="427.8" transform="matrix(0.7071 -0.7071 0.7071 0.7071 -201.494 384.224)" class="fp-saluda-st28" width="0.8" height="15.1"/>
		<rect x="354.2" y="448.6" class="fp-saluda-st24" width="14" height="5"/>
		<g class="fp-saluda-st25">
			<path class="fp-saluda-st3" d="M354.8,449.9h0.8c0.5,0,0.8,0.3,0.8,0.7v0c0,0.5-0.4,0.7-0.9,0.7h-0.4v0.7h-0.4V449.9z M355.6,451
				c0.3,0,0.5-0.2,0.5-0.4v0c0-0.2-0.2-0.4-0.5-0.4h-0.4v0.8H355.6z"/>
		</g>
		<g class="fp-saluda-st25">
			<path class="fp-saluda-st3" d="M357.5,449.9h0.3l0.9,2.1h-0.4l-0.2-0.5h-1l-0.2,0.5h-0.4L357.5,449.9z M358,451.2l-0.4-0.9l-0.4,0.9H358z"
				/>
			<path class="fp-saluda-st3" d="M359.2,449.9h0.3l1.1,1.5v-1.5h0.4v2.1h-0.3l-1.2-1.5v1.5h-0.4V449.9z"/>
			<path class="fp-saluda-st3" d="M362.3,450.3h-0.7v-0.3h1.7v0.3h-0.7v1.8h-0.4V450.3z"/>
		</g>
		<g class="fp-saluda-st25">
			<path class="fp-saluda-st3" d="M363.8,449.9h0.9c0.3,0,0.5,0.1,0.6,0.2c0.1,0.1,0.2,0.3,0.2,0.5v0c0,0.3-0.2,0.6-0.5,0.6l0.6,0.8h-0.4
				l-0.5-0.7h-0.5v0.7h-0.4V449.9z M364.8,451c0.3,0,0.4-0.1,0.4-0.4v0c0-0.2-0.2-0.4-0.4-0.4h-0.5v0.7H364.8z"/>
		</g>
		<g class="fp-saluda-st25">
			<path class="fp-saluda-st3" d="M366.7,451.2l-0.8-1.3h0.4l0.6,0.9l0.6-0.9h0.4l-0.8,1.3v0.8h-0.4V451.2z"/>
		</g>
		<g class="fp-saluda-st25">
			<path class="fp-saluda-st3" d="M262.5,228.7h1.3v6.4h4v1.2h-5.3V228.7z"/>
			<path class="fp-saluda-st3" d="M269.7,228.7h1.3v7.6h-1.3V228.7z"/>
			<path class="fp-saluda-st3" d="M272.8,228.7h1.5l2.3,5.8l2.3-5.8h1.4l-3.1,7.6H276L272.8,228.7z"/>
			<path class="fp-saluda-st3" d="M282.1,228.7h1.3v7.6h-1.3V228.7z"/>
			<path class="fp-saluda-st3" d="M285.9,228.7h1.2l4.1,5.2v-5.2h1.3v7.6h-1.1l-4.2-5.4v5.4h-1.3V228.7z"/>
			<path class="fp-saluda-st3" d="M294.6,232.5L294.6,232.5c0-2.1,1.6-3.9,3.9-3.9c1.3,0,2.1,0.4,2.9,1l-0.8,1c-0.6-0.5-1.2-0.8-2.1-0.8
				c-1.4,0-2.5,1.2-2.5,2.7v0c0,1.6,1,2.7,2.6,2.7c0.7,0,1.4-0.2,1.8-0.6v-1.4h-1.9V232h3.2v3.2c-0.7,0.6-1.8,1.2-3.2,1.2
				C296.1,236.4,294.6,234.7,294.6,232.5z"/>
		</g>
		<g class="fp-saluda-st25">
			<path class="fp-saluda-st3" d="M258.3,241.8l-0.8,0.2l-0.2-0.6l1.2-0.4h0.5v4.5h-0.8V241.8z"/>
			<path class="fp-saluda-st3" d="M260.2,244.9l1.5-1.3c0.6-0.5,0.8-0.8,0.8-1.2c0-0.4-0.3-0.7-0.7-0.7s-0.7,0.2-1,0.7l-0.6-0.4
				c0.4-0.6,0.9-0.9,1.7-0.9c0.9,0,1.5,0.5,1.5,1.3v0c0,0.7-0.4,1.1-1.2,1.7l-0.9,0.8h2.1v0.7h-3.3V244.9z"/>
			<path class="fp-saluda-st3" d="M264.4,242.5c0.4-0.1,0.6-0.3,0.6-0.6h-0.3V241h0.9v0.8c0,0.7-0.3,1-1,1.1L264.4,242.5z"/>
			<path class="fp-saluda-st3" d="M269.4,241.8l-0.8,0.2l-0.2-0.6l1.2-0.4h0.5v4.5h-0.8V241.8z"/>
			<path class="fp-saluda-st3" d="M271.5,243.3L271.5,243.3c0-1.3,0.8-2.3,2-2.3c1.2,0,2,1,2,2.3v0c0,1.3-0.8,2.3-2,2.3
				C272.2,245.6,271.5,244.6,271.5,243.3z M274.6,243.3L274.6,243.3c0-0.9-0.5-1.6-1.1-1.6c-0.7,0-1.1,0.7-1.1,1.6v0
				c0,0.9,0.4,1.6,1.1,1.6S274.6,244.2,274.6,243.3z"/>
			<path class="fp-saluda-st3" d="M276.3,242.5c0.4-0.1,0.6-0.3,0.6-0.6h-0.3V241h0.9v0.8c0,0.7-0.3,1-1,1.1L276.3,242.5z M277.8,242.5
				c0.4-0.1,0.6-0.3,0.5-0.6H278V241h0.9v0.8c0,0.7-0.3,1-1,1.1L277.8,242.5z"/>
			<path class="fp-saluda-st3" d="M283.5,243.3l0.8-1.1h0.8l-1.2,1.7l1.2,1.7h-0.8l-0.8-1.2l-0.8,1.2h-0.8l1.2-1.7l-1.2-1.7h0.8L283.5,243.3z"
				/>
			<path class="fp-saluda-st3" d="M289,241.8l-0.8,0.2l-0.2-0.6l1.2-0.4h0.5v4.5H289V241.8z"/>
			<path class="fp-saluda-st3" d="M290.9,244.8l0.6-0.5c0.3,0.4,0.7,0.6,1.2,0.6c0.4,0,0.8-0.3,0.8-0.7v0c0-0.4-0.4-0.7-1-0.7H292l-0.1-0.5
				l1.2-1.3h-1.9V241h3v0.6l-1.3,1.3c0.7,0.1,1.3,0.4,1.3,1.3v0c0,0.8-0.6,1.4-1.6,1.4C291.9,245.6,291.3,245.3,290.9,244.8z"/>
			<path class="fp-saluda-st3" d="M295.1,242.5c0.4-0.1,0.6-0.3,0.6-0.6h-0.3V241h0.9v0.8c0,0.7-0.3,1-1,1.1L295.1,242.5z"/>
			<path class="fp-saluda-st3" d="M301.7,244.5h-2.3l-0.1-0.6l2.5-3h0.7v2.9h0.6v0.6h-0.6v1h-0.8V244.5z M301.7,243.9v-1.8l-1.5,1.8H301.7z"/>
			<path class="fp-saluda-st3" d="M303.9,242.5c0.4-0.1,0.6-0.3,0.6-0.6h-0.3V241h0.9v0.8c0,0.7-0.3,1-1,1.1L303.9,242.5z M305.4,242.5
				c0.4-0.1,0.6-0.3,0.5-0.6h-0.3V241h0.9v0.8c0,0.7-0.3,1-1,1.1L305.4,242.5z"/>
		</g>
		<g class="fp-saluda-st25">
			<path class="fp-saluda-st3" d="M253.6,101.9h3.4c0.9,0,1.5,0.2,2,0.7c0.3,0.3,0.5,0.7,0.5,1.3v0c0,0.9-0.5,1.4-1.1,1.7
				c0.9,0.3,1.5,0.8,1.5,1.8v0c0,1.4-1.1,2.1-2.8,2.1h-3.5V101.9z M258.2,104c0-0.6-0.5-1-1.3-1h-1.9v2h1.8
				C257.6,105.1,258.2,104.7,258.2,104L258.2,104z M257.1,106.2h-2.1v2.1h2.2c0.9,0,1.5-0.4,1.5-1v0
				C258.6,106.6,258.1,106.2,257.1,106.2z"/>
			<path class="fp-saluda-st3" d="M264.6,101.8h1.2l3.3,7.6h-1.4l-0.8-1.8h-3.6l-0.8,1.8h-1.4L264.6,101.8z M266.5,106.4l-1.3-3l-1.3,3H266.5z
				"/>
		</g>
		<g class="fp-saluda-st25">
			<path class="fp-saluda-st3" d="M270.9,101.9h1.3v6.4h4v1.2h-5.3V101.9z"/>
		</g>
		<g class="fp-saluda-st25">
			<path class="fp-saluda-st3" d="M277.3,105.7L277.3,105.7c0-2.2,1.6-3.9,3.9-3.9c1.4,0,2.2,0.5,3,1.2l-0.9,1c-0.6-0.6-1.3-0.9-2.1-0.9
				c-1.4,0-2.5,1.2-2.5,2.7v0c0,1.5,1.1,2.7,2.5,2.7c0.9,0,1.5-0.4,2.2-1l0.9,0.9c-0.8,0.8-1.7,1.3-3.1,1.3
				C278.9,109.6,277.3,107.9,277.3,105.7z"/>
		</g>
		<g class="fp-saluda-st25">
			<path class="fp-saluda-st3" d="M285.5,105.7L285.5,105.7c0-2.2,1.6-3.9,4-3.9s4,1.8,4,3.9v0c0,2.1-1.6,3.9-4,3.9
				C287.1,109.6,285.5,107.8,285.5,105.7z M292,105.7L292,105.7c0-1.5-1.1-2.7-2.6-2.7c-1.5,0-2.6,1.2-2.6,2.7v0
				c0,1.5,1.1,2.7,2.6,2.7S292,107.2,292,105.7z"/>
			<path class="fp-saluda-st3" d="M295.5,101.9h1.2l4.1,5.2v-5.2h1.3v7.6h-1.1l-4.2-5.4v5.4h-1.3V101.9z"/>
			<path class="fp-saluda-st3" d="M306.7,106.5l-3-4.6h1.6l2.1,3.3l2.1-3.3h1.5l-3,4.6v3h-1.3V106.5z"/>
		</g>
		<g class="fp-saluda-st25">
			<path class="fp-saluda-st3" d="M261.4,115l-0.8,0.2l-0.2-0.6l1.2-0.4h0.5v4.5h-0.8V115z"/>
			<path class="fp-saluda-st3" d="M263.4,118.1l1.5-1.3c0.6-0.5,0.8-0.8,0.8-1.2c0-0.4-0.3-0.7-0.7-0.7s-0.7,0.2-1,0.7l-0.6-0.4
				c0.4-0.6,0.9-0.9,1.7-0.9c0.9,0,1.5,0.5,1.5,1.3v0c0,0.7-0.4,1.1-1.2,1.7l-0.9,0.8h2.1v0.7h-3.3V118.1z"/>
			<path class="fp-saluda-st3" d="M267.5,115.7c0.4-0.1,0.6-0.3,0.6-0.6h-0.3v-0.9h0.9v0.8c0,0.7-0.3,1-1,1.1L267.5,115.7z"/>
			<path class="fp-saluda-st3" d="M271.7,118.1l1.5-1.3c0.6-0.5,0.8-0.8,0.8-1.2c0-0.4-0.3-0.7-0.7-0.7s-0.7,0.2-1,0.7l-0.6-0.4
				c0.4-0.6,0.9-0.9,1.7-0.9c0.9,0,1.5,0.5,1.5,1.3v0c0,0.7-0.4,1.1-1.2,1.7l-0.9,0.8h2.1v0.7h-3.3V118.1z"/>
			<path class="fp-saluda-st3" d="M275.9,115.7c0.4-0.1,0.6-0.3,0.6-0.6h-0.3v-0.9h0.9v0.8c0,0.7-0.3,1-1,1.1L275.9,115.7z M277.4,115.7
				c0.4-0.1,0.6-0.3,0.5-0.6h-0.3v-0.9h0.9v0.8c0,0.7-0.3,1-1,1.1L277.4,115.7z"/>
			<path class="fp-saluda-st3" d="M283.2,116.5l0.8-1.1h0.8l-1.2,1.7l1.2,1.7H284l-0.8-1.2l-0.8,1.2h-0.8l1.2-1.7l-1.2-1.7h0.8L283.2,116.5z"
				/>
			<path class="fp-saluda-st3" d="M288.4,118.4c-0.3-0.3-0.5-0.8-0.5-1.7v0c0-1.4,0.7-2.4,1.9-2.4c0.6,0,1,0.2,1.4,0.5l-0.4,0.6
				c-0.3-0.2-0.6-0.4-1-0.4c-0.8,0-1.1,0.8-1.1,1.4c0.3-0.3,0.6-0.5,1.1-0.5c0.9,0,1.6,0.5,1.6,1.4v0c0,0.9-0.7,1.5-1.7,1.5
				C289.1,118.8,288.7,118.7,288.4,118.4z M290.5,117.3L290.5,117.3c0-0.5-0.4-0.8-0.9-0.8c-0.6,0-0.9,0.4-0.9,0.8v0
				c0,0.5,0.4,0.8,0.9,0.8C290.2,118.1,290.5,117.8,290.5,117.3z"/>
			<path class="fp-saluda-st3" d="M292.2,115.7c0.4-0.1,0.6-0.3,0.6-0.6h-0.3v-0.9h0.9v0.8c0,0.7-0.3,1-1,1.1L292.2,115.7z"/>
			<path class="fp-saluda-st3" d="M299.1,116.7c-0.3,0.3-0.6,0.5-1.1,0.5c-1,0-1.6-0.6-1.6-1.4v0c0-0.9,0.7-1.6,1.7-1.6c0.6,0,0.9,0.2,1.3,0.5
				c0.3,0.3,0.5,0.8,0.5,1.7v0c0,1.4-0.7,2.4-1.9,2.4c-0.6,0-1.1-0.2-1.4-0.5l0.4-0.6c0.3,0.3,0.6,0.4,1,0.4
				C298.8,118.1,299.1,117.3,299.1,116.7z M299.1,115.7L299.1,115.7c0-0.5-0.4-0.8-0.9-0.8c-0.6,0-0.9,0.4-0.9,0.8v0
				c0,0.5,0.4,0.8,0.9,0.8C298.8,116.5,299.1,116.1,299.1,115.7z"/>
			<path class="fp-saluda-st3" d="M300.8,115.7c0.4-0.1,0.6-0.3,0.6-0.6h-0.3v-0.9h0.9v0.8c0,0.7-0.3,1-1,1.1L300.8,115.7z M302.3,115.7
				c0.4-0.1,0.6-0.3,0.5-0.6h-0.3v-0.9h0.9v0.8c0,0.7-0.3,1-1,1.1L302.3,115.7z"/>
		</g>
		<g class="fp-saluda-st25">
			<path class="fp-saluda-st3" d="M267.6,404.1h1.3v3.8l3.6-3.8h1.6l-3.2,3.3l3.3,4.3h-1.6l-2.6-3.4l-1.2,1.2v2.2h-1.3V404.1z"/>
			<path class="fp-saluda-st3" d="M276,404.1h1.3v7.6H276V404.1z"/>
		</g>
		<g class="fp-saluda-st25">
			<path class="fp-saluda-st3" d="M281.6,405.4h-2.4v-1.2h6.2v1.2H283v6.3h-1.3V405.4z"/>
		</g>
		<g class="fp-saluda-st25">
			<path class="fp-saluda-st3" d="M286.5,408L286.5,408c0-2.2,1.6-3.9,3.9-3.9c1.4,0,2.2,0.5,3,1.2l-0.9,1c-0.6-0.6-1.3-0.9-2.1-0.9
				c-1.4,0-2.5,1.2-2.5,2.7v0c0,1.5,1.1,2.7,2.5,2.7c0.9,0,1.5-0.4,2.2-1l0.9,0.9c-0.8,0.8-1.7,1.3-3.1,1.3
				C288.1,411.9,286.5,410.1,286.5,408z"/>
			<path class="fp-saluda-st3" d="M295.3,404.1h1.3v3.2h3.6v-3.2h1.3v7.6h-1.3v-3.2h-3.6v3.2h-1.3V404.1z"/>
			<path class="fp-saluda-st3" d="M303.9,404.1h5.6v1.2h-4.3v2h3.8v1.2h-3.8v2h4.3v1.2h-5.7V404.1z"/>
			<path class="fp-saluda-st3" d="M311.6,404.1h1.2l4.1,5.2v-5.2h1.3v7.6h-1.1l-4.2-5.4v5.4h-1.3V404.1z"/>
		</g>
		<g class="fp-saluda-st25">
			<path class="fp-saluda-st3" d="M277.3,417.7l-0.8,0.2l-0.2-0.6l1.2-0.4h0.5v4.5h-0.8V417.7z"/>
			<path class="fp-saluda-st3" d="M279.3,420.8l1.5-1.3c0.6-0.5,0.8-0.8,0.8-1.2c0-0.4-0.3-0.7-0.7-0.7s-0.7,0.2-1,0.7l-0.6-0.4
				c0.4-0.6,0.9-0.9,1.7-0.9c0.9,0,1.5,0.5,1.5,1.3v0c0,0.7-0.4,1.1-1.2,1.7l-0.9,0.8h2.1v0.7h-3.3V420.8z"/>
			<path class="fp-saluda-st3" d="M283.4,418.5c0.4-0.1,0.6-0.3,0.6-0.6h-0.3V417h0.9v0.8c0,0.7-0.3,1-1,1.1L283.4,418.5z"/>
			<path class="fp-saluda-st3" d="M289.2,419.2l0.8-1.1h0.8l-1.2,1.7l1.2,1.7H290l-0.8-1.2l-0.8,1.2h-0.8l1.2-1.7l-1.2-1.7h0.8L289.2,419.2z"
				/>
			<path class="fp-saluda-st3" d="M296.6,419.4c-0.2,0.3-0.6,0.5-1.1,0.5c-1,0-1.6-0.6-1.6-1.4v0c0-0.9,0.7-1.6,1.7-1.6c0.6,0,0.9,0.2,1.3,0.5
				c0.3,0.3,0.5,0.8,0.5,1.7v0c0,1.4-0.7,2.4-1.9,2.4c-0.6,0-1.1-0.2-1.4-0.5l0.4-0.6c0.3,0.3,0.6,0.4,1,0.4
				C296.3,420.8,296.6,420,296.6,419.4z M296.5,418.4L296.5,418.4c0-0.5-0.4-0.8-0.9-0.8c-0.6,0-0.9,0.4-0.9,0.8v0
				c0,0.5,0.4,0.8,0.9,0.8C296.2,419.2,296.5,418.9,296.5,418.4z"/>
			<path class="fp-saluda-st3" d="M298.3,418.5c0.4-0.1,0.6-0.3,0.6-0.6h-0.3V417h0.9v0.8c0,0.7-0.3,1-1,1.1L298.3,418.5z"/>
			<path class="fp-saluda-st3" d="M304.8,420.5h-2.3l-0.1-0.6l2.5-3h0.7v2.9h0.6v0.6h-0.6v1h-0.8V420.5z M304.8,419.8V418l-1.5,1.8H304.8z"/>
			<path class="fp-saluda-st3" d="M307.1,418.5c0.4-0.1,0.6-0.3,0.6-0.6h-0.3V417h0.9v0.8c0,0.7-0.3,1-1,1.1L307.1,418.5z M308.6,418.5
				c0.4-0.1,0.6-0.3,0.5-0.6h-0.3V417h0.9v0.8c0,0.7-0.3,1-1,1.1L308.6,418.5z"/>
		</g>
		<g class="fp-saluda-st25">
			<path class="fp-saluda-st3" d="M387,181.8h3.4c0.9,0,1.5,0.2,2,0.7c0.3,0.3,0.5,0.7,0.5,1.3v0c0,0.9-0.5,1.4-1.1,1.7
				c0.9,0.3,1.5,0.8,1.5,1.8v0c0,1.4-1.1,2.1-2.8,2.1H387V181.8z M391.5,184c0-0.6-0.5-1-1.3-1h-1.9v2h1.8
				C391,185,391.5,184.7,391.5,184L391.5,184z M390.4,186.2h-2.1v2.1h2.2c0.9,0,1.5-0.4,1.5-1v0C392,186.5,391.5,186.2,390.4,186.2z
				"/>
			<path class="fp-saluda-st3" d="M395.2,181.8h5.6v1.2h-4.3v2h3.8v1.2h-3.8v2h4.3v1.2h-5.7V181.8z"/>
			<path class="fp-saluda-st3" d="M402.9,181.8h2.8c2.4,0,4,1.6,4,3.8v0c0,2.1-1.6,3.8-4,3.8h-2.8V181.8z M404.3,183.1v5.2h1.5
				c1.6,0,2.6-1.1,2.6-2.6v0c0-1.5-1-2.6-2.6-2.6H404.3z"/>
			<path class="fp-saluda-st3" d="M411.9,181.8h3.4c1,0,1.7,0.3,2.2,0.8c0.4,0.4,0.6,1,0.6,1.6v0c0,1.2-0.7,2-1.8,2.3l2,2.9h-1.6l-1.9-2.6
				h-1.7v2.6h-1.3V181.8z M415.1,185.6c1,0,1.6-0.5,1.6-1.3v0c0-0.8-0.6-1.3-1.6-1.3h-1.9v2.5H415.1z"/>
			<path class="fp-saluda-st3" d="M419.8,185.7L419.8,185.7c0-2.2,1.6-3.9,4-3.9s4,1.8,4,3.9v0c0,2.1-1.6,3.9-4,3.9S419.8,187.8,419.8,185.7z
				 M426.3,185.7L426.3,185.7c0-1.5-1.1-2.7-2.6-2.7s-2.6,1.2-2.6,2.7v0c0,1.5,1.1,2.7,2.6,2.7S426.3,187.1,426.3,185.7z"/>
			<path class="fp-saluda-st3" d="M429.4,185.7L429.4,185.7c0-2.2,1.6-3.9,4-3.9s4,1.8,4,3.9v0c0,2.1-1.6,3.9-4,3.9S429.4,187.8,429.4,185.7z
				 M436,185.7L436,185.7c0-1.5-1.1-2.7-2.6-2.7s-2.6,1.2-2.6,2.7v0c0,1.5,1.1,2.7,2.6,2.7S436,187.1,436,185.7z"/>
			<path class="fp-saluda-st3" d="M439.4,181.8h1.4l2.3,3.6l2.3-3.6h1.4v7.6h-1.3V184l-2.4,3.6h0l-2.4-3.6v5.4h-1.3V181.8z"/>
		</g>
		<g class="fp-saluda-st25">
			<path class="fp-saluda-st3" d="M395.4,197.7l-0.8,0.2l-0.2-0.6l1.2-0.4h0.5v4.5h-0.8V197.7z"/>
			<path class="fp-saluda-st3" d="M398.2,197.7l-0.8,0.2l-0.2-0.6l1.2-0.4h0.5v4.5h-0.8V197.7z"/>
			<path class="fp-saluda-st3" d="M400.2,198.4c0.4-0.1,0.6-0.3,0.6-0.6h-0.3v-0.9h0.9v0.8c0,0.7-0.3,1-1,1.1L400.2,198.4z"/>
			<path class="fp-saluda-st3" d="M406.8,197.6h-2.3v-0.7h3.2v0.6l-2,3.9h-0.9L406.8,197.6z"/>
			<path class="fp-saluda-st3" d="M408.5,198.4c0.4-0.1,0.6-0.3,0.6-0.6h-0.3v-0.9h0.9v0.8c0,0.7-0.3,1-1,1.1L408.5,198.4z M410,198.4
				c0.4-0.1,0.6-0.3,0.5-0.6h-0.3v-0.9h0.9v0.8c0,0.7-0.3,1-1,1.1L410,198.4z"/>
			<path class="fp-saluda-st3" d="M415.8,199.2l0.8-1.1h0.8l-1.2,1.7l1.2,1.7h-0.8l-0.8-1.2l-0.8,1.2h-0.8l1.2-1.7l-1.2-1.7h0.8L415.8,199.2z"
				/>
			<path class="fp-saluda-st3" d="M421.2,197.7l-0.8,0.2l-0.2-0.6l1.2-0.4h0.5v4.5h-0.8V197.7z"/>
			<path class="fp-saluda-st3" d="M423.3,199.2L423.3,199.2c0-1.3,0.8-2.3,2-2.3c1.2,0,2,1,2,2.3v0c0,1.3-0.8,2.3-2,2.3
				S423.3,200.5,423.3,199.2z M426.4,199.2L426.4,199.2c0-0.9-0.5-1.6-1.1-1.6s-1.1,0.7-1.1,1.6v0c0,0.9,0.4,1.6,1.1,1.6
				S426.4,200.1,426.4,199.2z"/>
			<path class="fp-saluda-st3" d="M428.1,198.4c0.4-0.1,0.6-0.3,0.6-0.6h-0.3v-0.9h0.9v0.8c0,0.7-0.3,1-1,1.1L428.1,198.4z"/>
			<path class="fp-saluda-st3" d="M435,199.4c-0.3,0.3-0.6,0.5-1.1,0.5c-1,0-1.6-0.6-1.6-1.4v0c0-0.9,0.7-1.6,1.7-1.6c0.6,0,0.9,0.2,1.3,0.5
				c0.3,0.3,0.5,0.8,0.5,1.7v0c0,1.4-0.7,2.4-1.9,2.4c-0.6,0-1.1-0.2-1.4-0.5l0.4-0.6c0.3,0.3,0.6,0.4,1,0.4
				C434.7,200.8,435,200,435,199.4z M435,198.4L435,198.4c0-0.5-0.4-0.8-0.9-0.8c-0.6,0-0.9,0.4-0.9,0.8v0c0,0.5,0.4,0.8,0.9,0.8
				C434.6,199.2,435,198.8,435,198.4z"/>
			<path class="fp-saluda-st3" d="M436.7,198.4c0.4-0.1,0.6-0.3,0.6-0.6h-0.3v-0.9h0.9v0.8c0,0.7-0.3,1-1,1.1L436.7,198.4z M438.2,198.4
				c0.4-0.1,0.6-0.3,0.5-0.6h-0.3v-0.9h0.9v0.8c0,0.7-0.3,1-1,1.1L438.2,198.4z"/>
		</g>
		<g class="fp-saluda-st25">
			<path class="fp-saluda-st3" d="M116.6,192.6h3.4c0.9,0,1.5,0.2,2,0.7c0.3,0.3,0.5,0.7,0.5,1.3v0c0,0.9-0.5,1.4-1.1,1.7
				c0.9,0.3,1.5,0.8,1.5,1.8v0c0,1.4-1.1,2.1-2.8,2.1h-3.5V192.6z M121.2,194.8c0-0.6-0.5-1-1.3-1h-1.9v2h1.8
				C120.6,195.8,121.2,195.5,121.2,194.8L121.2,194.8z M120.1,196.9h-2.1v2.1h2.2c0.9,0,1.5-0.4,1.5-1v0
				C121.6,197.3,121.1,196.9,120.1,196.9z"/>
			<path class="fp-saluda-st3" d="M124.9,192.6h5.6v1.2h-4.3v2h3.8v1.2h-3.8v2h4.3v1.2h-5.7V192.6z"/>
			<path class="fp-saluda-st3" d="M132.6,192.6h2.8c2.4,0,4,1.6,4,3.8v0c0,2.1-1.6,3.8-4,3.8h-2.8V192.6z M133.9,193.8v5.2h1.5
				c1.6,0,2.6-1.1,2.6-2.6v0c0-1.5-1-2.6-2.6-2.6H133.9z"/>
			<path class="fp-saluda-st3" d="M141.5,192.6h3.4c1,0,1.7,0.3,2.2,0.8c0.4,0.4,0.6,1,0.6,1.6v0c0,1.2-0.7,2-1.8,2.3l2,2.9h-1.6l-1.9-2.6
				h-1.7v2.6h-1.3V192.6z M144.8,196.4c1,0,1.6-0.5,1.6-1.3v0c0-0.8-0.6-1.3-1.6-1.3h-1.9v2.5H144.8z"/>
			<path class="fp-saluda-st3" d="M149.4,196.4L149.4,196.4c0-2.2,1.6-3.9,4-3.9s4,1.8,4,3.9v0c0,2.1-1.6,3.9-4,3.9
				C151.1,200.3,149.4,198.6,149.4,196.4z M156,196.4L156,196.4c0-1.5-1.1-2.7-2.6-2.7c-1.5,0-2.6,1.2-2.6,2.7v0
				c0,1.5,1.1,2.7,2.6,2.7S156,197.9,156,196.4z"/>
			<path class="fp-saluda-st3" d="M159.1,196.4L159.1,196.4c0-2.2,1.6-3.9,4-3.9s4,1.8,4,3.9v0c0,2.1-1.6,3.9-4,3.9
				C160.7,200.3,159.1,198.6,159.1,196.4z M165.6,196.4L165.6,196.4c0-1.5-1.1-2.7-2.6-2.7c-1.5,0-2.6,1.2-2.6,2.7v0
				c0,1.5,1.1,2.7,2.6,2.7S165.6,197.9,165.6,196.4z"/>
			<path class="fp-saluda-st3" d="M169.1,192.6h1.4l2.3,3.6l2.3-3.6h1.4v7.6h-1.3v-5.4l-2.4,3.6h0l-2.4-3.6v5.4h-1.3V192.6z"/>
		</g>
		<g class="fp-saluda-st25">
			<path class="fp-saluda-st3" d="M125.4,208.5l-0.8,0.2l-0.2-0.6l1.2-0.4h0.5v4.5h-0.8V208.5z"/>
			<path class="fp-saluda-st3" d="M128.2,208.5l-0.8,0.2l-0.2-0.6l1.2-0.4h0.5v4.5h-0.8V208.5z"/>
			<path class="fp-saluda-st3" d="M130.1,209.2c0.4-0.1,0.6-0.3,0.6-0.6h-0.3v-0.9h0.9v0.8c0,0.7-0.3,1-1,1.1L130.1,209.2z"/>
			<path class="fp-saluda-st3" d="M135,211.8c-0.3-0.3-0.5-0.8-0.5-1.7v0c0-1.4,0.7-2.4,1.9-2.4c0.6,0,1,0.2,1.4,0.5l-0.4,0.6
				c-0.3-0.2-0.6-0.4-1-0.4c-0.8,0-1.1,0.8-1.1,1.4c0.3-0.3,0.6-0.5,1.1-0.5c0.9,0,1.6,0.5,1.6,1.4v0c0,0.9-0.7,1.5-1.7,1.5
				C135.7,212.3,135.3,212.1,135,211.8z M137.1,210.8L137.1,210.8c0-0.5-0.4-0.8-0.9-0.8c-0.6,0-0.9,0.4-0.9,0.8v0
				c0,0.5,0.4,0.8,0.9,0.8C136.8,211.6,137.1,211.2,137.1,210.8z"/>
			<path class="fp-saluda-st3" d="M138.8,209.2c0.4-0.1,0.6-0.3,0.6-0.6H139v-0.9h0.9v0.8c0,0.7-0.3,1-1,1.1L138.8,209.2z M140.3,209.2
				c0.4-0.1,0.6-0.3,0.5-0.6h-0.3v-0.9h0.9v0.8c0,0.7-0.3,1-1,1.1L140.3,209.2z"/>
			<path class="fp-saluda-st3" d="M146.1,209.9l0.8-1.1h0.8l-1.2,1.7l1.2,1.7h-0.8L146,211l-0.8,1.2h-0.8l1.2-1.7l-1.2-1.7h0.8L146.1,209.9z"
				/>
			<path class="fp-saluda-st3" d="M151.5,208.5l-0.8,0.2l-0.2-0.6l1.2-0.4h0.5v4.5h-0.8V208.5z"/>
			<path class="fp-saluda-st3" d="M153.5,211.6l1.5-1.3c0.6-0.5,0.8-0.8,0.8-1.2c0-0.4-0.3-0.7-0.7-0.7s-0.7,0.2-1,0.7l-0.6-0.4
				c0.4-0.6,0.9-0.9,1.7-0.9c0.9,0,1.5,0.5,1.5,1.3v0c0,0.7-0.4,1.1-1.2,1.7l-0.9,0.8h2.1v0.7h-3.3V211.6z"/>
			<path class="fp-saluda-st3" d="M157.6,209.2c0.4-0.1,0.6-0.3,0.6-0.6h-0.3v-0.9h0.9v0.8c0,0.7-0.3,1-1,1.1L157.6,209.2z"/>
			<path class="fp-saluda-st3" d="M161.8,211.5l0.6-0.5c0.3,0.4,0.7,0.6,1.2,0.6c0.4,0,0.8-0.3,0.8-0.7v0c0-0.4-0.4-0.7-1-0.7h-0.4l-0.1-0.5
				l1.2-1.3h-1.9v-0.7h3v0.6l-1.3,1.3c0.7,0.1,1.3,0.4,1.3,1.3v0c0,0.8-0.6,1.4-1.6,1.4C162.8,212.3,162.2,211.9,161.8,211.5z"/>
			<path class="fp-saluda-st3" d="M166,209.2c0.4-0.1,0.6-0.3,0.6-0.6h-0.3v-0.9h0.9v0.8c0,0.7-0.3,1-1,1.1L166,209.2z M167.5,209.2
				c0.4-0.1,0.6-0.3,0.5-0.6h-0.3v-0.9h0.9v0.8c0,0.7-0.3,1-1,1.1L167.5,209.2z"/>
		</g>
		<rect x="381.2" y="429.1" class="fp-saluda-st9" width="24" height="26.7"/>
		<line class="fp-saluda-st10" x1="405.3" y1="452.9" x2="381.3" y2="452.9"/>
		<rect x="381.3" y="368.7" class="fp-saluda-st9" width="24" height="26.7"/>
		<line class="fp-saluda-st10" x1="381.2" y1="371.6" x2="405.2" y2="371.6"/>
		<rect x="381.7" y="406.9" class="fp-saluda-st24" width="23.1" height="6.1"/>
		<g class="fp-saluda-st25">
			<path class="fp-saluda-st3" d="M383.9,408.6h0.4v2.3h1.3v0.4h-1.8V408.6z"/>
		</g>
		<g class="fp-saluda-st25">
			<path class="fp-saluda-st3" d="M387.2,408.6h0.4l1.1,2.7h-0.5l-0.3-0.7h-1.2l-0.3,0.7h-0.5L387.2,408.6z M387.9,410.2l-0.4-1.1l-0.4,1.1
				H387.9z"/>
		</g>
		<g class="fp-saluda-st25">
			<path class="fp-saluda-st3" d="M389.2,410.2v-1.6h0.4v1.5c0,0.5,0.2,0.8,0.6,0.8c0.4,0,0.6-0.3,0.6-0.7v-1.6h0.4v1.5c0,0.8-0.4,1.2-1.1,1.2
				C389.6,411.4,389.2,410.9,389.2,410.2z"/>
			<path class="fp-saluda-st3" d="M392.1,408.6h0.4l1.4,1.9v-1.9h0.4v2.7H394l-1.4-1.9v1.9h-0.4V408.6z"/>
			<path class="fp-saluda-st3" d="M395.2,408.6h0.9c0.8,0,1.4,0.6,1.4,1.3v0c0,0.8-0.6,1.4-1.4,1.4h-0.9V408.6z M395.6,409v1.8h0.5
				c0.5,0,0.9-0.4,0.9-0.9v0c0-0.5-0.3-0.9-0.9-0.9H395.6z"/>
		</g>
		<g class="fp-saluda-st25">
			<path class="fp-saluda-st3" d="M398.1,408.6h1.1c0.3,0,0.6,0.1,0.7,0.3c0.1,0.1,0.2,0.3,0.2,0.6v0c0,0.4-0.3,0.7-0.6,0.8l0.7,1h-0.5
				l-0.6-0.9h-0.6v0.9h-0.4V408.6z M399.2,409.9c0.3,0,0.5-0.2,0.5-0.5v0c0-0.3-0.2-0.4-0.5-0.4h-0.7v0.9H399.2z"/>
		</g>
		<g class="fp-saluda-st25">
			<path class="fp-saluda-st3" d="M401.6,410.2l-1-1.6h0.5l0.7,1.2l0.7-1.2h0.5l-1,1.6v1.1h-0.5V410.2z"/>
		</g>
		<rect x="0.5" y="0.5" class="fp-saluda-st29" width="557.3" height="557.3"/>
	</g>
</g>
</svg>
