<?xml version="1.0" encoding="utf-8"?>
<!-- Generator: Adobe Illustrator 21.1.0, SVG Export Plug-In . SVG Version: 6.00 Build 0)  -->
<svg version="1.1" id="Layer_1" xmlns="http://www.w3.org/2000/svg" xmlns:xlink="http://www.w3.org/1999/xlink" x="0px" y="0px"
	 viewBox="0 0 558.3 558.3" style="enable-background:new 0 0 558.3 558.3;" xml:space="preserve">
<style type="text/css">
	.fp-tyger-st0{fill:none;stroke:#A6A8AB;stroke-width:0.27;stroke-miterlimit:10;}
	.fp-tyger-st1{fill:#E4E9E4;}
	.fp-tyger-st2{fill:#E4E9E4;stroke:#32553B;stroke-width:0.27;stroke-miterlimit:10;}
	.fp-tyger-st3{fill:none;stroke:#32553B;stroke-width:0.27;stroke-miterlimit:10;}
	.fp-tyger-st4{fill:none;stroke:#799900;stroke-width:0.16;stroke-miterlimit:10;}
	.fp-tyger-st5{fill:#FFFFFF;stroke:#62A044;stroke-width:0.16;stroke-miterlimit:10;}
	.fp-tyger-st6{fill:#F5F7F5;}
	.fp-tyger-st7{enable-background:new    ;}
	.fp-tyger-st8{fill:#32553B;}
	.fp-tyger-st9{fill:none;stroke:#E4E9E4;stroke-width:7.59;stroke-linejoin:round;}
	.fp-tyger-st10{fill:#C8D0C9;stroke:#32553B;stroke-width:0.24;stroke-miterlimit:10;}
	.fp-tyger-st11{fill:#C8D0C9;stroke:#32553B;stroke-width:0.21;stroke-miterlimit:10;}
	.fp-tyger-st12{fill:#E4E9E4;stroke:#32553B;stroke-width:0.24;stroke-miterlimit:10;}
	.fp-tyger-st13{fill:#C8D0C9;stroke:#32553B;stroke-width:0.27;stroke-miterlimit:10;}
	.fp-tyger-st14{fill:none;stroke:#32553B;stroke-width:7.59;stroke-linejoin:round;}
	.fp-tyger-st15{fill:none;stroke:#32553B;stroke-width:4.33;stroke-linejoin:round;}
	.fp-tyger-st16{fill:none;stroke:#32553B;stroke-width:4.33;stroke-miterlimit:10;}
	.fp-tyger-st17{fill:none;stroke:#32553B;stroke-width:0.24;stroke-miterlimit:10;}
	.fp-tyger-st18{fill:none;stroke:#799900;stroke-width:0.3;stroke-miterlimit:10;}
	.fp-tyger-st19{fill:#FFFFFF;stroke:#62A044;stroke-width:0.3;stroke-miterlimit:10;}
	.fp-tyger-st20{fill:none;stroke:#32553B;stroke-width:0.84;stroke-miterlimit:10;}
	.fp-tyger-st21{fill:#FFFFFF;stroke:#62A044;stroke-width:0.13;stroke-miterlimit:10;}
	.fp-tyger-st22{fill:none;stroke:#799900;stroke-width:0.13;stroke-miterlimit:10;}
	.fp-tyger-st23{fill:none;stroke:#32553B;stroke-width:0.21;stroke-miterlimit:10;}
	.fp-tyger-st24{fill:#C8D0C9;stroke:#32553B;stroke-width:0.2;stroke-miterlimit:10;}
	.fp-tyger-st25{fill:none;stroke:#F5F7F5;stroke-miterlimit:10;}
</style>
<title>fp_tyger</title>
<g id="Layer_2">
	<g id="DESIGN">
		<line class="fp-tyger-st0" x1="217.7" y1="165.5" x2="347.4" y2="165.5"/>
		<line class="fp-tyger-st0" x1="217.7" y1="179.8" x2="347.2" y2="179.8"/>
		<line class="fp-tyger-st0" x1="217.7" y1="194.1" x2="346.9" y2="194.1"/>
		<line class="fp-tyger-st0" x1="217.7" y1="208.3" x2="347.2" y2="208.3"/>
		<line class="fp-tyger-st0" x1="217.7" y1="222.5" x2="347.2" y2="222.5"/>
		<line class="fp-tyger-st0" x1="217.7" y1="236.7" x2="347.2" y2="236.7"/>
		<line class="fp-tyger-st0" x1="217.7" y1="251" x2="347.2" y2="251"/>
		<line class="fp-tyger-st0" x1="217.7" y1="265.2" x2="347.2" y2="265.2"/>
		<line class="fp-tyger-st0" x1="217.7" y1="279.4" x2="347.2" y2="279.4"/>
		<line class="fp-tyger-st0" x1="198.1" y1="293.6" x2="405" y2="293.6"/>
		<line class="fp-tyger-st0" x1="193.8" y1="307.9" x2="405" y2="307.9"/>
		<line class="fp-tyger-st0" x1="193.8" y1="322.1" x2="405" y2="322.1"/>
		<line class="fp-tyger-st0" x1="193.8" y1="336.3" x2="405" y2="336.3"/>
		<line class="fp-tyger-st0" x1="361.6" y1="350.5" x2="405.5" y2="350.5"/>
		<line class="fp-tyger-st0" x1="101.9" y1="350.5" x2="349.1" y2="350.5"/>
		<line class="fp-tyger-st0" x1="101.9" y1="364.8" x2="463.7" y2="364.8"/>
		<line class="fp-tyger-st0" x1="101.9" y1="379" x2="463.7" y2="379"/>
		<line class="fp-tyger-st0" x1="101.9" y1="393.2" x2="463.7" y2="393.2"/>
		<line class="fp-tyger-st0" x1="101.9" y1="407.5" x2="463.7" y2="407.5"/>
		<line class="fp-tyger-st0" x1="101.9" y1="421.7" x2="463.7" y2="421.7"/>
		<line class="fp-tyger-st0" x1="101.9" y1="435.9" x2="463.7" y2="435.9"/>
		<line class="fp-tyger-st0" x1="307" y1="450.1" x2="463.7" y2="450.1"/>
		<line class="fp-tyger-st0" x1="101.9" y1="450.1" x2="290.1" y2="450.1"/>
		<line class="fp-tyger-st0" x1="101.9" y1="464.4" x2="463.7" y2="464.4"/>
		<polygon class="fp-tyger-st1" points="218.2,123.2 101.9,123.2 101.9,265.7 101.9,290.4 101.9,340.1 198.1,340.1 198.1,290.4 218.2,290.4 
					"/>
		<polygon class="fp-tyger-st1" points="463.7,123.2 347.3,123.2 347.3,290.4 405,290.4 405,369.8 463.6,369.8 463.6,290.4 463.7,290.4 		"/>
		<rect x="289.2" y="446.5" class="fp-tyger-st2" width="2.3" height="1.3"/>
		<rect x="305.5" y="446.5" class="fp-tyger-st2" width="3.7" height="1.3"/>
		<line class="fp-tyger-st3" x1="305.8" y1="449.5" x2="291" y2="449.5"/>
		<line class="fp-tyger-st3" x1="305.5" y1="447.1" x2="291.5" y2="447.1"/>
		<polyline class="fp-tyger-st3" points="305.8,447.8 305.8,466.3 291,466.3 291,447.8 		"/>
		<path class="fp-tyger-st4" d="M305.5,445.8c-0.1-3.4-1.3-6.7-3.6-9.2"/>
		
			<rect x="289.6" y="440.8" transform="matrix(0.7071 -0.7071 0.7071 0.7071 -225.0989 338.9724)" class="fp-tyger-st5" width="14" height="0.8"/>
		<rect x="292.1" y="455.2" class="fp-tyger-st6" width="12.9" height="4.6"/>
		<g class="fp-tyger-st7">
			<path class="fp-tyger-st8" d="M292.6,456.4h0.8c0.5,0,0.7,0.3,0.7,0.7v0c0,0.4-0.4,0.7-0.8,0.7h-0.4v0.6h-0.3V456.4z M293.3,457.4
				c0.3,0,0.4-0.1,0.4-0.4v0c0-0.2-0.2-0.4-0.4-0.4h-0.4v0.7H293.3z"/>
		</g>
		<g class="fp-tyger-st7">
			<path class="fp-tyger-st8" d="M295.1,456.4h0.3l0.9,2h-0.4l-0.2-0.5h-0.9l-0.2,0.5h-0.4L295.1,456.4z M295.6,457.6l-0.3-0.8l-0.3,0.8
				H295.6z"/>
			<path class="fp-tyger-st8" d="M296.7,456.4h0.3l1.1,1.4v-1.4h0.3v2h-0.3l-1.1-1.4v1.4h-0.3V456.4z"/>
			<path class="fp-tyger-st8" d="M299.5,456.7h-0.6v-0.3h1.6v0.3h-0.6v1.6h-0.3V456.7z"/>
		</g>
		<g class="fp-tyger-st7">
			<path class="fp-tyger-st8" d="M301,456.4h0.9c0.2,0,0.4,0.1,0.6,0.2c0.1,0.1,0.2,0.3,0.2,0.4v0c0,0.3-0.2,0.5-0.5,0.6l0.5,0.7h-0.4
				l-0.5-0.7h-0.4v0.7H301V456.4z M301.8,457.4c0.2,0,0.4-0.1,0.4-0.3v0c0-0.2-0.2-0.3-0.4-0.3h-0.5v0.7H301.8z"/>
		</g>
		<g class="fp-tyger-st7">
			<path class="fp-tyger-st8" d="M303.6,457.6l-0.8-1.2h0.4l0.5,0.9l0.6-0.9h0.4l-0.8,1.2v0.8h-0.3V457.6z"/>
		</g>
		<line class="fp-tyger-st9" x1="324.9" y1="153.6" x2="300.3" y2="153.6"/>
		<rect x="300.3" y="153.3" class="fp-tyger-st8" width="24.6" height="0.6"/>
		<line class="fp-tyger-st9" x1="261" y1="153.6" x2="236.4" y2="153.6"/>
		<rect x="236.4" y="153.3" class="fp-tyger-st8" width="24.6" height="0.6"/>
		<rect x="362.9" y="411.5" class="fp-tyger-st10" width="31.8" height="56.5"/>
		<path class="fp-tyger-st10" d="M379.2,415.4c0,0-12.4-0.2-12.4,4.7v41.6c0,0-0.2,3.9,3.6,3.9H388c3.8,0,3.6-3.9,3.6-3.9v-41.6
			C391.6,415.2,379.3,415.4,379.2,415.4L379.2,415.4z"/>
		<path class="fp-tyger-st10" d="M379.3,463.9c0.8,0,1.7,0.3,2.3,0.8l-2.2,2.5h-0.1l-2.2-2.5C377.6,464.2,378.5,463.9,379.3,463.9"/>
		<rect x="360.8" y="466.3" class="fp-tyger-st8" width="35.6" height="8.3"/>
		<rect x="106" y="438.4" class="fp-tyger-st10" width="53.9" height="30.4"/>
		<path class="fp-tyger-st10" d="M156.3,454c0,0,0.2-11.8-4.5-11.8H112c0,0-3.8-0.2-3.8,3.5v8.3l0,0v8.4c0,3.6,3.8,3.5,3.8,3.5h39.7
			C156.4,465.8,156.2,454,156.3,454L156.3,454z"/>
		<path class="fp-tyger-st10" d="M110,454.1c0,0.8-0.3,1.6-0.8,2.2l-2.4-2.1V454l2.4-2.1C109.7,452.5,110,453.3,110,454.1"/>
		<rect x="99.7" y="436.4" class="fp-tyger-st8" width="7.9" height="34"/>
		<rect x="441.9" y="388.5" class="fp-tyger-st10" width="21" height="47.4"/>
		<path class="fp-tyger-st10" d="M443.9,418.8v-13.2c0-1.2,1-2.2,2.2-2.2h8.7c1.2,0,2.2,1,2.2,2.2v13.2c0,1.2-1,2.2-2.2,2.2h-8.7
			C444.9,420.9,443.9,420,443.9,418.8z"/>
		<circle class="fp-tyger-st10" cx="452.3" cy="412.2" r="1.5"/>
		<rect x="99.3" y="358.2" class="fp-tyger-st10" width="21" height="47.4"/>
		<path class="fp-tyger-st10" d="M118.3,375.3v13.1c0,1.2-1,2.2-2.2,2.2h-8.7c-1.2,0-2.2-1-2.2-2.2v-13.1c0-1.2,1-2.2,2.2-2.2h8.7
			C117.4,373.1,118.3,374.1,118.3,375.3z"/>
		<circle class="fp-tyger-st10" cx="109.9" cy="381.9" r="1.5"/>
		<polyline class="fp-tyger-st11" points="462.2,464.1 457.4,464.1 457.4,441.5 462.2,441.5 		"/>
		<path class="fp-tyger-st11" d="M446.4,457.8c0.5-0.2,1-0.3,1.5-0.3h2.9c0.5,0,0.9,0.3,0.9,0.8c0,0,0,0.1,0,0.1v-11c0,0.5-0.3,0.9-0.8,0.9
			c0,0-0.1,0-0.1,0h-2.9c-0.5,0-1-0.1-1.5-0.3"/>
		<ellipse class="fp-tyger-st11" cx="441.1" cy="452.8" rx="8.6" ry="6.4"/>
		<rect x="451.7" y="443.2" class="fp-tyger-st11" width="6.2" height="19.2"/>
		<polyline class="fp-tyger-st11" points="102.6,409.7 107.3,409.7 107.3,432.3 102.6,432.3 		"/>
		<path class="fp-tyger-st11" d="M118.3,416.1c-0.5,0.2-1,0.3-1.5,0.3H114c-0.5,0-0.9-0.3-0.9-0.8c0,0,0-0.1,0-0.1v11c0-0.5,0.3-0.9,0.8-0.9
			c0,0,0.1,0,0.1,0h2.8c0.5,0,1,0.1,1.5,0.3"/>
		<ellipse class="fp-tyger-st11" cx="123.6" cy="421" rx="8.6" ry="6.4"/>
		<rect x="106.8" y="411.4" class="fp-tyger-st11" width="6.2" height="19.2"/>
		<polygon class="fp-tyger-st12" points="361.6,446.5 361.6,344.5 340,344.5 337.9,344.5 263.7,344.5 263.7,382.7 337.9,382.7 337.9,446.5 
			307,446.5 307,472 337.9,472 361.6,472 361.7,472 361.7,446.5 		"/>
		<polygon class="fp-tyger-st13" points="336.7,433.9 335.8,433.9 335.8,405.3 361.1,405.3 361.1,433.9 		"/>
		<circle class="fp-tyger-st13" cx="350.7" cy="411.5" r="4.3"/>
		<circle class="fp-tyger-st13" cx="341.5" cy="411.5" r="3.3"/>
		<circle class="fp-tyger-st13" cx="341.5" cy="427.7" r="2.8"/>
		<circle class="fp-tyger-st13" cx="350.7" cy="427.7" r="2.8"/>
		<line class="fp-tyger-st3" x1="355.6" y1="405.3" x2="355.6" y2="433.9"/>
		<path class="fp-tyger-st13" d="M315.2,365.1v13.7c0,1.3-1,2.3-2.3,2.3h-23.8c-1.3,0-2.3-1-2.3-2.3v-13.7c0-1.3,1-2.3,2.3-2.3h23.8
			C314.2,362.8,315.2,363.8,315.2,365.1z"/>
		<circle class="fp-tyger-st13" cx="301" cy="372" r="1.6"/>
		<line class="fp-tyger-st14" x1="300.3" y1="153.6" x2="296" y2="153.6"/>
		<polyline class="fp-tyger-st14" points="235.5,472 463.8,472 463.8,123.2 347.3,123.2 347.3,153.6 324.9,153.6 		"/>
		<polyline class="fp-tyger-st14" points="236.4,153.6 218.4,153.6 218.4,123.2 101.9,123.2 101.9,472 204.3,472 		"/>
		<line class="fp-tyger-st14" x1="265.3" y1="153.6" x2="261" y2="153.6"/>
		<polyline class="fp-tyger-st15" points="218.4,123.2 218.4,86.9 347.3,86.9 347.3,123.2 		"/>
		<line class="fp-tyger-st16" x1="399.1" y1="290.4" x2="405" y2="290.4"/>
		<polyline class="fp-tyger-st16" points="347.3,153.7 347.3,290.4 369,290.4 		"/>
		<polyline class="fp-tyger-st16" points="218.4,153.7 218.4,290.4 198.1,290.4 198.1,299.1 		"/>
		<polyline class="fp-tyger-st16" points="411.4,257.8 405,257.8 405,369.8 		"/>
		<line class="fp-tyger-st16" x1="463.8" y1="257.8" x2="441.5" y2="257.8"/>
		<line class="fp-tyger-st16" x1="368.9" y1="369.8" x2="361.5" y2="369.8"/>
		<line class="fp-tyger-st16" x1="463.8" y1="369.8" x2="399" y2="369.8"/>
		<line class="fp-tyger-st16" x1="361.5" y1="327.7" x2="361.5" y2="472"/>
		<polyline class="fp-tyger-st16" points="361.3,358.8 349.1,358.8 349.1,346.6 361.3,346.6 		"/>
		<line class="fp-tyger-st16" x1="361.5" y1="294.7" x2="361.5" y2="290.5"/>
		<line class="fp-tyger-st16" x1="361.6" y1="409.7" x2="398.2" y2="409.7"/>
		<line class="fp-tyger-st16" x1="198.1" y1="330.3" x2="198.1" y2="395.5"/>
		<line class="fp-tyger-st16" x1="198.1" y1="426.5" x2="198.1" y2="434.7"/>
		<line class="fp-tyger-st16" x1="198.1" y1="466.1" x2="198.1" y2="472"/>
		<polyline class="fp-tyger-st16" points="198.1,388.3 161.8,388.3 161.8,472 		"/>
		<line class="fp-tyger-st16" x1="198.1" y1="430.8" x2="161.8" y2="430.8"/>
		<line class="fp-tyger-st16" x1="193.8" y1="340.1" x2="198.1" y2="340.1"/>
		<line class="fp-tyger-st16" x1="101.9" y1="340.1" x2="162.4" y2="340.1"/>
		<polyline class="fp-tyger-st16" points="152.2,258.1 156.5,258.1 156.5,340.1 		"/>
		<line class="fp-tyger-st16" x1="121.2" y1="258.1" x2="101.9" y2="258.1"/>
		<polyline class="fp-tyger-st16" points="198.1,344.8 223.3,344.8 223.3,354.7 		"/>
		<polyline class="fp-tyger-st16" points="223.3,376.5 223.3,387.5 198.1,387.5 		"/>
		<line class="fp-tyger-st16" x1="256.2" y1="472.5" x2="256.2" y2="446"/>
		<line class="fp-tyger-st9" x1="189.4" y1="123.2" x2="127.2" y2="123.2"/>
		<rect x="127.2" y="122.9" class="fp-tyger-st8" width="62.2" height="0.7"/>
		<rect x="127.2" y="120.3" class="fp-tyger-st8" width="62.2" height="0.7"/>
		<rect x="127.2" y="125.4" class="fp-tyger-st8" width="62.2" height="0.7"/>
		<rect x="144.3" y="120.7" class="fp-tyger-st8" width="0.7" height="5.1"/>
		<line class="fp-tyger-st9" x1="372.4" y1="123.2" x2="434.7" y2="123.2"/>
		<rect x="372.4" y="122.9" class="fp-tyger-st8" width="62.2" height="0.7"/>
		<rect x="372.4" y="120.3" class="fp-tyger-st8" width="62.2" height="0.7"/>
		<rect x="372.4" y="125.4" class="fp-tyger-st8" width="62.2" height="0.7"/>
		<rect x="416.8" y="120.7" class="fp-tyger-st8" width="0.7" height="5.1"/>
		<rect x="259.4" y="438.7" class="fp-tyger-st13" width="30.6" height="28.5"/>
		<line class="fp-tyger-st17" x1="263.7" y1="355.6" x2="348.9" y2="355.6"/>
		<path class="fp-tyger-st18" d="M235.9,467c0-5,0.2-12.8-9.3-22.2"/>
		
			<rect x="199.9" y="455.8" transform="matrix(0.7071 -0.7071 0.7071 0.7071 -259.683 286.4003)" class="fp-tyger-st19" width="32" height="1.7"/>
		<path class="fp-tyger-st18" d="M201.8,434.8c5,0,12.7-0.2,22,9.2"/>
		
			<rect x="196.1" y="453.9" transform="matrix(0.7071 -0.7071 0.7071 0.7071 -259.4252 283.0659)" class="fp-tyger-st19" width="31.7" height="1.7"/>
		<path class="fp-tyger-st18" d="M201.8,395.3c5,0,12.7-0.2,22,9.2"/>
		
			<rect x="196.1" y="414.3" transform="matrix(0.7071 -0.7071 0.7071 0.7071 -231.456 271.4832)" class="fp-tyger-st19" width="31.7" height="1.7"/>
		<rect x="226" y="354.3" class="fp-tyger-st19" width="20.7" height="1.1"/>
		<path class="fp-tyger-st18" d="M246.7,355.4c0,11.5-9.4,20.9-20.9,20.9"/>
		<rect x="192.2" y="342.9" class="fp-tyger-st19" width="1.5" height="29.1"/>
		<path class="fp-tyger-st18" d="M192.2,372c-15.2,0-29.4-12.3-29.4-29.4"/>
		<rect x="368.1" y="372.5" class="fp-tyger-st19" width="1.5" height="29.1"/>
		<path class="fp-tyger-st18" d="M369.6,401.7c15.2,0,29.4-12.3,29.4-29.4"/>
		<rect x="166" y="328.9" class="fp-tyger-st19" width="29.1" height="1.5"/>
		<path class="fp-tyger-st18" d="M166,328.9c0-15.2,12.3-29.4,29.4-29.4"/>
		<rect x="398.1" y="258" class="fp-tyger-st19" width="1.5" height="29.1"/>
		<path class="fp-tyger-st18" d="M398.1,258c-15.2,0-29.4,12.3-29.4,29.4"/>
		<rect x="410.6" y="261" class="fp-tyger-st19" width="1.5" height="29.1"/>
		<path class="fp-tyger-st18" d="M412.2,290.2c15.2,0,29.4-12.3,29.4-29.4"/>
		<rect x="150.6" y="261" class="fp-tyger-st19" width="1.5" height="29.1"/>
		<path class="fp-tyger-st18" d="M150.6,290.2c-15.2,0-29.4-12.3-29.4-29.4"/>
		<rect x="294.7" y="119.9" class="fp-tyger-st19" width="1.5" height="29.1"/>
		<path class="fp-tyger-st18" d="M294.7,119.9c-15.2,0-29.4,12.3-29.4,29.4"/>
		<line class="fp-tyger-st18" x1="294.7" y1="124.8" x2="296.2" y2="124.8"/>
		<line class="fp-tyger-st18" x1="294.7" y1="144.1" x2="296.2" y2="144.1"/>
		<line class="fp-tyger-st18" x1="295.5" y1="124.8" x2="295.5" y2="144.1"/>
		<polyline class="fp-tyger-st20" points="460.3,387.4 441.9,387.4 441.9,386 		"/>
		<polyline class="fp-tyger-st20" points="460.3,373.1 441.9,373.1 441.9,374.5 		"/>
		
			<rect x="430.9" y="378.3" transform="matrix(0.7071 -0.7071 0.7071 0.7071 -139.8008 419.8483)" class="fp-tyger-st21" width="11.9" height="0.7"/>
		<path class="fp-tyger-st22" d="M440.8,386.2c-2.9-0.1-5.7-1.2-7.9-3.1"/>
		<polyline class="fp-tyger-st20" points="101.2,343 119.7,343 119.7,344.5 		"/>
		<polyline class="fp-tyger-st20" points="101.2,357.3 119.7,357.3 119.7,355.9 		"/>
		
			<rect x="124.3" y="342.7" transform="matrix(0.7071 -0.7071 0.7071 0.7071 -210.027 190.2307)" class="fp-tyger-st21" width="0.7" height="11.9"/>
		<path class="fp-tyger-st22" d="M120.7,356.2c2.9-0.1,5.7-1.2,7.9-3.1"/>
		<rect x="168.4" y="399.4" class="fp-tyger-st11" width="26.7" height="24"/>
		<line class="fp-tyger-st23" x1="171.3" y1="423.4" x2="171.3" y2="399.4"/>
		<rect x="402.1" y="411" class="fp-tyger-st6" width="37.8" height="17.2"/>
		<rect x="124.7" y="363.7" class="fp-tyger-st6" width="37.8" height="17.2"/>
		<rect x="253.2" y="212.6" class="fp-tyger-st6" width="59" height="21.8"/>
		<rect x="252.8" y="396.7" class="fp-tyger-st6" width="59" height="21.8"/>
		<rect x="208.4" y="357" class="fp-tyger-st6" width="7.1" height="17.6"/>
		<g class="fp-tyger-st7">
			<path class="fp-tyger-st8" d="M211.9,372.2L211.9,372.2c-0.9,0-1.6-0.6-1.6-1.6c0-0.6,0.2-0.9,0.5-1.2l0.4,0.3c-0.2,0.2-0.4,0.5-0.4,0.8
				c0,0.6,0.5,1,1.1,1h0c0.6,0,1.1-0.4,1.1-1c0-0.4-0.1-0.6-0.4-0.9l0.3-0.3c0.3,0.3,0.5,0.7,0.5,1.2
				C213.5,371.5,212.8,372.2,211.9,372.2z"/>
		</g>
		<g class="fp-tyger-st7">
			<path class="fp-tyger-st8" d="M211.9,368.9L211.9,368.9c-0.9,0-1.6-0.7-1.6-1.6s0.7-1.6,1.6-1.6h0c0.9,0,1.6,0.7,1.6,1.6
				S212.8,368.9,211.9,368.9z M211.9,366.3L211.9,366.3c-0.6,0-1.1,0.4-1.1,1c0,0.6,0.5,1,1.1,1h0c0.6,0,1.1-0.4,1.1-1
				C213,366.7,212.5,366.3,211.9,366.3z"/>
		</g>
		<g class="fp-tyger-st7">
			<path class="fp-tyger-st8" d="M210.4,364v-0.5l3.1-1.3v0.6l-0.7,0.3v1.4l0.7,0.3v0.5L210.4,364z M212.2,363.3l-1.2,0.5l1.2,0.5V363.3z"/>
		</g>
		<g class="fp-tyger-st7">
			<path class="fp-tyger-st8" d="M210.9,361.2v1h-0.5v-2.5h0.5v1h2.5v0.5H210.9z"/>
		</g>
		<g class="fp-tyger-st7">
			<path class="fp-tyger-st8" d="M130.1,184.1h3.4c0.9,0,1.5,0.2,2,0.7c0.3,0.3,0.5,0.7,0.5,1.3v0c0,0.9-0.5,1.4-1.1,1.7
				c0.9,0.3,1.5,0.8,1.5,1.8v0c0,1.4-1.1,2.1-2.8,2.1h-3.5V184.1z M134.7,186.3c0-0.6-0.5-1-1.3-1h-1.9v2h1.8
				C134.1,187.3,134.7,187,134.7,186.3L134.7,186.3z M133.5,188.4h-2.1v2.1h2.2c0.9,0,1.5-0.4,1.5-1v0
				C135.1,188.8,134.6,188.4,133.5,188.4z"/>
			<path class="fp-tyger-st8" d="M138.4,184.1h5.6v1.2h-4.3v2h3.8v1.2h-3.8v2h4.3v1.2h-5.7V184.1z"/>
			<path class="fp-tyger-st8" d="M146.1,184.1h2.8c2.4,0,4,1.6,4,3.8v0c0,2.1-1.6,3.8-4,3.8h-2.8V184.1z M147.4,185.3v5.2h1.5
				c1.6,0,2.6-1.1,2.6-2.6v0c0-1.5-1-2.6-2.6-2.6H147.4z"/>
			<path class="fp-tyger-st8" d="M155,184.1h3.4c1,0,1.7,0.3,2.2,0.8c0.4,0.4,0.6,1,0.6,1.6v0c0,1.2-0.7,2-1.8,2.3l2,2.9h-1.6l-1.9-2.6h-1.7
				v2.6H155V184.1z M158.2,187.9c1,0,1.6-0.5,1.6-1.3v0c0-0.8-0.6-1.3-1.6-1.3h-1.9v2.5H158.2z"/>
			<path class="fp-tyger-st8" d="M162.9,187.9L162.9,187.9c0-2.2,1.6-3.9,4-3.9s4,1.8,4,3.9v0c0,2.1-1.6,3.9-4,3.9
				C164.5,191.8,162.9,190.1,162.9,187.9z M169.4,187.9L169.4,187.9c0-1.5-1.1-2.7-2.6-2.7c-1.5,0-2.6,1.2-2.6,2.7v0
				c0,1.5,1.1,2.7,2.6,2.7S169.4,189.4,169.4,187.9z"/>
			<path class="fp-tyger-st8" d="M172.5,187.9L172.5,187.9c0-2.2,1.6-3.9,4-3.9s4,1.8,4,3.9v0c0,2.1-1.6,3.9-4,3.9
				C174.2,191.8,172.5,190.1,172.5,187.9z M179.1,187.9L179.1,187.9c0-1.5-1.1-2.7-2.6-2.7c-1.5,0-2.6,1.2-2.6,2.7v0
				c0,1.5,1.1,2.7,2.6,2.7S179.1,189.4,179.1,187.9z"/>
			<path class="fp-tyger-st8" d="M182.5,184.1h1.4l2.3,3.6l2.3-3.6h1.4v7.6h-1.3v-5.4l-2.4,3.6h0l-2.4-3.6v5.4h-1.3V184.1z"/>
		</g>
		<g class="fp-tyger-st7">
			<path class="fp-tyger-st8" d="M138.7,200l-0.8,0.2l-0.2-0.6l1.2-0.4h0.5v4.5h-0.8V200z"/>
			<path class="fp-tyger-st8" d="M141.5,200l-0.8,0.2l-0.2-0.6l1.2-0.4h0.5v4.5h-0.8V200z"/>
			<path class="fp-tyger-st8" d="M143.4,200.7c0.4-0.1,0.6-0.3,0.6-0.6h-0.3v-0.9h0.9v0.8c0,0.7-0.3,1-1,1.1L143.4,200.7z"/>
			<path class="fp-tyger-st8" d="M150,202.7h-2.3l-0.1-0.6l2.5-3h0.7v2.9h0.6v0.6h-0.6v1H150V202.7z M150,202v-1.8l-1.5,1.8H150z"/>
			<path class="fp-tyger-st8" d="M152.2,200.7c0.4-0.1,0.6-0.3,0.6-0.6h-0.3v-0.9h0.9v0.8c0,0.7-0.3,1-1,1.1L152.2,200.7z M153.7,200.7
				c0.4-0.1,0.6-0.3,0.5-0.6h-0.3v-0.9h0.9v0.8c0,0.7-0.3,1-1,1.1L153.7,200.7z"/>
			<path class="fp-tyger-st8" d="M159.5,201.4l0.8-1.1h0.8l-1.2,1.7l1.2,1.7h-0.8l-0.8-1.2l-0.8,1.2h-0.8l1.2-1.7l-1.2-1.7h0.8L159.5,201.4z"
				/>
			<path class="fp-tyger-st8" d="M164.9,200l-0.8,0.2l-0.2-0.6l1.2-0.4h0.5v4.5h-0.8V200z"/>
			<path class="fp-tyger-st8" d="M166.9,203.1l1.5-1.3c0.6-0.5,0.8-0.8,0.8-1.2c0-0.4-0.3-0.7-0.7-0.7s-0.7,0.2-1,0.7l-0.6-0.4
				c0.4-0.6,0.9-0.9,1.7-0.9c0.9,0,1.5,0.5,1.5,1.3v0c0,0.7-0.4,1.1-1.2,1.7L168,203h2.1v0.7h-3.3V203.1z"/>
			<path class="fp-tyger-st8" d="M171.1,200.7c0.4-0.1,0.6-0.3,0.6-0.6h-0.3v-0.9h0.9v0.8c0,0.7-0.3,1-1,1.1L171.1,200.7z"/>
			<path class="fp-tyger-st8" d="M175.9,203.3c-0.3-0.3-0.5-0.8-0.5-1.7v0c0-1.4,0.7-2.4,1.9-2.4c0.6,0,1,0.2,1.4,0.5l-0.4,0.6
				c-0.3-0.2-0.6-0.4-1-0.4c-0.8,0-1.1,0.8-1.1,1.4c0.3-0.3,0.6-0.5,1.1-0.5c0.9,0,1.6,0.5,1.6,1.4v0c0,0.9-0.7,1.5-1.7,1.5
				C176.6,203.8,176.2,203.6,175.9,203.3z M178,202.3L178,202.3c0-0.5-0.4-0.8-0.9-0.8c-0.6,0-0.9,0.4-0.9,0.8v0
				c0,0.5,0.4,0.8,0.9,0.8C177.7,203.1,178,202.7,178,202.3z"/>
			<path class="fp-tyger-st8" d="M179.7,200.7c0.4-0.1,0.6-0.3,0.6-0.6h-0.3v-0.9h0.9v0.8c0,0.7-0.3,1-1,1.1L179.7,200.7z M181.2,200.7
				c0.4-0.1,0.6-0.3,0.5-0.6h-0.3v-0.9h0.9v0.8c0,0.7-0.3,1-1,1.1L181.2,200.7z"/>
		</g>
		<g class="fp-tyger-st7">
			<path class="fp-tyger-st8" d="M375.5,184.1h3.4c0.9,0,1.5,0.2,2,0.7c0.3,0.3,0.5,0.7,0.5,1.3v0c0,0.9-0.5,1.4-1.1,1.7
				c0.9,0.3,1.5,0.8,1.5,1.8v0c0,1.4-1.1,2.1-2.8,2.1h-3.5V184.1z M380.1,186.3c0-0.6-0.5-1-1.3-1h-1.9v2h1.8
				C379.5,187.3,380.1,187,380.1,186.3L380.1,186.3z M378.9,188.4h-2.1v2.1h2.2c0.9,0,1.5-0.4,1.5-1v0
				C380.5,188.8,380,188.4,378.9,188.4z"/>
			<path class="fp-tyger-st8" d="M383.8,184.1h5.6v1.2h-4.3v2h3.8v1.2h-3.8v2h4.3v1.2h-5.7V184.1z"/>
			<path class="fp-tyger-st8" d="M391.5,184.1h2.8c2.4,0,4,1.6,4,3.8v0c0,2.1-1.6,3.8-4,3.8h-2.8V184.1z M392.8,185.3v5.2h1.5
				c1.6,0,2.6-1.1,2.6-2.6v0c0-1.5-1-2.6-2.6-2.6H392.8z"/>
			<path class="fp-tyger-st8" d="M400.4,184.1h3.4c1,0,1.7,0.3,2.2,0.8c0.4,0.4,0.6,1,0.6,1.6v0c0,1.2-0.7,2-1.8,2.3l2,2.9h-1.6l-1.9-2.6
				h-1.7v2.6h-1.3V184.1z M403.7,187.9c1,0,1.6-0.5,1.6-1.3v0c0-0.8-0.6-1.3-1.6-1.3h-1.9v2.5H403.7z"/>
			<path class="fp-tyger-st8" d="M408.3,187.9L408.3,187.9c0-2.2,1.6-3.9,4-3.9s4,1.8,4,3.9v0c0,2.1-1.6,3.9-4,3.9
				C409.9,191.8,408.3,190.1,408.3,187.9z M414.8,187.9L414.8,187.9c0-1.5-1.1-2.7-2.6-2.7c-1.5,0-2.6,1.2-2.6,2.7v0
				c0,1.5,1.1,2.7,2.6,2.7S414.8,189.4,414.8,187.9z"/>
			<path class="fp-tyger-st8" d="M418,187.9L418,187.9c0-2.2,1.6-3.9,4-3.9s4,1.8,4,3.9v0c0,2.1-1.6,3.9-4,3.9
				C419.6,191.8,418,190.1,418,187.9z M424.5,187.9L424.5,187.9c0-1.5-1.1-2.7-2.6-2.7c-1.5,0-2.6,1.2-2.6,2.7v0
				c0,1.5,1.1,2.7,2.6,2.7S424.5,189.4,424.5,187.9z"/>
			<path class="fp-tyger-st8" d="M427.9,184.1h1.4l2.3,3.6l2.3-3.6h1.4v7.6h-1.3v-5.4l-2.4,3.6h0l-2.4-3.6v5.4h-1.3V184.1z"/>
		</g>
		<g class="fp-tyger-st7">
			<path class="fp-tyger-st8" d="M384.1,200l-0.8,0.2l-0.2-0.6l1.2-0.4h0.5v4.5h-0.8V200z"/>
			<path class="fp-tyger-st8" d="M386.9,200l-0.8,0.2l-0.2-0.6l1.2-0.4h0.5v4.5h-0.8V200z"/>
			<path class="fp-tyger-st8" d="M388.8,200.7c0.4-0.1,0.6-0.3,0.6-0.6H389v-0.9h0.9v0.8c0,0.7-0.3,1-1,1.1L388.8,200.7z"/>
			<path class="fp-tyger-st8" d="M395.4,202.7h-2.3l-0.1-0.6l2.5-3h0.7v2.9h0.6v0.6h-0.6v1h-0.8V202.7z M395.4,202v-1.8l-1.5,1.8H395.4z"/>
			<path class="fp-tyger-st8" d="M397.6,200.7c0.4-0.1,0.6-0.3,0.6-0.6h-0.3v-0.9h0.9v0.8c0,0.7-0.3,1-1,1.1L397.6,200.7z M399.1,200.7
				c0.4-0.1,0.6-0.3,0.5-0.6h-0.3v-0.9h0.9v0.8c0,0.7-0.3,1-1,1.1L399.1,200.7z"/>
			<path class="fp-tyger-st8" d="M404.9,201.4l0.8-1.1h0.8l-1.2,1.7l1.2,1.7h-0.8l-0.8-1.2l-0.8,1.2h-0.8l1.2-1.7l-1.2-1.7h0.8L404.9,201.4z"
				/>
			<path class="fp-tyger-st8" d="M410.4,200l-0.8,0.2l-0.2-0.6l1.2-0.4h0.5v4.5h-0.8V200z"/>
			<path class="fp-tyger-st8" d="M412.3,203.1l1.5-1.3c0.6-0.5,0.8-0.8,0.8-1.2c0-0.4-0.3-0.7-0.7-0.7s-0.7,0.2-1,0.7l-0.6-0.4
				c0.4-0.6,0.9-0.9,1.7-0.9c0.9,0,1.5,0.5,1.5,1.3v0c0,0.7-0.4,1.1-1.2,1.7l-0.9,0.8h2.1v0.7h-3.3V203.1z"/>
			<path class="fp-tyger-st8" d="M416.5,200.7c0.4-0.1,0.6-0.3,0.6-0.6h-0.3v-0.9h0.9v0.8c0,0.7-0.3,1-1,1.1L416.5,200.7z"/>
			<path class="fp-tyger-st8" d="M421.3,203.3c-0.3-0.3-0.5-0.8-0.5-1.7v0c0-1.4,0.7-2.4,1.9-2.4c0.6,0,1,0.2,1.4,0.5l-0.4,0.6
				c-0.3-0.2-0.6-0.4-1-0.4c-0.8,0-1.1,0.8-1.1,1.4c0.3-0.3,0.6-0.5,1.1-0.5c0.9,0,1.6,0.5,1.6,1.4v0c0,0.9-0.7,1.5-1.7,1.5
				C422,203.8,421.6,203.6,421.3,203.3z M423.4,202.3L423.4,202.3c0-0.5-0.4-0.8-0.9-0.8c-0.6,0-0.9,0.4-0.9,0.8v0
				c0,0.5,0.4,0.8,0.9,0.8C423.1,203.1,423.4,202.7,423.4,202.3z"/>
			<path class="fp-tyger-st8" d="M425.1,200.7c0.4-0.1,0.6-0.3,0.6-0.6h-0.3v-0.9h0.9v0.8c0,0.7-0.3,1-1,1.1L425.1,200.7z M426.6,200.7
				c0.4-0.1,0.6-0.3,0.5-0.6h-0.3v-0.9h0.9v0.8c0,0.7-0.3,1-1,1.1L426.6,200.7z"/>
		</g>
		<circle class="fp-tyger-st24" cx="179.5" cy="450.6" r="13.7"/>
		<g class="fp-tyger-st7">
			<path class="fp-tyger-st8" d="M170.8,448.4h0.8v1.8h2.1v-1.8h0.8v4.4h-0.8V451h-2.1v1.9h-0.8V448.4z"/>
		</g>
		<g class="fp-tyger-st7">
			<path class="fp-tyger-st8" d="M175.5,448.4h0.9l1.3,3.4l1.3-3.4h0.8l-1.8,4.4h-0.7L175.5,448.4z"/>
		</g>
		<g class="fp-tyger-st7">
			<path class="fp-tyger-st8" d="M181.8,448.4h0.7l1.9,4.4h-0.8l-0.4-1.1h-2.1l-0.5,1.1h-0.8L181.8,448.4z M182.9,451.1l-0.8-1.8l-0.8,1.8
				H182.9z"/>
		</g>
		<g class="fp-tyger-st7">
			<path class="fp-tyger-st8" d="M185,450.6L185,450.6c0-1.3,0.9-2.3,2.3-2.3c0.8,0,1.3,0.3,1.7,0.7l-0.5,0.6c-0.4-0.3-0.7-0.5-1.2-0.5
				c-0.8,0-1.5,0.7-1.5,1.6v0c0,0.9,0.6,1.6,1.5,1.6c0.5,0,0.9-0.2,1.3-0.6l0.5,0.5c-0.5,0.5-1,0.8-1.8,0.8
				C185.9,452.9,185,451.9,185,450.6z"/>
		</g>
		<g class="fp-tyger-st7">
			<path class="fp-tyger-st8" d="M254.3,109.9h3.4c0.9,0,1.5,0.2,2,0.7c0.3,0.3,0.5,0.7,0.5,1.3v0c0,0.9-0.5,1.4-1.1,1.7
				c0.9,0.3,1.5,0.8,1.5,1.8v0c0,1.4-1.1,2.1-2.8,2.1h-3.5V109.9z M258.9,112c0-0.6-0.5-1-1.3-1h-1.9v2h1.8
				C258.3,113.1,258.9,112.8,258.9,112L258.9,112z M257.7,114.2h-2.1v2.1h2.2c0.9,0,1.5-0.4,1.5-1v0
				C259.3,114.6,258.8,114.2,257.7,114.2z"/>
			<path class="fp-tyger-st8" d="M265.3,109.8h1.2l3.3,7.6h-1.4l-0.8-1.8h-3.6l-0.8,1.8h-1.4L265.3,109.8z M267.2,114.5l-1.3-3l-1.3,3H267.2z
				"/>
		</g>
		<g class="fp-tyger-st7">
			<path class="fp-tyger-st8" d="M271.6,109.9h1.3v6.4h4v1.2h-5.3V109.9z"/>
		</g>
		<g class="fp-tyger-st7">
			<path class="fp-tyger-st8" d="M277.9,113.7L277.9,113.7c0-2.2,1.6-3.9,3.9-3.9c1.4,0,2.2,0.5,3,1.2l-0.9,1c-0.6-0.6-1.3-0.9-2.1-0.9
				c-1.4,0-2.5,1.2-2.5,2.7v0c0,1.5,1.1,2.7,2.5,2.7c0.9,0,1.5-0.4,2.2-1l0.9,0.9c-0.8,0.8-1.7,1.3-3.1,1.3
				C279.6,117.6,277.9,115.9,277.9,113.7z"/>
		</g>
		<g class="fp-tyger-st7">
			<path class="fp-tyger-st8" d="M286.1,113.7L286.1,113.7c0-2.2,1.6-3.9,4-3.9s4,1.8,4,3.9v0c0,2.1-1.6,3.9-4,3.9S286.1,115.8,286.1,113.7z
				 M292.7,113.7L292.7,113.7c0-1.5-1.1-2.7-2.6-2.7s-2.6,1.2-2.6,2.7v0c0,1.5,1.1,2.7,2.6,2.7S292.7,115.2,292.7,113.7z"/>
			<path class="fp-tyger-st8" d="M296.1,109.9h1.2l4.1,5.2v-5.2h1.3v7.6h-1.1l-4.2-5.4v5.4h-1.3V109.9z"/>
			<path class="fp-tyger-st8" d="M307.4,114.5l-3-4.6h1.6l2.1,3.3l2.1-3.3h1.5l-3,4.6v3h-1.3V114.5z"/>
		</g>
		<g class="fp-tyger-st7">
			<path class="fp-tyger-st8" d="M262.6,124l-0.8,0.2l-0.2-0.6l1.2-0.4h0.5v4.5h-0.8V124z"/>
			<path class="fp-tyger-st8" d="M265.4,124l-0.8,0.2l-0.2-0.6l1.2-0.4h0.5v4.5h-0.8V124z"/>
			<path class="fp-tyger-st8" d="M267.3,124.7c0.4-0.1,0.6-0.3,0.6-0.6h-0.3v-0.9h0.9v0.8c0,0.7-0.3,1-1,1.1L267.3,124.7z"/>
			<path class="fp-tyger-st8" d="M272.2,127.3c-0.3-0.3-0.5-0.8-0.5-1.7v0c0-1.4,0.7-2.4,1.9-2.4c0.6,0,1,0.2,1.4,0.5l-0.4,0.6
				c-0.3-0.2-0.6-0.4-1-0.4c-0.8,0-1.1,0.8-1.1,1.4c0.3-0.3,0.6-0.5,1.1-0.5c0.9,0,1.6,0.5,1.6,1.4v0c0,0.9-0.7,1.5-1.7,1.5
				C272.9,127.8,272.5,127.6,272.2,127.3z M274.3,126.3L274.3,126.3c0-0.5-0.4-0.8-0.9-0.8c-0.6,0-0.9,0.4-0.9,0.8v0
				c0,0.5,0.4,0.8,0.9,0.8C274,127.1,274.3,126.8,274.3,126.3z"/>
			<path class="fp-tyger-st8" d="M276,124.7c0.4-0.1,0.6-0.3,0.6-0.6h-0.3v-0.9h0.9v0.8c0,0.7-0.3,1-1,1.1L276,124.7z M277.5,124.7
				c0.4-0.1,0.6-0.3,0.5-0.6h-0.3v-0.9h0.9v0.8c0,0.7-0.3,1-1,1.1L277.5,124.7z"/>
			<path class="fp-tyger-st8" d="M283.3,125.5l0.8-1.1h0.8l-1.2,1.7l1.2,1.7h-0.8l-0.8-1.2l-0.8,1.2h-0.8l1.2-1.7l-1.2-1.7h0.8L283.3,125.5z"
				/>
			<path class="fp-tyger-st8" d="M288.5,127.3c-0.3-0.3-0.5-0.8-0.5-1.7v0c0-1.4,0.7-2.4,1.9-2.4c0.6,0,1,0.2,1.4,0.5l-0.4,0.6
				c-0.3-0.2-0.6-0.4-1-0.4c-0.8,0-1.1,0.8-1.1,1.4c0.3-0.3,0.6-0.5,1.1-0.5c0.9,0,1.6,0.5,1.6,1.4v0c0,0.9-0.7,1.5-1.7,1.5
				C289.2,127.8,288.8,127.6,288.5,127.3z M290.6,126.3L290.6,126.3c0-0.5-0.4-0.8-0.9-0.8c-0.6,0-0.9,0.4-0.9,0.8v0
				c0,0.5,0.4,0.8,0.9,0.8C290.3,127.1,290.6,126.8,290.6,126.3z"/>
			<path class="fp-tyger-st8" d="M292.3,124.7c0.4-0.1,0.6-0.3,0.6-0.6h-0.3v-0.9h0.9v0.8c0,0.7-0.3,1-1,1.1L292.3,124.7z"/>
			<path class="fp-tyger-st8" d="M297.1,127.3c-0.3-0.3-0.5-0.8-0.5-1.7v0c0-1.4,0.7-2.4,1.9-2.4c0.6,0,1,0.2,1.4,0.5l-0.4,0.6
				c-0.3-0.2-0.6-0.4-1-0.4c-0.8,0-1.1,0.8-1.1,1.4c0.3-0.3,0.6-0.5,1.1-0.5c0.9,0,1.6,0.5,1.6,1.4v0c0,0.9-0.7,1.5-1.7,1.5
				C297.8,127.8,297.4,127.6,297.1,127.3z M299.3,126.3L299.3,126.3c0-0.5-0.4-0.8-0.9-0.8c-0.6,0-0.9,0.4-0.9,0.8v0
				c0,0.5,0.4,0.8,0.9,0.8C298.9,127.1,299.3,126.8,299.3,126.3z"/>
			<path class="fp-tyger-st8" d="M300.9,124.7c0.4-0.1,0.6-0.3,0.6-0.6h-0.3v-0.9h0.9v0.8c0,0.7-0.3,1-1,1.1L300.9,124.7z M302.4,124.7
				c0.4-0.1,0.6-0.3,0.5-0.6h-0.3v-0.9h0.9v0.8c0,0.7-0.3,1-1,1.1L302.4,124.7z"/>
		</g>
		<g class="fp-tyger-st7">
			<path class="fp-tyger-st8" d="M263.1,214.4h1.3v6.4h4v1.2h-5.3V214.4z"/>
			<path class="fp-tyger-st8" d="M270.4,214.4h1.3v7.6h-1.3V214.4z"/>
			<path class="fp-tyger-st8" d="M273.5,214.4h1.5l2.3,5.8l2.3-5.8h1.4l-3.1,7.6h-1.2L273.5,214.4z"/>
			<path class="fp-tyger-st8" d="M282.8,214.4h1.3v7.6h-1.3V214.4z"/>
			<path class="fp-tyger-st8" d="M286.6,214.4h1.2l4.1,5.2v-5.2h1.3v7.6h-1.1l-4.2-5.4v5.4h-1.3V214.4z"/>
			<path class="fp-tyger-st8" d="M295.2,218.2L295.2,218.2c0-2.1,1.6-3.9,3.9-3.9c1.3,0,2.1,0.4,2.9,1l-0.8,1c-0.6-0.5-1.2-0.8-2.1-0.8
				c-1.4,0-2.5,1.2-2.5,2.7v0c0,1.6,1,2.7,2.6,2.7c0.7,0,1.4-0.2,1.8-0.6v-1.4h-1.9v-1.2h3.2v3.2c-0.7,0.6-1.8,1.2-3.2,1.2
				C296.8,222.1,295.2,220.4,295.2,218.2z"/>
		</g>
		<g class="fp-tyger-st7">
			<path class="fp-tyger-st8" d="M265.7,227l-0.8,0.2l-0.2-0.6l1.2-0.4h0.5v4.5h-0.8V227z"/>
			<path class="fp-tyger-st8" d="M267.7,230.1l1.5-1.3c0.6-0.5,0.8-0.8,0.8-1.2c0-0.4-0.3-0.7-0.7-0.7s-0.7,0.2-1,0.7l-0.6-0.4
				c0.4-0.6,0.9-0.9,1.7-0.9c0.9,0,1.5,0.5,1.5,1.3v0c0,0.7-0.4,1.1-1.2,1.7l-0.9,0.8h2.1v0.7h-3.3V230.1z"/>
			<path class="fp-tyger-st8" d="M271.8,227.7c0.4-0.1,0.6-0.3,0.6-0.6h-0.3v-0.9h0.9v0.8c0,0.7-0.3,1-1,1.1L271.8,227.7z"/>
			<path class="fp-tyger-st8" d="M276,230l0.6-0.5c0.3,0.4,0.7,0.6,1.2,0.6c0.4,0,0.8-0.3,0.8-0.7v0c0-0.4-0.4-0.7-1-0.7h-0.4l-0.1-0.5
				l1.2-1.3h-1.9v-0.7h3v0.6l-1.3,1.3c0.7,0.1,1.3,0.4,1.3,1.3v0c0,0.8-0.6,1.4-1.6,1.4C277,230.8,276.4,230.5,276,230z"/>
			<path class="fp-tyger-st8" d="M280.2,227.7c0.4-0.1,0.6-0.3,0.6-0.6h-0.3v-0.9h0.9v0.8c0,0.7-0.3,1-1,1.1L280.2,227.7z M281.7,227.7
				c0.4-0.1,0.6-0.3,0.5-0.6h-0.3v-0.9h0.9v0.8c0,0.7-0.3,1-1,1.1L281.7,227.7z"/>
			<path class="fp-tyger-st8" d="M287.5,228.5l0.8-1.1h0.8l-1.2,1.7l1.2,1.7h-0.8l-0.8-1.2l-0.8,1.2h-0.8l1.2-1.7l-1.2-1.7h0.8L287.5,228.5z"
				/>
			<path class="fp-tyger-st8" d="M293,227l-0.8,0.2l-0.2-0.6l1.2-0.4h0.5v4.5H293V227z"/>
			<path class="fp-tyger-st8" d="M295.5,230.3c-0.3-0.3-0.5-0.8-0.5-1.7v0c0-1.4,0.7-2.4,1.9-2.4c0.6,0,1,0.2,1.4,0.5l-0.4,0.6
				c-0.3-0.2-0.6-0.4-1-0.4c-0.8,0-1.1,0.8-1.1,1.4c0.3-0.3,0.6-0.5,1.1-0.5c0.9,0,1.6,0.5,1.6,1.4v0c0,0.9-0.7,1.5-1.7,1.5
				C296.2,230.8,295.8,230.6,295.5,230.3z M297.7,229.3L297.7,229.3c0-0.5-0.4-0.8-0.9-0.8s-0.9,0.4-0.9,0.8v0
				c0,0.5,0.4,0.8,0.9,0.8S297.7,229.8,297.7,229.3z"/>
			<path class="fp-tyger-st8" d="M299.4,227.7c0.4-0.1,0.6-0.3,0.6-0.6h-0.3v-0.9h0.9v0.8c0,0.7-0.3,1-1,1.1L299.4,227.7z"/>
		</g>
		<g class="fp-tyger-st7">
			<path class="fp-tyger-st8" d="M257.3,399.3h1.3v3.8l3.6-3.8h1.6l-3.2,3.3l3.3,4.3h-1.6l-2.6-3.4l-1.2,1.2v2.2h-1.3V399.3z"/>
			<path class="fp-tyger-st8" d="M265.7,399.3h1.3v7.6h-1.3V399.3z"/>
		</g>
		<g class="fp-tyger-st7">
			<path class="fp-tyger-st8" d="M271.3,400.5h-2.4v-1.2h6.2v1.2h-2.4v6.3h-1.3V400.5z"/>
		</g>
		<g class="fp-tyger-st7">
			<path class="fp-tyger-st8" d="M276.2,403.1L276.2,403.1c0-2.2,1.6-3.9,3.9-3.9c1.4,0,2.2,0.5,3,1.2l-0.9,1c-0.6-0.6-1.3-0.9-2.1-0.9
				c-1.4,0-2.5,1.2-2.5,2.7v0c0,1.5,1.1,2.7,2.5,2.7c0.9,0,1.5-0.4,2.2-1l0.9,0.9c-0.8,0.8-1.7,1.3-3.1,1.3
				C277.8,407,276.2,405.3,276.2,403.1z"/>
			<path class="fp-tyger-st8" d="M285,399.3h1.3v3.2h3.6v-3.2h1.3v7.6h-1.3v-3.2h-3.6v3.2H285V399.3z"/>
			<path class="fp-tyger-st8" d="M293.6,399.3h5.6v1.2H295v2h3.8v1.2H295v2h4.3v1.2h-5.7V399.3z"/>
			<path class="fp-tyger-st8" d="M301.3,399.3h1.2l4.1,5.2v-5.2h1.3v7.6h-1.1l-4.2-5.4v5.4h-1.3V399.3z"/>
		</g>
		<g class="fp-tyger-st7">
			<path class="fp-tyger-st8" d="M265.2,412.4l-0.8,0.2l-0.2-0.6l1.2-0.4h0.5v4.5h-0.8V412.4z"/>
			<path class="fp-tyger-st8" d="M267.2,413.9L267.2,413.9c0-1.3,0.8-2.3,2-2.3c1.2,0,2,1,2,2.3v0c0,1.3-0.8,2.3-2,2.3
				C268,416.2,267.2,415.2,267.2,413.9z M270.3,413.9L270.3,413.9c0-0.9-0.5-1.6-1.1-1.6c-0.7,0-1.1,0.7-1.1,1.6v0
				c0,0.9,0.4,1.6,1.1,1.6S270.3,414.8,270.3,413.9z"/>
			<path class="fp-tyger-st8" d="M272,413.1c0.4-0.1,0.6-0.3,0.6-0.6h-0.3v-0.9h0.9v0.8c0,0.7-0.3,1-1,1.1L272,413.1z"/>
			<path class="fp-tyger-st8" d="M277.8,413.9l0.8-1.1h0.8l-1.2,1.7l1.2,1.7h-0.8l-0.8-1.2l-0.8,1.2h-0.8l1.2-1.7l-1.2-1.7h0.8L277.8,413.9z"
				/>
			<path class="fp-tyger-st8" d="M283.2,412.4l-0.8,0.2l-0.2-0.6l1.2-0.4h0.5v4.5h-0.8V412.4z"/>
			<path class="fp-tyger-st8" d="M285.3,413.9L285.3,413.9c0-1.3,0.8-2.3,2-2.3c1.2,0,2,1,2,2.3v0c0,1.3-0.8,2.3-2,2.3
				S285.3,415.2,285.3,413.9z M288.4,413.9L288.4,413.9c0-0.9-0.5-1.6-1.1-1.6s-1.1,0.7-1.1,1.6v0c0,0.9,0.4,1.6,1.1,1.6
				S288.4,414.8,288.4,413.9z"/>
			<path class="fp-tyger-st8" d="M290.1,413.1c0.4-0.1,0.6-0.3,0.6-0.6h-0.3v-0.9h0.9v0.8c0,0.7-0.3,1-1,1.1L290.1,413.1z"/>
			<path class="fp-tyger-st8" d="M296.7,412.3h-2.3v-0.7h3.2v0.6l-2,3.9h-0.9L296.7,412.3z"/>
			<path class="fp-tyger-st8" d="M298.4,413.1c0.4-0.1,0.6-0.3,0.6-0.6h-0.3v-0.9h0.9v0.8c0,0.7-0.3,1-1,1.1L298.4,413.1z M299.9,413.1
				c0.4-0.1,0.6-0.3,0.5-0.6h-0.3v-0.9h0.9v0.8c0,0.7-0.3,1-1,1.1L299.9,413.1z"/>
		</g>
		<g class="fp-tyger-st7">
			<path class="fp-tyger-st8" d="M415.9,319.6l0.4-0.5c0.3,0.3,0.6,0.5,1,0.5c0.5,0,0.8-0.3,0.8-0.7v0c0-0.4-0.3-0.6-0.8-0.6
				c-0.3,0-0.5,0.1-0.7,0.2l-0.4-0.3l0.1-1.9h2.3v0.6h-1.7l-0.1,0.9c0.2-0.1,0.3-0.1,0.6-0.1c0.7,0,1.3,0.4,1.3,1.2v0
				c0,0.8-0.6,1.3-1.4,1.3C416.7,320.2,416.3,319.9,415.9,319.6z"/>
			<path class="fp-tyger-st8" d="M419.4,317.6c0.3-0.1,0.5-0.2,0.5-0.5h-0.3v-0.7h0.7v0.6c0,0.6-0.3,0.9-0.8,0.9L419.4,317.6z"/>
			<path class="fp-tyger-st8" d="M423,319.6l0.4-0.5c0.3,0.3,0.6,0.5,1,0.5c0.5,0,0.8-0.3,0.8-0.7v0c0-0.4-0.3-0.6-0.8-0.6
				c-0.3,0-0.5,0.1-0.7,0.2l-0.4-0.3l0.1-1.9h2.3v0.6h-1.7l-0.1,0.9c0.2-0.1,0.3-0.1,0.6-0.1c0.7,0,1.3,0.4,1.3,1.2v0
				c0,0.8-0.6,1.3-1.4,1.3C423.8,320.2,423.4,319.9,423,319.6z"/>
			<path class="fp-tyger-st8" d="M426.6,317.6c0.3-0.1,0.5-0.2,0.5-0.5h-0.3v-0.7h0.7v0.6c0,0.6-0.3,0.9-0.8,0.9L426.6,317.6z M427.8,317.6
				c0.3-0.1,0.5-0.2,0.5-0.5H428v-0.7h0.7v0.6c0,0.6-0.3,0.9-0.8,0.9L427.8,317.6z"/>
			<path class="fp-tyger-st8" d="M432.7,318.2l0.7-1h0.7l-1,1.4l1.1,1.5h-0.7l-0.7-1l-0.7,1h-0.7l1-1.5l-1-1.4h0.7L432.7,318.2z"/>
			<path class="fp-tyger-st8" d="M437.3,317l-0.7,0.2l-0.1-0.5l1-0.3h0.5v3.8h-0.7V317z"/>
			<path class="fp-tyger-st8" d="M439,318.2L439,318.2c0-1.1,0.7-2,1.7-2c1,0,1.6,0.9,1.6,2v0c0,1.1-0.7,2-1.7,2
				C439.6,320.2,439,319.3,439,318.2z M441.6,318.2L441.6,318.2c0-0.8-0.4-1.4-1-1.4s-1,0.6-1,1.3v0c0,0.7,0.4,1.4,1,1.4
				C441.2,319.6,441.6,319,441.6,318.2z"/>
			<path class="fp-tyger-st8" d="M443,317.6c0.3-0.1,0.5-0.2,0.5-0.5h-0.3v-0.7h0.7v0.6c0,0.6-0.3,0.9-0.8,0.9L443,317.6z"/>
			<path class="fp-tyger-st8" d="M448.6,316.9h-1.9v-0.6h2.7v0.5l-1.7,3.3h-0.8L448.6,316.9z"/>
			<path class="fp-tyger-st8" d="M450.1,317.6c0.3-0.1,0.5-0.2,0.5-0.5h-0.3v-0.7h0.7v0.6c0,0.6-0.3,0.9-0.8,0.9L450.1,317.6z M451.3,317.6
				c0.3-0.1,0.5-0.2,0.5-0.5h-0.3v-0.7h0.7v0.6c0,0.6-0.3,0.9-0.8,0.9L451.3,317.6z"/>
		</g>
		<g class="fp-tyger-st7">
			<path class="fp-tyger-st8" d="M417.6,310.5L417.6,310.5c0-1.5,1.1-2.8,2.7-2.8c1,0,1.6,0.3,2.1,0.8l-0.6,0.7c-0.4-0.4-0.9-0.7-1.5-0.7
				c-1,0-1.8,0.8-1.8,1.9v0c0,1,0.7,1.9,1.8,1.9c0.7,0,1.1-0.3,1.5-0.7l0.6,0.6c-0.6,0.6-1.2,0.9-2.2,0.9
				C418.7,313.2,417.6,312,417.6,310.5z"/>
		</g>
		<g class="fp-tyger-st7">
			<path class="fp-tyger-st8" d="M423.7,307.8h0.9v4.5h2.8v0.8h-3.7V307.8z"/>
		</g>
		<g class="fp-tyger-st7">
			<path class="fp-tyger-st8" d="M428.2,310.5L428.2,310.5c0-1.5,1.2-2.8,2.8-2.8c1.6,0,2.8,1.2,2.8,2.7v0c0,1.5-1.2,2.7-2.8,2.7
				C429.3,313.2,428.2,312,428.2,310.5z M432.7,310.5L432.7,310.5c0-1-0.8-1.9-1.8-1.9c-1.1,0-1.8,0.8-1.8,1.9v0
				c0,1,0.8,1.9,1.8,1.9C432,312.3,432.7,311.5,432.7,310.5z"/>
		</g>
		<g class="fp-tyger-st7">
			<path class="fp-tyger-st8" d="M434.7,312.3l0.6-0.7c0.5,0.4,1,0.7,1.7,0.7c0.6,0,0.9-0.3,0.9-0.7v0c0-0.4-0.2-0.6-1.2-0.8
				c-1.1-0.3-1.8-0.6-1.8-1.6v0c0-0.9,0.8-1.5,1.8-1.5c0.8,0,1.4,0.2,1.9,0.7l-0.5,0.7c-0.5-0.4-1-0.5-1.4-0.5
				c-0.5,0-0.9,0.3-0.9,0.6v0c0,0.4,0.2,0.6,1.3,0.8c1.1,0.3,1.7,0.7,1.7,1.6v0c0,1-0.8,1.6-1.9,1.6
				C436.1,313.2,435.4,312.9,434.7,312.3z"/>
			<path class="fp-tyger-st8" d="M440.3,307.8h3.9v0.8h-3v1.4h2.7v0.8h-2.7v1.4h3v0.8h-4V307.8z"/>
			<path class="fp-tyger-st8" d="M447,308.7h-1.7v-0.9h4.3v0.9h-1.7v4.4H447V308.7z"/>
		</g>
		<g class="fp-tyger-st7">
			<path class="fp-tyger-st8" d="M112.4,312.6l0.4-0.5c0.3,0.3,0.6,0.5,1,0.5c0.5,0,0.8-0.3,0.8-0.7v0c0-0.4-0.3-0.6-0.8-0.6
				c-0.3,0-0.5,0.1-0.7,0.2l-0.4-0.3l0.1-1.9h2.3v0.6h-1.7l-0.1,0.9c0.2-0.1,0.3-0.1,0.6-0.1c0.7,0,1.3,0.4,1.3,1.2v0
				c0,0.8-0.6,1.3-1.4,1.3C113.2,313.2,112.8,313,112.4,312.6z"/>
			<path class="fp-tyger-st8" d="M116,310.6c0.3-0.1,0.5-0.2,0.5-0.5h-0.3v-0.7h0.7v0.6c0,0.6-0.3,0.9-0.8,0.9L116,310.6z"/>
			<path class="fp-tyger-st8" d="M119.5,312.6l0.4-0.5c0.3,0.3,0.6,0.5,1,0.5c0.5,0,0.8-0.3,0.8-0.7v0c0-0.4-0.3-0.6-0.8-0.6
				c-0.3,0-0.5,0.1-0.7,0.2l-0.4-0.3l0.1-1.9h2.3v0.6h-1.7l-0.1,0.9c0.2-0.1,0.3-0.1,0.6-0.1c0.7,0,1.3,0.4,1.3,1.2v0
				c0,0.8-0.6,1.3-1.4,1.3C120.3,313.2,119.9,313,119.5,312.6z"/>
			<path class="fp-tyger-st8" d="M123.1,310.6c0.3-0.1,0.5-0.2,0.5-0.5h-0.3v-0.7h0.7v0.6c0,0.6-0.3,0.9-0.8,0.9L123.1,310.6z M124.3,310.6
				c0.3-0.1,0.5-0.2,0.5-0.5h-0.3v-0.7h0.7v0.6c0,0.6-0.3,0.9-0.8,0.9L124.3,310.6z"/>
			<path class="fp-tyger-st8" d="M129.2,311.2l0.7-1h0.7l-1,1.4l1.1,1.5h-0.7l-0.7-1l-0.7,1h-0.7l1-1.5l-1-1.4h0.7L129.2,311.2z"/>
			<path class="fp-tyger-st8" d="M133.8,310l-0.7,0.2l-0.1-0.5l1-0.3h0.5v3.8h-0.7V310z"/>
			<path class="fp-tyger-st8" d="M135.5,311.3L135.5,311.3c0-1.1,0.7-2,1.7-2c1,0,1.6,0.9,1.6,2v0c0,1.1-0.7,2-1.7,2S135.5,312.3,135.5,311.3
				z M138.1,311.3L138.1,311.3c0-0.8-0.4-1.4-1-1.4s-1,0.6-1,1.3v0c0,0.7,0.4,1.4,1,1.4S138.1,312,138.1,311.3z"/>
			<path class="fp-tyger-st8" d="M139.5,310.6c0.3-0.1,0.5-0.2,0.5-0.5h-0.3v-0.7h0.7v0.6c0,0.6-0.3,0.9-0.8,0.9L139.5,310.6z"/>
			<path class="fp-tyger-st8" d="M145.1,309.9h-1.9v-0.6h2.7v0.5l-1.7,3.3h-0.8L145.1,309.9z"/>
			<path class="fp-tyger-st8" d="M146.6,310.6c0.3-0.1,0.5-0.2,0.5-0.5h-0.3v-0.7h0.7v0.6c0,0.6-0.3,0.9-0.8,0.9L146.6,310.6z M147.8,310.6
				c0.3-0.1,0.5-0.2,0.5-0.5H148v-0.7h0.7v0.6c0,0.6-0.3,0.9-0.8,0.9L147.8,310.6z"/>
		</g>
		<g class="fp-tyger-st7">
			<path class="fp-tyger-st8" d="M114,301.5L114,301.5c0-1.5,1.1-2.8,2.7-2.8c1,0,1.6,0.3,2.1,0.8l-0.6,0.7c-0.4-0.4-0.9-0.7-1.5-0.7
				c-1,0-1.8,0.8-1.8,1.9v0c0,1,0.7,1.9,1.8,1.9c0.7,0,1.1-0.3,1.5-0.7l0.6,0.6c-0.6,0.6-1.2,0.9-2.2,0.9
				C115.1,304.3,114,303.1,114,301.5z"/>
		</g>
		<g class="fp-tyger-st7">
			<path class="fp-tyger-st8" d="M120.1,298.9h0.9v4.5h2.8v0.8h-3.7V298.9z"/>
		</g>
		<g class="fp-tyger-st7">
			<path class="fp-tyger-st8" d="M124.6,301.5L124.6,301.5c0-1.5,1.2-2.8,2.8-2.8c1.6,0,2.8,1.2,2.8,2.7v0c0,1.5-1.2,2.7-2.8,2.7
				S124.6,303,124.6,301.5z M129.1,301.5L129.1,301.5c0-1-0.8-1.9-1.8-1.9s-1.8,0.8-1.8,1.9v0c0,1,0.8,1.9,1.8,1.9
				S129.1,302.6,129.1,301.5z"/>
		</g>
		<g class="fp-tyger-st7">
			<path class="fp-tyger-st8" d="M131.1,303.4l0.6-0.7c0.5,0.4,1,0.7,1.7,0.7c0.6,0,0.9-0.3,0.9-0.7v0c0-0.4-0.2-0.6-1.2-0.8
				c-1.1-0.3-1.8-0.6-1.8-1.6v0c0-0.9,0.8-1.5,1.8-1.5c0.8,0,1.4,0.2,1.9,0.7l-0.5,0.7c-0.5-0.4-1-0.5-1.4-0.5
				c-0.5,0-0.9,0.3-0.9,0.6v0c0,0.4,0.2,0.6,1.3,0.8c1.1,0.3,1.7,0.7,1.7,1.6v0c0,1-0.8,1.6-1.9,1.6
				C132.5,304.3,131.8,304,131.1,303.4z"/>
			<path class="fp-tyger-st8" d="M136.7,298.9h3.9v0.8h-3v1.4h2.7v0.8h-2.7v1.4h3v0.8h-4V298.9z"/>
			<path class="fp-tyger-st8" d="M143.4,299.7h-1.7v-0.9h4.3v0.9h-1.7v4.4h-0.9V299.7z"/>
		</g>
		<g class="fp-tyger-st7">
			<path class="fp-tyger-st8" d="M129.6,377l0.4-0.5c0.3,0.3,0.6,0.5,1,0.5c0.5,0,0.8-0.3,0.8-0.7v0c0-0.4-0.3-0.6-0.8-0.6
				c-0.3,0-0.5,0.1-0.7,0.2l-0.4-0.3l0.1-1.9h2.3v0.6h-1.7l-0.1,0.9c0.2-0.1,0.3-0.1,0.6-0.1c0.7,0,1.3,0.4,1.3,1.2v0
				c0,0.8-0.6,1.3-1.4,1.3C130.4,377.5,130,377.3,129.6,377z"/>
			<path class="fp-tyger-st8" d="M133.2,374.9c0.3-0.1,0.5-0.2,0.5-0.5h-0.3v-0.7h0.7v0.6c0,0.6-0.3,0.9-0.8,0.9L133.2,374.9z"/>
			<path class="fp-tyger-st8" d="M138,375.6l0.7-1h0.7l-1,1.4l1.1,1.5h-0.7l-0.7-1l-0.7,1h-0.7l1-1.5l-1-1.4h0.7L138,375.6z"/>
			<path class="fp-tyger-st8" d="M142.6,374.3l-0.7,0.2l-0.1-0.5l1-0.3h0.5v3.8h-0.7V374.3z"/>
			<path class="fp-tyger-st8" d="M144.3,376.9l1.3-1.1c0.5-0.4,0.7-0.7,0.7-1c0-0.4-0.3-0.6-0.6-0.6s-0.6,0.2-0.9,0.6l-0.5-0.4
				c0.4-0.5,0.7-0.8,1.4-0.8c0.7,0,1.3,0.5,1.3,1.1v0c0,0.6-0.3,0.9-1,1.5l-0.8,0.7h1.8v0.6h-2.7V376.9z"/>
			<path class="fp-tyger-st8" d="M147.8,374.9c0.3-0.1,0.5-0.2,0.5-0.5H148v-0.7h0.7v0.6c0,0.6-0.3,0.9-0.8,0.9L147.8,374.9z"/>
			<path class="fp-tyger-st8" d="M151.9,377.1c-0.3-0.3-0.5-0.7-0.5-1.4v0c0-1.2,0.6-2.1,1.6-2.1c0.5,0,0.8,0.2,1.2,0.4l-0.4,0.5
				c-0.3-0.2-0.5-0.3-0.8-0.3c-0.7,0-0.9,0.7-0.9,1.2c0.2-0.2,0.5-0.4,0.9-0.4c0.7,0,1.3,0.4,1.3,1.2v0c0,0.8-0.6,1.3-1.4,1.3
				C152.5,377.5,152.1,377.4,151.9,377.1z M153.7,376.3L153.7,376.3c0-0.4-0.3-0.7-0.8-0.7s-0.8,0.3-0.8,0.7v0
				c0,0.4,0.3,0.7,0.8,0.7S153.7,376.7,153.7,376.3z"/>
			<path class="fp-tyger-st8" d="M155.1,374.9c0.3-0.1,0.5-0.2,0.5-0.5h-0.3v-0.7h0.7v0.6c0,0.6-0.3,0.9-0.8,0.9L155.1,374.9z M156.3,374.9
				c0.3-0.1,0.5-0.2,0.5-0.5h-0.3v-0.7h0.7v0.6c0,0.6-0.3,0.9-0.8,0.9L156.3,374.9z"/>
		</g>
		<g class="fp-tyger-st7">
			<path class="fp-tyger-st8" d="M132.9,364.6h2.4c0.6,0,1.1,0.2,1.4,0.5c0.2,0.2,0.4,0.5,0.4,0.9v0c0,0.6-0.4,1-0.8,1.2
				c0.6,0.2,1.1,0.6,1.1,1.3v0c0,0.9-0.8,1.5-2,1.5h-2.5V364.6z M136.1,366.1c0-0.4-0.3-0.7-0.9-0.7h-1.3v1.4h1.3
				C135.7,366.8,136.1,366.6,136.1,366.1L136.1,366.1z M135.3,367.6h-1.5v1.5h1.5c0.6,0,1-0.3,1-0.7v0
				C136.4,367.9,136.1,367.6,135.3,367.6z"/>
		</g>
		<g class="fp-tyger-st7">
			<path class="fp-tyger-st8" d="M140.6,364.5h0.9l2.3,5.3h-1l-0.5-1.3h-2.5l-0.5,1.3h-1L140.6,364.5z M141.9,367.8l-0.9-2.1l-0.9,2.1H141.9z
				"/>
		</g>
		<g class="fp-tyger-st7">
			<path class="fp-tyger-st8" d="M145.6,365.4h-1.7v-0.9h4.3v0.9h-1.7v4.4h-0.9V365.4z"/>
			<path class="fp-tyger-st8" d="M149.5,364.6h0.9v2.2h2.5v-2.2h0.9v5.3H153v-2.2h-2.5v2.2h-0.9V364.6z"/>
		</g>
		<g class="fp-tyger-st7">
			<path class="fp-tyger-st8" d="M406.6,423.7c-0.2,0.3-0.5,0.4-0.9,0.4c-0.8,0-1.3-0.5-1.3-1.2v0c0-0.7,0.6-1.3,1.4-1.3
				c0.5,0,0.8,0.1,1.1,0.4c0.3,0.3,0.5,0.7,0.5,1.4v0c0,1.2-0.6,2.1-1.6,2.1c-0.5,0-0.9-0.2-1.2-0.5l0.4-0.5
				c0.3,0.2,0.5,0.4,0.9,0.4C406.3,424.9,406.6,424.2,406.6,423.7z M406.5,422.9L406.5,422.9c0-0.4-0.3-0.7-0.8-0.7
				c-0.5,0-0.8,0.3-0.8,0.7v0c0,0.4,0.3,0.7,0.8,0.7C406.2,423.5,406.5,423.2,406.5,422.9z"/>
			<path class="fp-tyger-st8" d="M408,422.9c0.3-0.1,0.5-0.2,0.5-0.5h-0.3v-0.7h0.7v0.6c0,0.6-0.3,0.9-0.8,0.9L408,422.9z"/>
			<path class="fp-tyger-st8" d="M413.6,422.2h-1.9v-0.6h2.7v0.5l-1.7,3.3h-0.8L413.6,422.2z"/>
			<path class="fp-tyger-st8" d="M415,422.9c0.3-0.1,0.5-0.2,0.5-0.5h-0.3v-0.7h0.7v0.6c0,0.6-0.3,0.9-0.8,0.9L415,422.9z M416.3,422.9
				c0.3-0.1,0.5-0.2,0.5-0.5h-0.3v-0.7h0.7v0.6c0,0.6-0.3,0.9-0.8,0.9L416.3,422.9z"/>
			<path class="fp-tyger-st8" d="M421.2,423.5l0.7-1h0.7l-1,1.4l1.1,1.5h-0.7l-0.7-1l-0.7,1h-0.7l1-1.5l-1-1.4h0.7L421.2,423.5z"/>
			<path class="fp-tyger-st8" d="M427.3,423.7c-0.2,0.3-0.5,0.4-0.9,0.4c-0.8,0-1.3-0.5-1.3-1.2v0c0-0.7,0.6-1.3,1.4-1.3
				c0.5,0,0.8,0.1,1.1,0.4c0.3,0.3,0.5,0.7,0.5,1.4v0c0,1.2-0.6,2.1-1.6,2.1c-0.5,0-0.9-0.2-1.2-0.5l0.4-0.5
				c0.3,0.2,0.5,0.4,0.9,0.4C427.1,424.9,427.3,424.2,427.3,423.7z M427.3,422.9L427.3,422.9c0-0.4-0.3-0.7-0.8-0.7
				c-0.5,0-0.8,0.3-0.8,0.7v0c0,0.4,0.3,0.7,0.8,0.7C427,423.5,427.3,423.2,427.3,422.9z"/>
			<path class="fp-tyger-st8" d="M428.8,422.9c0.3-0.1,0.5-0.2,0.5-0.5H429v-0.7h0.7v0.6c0,0.6-0.3,0.9-0.8,0.9L428.8,422.9z"/>
			<path class="fp-tyger-st8" d="M434.3,422.2h-1.9v-0.6h2.7v0.5l-1.7,3.3h-0.8L434.3,422.2z"/>
			<path class="fp-tyger-st8" d="M435.8,422.9c0.3-0.1,0.5-0.2,0.5-0.5H436v-0.7h0.7v0.6c0,0.6-0.3,0.9-0.8,0.9L435.8,422.9z M437.1,422.9
				c0.3-0.1,0.5-0.2,0.5-0.5h-0.3v-0.7h0.7v0.6c0,0.6-0.3,0.9-0.8,0.9L437.1,422.9z"/>
		</g>
		<g class="fp-tyger-st7">
			<path class="fp-tyger-st8" d="M410.4,412.8h2.4c0.6,0,1.1,0.2,1.4,0.5c0.2,0.2,0.4,0.5,0.4,0.9v0c0,0.6-0.4,1-0.8,1.2
				c0.6,0.2,1.1,0.6,1.1,1.3v0c0,0.9-0.8,1.5-2,1.5h-2.5V412.8z M413.6,414.3c0-0.4-0.3-0.7-0.9-0.7h-1.3v1.4h1.3
				C413.2,415,413.6,414.8,413.6,414.3L413.6,414.3z M412.8,415.8h-1.5v1.5h1.5c0.6,0,1-0.3,1-0.7v0
				C413.9,416,413.5,415.8,412.8,415.8z"/>
		</g>
		<g class="fp-tyger-st7">
			<path class="fp-tyger-st8" d="M418.1,412.7h0.9l2.3,5.3h-1l-0.5-1.3h-2.5l-0.5,1.3h-1L418.1,412.7z M419.4,416l-0.9-2.1l-0.9,2.1H419.4z"
				/>
		</g>
		<g class="fp-tyger-st7">
			<path class="fp-tyger-st8" d="M423.1,413.6h-1.7v-0.9h4.3v0.9H424v4.4h-0.9V413.6z"/>
			<path class="fp-tyger-st8" d="M427,412.8h0.9v2.2h2.5v-2.2h0.9v5.3h-0.9v-2.2h-2.5v2.2H427V412.8z"/>
		</g>
		<g class="fp-tyger-st7">
			<path class="fp-tyger-st8" d="M181.2,422.1v-0.5h2.5v-1.5h0.5v2H181.2z"/>
		</g>
		<g class="fp-tyger-st7">
			<path class="fp-tyger-st8" d="M181.2,418.4v-0.5l3.1-1.3v0.5l-0.7,0.3v1.3l0.7,0.3v0.5L181.2,418.4z M183.1,417.7l-1.2,0.5l1.2,0.5V417.7z
				"/>
		</g>
		<g class="fp-tyger-st7">
			<path class="fp-tyger-st8" d="M183,416.2h-1.7v-0.5h1.7c0.6,0,0.9-0.3,0.9-0.7c0-0.4-0.3-0.7-0.8-0.7h-1.7v-0.5h1.7c0.9,0,1.4,0.5,1.4,1.2
				C184.3,415.7,183.9,416.2,183,416.2z"/>
			<path class="fp-tyger-st8" d="M181.2,412.9v-0.5l2.1-1.5h-2.1v-0.5h3v0.4l-2.2,1.6h2.2v0.5H181.2z"/>
			<path class="fp-tyger-st8" d="M181.2,409.5v-1.1c0-0.9,0.7-1.5,1.5-1.5h0c0.9,0,1.5,0.6,1.5,1.5v1.1H181.2z M181.7,409h2.1v-0.6
				c0-0.6-0.4-1-1-1h0c-0.6,0-1,0.4-1,1V409z"/>
		</g>
		<g class="fp-tyger-st7">
			<path class="fp-tyger-st8" d="M181.2,406.2v-1.3c0-0.4,0.1-0.6,0.3-0.8c0.2-0.2,0.4-0.2,0.7-0.2h0c0.5,0,0.8,0.3,0.9,0.7l1.1-0.8v0.6
				l-1.1,0.7v0.6h1.1v0.5H181.2z M182.7,404.9c0-0.4-0.2-0.6-0.5-0.6h0c-0.3,0-0.5,0.2-0.5,0.6v0.7h1V404.9z"/>
		</g>
		<g class="fp-tyger-st7">
			<path class="fp-tyger-st8" d="M183.1,402.3l-1.8,1.1v-0.6l1.3-0.8l-1.3-0.8v-0.6l1.8,1.1h1.2v0.5H183.1z"/>
		</g>
		<rect x="0.5" y="0.5" class="fp-tyger-st25" width="557.3" height="557.3"/>
	</g>
</g>
</svg>
