<?xml version="1.0" encoding="utf-8"?>
<!-- Generator: Adobe Illustrator 21.1.0, SVG Export Plug-In . SVG Version: 6.00 Build 0)  -->
<svg version="1.1" id="Layer_1" xmlns="http://www.w3.org/2000/svg" xmlns:xlink="http://www.w3.org/1999/xlink" x="0px" y="0px"
	 viewBox="0 0 558.3 558.3" style="enable-background:new 0 0 558.3 558.3;" xml:space="preserve">
<style type="text/css">
	.fp-toxaway-st0{fill:#E4E9E4;}
	.fp-toxaway-st1{fill:none;stroke:#A6A8AB;stroke-width:0.27;stroke-miterlimit:10;}
	.fp-toxaway-st2{fill:#C8D0C9;stroke:#32553B;stroke-width:0.24;stroke-miterlimit:10;}
	.fp-toxaway-st3{fill:#C8D0C9;stroke:#32553B;stroke-width:0.21;stroke-miterlimit:10;}
	.fp-toxaway-st4{fill:#E4E9E4;stroke:#32553B;stroke-width:0.27;stroke-miterlimit:10;}
	.fp-toxaway-st5{fill:#C8D0C9;stroke:#32553B;stroke-width:0.27;stroke-miterlimit:10;}
	.fp-toxaway-st6{fill:#E4E9E4;stroke:#32553B;stroke-width:0.24;stroke-miterlimit:10;}
	.fp-toxaway-st7{fill:none;stroke:#32553B;stroke-width:0.27;stroke-miterlimit:10;}
	.fp-toxaway-st8{fill:none;stroke:#32553B;stroke-width:7.59;stroke-linejoin:round;}
	.fp-toxaway-st9{fill:none;stroke:#32553B;stroke-width:4.33;stroke-miterlimit:10;}
	.fp-toxaway-st10{fill:none;stroke:#32553B;stroke-width:4.33;stroke-linejoin:round;}
	.fp-toxaway-st11{fill:none;stroke:#E4E9E4;stroke-width:7.59;stroke-linejoin:round;}
	.fp-toxaway-st12{fill:#32553B;}
	.fp-toxaway-st13{fill:none;stroke:#32553B;stroke-width:0.24;stroke-miterlimit:10;}
	.fp-toxaway-st14{fill:none;stroke:#32553B;stroke-width:0.21;stroke-miterlimit:10;}
	.fp-toxaway-st15{fill:#FFFFFF;stroke:#62A044;stroke-width:0.3;stroke-miterlimit:10;}
	.fp-toxaway-st16{fill:none;stroke:#799900;stroke-width:0.3;stroke-miterlimit:10;}
	.fp-toxaway-st17{fill:none;stroke:#799900;stroke-width:0.22;stroke-miterlimit:10;}
	.fp-toxaway-st18{fill:#FFFFFF;stroke:#62A044;stroke-width:0.22;stroke-miterlimit:10;}
	.fp-toxaway-st19{fill:none;stroke:#799900;stroke-width:0.13;stroke-miterlimit:10;}
	.fp-toxaway-st20{fill:#FFFFFF;stroke:#62A044;stroke-width:0.13;stroke-miterlimit:10;}
	.fp-toxaway-st21{fill:none;stroke:#32553B;stroke-width:0.84;stroke-miterlimit:10;}
	.fp-toxaway-st22{fill:#F5F7F5;}
	.fp-toxaway-st23{fill:none;stroke:#799900;stroke-width:0.16;stroke-miterlimit:10;}
	.fp-toxaway-st24{fill:#FFFFFF;stroke:#62A044;stroke-width:0.16;stroke-miterlimit:10;}
	.fp-toxaway-st25{enable-background:new    ;}
	.fp-toxaway-st26{fill:#C8D0C9;stroke:#32553B;stroke-width:0.2;stroke-miterlimit:10;}
	.fp-toxaway-st27{fill:none;stroke:#F5F7F5;stroke-miterlimit:10;}
</style>
<title>fp_toxaway</title>
<g id="Layer_2">
	<g id="DESIGN">
		<polyline class="fp-toxaway-st0" points="256.4,135.9 269.8,135.9 269.8,274.1 119.7,274.1 119.7,135.9 221.5,135.9 		"/>
		<line class="fp-toxaway-st1" x1="269.5" y1="206.3" x2="437.1" y2="206.3"/>
		<line class="fp-toxaway-st1" x1="269.5" y1="220.6" x2="437.1" y2="220.6"/>
		<line class="fp-toxaway-st1" x1="269.5" y1="192" x2="437.1" y2="192"/>
		<line class="fp-toxaway-st1" x1="269.5" y1="177.7" x2="437.1" y2="177.7"/>
		<line class="fp-toxaway-st1" x1="269.5" y1="163.4" x2="437.1" y2="163.4"/>
		<line class="fp-toxaway-st1" x1="269.5" y1="149.1" x2="437.1" y2="149.1"/>
		<line class="fp-toxaway-st1" x1="269.5" y1="134.7" x2="437.1" y2="134.7"/>
		<line class="fp-toxaway-st1" x1="269.5" y1="234.9" x2="437.1" y2="234.9"/>
		<line class="fp-toxaway-st1" x1="269.5" y1="249.2" x2="437.1" y2="249.2"/>
		<line class="fp-toxaway-st1" x1="269.5" y1="263.5" x2="437.1" y2="263.5"/>
		<line class="fp-toxaway-st1" x1="119.2" y1="277.9" x2="437.1" y2="277.9"/>
		<line class="fp-toxaway-st1" x1="119.2" y1="292.2" x2="437.1" y2="292.2"/>
		<line class="fp-toxaway-st1" x1="269.5" y1="306.5" x2="437.1" y2="306.5"/>
		<line class="fp-toxaway-st1" x1="118.5" y1="320.8" x2="437.1" y2="320.8"/>
		<line class="fp-toxaway-st1" x1="118.5" y1="335.1" x2="448.4" y2="335.1"/>
		<line class="fp-toxaway-st1" x1="118.5" y1="349.4" x2="448.4" y2="349.4"/>
		<line class="fp-toxaway-st1" x1="118.5" y1="363.8" x2="448.4" y2="363.8"/>
		<line class="fp-toxaway-st1" x1="118.5" y1="378.1" x2="448.4" y2="378.1"/>
		<line class="fp-toxaway-st1" x1="118.5" y1="392.4" x2="448.4" y2="392.4"/>
		<line class="fp-toxaway-st1" x1="118.5" y1="406.7" x2="448.4" y2="406.7"/>
		<line class="fp-toxaway-st1" x1="118.5" y1="421" x2="448.4" y2="421"/>
		<line class="fp-toxaway-st1" x1="118.5" y1="435.3" x2="448.4" y2="435.3"/>
		<line class="fp-toxaway-st1" x1="118.5" y1="449.6" x2="448.4" y2="449.6"/>
		<line class="fp-toxaway-st1" x1="118.5" y1="463.9" x2="448.4" y2="463.9"/>
		<line class="fp-toxaway-st1" x1="118.5" y1="478.2" x2="448.4" y2="478.2"/>
		<line class="fp-toxaway-st1" x1="119.2" y1="306.5" x2="437.1" y2="306.5"/>
		<rect x="120.5" y="335.8" class="fp-toxaway-st2" width="24.4" height="54.4"/>
		<path class="fp-toxaway-st2" d="M142.6,355v16c0,1.2-1,2.2-2.2,2.2h-10.8c-1.2,0-2.2-1-2.2-2.2v-16c0-1.2,1-2.2,2.2-2.2h10.8
			C141.7,352.8,142.6,353.8,142.6,355z"/>
		<circle class="fp-toxaway-st2" cx="132.9" cy="363" r="1.7"/>
		<rect x="121.3" y="275" class="fp-toxaway-st3" width="36.4" height="59.8"/>
		<polyline class="fp-toxaway-st3" points="174.6,408 174.6,403 198.3,403 198.3,408 		"/>
		<path class="fp-toxaway-st3" d="M181.2,391.5c0.2,0.5,0.3,1,0.4,1.5v3c0.1,0.5-0.3,0.9-0.8,1c-0.1,0-0.1,0-0.2,0h11.6c-0.5,0-0.9-0.4-0.9-0.8
			c0-0.1,0-0.1,0-0.2v-3c0-0.5,0.1-1.1,0.4-1.5"/>
		<ellipse class="fp-toxaway-st3" cx="186.5" cy="385.8" rx="6.7" ry="9.1"/>
		<rect x="176.4" y="397" class="fp-toxaway-st3" width="20.2" height="6.6"/>
		<rect x="421.9" y="467.3" class="fp-toxaway-st4" width="2.8" height="1.6"/>
		<rect x="441.7" y="467.3" class="fp-toxaway-st4" width="4.5" height="1.6"/>
		<rect x="389.3" y="464.3" class="fp-toxaway-st5" width="32.5" height="28.5"/>
		<rect x="297.9" y="470.4" class="fp-toxaway-st6" width="91.4" height="21.7"/>
		<polygon class="fp-toxaway-st5" points="330.9,468.9 330.9,467.9 359.5,467.9 359.5,493.2 330.9,493.2 		"/>
		<circle class="fp-toxaway-st5" cx="353.4" cy="482.9" r="4.3"/>
		<circle class="fp-toxaway-st5" cx="353.4" cy="473.6" r="3.3"/>
		<circle class="fp-toxaway-st5" cx="337.1" cy="473.6" r="2.8"/>
		<circle class="fp-toxaway-st5" cx="337.1" cy="482.9" r="2.8"/>
		<line class="fp-toxaway-st7" x1="359.5" y1="487.8" x2="330.9" y2="487.8"/>
		<rect x="316.2" y="373.8" class="fp-toxaway-st6" width="86.6" height="41.4"/>
		<polyline class="fp-toxaway-st8" points="130.2,494.4 119.2,494.4 119.2,135.3 221.6,135.3 		"/>
		<polyline class="fp-toxaway-st8" points="346.2,135.3 437.1,135.3 437.1,319 448.4,319 448.4,494.4 162.2,494.4 		"/>
		<line class="fp-toxaway-st8" x1="256.5" y1="135.3" x2="311" y2="135.3"/>
		<line class="fp-toxaway-st9" x1="269.8" y1="135.3" x2="269.8" y2="280.6"/>
		<polyline class="fp-toxaway-st10" points="362.2,135 362.2,64.4 205.4,64.4 205.4,135 		"/>
		<line class="fp-toxaway-st9" x1="263.3" y1="274.1" x2="269.8" y2="274.1"/>
		<line class="fp-toxaway-st9" x1="230.2" y1="274.1" x2="213.3" y2="274.1"/>
		<line class="fp-toxaway-st9" x1="180.9" y1="274.1" x2="119.2" y2="274.1"/>
		<line class="fp-toxaway-st9" x1="220.1" y1="281.7" x2="220.1" y2="273.9"/>
		<line class="fp-toxaway-st9" x1="220.1" y1="322.7" x2="220.1" y2="315.3"/>
		<polyline class="fp-toxaway-st9" points="205.6,328.1 205.6,322.9 270.4,322.9 		"/>
		<polyline class="fp-toxaway-st9" points="269.6,316.6 269.6,379.1 240,408.7 119.2,408.7 		"/>
		<line class="fp-toxaway-st9" x1="160.8" y1="335.5" x2="119.2" y2="335.5"/>
		<line class="fp-toxaway-st9" x1="205.6" y1="361.2" x2="205.6" y2="408.7"/>
		<line class="fp-toxaway-st10" x1="183.4" y1="494.5" x2="183.4" y2="488.1"/>
		<polyline class="fp-toxaway-st9" points="183.4,464.8 183.4,457.3 215.6,457.3 		"/>
		<line class="fp-toxaway-st9" x1="210.9" y1="457.2" x2="210.9" y2="494.5"/>
		<line class="fp-toxaway-st9" x1="249.3" y1="457" x2="258.5" y2="457"/>
		<line class="fp-toxaway-st9" x1="253.9" y1="457" x2="253.9" y2="494.3"/>
		<polyline class="fp-toxaway-st9" points="297.6,494.4 297.6,457 292.4,457 		"/>
		<line class="fp-toxaway-st11" x1="194.3" y1="135.3" x2="158.5" y2="135.3"/>
		<rect x="158.5" y="132.4" class="fp-toxaway-st12" width="36.6" height="0.7"/>
		<rect x="158.5" y="137.5" class="fp-toxaway-st12" width="36.6" height="0.7"/>
		<rect x="158.5" y="135" class="fp-toxaway-st12" width="36.6" height="0.7"/>
		<line class="fp-toxaway-st11" x1="408.8" y1="135.3" x2="373" y2="135.3"/>
		<rect x="373" y="132.4" class="fp-toxaway-st12" width="36.6" height="0.7"/>
		<rect x="373" y="137.5" class="fp-toxaway-st12" width="36.6" height="0.7"/>
		<rect x="373" y="135" class="fp-toxaway-st12" width="36.6" height="0.7"/>
		<line class="fp-toxaway-st13" x1="316.1" y1="385.6" x2="402.6" y2="385.6"/>
		<path class="fp-toxaway-st5" d="M373.7,396.6v13.7c0,1.3-1,2.3-2.3,2.3h-23.8c-1.3,0-2.3-1-2.3-2.3v-13.7c0-1.3,1-2.3,2.3-2.3h23.8
			C372.7,394.4,373.7,395.4,373.7,396.6z"/>
		<circle class="fp-toxaway-st5" cx="359.5" cy="403.5" r="1.6"/>
		<line class="fp-toxaway-st14" x1="123.6" y1="334.8" x2="157.7" y2="275"/>
		<line class="fp-toxaway-st14" x1="157.7" y1="334.8" x2="123.6" y2="275"/>
		<circle class="fp-toxaway-st3" cx="140.6" cy="304.9" r="1.5"/>
		<line class="fp-toxaway-st11" x1="448.4" y1="433.6" x2="448.4" y2="351.7"/>
		<rect x="448.1" y="351.7" class="fp-toxaway-st12" width="0.7" height="81.9"/>
		<rect x="450.6" y="351.7" class="fp-toxaway-st12" width="0.7" height="81.9"/>
		<rect x="445.6" y="351.7" class="fp-toxaway-st12" width="0.7" height="81.9"/>
		<rect x="445.9" y="415.8" class="fp-toxaway-st12" width="5.1" height="0.7"/>
		<rect x="445.9" y="368.8" class="fp-toxaway-st12" width="5.1" height="0.7"/>
		<line class="fp-toxaway-st11" x1="437.1" y1="259.7" x2="437.1" y2="177.8"/>
		<rect x="436.7" y="177.8" class="fp-toxaway-st12" width="0.7" height="81.9"/>
		<rect x="439.3" y="177.8" class="fp-toxaway-st12" width="0.7" height="81.9"/>
		<rect x="434.2" y="177.8" class="fp-toxaway-st12" width="0.7" height="81.9"/>
		<rect x="434.6" y="241.9" class="fp-toxaway-st12" width="5.1" height="0.7"/>
		<rect x="434.6" y="194.9" class="fp-toxaway-st12" width="5.1" height="0.7"/>
		<rect x="220.6" y="96.2" class="fp-toxaway-st15" width="1.8" height="33.7"/>
		<path class="fp-toxaway-st16" d="M222.3,96.2c17.6,0,34,14.2,34,34"/>
		<rect x="345.1" y="96.2" class="fp-toxaway-st15" width="1.8" height="33.7"/>
		<path class="fp-toxaway-st16" d="M345.1,96.2c-17.6,0-34,14.2-34,34"/>
		<rect x="290.6" y="422.8" class="fp-toxaway-st15" width="1.6" height="31.4"/>
		<path class="fp-toxaway-st16" d="M290.6,422.8c-16.4,0-31.7,13.2-31.7,31.6"/>
		<rect x="247.6" y="422.8" class="fp-toxaway-st15" width="1.6" height="31.4"/>
		<path class="fp-toxaway-st16" d="M247.6,422.8c-16.4,0-31.7,13.2-31.7,31.6"/>
		<rect x="208.9" y="327.8" class="fp-toxaway-st15" width="31.4" height="1.6"/>
		<path class="fp-toxaway-st16" d="M240.3,329.5c0,16.4-13.2,31.7-31.6,31.7"/>
		<rect x="262.1" y="239.1" class="fp-toxaway-st15" width="1.6" height="31.4"/>
		<path class="fp-toxaway-st16" d="M262.1,239c-16.4,0-31.7,13.2-31.7,31.6"/>
		<path class="fp-toxaway-st16" d="M162.2,488.7c0-4.9,0.2-12.6-9.1-21.8"/>
		
			<rect x="126.8" y="477.8" transform="matrix(0.7071 -0.7071 0.7071 0.7071 -296.6714 240.9452)" class="fp-toxaway-st15" width="31.4" height="1.6"/>
		<path class="fp-toxaway-st16" d="M216.2,314.7c-4.9,0-12.6,0.2-21.8-9.1"/>
		
			<rect x="190.4" y="294.2" transform="matrix(0.7071 -0.7071 0.7071 0.7071 -148.2579 232.1712)" class="fp-toxaway-st15" width="31.4" height="1.6"/>
		<path class="fp-toxaway-st16" d="M181.4,277.6c0,4.9-0.2,12.6,9.1,21.8"/>
		
			<rect x="185.3" y="286.9" transform="matrix(0.7071 -0.7071 0.7071 0.7071 -144.5727 226.4205)" class="fp-toxaway-st15" width="31.4" height="1.6"/>
		<path class="fp-toxaway-st17" d="M180,465c-3.6,0-9.1-0.1-15.8,6.6"/>
		
			<rect x="172" y="467.8" transform="matrix(0.7071 -0.7071 0.7071 0.7071 -288.2923 262.4382)" class="fp-toxaway-st18" width="1.2" height="22.8"/>
		<path class="fp-toxaway-st19" d="M145.7,391.7c3.3,0.1,6.4,1.3,8.8,3.5"/>
		
			<rect x="143.4" y="399.7" transform="matrix(0.7071 -0.7071 0.7071 0.7071 -238.9725 223.2797)" class="fp-toxaway-st20" width="13.3" height="0.7"/>
		<polyline class="fp-toxaway-st21" points="122,391.3 144.4,391.3 144.4,393 		"/>
		<polyline class="fp-toxaway-st21" points="122,405.5 144.4,405.5 144.4,403.8 		"/>
		<rect x="322.8" y="244.7" class="fp-toxaway-st22" width="59" height="17.2"/>
		<rect x="330.2" y="430" class="fp-toxaway-st22" width="59" height="17.2"/>
		<line class="fp-toxaway-st7" x1="442.7" y1="471" x2="423.5" y2="471"/>
		<line class="fp-toxaway-st7" x1="441.6" y1="468.1" x2="424.6" y2="468.1"/>
		<polyline class="fp-toxaway-st7" points="442.7,468.8 442.7,492.8 423.6,492.8 423.6,468.8 		"/>
		<path class="fp-toxaway-st23" d="M424.5,466.4c0.1-4.1,1.6-8.1,4.4-11.2"/>
		
			<rect x="434.8" y="452.3" transform="matrix(0.7071 -0.7071 0.7071 0.7071 -198.3553 442.7689)" class="fp-toxaway-st24" width="0.9" height="17"/>
		<rect x="425.4" y="475.7" class="fp-toxaway-st22" width="15.7" height="5.6"/>
		<g class="fp-toxaway-st25">
			<path class="fp-toxaway-st12" d="M426,477.2h0.9c0.6,0,0.9,0.3,0.9,0.8v0c0,0.5-0.4,0.8-1,0.8h-0.5v0.8H426V477.2z M426.9,478.5
				c0.3,0,0.5-0.2,0.5-0.4v0c0-0.3-0.2-0.4-0.5-0.4h-0.5v0.9H426.9z"/>
		</g>
		<g class="fp-toxaway-st25">
			<path class="fp-toxaway-st12" d="M429,477.2h0.4l1,2.4H430l-0.2-0.6h-1.1l-0.2,0.6h-0.4L429,477.2z M429.6,478.7l-0.4-1l-0.4,1H429.6z"/>
			<path class="fp-toxaway-st12" d="M431,477.2h0.4l1.3,1.6v-1.6h0.4v2.4h-0.4l-1.3-1.7v1.7H431V477.2z"/>
			<path class="fp-toxaway-st12" d="M434.4,477.6h-0.8v-0.4h1.9v0.4h-0.8v2h-0.4V477.6z"/>
		</g>
		<g class="fp-toxaway-st25">
			<path class="fp-toxaway-st12" d="M436.2,477.2h1.1c0.3,0,0.5,0.1,0.7,0.2c0.1,0.1,0.2,0.3,0.2,0.5v0c0,0.4-0.2,0.6-0.6,0.7l0.6,0.9h-0.5
				l-0.6-0.8h-0.5v0.8h-0.4V477.2z M437.2,478.4c0.3,0,0.5-0.2,0.5-0.4v0c0-0.3-0.2-0.4-0.5-0.4h-0.6v0.8H437.2z"/>
		</g>
		<g class="fp-toxaway-st25">
			<path class="fp-toxaway-st12" d="M439.4,478.7l-0.9-1.4h0.5l0.7,1.1l0.7-1.1h0.5l-0.9,1.4v0.9h-0.4V478.7z"/>
		</g>
		<g class="fp-toxaway-st25">
			<path class="fp-toxaway-st12" d="M251.4,87.8h3.9c1,0,1.8,0.3,2.2,0.8c0.4,0.4,0.6,0.8,0.6,1.4v0c0,1-0.6,1.6-1.2,1.9c1,0.3,1.7,0.9,1.7,2.1
				v0c0,1.5-1.3,2.4-3.2,2.4h-4V87.8z M256.5,90.2c0-0.7-0.5-1.1-1.5-1.1h-2.2v2.3h2.1C255.9,91.4,256.5,91,256.5,90.2L256.5,90.2z
				 M255.2,92.7h-2.4V95h2.5c1,0,1.7-0.4,1.7-1.2v0C257,93.1,256.4,92.7,255.2,92.7z"/>
			<path class="fp-toxaway-st12" d="M263.7,87.7h1.4l3.8,8.6h-1.6l-0.9-2.1h-4.1l-0.9,2.1H260L263.7,87.7z M265.9,93l-1.5-3.4l-1.5,3.4H265.9z"
				/>
		</g>
		<g class="fp-toxaway-st25">
			<path class="fp-toxaway-st12" d="M270.9,87.8h1.5V95h4.5v1.4h-6V87.8z"/>
		</g>
		<g class="fp-toxaway-st25">
			<path class="fp-toxaway-st12" d="M278.1,92.1L278.1,92.1c0-2.5,1.8-4.5,4.4-4.5c1.6,0,2.5,0.6,3.4,1.3l-1,1.1c-0.7-0.6-1.4-1.1-2.4-1.1
				c-1.6,0-2.8,1.3-2.8,3v0c0,1.7,1.2,3,2.8,3c1.1,0,1.7-0.4,2.5-1.1l1,1c-0.9,0.9-1.9,1.5-3.5,1.5C280,96.5,278.1,94.6,278.1,92.1z
				"/>
		</g>
		<g class="fp-toxaway-st25">
			<path class="fp-toxaway-st12" d="M287.4,92.1L287.4,92.1c0-2.4,1.9-4.5,4.5-4.5s4.5,2,4.5,4.4v0c0,2.4-1.9,4.4-4.5,4.4
				S287.4,94.5,287.4,92.1z M294.8,92.1L294.8,92.1c0-1.7-1.2-3.1-2.9-3.1s-2.9,1.4-2.9,3v0c0,1.7,1.2,3,2.9,3
				S294.8,93.8,294.8,92.1z"/>
			<path class="fp-toxaway-st12" d="M298.7,87.8h1.4l4.6,5.9v-5.9h1.5v8.6h-1.3l-4.7-6.1v6.1h-1.5V87.8z"/>
			<path class="fp-toxaway-st12" d="M311.4,93l-3.4-5.2h1.8l2.4,3.8l2.4-3.8h1.7l-3.4,5.2v3.4h-1.5V93z"/>
		</g>
		<g class="fp-toxaway-st25">
			<path class="fp-toxaway-st12" d="M271.2,104.3l-0.9,0.3l-0.2-0.7l1.4-0.4h0.6v5.1h-0.9V104.3z"/>
			<path class="fp-toxaway-st12" d="M276.1,107.4h-2.6l-0.2-0.6l2.8-3.4h0.8v3.3h0.7v0.7H277v1.1h-0.9V107.4z M276.1,106.7v-2l-1.7,2H276.1z"/>
			<path class="fp-toxaway-st12" d="M278.6,105.1c0.4-0.1,0.7-0.3,0.6-0.7h-0.4v-1h1v0.9c0,0.8-0.4,1.2-1.1,1.2L278.6,105.1z"/>
			<path class="fp-toxaway-st12" d="M285.2,106l0.9-1.3h0.9l-1.4,1.9l1.4,2h-1l-0.9-1.4l-0.9,1.4h-0.9l1.4-2l-1.4-1.9h1L285.2,106z"/>
			<path class="fp-toxaway-st12" d="M291.1,108.1c-0.4-0.4-0.6-0.9-0.6-1.9v0c0-1.6,0.7-2.8,2.2-2.8c0.7,0,1.1,0.2,1.6,0.6l-0.5,0.7
				c-0.4-0.3-0.7-0.4-1.1-0.4c-0.9,0-1.2,0.9-1.2,1.6c0.3-0.3,0.7-0.5,1.2-0.5c1,0,1.8,0.6,1.8,1.6v0c0,1-0.8,1.7-1.9,1.7
				C291.9,108.7,291.4,108.5,291.1,108.1z M293.5,107L293.5,107c0-0.5-0.4-0.9-1-0.9s-1,0.4-1,0.9v0c0,0.5,0.4,0.9,1.1,0.9
				C293.1,107.9,293.5,107.5,293.5,107z"/>
			<path class="fp-toxaway-st12" d="M295.4,105.1c0.4-0.1,0.7-0.3,0.6-0.7h-0.4v-1h1v0.9c0,0.8-0.4,1.2-1.1,1.2L295.4,105.1z"/>
		</g>
		<g class="fp-toxaway-st25">
			<path class="fp-toxaway-st12" d="M170.3,354.9h-1.9v-0.6h2.7v0.5l-1.7,3.3h-0.8L170.3,354.9z"/>
			<path class="fp-toxaway-st12" d="M171.7,355.6c0.3-0.1,0.5-0.2,0.5-0.5h-0.3v-0.7h0.7v0.6c0,0.6-0.3,0.9-0.8,0.9L171.7,355.6z"/>
			<path class="fp-toxaway-st12" d="M175.3,357.5l0.5-0.4c0.3,0.3,0.6,0.5,1,0.5c0.4,0,0.7-0.2,0.7-0.6v0c0-0.4-0.3-0.6-0.9-0.6h-0.3l-0.1-0.4
				l1-1.1h-1.6v-0.6h2.5v0.5l-1.1,1.1c0.6,0.1,1.1,0.4,1.1,1.1v0c0,0.7-0.5,1.2-1.3,1.2C176.1,358.2,175.6,357.9,175.3,357.5z"/>
			<path class="fp-toxaway-st12" d="M178.8,355.6c0.3-0.1,0.5-0.2,0.5-0.5H179v-0.7h0.7v0.6c0,0.6-0.3,0.9-0.8,0.9L178.8,355.6z M180.1,355.6
				c0.3-0.1,0.5-0.2,0.5-0.5h-0.3v-0.7h0.7v0.6c0,0.6-0.3,0.9-0.8,0.9L180.1,355.6z"/>
			<path class="fp-toxaway-st12" d="M185,356.2l0.7-1h0.7l-1,1.4l1.1,1.5h-0.7l-0.7-1l-0.7,1h-0.7l1-1.5l-1-1.4h0.7L185,356.2z"/>
			<path class="fp-toxaway-st12" d="M189.6,355l-0.7,0.2l-0.1-0.5l1-0.3h0.5v3.8h-0.7V355z"/>
			<path class="fp-toxaway-st12" d="M191.2,357.6l1.3-1.1c0.5-0.4,0.7-0.7,0.7-1c0-0.4-0.3-0.6-0.6-0.6s-0.6,0.2-0.9,0.6l-0.5-0.4
				c0.4-0.5,0.7-0.8,1.4-0.8c0.7,0,1.3,0.5,1.3,1.1v0c0,0.6-0.3,0.9-1,1.5l-0.8,0.7h1.8v0.6h-2.7V357.6z"/>
			<path class="fp-toxaway-st12" d="M194.7,355.6c0.3-0.1,0.5-0.2,0.5-0.5h-0.3v-0.7h0.7v0.6c0,0.6-0.3,0.9-0.8,0.9L194.7,355.6z"/>
		</g>
		<g class="fp-toxaway-st25">
			<path class="fp-toxaway-st12" d="M171.4,340h2.4c0.6,0,1.1,0.2,1.4,0.5c0.2,0.2,0.4,0.5,0.4,0.9v0c0,0.6-0.4,1-0.8,1.2
				c0.6,0.2,1.1,0.6,1.1,1.3v0c0,0.9-0.8,1.5-2,1.5h-2.5V340z M174.6,341.5c0-0.4-0.3-0.7-0.9-0.7h-1.3v1.4h1.3
				C174.2,342.2,174.6,342,174.6,341.5L174.6,341.5z M173.8,343h-1.5v1.5h1.5c0.6,0,1-0.3,1-0.7v0C174.9,343.3,174.5,343,173.8,343z
				"/>
		</g>
		<g class="fp-toxaway-st25">
			<path class="fp-toxaway-st12" d="M179.1,340h0.9l2.3,5.3h-1l-0.5-1.3h-2.5l-0.5,1.3h-1L179.1,340z M180.4,343.2l-0.9-2.1l-0.9,2.1H180.4z"/>
		</g>
		<g class="fp-toxaway-st25">
			<path class="fp-toxaway-st12" d="M184.1,340.9h-1.7V340h4.3v0.9H185v4.4h-0.9V340.9z"/>
			<path class="fp-toxaway-st12" d="M188,340h0.9v2.2h2.5V340h0.9v5.3h-0.9v-2.2H189v2.2H188V340z"/>
		</g>
		<g class="fp-toxaway-st25">
			<path class="fp-toxaway-st12" d="M215.9,386.1l0.4-0.5c0.3,0.3,0.6,0.5,1,0.5c0.5,0,0.8-0.3,0.8-0.7v0c0-0.4-0.3-0.6-0.8-0.6
				c-0.3,0-0.5,0.1-0.7,0.2l-0.4-0.3l0.1-1.9h2.3v0.6h-1.7l-0.1,0.9c0.2-0.1,0.3-0.1,0.6-0.1c0.7,0,1.3,0.4,1.3,1.2v0
				c0,0.8-0.6,1.3-1.4,1.3C216.7,386.7,216.3,386.5,215.9,386.1z"/>
			<path class="fp-toxaway-st12" d="M219.5,384.1c0.3-0.1,0.5-0.2,0.5-0.5h-0.3v-0.7h0.7v0.6c0,0.6-0.3,0.9-0.8,0.9L219.5,384.1z"/>
			<path class="fp-toxaway-st12" d="M223,385.6L223,385.6c0-0.5,0.3-0.8,0.7-0.9c-0.3-0.2-0.6-0.4-0.6-0.8v0c0-0.6,0.6-1,1.3-1
				c0.8,0,1.3,0.4,1.3,1v0c0,0.4-0.2,0.7-0.6,0.8c0.4,0.2,0.7,0.5,0.7,0.9v0c0,0.7-0.6,1.1-1.4,1.1C223.6,386.7,223,386.3,223,385.6
				z M225.3,385.6L225.3,385.6c0-0.4-0.3-0.6-0.8-0.6c-0.4,0-0.8,0.2-0.8,0.6v0c0,0.3,0.3,0.6,0.8,0.6
				C225,386.1,225.3,385.9,225.3,385.6z M225.1,383.9L225.1,383.9c0-0.3-0.3-0.5-0.7-0.5s-0.7,0.2-0.7,0.5v0c0,0.3,0.3,0.6,0.7,0.6
				C224.9,384.5,225.1,384.2,225.1,383.9z"/>
			<path class="fp-toxaway-st12" d="M226.6,384.1c0.3-0.1,0.5-0.2,0.5-0.5h-0.3v-0.7h0.7v0.6c0,0.6-0.3,0.9-0.8,0.9L226.6,384.1z M227.9,384.1
				c0.3-0.1,0.5-0.2,0.5-0.5H228v-0.7h0.7v0.6c0,0.6-0.3,0.9-0.8,0.9L227.9,384.1z"/>
			<path class="fp-toxaway-st12" d="M232.7,384.7l0.7-1h0.7l-1,1.4l1.1,1.5h-0.7l-0.7-1l-0.7,1h-0.7l1-1.5l-1-1.4h0.7L232.7,384.7z"/>
			<path class="fp-toxaway-st12" d="M238.6,383.4h-1.9v-0.6h2.7v0.5l-1.7,3.3h-0.8L238.6,383.4z"/>
			<path class="fp-toxaway-st12" d="M240.1,384.1c0.3-0.1,0.5-0.2,0.5-0.5h-0.3v-0.7h0.7v0.6c0,0.6-0.3,0.9-0.8,0.9L240.1,384.1z"/>
			<path class="fp-toxaway-st12" d="M244.2,386.3c-0.3-0.3-0.5-0.7-0.5-1.4v0c0-1.2,0.6-2.1,1.6-2.1c0.5,0,0.8,0.2,1.2,0.4l-0.4,0.5
				c-0.3-0.2-0.5-0.3-0.8-0.3c-0.7,0-0.9,0.7-0.9,1.2c0.2-0.2,0.5-0.4,0.9-0.4c0.7,0,1.3,0.4,1.3,1.2v0c0,0.8-0.6,1.3-1.4,1.3
				C244.8,386.7,244.4,386.6,244.2,386.3z M246,385.5L246,385.5c0-0.4-0.3-0.7-0.8-0.7s-0.8,0.3-0.8,0.7v0c0,0.4,0.3,0.7,0.8,0.7
				S246,385.8,246,385.5z"/>
			<path class="fp-toxaway-st12" d="M247.4,384.1c0.3-0.1,0.5-0.2,0.5-0.5h-0.3v-0.7h0.7v0.6c0,0.6-0.3,0.9-0.8,0.9L247.4,384.1z M248.6,384.1
				c0.3-0.1,0.5-0.2,0.5-0.5h-0.3v-0.7h0.7v0.6c0,0.6-0.3,0.9-0.8,0.9L248.6,384.1z"/>
		</g>
		<g class="fp-toxaway-st25">
			<path class="fp-toxaway-st12" d="M216.8,371.2L216.8,371.2c0-1.5,1.1-2.8,2.7-2.8c1,0,1.6,0.3,2.1,0.8L221,370c-0.4-0.4-0.9-0.7-1.5-0.7
				c-1,0-1.8,0.8-1.8,1.9v0c0,1,0.7,1.9,1.8,1.9c0.7,0,1.1-0.3,1.5-0.7l0.6,0.6c-0.6,0.6-1.2,0.9-2.2,0.9
				C217.9,373.9,216.8,372.7,216.8,371.2z"/>
		</g>
		<g class="fp-toxaway-st25">
			<path class="fp-toxaway-st12" d="M222.9,368.5h0.9v4.5h2.8v0.8h-3.7V368.5z"/>
		</g>
		<g class="fp-toxaway-st25">
			<path class="fp-toxaway-st12" d="M227.4,371.2L227.4,371.2c0-1.5,1.2-2.8,2.8-2.8c1.6,0,2.8,1.2,2.8,2.7v0c0,1.5-1.2,2.7-2.8,2.7
				S227.4,372.7,227.4,371.2z M232,371.2L232,371.2c0-1-0.8-1.9-1.8-1.9s-1.8,0.8-1.8,1.9v0c0,1,0.8,1.9,1.8,1.9
				S232,372.2,232,371.2z"/>
		</g>
		<g class="fp-toxaway-st25">
			<path class="fp-toxaway-st12" d="M234,373.1l0.6-0.7c0.5,0.4,1,0.7,1.7,0.7c0.6,0,0.9-0.3,0.9-0.7v0c0-0.4-0.2-0.6-1.2-0.8
				c-1.1-0.3-1.8-0.6-1.8-1.6v0c0-0.9,0.8-1.5,1.8-1.5c0.8,0,1.4,0.2,1.9,0.7l-0.5,0.7c-0.5-0.4-1-0.5-1.4-0.5
				c-0.5,0-0.9,0.3-0.9,0.6v0c0,0.4,0.2,0.6,1.3,0.8c1.1,0.3,1.7,0.7,1.7,1.6v0c0,1-0.8,1.6-1.9,1.6
				C235.4,373.9,234.6,373.6,234,373.1z"/>
			<path class="fp-toxaway-st12" d="M239.5,368.5h3.9v0.8h-3v1.4h2.7v0.8h-2.7v1.4h3v0.8h-4V368.5z"/>
			<path class="fp-toxaway-st12" d="M246.2,369.4h-1.7v-0.9h4.3v0.9h-1.7v4.4h-0.9V369.4z"/>
		</g>
		<circle class="fp-toxaway-st26" cx="232.5" cy="475.6" r="12.7"/>
		<g class="fp-toxaway-st25">
			<path class="fp-toxaway-st12" d="M224.4,473.5h0.7v1.7h2v-1.7h0.7v4.1h-0.7v-1.7h-2v1.7h-0.7V473.5z"/>
		</g>
		<g class="fp-toxaway-st25">
			<path class="fp-toxaway-st12" d="M228.8,473.5h0.8l1.2,3.1l1.2-3.1h0.8l-1.7,4.1h-0.6L228.8,473.5z"/>
		</g>
		<g class="fp-toxaway-st25">
			<path class="fp-toxaway-st12" d="M234.6,473.5h0.7l1.8,4.1h-0.8l-0.4-1H234l-0.4,1h-0.7L234.6,473.5z M235.6,476l-0.7-1.6l-0.7,1.6H235.6z"
				/>
		</g>
		<g class="fp-toxaway-st25">
			<path class="fp-toxaway-st12" d="M237.6,475.6L237.6,475.6c0-1.2,0.9-2.1,2.1-2.1c0.8,0,1.2,0.3,1.6,0.6l-0.5,0.5c-0.3-0.3-0.7-0.5-1.1-0.5
				c-0.8,0-1.4,0.6-1.4,1.4v0c0,0.8,0.6,1.5,1.4,1.5c0.5,0,0.8-0.2,1.2-0.5l0.5,0.5c-0.4,0.4-0.9,0.7-1.7,0.7
				C238.5,477.7,237.6,476.8,237.6,475.6z"/>
		</g>
		<rect x="263.4" y="462" class="fp-toxaway-st3" width="24" height="26.7"/>
		<line class="fp-toxaway-st14" x1="287.5" y1="485.8" x2="263.5" y2="485.8"/>
		<g class="fp-toxaway-st25">
			<path class="fp-toxaway-st12" d="M264.9,473.6h0.5v2.5h1.5v0.5h-2V473.6z"/>
		</g>
		<g class="fp-toxaway-st25">
			<path class="fp-toxaway-st12" d="M268.6,473.6h0.5l1.3,3.1h-0.5l-0.3-0.7h-1.3l-0.3,0.7h-0.5L268.6,473.6z M269.4,475.4l-0.5-1.2l-0.5,1.2
				H269.4z"/>
		</g>
		<g class="fp-toxaway-st25">
			<path class="fp-toxaway-st12" d="M270.9,475.3v-1.7h0.5v1.7c0,0.6,0.3,0.9,0.7,0.9c0.4,0,0.7-0.3,0.7-0.8v-1.7h0.5v1.7
				c0,0.9-0.5,1.4-1.2,1.4C271.3,476.7,270.9,476.2,270.9,475.3z"/>
			<path class="fp-toxaway-st12" d="M274.2,473.6h0.5l1.5,2.1v-2.1h0.5v3h-0.4l-1.6-2.2v2.2h-0.5V473.6z"/>
			<path class="fp-toxaway-st12" d="M277.5,473.6h1.1c0.9,0,1.5,0.7,1.5,1.5v0c0,0.9-0.6,1.5-1.5,1.5h-1.1V473.6z M278,474.1v2.1h0.6
				c0.6,0,1-0.4,1-1v0c0-0.6-0.4-1-1-1H278z"/>
		</g>
		<g class="fp-toxaway-st25">
			<path class="fp-toxaway-st12" d="M280.9,473.6h1.3c0.4,0,0.6,0.1,0.8,0.3c0.2,0.2,0.2,0.4,0.2,0.7v0c0,0.5-0.3,0.8-0.7,0.9l0.8,1.1h-0.6
				l-0.7-1.1h-0.6v1.1h-0.5V473.6z M282.1,475.1c0.4,0,0.6-0.2,0.6-0.5v0c0-0.3-0.2-0.5-0.6-0.5h-0.7v1H282.1z"/>
		</g>
		<g class="fp-toxaway-st25">
			<path class="fp-toxaway-st12" d="M284.8,475.4l-1.1-1.8h0.6l0.8,1.3l0.8-1.3h0.6l-1.1,1.8v1.2h-0.5V475.4z"/>
		</g>
		<g class="fp-toxaway-st25">
			<path class="fp-toxaway-st12" d="M165.2,197.8h3.4c0.9,0,1.5,0.2,2,0.7c0.3,0.3,0.5,0.7,0.5,1.3v0c0,0.9-0.5,1.4-1.1,1.7
				c0.9,0.3,1.5,0.8,1.5,1.8v0c0,1.4-1.1,2.1-2.8,2.1h-3.5V197.8z M169.7,200c0-0.6-0.5-1-1.3-1h-1.9v2h1.8
				C169.2,201,169.7,200.7,169.7,200L169.7,200z M168.6,202.1h-2.1v2.1h2.2c0.9,0,1.5-0.4,1.5-1v0
				C170.1,202.5,169.6,202.1,168.6,202.1z"/>
			<path class="fp-toxaway-st12" d="M173.4,197.8h5.6v1.2h-4.3v2h3.8v1.2h-3.8v2h4.3v1.2h-5.7V197.8z"/>
			<path class="fp-toxaway-st12" d="M181.1,197.8h2.8c2.4,0,4,1.6,4,3.8v0c0,2.1-1.6,3.8-4,3.8h-2.8V197.8z M182.5,199v5.2h1.5
				c1.6,0,2.6-1.1,2.6-2.6v0c0-1.5-1-2.6-2.6-2.6H182.5z"/>
			<path class="fp-toxaway-st12" d="M190,197.8h3.4c1,0,1.7,0.3,2.2,0.8c0.4,0.4,0.6,1,0.6,1.6v0c0,1.2-0.7,2-1.8,2.3l2,2.9h-1.6l-1.9-2.6h-1.7
				v2.6H190V197.8z M193.3,201.6c1,0,1.6-0.5,1.6-1.3v0c0-0.8-0.6-1.3-1.6-1.3h-1.9v2.5H193.3z"/>
			<path class="fp-toxaway-st12" d="M198,201.6L198,201.6c0-2.2,1.6-3.9,4-3.9s4,1.8,4,3.9v0c0,2.1-1.6,3.9-4,3.9
				C199.6,205.5,198,203.8,198,201.6z M204.5,201.6L204.5,201.6c0-1.5-1.1-2.7-2.6-2.7c-1.5,0-2.6,1.2-2.6,2.7v0
				c0,1.5,1.1,2.7,2.6,2.7S204.5,203.1,204.5,201.6z"/>
			<path class="fp-toxaway-st12" d="M207.6,201.6L207.6,201.6c0-2.2,1.6-3.9,4-3.9s4,1.8,4,3.9v0c0,2.1-1.6,3.9-4,3.9
				C209.2,205.5,207.6,203.8,207.6,201.6z M214.1,201.6L214.1,201.6c0-1.5-1.1-2.7-2.6-2.7c-1.5,0-2.6,1.2-2.6,2.7v0
				c0,1.5,1.1,2.7,2.6,2.7S214.1,203.1,214.1,201.6z"/>
			<path class="fp-toxaway-st12" d="M217.6,197.8h1.4l2.3,3.6l2.3-3.6h1.4v7.6h-1.3V200l-2.4,3.6h0l-2.4-3.6v5.4h-1.3V197.8z"/>
		</g>
		<g class="fp-toxaway-st25">
			<path class="fp-toxaway-st12" d="M178.3,212.4l-0.8,0.2l-0.2-0.6l1.2-0.4h0.5v4.5h-0.8V212.4z"/>
			<path class="fp-toxaway-st12" d="M180.3,215.5l1.5-1.3c0.6-0.5,0.8-0.8,0.8-1.2c0-0.4-0.3-0.7-0.7-0.7s-0.7,0.2-1,0.7l-0.6-0.4
				c0.4-0.6,0.9-0.9,1.7-0.9c0.9,0,1.5,0.5,1.5,1.3v0c0,0.7-0.4,1.1-1.2,1.7l-0.9,0.8h2.1v0.7h-3.3V215.5z"/>
			<path class="fp-toxaway-st12" d="M184.4,213.2c0.4-0.1,0.6-0.3,0.6-0.6h-0.3v-0.9h0.9v0.8c0,0.7-0.3,1-1,1.1L184.4,213.2z"/>
			<path class="fp-toxaway-st12" d="M188.6,215.5l0.6-0.5c0.3,0.4,0.7,0.6,1.2,0.6c0.4,0,0.8-0.3,0.8-0.7v0c0-0.4-0.4-0.7-1-0.7h-0.4l-0.1-0.5
				l1.2-1.3h-1.9v-0.7h3v0.6l-1.3,1.3c0.7,0.1,1.3,0.4,1.3,1.3v0c0,0.8-0.6,1.4-1.6,1.4C189.6,216.2,189,215.9,188.6,215.5z"/>
			<path class="fp-toxaway-st12" d="M192.8,213.2c0.4-0.1,0.6-0.3,0.6-0.6H193v-0.9h0.9v0.8c0,0.7-0.3,1-1,1.1L192.8,213.2z M194.3,213.2
				c0.4-0.1,0.6-0.3,0.5-0.6h-0.3v-0.9h0.9v0.8c0,0.7-0.3,1-1,1.1L194.3,213.2z"/>
			<path class="fp-toxaway-st12" d="M200.1,213.9l0.8-1.1h0.8l-1.2,1.7l1.2,1.7h-0.8l-0.8-1.2l-0.8,1.2h-0.8l1.2-1.7l-1.2-1.7h0.8L200.1,213.9z
				"/>
			<path class="fp-toxaway-st12" d="M205.6,212.4l-0.8,0.2l-0.2-0.6l1.2-0.4h0.5v4.5h-0.8V212.4z"/>
			<path class="fp-toxaway-st12" d="M207.5,215.5l0.6-0.5c0.3,0.4,0.7,0.6,1.2,0.6c0.4,0,0.8-0.3,0.8-0.7v0c0-0.4-0.4-0.7-1-0.7h-0.4l-0.1-0.5
				l1.2-1.3h-1.9v-0.7h3v0.6l-1.3,1.3c0.7,0.1,1.3,0.4,1.3,1.3v0c0,0.8-0.6,1.4-1.6,1.4C208.4,216.2,207.9,215.9,207.5,215.5z"/>
			<path class="fp-toxaway-st12" d="M211.7,213.2c0.4-0.1,0.6-0.3,0.6-0.6h-0.3v-0.9h0.9v0.8c0,0.7-0.3,1-1,1.1L211.7,213.2z"/>
		</g>
		<g class="fp-toxaway-st25">
			<path class="fp-toxaway-st12" d="M333.8,241.7h1.3v6.4h4v1.2h-5.3V241.7z"/>
			<path class="fp-toxaway-st12" d="M341,241.7h1.3v7.6H341V241.7z"/>
			<path class="fp-toxaway-st12" d="M344.2,241.7h1.5l2.3,5.8l2.3-5.8h1.4l-3.1,7.6h-1.2L344.2,241.7z"/>
			<path class="fp-toxaway-st12" d="M353.5,241.7h1.3v7.6h-1.3V241.7z"/>
			<path class="fp-toxaway-st12" d="M357.3,241.7h1.2l4.1,5.2v-5.2h1.3v7.6h-1.1l-4.2-5.4v5.4h-1.3V241.7z"/>
			<path class="fp-toxaway-st12" d="M365.9,245.5L365.9,245.5c0-2.1,1.6-3.9,3.9-3.9c1.3,0,2.1,0.4,2.9,1l-0.8,1c-0.6-0.5-1.2-0.8-2.1-0.8
				c-1.4,0-2.5,1.2-2.5,2.7v0c0,1.6,1,2.7,2.6,2.7c0.7,0,1.4-0.2,1.8-0.6v-1.4h-1.9V245h3.2v3.2c-0.7,0.6-1.8,1.2-3.2,1.2
				C367.5,249.4,365.9,247.7,365.9,245.5z"/>
		</g>
		<g class="fp-toxaway-st25">
			<path class="fp-toxaway-st12" d="M331.3,254.5l-0.8,0.2l-0.2-0.6l1.2-0.4h0.5v4.5h-0.8V254.5z"/>
			<path class="fp-toxaway-st12" d="M335.6,257.2h-2.3l-0.1-0.6l2.5-3h0.7v2.9h0.6v0.6h-0.6v1h-0.8V257.2z M335.6,256.6v-1.8l-1.5,1.8H335.6z"
				/>
			<path class="fp-toxaway-st12" d="M337.8,255.2c0.4-0.1,0.6-0.3,0.6-0.6H338v-0.9h0.9v0.8c0,0.7-0.3,1-1,1.1L337.8,255.2z"/>
			<path class="fp-toxaway-st12" d="M344.4,254.4h-2.3v-0.7h3.2v0.6l-2,3.9h-0.9L344.4,254.4z"/>
			<path class="fp-toxaway-st12" d="M346.2,255.2c0.4-0.1,0.6-0.3,0.6-0.6h-0.3v-0.9h0.9v0.8c0,0.7-0.3,1-1,1.1L346.2,255.2z M347.7,255.2
				c0.4-0.1,0.6-0.3,0.5-0.6h-0.3v-0.9h0.9v0.8c0,0.7-0.3,1-1,1.1L347.7,255.2z"/>
			<path class="fp-toxaway-st12" d="M353.4,256l0.8-1.1h0.8l-1.2,1.7l1.2,1.7h-0.8l-0.8-1.2l-0.8,1.2h-0.8l1.2-1.7l-1.2-1.7h0.8L353.4,256z"/>
			<path class="fp-toxaway-st12" d="M358.9,254.5l-0.8,0.2l-0.2-0.6l1.2-0.4h0.5v4.5h-0.8V254.5z"/>
			<path class="fp-toxaway-st12" d="M361.5,257.9c-0.3-0.3-0.5-0.8-0.5-1.7v0c0-1.4,0.7-2.4,1.9-2.4c0.6,0,1,0.2,1.4,0.5l-0.4,0.6
				c-0.3-0.2-0.6-0.4-1-0.4c-0.8,0-1.1,0.8-1.1,1.4c0.3-0.3,0.6-0.5,1.1-0.5c0.9,0,1.6,0.5,1.6,1.4v0c0,0.9-0.7,1.5-1.7,1.5
				C362.2,258.3,361.8,258.2,361.5,257.9z M363.6,256.8L363.6,256.8c0-0.5-0.4-0.8-0.9-0.8s-0.9,0.4-0.9,0.8v0
				c0,0.5,0.4,0.8,0.9,0.8S363.6,257.3,363.6,256.8z"/>
			<path class="fp-toxaway-st12" d="M365.3,255.2c0.4-0.1,0.6-0.3,0.6-0.6h-0.3v-0.9h0.9v0.8c0,0.7-0.3,1-1,1.1L365.3,255.2z"/>
			<path class="fp-toxaway-st12" d="M369.5,257.5l0.6-0.5c0.3,0.4,0.7,0.6,1.2,0.6c0.4,0,0.8-0.3,0.8-0.7v0c0-0.4-0.4-0.7-1-0.7h-0.4l-0.1-0.5
				l1.2-1.3h-1.9v-0.7h3v0.6l-1.3,1.3c0.7,0.1,1.3,0.4,1.3,1.3v0c0,0.8-0.6,1.4-1.6,1.4C370.4,258.3,369.9,258,369.5,257.5z"/>
			<path class="fp-toxaway-st12" d="M373.7,255.2c0.4-0.1,0.6-0.3,0.6-0.6h-0.3v-0.9h0.9v0.8c0,0.7-0.3,1-1,1.1L373.7,255.2z M375.2,255.2
				c0.4-0.1,0.6-0.3,0.5-0.6h-0.3v-0.9h0.9v0.8c0,0.7-0.3,1-1,1.1L375.2,255.2z"/>
		</g>
		<g class="fp-toxaway-st25">
			<path class="fp-toxaway-st12" d="M334.2,427.7h1.3v3.8l3.6-3.8h1.6l-3.2,3.3l3.3,4.3h-1.6l-2.6-3.4l-1.2,1.2v2.2h-1.3V427.7z"/>
			<path class="fp-toxaway-st12" d="M342.5,427.7h1.3v7.6h-1.3V427.7z"/>
		</g>
		<g class="fp-toxaway-st25">
			<path class="fp-toxaway-st12" d="M348.2,429h-2.4v-1.2h6.2v1.2h-2.4v6.3h-1.3V429z"/>
		</g>
		<g class="fp-toxaway-st25">
			<path class="fp-toxaway-st12" d="M353,431.5L353,431.5c0-2.2,1.6-3.9,3.9-3.9c1.4,0,2.2,0.5,3,1.2l-0.9,1c-0.6-0.6-1.3-0.9-2.1-0.9
				c-1.4,0-2.5,1.2-2.5,2.7v0c0,1.5,1.1,2.7,2.5,2.7c0.9,0,1.5-0.4,2.2-1l0.9,0.9c-0.8,0.8-1.7,1.3-3.1,1.3
				C354.7,435.4,353,433.7,353,431.5z"/>
			<path class="fp-toxaway-st12" d="M361.8,427.7h1.3v3.2h3.6v-3.2h1.3v7.6h-1.3v-3.2h-3.6v3.2h-1.3V427.7z"/>
			<path class="fp-toxaway-st12" d="M370.5,427.7h5.6v1.2h-4.3v2h3.8v1.2h-3.8v2h4.3v1.2h-5.7V427.7z"/>
			<path class="fp-toxaway-st12" d="M378.2,427.7h1.2l4.1,5.2v-5.2h1.3v7.6h-1.1l-4.2-5.4v5.4h-1.3V427.7z"/>
		</g>
		<g class="fp-toxaway-st25">
			<path class="fp-toxaway-st12" d="M337.5,440.6l-0.8,0.2l-0.2-0.6l1.2-0.4h0.5v4.5h-0.8V440.6z"/>
			<path class="fp-toxaway-st12" d="M339.5,443.7l1.5-1.3c0.6-0.5,0.8-0.8,0.8-1.2c0-0.4-0.3-0.7-0.7-0.7s-0.7,0.2-1,0.7l-0.6-0.4
				c0.4-0.6,0.9-0.9,1.7-0.9c0.9,0,1.5,0.5,1.5,1.3v0c0,0.7-0.4,1.1-1.2,1.7l-0.9,0.8h2.1v0.7h-3.2V443.7z"/>
			<path class="fp-toxaway-st12" d="M343.7,441.3c0.4-0.1,0.6-0.3,0.6-0.6h-0.3v-0.9h0.9v0.8c0,0.7-0.3,1-1,1.1L343.7,441.3z"/>
			<path class="fp-toxaway-st12" d="M350.3,440.5H348v-0.7h3.2v0.6l-2,3.9h-0.9L350.3,440.5z"/>
			<path class="fp-toxaway-st12" d="M352,441.3c0.4-0.1,0.6-0.3,0.6-0.6h-0.3v-0.9h0.9v0.8c0,0.7-0.3,1-1,1.1L352,441.3z M353.5,441.3
				c0.4-0.1,0.6-0.3,0.5-0.6h-0.3v-0.9h0.9v0.8c0,0.7-0.3,1-1,1.1L353.5,441.3z"/>
			<path class="fp-toxaway-st12" d="M359.3,442.1l0.8-1.1h0.8l-1.2,1.7l1.2,1.7h-0.8l-0.8-1.2l-0.8,1.2h-0.8l1.2-1.7l-1.2-1.7h0.8L359.3,442.1z
				"/>
			<path class="fp-toxaway-st12" d="M364.7,440.6l-0.8,0.2l-0.2-0.6l1.2-0.4h0.5v4.5h-0.8V440.6z"/>
			<path class="fp-toxaway-st12" d="M366.7,443.7l0.5-0.6c0.4,0.3,0.7,0.5,1.2,0.5c0.5,0,0.9-0.3,0.9-0.8v0c0-0.5-0.4-0.7-0.9-0.7
				c-0.3,0-0.6,0.1-0.8,0.2L367,442l0.1-2.2h2.7v0.7h-2l-0.1,1.1c0.2-0.1,0.4-0.1,0.7-0.1c0.9,0,1.6,0.5,1.6,1.4v0
				c0,0.9-0.7,1.5-1.7,1.5C367.7,444.4,367.1,444.1,366.7,443.7z"/>
			<path class="fp-toxaway-st12" d="M370.9,441.3c0.4-0.1,0.6-0.3,0.6-0.6h-0.3v-0.9h0.9v0.8c0,0.7-0.3,1-1,1.1L370.9,441.3z"/>
			<path class="fp-toxaway-st12" d="M377.5,443.3h-2.3l-0.1-0.6l2.5-3h0.7v2.9h0.6v0.6h-0.6v1h-0.8V443.3z M377.5,442.7v-1.8l-1.5,1.8H377.5z"
				/>
			<path class="fp-toxaway-st12" d="M379.7,441.3c0.4-0.1,0.6-0.3,0.6-0.6h-0.3v-0.9h0.9v0.8c0,0.7-0.3,1-1,1.1L379.7,441.3z M381.2,441.3
				c0.4-0.1,0.6-0.3,0.5-0.6h-0.3v-0.9h0.9v0.8c0,0.7-0.3,1-1,1.1L381.2,441.3z"/>
		</g>
		<rect x="192.5" y="467" class="fp-toxaway-st22" width="7.1" height="17.6"/>
		<g class="fp-toxaway-st25">
			<path class="fp-toxaway-st12" d="M196.1,469.5L196.1,469.5c0.9,0,1.6,0.6,1.6,1.6c0,0.6-0.2,0.9-0.5,1.2l-0.4-0.3c0.2-0.2,0.4-0.5,0.4-0.8
				c0-0.6-0.5-1-1.1-1h0c-0.6,0-1.1,0.4-1.1,1c0,0.4,0.1,0.6,0.4,0.9l-0.3,0.3c-0.3-0.3-0.5-0.7-0.5-1.2
				C194.5,470.1,195.2,469.5,196.1,469.5z"/>
		</g>
		<g class="fp-toxaway-st25">
			<path class="fp-toxaway-st12" d="M196.1,472.8L196.1,472.8c0.9,0,1.6,0.7,1.6,1.6s-0.7,1.6-1.6,1.6h0c-0.9,0-1.6-0.7-1.6-1.6
				S195.2,472.8,196.1,472.8z M196.1,475.4L196.1,475.4c0.6,0,1.1-0.4,1.1-1s-0.5-1-1.1-1h0c-0.6,0-1.1,0.4-1.1,1
				C195,475,195.5,475.4,196.1,475.4z"/>
		</g>
		<g class="fp-toxaway-st25">
			<path class="fp-toxaway-st12" d="M197.6,477.6v0.5l-3.1,1.3v-0.6l0.7-0.3v-1.4l-0.7-0.3v-0.5L197.6,477.6z M195.8,478.4l1.2-0.5l-1.2-0.5
				V478.4z"/>
		</g>
		<g class="fp-toxaway-st25">
			<path class="fp-toxaway-st12" d="M197.1,480.5v-1h0.5v2.5h-0.5v-1h-2.5v-0.5H197.1z"/>
		</g>
		<rect x="0.5" y="0.5" class="fp-toxaway-st27" width="557.3" height="557.3"/>
	</g>
</g>
</svg>
