<?xml version="1.0" encoding="utf-8"?>
<!-- Generator: Adobe Illustrator 21.1.0, SVG Export Plug-In . SVG Version: 6.00 Build 0)  -->
<svg version="1.1" id="Layer_1" xmlns="http://www.w3.org/2000/svg" xmlns:xlink="http://www.w3.org/1999/xlink" x="0px" y="0px"
	 viewBox="0 0 558.3 558.3" style="enable-background:new 0 0 558.3 558.3;" xml:space="preserve">
<style type="text/css">
	.fp-wildcat-st0{fill:none;stroke:#A6A8AB;stroke-width:0.27;stroke-miterlimit:10;}
	.fp-wildcat-st1{fill:#E4E9E4;}
	.fp-wildcat-st2{fill:#E4E9E4;stroke:#32553B;stroke-width:0.27;stroke-miterlimit:10;}
	.fp-wildcat-st3{fill:none;stroke:#32553B;stroke-width:0.27;stroke-miterlimit:10;}
	.fp-wildcat-st4{fill:none;stroke:#799900;stroke-width:0.16;stroke-miterlimit:10;}
	.fp-wildcat-st5{fill:#FFFFFF;stroke:#62A044;stroke-width:0.16;stroke-miterlimit:10;}
	.fp-wildcat-st6{enable-background:new    ;}
	.fp-wildcat-st7{fill:#32553B;}
	.fp-wildcat-st8{fill:#E4E9E4;stroke:#32553B;stroke-width:0.24;stroke-miterlimit:10;}
	.fp-wildcat-st9{fill:#C8D0C9;stroke:#32553B;stroke-width:0.27;stroke-miterlimit:10;}
	.fp-wildcat-st10{fill:#C8D0C9;stroke:#32553B;stroke-width:0.24;stroke-miterlimit:10;}
	.fp-wildcat-st11{fill:#C8D0C9;stroke:#32553B;stroke-width:0.21;stroke-miterlimit:10;}
	.fp-wildcat-st12{fill:none;stroke:#32553B;stroke-width:7.59;stroke-linejoin:round;}
	.fp-wildcat-st13{fill:none;stroke:#32553B;stroke-width:4.33;stroke-linejoin:round;}
	.fp-wildcat-st14{fill:none;stroke:#32553B;stroke-width:4.33;stroke-miterlimit:10;}
	.fp-wildcat-st15{fill:none;stroke:#32553B;stroke-width:0.24;stroke-miterlimit:10;}
	.fp-wildcat-st16{fill:none;stroke:#E4E9E4;stroke-width:7.59;stroke-linejoin:round;}
	.fp-wildcat-st17{fill:#FFFFFF;stroke:#62A044;stroke-width:0.3;stroke-miterlimit:10;}
	.fp-wildcat-st18{fill:none;stroke:#799900;stroke-width:0.3;stroke-miterlimit:10;}
	.fp-wildcat-st19{fill:none;stroke:#799900;stroke-width:0.27;stroke-miterlimit:10;}
	.fp-wildcat-st20{fill:#FFFFFF;stroke:#62A044;stroke-width:0.27;stroke-miterlimit:10;}
	.fp-wildcat-st21{fill:#F5F7F5;}
	.fp-wildcat-st22{fill:#C8D0C9;stroke:#32553B;stroke-width:0.2;stroke-miterlimit:10;}
	.fp-wildcat-st23{fill:none;stroke:#32553B;stroke-width:0.21;stroke-miterlimit:10;}
	.fp-wildcat-st24{fill:none;stroke:#32553B;stroke-width:0.84;stroke-miterlimit:10;}
	.fp-wildcat-st25{fill:#FFFFFF;stroke:#62A044;stroke-width:0.13;stroke-miterlimit:10;}
	.fp-wildcat-st26{fill:none;stroke:#799900;stroke-width:0.13;stroke-miterlimit:10;}
	.fp-wildcat-st27{fill:none;stroke:#F5F7F5;stroke-miterlimit:10;}
</style>
<title>fp_wildcat</title>
<line class="fp-wildcat-st0" x1="190.2" y1="136.3" x2="477.7" y2="136.3"/>
<line class="fp-wildcat-st0" x1="179.9" y1="146.2" x2="477.7" y2="146.2"/>
<line class="fp-wildcat-st0" x1="170.2" y1="156.2" x2="477.7" y2="156.2"/>
<line class="fp-wildcat-st0" x1="160.1" y1="166.1" x2="477.7" y2="166.1"/>
<line class="fp-wildcat-st0" x1="150.9" y1="176.1" x2="477.7" y2="176.1"/>
<line class="fp-wildcat-st0" x1="140" y1="186.1" x2="477.7" y2="186.1"/>
<line class="fp-wildcat-st0" x1="130.1" y1="196.1" x2="477.7" y2="196.1"/>
<line class="fp-wildcat-st0" x1="120" y1="206" x2="477.7" y2="206"/>
<line class="fp-wildcat-st0" x1="109.7" y1="216" x2="477.7" y2="216"/>
<line class="fp-wildcat-st0" x1="105.2" y1="226" x2="477.7" y2="226"/>
<line class="fp-wildcat-st0" x1="105.2" y1="235.9" x2="477.7" y2="235.9"/>
<line class="fp-wildcat-st0" x1="105.2" y1="245.9" x2="477.7" y2="245.9"/>
<line class="fp-wildcat-st0" x1="105.2" y1="255.9" x2="477.7" y2="255.9"/>
<line class="fp-wildcat-st0" x1="105.2" y1="265.9" x2="477.7" y2="265.9"/>
<line class="fp-wildcat-st0" x1="105.2" y1="275.8" x2="477.7" y2="275.8"/>
<line class="fp-wildcat-st0" x1="105.2" y1="285.8" x2="477.7" y2="285.8"/>
<line class="fp-wildcat-st0" x1="105.2" y1="295.8" x2="477.7" y2="295.8"/>
<line class="fp-wildcat-st0" x1="105.2" y1="305.7" x2="477.7" y2="305.7"/>
<line class="fp-wildcat-st0" x1="105.2" y1="315.7" x2="477.7" y2="315.7"/>
<line class="fp-wildcat-st0" x1="105.2" y1="325.7" x2="477.7" y2="325.7"/>
<line class="fp-wildcat-st0" x1="105.2" y1="335.6" x2="477.7" y2="335.6"/>
<line class="fp-wildcat-st0" x1="105.2" y1="345.6" x2="477.7" y2="345.6"/>
<line class="fp-wildcat-st0" x1="105.2" y1="355.6" x2="477.7" y2="355.6"/>
<line class="fp-wildcat-st0" x1="105.2" y1="365.6" x2="477.7" y2="365.6"/>
<line class="fp-wildcat-st0" x1="105.2" y1="375.5" x2="477.7" y2="375.5"/>
<line class="fp-wildcat-st0" x1="105.2" y1="385.5" x2="477.7" y2="385.5"/>
<line class="fp-wildcat-st0" x1="105.2" y1="395.5" x2="477.7" y2="395.5"/>
<line class="fp-wildcat-st0" x1="105.2" y1="405.4" x2="477.7" y2="405.4"/>
<line class="fp-wildcat-st0" x1="105.2" y1="415.4" x2="477.7" y2="415.4"/>
<line class="fp-wildcat-st0" x1="105.2" y1="425.4" x2="477.7" y2="425.4"/>
<line class="fp-wildcat-st0" x1="105.2" y1="435.4" x2="477.7" y2="435.4"/>
<line class="fp-wildcat-st0" x1="105.2" y1="445.3" x2="477.7" y2="445.3"/>
<line class="fp-wildcat-st0" x1="105.2" y1="455.3" x2="477.7" y2="455.3"/>
<polygon class="fp-wildcat-st1" points="477.5,127.5 368.4,127.5 368.4,238.4 395.2,265.2 381.2,279.2 413.1,311.1 477.5,311.5 "/>
<polygon class="fp-wildcat-st1" points="261.5,295.3 241.5,315.3 241.5,349.5 227.9,349.5 227.9,350 105.1,350 105.1,460.1 241.5,460.1 
	241.5,403.1 315.4,403.1 322.2,403.1 345.7,379.6 "/>
<line class="fp-wildcat-st0" x1="122.8" y1="203.2" x2="142.8" y2="183.2"/>
<rect x="108" y="327.9" class="fp-wildcat-st2" width="2.3" height="1.3"/>
<rect x="124.2" y="327.9" class="fp-wildcat-st2" width="3.7" height="1.3"/>
<line class="fp-wildcat-st3" x1="124.6" y1="330.9" x2="109.8" y2="330.9"/>
<line class="fp-wildcat-st3" x1="124.2" y1="328.5" x2="110.2" y2="328.5"/>
<polyline class="fp-wildcat-st3" points="124.5,329.2 124.5,347.2 109.8,347.2 109.8,329.2 "/>
<path class="fp-wildcat-st4" d="M124.2,327.1c-0.1-3.4-1.3-6.7-3.6-9.2"/>
<rect x="108.4" y="322.2" transform="matrix(0.7071 -0.7071 0.7071 0.7071 -194.2922 176.0579)" class="fp-wildcat-st5" width="14" height="0.8"/>
<g class="fp-wildcat-st6">
	<path class="fp-wildcat-st7" d="M111.3,337.8h0.8c0.5,0,0.7,0.3,0.7,0.7v0c0,0.4-0.4,0.7-0.8,0.7h-0.4v0.6h-0.3V337.8z M112.1,338.8
		c0.3,0,0.4-0.1,0.4-0.4v0c0-0.2-0.2-0.4-0.4-0.4h-0.4v0.7H112.1z"/>
</g>
<g class="fp-wildcat-st6">
	<path class="fp-wildcat-st7" d="M113.8,337.8h0.3l0.9,2h-0.4l-0.2-0.5h-0.9l-0.2,0.5H113L113.8,337.8z M114.3,339l-0.3-0.8l-0.3,0.8H114.3z"/>
	<path class="fp-wildcat-st7" d="M115.5,337.8h0.3l1.1,1.4v-1.4h0.3v2h-0.3l-1.1-1.4v1.4h-0.3V337.8z"/>
	<path class="fp-wildcat-st7" d="M118.3,338.1h-0.6v-0.3h1.6v0.3h-0.6v1.6h-0.3V338.1z"/>
</g>
<g class="fp-wildcat-st6">
	<path class="fp-wildcat-st7" d="M119.7,337.8h0.9c0.2,0,0.4,0.1,0.6,0.2c0.1,0.1,0.2,0.3,0.2,0.4v0c0,0.3-0.2,0.5-0.5,0.6l0.5,0.7H121
		l-0.5-0.7h-0.4v0.7h-0.3V337.8z M120.6,338.8c0.2,0,0.4-0.1,0.4-0.3v0c0-0.2-0.2-0.3-0.4-0.3h-0.5v0.7H120.6z"/>
</g>
<g class="fp-wildcat-st6">
	<path class="fp-wildcat-st7" d="M122.4,339l-0.8-1.2h0.4l0.5,0.9l0.6-0.9h0.4l-0.8,1.2v0.8h-0.3V339z"/>
</g>
<rect x="142.1" y="250.7" class="fp-wildcat-st8" width="77.7" height="35.2"/>
<rect x="153.7" y="327.9" class="fp-wildcat-st8" width="87.5" height="23.9"/>
<polygon class="fp-wildcat-st9" points="173.9,328 173.9,327.1 199.4,327.1 199.4,350.3 173.9,350.3 "/>
<circle class="fp-wildcat-st9" cx="193.9" cy="341.2" r="3.8"/>
<circle class="fp-wildcat-st9" cx="193.9" cy="332.2" r="2.9"/>
<circle class="fp-wildcat-st9" cx="179.4" cy="332.2" r="2.5"/>
<circle class="fp-wildcat-st9" cx="179.4" cy="341.2" r="2.5"/>
<line class="fp-wildcat-st3" x1="199.4" y1="346.3" x2="173.9" y2="346.3"/>
<polygon class="fp-wildcat-st10" points="365.4,317.8 352.9,330.3 383.6,361 383.4,361.2 390,367.9 399.5,367.9 399.5,351.9 "/>
<rect x="258.3" y="440.3" class="fp-wildcat-st10" width="45.9" height="21.6"/>
<path class="fp-wildcat-st10" d="M275.6,442.3h11.3c1.2,0,2.2,1,2.2,2.2v7.3c0,1.2-1,2.2-2.2,2.2h-11.3c-1.2,0-2.2-1-2.2-2.2v-7.3
	C273.4,443.3,274.4,442.3,275.6,442.3z"/>
<circle class="fp-wildcat-st10" cx="281.2" cy="449.8" r="1.3"/>
<path class="fp-wildcat-st10" d="M377.1,332.4l8,8c0.9,0.9,0.9,2.2,0,3.1l-5.2,5.2c-0.9,0.9-2.2,0.9-3.1,0l-8-8c-0.9-0.9-0.9-2.2,0-3.1l5.2-5.2
	C374.8,331.5,376.2,331.5,377.1,332.4z"/>
<ellipse transform="matrix(0.7071 -0.7071 0.7071 0.7071 -131.5577 365.7893)" class="fp-wildcat-st10" cx="375.8" cy="341.7" rx="1.3" ry="1.3"/>
<polyline class="fp-wildcat-st11" points="308.1,459.7 308.1,455.3 329.1,455.3 329.1,459.7 "/>
<path class="fp-wildcat-st11" d="M314,445.1c0.2,0.4,0.3,0.9,0.3,1.4v2.6c0,0.4-0.3,0.8-0.7,0.8c0,0-0.1,0-0.1,0h10.2c-0.4,0-0.8-0.3-0.8-0.7
	c0,0,0-0.1,0-0.1v-2.6c0-0.5,0.1-0.9,0.3-1.4"/>
<ellipse class="fp-wildcat-st11" cx="318.6" cy="440.1" rx="5.9" ry="8"/>
<rect x="309.7" y="450" class="fp-wildcat-st11" width="17.9" height="5.8"/>
<polyline class="fp-wildcat-st11" points="419.6,368.1 419.6,363.7 440.6,363.7 440.6,368.1 "/>
<path class="fp-wildcat-st11" d="M425.5,353.5c0.2,0.4,0.3,0.9,0.3,1.4v2.6c0,0.4-0.3,0.8-0.7,0.8c0,0-0.1,0-0.1,0h10.2c-0.4,0-0.8-0.3-0.8-0.7
	c0,0,0-0.1,0-0.1v-2.6c0-0.5,0.1-0.9,0.3-1.4"/>
<ellipse class="fp-wildcat-st11" cx="430.1" cy="348.5" rx="5.9" ry="8"/>
<rect x="421.2" y="358.3" class="fp-wildcat-st11" width="17.9" height="5.8"/>
<rect x="332.7" y="405.7" class="fp-wildcat-st10" width="29.7" height="48.5"/>
<path class="fp-wildcat-st10" d="M347.9,409.3c0,0-11.6-0.2-11.6,4.4v34.6c0,0-0.2,3.7,3.4,3.7h16.4c3.6,0,3.4-3.7,3.4-3.7v-34.6
	C359.5,409.2,347.9,409.3,347.9,409.3L347.9,409.3z"/>
<path class="fp-wildcat-st10" d="M348,450.4c0.8,0,1.5,0.3,2.1,0.8l-2.1,2.3h-0.1l-2.1-2.3C346.5,450.7,347.2,450.4,348,450.4"/>
<rect x="330.7" y="452.7" class="fp-wildcat-st7" width="33.3" height="7.7"/>
<rect x="444.1" y="312.7" class="fp-wildcat-st10" width="29.7" height="48.5"/>
<path class="fp-wildcat-st10" d="M459.3,316.3c0,0-11.6-0.2-11.6,4.4v34.6c0,0-0.2,3.7,3.4,3.7h16.4c3.6,0,3.4-3.7,3.4-3.7v-34.6
	C470.9,316.2,459.3,316.4,459.3,316.3L459.3,316.3z"/>
<path class="fp-wildcat-st10" d="M459.4,357.4c0.8,0,1.5,0.3,2.1,0.8l-2.1,2.3h-0.1l-2.1-2.3C457.9,357.7,458.7,357.4,459.4,357.4"/>
<rect x="442.1" y="359.7" class="fp-wildcat-st7" width="33.3" height="7.7"/>
<polyline class="fp-wildcat-st12" points="459.2,127.4 476.9,127.4 476.9,460.1 437.1,460.1 "/>
<line class="fp-wildcat-st12" x1="342.7" y1="127.4" x2="382.1" y2="127.4"/>
<line class="fp-wildcat-st12" x1="246.5" y1="127.4" x2="265.7" y2="127.4"/>
<polyline class="fp-wildcat-st12" points="181.8,144.2 198.6,127.4 217.5,127.4 "/>
<line class="fp-wildcat-st12" x1="162.1" y1="164" x2="164.4" y2="161.6"/>
<line class="fp-wildcat-st12" x1="142.8" y1="183.2" x2="144.7" y2="181.4"/>
<polyline class="fp-wildcat-st12" points="105.2,244 105.2,220.8 122.8,203.2 "/>
<line class="fp-wildcat-st12" x1="105.2" y1="360.1" x2="105.2" y2="321.5"/>
<polyline class="fp-wildcat-st12" points="409,460.1 105.2,460.1 105.2,437.6 "/>
<polyline class="fp-wildcat-st13" points="105.2,220.8 85.3,220.8 85.3,106.1 199.4,106.1 199.4,127.4 "/>
<polyline class="fp-wildcat-st14" points="368.4,127.5 368.4,237.2 314.1,291.5 316.7,294.1 "/>
<polyline class="fp-wildcat-st14" points="338.2,315.5 390,367.4 477,367.4 "/>
<line class="fp-wildcat-st14" x1="340.9" y1="318.3" x2="356.5" y2="302.8"/>
<line class="fp-wildcat-st14" x1="368.4" y1="237.2" x2="371.5" y2="240.4"/>
<line class="fp-wildcat-st14" x1="392" y1="260.9" x2="395.1" y2="264"/>
<polyline class="fp-wildcat-st14" points="377.2,282.1 422.5,236.7 443.7,236.7 "/>
<line class="fp-wildcat-st14" x1="471.8" y1="236.7" x2="477" y2="236.7"/>
<polyline class="fp-wildcat-st14" points="380.6,278.6 413.7,311.8 476.9,311.8 "/>
<line class="fp-wildcat-st14" x1="105.1" y1="350" x2="241.3" y2="350"/>
<polyline class="fp-wildcat-st14" points="321.8,355.6 261.5,295.3 241.5,315.3 241.5,365 246,365 "/>
<polyline class="fp-wildcat-st14" points="274.6,365 306.5,365 318.8,352.8 "/>
<polyline class="fp-wildcat-st14" points="343,376.9 386.8,420.7 386.8,430.5 "/>
<line class="fp-wildcat-st14" x1="386.8" y1="449.9" x2="386.8" y2="460.1"/>
<line class="fp-wildcat-st14" x1="443.6" y1="454.1" x2="443.6" y2="460.1"/>
<line class="fp-wildcat-st14" x1="443.6" y1="417.8" x2="443.6" y2="426.3"/>
<line class="fp-wildcat-st14" x1="443.6" y1="367.3" x2="443.6" y2="374.1"/>
<line class="fp-wildcat-st14" x1="241.5" y1="435.7" x2="241.5" y2="460.1"/>
<polyline class="fp-wildcat-st14" points="241.5,407.4 241.5,403.1 363.7,403.1 363.7,460.2 "/>
<line class="fp-wildcat-st14" x1="345.7" y1="379.5" x2="322.2" y2="403.1"/>
<line class="fp-wildcat-st14" x1="443.6" y1="422.8" x2="477" y2="422.8"/>
<rect x="383.5" y="361.5" transform="matrix(0.7071 -0.7071 0.7071 0.7071 -146.0757 379.9881)" class="fp-wildcat-st7" width="4.3" height="9.7"/>
<rect x="358.2" y="386.8" transform="matrix(0.7071 -0.7071 0.7071 0.7071 -171.3951 369.5017)" class="fp-wildcat-st7" width="4.3" height="9.7"/>
<line class="fp-wildcat-st14" x1="363.7" y1="419.7" x2="385.5" y2="419.7"/>
<rect x="125.5" y="320" class="fp-wildcat-st9" width="27.4" height="26.3"/>
<line class="fp-wildcat-st15" x1="142.1" y1="261.1" x2="219.8" y2="261.1"/>
<path class="fp-wildcat-st9" d="M193.4,270.5v11.6c0,1.3-1,2.3-2.3,2.3h-20.5c-1.3,0-2.3-1-2.3-2.3v-11.6c0-1.3,1-2.3,2.3-2.3h20.5
	C192.4,268.2,193.4,269.3,193.4,270.5z"/>
<circle class="fp-wildcat-st9" cx="180.9" cy="276.3" r="1.4"/>
<line class="fp-wildcat-st16" x1="217.5" y1="127.4" x2="246.5" y2="127.4"/>
<line class="fp-wildcat-st16" x1="459.2" y1="127.4" x2="382.1" y2="127.4"/>
<rect x="398.7" y="124.9" class="fp-wildcat-st7" width="0.8" height="5.1"/>
<rect x="441.8" y="124.9" class="fp-wildcat-st7" width="0.8" height="5.1"/>
<rect x="382.1" y="127" class="fp-wildcat-st7" width="77" height="0.7"/>
<rect x="382.1" y="129.6" class="fp-wildcat-st7" width="77" height="0.7"/>
<rect x="382.1" y="124.5" class="fp-wildcat-st7" width="77" height="0.7"/>
<line class="fp-wildcat-st16" x1="342.7" y1="127.4" x2="265.7" y2="127.4"/>
<rect x="282.2" y="124.9" class="fp-wildcat-st7" width="0.8" height="5.1"/>
<rect x="325.3" y="124.9" class="fp-wildcat-st7" width="0.8" height="5.1"/>
<rect x="265.6" y="127" class="fp-wildcat-st7" width="77.1" height="0.7"/>
<rect x="265.6" y="129.6" class="fp-wildcat-st7" width="77.1" height="0.7"/>
<rect x="265.6" y="124.5" class="fp-wildcat-st7" width="77.1" height="0.7"/>
<rect x="217.5" y="127" class="fp-wildcat-st7" width="29" height="0.7"/>
<rect x="217.5" y="129.6" class="fp-wildcat-st7" width="29" height="0.7"/>
<rect x="217.5" y="124.5" class="fp-wildcat-st7" width="29" height="0.7"/>
<line class="fp-wildcat-st16" x1="105.2" y1="244" x2="105.2" y2="321.5"/>
<rect x="102.7" y="303.9" class="fp-wildcat-st7" width="5.1" height="0.8"/>
<rect x="102.7" y="260.8" class="fp-wildcat-st7" width="5.1" height="0.8"/>
<rect x="104.9" y="244" class="fp-wildcat-st7" width="0.7" height="77.5"/>
<rect x="107.4" y="244" class="fp-wildcat-st7" width="0.7" height="77.5"/>
<rect x="102.4" y="244" class="fp-wildcat-st7" width="0.7" height="77.5"/>
<line class="fp-wildcat-st16" x1="105.2" y1="360.1" x2="105.2" y2="437.6"/>
<rect x="102.7" y="420" class="fp-wildcat-st7" width="5.1" height="0.8"/>
<rect x="102.7" y="376.9" class="fp-wildcat-st7" width="5.1" height="0.8"/>
<rect x="104.9" y="360.1" class="fp-wildcat-st7" width="0.7" height="77.5"/>
<rect x="107.4" y="360.1" class="fp-wildcat-st7" width="0.7" height="77.5"/>
<rect x="102.4" y="360.1" class="fp-wildcat-st7" width="0.7" height="77.5"/>
<rect x="317" y="386.9" transform="matrix(0.7071 -0.7071 0.7071 0.7071 -177.2515 347.2143)" class="fp-wildcat-st17" width="27" height="1.4"/>
<path class="fp-wildcat-st18" d="M320.4,396.6c-10.6-10.7-10.6-27.9,0-38.6"/>
<rect x="245.9" y="334.9" class="fp-wildcat-st17" width="1.4" height="27"/>
<path class="fp-wildcat-st18" d="M247.3,334.9c15,0,27.2,12.2,27.3,27.2"/>
<rect x="244.7" y="407.2" class="fp-wildcat-st17" width="27" height="1.4"/>
<path class="fp-wildcat-st18" d="M271.7,408.6c0,15-12.2,27.2-27.2,27.3"/>
<rect x="387.6" y="280.7" transform="matrix(0.7071 -0.7071 0.7071 0.7071 -94.2767 360.7664)" class="fp-wildcat-st17" width="1.4" height="27"/>
<path class="fp-wildcat-st18" d="M397.4,304.2c-10.7,10.6-27.9,10.6-38.6,0"/>
<rect x="470.6" y="239.9" class="fp-wildcat-st17" width="1.4" height="27"/>
<path class="fp-wildcat-st18" d="M470.6,266.9c-15,0-27.2-12.2-27.3-27.2"/>
<rect x="389.7" y="247.7" transform="matrix(0.7071 -0.7071 0.7071 0.7071 -57.5743 357.8519)" class="fp-wildcat-st17" width="27" height="1.4"/>
<path class="fp-wildcat-st18" d="M412.2,238.4c-10.7-10.6-27.9-10.6-38.6,0"/>
<path class="fp-wildcat-st18" d="M409.3,455.5c0-4.2-0.2-10.9,7.9-18.8"/>
<rect x="425.6" y="433.2" transform="matrix(0.7071 -0.7071 0.7071 0.7071 -191.0617 432.2936)" class="fp-wildcat-st17" width="1.4" height="27.1"/>
<path class="fp-wildcat-st18" d="M389.8,430.7c3,0,7.6-0.1,13.2,5.5"/>
<rect x="386.4" y="442.1" transform="matrix(0.7071 -0.7071 0.7071 0.7071 -197.0189 409.6114)" class="fp-wildcat-st17" width="19.1" height="1"/>
<path class="fp-wildcat-st18" d="M441,426.6c-4.2,0-10.9-0.2-18.8,7.9"/>
<rect x="431.6" y="430" transform="matrix(0.7071 -0.7071 0.7071 0.7071 -187.0512 435.5755)" class="fp-wildcat-st17" width="1.4" height="27.1"/>
<path class="fp-wildcat-st19" d="M441.2,395.9c0,0-8.2-0.1-14.3,5.6"/>
<rect x="433.5" y="398.8" transform="matrix(0.7071 -0.7071 0.7071 0.7071 -162.4799 426.9236)" class="fp-wildcat-st20" width="1.2" height="21.6"/>
<path class="fp-wildcat-st19" d="M441.2,395.9c0,0-8.2,0.1-14.3-5.6"/>
<rect x="423.3" y="381.6" transform="matrix(0.7071 -0.7071 0.7071 0.7071 -143.1426 418.9094)" class="fp-wildcat-st20" width="21.6" height="1.2"/>
<rect x="109" y="176.3" transform="matrix(0.7071 -0.7071 0.7071 0.7071 -102.1318 133.1733)" class="fp-wildcat-st17" width="1.4" height="27.2"/>
<path class="fp-wildcat-st18" d="M100.6,179.7c10.7-10.7,28.1-10.7,38.8,0"/>
<line class="fp-wildcat-st18" x1="103.8" y1="183" x2="102.8" y2="184"/>
<line class="fp-wildcat-st18" x1="116.6" y1="195.7" x2="115.6" y2="196.8"/>
<line class="fp-wildcat-st18" x1="103.3" y1="183.5" x2="116.1" y2="196.2"/>
<rect x="235.4" y="191.3" class="fp-wildcat-st21" width="59" height="21.8"/>
<rect x="151.4" y="291.8" class="fp-wildcat-st21" width="59" height="21.8"/>
<rect x="372.5" y="430.7" class="fp-wildcat-st21" width="5.9" height="15.4"/>
<rect x="272.4" y="416.5" class="fp-wildcat-st21" width="33.4" height="16.5"/>
<g class="fp-wildcat-st6">
	<path class="fp-wildcat-st7" d="M103.2,136.6h3.4c0.9,0,1.5,0.2,2,0.7c0.3,0.3,0.5,0.7,0.5,1.3v0c0,0.9-0.5,1.4-1.1,1.7
		c0.9,0.3,1.5,0.8,1.5,1.8v0c0,1.4-1.1,2.1-2.8,2.1h-3.5V136.6z M107.8,138.7c0-0.6-0.5-1-1.3-1h-1.9v2h1.8
		C107.2,139.8,107.8,139.5,107.8,138.7L107.8,138.7z M106.6,140.9h-2.1v2.1h2.2c0.9,0,1.5-0.4,1.5-1v0
		C108.2,141.3,107.7,140.9,106.6,140.9z"/>
	<path class="fp-wildcat-st7" d="M114.2,136.5h1.2l3.3,7.6h-1.4l-0.8-1.8H113l-0.8,1.8h-1.4L114.2,136.5z M116.1,141.2l-1.3-3l-1.3,3H116.1z"/>
</g>
<g class="fp-wildcat-st6">
	<path class="fp-wildcat-st7" d="M120.5,136.6h1.3v6.4h4v1.2h-5.3V136.6z"/>
</g>
<g class="fp-wildcat-st6">
	<path class="fp-wildcat-st7" d="M126.8,140.4L126.8,140.4c0-2.2,1.6-3.9,3.9-3.9c1.4,0,2.2,0.5,3,1.2l-0.9,1c-0.6-0.6-1.3-0.9-2.1-0.9
		c-1.4,0-2.5,1.2-2.5,2.7v0c0,1.5,1.1,2.7,2.5,2.7c0.9,0,1.5-0.4,2.2-1l0.9,0.9c-0.8,0.8-1.7,1.3-3.1,1.3
		C128.5,144.3,126.8,142.6,126.8,140.4z"/>
</g>
<g class="fp-wildcat-st6">
	<path class="fp-wildcat-st7" d="M135,140.4L135,140.4c0-2.2,1.6-3.9,4-3.9s4,1.8,4,3.9v0c0,2.1-1.6,3.9-4,3.9C136.7,144.3,135,142.5,135,140.4
		z M141.6,140.4L141.6,140.4c0-1.5-1.1-2.7-2.6-2.7c-1.5,0-2.6,1.2-2.6,2.7v0c0,1.5,1.1,2.7,2.6,2.7S141.6,141.9,141.6,140.4z"/>
	<path class="fp-wildcat-st7" d="M145,136.6h1.2l4.1,5.2v-5.2h1.3v7.6h-1.1l-4.2-5.4v5.4H145V136.6z"/>
	<path class="fp-wildcat-st7" d="M156.3,141.2l-3-4.6h1.6l2.1,3.3l2.1-3.3h1.5l-3,4.6v3h-1.3V141.2z"/>
</g>
<g class="fp-wildcat-st6">
	<path class="fp-wildcat-st7" d="M119,152.5l-0.8,0.2L118,152l1.2-0.4h0.5v4.5H119V152.5z"/>
	<path class="fp-wildcat-st7" d="M121,153.9L121,153.9c0-1.3,0.8-2.3,2-2.3c1.2,0,2,1,2,2.3v0c0,1.3-0.8,2.3-2,2.3
		C121.8,156.3,121,155.2,121,153.9z M124.1,153.9L124.1,153.9c0-0.9-0.5-1.6-1.1-1.6c-0.7,0-1.1,0.7-1.1,1.6v0
		c0,0.9,0.4,1.6,1.1,1.6S124.1,154.8,124.1,153.9z"/>
	<path class="fp-wildcat-st7" d="M125.8,153.2c0.4-0.1,0.6-0.3,0.6-0.6H126v-0.9h0.9v0.8c0,0.7-0.3,1-1,1.1L125.8,153.2z"/>
	<path class="fp-wildcat-st7" d="M131.6,153.9l0.8-1.1h0.8l-1.2,1.7l1.2,1.7h-0.8l-0.8-1.2l-0.8,1.2h-0.8l1.2-1.7l-1.2-1.7h0.8L131.6,153.9z"/>
	<path class="fp-wildcat-st7" d="M137.1,152.5l-0.8,0.2l-0.2-0.6l1.2-0.4h0.5v4.5h-0.8V152.5z"/>
	<path class="fp-wildcat-st7" d="M139.1,153.9L139.1,153.9c0-1.3,0.8-2.3,2-2.3c1.2,0,2,1,2,2.3v0c0,1.3-0.8,2.3-2,2.3
		C139.9,156.3,139.1,155.2,139.1,153.9z M142.2,153.9L142.2,153.9c0-0.9-0.5-1.6-1.1-1.6c-0.7,0-1.1,0.7-1.1,1.6v0
		c0,0.9,0.4,1.6,1.1,1.6S142.2,154.8,142.2,153.9z"/>
	<path class="fp-wildcat-st7" d="M143.9,153.2c0.4-0.1,0.6-0.3,0.6-0.6h-0.3v-0.9h0.9v0.8c0,0.7-0.3,1-1,1.1L143.9,153.2z"/>
</g>
<g class="fp-wildcat-st6">
	<path class="fp-wildcat-st7" d="M392.2,176.3h3.4c0.9,0,1.5,0.2,2,0.7c0.3,0.3,0.5,0.7,0.5,1.3v0c0,0.9-0.5,1.4-1.1,1.7
		c0.9,0.3,1.5,0.8,1.5,1.8v0c0,1.4-1.1,2.1-2.8,2.1h-3.5V176.3z M396.8,178.4c0-0.6-0.5-1-1.3-1h-1.9v2h1.8
		C396.2,179.5,396.8,179.1,396.8,178.4L396.8,178.4z M395.6,180.6h-2.1v2.1h2.2c0.9,0,1.5-0.4,1.5-1v0
		C397.2,181,396.7,180.6,395.6,180.6z"/>
	<path class="fp-wildcat-st7" d="M400.5,176.3h5.6v1.2h-4.3v2h3.8v1.2h-3.8v2h4.3v1.2h-5.7V176.3z"/>
	<path class="fp-wildcat-st7" d="M408.2,176.3h2.8c2.4,0,4,1.6,4,3.8v0c0,2.1-1.6,3.8-4,3.8h-2.8V176.3z M409.5,177.5v5.2h1.5
		c1.6,0,2.6-1.1,2.6-2.6v0c0-1.5-1-2.6-2.6-2.6H409.5z"/>
	<path class="fp-wildcat-st7" d="M417.1,176.3h3.4c1,0,1.7,0.3,2.2,0.8c0.4,0.4,0.6,1,0.6,1.6v0c0,1.2-0.7,2-1.8,2.3l2,2.9h-1.6l-1.9-2.6h-1.7
		v2.6h-1.3V176.3z M420.4,180c1,0,1.6-0.5,1.6-1.3v0c0-0.8-0.6-1.3-1.6-1.3h-1.9v2.5H420.4z"/>
	<path class="fp-wildcat-st7" d="M425,180.1L425,180.1c0-2.2,1.6-3.9,4-3.9s4,1.8,4,3.9v0c0,2.1-1.6,3.9-4,3.9C426.6,184,425,182.2,425,180.1z
		 M431.5,180.1L431.5,180.1c0-1.5-1.1-2.7-2.6-2.7c-1.5,0-2.6,1.2-2.6,2.7v0c0,1.5,1.1,2.7,2.6,2.7S431.5,181.6,431.5,180.1z"/>
	<path class="fp-wildcat-st7" d="M434.7,180.1L434.7,180.1c0-2.2,1.6-3.9,4-3.9s4,1.8,4,3.9v0c0,2.1-1.6,3.9-4,3.9
		C436.3,184,434.7,182.2,434.7,180.1z M441.2,180.1L441.2,180.1c0-1.5-1.1-2.7-2.6-2.7c-1.5,0-2.6,1.2-2.6,2.7v0
		c0,1.5,1.1,2.7,2.6,2.7S441.2,181.6,441.2,180.1z"/>
	<path class="fp-wildcat-st7" d="M444.6,176.3h1.4l2.3,3.6l2.3-3.6h1.4v7.6h-1.3v-5.4l-2.4,3.6h0l-2.4-3.6v5.4h-1.3V176.3z"/>
</g>
<g class="fp-wildcat-st6">
	<path class="fp-wildcat-st7" d="M406.8,192.2l-0.8,0.2l-0.2-0.6l1.2-0.4h0.5v4.5h-0.8V192.2z"/>
	<path class="fp-wildcat-st7" d="M409.6,192.2l-0.8,0.2l-0.2-0.6l1.2-0.4h0.5v4.5h-0.8V192.2z"/>
	<path class="fp-wildcat-st7" d="M411.5,192.9c0.4-0.1,0.6-0.3,0.6-0.6h-0.3v-0.9h0.9v0.8c0,0.7-0.3,1-1,1.1L411.5,192.9z"/>
	<path class="fp-wildcat-st7" d="M417.3,193.6l0.8-1.1h0.8l-1.2,1.7l1.2,1.7h-0.8l-0.8-1.2l-0.8,1.2h-0.8l1.2-1.7l-1.2-1.7h0.8L417.3,193.6z"/>
	<path class="fp-wildcat-st7" d="M422.7,192.2l-0.8,0.2l-0.2-0.6l1.2-0.4h0.5v4.5h-0.8V192.2z"/>
	<path class="fp-wildcat-st7" d="M425.5,192.2l-0.8,0.2l-0.2-0.6l1.2-0.4h0.5v4.5h-0.8V192.2z"/>
	<path class="fp-wildcat-st7" d="M427.5,192.9c0.4-0.1,0.6-0.3,0.6-0.6h-0.3v-0.9h0.9v0.8c0,0.7-0.3,1-1,1.1L427.5,192.9z"/>
	<path class="fp-wildcat-st7" d="M431.6,195.2l0.6-0.5c0.3,0.4,0.7,0.6,1.2,0.6c0.4,0,0.8-0.3,0.8-0.7v0c0-0.4-0.4-0.7-1-0.7h-0.4l-0.1-0.5
		l1.2-1.3h-1.9v-0.7h3v0.6l-1.3,1.3c0.7,0.1,1.3,0.4,1.3,1.3v0c0,0.8-0.6,1.4-1.6,1.4C432.6,196,432,195.6,431.6,195.2z"/>
	<path class="fp-wildcat-st7" d="M435.9,192.9c0.4-0.1,0.6-0.3,0.6-0.6h-0.3v-0.9h0.9v0.8c0,0.7-0.3,1-1,1.1L435.9,192.9z M437.3,192.9
		c0.4-0.1,0.6-0.3,0.5-0.6h-0.3v-0.9h0.9v0.8c0,0.7-0.3,1-1,1.1L437.3,192.9z"/>
</g>
<g class="fp-wildcat-st6">
	<path class="fp-wildcat-st7" d="M143.9,395.4h3.4c0.9,0,1.5,0.2,2,0.7c0.3,0.3,0.5,0.7,0.5,1.3v0c0,0.9-0.5,1.4-1.1,1.7
		c0.9,0.3,1.5,0.8,1.5,1.8v0c0,1.4-1.1,2.1-2.8,2.1h-3.5V395.4z M148.5,397.5c0-0.6-0.5-1-1.3-1h-1.9v2h1.8
		C147.9,398.6,148.5,398.3,148.5,397.5L148.5,397.5z M147.3,399.7h-2.1v2.1h2.2c0.9,0,1.5-0.4,1.5-1v0
		C148.9,400.1,148.4,399.7,147.3,399.7z"/>
	<path class="fp-wildcat-st7" d="M152.2,395.4h5.6v1.2h-4.3v2h3.8v1.2h-3.8v2h4.3v1.2h-5.7V395.4z"/>
	<path class="fp-wildcat-st7" d="M159.9,395.4h2.8c2.4,0,4,1.6,4,3.8v0c0,2.1-1.6,3.8-4,3.8h-2.8V395.4z M161.2,396.6v5.2h1.5
		c1.6,0,2.6-1.1,2.6-2.6v0c0-1.5-1-2.6-2.6-2.6H161.2z"/>
	<path class="fp-wildcat-st7" d="M168.8,395.4h3.4c1,0,1.7,0.3,2.2,0.8c0.4,0.4,0.6,1,0.6,1.6v0c0,1.2-0.7,2-1.8,2.3l2,2.9h-1.6l-1.9-2.6h-1.7
		v2.6h-1.3V395.4z M172,399.2c1,0,1.6-0.5,1.6-1.3v0c0-0.8-0.6-1.3-1.6-1.3h-1.9v2.5H172z"/>
	<path class="fp-wildcat-st7" d="M176.7,399.2L176.7,399.2c0-2.2,1.6-3.9,4-3.9s4,1.8,4,3.9v0c0,2.1-1.6,3.9-4,3.9
		C178.3,403.1,176.7,401.3,176.7,399.2z M183.2,399.2L183.2,399.2c0-1.5-1.1-2.7-2.6-2.7c-1.5,0-2.6,1.2-2.6,2.7v0
		c0,1.5,1.1,2.7,2.6,2.7S183.2,400.7,183.2,399.2z"/>
	<path class="fp-wildcat-st7" d="M186.3,399.2L186.3,399.2c0-2.2,1.6-3.9,4-3.9s4,1.8,4,3.9v0c0,2.1-1.6,3.9-4,3.9
		C188,403.1,186.3,401.3,186.3,399.2z M192.9,399.2L192.9,399.2c0-1.5-1.1-2.7-2.6-2.7c-1.5,0-2.6,1.2-2.6,2.7v0
		c0,1.5,1.1,2.7,2.6,2.7S192.9,400.7,192.9,399.2z"/>
	<path class="fp-wildcat-st7" d="M196.3,395.4h1.4l2.3,3.6l2.3-3.6h1.4v7.6h-1.3v-5.4l-2.4,3.6h0l-2.4-3.6v5.4h-1.3V395.4z"/>
</g>
<g class="fp-wildcat-st6">
	<path class="fp-wildcat-st7" d="M152.7,411.3l-0.8,0.2l-0.2-0.6l1.2-0.4h0.5v4.5h-0.8V411.3z"/>
	<path class="fp-wildcat-st7" d="M154.6,414.3l0.6-0.5c0.3,0.4,0.7,0.6,1.2,0.6c0.4,0,0.8-0.3,0.8-0.7v0c0-0.4-0.4-0.7-1-0.7h-0.4l-0.1-0.5
		l1.2-1.3h-1.9v-0.7h3v0.6l-1.3,1.3c0.7,0.1,1.3,0.4,1.3,1.3v0c0,0.8-0.6,1.4-1.6,1.4C155.5,415.1,155,414.7,154.6,414.3z"/>
	<path class="fp-wildcat-st7" d="M158.8,412c0.4-0.1,0.6-0.3,0.6-0.6H159v-0.9h0.9v0.8c0,0.7-0.3,1-1,1.1L158.8,412z"/>
	<path class="fp-wildcat-st7" d="M165.8,412.9c-0.3,0.3-0.6,0.5-1.1,0.5c-1,0-1.6-0.6-1.6-1.4v0c0-0.9,0.7-1.6,1.7-1.6c0.6,0,0.9,0.2,1.3,0.5
		c0.3,0.3,0.5,0.8,0.5,1.7v0c0,1.4-0.7,2.4-1.9,2.4c-0.6,0-1.1-0.2-1.4-0.5l0.4-0.6c0.3,0.3,0.6,0.4,1,0.4
		C165.5,414.3,165.8,413.5,165.8,412.9z M165.7,411.9L165.7,411.9c0-0.5-0.4-0.8-0.9-0.8c-0.6,0-0.9,0.4-0.9,0.8v0
		c0,0.5,0.4,0.8,0.9,0.8C165.4,412.7,165.7,412.4,165.7,411.9z"/>
	<path class="fp-wildcat-st7" d="M167.5,412c0.4-0.1,0.6-0.3,0.6-0.6h-0.3v-0.9h0.9v0.8c0,0.7-0.3,1-1,1.1L167.5,412z M169,412
		c0.4-0.1,0.6-0.3,0.5-0.6h-0.3v-0.9h0.9v0.8c0,0.7-0.3,1-1,1.1L169,412z"/>
	<path class="fp-wildcat-st7" d="M174.7,412.7l0.8-1.1h0.8l-1.2,1.7l1.2,1.7h-0.8l-0.8-1.2l-0.8,1.2h-0.8l1.2-1.7l-1.2-1.7h0.8L174.7,412.7z"/>
	<path class="fp-wildcat-st7" d="M180.2,411.3l-0.8,0.2l-0.2-0.6l1.2-0.4h0.5v4.5h-0.8V411.3z"/>
	<path class="fp-wildcat-st7" d="M183,411.3l-0.8,0.2l-0.2-0.6l1.2-0.4h0.5v4.5H183V411.3z"/>
	<path class="fp-wildcat-st7" d="M184.9,412c0.4-0.1,0.6-0.3,0.6-0.6h-0.3v-0.9h0.9v0.8c0,0.7-0.3,1-1,1.1L184.9,412z"/>
	<path class="fp-wildcat-st7" d="M189.1,414.3l0.6-0.5c0.3,0.4,0.7,0.6,1.2,0.6c0.4,0,0.8-0.3,0.8-0.7v0c0-0.4-0.4-0.7-1-0.7h-0.4l-0.1-0.5
		l1.2-1.3h-1.9v-0.7h3v0.6l-1.3,1.3c0.7,0.1,1.3,0.4,1.3,1.3v0c0,0.8-0.6,1.4-1.6,1.4C190,415.1,189.5,414.7,189.1,414.3z"/>
	<path class="fp-wildcat-st7" d="M193.3,412c0.4-0.1,0.6-0.3,0.6-0.6h-0.3v-0.9h0.9v0.8c0,0.7-0.3,1-1,1.1L193.3,412z M194.8,412
		c0.4-0.1,0.6-0.3,0.5-0.6H195v-0.9h0.9v0.8c0,0.7-0.3,1-1,1.1L194.8,412z"/>
</g>
<g class="fp-wildcat-st6">
	<path class="fp-wildcat-st7" d="M155.6,295h1.3v3.8l3.6-3.8h1.6l-3.2,3.3l3.3,4.3h-1.6l-2.6-3.4l-1.2,1.2v2.2h-1.3V295z"/>
	<path class="fp-wildcat-st7" d="M164,295h1.3v7.6H164V295z"/>
</g>
<g class="fp-wildcat-st6">
	<path class="fp-wildcat-st7" d="M169.6,296.2h-2.4V295h6.2v1.2H171v6.3h-1.3V296.2z"/>
</g>
<g class="fp-wildcat-st6">
	<path class="fp-wildcat-st7" d="M174.4,298.8L174.4,298.8c0-2.2,1.6-3.9,3.9-3.9c1.4,0,2.2,0.5,3,1.2l-0.9,1c-0.6-0.6-1.3-0.9-2.1-0.9
		c-1.4,0-2.5,1.2-2.5,2.7v0c0,1.5,1.1,2.7,2.5,2.7c0.9,0,1.5-0.4,2.2-1l0.9,0.9c-0.8,0.8-1.7,1.3-3.1,1.3
		C176.1,302.7,174.4,301,174.4,298.8z"/>
	<path class="fp-wildcat-st7" d="M183.2,295h1.3v3.2h3.6V295h1.3v7.6h-1.3v-3.2h-3.6v3.2h-1.3V295z"/>
	<path class="fp-wildcat-st7" d="M191.9,295h5.6v1.2h-4.3v2h3.8v1.2h-3.8v2h4.3v1.2h-5.7V295z"/>
	<path class="fp-wildcat-st7" d="M199.6,295h1.2l4.1,5.2V295h1.3v7.6h-1.1l-4.2-5.4v5.4h-1.3V295z"/>
</g>
<g class="fp-wildcat-st6">
	<path class="fp-wildcat-st7" d="M163.6,307.2l-0.8,0.2l-0.2-0.6l1.2-0.4h0.5v4.5h-0.8V307.2z"/>
	<path class="fp-wildcat-st7" d="M165.6,310.2l0.6-0.5c0.3,0.4,0.7,0.6,1.2,0.6c0.4,0,0.8-0.3,0.8-0.7v0c0-0.4-0.4-0.7-1-0.7h-0.4l-0.1-0.5
		l1.2-1.3h-1.9v-0.7h3v0.6l-1.3,1.3c0.7,0.1,1.3,0.4,1.3,1.3v0c0,0.8-0.6,1.4-1.6,1.4C166.5,311,165.9,310.7,165.6,310.2z"/>
	<path class="fp-wildcat-st7" d="M169.8,307.9c0.4-0.1,0.6-0.3,0.6-0.6H170v-0.9h0.9v0.8c0,0.7-0.3,1-1,1.1L169.8,307.9z"/>
	<path class="fp-wildcat-st7" d="M176.7,308.9c-0.3,0.3-0.6,0.5-1.1,0.5c-1,0-1.6-0.6-1.6-1.4v0c0-0.9,0.7-1.6,1.7-1.6c0.6,0,0.9,0.2,1.3,0.5
		c0.3,0.3,0.5,0.8,0.5,1.7v0c0,1.4-0.7,2.4-1.9,2.4c-0.6,0-1.1-0.2-1.4-0.5l0.4-0.6c0.3,0.3,0.6,0.4,1,0.4
		C176.4,310.3,176.7,309.5,176.7,308.9z M176.7,307.9L176.7,307.9c0-0.5-0.4-0.8-0.9-0.8c-0.6,0-0.9,0.4-0.9,0.8v0
		c0,0.5,0.4,0.8,0.9,0.8C176.3,308.7,176.7,308.3,176.7,307.9z"/>
	<path class="fp-wildcat-st7" d="M178.4,307.9c0.4-0.1,0.6-0.3,0.6-0.6h-0.3v-0.9h0.9v0.8c0,0.7-0.3,1-1,1.1L178.4,307.9z M179.9,307.9
		c0.4-0.1,0.6-0.3,0.5-0.6h-0.3v-0.9h0.9v0.8c0,0.7-0.3,1-1,1.1L179.9,307.9z"/>
	<path class="fp-wildcat-st7" d="M185.7,308.7l0.8-1.1h0.8l-1.2,1.7l1.2,1.7h-0.8l-0.8-1.2l-0.8,1.2H184l1.2-1.7l-1.2-1.7h0.8L185.7,308.7z"/>
	<path class="fp-wildcat-st7" d="M191.1,307.2l-0.8,0.2l-0.2-0.6l1.2-0.4h0.5v4.5h-0.8V307.2z"/>
	<path class="fp-wildcat-st7" d="M193.2,308.7L193.2,308.7c0-1.3,0.8-2.3,2-2.3c1.2,0,2,1,2,2.3v0c0,1.3-0.8,2.3-2,2.3
		C193.9,311,193.2,310,193.2,308.7z M196.3,308.7L196.3,308.7c0-0.9-0.5-1.6-1.1-1.6c-0.7,0-1.1,0.7-1.1,1.6v0
		c0,0.9,0.4,1.6,1.1,1.6S196.3,309.6,196.3,308.7z"/>
	<path class="fp-wildcat-st7" d="M198,307.9c0.4-0.1,0.6-0.3,0.6-0.6h-0.3v-0.9h0.9v0.8c0,0.7-0.3,1-1,1.1L198,307.9z"/>
</g>
<g class="fp-wildcat-st6">
	<path class="fp-wildcat-st7" d="M246.1,195.2h1.3v6.4h4v1.2h-5.3V195.2z"/>
	<path class="fp-wildcat-st7" d="M253.3,195.2h1.3v7.6h-1.3V195.2z"/>
	<path class="fp-wildcat-st7" d="M256.4,195.2h1.5l2.3,5.8l2.3-5.8h1.4l-3.1,7.6h-1.2L256.4,195.2z"/>
	<path class="fp-wildcat-st7" d="M265.7,195.2h1.3v7.6h-1.3V195.2z"/>
	<path class="fp-wildcat-st7" d="M269.5,195.2h1.2l4.1,5.2v-5.2h1.3v7.6H275l-4.2-5.4v5.4h-1.3V195.2z"/>
	<path class="fp-wildcat-st7" d="M278.2,199L278.2,199c0-2.1,1.6-3.9,3.9-3.9c1.3,0,2.1,0.4,2.9,1l-0.8,1c-0.6-0.5-1.2-0.8-2.1-0.8
		c-1.4,0-2.5,1.2-2.5,2.7v0c0,1.6,1,2.7,2.6,2.7c0.7,0,1.4-0.2,1.8-0.6v-1.4H282v-1.2h3.2v3.2c-0.7,0.6-1.8,1.2-3.2,1.2
		C279.7,202.9,278.2,201.2,278.2,199z"/>
</g>
<g class="fp-wildcat-st6">
	<path class="fp-wildcat-st7" d="M242,211.4l1.5-1.3c0.6-0.5,0.8-0.8,0.8-1.2c0-0.4-0.3-0.7-0.7-0.7s-0.7,0.2-1,0.7l-0.6-0.4
		c0.4-0.6,0.9-0.9,1.7-0.9c0.9,0,1.5,0.5,1.5,1.3v0c0,0.7-0.4,1.1-1.2,1.7l-0.9,0.8h2.1v0.7H242V211.4z"/>
	<path class="fp-wildcat-st7" d="M246.8,211.6c-0.3-0.3-0.5-0.8-0.5-1.7v0c0-1.4,0.7-2.4,1.9-2.4c0.6,0,1,0.2,1.4,0.5l-0.4,0.6
		c-0.3-0.2-0.6-0.4-1-0.4c-0.8,0-1.1,0.8-1.1,1.4c0.3-0.3,0.6-0.5,1.1-0.5c0.9,0,1.6,0.5,1.6,1.4v0c0,0.9-0.7,1.5-1.7,1.5
		C247.5,212.1,247.1,211.9,246.8,211.6z M249,210.6L249,210.6c0-0.5-0.4-0.8-0.9-0.8c-0.6,0-0.9,0.4-0.9,0.8v0
		c0,0.5,0.4,0.8,0.9,0.8C248.6,211.4,249,211.1,249,210.6z"/>
	<path class="fp-wildcat-st7" d="M250.7,209c0.4-0.1,0.6-0.3,0.6-0.6h-0.3v-0.9h0.9v0.8c0,0.7-0.3,1-1,1.1L250.7,209z"/>
	<path class="fp-wildcat-st7" d="M255.5,211.6c-0.3-0.3-0.5-0.8-0.5-1.7v0c0-1.4,0.7-2.4,1.9-2.4c0.6,0,1,0.2,1.4,0.5l-0.4,0.6
		c-0.3-0.2-0.6-0.4-1-0.4c-0.8,0-1.1,0.8-1.1,1.4c0.3-0.3,0.6-0.5,1.1-0.5c0.9,0,1.6,0.5,1.6,1.4v0c0,0.9-0.7,1.5-1.7,1.5
		C256.2,212.1,255.8,211.9,255.5,211.6z M257.6,210.6L257.6,210.6c0-0.5-0.4-0.8-0.9-0.8c-0.6,0-0.9,0.4-0.9,0.8v0
		c0,0.5,0.4,0.8,0.9,0.8C257.3,211.4,257.6,211.1,257.6,210.6z"/>
	<path class="fp-wildcat-st7" d="M259.3,209c0.4-0.1,0.6-0.3,0.6-0.6h-0.3v-0.9h0.9v0.8c0,0.7-0.3,1-1,1.1L259.3,209z M260.8,209
		c0.4-0.1,0.6-0.3,0.5-0.6H261v-0.9h0.9v0.8c0,0.7-0.3,1-1,1.1L260.8,209z"/>
	<path class="fp-wildcat-st7" d="M266.6,209.8l0.8-1.1h0.8l-1.2,1.7l1.2,1.7h-0.8l-0.8-1.2l-0.8,1.2h-0.8l1.2-1.7l-1.2-1.7h0.8L266.6,209.8z"/>
	<path class="fp-wildcat-st7" d="M272,208.3l-0.8,0.2l-0.2-0.6l1.2-0.4h0.5v4.5H272V208.3z"/>
	<path class="fp-wildcat-st7" d="M274,211.3l0.6-0.5c0.3,0.4,0.7,0.6,1.2,0.6c0.4,0,0.8-0.3,0.8-0.7v0c0-0.4-0.4-0.7-1-0.7h-0.4l-0.1-0.5
		l1.2-1.3h-1.9v-0.7h3v0.6l-1.3,1.3c0.7,0.1,1.3,0.4,1.3,1.3v0c0,0.8-0.6,1.4-1.6,1.4C274.9,212.1,274.3,211.8,274,211.3z"/>
	<path class="fp-wildcat-st7" d="M278.2,209c0.4-0.1,0.6-0.3,0.6-0.6h-0.3v-0.9h0.9v0.8c0,0.7-0.3,1-1,1.1L278.2,209z"/>
	<path class="fp-wildcat-st7" d="M282.4,211.3l0.6-0.5c0.3,0.4,0.7,0.6,1.2,0.6c0.4,0,0.8-0.3,0.8-0.7v0c0-0.4-0.4-0.7-1-0.7h-0.4l-0.1-0.5
		l1.2-1.3h-1.9v-0.7h3v0.6l-1.3,1.3c0.7,0.1,1.3,0.4,1.3,1.3v0c0,0.8-0.6,1.4-1.6,1.4C283.3,212.1,282.8,211.8,282.4,211.3z"/>
	<path class="fp-wildcat-st7" d="M286.6,209c0.4-0.1,0.6-0.3,0.6-0.6h-0.3v-0.9h0.9v0.8c0,0.7-0.3,1-1,1.1L286.6,209z M288.1,209
		c0.4-0.1,0.6-0.3,0.5-0.6h-0.3v-0.9h0.9v0.8c0,0.7-0.3,1-1,1.1L288.1,209z"/>
</g>
<circle class="fp-wildcat-st22" cx="458.5" cy="440.8" r="11.9"/>
<g class="fp-wildcat-st6">
	<path class="fp-wildcat-st7" d="M450.9,438.9h0.7v1.6h1.8v-1.6h0.7v3.8h-0.7v-1.6h-1.8v1.6h-0.7V438.9z"/>
</g>
<g class="fp-wildcat-st6">
	<path class="fp-wildcat-st7" d="M455,438.9h0.7l1.2,2.9l1.2-2.9h0.7l-1.6,3.9h-0.6L455,438.9z"/>
</g>
<g class="fp-wildcat-st6">
	<path class="fp-wildcat-st7" d="M460.5,438.9h0.6l1.7,3.9h-0.7l-0.4-0.9h-1.8l-0.4,0.9h-0.7L460.5,438.9z M461.4,441.2l-0.7-1.5l-0.7,1.5
		H461.4z"/>
</g>
<g class="fp-wildcat-st6">
	<path class="fp-wildcat-st7" d="M463.3,440.8L463.3,440.8c0-1.1,0.8-2,2-2c0.7,0,1.1,0.2,1.5,0.6l-0.4,0.5c-0.3-0.3-0.6-0.5-1.1-0.5
		c-0.7,0-1.3,0.6-1.3,1.4v0c0,0.8,0.5,1.4,1.3,1.4c0.5,0,0.8-0.2,1.1-0.5l0.4,0.4c-0.4,0.4-0.8,0.7-1.6,0.7
		C464.1,442.8,463.3,441.9,463.3,440.8z"/>
</g>
<rect x="448.3" y="376" class="fp-wildcat-st11" width="21.8" height="19.6"/>
<line class="fp-wildcat-st23" x1="467.7" y1="375.9" x2="467.7" y2="395.5"/>
<rect x="448.3" y="396.6" class="fp-wildcat-st11" width="21.8" height="19.6"/>
<line class="fp-wildcat-st23" x1="467.7" y1="396.5" x2="467.7" y2="416.1"/>
<polyline class="fp-wildcat-st24" points="244.3,458.2 244.3,440.6 245.6,440.6 "/>
<polyline class="fp-wildcat-st24" points="257.9,458.2 257.9,440.6 256.5,440.6 "/>
<rect x="243.9" y="435.6" transform="matrix(0.7071 -0.7071 0.7071 0.7071 -235.1268 304.156)" class="fp-wildcat-st25" width="11.3" height="0.6"/>
<path class="fp-wildcat-st26" d="M256.8,439.6c-0.1-2.8-1.1-5.4-2.9-7.5"/>
<polyline class="fp-wildcat-st24" points="342.6,320.7 355.2,308.1 356.2,309 "/>
<polyline class="fp-wildcat-st24" points="352.3,330.4 364.9,317.8 364,316.9 "/>
<rect x="356.6" y="308.2" class="fp-wildcat-st25" width="11.5" height="0.6"/>
<path class="fp-wildcat-st26" d="M364.9,316.3c1.9-2,3.1-4.7,3.3-7.5"/>
<g class="fp-wildcat-st6">
	<path class="fp-wildcat-st7" d="M257.9,345.9H256v-0.6h2.7v0.5l-1.7,3.3h-0.8L257.9,345.9z"/>
	<path class="fp-wildcat-st7" d="M259.4,346.6c0.3-0.1,0.5-0.2,0.5-0.5h-0.3v-0.7h0.7v0.6c0,0.6-0.3,0.9-0.8,0.9L259.4,346.6z"/>
	<path class="fp-wildcat-st7" d="M265,345.9h-1.9v-0.6h2.7v0.5l-1.7,3.3h-0.8L265,345.9z"/>
	<path class="fp-wildcat-st7" d="M266.4,346.6c0.3-0.1,0.5-0.2,0.5-0.5h-0.3v-0.7h0.7v0.6c0,0.6-0.3,0.9-0.8,0.9L266.4,346.6z M267.7,346.6
		c0.3-0.1,0.5-0.2,0.5-0.5h-0.3v-0.7h0.7v0.6c0,0.6-0.3,0.9-0.8,0.9L267.7,346.6z"/>
	<path class="fp-wildcat-st7" d="M272.6,347.2l0.7-1h0.7l-1,1.4l1.1,1.5h-0.7l-0.7-1l-0.7,1h-0.7l1-1.5l-1-1.4h0.7L272.6,347.2z"/>
	<path class="fp-wildcat-st7" d="M276.4,348.6l0.4-0.5c0.3,0.3,0.6,0.5,1,0.5c0.5,0,0.8-0.3,0.8-0.7v0c0-0.4-0.3-0.6-0.8-0.6
		c-0.3,0-0.5,0.1-0.7,0.2l-0.4-0.3l0.1-1.9h2.3v0.6h-1.7l-0.1,0.9c0.2-0.1,0.3-0.1,0.6-0.1c0.7,0,1.3,0.4,1.3,1.2v0
		c0,0.8-0.6,1.3-1.4,1.3C277.3,349.2,276.8,349,276.4,348.6z"/>
	<path class="fp-wildcat-st7" d="M280,346.6c0.3-0.1,0.5-0.2,0.5-0.5h-0.3v-0.7h0.7v0.6c0,0.6-0.3,0.9-0.8,0.9L280,346.6z"/>
	<path class="fp-wildcat-st7" d="M283.6,348.6l1.3-1.1c0.5-0.4,0.7-0.7,0.7-1c0-0.4-0.3-0.6-0.6-0.6s-0.6,0.2-0.9,0.6l-0.5-0.4
		c0.4-0.5,0.7-0.8,1.4-0.8c0.7,0,1.3,0.5,1.3,1.1v0c0,0.6-0.3,0.9-1,1.5l-0.8,0.7h1.8v0.6h-2.7V348.6z"/>
	<path class="fp-wildcat-st7" d="M287.1,346.6c0.3-0.1,0.5-0.2,0.5-0.5h-0.3v-0.7h0.7v0.6c0,0.6-0.3,0.9-0.8,0.9L287.1,346.6z M288.3,346.6
		c0.3-0.1,0.5-0.2,0.5-0.5h-0.3v-0.7h0.7v0.6c0,0.6-0.3,0.9-0.8,0.9L288.3,346.6z"/>
</g>
<g class="fp-wildcat-st6">
	<path class="fp-wildcat-st7" d="M256.1,338.2L256.1,338.2c0-1.5,1.1-2.8,2.7-2.8c1,0,1.6,0.3,2.1,0.8l-0.6,0.7c-0.4-0.4-0.9-0.7-1.5-0.7
		c-1,0-1.8,0.8-1.8,1.9v0c0,1,0.7,1.9,1.8,1.9c0.7,0,1.1-0.3,1.5-0.7l0.6,0.6c-0.6,0.6-1.2,0.9-2.2,0.9
		C257.2,341,256.1,339.7,256.1,338.2z"/>
</g>
<g class="fp-wildcat-st6">
	<path class="fp-wildcat-st7" d="M262.2,335.6h0.9v4.5h2.8v0.8h-3.7V335.6z"/>
</g>
<g class="fp-wildcat-st6">
	<path class="fp-wildcat-st7" d="M266.7,338.2L266.7,338.2c0-1.5,1.2-2.8,2.8-2.8c1.6,0,2.8,1.2,2.8,2.7v0c0,1.5-1.2,2.7-2.8,2.7
		S266.7,339.7,266.7,338.2z M271.2,338.2L271.2,338.2c0-1-0.8-1.9-1.8-1.9s-1.8,0.8-1.8,1.9v0c0,1,0.8,1.9,1.8,1.9
		S271.2,339.3,271.2,338.2z"/>
</g>
<g class="fp-wildcat-st6">
	<path class="fp-wildcat-st7" d="M273.2,340.1l0.6-0.7c0.5,0.4,1,0.7,1.7,0.7c0.6,0,0.9-0.3,0.9-0.7v0c0-0.4-0.2-0.6-1.2-0.8
		c-1.1-0.3-1.8-0.6-1.8-1.6v0c0-0.9,0.8-1.5,1.8-1.5c0.8,0,1.4,0.2,1.9,0.7l-0.5,0.7c-0.5-0.4-1-0.5-1.4-0.5c-0.5,0-0.9,0.3-0.9,0.6
		v0c0,0.4,0.2,0.6,1.3,0.8c1.1,0.3,1.7,0.7,1.7,1.6v0c0,1-0.8,1.6-1.9,1.6C274.6,340.9,273.9,340.7,273.2,340.1z"/>
	<path class="fp-wildcat-st7" d="M278.8,335.6h3.9v0.8h-3v1.4h2.7v0.8h-2.7v1.4h3v0.8h-4V335.6z"/>
	<path class="fp-wildcat-st7" d="M285.5,336.4h-1.7v-0.9h4.3v0.9h-1.7v4.4h-0.9V336.4z"/>
</g>
<g class="fp-wildcat-st6">
	<path class="fp-wildcat-st7" d="M421.4,283.1l-0.7,0.2l-0.1-0.5l1-0.3h0.5v3.8h-0.7V283.1z"/>
	<path class="fp-wildcat-st7" d="M423.1,284.3L423.1,284.3c0-1.1,0.7-2,1.7-2c1,0,1.6,0.9,1.6,2v0c0,1.1-0.7,2-1.7,2
		C423.7,286.3,423.1,285.4,423.1,284.3z M425.7,284.3L425.7,284.3c0-0.8-0.4-1.4-1-1.4s-1,0.6-1,1.3v0c0,0.7,0.4,1.4,1,1.4
		C425.3,285.7,425.7,285.1,425.7,284.3z"/>
	<path class="fp-wildcat-st7" d="M427.1,283.7c0.3-0.1,0.5-0.2,0.5-0.5h-0.3v-0.7h0.7v0.6c0,0.6-0.3,0.9-0.8,0.9L427.1,283.7z"/>
	<path class="fp-wildcat-st7" d="M432,284.3l0.7-1h0.7l-1,1.4l1.1,1.5h-0.7l-0.7-1l-0.7,1h-0.7l1-1.5l-1-1.4h0.7L432,284.3z"/>
	<path class="fp-wildcat-st7" d="M437.9,283H436v-0.6h2.7v0.5l-1.7,3.3h-0.8L437.9,283z"/>
	<path class="fp-wildcat-st7" d="M439.4,283.7c0.3-0.1,0.5-0.2,0.5-0.5h-0.3v-0.7h0.7v0.6c0,0.6-0.3,0.9-0.8,0.9L439.4,283.7z"/>
	<path class="fp-wildcat-st7" d="M445.2,284.5c-0.2,0.3-0.5,0.4-0.9,0.4c-0.8,0-1.3-0.5-1.3-1.2v0c0-0.7,0.6-1.3,1.4-1.3c0.5,0,0.8,0.1,1.1,0.4
		c0.3,0.3,0.5,0.7,0.5,1.4v0c0,1.2-0.6,2.1-1.6,2.1c-0.5,0-0.9-0.2-1.2-0.5l0.4-0.5c0.3,0.2,0.5,0.4,0.9,0.4
		C445,285.7,445.2,285,445.2,284.5z M445.2,283.6L445.2,283.6c0-0.4-0.3-0.7-0.8-0.7c-0.5,0-0.8,0.3-0.8,0.7v0
		c0,0.4,0.3,0.7,0.8,0.7C444.9,284.3,445.2,284,445.2,283.6z"/>
	<path class="fp-wildcat-st7" d="M446.7,283.7c0.3-0.1,0.5-0.2,0.5-0.5h-0.3v-0.7h0.7v0.6c0,0.6-0.3,0.9-0.8,0.9L446.7,283.7z M447.9,283.7
		c0.3-0.1,0.5-0.2,0.5-0.5h-0.3v-0.7h0.7v0.6c0,0.6-0.3,0.9-0.8,0.9L447.9,283.7z"/>
</g>
<g class="fp-wildcat-st6">
	<path class="fp-wildcat-st7" d="M418.2,275.3L418.2,275.3c0-1.5,1.1-2.8,2.7-2.8c1,0,1.6,0.3,2.1,0.8l-0.6,0.7c-0.4-0.4-0.9-0.7-1.5-0.7
		c-1,0-1.8,0.8-1.8,1.9v0c0,1,0.7,1.9,1.8,1.9c0.7,0,1.1-0.3,1.5-0.7l0.6,0.6c-0.6,0.6-1.2,0.9-2.2,0.9
		C419.4,278,418.2,276.8,418.2,275.3z"/>
</g>
<g class="fp-wildcat-st6">
	<path class="fp-wildcat-st7" d="M424.4,272.6h0.9v4.5h2.8v0.8h-3.7V272.6z"/>
</g>
<g class="fp-wildcat-st6">
	<path class="fp-wildcat-st7" d="M428.8,275.3L428.8,275.3c0-1.5,1.2-2.8,2.8-2.8s2.8,1.2,2.8,2.7v0c0,1.5-1.2,2.7-2.8,2.7
		C430,278,428.8,276.8,428.8,275.3z M433.4,275.3L433.4,275.3c0-1-0.8-1.9-1.8-1.9c-1.1,0-1.8,0.8-1.8,1.9v0c0,1,0.8,1.9,1.8,1.9
		C432.7,277.2,433.4,276.3,433.4,275.3z"/>
</g>
<g class="fp-wildcat-st6">
	<path class="fp-wildcat-st7" d="M435.4,277.2l0.6-0.7c0.5,0.4,1,0.7,1.7,0.7c0.6,0,0.9-0.3,0.9-0.7v0c0-0.4-0.2-0.6-1.2-0.8
		c-1.1-0.3-1.8-0.6-1.8-1.6v0c0-0.9,0.8-1.5,1.8-1.5c0.8,0,1.4,0.2,1.9,0.7l-0.5,0.7c-0.5-0.4-1-0.5-1.4-0.5c-0.5,0-0.9,0.3-0.9,0.6
		v0c0,0.4,0.2,0.6,1.3,0.8c1.1,0.3,1.7,0.7,1.7,1.6v0c0,1-0.8,1.6-1.9,1.6C436.8,278,436.1,277.7,435.4,277.2z"/>
	<path class="fp-wildcat-st7" d="M441,272.6h3.9v0.8h-3v1.4h2.7v0.8h-2.7v1.4h3v0.8h-4V272.6z"/>
	<path class="fp-wildcat-st7" d="M447.6,273.5H446v-0.9h4.3v0.9h-1.7v4.4h-0.9V273.5z"/>
</g>
<g class="fp-wildcat-st6">
	<path class="fp-wildcat-st7" d="M275.1,427.2l-0.5,0.2l-0.1-0.4l0.8-0.3h0.4v3.1h-0.5V427.2z"/>
	<path class="fp-wildcat-st7" d="M276.5,429.3l1.1-0.9c0.4-0.4,0.6-0.5,0.6-0.8c0-0.3-0.2-0.5-0.5-0.5s-0.5,0.2-0.7,0.5l-0.4-0.3
		c0.3-0.4,0.6-0.6,1.1-0.6c0.6,0,1,0.4,1,0.9v0c0,0.5-0.3,0.7-0.8,1.2l-0.6,0.5h1.5v0.5h-2.2V429.3z"/>
	<path class="fp-wildcat-st7" d="M279.3,427.7c0.3,0,0.4-0.2,0.4-0.4h-0.2v-0.6h0.6v0.5c0,0.5-0.2,0.7-0.7,0.7L279.3,427.7z"/>
	<path class="fp-wildcat-st7" d="M283.8,427.2h-1.5v-0.5h2.1v0.4l-1.4,2.6h-0.6L283.8,427.2z"/>
	<path class="fp-wildcat-st7" d="M285,427.7c0.3,0,0.4-0.2,0.4-0.4h-0.2v-0.6h0.6v0.5c0,0.5-0.2,0.7-0.7,0.7L285,427.7z M286,427.7
		c0.3,0,0.4-0.2,0.4-0.4h-0.2v-0.6h0.6v0.5c0,0.5-0.2,0.7-0.7,0.7L286,427.7z"/>
	<path class="fp-wildcat-st7" d="M289.9,428.2l0.5-0.8h0.6l-0.8,1.1l0.8,1.2h-0.6l-0.6-0.8l-0.6,0.8h-0.6l0.8-1.2l-0.8-1.1h0.6L289.9,428.2z"/>
	<path class="fp-wildcat-st7" d="M293,429.3l0.3-0.4c0.2,0.2,0.5,0.4,0.8,0.4c0.4,0,0.6-0.2,0.6-0.5v0c0-0.3-0.3-0.5-0.6-0.5
		c-0.2,0-0.4,0.1-0.6,0.1l-0.3-0.2l0.1-1.5h1.8v0.5h-1.4l0,0.7c0.1-0.1,0.3-0.1,0.5-0.1c0.6,0,1.1,0.3,1.1,1v0c0,0.6-0.5,1-1.1,1
		C293.7,429.8,293.3,429.6,293,429.3z"/>
	<path class="fp-wildcat-st7" d="M295.9,427.7c0.3,0,0.4-0.2,0.4-0.4h-0.2v-0.6h0.6v0.5c0,0.5-0.2,0.7-0.7,0.7L295.9,427.7z"/>
	<path class="fp-wildcat-st7" d="M300.6,428.3c-0.2,0.2-0.4,0.3-0.7,0.3c-0.7,0-1.1-0.4-1.1-1v0c0-0.6,0.5-1.1,1.1-1.1c0.4,0,0.6,0.1,0.9,0.3
		c0.2,0.2,0.4,0.6,0.4,1.2v0c0,1-0.5,1.7-1.3,1.7c-0.4,0-0.7-0.2-1-0.4l0.3-0.4c0.2,0.2,0.4,0.3,0.7,0.3
		C300.4,429.3,300.6,428.8,300.6,428.3z M300.6,427.7L300.6,427.7c0-0.3-0.2-0.6-0.6-0.6c-0.4,0-0.6,0.3-0.6,0.6v0
		c0,0.3,0.2,0.5,0.6,0.5C300.4,428.2,300.6,428,300.6,427.7z"/>
	<path class="fp-wildcat-st7" d="M301.8,427.7c0.3,0,0.4-0.2,0.4-0.4h-0.2v-0.6h0.6v0.5c0,0.5-0.2,0.7-0.7,0.7L301.8,427.7z M302.8,427.7
		c0.3,0,0.4-0.2,0.4-0.4h-0.2v-0.6h0.6v0.5c0,0.5-0.2,0.7-0.7,0.7L302.8,427.7z"/>
</g>
<g class="fp-wildcat-st6">
	<path class="fp-wildcat-st7" d="M280.5,419.2h1.9c0.5,0,0.9,0.1,1.1,0.4c0.2,0.2,0.3,0.4,0.3,0.7v0c0,0.5-0.3,0.8-0.6,1c0.5,0.2,0.8,0.5,0.8,1
		v0c0,0.8-0.6,1.2-1.6,1.2h-2V419.2z M283.1,420.4c0-0.3-0.3-0.5-0.8-0.5h-1.1v1.1h1C282.8,421,283.1,420.8,283.1,420.4L283.1,420.4
		z M282.5,421.6h-1.2v1.2h1.2c0.5,0,0.8-0.2,0.8-0.6v0C283.4,421.9,283.1,421.6,282.5,421.6z"/>
</g>
<g class="fp-wildcat-st6">
	<path class="fp-wildcat-st7" d="M286.7,419.2h0.7l1.9,4.3h-0.8l-0.4-1h-2l-0.4,1h-0.8L286.7,419.2z M287.8,421.8l-0.7-1.7l-0.7,1.7H287.8z"/>
</g>
<g class="fp-wildcat-st6">
	<path class="fp-wildcat-st7" d="M290.8,419.9h-1.4v-0.7h3.5v0.7h-1.4v3.6h-0.8V419.9z"/>
	<path class="fp-wildcat-st7" d="M293.9,419.2h0.8v1.8h2v-1.8h0.8v4.3h-0.8v-1.8h-2v1.8h-0.8V419.2z"/>
</g>
<g class="fp-wildcat-st6">
	<path class="fp-wildcat-st7" d="M375.6,443.4L375.6,443.4c-0.7,0-1.2-0.5-1.2-1.1c0-0.4,0.2-0.7,0.4-0.9l0.3,0.3c-0.2,0.2-0.3,0.4-0.3,0.6
		c0,0.4,0.4,0.7,0.8,0.7h0c0.5,0,0.8-0.3,0.8-0.7c0-0.3-0.1-0.4-0.3-0.6l0.3-0.3c0.3,0.2,0.4,0.5,0.4,0.9
		C376.8,442.9,376.3,443.4,375.6,443.4z"/>
</g>
<g class="fp-wildcat-st6">
	<path class="fp-wildcat-st7" d="M375.6,441L375.6,441c-0.7,0-1.2-0.5-1.2-1.2c0-0.7,0.5-1.2,1.2-1.2h0c0.7,0,1.2,0.5,1.2,1.2
		S376.3,441,375.6,441z M375.6,439.1L375.6,439.1c-0.5,0-0.8,0.3-0.8,0.8s0.4,0.7,0.8,0.7h0c0.5,0,0.8-0.3,0.8-0.8
		C376.4,439.4,376,439.1,375.6,439.1z"/>
</g>
<g class="fp-wildcat-st6">
	<path class="fp-wildcat-st7" d="M374.4,437.4v-0.4l2.4-1v0.4l-0.6,0.2v1.1l0.6,0.2v0.4L374.4,437.4z M375.8,436.9l-0.9,0.4l0.9,0.4V436.9z"/>
</g>
<g class="fp-wildcat-st6">
	<path class="fp-wildcat-st7" d="M374.8,435.3v0.7h-0.4v-1.8h0.4v0.7h2v0.4H374.8z"/>
</g>
<rect x="441.5" y="387.1" class="fp-wildcat-st21" width="5.8" height="18.9"/>
<g class="fp-wildcat-st6">
	<path class="fp-wildcat-st7" d="M445.5,388v0.4h-2v1.2h-0.4V388H445.5z"/>
</g>
<g class="fp-wildcat-st6">
	<path class="fp-wildcat-st7" d="M445.6,390.9v0.4l-2.4,1v-0.4l0.6-0.2v-1.1l-0.6-0.2v-0.4L445.6,390.9z M444.1,391.4l0.9-0.4l-0.9-0.4V391.4z"
		/>
</g>
<g class="fp-wildcat-st6">
	<path class="fp-wildcat-st7" d="M444.2,392.6h1.4v0.4h-1.3c-0.4,0-0.7,0.2-0.7,0.6c0,0.3,0.2,0.6,0.7,0.6h1.4v0.4h-1.3c-0.7,0-1.1-0.4-1.1-1
		C443.1,393,443.5,392.6,444.2,392.6z"/>
	<path class="fp-wildcat-st7" d="M445.5,395.2v0.4l-1.6,1.2h1.6v0.4h-2.4v-0.3l1.7-1.2h-1.7v-0.4H445.5z"/>
	<path class="fp-wildcat-st7" d="M445.5,397.8v0.8c0,0.7-0.5,1.2-1.2,1.2h0c-0.7,0-1.2-0.5-1.2-1.2v-0.8H445.5z M445.2,398.2h-1.6v0.4
		c0,0.5,0.3,0.8,0.8,0.8h0c0.5,0,0.8-0.3,0.8-0.8V398.2z"/>
</g>
<g class="fp-wildcat-st6">
	<path class="fp-wildcat-st7" d="M445.5,400.4v1c0,0.3-0.1,0.5-0.2,0.6c-0.1,0.1-0.3,0.2-0.5,0.2h0c-0.4,0-0.6-0.2-0.7-0.5l-0.9,0.6v-0.5
		l0.8-0.5v-0.5h-0.8v-0.4H445.5z M444.4,401.4c0,0.3,0.2,0.5,0.4,0.5h0c0.3,0,0.4-0.2,0.4-0.5v-0.6h-0.8V401.4z"/>
</g>
<g class="fp-wildcat-st6">
	<path class="fp-wildcat-st7" d="M444.1,403.4l1.4-0.9v0.5l-1,0.6l1,0.6v0.4l-1.4-0.9h-0.9v-0.4H444.1z"/>
</g>
<line class="fp-wildcat-st16" x1="164.4" y1="161.6" x2="181.8" y2="144.2"/>
<rect x="160.8" y="152.6" transform="matrix(0.7071 -0.7071 0.7071 0.7071 -57.4315 167.2151)" class="fp-wildcat-st7" width="24.6" height="0.6"/>
<line class="fp-wildcat-st16" x1="144.7" y1="181.4" x2="162.1" y2="164"/>
<rect x="141.1" y="172.4" transform="matrix(0.7071 -0.7071 0.7071 0.7071 -77.1669 159.0425)" class="fp-wildcat-st7" width="24.6" height="0.6"/>
<rect x="394.6" y="321.4" class="fp-wildcat-st21" width="26.6" height="17.6"/>
<g class="fp-wildcat-st6">
	<path class="fp-wildcat-st7" d="M401.2,333.5l-0.5,0.2l-0.1-0.4l0.8-0.3h0.4v3.1h-0.5V333.5z"/>
	<path class="fp-wildcat-st7" d="M403.1,333.5l-0.5,0.2l-0.1-0.4l0.8-0.3h0.4v3.1h-0.5V333.5z"/>
	<path class="fp-wildcat-st7" d="M404.4,334c0.3,0,0.4-0.2,0.4-0.4h-0.2V333h0.6v0.5c0,0.5-0.2,0.7-0.7,0.7L404.4,334z"/>
	<path class="fp-wildcat-st7" d="M408.3,334.5l0.5-0.8h0.6l-0.8,1.1l0.8,1.2h-0.6l-0.6-0.8l-0.6,0.8h-0.6l0.8-1.2l-0.8-1.1h0.6L408.3,334.5z"/>
	<path class="fp-wildcat-st7" d="M411.4,335.6l0.3-0.4c0.2,0.2,0.5,0.4,0.8,0.4c0.4,0,0.6-0.2,0.6-0.5v0c0-0.3-0.3-0.5-0.6-0.5
		c-0.2,0-0.4,0.1-0.6,0.1l-0.3-0.2l0.1-1.5h1.8v0.5h-1.4l0,0.7c0.1-0.1,0.3-0.1,0.5-0.1c0.6,0,1.1,0.3,1.1,1v0c0,0.6-0.5,1-1.1,1
		C412.1,336.1,411.7,335.9,411.4,335.6z"/>
	<path class="fp-wildcat-st7" d="M414.3,334c0.3,0,0.4-0.2,0.4-0.4h-0.2V333h0.6v0.5c0,0.5-0.2,0.7-0.7,0.7L414.3,334z"/>
</g>
<g class="fp-wildcat-st6">
	<path class="fp-wildcat-st7" d="M399.3,325.9h1.9c0.5,0,0.9,0.1,1.1,0.4c0.2,0.2,0.3,0.4,0.3,0.7v0c0,0.5-0.3,0.8-0.6,1c0.5,0.2,0.8,0.5,0.8,1
		v0c0,0.8-0.6,1.2-1.6,1.2h-2V325.9z M401.9,327.1c0-0.3-0.3-0.5-0.8-0.5h-1.1v1.1h1C401.6,327.7,401.9,327.5,401.9,327.1
		L401.9,327.1z M401.3,328.4h-1.2v1.2h1.2c0.5,0,0.8-0.2,0.8-0.6v0C402.1,328.6,401.9,328.4,401.3,328.4z"/>
</g>
<g class="fp-wildcat-st6">
	<path class="fp-wildcat-st7" d="M405.5,325.9h0.7l1.9,4.3h-0.8l-0.4-1h-2l-0.4,1h-0.8L405.5,325.9z M406.6,328.5l-0.7-1.7l-0.7,1.7H406.6z"/>
</g>
<g class="fp-wildcat-st6">
	<path class="fp-wildcat-st7" d="M409.6,326.6h-1.4v-0.7h3.5v0.7h-1.4v3.6h-0.8V326.6z"/>
	<path class="fp-wildcat-st7" d="M412.7,325.9h0.8v1.8h2v-1.8h0.8v4.3h-0.8v-1.8h-2v1.8h-0.8V325.9z"/>
</g>
<rect x="0.5" y="0.5" class="fp-wildcat-st27" width="557.3" height="557.3"/>
</svg>
