<?xml version="1.0" encoding="utf-8"?>
<!-- Generator: Adobe Illustrator 21.1.0, SVG Export Plug-In . SVG Version: 6.00 Build 0)  -->
<svg version="1.1" id="Layer_1" xmlns="http://www.w3.org/2000/svg" xmlns:xlink="http://www.w3.org/1999/xlink" x="0px" y="0px"
	 viewBox="0 0 558.3 558.3" style="enable-background:new 0 0 558.3 558.3;" xml:space="preserve">
<style type="text/css">
	.fp-whitewater-st0{fill:none;stroke:#A6A8AB;stroke-width:0.27;stroke-miterlimit:10;}
	.fp-whitewater-st1{fill:#E4E9E4;}
	.fp-whitewater-st2{fill:#E4E9E4;stroke:#32553B;stroke-width:0.27;stroke-miterlimit:10;}
	.fp-whitewater-st3{fill:none;stroke:#32553B;stroke-width:0.27;stroke-miterlimit:10;}
	.fp-whitewater-st4{fill:none;stroke:#799900;stroke-width:0.16;stroke-miterlimit:10;}
	.fp-whitewater-st5{fill:#FFFFFF;stroke:#62A044;stroke-width:0.16;stroke-miterlimit:10;}
	.fp-whitewater-st6{fill:#F5F7F5;}
	.fp-whitewater-st7{enable-background:new    ;}
	.fp-whitewater-st8{fill:#32553B;}
	.fp-whitewater-st9{fill:none;stroke:#E4E9E4;stroke-width:7.59;stroke-linejoin:round;}
	.fp-whitewater-st10{fill:#C8D0C9;stroke:#32553B;stroke-width:0.24;stroke-miterlimit:10;}
	.fp-whitewater-st11{fill:#C8D0C9;stroke:#32553B;stroke-width:0.21;stroke-miterlimit:10;}
	.fp-whitewater-st12{fill:#E4E9E4;stroke:#32553B;stroke-width:0.24;stroke-miterlimit:10;}
	.fp-whitewater-st13{fill:#C8D0C9;stroke:#32553B;stroke-width:0.27;stroke-miterlimit:10;}
	.fp-whitewater-st14{fill:none;stroke:#32553B;stroke-width:0.24;stroke-miterlimit:10;}
	.fp-whitewater-st15{fill:none;stroke:#32553B;stroke-width:7.59;stroke-linejoin:round;}
	.fp-whitewater-st16{fill:none;stroke:#32553B;stroke-width:4.33;stroke-miterlimit:10;}
	.fp-whitewater-st17{fill:#FFFFFF;stroke:#62A044;stroke-width:0.13;stroke-miterlimit:10;}
	.fp-whitewater-st18{fill:none;stroke:#799900;stroke-width:0.13;stroke-miterlimit:10;}
	.fp-whitewater-st19{fill:#FFFFFF;stroke:#62A044;stroke-width:0.3;stroke-miterlimit:10;}
	.fp-whitewater-st20{fill:none;stroke:#799900;stroke-width:0.3;stroke-miterlimit:10;}
	.fp-whitewater-st21{fill:none;stroke:#799900;stroke-width:0.27;stroke-miterlimit:10;}
	.fp-whitewater-st22{fill:#FFFFFF;stroke:#62A044;stroke-width:0.27;stroke-miterlimit:10;}
	.fp-whitewater-st23{fill:none;stroke:#32553B;stroke-width:0.21;stroke-miterlimit:10;}
	.fp-whitewater-st24{fill:#C8D0C9;stroke:#32553B;stroke-width:0.2;stroke-miterlimit:10;}
	.fp-whitewater-st25{fill:none;stroke:#32553B;stroke-width:0.84;stroke-miterlimit:10;}
	.fp-whitewater-st26{fill:none;stroke:#F5F7F5;stroke-miterlimit:10;}
</style>
<title>fp_whitewater</title>
<g id="Layer_2">
	<g id="DESIGN">
		<line class="fp-whitewater-st0" x1="89.4" y1="161.1" x2="478.7" y2="161.1"/>
		<line class="fp-whitewater-st0" x1="89.4" y1="169" x2="478.7" y2="169"/>
		<line class="fp-whitewater-st0" x1="89.4" y1="153.2" x2="478.7" y2="153.2"/>
		<line class="fp-whitewater-st0" x1="89.4" y1="145.4" x2="478.7" y2="145.4"/>
		<line class="fp-whitewater-st0" x1="89.4" y1="137.5" x2="478.7" y2="137.5"/>
		<line class="fp-whitewater-st0" x1="89.4" y1="129.7" x2="478.7" y2="129.7"/>
		<line class="fp-whitewater-st0" x1="89.4" y1="121.8" x2="201.4" y2="121.8"/>
		<line class="fp-whitewater-st0" x1="89.4" y1="176.8" x2="478.7" y2="176.8"/>
		<line class="fp-whitewater-st0" x1="89.4" y1="184.7" x2="478.7" y2="184.7"/>
		<line class="fp-whitewater-st0" x1="89.4" y1="192.5" x2="478.7" y2="192.5"/>
		<line class="fp-whitewater-st0" x1="89.4" y1="200.4" x2="478.7" y2="200.4"/>
		<line class="fp-whitewater-st0" x1="89.4" y1="208.2" x2="478.7" y2="208.2"/>
		<line class="fp-whitewater-st0" x1="89.4" y1="216.1" x2="478.7" y2="216.1"/>
		<line class="fp-whitewater-st0" x1="89.4" y1="223.9" x2="478.7" y2="223.9"/>
		<line class="fp-whitewater-st0" x1="107.8" y1="231.8" x2="478.7" y2="231.8"/>
		<line class="fp-whitewater-st0" x1="107.8" y1="239.6" x2="478.7" y2="239.6"/>
		<line class="fp-whitewater-st0" x1="107.8" y1="247.5" x2="478.7" y2="247.5"/>
		<line class="fp-whitewater-st0" x1="107.8" y1="255.4" x2="478.7" y2="255.4"/>
		<line class="fp-whitewater-st0" x1="107.8" y1="263.2" x2="478.7" y2="263.2"/>
		<line class="fp-whitewater-st0" x1="107.8" y1="271" x2="478.7" y2="271"/>
		<line class="fp-whitewater-st0" x1="107.8" y1="278.9" x2="478.7" y2="278.9"/>
		<line class="fp-whitewater-st0" x1="107.8" y1="286.8" x2="478.7" y2="286.8"/>
		<line class="fp-whitewater-st0" x1="107.8" y1="294.6" x2="478.7" y2="294.6"/>
		<line class="fp-whitewater-st0" x1="107.8" y1="302.5" x2="478.7" y2="302.5"/>
		<line class="fp-whitewater-st0" x1="107.8" y1="310.3" x2="478.7" y2="310.3"/>
		<line class="fp-whitewater-st0" x1="107.8" y1="318.2" x2="478.7" y2="318.2"/>
		<line class="fp-whitewater-st0" x1="107.8" y1="326" x2="478.7" y2="326"/>
		<line class="fp-whitewater-st0" x1="107.8" y1="333.9" x2="478.7" y2="333.9"/>
		<line class="fp-whitewater-st0" x1="107.8" y1="341.7" x2="478.7" y2="341.7"/>
		<line class="fp-whitewater-st0" x1="107.8" y1="349.6" x2="478.7" y2="349.6"/>
		<line class="fp-whitewater-st0" x1="107.8" y1="357.4" x2="478.7" y2="357.4"/>
		<line class="fp-whitewater-st0" x1="107.8" y1="365.3" x2="478.7" y2="365.3"/>
		<line class="fp-whitewater-st0" x1="107.8" y1="373.1" x2="478.7" y2="373.1"/>
		<line class="fp-whitewater-st0" x1="107.8" y1="381" x2="478.7" y2="381"/>
		<line class="fp-whitewater-st0" x1="107.8" y1="388.9" x2="478.7" y2="388.9"/>
		<line class="fp-whitewater-st0" x1="107.8" y1="396.7" x2="478.7" y2="396.7"/>
		<line class="fp-whitewater-st0" x1="107.8" y1="404.6" x2="478.7" y2="404.6"/>
		<line class="fp-whitewater-st0" x1="107.8" y1="412.4" x2="478.7" y2="412.4"/>
		<line class="fp-whitewater-st0" x1="107.8" y1="420.3" x2="478.7" y2="420.3"/>
		<line class="fp-whitewater-st0" x1="107.8" y1="428.1" x2="478.7" y2="428.1"/>
		<line class="fp-whitewater-st0" x1="107.8" y1="436" x2="478.7" y2="436"/>
		<line class="fp-whitewater-st0" x1="107.8" y1="443.8" x2="478.7" y2="443.8"/>
		<line class="fp-whitewater-st0" x1="107.8" y1="451.7" x2="478.7" y2="451.7"/>
		<line class="fp-whitewater-st0" x1="107.8" y1="459.5" x2="478.7" y2="459.5"/>
		<polygon class="fp-whitewater-st1" points="260.5,131.7 260.5,242 260.1,242.4 314,296.3 368.2,242.1 368.4,242.1 367.6,242.9 394.8,270 
			380.5,284.3 413.3,317.2 413.9,317.3 478.7,317.3 478.7,242.1 478.7,231.3 478.7,131.7 		"/>
		<polygon class="fp-whitewater-st1" points="346.5,383.8 283.2,320.5 283.2,320.2 283,320.2 263.6,300.9 244.3,320.2 242.6,320.2 242.6,354.4 
			175.4,354.4 175.4,354.4 108.2,354.4 108.2,463.7 242.8,463.7 242.8,407.2 323.3,407.2 		"/>
		<rect x="140.4" y="332.8" class="fp-whitewater-st2" width="2.3" height="1.3"/>
		<rect x="156.7" y="332.8" class="fp-whitewater-st2" width="3.7" height="1.3"/>
		<line class="fp-whitewater-st3" x1="157" y1="335.9" x2="142.2" y2="335.9"/>
		<line class="fp-whitewater-st3" x1="156.7" y1="333.5" x2="142.6" y2="333.5"/>
		<polyline class="fp-whitewater-st3" points="156.9,334.1 156.9,351 142.2,351 142.2,334.1 		"/>
		<path class="fp-whitewater-st4" d="M156.6,332.1c-0.1-3.4-1.3-6.7-3.6-9.2"/>
		
			<rect x="140.8" y="327.1" transform="matrix(0.7071 -0.7071 0.7071 0.7071 -188.2946 200.4323)" class="fp-whitewater-st5" width="14" height="0.8"/>
		<rect x="143.2" y="341.5" class="fp-whitewater-st6" width="12.9" height="4.6"/>
		<g class="fp-whitewater-st7">
			<path class="fp-whitewater-st8" d="M143.8,342.7h0.8c0.5,0,0.7,0.3,0.7,0.7v0c0,0.4-0.4,0.7-0.8,0.7h-0.4v0.6h-0.3V342.7z M144.5,343.7
				c0.3,0,0.4-0.1,0.4-0.4v0c0-0.2-0.2-0.4-0.4-0.4h-0.4v0.7H144.5z"/>
		</g>
		<g class="fp-whitewater-st7">
			<path class="fp-whitewater-st8" d="M146.2,342.7h0.3l0.9,2h-0.4l-0.2-0.5h-0.9l-0.2,0.5h-0.4L146.2,342.7z M146.7,343.9l-0.3-0.8l-0.3,0.8
				H146.7z"/>
			<path class="fp-whitewater-st8" d="M147.9,342.7h0.3l1.1,1.4v-1.4h0.3v2h-0.3l-1.1-1.4v1.4h-0.3V342.7z"/>
			<path class="fp-whitewater-st8" d="M150.7,343h-0.6v-0.3h1.6v0.3H151v1.6h-0.3V343z"/>
		</g>
		<g class="fp-whitewater-st7">
			<path class="fp-whitewater-st8" d="M152.1,342.7h0.9c0.2,0,0.4,0.1,0.6,0.2c0.1,0.1,0.2,0.3,0.2,0.4v0c0,0.3-0.2,0.5-0.5,0.6l0.5,0.7h-0.4
				l-0.5-0.7h-0.4v0.7h-0.3V342.7z M153,343.7c0.2,0,0.4-0.1,0.4-0.3v0c0-0.2-0.2-0.3-0.4-0.3h-0.5v0.7H153z"/>
		</g>
		<g class="fp-whitewater-st7">
			<path class="fp-whitewater-st8" d="M154.8,343.9l-0.8-1.2h0.4l0.5,0.9l0.6-0.9h0.4l-0.8,1.2v0.8h-0.3V343.9z"/>
		</g>
		<line class="fp-whitewater-st9" x1="184.5" y1="116.5" x2="95.5" y2="116.5"/>
		<rect x="95.5" y="116.2" class="fp-whitewater-st8" width="88.9" height="0.7"/>
		<rect x="259.1" y="443.9" class="fp-whitewater-st10" width="46.8" height="19.7"/>
		<polygon class="fp-whitewater-st10" points="365.7,321.8 352.5,334.9 386.8,369.2 386.8,372.7 400.2,372.7 400.2,356.4 		"/>
		<polyline class="fp-whitewater-st11" points="420.3,372.9 420.3,368.5 441.2,368.5 441.2,372.9 		"/>
		<path class="fp-whitewater-st11" d="M426.2,358.3c0.2,0.4,0.3,0.9,0.3,1.4v2.6c0,0.4-0.3,0.8-0.7,0.8c0,0-0.1,0-0.1,0h10.2
			c-0.4,0-0.8-0.3-0.8-0.7c0,0,0-0.1,0-0.1v-2.6c0-0.5,0.1-0.9,0.3-1.4"/>
		<ellipse class="fp-whitewater-st11" cx="430.8" cy="353.3" rx="5.9" ry="8"/>
		<rect x="421.9" y="363.1" class="fp-whitewater-st11" width="17.9" height="5.8"/>
		<polyline class="fp-whitewater-st11" points="307.1,462.6 307.1,458.2 328.1,458.2 328.1,462.6 		"/>
		<path class="fp-whitewater-st11" d="M313,448c0.2,0.4,0.3,0.9,0.3,1.4v2.6c0,0.4-0.3,0.8-0.7,0.8c0,0-0.1,0-0.1,0h10.2c-0.4,0-0.8-0.3-0.8-0.7
			c0,0,0-0.1,0-0.1v-2.6c0-0.5,0.1-0.9,0.3-1.4"/>
		<ellipse class="fp-whitewater-st11" cx="317.6" cy="443" rx="5.9" ry="8"/>
		<rect x="308.7" y="452.9" class="fp-whitewater-st11" width="17.9" height="5.8"/>
		<rect x="444.6" y="317.1" class="fp-whitewater-st10" width="31.6" height="51.6"/>
		<path class="fp-whitewater-st10" d="M460.8,320.9c0,0-12.3-0.2-12.3,4.7v36.8c0,0-0.2,3.9,3.6,3.9h17.4c3.8,0,3.6-3.9,3.6-3.9v-36.8
			C473.1,320.7,460.8,320.9,460.8,320.9L460.8,320.9z"/>
		<path class="fp-whitewater-st10" d="M460.9,364.6c0.8,0,1.6,0.3,2.3,0.8l-2.2,2.5h-0.1l-2.2-2.5C459.3,364.8,460.1,364.6,460.9,364.6"/>
		<rect x="442.5" y="367" class="fp-whitewater-st8" width="35.3" height="6.1"/>
		<rect x="331.3" y="407.4" class="fp-whitewater-st10" width="31.6" height="51.6"/>
		<path class="fp-whitewater-st10" d="M347.5,411.3c0,0-12.3-0.2-12.3,4.7v36.8c0,0-0.2,3.9,3.6,3.9h17.4c3.8,0,3.6-3.9,3.6-3.9V416
			C359.8,411.1,347.5,411.3,347.5,411.3L347.5,411.3z"/>
		<path class="fp-whitewater-st10" d="M347.6,455c0.8,0,1.6,0.3,2.3,0.8l-2.2,2.5h-0.1l-2.2-2.5C346,455.3,346.8,455,347.6,455"/>
		<rect x="329.2" y="457.4" class="fp-whitewater-st8" width="35.3" height="6.1"/>
		<rect x="157.5" y="332.8" class="fp-whitewater-st12" width="86.5" height="23.2"/>
		<polygon class="fp-whitewater-st13" points="175.6,332.3 175.6,331.5 201.1,331.5 201.1,354.6 175.6,354.6 		"/>
		<circle class="fp-whitewater-st13" cx="195.6" cy="345.5" r="3.8"/>
		<circle class="fp-whitewater-st13" cx="195.6" cy="336.5" r="2.9"/>
		<circle class="fp-whitewater-st13" cx="181.2" cy="336.5" r="2.5"/>
		<circle class="fp-whitewater-st13" cx="181.2" cy="345.5" r="2.5"/>
		<line class="fp-whitewater-st3" x1="201.1" y1="350.6" x2="175.6" y2="350.6"/>
		<rect x="145.2" y="256.6" class="fp-whitewater-st12" width="76.9" height="34.7"/>
		<line class="fp-whitewater-st14" x1="145.2" y1="266.9" x2="222.1" y2="266.9"/>
		<path class="fp-whitewater-st13" d="M195.6,276.9v10.8c0,1.3-1,2.3-2.3,2.3H174c-1.3,0-2.3-1-2.3-2.3v-10.8c0-1.3,1-2.3,2.3-2.3h19.2
			C194.6,274.6,195.6,275.7,195.6,276.9z"/>
		<circle class="fp-whitewater-st13" cx="183.7" cy="282.3" r="1.3"/>
		<polyline class="fp-whitewater-st15" points="457.7,131.7 478.7,131.7 478.7,463.7 438.4,463.7 		"/>
		<line class="fp-whitewater-st15" x1="343.7" y1="131.7" x2="382.5" y2="131.7"/>
		<polyline class="fp-whitewater-st15" points="184.5,116.5 201.4,116.5 201.4,116.5 201.4,131.7 268.4,131.7 		"/>
		<polyline class="fp-whitewater-st15" points="89.5,122.4 89.5,116.5 95.5,116.5 		"/>
		<polyline class="fp-whitewater-st15" points="107.8,251.3 107.8,227.6 89.5,227.6 89.5,211.4 		"/>
		<line class="fp-whitewater-st15" x1="107.8" y1="365.4" x2="107.8" y2="326.6"/>
		<polyline class="fp-whitewater-st15" points="406.4,463.7 107.8,463.7 107.8,440.7 		"/>
		<polyline class="fp-whitewater-st16" points="260.2,131.7 260.2,242.3 314,296.1 344.1,266 		"/>
		<polyline class="fp-whitewater-st16" points="363.2,246.8 368,242.1 368,131.7 		"/>
		<line class="fp-whitewater-st16" x1="367.6" y1="242.5" x2="372.3" y2="247.2"/>
		<line class="fp-whitewater-st16" x1="340.6" y1="269.5" x2="327.3" y2="256.2"/>
		<polyline class="fp-whitewater-st16" points="308.1,237 304.3,233.2 260.2,233.2 		"/>
		<line class="fp-whitewater-st16" x1="273.1" y1="233.3" x2="273.1" y2="255.1"/>
		<line class="fp-whitewater-st16" x1="391.9" y1="266.9" x2="394.9" y2="269.8"/>
		<polyline class="fp-whitewater-st16" points="443.1,243 422,243 377.3,287.6 		"/>
		<polyline class="fp-whitewater-st16" points="357.6,307.3 341.5,323.5 341.4,323.6 390.6,372.7 478.7,372.7 		"/>
		<polyline class="fp-whitewater-st16" points="380.5,284.5 413.2,317.1 478.7,317.1 		"/>
		<line class="fp-whitewater-st16" x1="108.2" y1="354.4" x2="242.8" y2="354.4"/>
		<polyline class="fp-whitewater-st16" points="323.3,360.6 263.4,300.6 242.8,321.2 242.8,369.4 247.8,369.4 		"/>
		<polyline class="fp-whitewater-st16" points="276.1,369.4 307.5,369.4 319.9,357.1 		"/>
		<polyline class="fp-whitewater-st16" points="242.8,411.4 242.8,407.2 363.7,407.2 363.7,463.7 		"/>
		<polyline class="fp-whitewater-st16" points="343.2,380.5 387.2,424.5 387.2,434 		"/>
		<line class="fp-whitewater-st16" x1="346.6" y1="383.7" x2="323.1" y2="407.2"/>
		<line class="fp-whitewater-st16" x1="387.2" y1="454.1" x2="387.2" y2="463.8"/>
		<line class="fp-whitewater-st16" x1="363.8" y1="423.2" x2="385.8" y2="423.2"/>
		<line class="fp-whitewater-st16" x1="443.1" y1="378.2" x2="443.1" y2="372.7"/>
		<line class="fp-whitewater-st16" x1="443.1" y1="422.4" x2="443.1" y2="429.5"/>
		<line class="fp-whitewater-st16" x1="443.1" y1="426.1" x2="478.7" y2="426.1"/>
		<line class="fp-whitewater-st16" x1="443.1" y1="457.6" x2="443.1" y2="463.5"/>
		<line class="fp-whitewater-st16" x1="242.8" y1="440" x2="242.8" y2="463.7"/>
		<line class="fp-whitewater-st16" x1="471.2" y1="243" x2="478.7" y2="243"/>
		
			<rect x="359.1" y="389.8" transform="matrix(0.7071 -0.7071 0.7071 0.7071 -173.6668 371.1329)" class="fp-whitewater-st8" width="4.1" height="10.9"/>
		
			<rect x="383.4" y="365.5" transform="matrix(0.7071 -0.7071 0.7071 0.7071 -149.3989 381.195)" class="fp-whitewater-st8" width="4.1" height="10.9"/>
		
			<rect x="265.2" y="295.9" transform="matrix(0.7071 -0.7071 0.7071 0.7071 -134.7759 277.2427)" class="fp-whitewater-st8" width="4.1" height="10.9"/>
		
			<rect x="289.5" y="271.6" transform="matrix(0.7071 -0.7071 0.7071 0.7071 -110.5051 287.2978)" class="fp-whitewater-st8" width="4.1" height="10.9"/>
		<rect x="113.3" y="323.7" class="fp-whitewater-st13" width="28.3" height="27.1"/>
		<path class="fp-whitewater-st10" d="M377.7,337.5l7.8,7.8c0.9,0.9,0.9,2.2,0,3.1l-5,5c-0.9,0.9-2.2,0.9-3.1,0l-7.8-7.8c-0.9-0.9-0.9-2.2,0-3.1
			l5-5C375.5,336.7,376.9,336.7,377.7,337.5z"/>
		
			<ellipse transform="matrix(0.7071 -0.7071 0.7071 0.7071 -134.8809 367.6958)" class="fp-whitewater-st10" cx="376.4" cy="346.7" rx="1.3" ry="1.3"/>
		<path class="fp-whitewater-st10" d="M277,444.7h11.1c1.2,0,2.2,1,2.2,2.2v7.1c0,1.2-1,2.2-2.2,2.2H277c-1.2,0-2.2-1-2.2-2.2v-7.1
			C274.8,445.6,275.8,444.7,277,444.7z"/>
		<circle class="fp-whitewater-st10" cx="282.5" cy="452.1" r="1.3"/>
		<line class="fp-whitewater-st9" x1="89.5" y1="211.4" x2="89.5" y2="122.4"/>
		<rect x="89.1" y="122.4" class="fp-whitewater-st8" width="0.7" height="88.9"/>
		<rect x="117.6" y="112.8" class="fp-whitewater-st8" width="1.9" height="7.5"/>
		<rect x="160.6" y="112.8" class="fp-whitewater-st8" width="1.9" height="7.5"/>
		<rect x="85.7" y="144.5" class="fp-whitewater-st8" width="7.5" height="1.9"/>
		<rect x="85.7" y="187.5" class="fp-whitewater-st8" width="7.5" height="1.9"/>
		<line class="fp-whitewater-st9" x1="457.7" y1="131.7" x2="382.5" y2="131.7"/>
		<rect x="397.4" y="129.2" class="fp-whitewater-st8" width="0.8" height="5.1"/>
		<rect x="442" y="129.2" class="fp-whitewater-st8" width="0.8" height="5.1"/>
		<rect x="382.4" y="131.3" class="fp-whitewater-st8" width="75.3" height="0.7"/>
		<rect x="382.4" y="133.9" class="fp-whitewater-st8" width="75.3" height="0.7"/>
		<rect x="382.4" y="128.8" class="fp-whitewater-st8" width="75.3" height="0.7"/>
		<line class="fp-whitewater-st9" x1="343.7" y1="131.7" x2="268.4" y2="131.7"/>
		<rect x="283.4" y="129.2" class="fp-whitewater-st8" width="0.8" height="5.1"/>
		<rect x="327.9" y="129.2" class="fp-whitewater-st8" width="0.8" height="5.1"/>
		<rect x="268.4" y="131.3" class="fp-whitewater-st8" width="75.3" height="0.7"/>
		<rect x="268.4" y="133.9" class="fp-whitewater-st8" width="75.3" height="0.7"/>
		<rect x="268.4" y="128.8" class="fp-whitewater-st8" width="75.3" height="0.7"/>
		<line class="fp-whitewater-st9" x1="247.9" y1="131.7" x2="219.7" y2="131.7"/>
		<rect x="219.7" y="131.3" class="fp-whitewater-st8" width="28.2" height="0.7"/>
		<rect x="219.7" y="133.9" class="fp-whitewater-st8" width="28.2" height="0.7"/>
		<rect x="219.7" y="128.8" class="fp-whitewater-st8" width="28.2" height="0.7"/>
		<line class="fp-whitewater-st9" x1="107.8" y1="326.6" x2="107.8" y2="251.3"/>
		<rect x="105.2" y="266.3" class="fp-whitewater-st8" width="5.1" height="0.8"/>
		<rect x="105.2" y="310.8" class="fp-whitewater-st8" width="5.1" height="0.8"/>
		<rect x="107.4" y="251.3" class="fp-whitewater-st8" width="0.7" height="75.3"/>
		<rect x="104.9" y="251.3" class="fp-whitewater-st8" width="0.7" height="75.3"/>
		<rect x="109.9" y="251.3" class="fp-whitewater-st8" width="0.7" height="75.3"/>
		<line class="fp-whitewater-st9" x1="107.8" y1="440.7" x2="107.8" y2="365.4"/>
		<rect x="105.2" y="380.4" class="fp-whitewater-st8" width="5.1" height="0.8"/>
		<rect x="105.2" y="424.9" class="fp-whitewater-st8" width="5.1" height="0.8"/>
		<rect x="107.4" y="365.4" class="fp-whitewater-st8" width="0.7" height="75.3"/>
		<rect x="104.9" y="365.4" class="fp-whitewater-st8" width="0.7" height="75.3"/>
		<rect x="109.9" y="365.4" class="fp-whitewater-st8" width="0.7" height="75.3"/>
		
			<rect x="362.8" y="306.9" transform="matrix(4.030614e-02 -0.9992 0.9992 4.030614e-02 36.1281 662.7369)" class="fp-whitewater-st17" width="0.6" height="11.3"/>
		<path class="fp-whitewater-st18" d="M365.2,320.4c2-1.9,3.2-4.5,3.5-7.2"/>
		
			<rect x="389.6" y="254.5" transform="matrix(0.7071 -0.7071 0.7071 0.7071 -62.597 359.2927)" class="fp-whitewater-st19" width="25.5" height="1.3"/>
		<path class="fp-whitewater-st20" d="M411,245.7c-10.1-10-26.3-10-36.4,0"/>
		<rect x="469.7" y="246.6" class="fp-whitewater-st19" width="1.3" height="25.5"/>
		<path class="fp-whitewater-st20" d="M469.7,272.1c-14.2,0-25.7-11.5-25.8-25.7"/>
		
			<rect x="318.7" y="390" transform="matrix(0.7071 -0.7071 0.7071 0.7071 -179.1226 348.8034)" class="fp-whitewater-st19" width="25.5" height="1.3"/>
		<path class="fp-whitewater-st20" d="M322,399.2c-10-10.1-10-26.3,0-36.4"/>
		<rect x="247.8" y="340.2" class="fp-whitewater-st19" width="1.3" height="25.5"/>
		<path class="fp-whitewater-st20" d="M249.1,340.2c14.2,0,25.7,11.5,25.8,25.8"/>
		<rect x="245.5" y="412.2" class="fp-whitewater-st19" width="25.5" height="1.3"/>
		<path class="fp-whitewater-st20" d="M271,413.5c0,14.2-11.5,25.7-25.7,25.8"/>
		<path class="fp-whitewater-st20" d="M407.2,461.9c0-4.8-0.2-12.3,8.9-21.3"/>
		
			<rect x="425.6" y="436.6" transform="matrix(0.7071 -0.7071 0.7071 0.7071 -194.7197 433.9078)" class="fp-whitewater-st19" width="1.6" height="30.7"/>
		<path class="fp-whitewater-st20" d="M440,430.7c-4.1,0-10.5-0.2-18.3,7.7"/>
		
			<rect x="430.8" y="434" transform="matrix(0.7071 -0.7071 0.7071 0.7071 -189.8194 436.1101)" class="fp-whitewater-st19" width="1.4" height="26.3"/>
		<path class="fp-whitewater-st20" d="M361.2,244.7c-2.9-2.9-7.3-7.6-18.3-7.5"/>
		<rect x="342.9" y="237.2" class="fp-whitewater-st19" width="1.4" height="26.3"/>
		<path class="fp-whitewater-st20" d="M309.8,235.9c2.9-2.9,7.3-7.6,18.3-7.5"/>
		<rect x="326.8" y="228.4" class="fp-whitewater-st19" width="1.4" height="26.3"/>
		<path class="fp-whitewater-st20" d="M390,434.2c3.1,0,7.9-0.1,13.7,5.7"/>
		
			<rect x="386.4" y="446.1" transform="matrix(0.7071 -0.7071 0.7071 0.7071 -199.6982 411.0323)" class="fp-whitewater-st19" width="19.7" height="1"/>
		<path class="fp-whitewater-st21" d="M440.1,400.2c0,0-8-0.1-13.9,5.5"/>
		
			<rect x="432.6" y="403" transform="matrix(0.7071 -0.7071 0.7071 0.7071 -165.5494 427.459)" class="fp-whitewater-st22" width="1.2" height="21.1"/>
		<path class="fp-whitewater-st21" d="M440.1,400.2c0,0-8,0.1-13.9-5.5"/>
		
			<rect x="422.7" y="386.3" transform="matrix(0.7071 -0.7071 0.7071 0.7071 -146.6911 419.647)" class="fp-whitewater-st22" width="21.1" height="1.2"/>
		
			<rect x="386.8" y="286.9" transform="matrix(0.7071 -0.7071 0.7071 0.7071 -98.3706 361.7713)" class="fp-whitewater-st19" width="1.3" height="25.5"/>
		<path class="fp-whitewater-st20" d="M396.1,309.1c-10.1,10-26.3,10-36.4,0"/>
		<rect x="449.1" y="378.9" class="fp-whitewater-st11" width="22" height="19.8"/>
		<line class="fp-whitewater-st23" x1="468.8" y1="378.8" x2="468.8" y2="398.7"/>
		<rect x="449.1" y="399.7" class="fp-whitewater-st11" width="22" height="19.8"/>
		<line class="fp-whitewater-st23" x1="468.8" y1="399.7" x2="468.8" y2="419.5"/>
		<rect x="153.4" y="182.9" class="fp-whitewater-st6" width="51.7" height="21.8"/>
		<rect x="155.6" y="297.4" class="fp-whitewater-st6" width="55.8" height="21.8"/>
		<rect x="274.2" y="416.4" class="fp-whitewater-st6" width="38.6" height="17.2"/>
		<g class="fp-whitewater-st7">
			<path class="fp-whitewater-st8" d="M147.3,402.7h3.4c0.9,0,1.5,0.2,2,0.7c0.3,0.3,0.5,0.7,0.5,1.3v0c0,0.9-0.5,1.4-1.1,1.7
				c0.9,0.3,1.5,0.8,1.5,1.8v0c0,1.4-1.1,2.1-2.8,2.1h-3.5V402.7z M151.9,404.8c0-0.6-0.5-1-1.3-1h-1.9v2h1.8
				C151.3,405.9,151.9,405.6,151.9,404.8L151.9,404.8z M150.7,407h-2.1v2.1h2.2c0.9,0,1.5-0.4,1.5-1v0
				C152.3,407.4,151.8,407,150.7,407z"/>
			<path class="fp-whitewater-st8" d="M155.6,402.7h5.6v1.2h-4.3v2h3.8v1.2h-3.8v2h4.3v1.2h-5.7V402.7z"/>
			<path class="fp-whitewater-st8" d="M163.3,402.7h2.8c2.4,0,4,1.6,4,3.8v0c0,2.1-1.6,3.8-4,3.8h-2.8V402.7z M164.6,403.9v5.2h1.5
				c1.6,0,2.6-1.1,2.6-2.6v0c0-1.5-1-2.6-2.6-2.6H164.6z"/>
			<path class="fp-whitewater-st8" d="M172.2,402.7h3.4c1,0,1.7,0.3,2.2,0.8c0.4,0.4,0.6,1,0.6,1.6v0c0,1.2-0.7,2-1.8,2.3l2,2.9H177l-1.9-2.6h-1.7
				v2.6h-1.3V402.7z M175.5,406.5c1,0,1.6-0.5,1.6-1.3v0c0-0.8-0.6-1.3-1.6-1.3h-1.9v2.5H175.5z"/>
			<path class="fp-whitewater-st8" d="M180.1,406.5L180.1,406.5c0-2.2,1.6-3.9,4-3.9s4,1.8,4,3.9v0c0,2.1-1.6,3.9-4,3.9
				C181.7,410.4,180.1,408.6,180.1,406.5z M186.6,406.5L186.6,406.5c0-1.5-1.1-2.7-2.6-2.7c-1.5,0-2.6,1.2-2.6,2.7v0
				c0,1.5,1.1,2.7,2.6,2.7S186.6,408,186.6,406.5z"/>
			<path class="fp-whitewater-st8" d="M189.8,406.5L189.8,406.5c0-2.2,1.6-3.9,4-3.9s4,1.8,4,3.9v0c0,2.1-1.6,3.9-4,3.9
				C191.4,410.4,189.8,408.6,189.8,406.5z M196.3,406.5L196.3,406.5c0-1.5-1.1-2.7-2.6-2.7c-1.5,0-2.6,1.2-2.6,2.7v0
				c0,1.5,1.1,2.7,2.6,2.7S196.3,408,196.3,406.5z"/>
			<path class="fp-whitewater-st8" d="M199.7,402.7h1.4l2.3,3.6l2.3-3.6h1.4v7.6h-1.3v-5.4l-2.4,3.6h0l-2.4-3.6v5.4h-1.3V402.7z"/>
		</g>
		<g class="fp-whitewater-st7">
			<path class="fp-whitewater-st8" d="M156.1,416.6l-0.8,0.2l-0.2-0.6l1.2-0.4h0.5v4.5h-0.8V416.6z"/>
			<path class="fp-whitewater-st8" d="M158,419.7l0.6-0.5c0.3,0.4,0.7,0.6,1.2,0.6c0.4,0,0.8-0.3,0.8-0.7v0c0-0.4-0.4-0.7-1-0.7h-0.4l-0.1-0.5
				l1.2-1.3h-1.9v-0.7h3v0.6l-1.3,1.3c0.7,0.1,1.3,0.4,1.3,1.3v0c0,0.8-0.6,1.4-1.6,1.4C159,420.4,158.4,420.1,158,419.7z"/>
			<path class="fp-whitewater-st8" d="M162.3,417.4c0.4-0.1,0.6-0.3,0.6-0.6h-0.3v-0.9h0.9v0.8c0,0.7-0.3,1-1,1.1L162.3,417.4z"/>
			<path class="fp-whitewater-st8" d="M169.2,418.3c-0.3,0.3-0.6,0.5-1.1,0.5c-1,0-1.6-0.6-1.6-1.4v0c0-0.9,0.7-1.6,1.7-1.6c0.6,0,0.9,0.2,1.3,0.5
				c0.3,0.3,0.5,0.8,0.5,1.7v0c0,1.4-0.7,2.4-1.9,2.4c-0.6,0-1.1-0.2-1.4-0.5l0.4-0.6c0.3,0.3,0.6,0.4,1,0.4
				C168.9,419.7,169.2,418.9,169.2,418.3z M169.2,417.3L169.2,417.3c0-0.5-0.4-0.8-0.9-0.8c-0.6,0-0.9,0.4-0.9,0.8v0
				c0,0.5,0.4,0.8,0.9,0.8C168.8,418.1,169.2,417.8,169.2,417.3z"/>
			<path class="fp-whitewater-st8" d="M170.9,417.4c0.4-0.1,0.6-0.3,0.6-0.6h-0.3v-0.9h0.9v0.8c0,0.7-0.3,1-1,1.1L170.9,417.4z M172.4,417.4
				c0.4-0.1,0.6-0.3,0.5-0.6h-0.3v-0.9h0.9v0.8c0,0.7-0.3,1-1,1.1L172.4,417.4z"/>
			<path class="fp-whitewater-st8" d="M178.2,418.1l0.8-1.1h0.8l-1.2,1.7l1.2,1.7H179l-0.8-1.2l-0.8,1.2h-0.8l1.2-1.7l-1.2-1.7h0.8L178.2,418.1z"
				/>
			<path class="fp-whitewater-st8" d="M183.6,416.6l-0.8,0.2l-0.2-0.6l1.2-0.4h0.5v4.5h-0.8V416.6z"/>
			<path class="fp-whitewater-st8" d="M186.4,416.6l-0.8,0.2l-0.2-0.6l1.2-0.4h0.5v4.5h-0.8V416.6z"/>
			<path class="fp-whitewater-st8" d="M188.3,417.4c0.4-0.1,0.6-0.3,0.6-0.6h-0.3v-0.9h0.9v0.8c0,0.7-0.3,1-1,1.1L188.3,417.4z"/>
			<path class="fp-whitewater-st8" d="M192.5,419.7l0.6-0.5c0.3,0.4,0.7,0.6,1.2,0.6c0.4,0,0.8-0.3,0.8-0.7v0c0-0.4-0.4-0.7-1-0.7h-0.4l-0.1-0.5
				l1.2-1.3h-1.9v-0.7h3v0.6l-1.3,1.3c0.7,0.1,1.3,0.4,1.3,1.3v0c0,0.8-0.6,1.4-1.6,1.4C193.5,420.4,192.9,420.1,192.5,419.7z"/>
			<path class="fp-whitewater-st8" d="M196.8,417.4c0.4-0.1,0.6-0.3,0.6-0.6H197v-0.9h0.9v0.8c0,0.7-0.3,1-1,1.1L196.8,417.4z M198.2,417.4
				c0.4-0.1,0.6-0.3,0.5-0.6h-0.3v-0.9h0.9v0.8c0,0.7-0.3,1-1,1.1L198.2,417.4z"/>
		</g>
		<g class="fp-whitewater-st7">
			<path class="fp-whitewater-st8" d="M284.5,176.6h3.4c0.9,0,1.5,0.2,2,0.7c0.3,0.3,0.5,0.7,0.5,1.3v0c0,0.9-0.5,1.4-1.1,1.7
				c0.9,0.3,1.5,0.8,1.5,1.8v0c0,1.4-1.1,2.1-2.8,2.1h-3.5V176.6z M289,178.7c0-0.6-0.5-1-1.3-1h-1.9v2h1.8
				C288.5,179.8,289,179.4,289,178.7L289,178.7z M287.9,180.9h-2.1v2.1h2.2c0.9,0,1.5-0.4,1.5-1v0
				C289.4,181.3,288.9,180.9,287.9,180.9z"/>
			<path class="fp-whitewater-st8" d="M292.7,176.6h5.6v1.2h-4.3v2h3.8v1.2h-3.8v2h4.3v1.2h-5.7V176.6z"/>
			<path class="fp-whitewater-st8" d="M300.4,176.6h2.8c2.4,0,4,1.6,4,3.8v0c0,2.1-1.6,3.8-4,3.8h-2.8V176.6z M301.8,177.8v5.2h1.5
				c1.6,0,2.6-1.1,2.6-2.6v0c0-1.5-1-2.6-2.6-2.6H301.8z"/>
			<path class="fp-whitewater-st8" d="M309.3,176.6h3.4c1,0,1.7,0.3,2.2,0.8c0.4,0.4,0.6,1,0.6,1.6v0c0,1.2-0.7,2-1.8,2.3l2,2.9h-1.6l-1.9-2.6
				h-1.7v2.6h-1.3V176.6z M312.6,180.3c1,0,1.6-0.5,1.6-1.3v0c0-0.8-0.6-1.3-1.6-1.3h-1.9v2.5H312.6z"/>
			<path class="fp-whitewater-st8" d="M317.3,180.4L317.3,180.4c0-2.2,1.6-3.9,4-3.9s4,1.8,4,3.9v0c0,2.1-1.6,3.9-4,3.9
				C318.9,184.3,317.3,182.5,317.3,180.4z M323.8,180.4L323.8,180.4c0-1.5-1.1-2.7-2.6-2.7c-1.5,0-2.6,1.2-2.6,2.7v0
				c0,1.5,1.1,2.7,2.6,2.7S323.8,181.9,323.8,180.4z"/>
			<path class="fp-whitewater-st8" d="M326.9,180.4L326.9,180.4c0-2.2,1.6-3.9,4-3.9s4,1.8,4,3.9v0c0,2.1-1.6,3.9-4,3.9
				C328.5,184.3,326.9,182.5,326.9,180.4z M333.4,180.4L333.4,180.4c0-1.5-1.1-2.7-2.6-2.7c-1.5,0-2.6,1.2-2.6,2.7v0
				c0,1.5,1.1,2.7,2.6,2.7S333.4,181.9,333.4,180.4z"/>
			<path class="fp-whitewater-st8" d="M336.9,176.6h1.4l2.3,3.6l2.3-3.6h1.4v7.6H343v-5.4l-2.4,3.6h0l-2.4-3.6v5.4h-1.3V176.6z"/>
		</g>
		<g class="fp-whitewater-st7">
			<path class="fp-whitewater-st8" d="M291.6,190l-0.8,0.2l-0.2-0.6l1.2-0.4h0.5v4.5h-0.8V190z"/>
			<path class="fp-whitewater-st8" d="M293.6,193.1l1.5-1.3c0.6-0.5,0.8-0.8,0.8-1.2c0-0.4-0.3-0.7-0.7-0.7c-0.4,0-0.7,0.2-1,0.7l-0.6-0.4
				c0.4-0.6,0.9-0.9,1.7-0.9c0.9,0,1.5,0.5,1.5,1.3v0c0,0.7-0.4,1.1-1.2,1.7l-0.9,0.8h2.1v0.7h-3.3V193.1z"/>
			<path class="fp-whitewater-st8" d="M297.8,190.8c0.4-0.1,0.6-0.3,0.6-0.6H298v-0.9h0.9v0.8c0,0.7-0.3,1-1,1.1L297.8,190.8z"/>
			<path class="fp-whitewater-st8" d="M302.8,190l-0.8,0.2l-0.2-0.6l1.2-0.4h0.5v4.5h-0.8V190z"/>
			<path class="fp-whitewater-st8" d="M304.8,191.5L304.8,191.5c0-1.3,0.8-2.3,2-2.3c1.2,0,2,1,2,2.3v0c0,1.3-0.8,2.3-2,2.3
				C305.6,193.8,304.8,192.8,304.8,191.5z M307.9,191.5L307.9,191.5c0-0.9-0.5-1.6-1.2-1.6c-0.7,0-1.1,0.7-1.1,1.6v0
				c0,0.9,0.5,1.6,1.2,1.6S307.9,192.4,307.9,191.5z"/>
			<path class="fp-whitewater-st8" d="M309.6,190.8c0.4-0.1,0.6-0.3,0.6-0.6h-0.3v-0.9h0.9v0.8c0,0.7-0.3,1-1,1.1L309.6,190.8z M311.1,190.8
				c0.4-0.1,0.6-0.3,0.5-0.6h-0.3v-0.9h0.9v0.8c0,0.7-0.3,1-1,1.1L311.1,190.8z"/>
			<path class="fp-whitewater-st8" d="M316.9,191.5l0.8-1.1h0.8l-1.2,1.7l1.2,1.7h-0.8l-0.8-1.2l-0.8,1.2h-0.8l1.2-1.7l-1.2-1.7h0.8L316.9,191.5z"
				/>
			<path class="fp-whitewater-st8" d="M322.4,190l-0.8,0.2l-0.2-0.6l1.2-0.4h0.5v4.5h-0.8V190z"/>
			<path class="fp-whitewater-st8" d="M325.2,190l-0.8,0.2l-0.2-0.6l1.2-0.4h0.5v4.5h-0.8V190z"/>
			<path class="fp-whitewater-st8" d="M327.1,190.8c0.4-0.1,0.6-0.3,0.6-0.6h-0.3v-0.9h0.9v0.8c0,0.7-0.3,1-1,1.1L327.1,190.8z"/>
			<path class="fp-whitewater-st8" d="M331.3,193.1l0.6-0.5c0.3,0.4,0.7,0.6,1.2,0.6c0.4,0,0.8-0.3,0.8-0.7v0c0-0.4-0.4-0.7-1-0.7h-0.4l-0.1-0.5
				l1.2-1.3h-1.9v-0.7h3v0.6l-1.3,1.3c0.7,0.1,1.3,0.4,1.3,1.3v0c0,0.8-0.6,1.4-1.6,1.4C332.2,193.8,331.7,193.5,331.3,193.1z"/>
			<path class="fp-whitewater-st8" d="M335.5,190.8c0.4-0.1,0.6-0.3,0.6-0.6h-0.3v-0.9h0.9v0.8c0,0.7-0.3,1-1,1.1L335.5,190.8z M337,190.8
				c0.4-0.1,0.6-0.3,0.5-0.6h-0.3v-0.9h0.9v0.8c0,0.7-0.3,1-1,1.1L337,190.8z"/>
		</g>
		<g class="fp-whitewater-st7">
			<path class="fp-whitewater-st8" d="M394.1,176.6h3.4c0.9,0,1.5,0.2,2,0.7c0.3,0.3,0.5,0.7,0.5,1.3v0c0,0.9-0.5,1.4-1.1,1.7
				c0.9,0.3,1.5,0.8,1.5,1.8v0c0,1.4-1.1,2.1-2.8,2.1h-3.5V176.6z M398.7,178.7c0-0.6-0.5-1-1.3-1h-1.9v2h1.8
				C398.1,179.8,398.7,179.4,398.7,178.7L398.7,178.7z M397.5,180.9h-2.1v2.1h2.2c0.9,0,1.5-0.4,1.5-1v0
				C399.1,181.3,398.6,180.9,397.5,180.9z"/>
			<path class="fp-whitewater-st8" d="M402.4,176.6h5.6v1.2h-4.3v2h3.8v1.2h-3.8v2h4.3v1.2h-5.7V176.6z"/>
			<path class="fp-whitewater-st8" d="M410.1,176.6h2.8c2.4,0,4,1.6,4,3.8v0c0,2.1-1.6,3.8-4,3.8h-2.8V176.6z M411.4,177.8v5.2h1.5
				c1.6,0,2.6-1.1,2.6-2.6v0c0-1.5-1-2.6-2.6-2.6H411.4z"/>
			<path class="fp-whitewater-st8" d="M419,176.6h3.4c1,0,1.7,0.3,2.2,0.8c0.4,0.4,0.6,1,0.6,1.6v0c0,1.2-0.7,2-1.8,2.3l2,2.9h-1.6l-1.9-2.6h-1.7
				v2.6H419V176.6z M422.3,180.3c1,0,1.6-0.5,1.6-1.3v0c0-0.8-0.6-1.3-1.6-1.3h-1.9v2.5H422.3z"/>
			<path class="fp-whitewater-st8" d="M426.9,180.4L426.9,180.4c0-2.2,1.6-3.9,4-3.9s4,1.8,4,3.9v0c0,2.1-1.6,3.9-4,3.9S426.9,182.5,426.9,180.4z
				 M433.4,180.4L433.4,180.4c0-1.5-1.1-2.7-2.6-2.7s-2.6,1.2-2.6,2.7v0c0,1.5,1.1,2.7,2.6,2.7S433.4,181.9,433.4,180.4z"/>
			<path class="fp-whitewater-st8" d="M436.6,180.4L436.6,180.4c0-2.2,1.6-3.9,4-3.9s4,1.8,4,3.9v0c0,2.1-1.6,3.9-4,3.9S436.6,182.5,436.6,180.4z
				 M443.1,180.4L443.1,180.4c0-1.5-1.1-2.7-2.6-2.7s-2.6,1.2-2.6,2.7v0c0,1.5,1.1,2.7,2.6,2.7S443.1,181.9,443.1,180.4z"/>
			<path class="fp-whitewater-st8" d="M446.5,176.6h1.4l2.3,3.6l2.3-3.6h1.4v7.6h-1.3v-5.4l-2.4,3.6h0l-2.4-3.6v5.4h-1.3V176.6z"/>
		</g>
		<g class="fp-whitewater-st7">
			<path class="fp-whitewater-st8" d="M412.6,190l-0.8,0.2l-0.2-0.6l1.2-0.4h0.5v4.5h-0.8V190z"/>
			<path class="fp-whitewater-st8" d="M415.4,190l-0.8,0.2l-0.2-0.6l1.2-0.4h0.5v4.5h-0.8V190z"/>
			<path class="fp-whitewater-st8" d="M417.3,190.8c0.4-0.1,0.6-0.3,0.6-0.6h-0.3v-0.9h0.9v0.8c0,0.7-0.3,1-1,1.1L417.3,190.8z"/>
			<path class="fp-whitewater-st8" d="M423.1,191.5l0.8-1.1h0.8l-1.2,1.7l1.2,1.7h-0.8l-0.8-1.2l-0.8,1.2h-0.8l1.2-1.7l-1.2-1.7h0.8L423.1,191.5z"
				/>
			<path class="fp-whitewater-st8" d="M428.5,190l-0.8,0.2l-0.2-0.6l1.2-0.4h0.5v4.5h-0.8V190z"/>
			<path class="fp-whitewater-st8" d="M430.6,191.5L430.6,191.5c0-1.3,0.8-2.3,2-2.3c1.2,0,2,1,2,2.3v0c0,1.3-0.8,2.3-2,2.3
				C431.3,193.8,430.6,192.8,430.6,191.5z M433.7,191.5L433.7,191.5c0-0.9-0.5-1.6-1.2-1.6c-0.7,0-1.1,0.7-1.1,1.6v0
				c0,0.9,0.5,1.6,1.2,1.6S433.7,192.4,433.7,191.5z"/>
			<path class="fp-whitewater-st8" d="M435.4,190.8c0.4-0.1,0.6-0.3,0.6-0.6h-0.3v-0.9h0.9v0.8c0,0.7-0.3,1-1,1.1L435.4,190.8z"/>
		</g>
		<g class="fp-whitewater-st7">
			<path class="fp-whitewater-st8" d="M158.4,299.6h1.3v3.8l3.6-3.8h1.6l-3.2,3.3l3.3,4.3h-1.6l-2.6-3.4l-1.2,1.2v2.2h-1.3V299.6z"/>
			<path class="fp-whitewater-st8" d="M166.8,299.6h1.3v7.6h-1.3V299.6z"/>
		</g>
		<g class="fp-whitewater-st7">
			<path class="fp-whitewater-st8" d="M172.4,300.9H170v-1.2h6.2v1.2h-2.4v6.3h-1.3V300.9z"/>
		</g>
		<g class="fp-whitewater-st7">
			<path class="fp-whitewater-st8" d="M177.2,303.4L177.2,303.4c0-2.2,1.6-3.9,3.9-3.9c1.4,0,2.2,0.5,3,1.2l-0.9,1c-0.6-0.6-1.3-0.9-2.1-0.9
				c-1.4,0-2.5,1.2-2.5,2.7v0c0,1.5,1.1,2.7,2.5,2.7c0.9,0,1.5-0.4,2.2-1l0.9,0.9c-0.8,0.8-1.7,1.3-3.1,1.3
				C178.9,307.3,177.2,305.6,177.2,303.4z"/>
			<path class="fp-whitewater-st8" d="M186,299.6h1.3v3.2h3.6v-3.2h1.3v7.6H191V304h-3.6v3.2H186V299.6z"/>
			<path class="fp-whitewater-st8" d="M194.7,299.6h5.6v1.2H196v2h3.8v1.2H196v2h4.3v1.2h-5.7V299.6z"/>
			<path class="fp-whitewater-st8" d="M202.4,299.6h1.2l4.1,5.2v-5.2h1.3v7.6h-1.1l-4.2-5.4v5.4h-1.3V299.6z"/>
		</g>
		<g class="fp-whitewater-st7">
			<path class="fp-whitewater-st8" d="M161.8,313.6l-0.8,0.2l-0.2-0.6l1.2-0.4h0.5v4.5h-0.8V313.6z"/>
			<path class="fp-whitewater-st8" d="M163.7,316.6l0.6-0.5c0.3,0.4,0.7,0.6,1.2,0.6c0.4,0,0.8-0.3,0.8-0.7v0c0-0.4-0.4-0.7-1-0.7h-0.4l-0.1-0.5
				l1.2-1.3H164v-0.7h3v0.6l-1.3,1.3c0.7,0.1,1.3,0.4,1.3,1.3v0c0,0.8-0.6,1.4-1.6,1.4C164.7,317.4,164.1,317.1,163.7,316.6z"/>
			<path class="fp-whitewater-st8" d="M167.9,314.3c0.4-0.1,0.6-0.3,0.6-0.6h-0.3v-0.9h0.9v0.8c0,0.7-0.3,1-1,1.1L167.9,314.3z"/>
			<path class="fp-whitewater-st8" d="M174.9,315.2c-0.3,0.3-0.6,0.5-1.1,0.5c-1,0-1.6-0.6-1.6-1.4v0c0-0.9,0.7-1.6,1.7-1.6c0.6,0,0.9,0.2,1.3,0.5
				c0.3,0.3,0.5,0.8,0.5,1.7v0c0,1.4-0.7,2.4-1.9,2.4c-0.6,0-1.1-0.2-1.4-0.5l0.4-0.6c0.3,0.3,0.6,0.4,1,0.4
				C174.6,316.7,174.9,315.8,174.9,315.2z M174.9,314.3L174.9,314.3c0-0.5-0.4-0.8-0.9-0.8c-0.6,0-0.9,0.4-0.9,0.8v0
				c0,0.5,0.4,0.8,0.9,0.8C174.5,315.1,174.9,314.7,174.9,314.3z"/>
			<path class="fp-whitewater-st8" d="M176.6,314.3c0.4-0.1,0.6-0.3,0.6-0.6h-0.3v-0.9h0.9v0.8c0,0.7-0.3,1-1,1.1L176.6,314.3z M178.1,314.3
				c0.4-0.1,0.6-0.3,0.5-0.6h-0.3v-0.9h0.9v0.8c0,0.7-0.3,1-1,1.1L178.1,314.3z"/>
			<path class="fp-whitewater-st8" d="M183.9,315.1l0.8-1.1h0.8l-1.2,1.7l1.2,1.7h-0.8l-0.8-1.2l-0.8,1.2h-0.8l1.2-1.7l-1.2-1.7h0.8L183.9,315.1z"
				/>
			<path class="fp-whitewater-st8" d="M189.3,313.6l-0.8,0.2l-0.2-0.6l1.2-0.4h0.5v4.5h-0.8V313.6z"/>
			<path class="fp-whitewater-st8" d="M191.2,316.6l0.6-0.5c0.3,0.4,0.7,0.6,1.2,0.6c0.4,0,0.8-0.3,0.8-0.7v0c0-0.4-0.4-0.7-1-0.7h-0.4l-0.1-0.5
				l1.2-1.3h-1.9v-0.7h3v0.6l-1.3,1.3c0.7,0.1,1.3,0.4,1.3,1.3v0c0,0.8-0.6,1.4-1.6,1.4C192.2,317.4,191.6,317.1,191.2,316.6z"/>
			<path class="fp-whitewater-st8" d="M195.5,314.3c0.4-0.1,0.6-0.3,0.6-0.6h-0.3v-0.9h0.9v0.8c0,0.7-0.3,1-1,1.1L195.5,314.3z"/>
			<path class="fp-whitewater-st8" d="M199.7,316.7l0.5-0.6c0.4,0.3,0.7,0.5,1.2,0.5c0.5,0,0.9-0.3,0.9-0.8v0c0-0.5-0.4-0.7-0.9-0.7
				c-0.3,0-0.6,0.1-0.8,0.2L200,315l0.1-2.2h2.7v0.7h-2l-0.1,1.1c0.2-0.1,0.4-0.1,0.7-0.1c0.9,0,1.6,0.5,1.6,1.4v0
				c0,0.9-0.7,1.5-1.7,1.5C200.6,317.4,200.1,317.1,199.7,316.7z"/>
			<path class="fp-whitewater-st8" d="M203.9,314.3c0.4-0.1,0.6-0.3,0.6-0.6h-0.3v-0.9h0.9v0.8c0,0.7-0.3,1-1,1.1L203.9,314.3z M205.4,314.3
				c0.4-0.1,0.6-0.3,0.5-0.6h-0.3v-0.9h0.9v0.8c0,0.7-0.3,1-1,1.1L205.4,314.3z"/>
		</g>
		<g class="fp-whitewater-st7">
			<path class="fp-whitewater-st8" d="M159.2,184.9h1.3v6.4h4v1.2h-5.3V184.9z"/>
			<path class="fp-whitewater-st8" d="M166.4,184.9h1.3v7.6h-1.3V184.9z"/>
			<path class="fp-whitewater-st8" d="M169.5,184.9h1.5l2.3,5.8l2.3-5.8h1.4l-3.1,7.6h-1.2L169.5,184.9z"/>
			<path class="fp-whitewater-st8" d="M178.8,184.9h1.3v7.6h-1.3V184.9z"/>
			<path class="fp-whitewater-st8" d="M182.6,184.9h1.2l4.1,5.2v-5.2h1.3v7.6h-1.1l-4.2-5.4v5.4h-1.3V184.9z"/>
			<path class="fp-whitewater-st8" d="M191.3,188.7L191.3,188.7c0-2.1,1.6-3.9,3.9-3.9c1.3,0,2.1,0.4,2.9,1l-0.8,1c-0.6-0.5-1.2-0.8-2.1-0.8
				c-1.4,0-2.5,1.2-2.5,2.7v0c0,1.6,1,2.7,2.6,2.7c0.7,0,1.4-0.2,1.8-0.6v-1.4h-1.9v-1.2h3.2v3.2c-0.7,0.6-1.8,1.2-3.2,1.2
				C192.8,192.6,191.3,190.9,191.3,188.7z"/>
		</g>
		<g class="fp-whitewater-st7">
			<path class="fp-whitewater-st8" d="M161.7,198.9l-0.8,0.2l-0.2-0.6l1.2-0.4h0.5v4.5h-0.8V198.9z"/>
			<path class="fp-whitewater-st8" d="M166.1,198.8h-2.3v-0.7h3.2v0.6l-2,3.9H164L166.1,198.8z"/>
			<path class="fp-whitewater-st8" d="M167.8,199.6c0.4-0.1,0.6-0.3,0.6-0.6H168v-0.9h0.9v0.8c0,0.7-0.3,1-1,1.1L167.8,199.6z"/>
			<path class="fp-whitewater-st8" d="M174.4,198.8h-2.3v-0.7h3.2v0.6l-2,3.9h-0.9L174.4,198.8z"/>
			<path class="fp-whitewater-st8" d="M176.1,199.6c0.4-0.1,0.6-0.3,0.6-0.6h-0.3v-0.9h0.9v0.8c0,0.7-0.3,1-1,1.1L176.1,199.6z M177.6,199.6
				c0.4-0.1,0.6-0.3,0.5-0.6h-0.3v-0.9h0.9v0.8c0,0.7-0.3,1-1,1.1L177.6,199.6z"/>
			<path class="fp-whitewater-st8" d="M183.4,200.4l0.8-1.1h0.8l-1.2,1.7l1.2,1.7h-0.8l-0.8-1.2l-0.8,1.2h-0.8l1.2-1.7l-1.2-1.7h0.8L183.4,200.4z"
				/>
			<path class="fp-whitewater-st8" d="M188.9,198.9l-0.8,0.2l-0.2-0.6l1.2-0.4h0.5v4.5h-0.8V198.9z"/>
			<path class="fp-whitewater-st8" d="M193.2,201.6h-2.3l-0.1-0.6l2.5-3h0.7v2.9h0.6v0.6h-0.6v1h-0.8V201.6z M193.2,201v-1.8l-1.5,1.8H193.2z"/>
			<path class="fp-whitewater-st8" d="M195.4,199.6c0.4-0.1,0.6-0.3,0.6-0.6h-0.3v-0.9h0.9v0.8c0,0.7-0.3,1-1,1.1L195.4,199.6z"/>
		</g>
		<circle class="fp-whitewater-st24" cx="459.5" cy="444.1" r="12.2"/>
		<g class="fp-whitewater-st7">
			<path class="fp-whitewater-st8" d="M451.7,442.1h0.7v1.6h1.9v-1.6h0.7v3.9h-0.7v-1.7h-1.9v1.7h-0.7V442.1z"/>
		</g>
		<g class="fp-whitewater-st7">
			<path class="fp-whitewater-st8" d="M455.9,442.1h0.8l1.2,3l1.2-3h0.7l-1.6,4h-0.6L455.9,442.1z"/>
		</g>
		<g class="fp-whitewater-st7">
			<path class="fp-whitewater-st8" d="M461.5,442.1h0.6l1.7,4h-0.7l-0.4-1h-1.9l-0.4,1h-0.7L461.5,442.1z M462.5,444.5l-0.7-1.6l-0.7,1.6H462.5z"
				/>
		</g>
		<g class="fp-whitewater-st7">
			<path class="fp-whitewater-st8" d="M464.4,444.1L464.4,444.1c0-1.1,0.8-2,2-2c0.7,0,1.2,0.3,1.5,0.6l-0.4,0.5c-0.3-0.3-0.7-0.5-1.1-0.5
				c-0.7,0-1.3,0.6-1.3,1.4v0c0,0.8,0.5,1.4,1.3,1.4c0.5,0,0.8-0.2,1.1-0.5l0.4,0.5c-0.4,0.4-0.9,0.7-1.6,0.7
				C465.2,446.1,464.4,445.2,464.4,444.1z"/>
		</g>
		<g class="fp-whitewater-st7">
			<path class="fp-whitewater-st8" d="M259.4,350.8h-1.9v-0.6h2.7v0.5l-1.7,3.3h-0.8L259.4,350.8z"/>
			<path class="fp-whitewater-st8" d="M260.8,351.5c0.3-0.1,0.5-0.2,0.5-0.5H261v-0.7h0.7v0.6c0,0.6-0.3,0.9-0.8,0.9L260.8,351.5z"/>
			<path class="fp-whitewater-st8" d="M264.4,353L264.4,353c0-0.5,0.3-0.8,0.7-0.9c-0.3-0.2-0.6-0.4-0.6-0.8v0c0-0.6,0.6-1,1.3-1
				c0.8,0,1.3,0.4,1.3,1v0c0,0.4-0.2,0.7-0.6,0.8c0.4,0.2,0.7,0.5,0.7,0.9v0c0,0.7-0.6,1.1-1.4,1.1C265,354.1,264.4,353.6,264.4,353
				z M266.6,352.9L266.6,352.9c0-0.4-0.3-0.6-0.8-0.6c-0.4,0-0.8,0.2-0.8,0.6v0c0,0.3,0.3,0.6,0.8,0.6
				C266.3,353.5,266.6,353.3,266.6,352.9z M266.5,351.3L266.5,351.3c0-0.3-0.3-0.5-0.7-0.5c-0.4,0-0.7,0.2-0.7,0.5v0
				c0,0.3,0.3,0.6,0.7,0.6C266.2,351.8,266.5,351.6,266.5,351.3z"/>
			<path class="fp-whitewater-st8" d="M268,351.5c0.3-0.1,0.5-0.2,0.5-0.5h-0.3v-0.7h0.7v0.6c0,0.6-0.3,0.9-0.8,0.9L268,351.5z M269.2,351.5
				c0.3-0.1,0.5-0.2,0.5-0.5h-0.3v-0.7h0.7v0.6c0,0.6-0.3,0.9-0.8,0.9L269.2,351.5z"/>
			<path class="fp-whitewater-st8" d="M274.1,352.1l0.7-1h0.7l-1,1.4l1.1,1.5h-0.7l-0.7-1l-0.7,1h-0.7l1-1.5l-1-1.4h0.7L274.1,352.1z"/>
			<path class="fp-whitewater-st8" d="M278,353.5l0.4-0.5c0.3,0.3,0.6,0.5,1,0.5c0.5,0,0.8-0.3,0.8-0.7v0c0-0.4-0.3-0.6-0.8-0.6
				c-0.3,0-0.5,0.1-0.7,0.2l-0.4-0.3l0.1-1.9h2.3v0.6h-1.7l-0.1,0.9c0.2-0.1,0.3-0.1,0.6-0.1c0.7,0,1.3,0.4,1.3,1.2v0
				c0,0.8-0.6,1.3-1.4,1.3C278.8,354.1,278.3,353.9,278,353.5z"/>
			<path class="fp-whitewater-st8" d="M281.5,351.5c0.3-0.1,0.5-0.2,0.5-0.5h-0.3v-0.7h0.7v0.6c0,0.6-0.3,0.9-0.8,0.9L281.5,351.5z"/>
			<path class="fp-whitewater-st8" d="M287.4,352.3c-0.2,0.3-0.5,0.4-0.9,0.4c-0.8,0-1.3-0.5-1.3-1.2v0c0-0.7,0.6-1.3,1.4-1.3
				c0.5,0,0.8,0.1,1.1,0.4c0.3,0.3,0.5,0.7,0.5,1.4v0c0,1.2-0.6,2.1-1.6,2.1c-0.5,0-0.9-0.2-1.2-0.5l0.4-0.5
				c0.3,0.2,0.5,0.4,0.9,0.4C287.1,353.5,287.4,352.8,287.4,352.3z M287.4,351.4L287.4,351.4c0-0.4-0.3-0.7-0.8-0.7
				c-0.5,0-0.8,0.3-0.8,0.7v0c0,0.4,0.3,0.7,0.8,0.7C287.1,352.1,287.4,351.8,287.4,351.4z"/>
			<path class="fp-whitewater-st8" d="M288.8,351.5c0.3-0.1,0.5-0.2,0.5-0.5H289v-0.7h0.7v0.6c0,0.6-0.3,0.9-0.8,0.9L288.8,351.5z M290.1,351.5
				c0.3-0.1,0.5-0.2,0.5-0.5h-0.3v-0.7h0.7v0.6c0,0.6-0.3,0.9-0.8,0.9L290.1,351.5z"/>
		</g>
		<g class="fp-whitewater-st7">
			<path class="fp-whitewater-st8" d="M258.2,344L258.2,344c0-1.5,1.1-2.8,2.7-2.8c1,0,1.6,0.3,2.1,0.8l-0.6,0.7c-0.4-0.4-0.9-0.7-1.5-0.7
				c-1,0-1.8,0.8-1.8,1.9v0c0,1,0.7,1.9,1.8,1.9c0.7,0,1.1-0.3,1.5-0.7l0.6,0.6c-0.6,0.6-1.2,0.9-2.2,0.9
				C259.4,346.7,258.2,345.5,258.2,344z"/>
		</g>
		<g class="fp-whitewater-st7">
			<path class="fp-whitewater-st8" d="M264.4,341.3h0.9v4.5h2.8v0.8h-3.7V341.3z"/>
		</g>
		<g class="fp-whitewater-st7">
			<path class="fp-whitewater-st8" d="M268.8,344L268.8,344c0-1.5,1.2-2.8,2.8-2.8c1.6,0,2.8,1.2,2.8,2.7v0c0,1.5-1.2,2.7-2.8,2.7
				S268.8,345.5,268.8,344z M273.4,344L273.4,344c0-1-0.8-1.9-1.8-1.9s-1.8,0.8-1.8,1.9v0c0,1,0.8,1.9,1.8,1.9S273.4,345,273.4,344z
				"/>
		</g>
		<g class="fp-whitewater-st7">
			<path class="fp-whitewater-st8" d="M275.4,345.9l0.6-0.7c0.5,0.4,1,0.7,1.7,0.7c0.6,0,0.9-0.3,0.9-0.7v0c0-0.4-0.2-0.6-1.2-0.8
				c-1.1-0.3-1.8-0.6-1.8-1.6v0c0-0.9,0.8-1.5,1.8-1.5c0.8,0,1.4,0.2,1.9,0.7l-0.5,0.7c-0.5-0.4-1-0.5-1.4-0.5
				c-0.5,0-0.9,0.3-0.9,0.6v0c0,0.4,0.2,0.6,1.3,0.8c1.1,0.3,1.7,0.7,1.7,1.6v0c0,1-0.8,1.6-1.9,1.6
				C276.8,346.7,276,346.4,275.4,345.9z"/>
			<path class="fp-whitewater-st8" d="M280.9,341.3h3.9v0.8h-3v1.4h2.7v0.8h-2.7v1.4h3v0.8h-4V341.3z"/>
			<path class="fp-whitewater-st8" d="M287.6,342.2h-1.7v-0.9h4.3v0.9h-1.7v4.4h-0.9V342.2z"/>
		</g>
		<g class="fp-whitewater-st7">
			<path class="fp-whitewater-st8" d="M276.2,428.6l-0.7,0.2l-0.1-0.5l1-0.3h0.5v3.8h-0.7V428.6z"/>
			<path class="fp-whitewater-st8" d="M277.8,431.2l1.3-1.1c0.5-0.4,0.7-0.7,0.7-1c0-0.4-0.3-0.6-0.6-0.6c-0.3,0-0.6,0.2-0.9,0.6l-0.5-0.4
				c0.4-0.5,0.7-0.8,1.4-0.8c0.7,0,1.3,0.5,1.3,1.1v0c0,0.6-0.3,0.9-1,1.5l-0.8,0.7h1.8v0.6h-2.7V431.2z"/>
			<path class="fp-whitewater-st8" d="M281.3,429.2c0.3-0.1,0.5-0.2,0.5-0.5h-0.3v-0.7h0.7v0.6c0,0.6-0.3,0.9-0.8,0.9L281.3,429.2z"/>
			<path class="fp-whitewater-st8" d="M284.9,430.7L284.9,430.7c0-0.5,0.3-0.8,0.7-0.9c-0.3-0.2-0.6-0.4-0.6-0.8v0c0-0.6,0.6-1,1.3-1
				c0.8,0,1.3,0.4,1.3,1v0c0,0.4-0.2,0.7-0.6,0.8c0.4,0.2,0.7,0.5,0.7,0.9v0c0,0.7-0.6,1.1-1.4,1.1
				C285.5,431.8,284.9,431.3,284.9,430.7z M287.1,430.6L287.1,430.6c0-0.4-0.3-0.6-0.8-0.6c-0.5,0-0.8,0.2-0.8,0.6v0
				c0,0.3,0.3,0.6,0.8,0.6C286.8,431.2,287.1,431,287.1,430.6z M287,429L287,429c0-0.3-0.3-0.5-0.7-0.5c-0.4,0-0.7,0.2-0.7,0.5v0
				c0,0.3,0.3,0.6,0.7,0.6C286.7,429.5,287,429.3,287,429z"/>
			<path class="fp-whitewater-st8" d="M288.5,429.2c0.3-0.1,0.5-0.2,0.5-0.5h-0.3v-0.7h0.7v0.6c0,0.6-0.3,0.9-0.8,0.9L288.5,429.2z M289.7,429.2
				c0.3-0.1,0.5-0.2,0.5-0.5h-0.3v-0.7h0.7v0.6c0,0.6-0.3,0.9-0.8,0.9L289.7,429.2z"/>
			<path class="fp-whitewater-st8" d="M294.6,429.8l0.7-1h0.7l-1,1.4l1.1,1.5h-0.7l-0.7-1l-0.7,1h-0.7l1-1.5l-1-1.4h0.7L294.6,429.8z"/>
			<path class="fp-whitewater-st8" d="M298.5,431.2l0.4-0.5c0.3,0.3,0.6,0.5,1,0.5c0.5,0,0.8-0.3,0.8-0.7v0c0-0.4-0.3-0.6-0.8-0.6
				c-0.3,0-0.5,0.1-0.7,0.2l-0.4-0.3l0.1-1.9h2.3v0.6h-1.7l-0.1,0.9c0.2-0.1,0.3-0.1,0.6-0.1c0.7,0,1.3,0.4,1.3,1.2v0
				c0,0.8-0.6,1.3-1.4,1.3C299.3,431.8,298.9,431.6,298.5,431.2z"/>
			<path class="fp-whitewater-st8" d="M302,429.2c0.3-0.1,0.5-0.2,0.5-0.5h-0.3v-0.7h0.7v0.6c0,0.6-0.3,0.9-0.8,0.9L302,429.2z"/>
			<path class="fp-whitewater-st8" d="M307.9,430c-0.2,0.3-0.5,0.4-0.9,0.4c-0.8,0-1.3-0.5-1.3-1.2v0c0-0.7,0.6-1.3,1.4-1.3c0.5,0,0.8,0.1,1.1,0.4
				c0.3,0.3,0.5,0.7,0.5,1.4v0c0,1.2-0.6,2.1-1.6,2.1c-0.5,0-0.9-0.2-1.2-0.5l0.4-0.5c0.3,0.2,0.5,0.4,0.9,0.4
				C307.7,431.2,307.9,430.5,307.9,430z M307.9,429.1L307.9,429.1c0-0.4-0.3-0.7-0.8-0.7c-0.5,0-0.8,0.3-0.8,0.7v0
				c0,0.4,0.3,0.7,0.8,0.7C307.6,429.8,307.9,429.5,307.9,429.1z"/>
			<path class="fp-whitewater-st8" d="M309.3,429.2c0.3-0.1,0.5-0.2,0.5-0.5h-0.3v-0.7h0.7v0.6c0,0.6-0.3,0.9-0.8,0.9L309.3,429.2z M310.6,429.2
				c0.3-0.1,0.5-0.2,0.5-0.5h-0.3v-0.7h0.7v0.6c0,0.6-0.3,0.9-0.8,0.9L310.6,429.2z"/>
		</g>
		<g class="fp-whitewater-st7">
			<path class="fp-whitewater-st8" d="M283,419.9h2.4c0.6,0,1.1,0.2,1.4,0.5c0.2,0.2,0.4,0.5,0.4,0.9v0c0,0.6-0.4,1-0.8,1.2
				c0.6,0.2,1.1,0.6,1.1,1.3v0c0,0.9-0.8,1.5-2,1.5H283V419.9z M286.2,421.4c0-0.4-0.3-0.7-0.9-0.7h-1.3v1.4h1.3
				C285.8,422.1,286.2,421.9,286.2,421.4L286.2,421.4z M285.4,422.9h-1.5v1.5h1.5c0.6,0,1-0.3,1-0.7v0
				C286.5,423.1,286.1,422.9,285.4,422.9z"/>
		</g>
		<g class="fp-whitewater-st7">
			<path class="fp-whitewater-st8" d="M290.6,419.8h0.9l2.3,5.3h-1l-0.5-1.3h-2.5l-0.5,1.3h-1L290.6,419.8z M292,423.1l-0.9-2.1l-0.9,2.1H292z"/>
		</g>
		<g class="fp-whitewater-st7">
			<path class="fp-whitewater-st8" d="M295.7,420.7H294v-0.9h4.3v0.9h-1.7v4.4h-0.9V420.7z"/>
			<path class="fp-whitewater-st8" d="M299.6,419.9h0.9v2.2h2.5v-2.2h0.9v5.3H303v-2.2h-2.5v2.2h-0.9V419.9z"/>
		</g>
		<rect x="390.7" y="326.4" class="fp-whitewater-st6" width="38.6" height="17.2"/>
		<g class="fp-whitewater-st7">
			<path class="fp-whitewater-st8" d="M401,338.6l-0.7,0.2l-0.1-0.5l1-0.3h0.5v3.8H401V338.6z"/>
			<path class="fp-whitewater-st8" d="M404.6,340.9h-1.9l-0.1-0.5l2.1-2.5h0.6v2.4h0.5v0.5h-0.5v0.9h-0.6V340.9z M404.6,340.4v-1.5l-1.2,1.5H404.6
				z"/>
			<path class="fp-whitewater-st8" d="M406.5,339.2c0.3-0.1,0.5-0.2,0.5-0.5h-0.3V338h0.7v0.6c0,0.6-0.3,0.9-0.8,0.9L406.5,339.2z"/>
			<path class="fp-whitewater-st8" d="M411.4,339.9l0.7-1h0.7l-1,1.4l1.1,1.5h-0.7l-0.7-1l-0.7,1H410l1-1.5l-1-1.4h0.7L411.4,339.9z"/>
			<path class="fp-whitewater-st8" d="M415.3,341.2l0.4-0.5c0.3,0.3,0.6,0.5,1,0.5c0.5,0,0.8-0.3,0.8-0.7v0c0-0.4-0.3-0.6-0.8-0.6
				c-0.3,0-0.5,0.1-0.7,0.2l-0.4-0.3l0.1-1.9h2.3v0.6h-1.7l-0.1,0.9c0.2-0.1,0.3-0.1,0.6-0.1c0.7,0,1.3,0.4,1.3,1.2v0
				c0,0.8-0.6,1.3-1.4,1.3C416.1,341.8,415.6,341.6,415.3,341.2z"/>
			<path class="fp-whitewater-st8" d="M418.8,339.2c0.3-0.1,0.5-0.2,0.5-0.5H419V338h0.7v0.6c0,0.6-0.3,0.9-0.8,0.9L418.8,339.2z"/>
		</g>
		<g class="fp-whitewater-st7">
			<path class="fp-whitewater-st8" d="M399.5,329.9h2.4c0.6,0,1.1,0.2,1.4,0.5c0.2,0.2,0.4,0.5,0.4,0.9v0c0,0.6-0.4,1-0.8,1.2
				c0.6,0.2,1.1,0.6,1.1,1.3v0c0,0.9-0.8,1.5-2,1.5h-2.5V329.9z M402.7,331.4c0-0.4-0.3-0.7-0.9-0.7h-1.3v1.4h1.3
				C402.3,332.1,402.7,331.9,402.7,331.4L402.7,331.4z M401.9,332.9h-1.5v1.5h1.5c0.6,0,1-0.3,1-0.7v0
				C403,333.2,402.6,332.9,401.9,332.9z"/>
		</g>
		<g class="fp-whitewater-st7">
			<path class="fp-whitewater-st8" d="M407.2,329.9h0.9l2.3,5.3h-1l-0.5-1.3h-2.5l-0.5,1.3h-1L407.2,329.9z M408.5,333.1l-0.9-2.1l-0.9,2.1H408.5z
				"/>
		</g>
		<g class="fp-whitewater-st7">
			<path class="fp-whitewater-st8" d="M412.2,330.8h-1.7v-0.9h4.3v0.9h-1.7v4.4h-0.9V330.8z"/>
			<path class="fp-whitewater-st8" d="M416.1,329.9h0.9v2.2h2.5v-2.2h0.9v5.3h-0.9V333h-2.5v2.2h-0.9V329.9z"/>
		</g>
		<g class="fp-whitewater-st7">
			<path class="fp-whitewater-st8" d="M419.2,290.8c-0.3-0.3-0.5-0.7-0.5-1.4v0c0-1.2,0.6-2.1,1.6-2.1c0.5,0,0.8,0.2,1.2,0.4l-0.4,0.5
				c-0.3-0.2-0.5-0.3-0.8-0.3c-0.7,0-0.9,0.7-0.9,1.2c0.2-0.2,0.5-0.4,0.9-0.4c0.7,0,1.3,0.4,1.3,1.2v0c0,0.8-0.6,1.3-1.4,1.3
				C419.8,291.2,419.5,291.1,419.2,290.8z M421,290L421,290c0-0.4-0.3-0.7-0.8-0.7c-0.5,0-0.8,0.3-0.8,0.7v0c0,0.4,0.3,0.7,0.8,0.7
				C420.7,290.6,421,290.3,421,290z"/>
			<path class="fp-whitewater-st8" d="M422.4,288.6c0.3-0.1,0.5-0.2,0.5-0.5h-0.3v-0.7h0.7v0.6c0,0.6-0.3,0.9-0.8,0.9L422.4,288.6z"/>
			<path class="fp-whitewater-st8" d="M426,290.1L426,290.1c0-0.5,0.3-0.8,0.7-0.9c-0.3-0.2-0.6-0.4-0.6-0.8v0c0-0.6,0.6-1,1.3-1
				c0.8,0,1.3,0.4,1.3,1v0c0,0.4-0.2,0.7-0.6,0.8c0.4,0.2,0.7,0.5,0.7,0.9v0c0,0.7-0.6,1.1-1.4,1.1C426.6,291.2,426,290.8,426,290.1
				z M428.2,290.1L428.2,290.1c0-0.4-0.3-0.6-0.8-0.6c-0.5,0-0.8,0.2-0.8,0.6v0c0,0.3,0.3,0.6,0.8,0.6
				C427.9,290.6,428.2,290.4,428.2,290.1z M428.1,288.4L428.1,288.4c0-0.3-0.3-0.5-0.7-0.5s-0.7,0.2-0.7,0.5v0
				c0,0.3,0.3,0.6,0.7,0.6C427.8,289,428.1,288.7,428.1,288.4z"/>
			<path class="fp-whitewater-st8" d="M429.6,288.6c0.3-0.1,0.5-0.2,0.5-0.5h-0.3v-0.7h0.7v0.6c0,0.6-0.3,0.9-0.8,0.9L429.6,288.6z M430.8,288.6
				c0.3-0.1,0.5-0.2,0.5-0.5H431v-0.7h0.7v0.6c0,0.6-0.3,0.9-0.8,0.9L430.8,288.6z"/>
			<path class="fp-whitewater-st8" d="M435.7,289.2l0.7-1h0.7l-1,1.4l1.1,1.5h-0.7l-0.7-1l-0.7,1h-0.7l1-1.5l-1-1.4h0.7L435.7,289.2z"/>
			<path class="fp-whitewater-st8" d="M441.6,287.9h-1.9v-0.6h2.7v0.5l-1.7,3.3h-0.8L441.6,287.9z"/>
			<path class="fp-whitewater-st8" d="M443.1,288.6c0.3-0.1,0.5-0.2,0.5-0.5h-0.3v-0.7h0.7v0.6c0,0.6-0.3,0.9-0.8,0.9L443.1,288.6z"/>
			<path class="fp-whitewater-st8" d="M448.9,289.4c-0.2,0.3-0.5,0.4-0.9,0.4c-0.8,0-1.3-0.5-1.3-1.2v0c0-0.7,0.6-1.3,1.4-1.3
				c0.5,0,0.8,0.1,1.1,0.4c0.3,0.3,0.5,0.7,0.5,1.4v0c0,1.2-0.6,2.1-1.6,2.1c-0.5,0-0.9-0.2-1.2-0.5l0.4-0.5
				c0.3,0.2,0.5,0.4,0.9,0.4C448.7,290.6,448.9,289.9,448.9,289.4z M448.9,288.6L448.9,288.6c0-0.4-0.3-0.7-0.8-0.7
				c-0.5,0-0.8,0.3-0.8,0.7v0c0,0.4,0.3,0.7,0.8,0.7C448.6,289.3,448.9,288.9,448.9,288.6z"/>
			<path class="fp-whitewater-st8" d="M450.4,288.6c0.3-0.1,0.5-0.2,0.5-0.5h-0.3v-0.7h0.7v0.6c0,0.6-0.3,0.9-0.8,0.9L450.4,288.6z M451.6,288.6
				c0.3-0.1,0.5-0.2,0.5-0.5h-0.3v-0.7h0.7v0.6c0,0.6-0.3,0.9-0.8,0.9L451.6,288.6z"/>
		</g>
		<g class="fp-whitewater-st7">
			<path class="fp-whitewater-st8" d="M419.7,281.1L419.7,281.1c0-1.5,1.1-2.8,2.7-2.8c1,0,1.6,0.3,2.1,0.8l-0.6,0.7c-0.4-0.4-0.9-0.7-1.5-0.7
				c-1,0-1.8,0.8-1.8,1.9v0c0,1,0.7,1.9,1.8,1.9c0.7,0,1.1-0.3,1.5-0.7l0.6,0.6c-0.6,0.6-1.2,0.9-2.2,0.9
				C420.8,283.9,419.7,282.7,419.7,281.1z"/>
		</g>
		<g class="fp-whitewater-st7">
			<path class="fp-whitewater-st8" d="M425.8,278.5h0.9v4.5h2.8v0.8h-3.7V278.5z"/>
		</g>
		<g class="fp-whitewater-st7">
			<path class="fp-whitewater-st8" d="M430.3,281.1L430.3,281.1c0-1.5,1.2-2.8,2.8-2.8s2.8,1.2,2.8,2.7v0c0,1.5-1.2,2.7-2.8,2.7
				C431.4,283.9,430.3,282.6,430.3,281.1z M434.9,281.1L434.9,281.1c0-1-0.8-1.9-1.8-1.9c-1.1,0-1.8,0.8-1.8,1.9v0
				c0,1,0.8,1.9,1.8,1.9C434.1,283,434.9,282.2,434.9,281.1z"/>
		</g>
		<g class="fp-whitewater-st7">
			<path class="fp-whitewater-st8" d="M436.9,283l0.6-0.7c0.5,0.4,1,0.7,1.7,0.7c0.6,0,0.9-0.3,0.9-0.7v0c0-0.4-0.2-0.6-1.2-0.8
				c-1.1-0.3-1.8-0.6-1.8-1.6v0c0-0.9,0.8-1.5,1.8-1.5c0.8,0,1.4,0.2,1.9,0.7l-0.5,0.7c-0.5-0.4-1-0.5-1.4-0.5
				c-0.5,0-0.9,0.3-0.9,0.6v0c0,0.4,0.2,0.6,1.3,0.8c1.1,0.3,1.7,0.7,1.7,1.6v0c0,1-0.8,1.6-1.9,1.6
				C438.3,283.9,437.5,283.6,436.9,283z"/>
			<path class="fp-whitewater-st8" d="M442.4,278.5h3.9v0.8h-3v1.4h2.7v0.8h-2.7v1.4h3v0.8h-4V278.5z"/>
			<path class="fp-whitewater-st8" d="M449.1,279.3h-1.7v-0.9h4.3v0.9H450v4.4h-0.9V279.3z"/>
		</g>
		<g class="fp-whitewater-st7">
			<path class="fp-whitewater-st8" d="M288.2,262.7l0.5-0.4c0.3,0.3,0.6,0.5,1,0.5c0.4,0,0.7-0.2,0.7-0.6v0c0-0.4-0.3-0.6-0.9-0.6h-0.3l-0.1-0.4
				l1-1.1h-1.6v-0.6h2.5v0.5l-1.1,1.1c0.6,0.1,1.1,0.4,1.1,1.1v0c0,0.7-0.5,1.2-1.3,1.2C289,263.4,288.5,263.1,288.2,262.7z"/>
			<path class="fp-whitewater-st8" d="M291.8,260.8c0.3-0.1,0.5-0.2,0.5-0.5h-0.3v-0.7h0.7v0.6c0,0.6-0.3,0.9-0.8,0.9L291.8,260.8z"/>
			<path class="fp-whitewater-st8" d="M295.3,262.3L295.3,262.3c0-0.5,0.3-0.8,0.7-0.9c-0.3-0.2-0.6-0.4-0.6-0.8v0c0-0.6,0.6-1,1.3-1
				s1.3,0.4,1.3,1v0c0,0.4-0.2,0.7-0.6,0.8c0.4,0.2,0.7,0.5,0.7,0.9v0c0,0.7-0.6,1.1-1.4,1.1S295.3,262.9,295.3,262.3z M297.6,262.2
				L297.6,262.2c0-0.4-0.3-0.6-0.8-0.6s-0.8,0.2-0.8,0.6v0c0,0.3,0.3,0.6,0.8,0.6S297.6,262.6,297.6,262.2z M297.4,260.6
				L297.4,260.6c0-0.3-0.3-0.5-0.7-0.5s-0.7,0.2-0.7,0.5v0c0,0.3,0.3,0.6,0.7,0.6S297.4,260.9,297.4,260.6z"/>
			<path class="fp-whitewater-st8" d="M298.9,260.8c0.3-0.1,0.5-0.2,0.5-0.5h-0.3v-0.7h0.7v0.6c0,0.6-0.3,0.9-0.8,0.9L298.9,260.8z M300.2,260.8
				c0.3-0.1,0.5-0.2,0.5-0.5h-0.3v-0.7h0.7v0.6c0,0.6-0.3,0.9-0.8,0.9L300.2,260.8z"/>
			<path class="fp-whitewater-st8" d="M305,261.4l0.7-1h0.7l-1,1.4l1.1,1.5h-0.7l-0.7-1l-0.7,1h-0.7l1-1.5l-1-1.4h0.7L305,261.4z"/>
			<path class="fp-whitewater-st8" d="M310.9,260.1H309v-0.6h2.7v0.5l-1.7,3.3h-0.8L310.9,260.1z"/>
			<path class="fp-whitewater-st8" d="M312.4,260.8c0.3-0.1,0.5-0.2,0.5-0.5h-0.3v-0.7h0.7v0.6c0,0.6-0.3,0.9-0.8,0.9L312.4,260.8z"/>
			<path class="fp-whitewater-st8" d="M315.9,262.7l0.5-0.4c0.3,0.3,0.6,0.5,1,0.5c0.4,0,0.7-0.2,0.7-0.6v0c0-0.4-0.3-0.6-0.9-0.6h-0.3l-0.1-0.4
				l1-1.1h-1.6v-0.6h2.5v0.5l-1.1,1.1c0.6,0.1,1.1,0.4,1.1,1.1v0c0,0.7-0.5,1.2-1.3,1.2C316.7,263.4,316.3,263.1,315.9,262.7z"/>
			<path class="fp-whitewater-st8" d="M319.5,260.8c0.3-0.1,0.5-0.2,0.5-0.5h-0.3v-0.7h0.7v0.6c0,0.6-0.3,0.9-0.8,0.9L319.5,260.8z M320.7,260.8
				c0.3-0.1,0.5-0.2,0.5-0.5h-0.3v-0.7h0.7v0.6c0,0.6-0.3,0.9-0.8,0.9L320.7,260.8z"/>
		</g>
		<g class="fp-whitewater-st7">
			<path class="fp-whitewater-st8" d="M288.5,253.3L288.5,253.3c0-1.5,1.1-2.8,2.7-2.8c1,0,1.6,0.3,2.1,0.8l-0.6,0.7c-0.4-0.4-0.9-0.7-1.5-0.7
				c-1,0-1.8,0.8-1.8,1.9v0c0,1,0.7,1.9,1.8,1.9c0.7,0,1.1-0.3,1.5-0.7l0.6,0.6c-0.6,0.6-1.2,0.9-2.2,0.9
				C289.7,256,288.5,254.8,288.5,253.3z"/>
		</g>
		<g class="fp-whitewater-st7">
			<path class="fp-whitewater-st8" d="M294.7,250.6h0.9v4.5h2.8v0.8h-3.7V250.6z"/>
		</g>
		<g class="fp-whitewater-st7">
			<path class="fp-whitewater-st8" d="M299.1,253.3L299.1,253.3c0-1.5,1.2-2.8,2.8-2.8c1.6,0,2.8,1.2,2.8,2.7v0c0,1.5-1.2,2.7-2.8,2.7
				C300.3,256,299.1,254.8,299.1,253.3z M303.7,253.3L303.7,253.3c0-1-0.8-1.9-1.8-1.9c-1.1,0-1.8,0.8-1.8,1.9v0
				c0,1,0.8,1.9,1.8,1.9C303,255.2,303.7,254.3,303.7,253.3z"/>
		</g>
		<g class="fp-whitewater-st7">
			<path class="fp-whitewater-st8" d="M305.7,255.2l0.6-0.7c0.5,0.4,1,0.7,1.7,0.7c0.6,0,0.9-0.3,0.9-0.7v0c0-0.4-0.2-0.6-1.2-0.8
				c-1.1-0.3-1.8-0.6-1.8-1.6v0c0-0.9,0.8-1.5,1.8-1.5c0.8,0,1.4,0.2,1.9,0.7l-0.5,0.7c-0.5-0.4-1-0.5-1.4-0.5
				c-0.5,0-0.9,0.3-0.9,0.6v0c0,0.4,0.2,0.6,1.3,0.8c1.1,0.3,1.7,0.7,1.7,1.6v0c0,1-0.8,1.6-1.9,1.6
				C307.1,256,306.4,255.7,305.7,255.2z"/>
			<path class="fp-whitewater-st8" d="M311.2,250.6h3.9v0.8h-3v1.4h2.7v0.8h-2.7v1.4h3v0.8h-4V250.6z"/>
			<path class="fp-whitewater-st8" d="M317.9,251.5h-1.7v-0.9h4.3v0.9h-1.7v4.4h-0.9V251.5z"/>
		</g>
		<polyline class="fp-whitewater-st25" points="343.4,324.6 355.9,312.2 356.8,313.1 		"/>
		<polyline class="fp-whitewater-st25" points="352.8,334.2 365.2,321.8 364.3,320.9 		"/>
		
			<rect x="245.1" y="438.8" transform="matrix(0.735 -0.678 0.678 0.735 -231.3266 286.3669)" class="fp-whitewater-st17" width="11.3" height="0.6"/>
		<path class="fp-whitewater-st18" d="M257.8,443.1c0.1-2.8-0.9-5.5-2.6-7.6"/>
		<polyline class="fp-whitewater-st25" points="245.4,461.6 245.4,444 246.7,444 		"/>
		<polyline class="fp-whitewater-st25" points="258.8,461.8 258.8,444.2 257.5,444.2 		"/>
		<rect x="373.1" y="434.7" class="fp-whitewater-st6" width="5.9" height="15.4"/>
		<g class="fp-whitewater-st7">
			<path class="fp-whitewater-st8" d="M376.1,447.4L376.1,447.4c-0.7,0-1.2-0.5-1.2-1.1c0-0.4,0.2-0.7,0.4-0.9l0.3,0.3c-0.2,0.2-0.3,0.4-0.3,0.6
				c0,0.4,0.4,0.7,0.8,0.7h0c0.5,0,0.8-0.3,0.8-0.7c0-0.3-0.1-0.4-0.3-0.6l0.3-0.3c0.3,0.2,0.4,0.5,0.4,0.9
				C377.3,446.9,376.8,447.4,376.1,447.4z"/>
		</g>
		<g class="fp-whitewater-st7">
			<path class="fp-whitewater-st8" d="M376.1,445L376.1,445c-0.7,0-1.2-0.5-1.2-1.2c0-0.7,0.5-1.2,1.2-1.2h0c0.7,0,1.2,0.5,1.2,1.2
				S376.8,445,376.1,445z M376.1,443.1L376.1,443.1c-0.5,0-0.8,0.3-0.8,0.8s0.4,0.7,0.8,0.7h0c0.5,0,0.8-0.3,0.8-0.8
				C377,443.4,376.6,443.1,376.1,443.1z"/>
		</g>
		<g class="fp-whitewater-st7">
			<path class="fp-whitewater-st8" d="M374.9,441.5v-0.4l2.4-1v0.4l-0.6,0.2v1.1l0.6,0.2v0.4L374.9,441.5z M376.4,440.9l-0.9,0.4l0.9,0.4V440.9z"
				/>
		</g>
		<g class="fp-whitewater-st7">
			<path class="fp-whitewater-st8" d="M375.3,439.4v0.7h-0.4v-1.8h0.4v0.7h2v0.4H375.3z"/>
		</g>
		<rect x="441.7" y="390.8" class="fp-whitewater-st6" width="5.8" height="18.9"/>
		<g class="fp-whitewater-st7">
			<path class="fp-whitewater-st8" d="M445.8,391.7v0.4h-2v1.2h-0.4v-1.6H445.8z"/>
		</g>
		<g class="fp-whitewater-st7">
			<path class="fp-whitewater-st8" d="M445.8,394.6v0.4l-2.4,1v-0.4l0.6-0.2v-1.1l-0.6-0.2v-0.4L445.8,394.6z M444.4,395.2l0.9-0.4l-0.9-0.4V395.2
				z"/>
		</g>
		<g class="fp-whitewater-st7">
			<path class="fp-whitewater-st8" d="M444.4,396.3h1.4v0.4h-1.3c-0.4,0-0.7,0.2-0.7,0.6c0,0.3,0.2,0.6,0.7,0.6h1.4v0.4h-1.3c-0.7,0-1.1-0.4-1.1-1
				C443.4,396.7,443.7,396.3,444.4,396.3z"/>
			<path class="fp-whitewater-st8" d="M445.8,398.9v0.4l-1.6,1.2h1.6v0.4h-2.4v-0.3l1.7-1.2h-1.7v-0.4H445.8z"/>
			<path class="fp-whitewater-st8" d="M445.8,401.5v0.8c0,0.7-0.5,1.2-1.2,1.2h0c-0.7,0-1.2-0.5-1.2-1.2v-0.8H445.8z M445.4,401.9h-1.6v0.4
				c0,0.5,0.3,0.8,0.8,0.8h0c0.5,0,0.8-0.3,0.8-0.8V401.9z"/>
		</g>
		<g class="fp-whitewater-st7">
			<path class="fp-whitewater-st8" d="M445.8,404.1v1c0,0.3-0.1,0.5-0.2,0.6c-0.1,0.1-0.3,0.2-0.5,0.2h0c-0.4,0-0.6-0.2-0.7-0.5l-0.9,0.6v-0.5
				l0.8-0.5v-0.5h-0.8v-0.4H445.8z M444.6,405.1c0,0.3,0.2,0.5,0.4,0.5h0c0.3,0,0.4-0.2,0.4-0.5v-0.6h-0.8V405.1z"/>
		</g>
		<g class="fp-whitewater-st7">
			<path class="fp-whitewater-st8" d="M444.4,407.1l1.4-0.9v0.5l-1,0.6l1,0.6v0.4l-1.4-0.9h-0.9v-0.4H444.4z"/>
		</g>
		<rect x="0.5" y="0.5" class="fp-whitewater-st26" width="557.3" height="557.3"/>
	</g>
</g>
</svg>
